<?xml version="1.0" encoding="UTF-8"?><svg id="a" xmlns="http://www.w3.org/2000/svg" xmlns:xlink="http://www.w3.org/1999/xlink" viewBox="0 0 223.0952 429.85"><defs><clipPath id="c"><path d="m157.51,387.4048s3.716,4.6357,14.2669,6.9759c10.5509,2.3402,12.9271,3.0163,15.1534,7.7261s1.4383,15.2248-3.3759,18.329c-4.8142,3.1043-9.1527,7.0009-24.6934,4.1873-15.5407-2.8137-17.4306-4.7531-27.3948-1.8725-9.9642,2.8806-18.7997,5.7356-20.7453-6.7796-1.9456-12.5152-1.4136-16.6448,2.1819-17.7492s-5.0047-9.9041-4.3788-14.5622c2.2638.9431.7339,3.965,10.127,4.0906,9.3932.1255,9.9283.3969,16.4241-1.2914s12.2001-3.1131,22.4349.9459" style="fill:#2e7b5b; stroke:#000; stroke-linecap:round; stroke-linejoin:round; stroke-width:3px;"/></clipPath><clipPath id="g"><path d="m99.5489,155.6594s-.1324,12.6757,2.2294,16.036-12.6271,7.2924-18.7,6.1993c-11.7647-2.1176-18.6941-3.0588-14.7-15.0588,3.9941-12-2.5312-22.8235-2.5312-22.8235,0,0,32.6429-8.4706,33.7018,15.6471Z" style="fill:none; stroke-width:0px;"/></clipPath></defs><g id="b"><path d="m112.2769,167.5008s-25.461-11.4216-49.461-7.1863-9.8933,14.0765-7.5349,27.0382,28.7452,26.7852,36.9636,23.0499,23.3537-25.6121,20.0323-42.9018Z" style="fill:#034346; stroke:#000; stroke-linecap:round; stroke-linejoin:round; stroke-width:3px;"/><path d="m105.1489,171.138s-11.7448-9.4444-28.333-7.781-22.3316-1.0425-20.6952,5.8987,3.5187,8.3366,4.9305,15.3448,13.8824,18.8288,25.1765,18.6832,21.9601-21.3221,18.9212-32.1456Z" style="fill:#032321; stroke:#000; stroke-linecap:round; stroke-linejoin:round; stroke-width:3px;"/></g><path d="m97.2682,370.1956c-2.4911-2.6499-4.9726-5.2972-7.4612-7.9568.5308,6.8037-1.6945,13.7695-6.0594,19.0115s-10.8205,8.69-17.6057,9.3906c21.2348-13.128,11.2389-36.7616,11.2389-36.7616-5.5851,3.0307-8.7007.603-8.7007.603,6.8586-11.6024,1.2413-29.554.1903-49.1762-1.051-19.6222,28.8771-31.0637,28.8771-31.0637-4.9396,2.9687-17.5136,15.6899-17.5136,15.6899-2.4645,1.847-4.3654,4.4367-5.3901,7.3538-2.8004,7.9232,1.0483,16.525,5.015,23.939,8.2768,15.4629,17.7733,31.4441,17.4094,48.9705Z" style="fill:#a9c7d1; stroke-width:0px;"/><path d="m66.1419,390.641c2.9804-5.3173,5.2693-11.0386,6.7711-16.9509-8.2726,11.1582-23.3477,16.7886-36.904,13.7759,6.036-1.2019,10.4868-6.1742,14.4752-10.8725-5.2555,1.7422-10.9929,1.978-16.3824.6925,7.7584-1.2775,14.4622-7.5522,16.2474-15.2189,2.4407-10.4718-3.6594-20.7641-6.764-31.0646-3.1808-10.5676-3.1836-22.1804.6317-32.5381,3.825-10.3552,11.5523-19.3408,21.5196-24.0892,9.9745-4.7363,22.1102-5.0079,32.011-.1328,0,0-29.928,11.4415-28.8771,31.0637,1.051,19.6222,6.6683,37.5738-.1903,49.1762,0,0,3.1156,2.4277,8.7007-.603,0,0,9.996,23.6336-11.2389,36.7616Z" style="fill:#235566; stroke-width:0px;"/><path d="m97.7475,274.2424c-9.9008-4.8751-22.0365-4.6035-32.011.1328-9.9673,4.7485-17.6946,13.734-21.5196,24.0892-3.8153,10.3577-3.8125,21.9704-.6317,32.5381,3.1047,10.3004,9.2047,20.5928,6.764,31.0646-1.7853,7.6667-8.489,13.9414-16.2474,15.2189,5.3896,1.2855,11.1269,1.0496,16.3824-.6925-3.9885,4.6983-8.4392,9.6706-14.4752,10.8725,13.5562,3.0128,28.6313-2.6176,36.904-13.7759-1.5017,5.9123-3.7906,11.6335-6.7711,16.9509,6.7852-.7007,13.2408-4.1487,17.6057-9.3906s6.5902-12.2078,6.0594-19.0115c2.4886,2.6595,4.9701,5.3069,7.4612,7.9568.3638-17.5263-9.1326-33.5076-17.4094-48.9705-3.9667-7.414-7.8155-16.0158-5.015-23.939,1.0247-2.9171,2.9257-5.5068,5.3901-7.3538,0,0,12.574-12.7212,17.5136-15.6899Z" style="fill:none; stroke:#000; stroke-linecap:round; stroke-linejoin:round; stroke-width:3px;"/><path d="m97.7475,274.2424s-29.928,11.4415-28.8771,31.0637c1.051,19.6222,6.6683,37.5738-.1903,49.1762,0,0,3.1156,2.4277,8.7007-.603,0,0,9.996,23.6336-11.2389,36.7616" style="fill:none; stroke:#000; stroke-linecap:round; stroke-linejoin:round; stroke-width:3px;"/><path d="m157.51,387.4048s3.716,4.6357,14.2669,6.9759c10.5509,2.3402,12.9271,3.0163,15.1534,7.7261s1.4383,15.2248-3.3759,18.329c-4.8142,3.1043-9.1527,7.0009-24.6934,4.1873-15.5407-2.8137-17.4306-4.7531-27.3948-1.8725-9.9642,2.8806-18.7997,5.7356-20.7453-6.7796-1.9456-12.5152-1.4136-16.6448,2.1819-17.7492s-5.0047-9.9041-4.3788-14.5622c2.2638.9431.7339,3.965,10.127,4.0906,9.3932.1255,9.9283.3969,16.4241-1.2914s12.2001-3.1131,22.4349.9459" style="fill:#2e7b5b;"/><g style="clip-path:url(#c);"><path d="m167.9893,384.3984s-19.8163-1.6182-25.3454,8.9548,6.2032,6.6232,6.2032,6.6232c0,0,4.7499,3.4956,5.634-.9678s14.8616,9.8906,12.4538.1914c3.8903.3432,43.0307,7.2726,1.0545-14.8016Z" style="fill:#193425; stroke-width:0px;"/><path d="m183.6656,395.693s2.9591,6.2149-2.6311,5.7522-15.4236-3.668-15.4236-3.668c0,0,1.4313,3.7564-1.1115,5.9744-2.0438-2.0874-2.8915-6.0765-9.9996-5.5435-.9134,1.3457-2.1922,4.6465-2.1922,4.6465,0,0-5.3708-6.1869-17.965-.6771-12.5942,5.5098-21.3694,2.5443-28.0883-3.8175-6.7189-6.3618-5.3046,14.9884-5.3046,14.9884,0,0,9.2972,4.6082,21.4417-.0856,12.1445-4.6938,21.1129-10.4754,21.1129-10.4754,0,0,3.4886,5.0816,11.994,6.67,8.5054,1.5884,1.1531-6.9431,1.1531-6.9431,0,0,5.8926,7.3733,12.6479,6.9888,6.7552-.3845.7052-5.8659.7052-5.8659,0,0,21.8332,10.4547,18.9733-2.5946" style="fill:#42abe4; stroke:#000; stroke-linecap:round; stroke-linejoin:round; stroke-width:3px;"/><path d="m168.0948,425.3021s2.494-3.7144.8048-6.1504c-2.8251.1355-9.6711-.0639-18.3575-1.8692-8.6864-1.8053-16.3685-1.922-21.464-.878-5.0956,1.0441-18.3571-.4336-18.3571-.4336,0,0,.5321,9.2295,8.0356,9.2294s18.6375-5.7032,28.0534-2.7657,21.2847,2.8674,21.2847,2.8674Z" style="fill:#2b4d3c; stroke-width:0px;"/><path d="m187.0047,408.8912c-2.1314,2.03-4.5623,8.2142-17.0551,10.1064.3868,1.6247-.5209,6.7897-.5209,6.7897,0,0,16.5259-2.0407,17.2782-8.8774.7523-6.8367.2978-8.0187.2978-8.0187Z" style="fill:#53b791; stroke-width:0px;"/></g><path d="m157.51,387.4048s3.716,4.6357,14.2669,6.9759c10.5509,2.3402,12.9271,3.0163,15.1534,7.7261s1.4383,15.2248-3.3759,18.329c-4.8142,3.1043-9.1527,7.0009-24.6934,4.1873-15.5407-2.8137-17.4306-4.7531-27.3948-1.8725-9.9642,2.8806-18.7997,5.7356-20.7453-6.7796-1.9456-12.5152-1.4136-16.6448,2.1819-17.7492s-5.0047-9.9041-4.3788-14.5622c2.2638.9431.7339,3.965,10.127,4.0906,9.3932.1255,9.9283.3969,16.4241-1.2914s12.2001-3.1131,22.4349.9459" style="fill:none; stroke:#000; stroke-linecap:round; stroke-linejoin:round; stroke-width:3px;"/><path d="m187.5636,407.5062c-3.5517,5.9013-9.6815,10.2353-16.4676,11.4136-9.298,1.6145-18.5588-2.4919-27.9551-3.3683-2.3485-.219-4.7158-.2351-7.0671-.0479-4.2575.339-8.439,1.3402-12.6919,1.7329-4.2529.3926-8.7239.1274-12.483-1.9" style="fill:none; stroke:#000; stroke-linecap:round; stroke-linejoin:round; stroke-width:3px;"/><path d="m157.51,387.4048s.7798-6.5857-3.6088-8.8845c-4.3886-2.2988-8.0754-1.3397-10.3398,2.9436-2.2645,4.2832-.6722,16.1351-.6722,16.1351,0,0,5.3431-9.2426,14.6208-10.1942Z" style="fill:#5ea28d; stroke:#000; stroke-linecap:round; stroke-linejoin:round; stroke-width:3px;"/><path d="m168.8467,425.6751c.4386-.2014.6308-.7124.7502-1.18.2968-1.1628.4075-2.373.3266-3.5704-.0156-.2308-.0433-.4747-.1838-.6586" style="fill:none; stroke:#000; stroke-linecap:round; stroke-linejoin:round; stroke-width:3px;"/><path d="m17.7085,398.0388c-3.5817,3.3251-4.8509,8.6726-3.9608,13.4852.1803.9765.4506,1.9511.9879,2.7801.2172.3456.4836.6501.7696.9342.8775.832,2.0291,1.3782,3.2154,1.6736,1.0154.249,2.0472.3276,3.0981.3557.1802.0063.3701.0023.5603.0084l-.0006-.03c-2.0904-2.4071-3.4537-5.4394-3.8795-8.6013-.2842-2.1246-.0826-4.4592,1.273-6.1278-.994.3007-2.1251-.706-1.9361-1.7202.0988-.5422.4695-.99.8412-1.3978.8695-.9983,1.7389-1.9965,2.6284-2.9952l-.7131-.6253c-.975.7304-1.9909,1.4217-2.8837,2.2604Z" style="fill:#2e7b5b; stroke-width:0px;"/><path d="m14.8764,415.3013c-.1806,3.3445.2395,6.7165,1.256,9.9061l.4472-.1393c.59-1.4526,1.2201-2.896,2.0527-4.2235.8226-1.3274,1.8777-2.5395,3.1801-3.3968l.0063-.1802c-1.0508-.0282-2.0827-.1068-3.0981-.3557-1.1864-.2954-2.338-.8416-3.2154-1.6736l-.6288.0631Z" style="fill:#2b4d3c; stroke-width:0px;"/><path d="m16.1324,425.2074c.0106.0298.0214.0696.0321.0994.524,1.6295,1.3605,3.3825,2.9635,3.9893.7661.2842,1.5959.2669,2.4157.2499,12.7572-.265,25.5143-.54,38.2815-.8052.4099-.0085.8498-.0177,1.2156-.2253.257-.1454.4526-.3595.638-.5834.7716-.8962,1.5125-1.8218,2.1824-2.7959-.9531-3.511-3.5267-6.5482-6.8289-8.0599-1.5622-.0876-3.1322-.075-4.7023-.0624-.5801.002-1.16.0141-1.74.0161-9.0101.0871-18.0107.1541-27.0208.2412-.3999.0083-.8.0066-1.1902.0047-.1902-.0061-.3801-.0021-.5603-.0084l-.0063.1802c-1.3025.8572-2.3575,2.0694-3.1801,3.3968-.8326,1.3276-1.4628,2.771-2.0527,4.2235l-.4472.1393Z" style="fill:#53b791; stroke-width:0px;"/><path d="m21.3053,396.4037c-.8895.9987-1.7589,1.997-2.6284,2.9952-.3716.4078-.7424.8556-.8412,1.3978-.189,1.0141.9422,2.0209,1.9361,1.7202-1.3556,1.6685-1.5572,4.0032-1.273,6.1278.4258,3.1618,1.789,6.1942,3.8795,8.6013-.1718-4.4174-.9406-7.7221,1.2096-11.5876-.206-.2858-.4026-.6018-.4099-.9517.0009-.4401.2929-.8263.5962-1.1526.6843-.7644,1.5029-1.3215,2.2592-1.9873-.4907-.5099-1.6265-.7764-2.3028-1.0724.8455-.7077,1.6912-1.4054,2.5267-2.1129.4722-.3799.9723-.8604.9499-1.46-.5453-.2487-1.0808-.5077-1.6261-.7564.8221-.3872,1.6334-.8141,2.27-1.4675.6268-.6432,1.0584-1.5323.9595-2.4405l.01-.0002c-.357-.8128-.6248-1.6674-.783-2.5443l-.7373.1353-4.5801,3.896c-.0748.2516-.2608.4455-.4472.6194-.5295.5111-1.1.9731-1.681,1.4152l.7131.6253Z" style="fill:#42abe4; stroke-width:0px;"/><path d="m23.588,405.6583c-2.1502,3.8655-1.3814,7.1702-1.2096,11.5876l.0006.03c.3901.0019.7902.0036,1.1902-.0047,9.0101-.0871,18.0107-.1541,27.0208-.2412l-.0151-1.2099c-.1304-.0173-.1639-.1866-.1564-.3068.0607-1.4116.6736-2.7246,1.1967-4.0257.7327-1.8056,1.3139-3.6781,1.7346-5.5772l-1.1958-.2652c-1.2211,1.4057-3.1561,2.146-5.0013,1.9143-1.0531-.1382-2.032-.5579-3.0389-.8771-2.8901-.9402-5.9703-.9162-8.9512-.4442-1.4955.2311-2.9788.572-4.4514.9426-1.2039.3051-2.3625.8692-3.632.9056-1.3995.0391-2.7293-1.3836-3.4912-2.428Z" style="fill:#5ea28d; stroke-width:0px;"/><path d="m25.6203,381.1908c-3.5215,2.3736-4.9369,7.4241-3.1661,11.2982.1783.3964.3976.8419.2661,1.2547l4.5801-3.896.7373-.1353c-.2347-1.1854-.2798-2.3947-.1547-3.5976l-.2031-.1458c-.9433-.1504-1.6512-1.0059-1.9303-1.9203-.2793-.9244-.1996-1.9063-.1294-2.8579Z" style="fill:#2e7b5b; stroke-width:0px;"/><path d="m23.1782,404.7066c.0073.3499.2039.6659.4099.9517.7619,1.0444,2.0917,2.4671,3.4912,2.428,1.2695-.0364,2.4281-.6006,3.632-.9056,1.4726-.3707,2.9559-.7115,4.4514-.9426,2.9808-.472,6.061-.496,8.9512.4442,1.0068.3192,1.9858.7389,3.0389.8771,1.8452.2317,3.7803-.5086,5.0013-1.9143l1.1958.2652.01-.0002c.2194-.9948.3984-2.0087.5374-3.0218.0167-.1604.0431-.331.1508-.4432.2248-.2547.6274-.1331.9304.0107.8583.3923,1.7169.7945,2.5652,1.187.3586-2.9581-1.4252-6.0117-.5339-8.8508.0277-.1106.0656-.2114.1542-.2833.0883-.0819.2279-.1048.3481-.0972l-2.0649-1.1774c-.0581.0912-.1162.1825-.1841.2839-.4694-1.4106-3.4899-3.3282-5.1199-4.2746-2.0451-1.1878-4.1765-2.1937-6.5047-2.5655-3.9137-.6189-8.0316-.4733-11.7011,1.0332-1.0315.4215-2.0992,1.0238-2.5277,2.0629-.3235.7969-.204,1.7346-.5779,2.5125-.0002-.01-.0104-.0198-.0106-.0298l-.01.0002c.0989.9081-.3327,1.7973-.9595,2.4405-.6366.6534-1.4479,1.0803-2.27,1.4675.5453.2487,1.0808.5077,1.6261.7564.0225.5997-.4777,1.0802-.9499,1.46-.8355.7075-1.6812,1.4052-2.5267,2.1129.6763.296,1.8121.5625,2.3028,1.0724-.7563.6659-1.5749,1.223-2.2592,1.9873-.3033.3264-.5953.7125-.5962,1.1526Z" style="fill:#193425; stroke-width:0px;"/><path d="m27.68,385.9691l.2031.1458c-.125,1.2029-.0799,2.4122.1547,3.5976.1582.8769.4261,1.7315.783,2.5443.0002.01.0104.0198.0106.0298.3739-.7779.2544-1.7157.5779-2.5125.4285-1.0391,1.4962-1.6414,2.5277-2.0629,3.6695-1.5065,7.7874-1.6521,11.7011-1.0332,2.3282.3717,4.4596,1.3777,6.5047,2.5655,1.63.9464,4.6505,2.864,5.1199,4.2746.0679-.1014.126-.1927.1841-.2839.7916-1.3767.2126-2.2849.6824-4.7052l2.2379-.1265c-.1243-.2075-.2487-.4149-.383-.6222-.8857.2184-1.8225.3779-1.9179.1199-1.2726-3.4843-4.6209-5.7753-8.0226-7.265-4.2798-1.8715-9.0912-2.8518-13.6725-1.9065-1.0556.222-2.109.5539-3.0067,1.1527-2.0124,1.3521-2.9017,3.8011-3.6844,6.0878Z" style="fill:#5ea28d; stroke-width:0px;"/><path d="m50.4185,415.5132c-.0075.1202.026.2895.1564.3068.1002.0079.1683-.0835.2266-.1647,1.5346-2.2023,4.6993-2.4881,6.805-4.1622.5807-.4522,1.0692-1.0124,1.4465-1.6304.2708-.4457.4904-.9504.4498-1.4597-.0452-.7292-1.2828-1.5637-1.9953-1.6789,1.7381.374,2.4757-.2315,3.7299-1.4878,1.0092-1.0112,1.2139-2.7158.4783-3.9408-.5178-.8494-1.4413-1.4904-1.6714-2.4558,1.2624.5839,2.9114.0395,3.6772-1.1366.1744-.2737.3083-.5665.3818-.8781.2788-1.026.0545-2.1916-.5934-3.0483-.3497-.4628-.7977-.8436-1.187-1.2856-1.2194-1.405-1.7738-3.5339-3.4896-4.2785l-.1531-.627c-.2087.0643-.4574.1295-.6961.1945.1343.2073.2587.4147.383.6222.8412,1.4929,1.4155,3.1413,1.7108,4.8355.102.578.107,1.2981-.4071,1.5888-.6526.3636-1.398-.371-2.1591-.4153-.1202-.0075-.2597.0154-.3481.0972-.0885.0719-.1264.1727-.1542.2833-.8912,2.8391.8926,5.8927.5339,8.8508-.8483-.3925-1.7069-.7947-2.5652-1.187-.3031-.1437-.7057-.2654-.9304-.0107-.1077.1123-.1342.2828-.1508.4432-.139,1.0131-.318,2.027-.5374,3.0218l-.01.0002c-.4207,1.8991-1.0019,3.7716-1.7346,5.5772-.5231,1.3011-1.136,2.6142-1.1967,4.0257Z" style="fill:#42abe4; stroke-width:0px;"/><path d="m57.0323,417.0762c.7209.035,1.4524.0999,2.1745.1949.8525.1123,1.6961.2748,2.5548.207,1.8073-.1476,3.4131-1.3312,4.4525-2.8131.1748-.2537.3295-.507.4741-.77.7428-1.3157,1.1926-2.7754,1.542-4.2529.5256-2.1414.8999-4.3496.6442-6.5448-.2654-2.185-1.2209-4.3656-2.9594-5.7198.0094-.0302.009-.0502.0183-.0804l-1.8302-.4721c-.0735.3116-.2075.6044-.3818.8781-.7657,1.1762-2.4148,1.7205-3.6772,1.1366.2301.9654,1.1536,1.6064,1.6714,2.4558.7356,1.225.531,2.9296-.4783,3.9408-1.2542,1.2563-1.9918,1.8618-3.7299,1.4878.7125.1152,1.9501.9497,1.9953,1.6789.0406.5093-.179,1.0139-.4498,1.4597-.3772.618-.8657,1.1782-1.4465,1.6304-2.1057,1.6741-5.2704,1.9599-6.805,4.1622-.0583.0812-.1264.1727-.2266.1647l.0151,1.2099c.5801-.002,1.16-.0141,1.74-.0161,1.5701-.0126,3.1402-.0252,4.7023.0624Z" style="fill:#2e7b5b; stroke-width:0px;"/><path d="m55.4469,393.234l2.0649,1.1774c.7611.0442,1.5065.7789,2.1591.4153.5141-.2907.5091-1.0108.4071-1.5888-.2952-1.6942-.8696-3.3427-1.7108-4.8355l-2.2379.1265c-.4698,2.4203.1091,3.3285-.6824,4.7052Z" style="fill:#193425; stroke-width:0px;"/><path d="m59.2069,417.2711c-.7221-.095-1.4536-.1598-2.1745-.1949,3.3021,1.5118,5.8757,4.549,6.8289,8.0599.7866-1.1366,1.4719-2.3311,2.0158-3.5926,1.0112-2.3615,1.4969-4.9822,1.0744-7.5039l-.2631-.1446c-.1446.2631-.2993.5163-.4741.77-1.0394,1.4819-2.6452,2.6655-4.4525,2.8131-.8588.0678-1.7023-.0947-2.5548-.207Z" style="fill:#2b4d3c; stroke-width:0px;"/><path d="m58.6803,387.5856l.1531.627c1.7158.7445,2.2702,2.8735,3.4896,4.2785.3893.442.8373.8228,1.187,1.2856.6479.8567.8722,2.0223.5934,3.0483l1.8302.4721c.6211-2.3634,1.1398-4.8347.7497-7.2471-.2311-1.4955-1.9169-6.0915-4.0134-4.9377-1.1273.6235-1.8755,1.6793-3.1351,2.1956-.1091.0423-.437.1491-.8544.2778Z" style="fill:#2e7b5b; stroke-width:0px;"/><path d="m58.6803,387.5856c.4174-.1287.7453-.2355.8544-.2778,1.2596-.5163,2.0078-1.572,3.1351-2.1956,2.0965-1.1538,3.7823,3.4422,4.0134,4.9377.3902,2.4124-.1286,4.8837-.7497,7.2471-.0094.0302-.009.0502-.0183.0804,1.7385,1.3542,2.694,3.5348,2.9594,5.7198.2556,2.1952-.1186,4.4034-.6442,6.5448-.3494,1.4776-.7992,2.9372-1.542,4.2529-.1446.2631-.2993.5163-.4741.77-1.0394,1.4819-2.6452,2.6655-4.4525,2.8131-.8588.0678-1.7023-.0947-2.5548-.207-.7221-.095-1.4536-.1598-2.1745-.1949-1.5622-.0876-3.1322-.075-4.7023-.0624-.5801.002-1.16.0141-1.74.0161-9.0101.0871-18.0107.1541-27.0208.2412-.3999.0083-.8.0066-1.1902.0047-.1902-.0061-.3801-.0021-.5603-.0084-1.0508-.0282-2.0827-.1068-3.0981-.3557-1.1864-.2954-2.338-.8416-3.2154-1.6736-.286-.2841-.5523-.5887-.7696-.9342-.5373-.829-.8076-1.8036-.9879-2.7801-.8901-4.8126.3791-10.1601,3.9608-13.4852.8928-.8387,1.9086-1.53,2.8837-2.2604.5809-.4422,1.1515-.9041,1.681-1.4152.1864-.1739.3724-.3678.4472-.6194.1315-.4128-.0878-.8584-.2661-1.2547-1.7708-3.8741-.3554-8.9245,3.1661-11.2982-.0703.9517-.1499,1.9335.1294,2.8579.279.9144.987,1.7699,1.9303,1.9203.7827-2.2867,1.672-4.7357,3.6844-6.0878.8978-.5988,1.9511-.9307,3.0067-1.1527,4.5814-.9453,9.3928.0349,13.6725,1.9065,3.4017,1.4897,6.75,3.7806,8.0226,7.265.0954.2581,1.0323.0986,1.9179-.1199.2387-.065.4874-.1302.6961-.1945Z" style="fill:none; stroke:#000; stroke-linecap:round; stroke-linejoin:round; stroke-width:3px;"/><path d="m56.1293,388.5288c-.4698,2.4203.1091,3.3285-.6824,4.7052-.0581.0912-.1162.1825-.1841.2839-.4694-1.4106-3.4899-3.3282-5.1199-4.2746-2.0451-1.1878-4.1765-2.1937-6.5047-2.5655-3.9137-.6189-8.0316-.4733-11.7011,1.0332-1.0315.4215-2.0992,1.0238-2.5277,2.0629-.3235.7969-.204,1.7346-.5779,2.5125-.0002-.01-.0104-.0198-.0106-.0298-.357-.8128-.6248-1.6674-.783-2.5443-.2347-1.1854-.2798-2.3947-.1547-3.5976" style="fill:none; stroke:#000; stroke-linecap:round; stroke-linejoin:round; stroke-width:3px;"/><path d="m57.9839,387.7701l.0002.01c.1343.2073.2587.4147.383.6222.8412,1.4929,1.4155,3.1413,1.7108,4.8355.102.578.107,1.2981-.4071,1.5888-.6526.3636-1.398-.371-2.1591-.4153-.1202-.0075-.2597.0154-.3481.0972-.0885.0719-.1264.1727-.1542.2833-.8912,2.8391.8926,5.8927.5339,8.8508-.8483-.3925-1.7069-.7947-2.5652-1.187-.3031-.1437-.7057-.2654-.9304-.0107-.1077.1123-.1342.2828-.1508.4432-.139,1.0131-.318,2.027-.5374,3.0218l-.01.0002c-.4207,1.8991-1.0019,3.7716-1.7346,5.5772-.5231,1.3011-1.136,2.6142-1.1967,4.0257-.0075.1202.026.2895.1564.3068.1002.0079.1683-.0835.2266-.1647,1.5346-2.2023,4.6993-2.4881,6.805-4.1622.5807-.4522,1.0692-1.0124,1.4465-1.6304.2708-.4457.4904-.9504.4498-1.4597-.0452-.7292-1.2828-1.5637-1.9953-1.6789,1.7381.374,2.4757-.2315,3.7299-1.4878,1.0092-1.0112,1.2139-2.7158.4783-3.9408-.5178-.8494-1.4413-1.4904-1.6714-2.4558,1.2624.5839,2.9114.0395,3.6772-1.1366.1744-.2737.3083-.5665.3818-.8781.2788-1.026.0545-2.1916-.5934-3.0483-.3497-.4628-.7977-.8436-1.187-1.2856-1.2194-1.405-1.7738-3.5339-3.4896-4.2785" style="fill:none; stroke:#000; stroke-linecap:round; stroke-linejoin:round; stroke-width:3px;"/><path d="m52.1539,405.6451c-1.2211,1.4057-3.1561,2.146-5.0013,1.9143-1.0531-.1382-2.032-.5579-3.0389-.8771-2.8901-.9402-5.9703-.9162-8.9512-.4442-1.4955.2311-2.9788.572-4.4514.9426-1.2039.3051-2.3625.8692-3.632.9056-1.3995.0391-2.7293-1.3836-3.4912-2.428-.206-.2858-.4026-.6018-.4099-.9517.0009-.4401.2929-.8263.5962-1.1526.6843-.7644,1.5029-1.3215,2.2592-1.9873-.4907-.5099-1.6265-.7764-2.3028-1.0724.8455-.7077,1.6912-1.4054,2.5267-2.1129.4722-.3799.9723-.8604.9499-1.46-.5453-.2487-1.0808-.5077-1.6261-.7564.8221-.3872,1.6334-.8141,2.27-1.4675.6268-.6432,1.0584-1.5323.9595-2.4405" style="fill:none; stroke:#000; stroke-linecap:round; stroke-linejoin:round; stroke-width:3px;"/><path d="m66.9514,414.0396c.4225,2.5218-.0632,5.1424-1.0744,7.5039-.5439,1.2616-1.2293,2.4561-2.0158,3.5926-.6699.9741-1.4109,1.8997-2.1824,2.7959-.1854.2239-.381.438-.638.5834-.3658.2076-.8057.2168-1.2156.2253-12.7672.2652-25.5243.5402-38.2815.8052-.8198.017-1.6496.0343-2.4157-.2499-1.6029-.6068-2.4395-2.3598-2.9635-3.9893-.0106-.0298-.0214-.0696-.0321-.0994-1.0165-3.1896-1.4366-6.5616-1.256-9.9061" style="fill:none; stroke:#000; stroke-linecap:round; stroke-linejoin:round; stroke-width:3px;"/><path d="m57.0019,417.0568c.01-.0002.0202.0096.0304.0194,3.3021,1.5118,5.8757,4.549,6.8289,8.0599.0217.0796.0431.1491.0648.2287" style="fill:none; stroke:#000; stroke-linecap:round; stroke-linejoin:round; stroke-width:3px;"/><path d="m21.8125,417.4477c-1.3025.8572-2.3575,2.0694-3.1801,3.3968-.8326,1.3276-1.4628,2.771-2.0527,4.2235" style="fill:none; stroke:#000; stroke-linecap:round; stroke-linejoin:round; stroke-width:3px;"/><line x1="22.7204" y1="393.7438" x2="27.3005" y2="389.8478" style="fill:none; stroke:#000; stroke-linecap:round; stroke-linejoin:round; stroke-width:3px;"/><path d="m23.588,405.6583c-2.1502,3.8655-1.3814,7.1702-1.2096,11.5876-2.0904-2.4071-3.4537-5.4394-3.8795-8.6013-.2842-2.1246-.0826-4.4592,1.273-6.1278-.994.3007-2.1251-.706-1.9361-1.7202.0988-.5422.4695-.99.8412-1.3978.8695-.9983,1.7389-1.9965,2.6284-2.9952.029-.0506.0781-.0916.1171-.1425" style="fill:none; stroke:#000; stroke-linecap:round; stroke-linejoin:round; stroke-width:3px;"/><path d="m133.9012,259.6059s3.4099,3.93,3.5988,13.0281c.189,9.098,11.3648,80.8967,13.6655,84.0232,0,0,2.7153.9196,2.9673,4.3081s1.1421,11.2541,2.0307,17.7076c.8886,6.4535-30.4487,10.364-49.0273,5.3546,1.5916-14.0184-4.1071-59.9664-9.8178-66.7037s-9.555,17.0026-10.9419,21.4402-9.3092,46.6444-11.6002,49.6514-15.0864,4.1719-31.2276-2.2967c-16.1412-6.4686-18.4406-14.8124-18.0318-16.9021s1.5785-4.9643,3.9296-7.725,12.7996-53.357,14.7201-63.0137,9.6992-30.1273,12.4405-34.9153c2.7412-4.788,70.8943-8.5041,77.2941-3.9566Z" style="fill:#122426; stroke-width:0px;"/><path d="m137.6755,281.0821s-10.7719,3.7304-20.0808,3.1177c-1.506.1516,2.5317,19.0765,3.9817,18.7625s18.938-3.041,17.6567-8.0743" style="fill:#122426; stroke:#000; stroke-linecap:round; stroke-linejoin:round; stroke-width:3px;"/><path d="m117.5022,288.2692s-.6549-9.508.1592-17.2913" style="fill:#383e50; stroke:#000; stroke-linecap:round; stroke-linejoin:round; stroke-width:3px;"/><path d="m49.8728,281.8427c1.0749-2.4494,2.4395-1.5223,4.3445-.4931,2.1417,1.1572,4.3471,2.1963,6.6027,3.1116.6188.2511,7.5129,2.7683,7.5793,2.5547-1.236,4.1163-4.8195,7.019-7.2434,10.5681-1.5829,2.3177-2.6826,4.9395-4.2878,7.2418-3.9528-2.2998-7.9056-4.5996-11.8583-6.8993-.1604-.0933-.3281-.1939-.4192-.3555-.1462-.2592-.0505-.5822.048-.863" style="fill:#122426; stroke:#000; stroke-linecap:round; stroke-linejoin:round; stroke-width:3px;"/><path d="m133.9012,259.6059s3.4099,3.93,3.5988,13.0281c.189,9.098,11.3648,80.8967,13.6655,84.0232,0,0,2.7153.9196,2.9673,4.3081s1.1421,11.2541,2.0307,17.7076c.8886,6.4535-30.4487,10.364-49.0273,5.3546,1.5916-14.0184-4.1071-59.9664-9.8178-66.7037s-9.555,17.0026-10.9419,21.4402-9.3092,46.6444-11.6002,49.6514-15.0864,4.1719-31.2276-2.2967c-16.1412-6.4686-18.4406-14.8124-18.0318-16.9021s1.5785-4.9643,3.9296-7.725,12.7996-53.357,14.7201-63.0137,9.6992-30.1273,12.4405-34.9153c2.7412-4.788,70.8943-8.5041,77.2941-3.9566Z" style="fill:none; stroke:#000; stroke-linecap:round; stroke-linejoin:round; stroke-width:3px;"/><path d="m129.6722,266.5599s11.79,31.9709,17.8898,47.474c6.0997,15.5032.5438-2.7119.5438-2.7119,0,0,5.3374,8.1411,5.1414,10.369s-1.9728,4.6302-3.0581,5.9324-2.8708,2.4425-9.4708-7.2608-22.542-42.4351-21.7644-47.3435,7.9446-8.2756,10.7182-6.4593Z" style="fill:#5a646c; stroke:#000; stroke-linecap:round; stroke-linejoin:round; stroke-width:3px;"/><path d="m76.179,276.8084s-3.3539,21.2125-43.9813,49.7741c-4.7859-8.9025-3.0077-10.7699-2.9894-13.7353,3.5244-2.6056,12.0638-6.5693,12.0638-6.5693,0,0-7.8686,9.8096.9594,2.5674s23.9969-37.505,28.8634-36.9c4.8666.6049,4.9456.4798,5.0841,4.8631Z" style="fill:#5a646c; stroke:#000; stroke-linecap:round; stroke-linejoin:round; stroke-width:3px;"/><path d="m115.3945,385.0503s-4.3698-68.7482-11.7943-74.9483c-7.4245-6.2001-15.4594-7.7983-22.1164,17.2866-6.657,25.0848-15.8439,63.4416-15.8439,63.4416,0,0,8.1514,1.1535,9.7911-4.8819s11.9104-70.9193,19.7395-70.8466c7.8291.0727,11.1403,68.8429,11.1403,68.8429,0,0,6.0573,2.6983,9.0837,1.1057Z" style="fill:#091719; stroke:#000; stroke-linecap:round; stroke-linejoin:round; stroke-width:3px;"/><g id="d"><path d="m117.4939,192.1522s5.8388-21.4179-16.9631-24.241c-22.8018-2.8232-51.8418-4.2887-45.5326,26.6545,6.3092,30.9432,61.7053,17.0875,62.4956-2.4135Z" style="fill:#034346; stroke-width:0px;"/><path d="m119.3571,185.1977s3.0149,37.0397,8.4084,52.0779c5.3936,15.0383,7.0814,23.8635,7.0814,23.8635,0,0-5.3603,15.4191-29.0303,18.9205s-47.7109-4.1809-49.1331-8.2552,1.3404-10.6849-.4124-18.3025-1.24-63.6353-1.24-63.6353" style="fill:#034346; stroke:#000; stroke-linecap:round; stroke-linejoin:round; stroke-width:3px;"/><path d="m119.6638,191.376s-1.9675,4.7248-2.6945,7.7672,9.516,60.665,9.516,60.665l5.5809-6.1205s-9.1514-37.9357-12.4025-62.3117Z" style="fill:#032321; stroke-width:0px;"/><path d="m62.0523,202.2037s7.7788,50.755,7.3678,60.0455-13.3513-2.2508-13.3513-2.2508c0,0-4.9214-60.7282,5.9835-57.7948Z" style="fill:#032321; stroke-width:0px;"/><path d="m119.3571,185.1977s3.0149,37.0397,8.4084,52.0779c5.3936,15.0383,7.0814,23.8635,7.0814,23.8635,0,0-5.3603,15.4191-29.0303,18.9205s-47.7109-4.1809-49.1331-8.2552,1.3404-10.6849-.4124-18.3025-1.24-63.6353-1.24-63.6353" style="fill:none; stroke:#000; stroke-linecap:round; stroke-linejoin:round; stroke-width:3px;"/><path d="m111.0313,227.0563c-.0591-.6166-.152-1.228-.2783-1.8312l-.0184.0019c-1.7642-8.4086-9.0465-10.9574-8.4611-19.7621,0,0-10.7343,4.6094-.4186,18.3358.774,1.0299,1.4055,2.0175,1.9366,2.9723.0875.3954.1572.7954.1921,1.2018.4017,4.9708-3.1627,9.4452-7.962,9.9309h-.0002c-4.7943.4852-8.9094-3.2042-9.1924-8.1778-.0362-.689.0041-1.3818.1196-2.0647l-.0426.0044c.6728-2.7595,1.9763-5.7131,4.2267-8.753,13.1109-17.7105-.2222-24.4545-2.7902-24.0536h0s2.9225,3.607-2.7161,16.4594c-1.2932-1.2882-2.6321-3.8379-1.1818-8.5595-.0005.0003-9.7805,5.6469-3.0674,17.586-3.9411,9.9906-1.2339,16.3502,2.2058,20.0534.0631.07.1296.1361.1938.2049.1828.1901.3666.3726.552.5481.6423.6214,1.3345,1.1836,2.073,1.6828.2142.1472.4248.2857.6304.4141.1043.0632.2078.127.3137.1878,1.1872.7047,2.1726,1.0899,2.6361,1.1952l-.0002-.0003c1.9851.6738,4.1472.9438,6.3936.7183.7911-.0794,1.556-.2366,2.3072-.4282-.1092.0586-.1718.0894-.1718.0894,0,0,.8336-.1944,2.0694-.7019.7886-.3121,1.547-.68,2.2692-1.1085,3.6412-2.0738,8.2522-6.2529,8.268-14.1086.0012-.5796-.0273-1.1287-.0706-1.6623-.0086-.1254-.004-.2489-.0154-.3746h0Z" style="fill:#24deb0; stroke-width:0px;"/><polygon points="100.0284 201.0274 100.0285 201.0274 100.0285 201.0274 100.0284 201.0274" style="fill:#84db7b; stroke-width:0px;"/><path d="m132.896,250.8091s2.6372-1.8322,2.9105,2.754,5.4828,16.3029-21.3307,25.3295c-26.8136,9.0266-59.2252-2.0318-60.5816-6.1595s-1.5708-11.5223-.3518-11.6773,14.9285,6.5073,42.8088,2.8144c27.8803-3.6929,37.8445-8.8258,36.5449-13.061Z" style="fill:#032321; stroke:#000; stroke-linecap:round; stroke-linejoin:round; stroke-width:3px;"/><path d="m150.3632,232.27c-.36-3.01-1.93-5.72-3.15-8.5-4.96-11.41-6.33-35.39-13.63-45.45-5.22-7.19-18.1299-10.98-26.99-10.21,1.02.49,1.81.94,2.03,1.23.76.99-2.46,13-20.8,15.75-18.34,2.75-27.19-9.05-27.41-11.01-.11-1.06.74-2.78,3.9-4.59l-.85-1.25c-9.11-2.3-19.67,1.96-23.94,9.67-2.6,4.67-2.96,10.19-1.98,15.35.99,5.17,3.62,12.99,6.04,17.74,2.97,5.84,3.21,12.25,7.58,17.3,4.36,5.05,9.89,9.39,16.42,11.78l3.21.52c7.45.89,13.16-.85,19.39-3.44,18.84,7.11,39.45,13.14,56.34,2.59,2.88-.95,4.19-4.46,3.84-7.48Zm-44.26-2.57l-.36-.66c1.03-.58,1.87-1.54,2.38-2.64.67-1.45.79-3.12.57-4.71-.4656-3.2211-2.4967-6.1031-5.2253-7.8655-2.6267-.6227-4.9494-1.2114-6.4871-1.6774-9.2941-2.817-20.4462.4193-20.5276.003-2.1783-11.1227-10.054-22.4159-10.054-22.4159l46.5389-7.94c10.6152,7.9833,9.2779,21.4118,10.4771,30.0618.3384.5451.6312,1.1389.8879,1.7841.8,2.03,1.49,4.22,3.08,5.72l.19.89c-6.83,1.41-14.43,5.67-21.47,9.45Z" style="fill:#034346; stroke-width:0px;"/><path d="m119.0736,188.9956s9.1858,19.1367,10.1122,31.141l-5.6209-.7766s-1.1918-21.457-4.4914-30.3644Z" style="fill:#032321; stroke-width:0px;"/><path d="m107.7232,206.47c4.31-.82,8.65.82,12.64,2.67.12.06.25.11.36.17,1.78.92,2.82,2.42,3.58,4.33.8,2.03,1.49,4.22,3.08,5.72l.19.89c-6.83,1.41-14.43,5.67-21.47,9.45l-.36-.66c1.03-.58,1.87-1.54,2.38-2.64.67-1.45.79-3.12.57-4.71-.73-5.05-5.3-9.28-10.39-9.64l.03-.55c3.14-2.82,5.25-4.24,9.39-5.03Z" style="fill:#209276; stroke-width:0px;"/><path d="m106.5932,168.11c8.86-.77,21.77,3.02,26.99,10.21,7.3,10.06,8.67,34.04,13.63,45.45,1.22,2.78,2.79,5.49,3.15,8.5.35,3.02-.96,6.53-3.84,7.48" style="fill:none; stroke:#000; stroke-linecap:round; stroke-linejoin:round; stroke-width:3px;"/><path d="m128.5232,220.07c-.31.05-.63.11-.95.18-6.83,1.41-14.43,5.67-21.47,9.45-3.12,1.66-6.12,3.24-8.9,4.43-2.48,1.07-4.78,2.1-7.02,3.03-6.23,2.59-11.94,4.33-19.39,3.44l-3.21-.52c-6.53-2.39-12.06-6.73-16.42-11.78-4.37-5.05-4.61-11.46-7.58-17.3-2.42-4.75-5.05-12.57-6.04-17.74-.98-5.16-.62-10.68,1.98-15.35,4.27-7.71,14.83-11.97,23.94-9.67" style="fill:none; stroke:#000; stroke-linecap:round; stroke-linejoin:round; stroke-width:3px;"/><path d="m147.3832,239.2c-.29.19-.57.37-.86.55-16.89,10.55-37.5,4.52-56.34-2.59-.13-.04-.25-.09-.38-.14" style="fill:none; stroke:#000; stroke-linecap:round; stroke-linejoin:round; stroke-width:3px;"/><path d="m120.7232,209.31c.02,0,.04.01.06.02" style="fill:none; stroke:#000; stroke-linecap:round; stroke-linejoin:round; stroke-width:3px;"/><path d="m98.3332,211.5c3.14-2.82,5.25-4.24,9.39-5.03,4.31-.82,8.65.82,12.64,2.67" style="fill:none; stroke:#000; stroke-linecap:round; stroke-linejoin:round; stroke-width:3px;"/><path d="m65.2532,187.95c5.32,8.2,8.62,14.13,11.2,24.2" style="fill:none; stroke:#000; stroke-linecap:round; stroke-linejoin:round; stroke-width:3px;"/><path d="m97.4732,211.87c-4.02-.09-8-.84-12.02-.87-4.01-.02-16.53,4.31-19.59,6.91" style="fill:none; stroke:#000; stroke-linecap:round; stroke-linejoin:round; stroke-width:3px;"/><path d="m120.3632,209.14c.12.06.25.11.36.17,1.78.92,2.82,2.42,3.58,4.33.8,2.03,1.49,4.22,3.08,5.72" style="fill:none; stroke:#000; stroke-linecap:round; stroke-linejoin:round; stroke-width:3px;"/><path d="m98.0932,212.04c.07,0,.14.01.21.01,5.09.36,9.66,4.59,10.39,9.64.22,1.59.1,3.26-.57,4.71-.51,1.1-1.35,2.06-2.38,2.64-.35.2-.72.36-1.1.46" style="fill:none; stroke:#000; stroke-linecap:round; stroke-linejoin:round; stroke-width:3px;"/><path d="m65.7455,168.0299c2.7222-1.3053,7.046-2.574,13.7047-3.4116,14.6434-1.8491,22.4355,1.9782,22.4355,1.9782,0,0,3.7129,1.7449,6.1182,3.1336l.01.0007c.9816.5629,1.7368,1.0692,1.9351,1.3745.6859,1.0427-3.3996,12.7865-21.8912,14.1944-18.4915,1.4079-26.4592-11.0049-26.536-12.9758-.0326-1.0652.9404-2.7188,4.2237-4.294Z" style="fill:#032321; stroke:#000; stroke-linecap:round; stroke-linejoin:round; stroke-width:3px;"/></g><g id="e"><g id="f"><path d="m99.5489,155.6594s-.1324,12.6757,2.2294,16.036-12.6271,7.2924-18.7,6.1993c-11.7647-2.1176-18.6941-3.0588-14.7-15.0588,3.9941-12-2.5312-22.8235-2.5312-22.8235,0,0,32.6429-8.4706,33.7018,15.6471Z" style="fill:#235566; stroke-width:0px;"/><g style="clip-path:url(#g);"><path d="m77.4783,146.7182s-5.6353,6.4647-1.2235,13.8647c4.4118,7.4,3.4412,5.5,3.4412,5.5,0,0-1.7647.3118-4.7647-1.7177s-.3759,10.0895,4.7091,13.2065,39.3203,9.2935,23.8791-21.7653-26.0412-9.0882-26.0412-9.0882Z" style="fill:#a9c7d1; stroke-width:0px;"/></g><path d="m99.5489,155.6594s-.1324,12.6757,2.2294,16.036-12.6271,7.2924-18.7,6.1993c-11.7647-2.1176-18.6941-3.0588-14.7-15.0588,3.9941-12-2.5312-22.8235-2.5312-22.8235,0,0,32.6429-8.4706,33.7018,15.6471Z" style="fill:none; stroke:#000; stroke-linecap:round; stroke-linejoin:round; stroke-width:3px;"/><path d="m69.3264,158.9829s1.5737,8.7728,19.3863,9.9c12.642.8,10.0421-9.9,10.0421-9.9" style="fill:none; stroke:#000; stroke-linecap:round; stroke-linejoin:round; stroke-width:3px;"/></g><path d="m142.8817,98.1622s21.0412-8.3375,24.9458-30.2985-8.7089-51.3939-8.7089-51.3939c0,0,.8311,2.8219-12.2106,17.732-13.0417,14.9101-32.1726,44.742-4.0263,63.9604Z" style="fill:#235566; stroke:#000; stroke-linecap:round; stroke-linejoin:round; stroke-width:3px;"/><path d="m65.5089,143.6451s-2.9511,11.277,1.6537,18.3163c-4.3544-1.0891-7.4151-5.7327-8.2537-9.3597,0,0-2.4629,5.2734.9497,11.2505,0,0-19.8308-21.7931-12.7406-44.7504,7.0901-22.9573,28.5078,10.2163,18.3909,24.5433Z" style="fill:#19c9d9; stroke:#000; stroke-linecap:round; stroke-linejoin:round; stroke-width:3px;"/><path d="m137.6474,104.5025s23.7133-20.985,4.1877-52.9382-69.8997-12.0184-69.8997-12.0184c0,0-40.7675,16.7884-31.5273,44.8112,9.2402,28.0228,31.6386,27.5714,31.6386,27.5714,0,0,58.7943,17.4309,65.6006-7.4259Z" style="fill:#235566; stroke:#000; stroke-linecap:round; stroke-linejoin:round; stroke-width:3px;"/><path d="m71.8126,38.5422s22.9781-28.1517,69.4423-20.8884c0,0-17.5641,8.1912-19.3759,11.6933,0,0,16.6303-4.3063,44.3477,9.9568,0,0-17.3395,2.0892-19.8367,6.6143,0,0,22.4287,7.4495,29.6289,39.2683,0,0-15.9944-19.8648-27.6749-20.9585s-35.7081-6.6889-49.9848-14.1377c-14.2767-7.4489-20.8264-4.8403-20.8264-4.8403l-5.7201-6.7077Z" style="fill:#19c9d9; stroke:#000; stroke-linecap:round; stroke-linejoin:round; stroke-width:3px;"/><path d="m80.8832,54.4941s-5.1318-17.855-20.1854-25.4675c-15.0536-7.6125-16.7205-24.2521-16.7205-24.2521,0,0-17.4642,22.7287-15.8315,48.5384,1.6327,25.8097,21.4509,48.1747,21.4509,48.1747" style="fill:#235566; stroke:#000; stroke-linecap:round; stroke-linejoin:round; stroke-width:3px;"/><path d="m118.9324,99.3953s-1.2794.9426,23.8825,8.2162,13.9069,25.2154,10.0873,29.3749c-3.8196,4.1595-16.6796,16.11-43.2067,24.3346-3.3139,2.8523-4.0386,10.5839-4.0386,10.5839,0,0-4.2758-1.2766-5.5785-5.3135-1.1742,1.6334-1.5717,5.8742-1.5717,5.8742,0,0-50.0112-21.5147-49.3714-53.9799,0,0-5.1884-1.8003-12.1773.8405,2.4363-6.401,4.9018-7.3697,4.9018-7.3697,0,0-3.8115-3.64-10.5418-2.2868,7.9052-7.7825,26.4784-11.3108,42.4819-8.1523,10.2456,2.0221,29.96,8.2595,45.1325-2.1222Z" style="fill:#a9c7d1; stroke:#000; stroke-linecap:round; stroke-linejoin:round; stroke-width:3px;"/><path d="m140.0266,115.5909s7.0251,1.3381,9.2107,5.3695.7955,6.4651.7955,6.4651c0,0-9.3088,5.1322-11.7314,6.3902s-14.7178-7.3207-14.5125-8.4887-.9717-6.5843,3.9153-7.7757,8.9755-2.2279,12.3224-1.9605Z" style="fill:#2a2a2a; stroke:#000; stroke-linecap:round; stroke-linejoin:round; stroke-width:3px;"/><path d="m38.4543,29.3985s-6.6042,28.6843.9747,45.3961c0,0,6.7717-1.7964,5.98-5.4177" style="fill:#a9c7d1; stroke-width:0px;"/><path d="m35.934,34.4496s.1686-2.9596,3.2996-7.7478c0,0-.5713,21.0504,6.9989,44.8542" style="fill:none; stroke:#000; stroke-linecap:round; stroke-linejoin:round; stroke-width:3px;"/><path d="m79.923,83.5751c6.4685,1.7091,13.0856,2.7492,19.7111,3.1095,2.0469.1725,1.7681,3.202-.2848,2.9865-6.7777-.9175-13.4329-2.5247-19.8322-4.7778-.8136-.2867-.4361-1.5396.4059-1.3181h0Z" style="fill:#19c9d9; stroke-width:0px;"/><path d="m129.5647,87.7268c4.6144.5521,9.1908,1.302,13.7128,2.2446.6183.1262.4937,1.0719-.1392,1.0275-4.5803-.2901-9.1592-.3813-13.7194-.2756-2.1215-.0244-1.9749-3.1765.1458-2.9965h0Z" style="fill:#19c9d9; stroke-width:0px;"/><path d="m91.5964,145.4067c7.0981-1.3393,14.467-1.2268,21.521.3286.7245.1597,1.4605.3406,2.0878.7368s1.1372,1.049,1.1753,1.7899-.5175,1.5189-1.2582,1.5607" style="fill:none; stroke:#000; stroke-linecap:round; stroke-linejoin:round; stroke-width:3px;"/><path d="m100.1827,149.8227l7.6133.9856" style="fill:none; stroke:#000; stroke-linecap:round; stroke-linejoin:round; stroke-width:2px;"/><path d="m81.5556,94.4546c6.1945.4596,12.3666,1.2214,18.487,2.2815-5.093-.165-10.173-.7321-15.177-1.6945" style="fill:none; stroke:#000; stroke-linecap:round; stroke-linejoin:round; stroke-width:3px;"/><path d="m137.1274,100.5813l-8.7885-1.186,5.4657.7376" style="fill:none; stroke:#000; stroke-linecap:round; stroke-linejoin:round; stroke-width:3px;"/><path d="m98.5424,97.8087c-4.967.247-9.9435.3017-14.9147.1638" style="fill:none; stroke:#000; stroke-linecap:round; stroke-linejoin:round; stroke-width:3px;"/><path d="m128.5315,100.0447l7.1022,3.3491" style="fill:none; stroke:#000; stroke-linecap:round; stroke-linejoin:round; stroke-width:3px;"/><path d="m59.255,29.7866s-2.3946,3.4781,1.0466,5.1987,4.9124-1.52,4.9124-1.52" style="fill:#0fad75; stroke:#000; stroke-linecap:round; stroke-linejoin:round; stroke-width:3px;"/><path d="m68.0297,34.0951s-3.7703,2.3167-.8145,5.052,5.5121,0,5.5121,0" style="fill:#0fad75; stroke:#000; stroke-linecap:round; stroke-linejoin:round; stroke-width:3px;"/></g><path d="m183.0683,109.8528l-1.5274.9013c2.7728-2.1384,5.5455-4.2769,8.3183-6.4153,1.1841-.9132,2.4683-2.0016,2.5955-3.4915.1175-1.3765-.8554-2.6606-2.0627-3.3321s-2.6165-.8555-3.9872-1.0274c-.751,4.7538.4736,9.789,3.324,13.6669,1.3764,1.8726,3.2247,4.0575,2.346,6.2091-.5012,1.2273-1.7598,1.9474-2.9582,2.5144-4.6044,2.1785-9.6266,3.4697-14.7108,3.7819.7726-4.1777,3.7729-7.6391,7.2161-10.1279s7.3768-4.1971,11.0651-6.3057c.8466-.484,1.7253-1.0365,2.1525-1.9132.6231-1.2785.054-2.8811-.9654-3.873s-2.3954-1.5111-3.7294-2.0043c-1.5967-.5904-3.2466-1.1897-4.9472-1.1135s-3.4824,1.0028-4.0326,2.6137c-.5923,1.734.3656,3.5787,1.2915,5.1599,2.4773,4.2307,4.9547,8.4613,7.432,12.692-7.7789-.0108-15.5135-3.0707-21.1944-8.3846-1.0981-1.0271-2.2042-2.4202-1.8351-3.8777.408-1.6109,2.3161-2.2451,3.9411-2.5929,7.2487-1.5515,14.5875-2.6821,21.9671-3.3842.3025-2.9542-2.7466-5.2199-5.6545-5.8221-1.9983-.4138-4.1874-.3337-5.9375.716-3.3474,2.0078-3.8819,6.8799-2.3275,10.4605s4.6153,6.2353,7.3877,8.983,5.4623,5.9698,5.8922,9.8494" style="fill:none; stroke:#000; stroke-linecap:round; stroke-linejoin:round; stroke-width:3px;"/></svg>