<?xml version="1.0" encoding="UTF-8"?>
<svg id="Nono" xmlns="http://www.w3.org/2000/svg" xmlns:xlink="http://www.w3.org/1999/xlink" viewBox="0 0 223.0952 429.85">
  <defs>
    <clipPath id="clippath">
      <path d="M42.7584,388.6117s-3.619,4.7119-14.119,7.2707-12.8617,3.2841-14.9897,8.0391-1.1218,15.2514,3.7559,18.255,9.2961,6.8093,24.775,3.6735,17.3281-5.1141,27.35-2.441,18.9147,5.344,20.6-7.209,1.0676-16.6706-2.55-17.7,4.798-10.0059,4.0755-14.65c-2.2437.99-.6514,3.9794-10.0399,4.3s-9.9179.603-16.4473-.95-12.2621-2.859-22.4105,1.4116" style="fill: #2e7b5b; stroke: #000; stroke-linecap: round; stroke-linejoin: round; stroke-width: 3px;"/>
    </clipPath>
    <clipPath id="clippath-1">
      <path d="M88.7155,153.9109s.1579,12.6754-2.1971,16.0405,12.6418,7.2669,18.7125,6.1616c11.7604-2.1414,18.6879-3.0965,14.6696-15.0884s2.4852-22.8286,2.4852-22.8286c0,0-32.66-8.4048-33.6702,15.715Z" style="fill: none; stroke-width: 0px;"/>
    </clipPath>
    <style>
      @keyframes aniOne {
        0% {
          opacity: 1
        }
        20% {
          opacity: 0
        }
        90% {
          opacity: 1
        }
      }
      @keyframes aniTwo {
        0% {
          opacity: 0
        }
        20% {
          opacity: 1
        }
        40% {
          opacity: 0
        }
        60% {
          opacity: 1
        }
        90% {
          opacity: 0
        }
      }
      @keyframes aniThree {
        0% {
          opacity: 0
        }
        40% {
          opacity: 1
        }
        60% {
          opacity: 0
        }
      }

      #Frame1 {
        animation: 0.4s steps(1) infinite aniTwo;
      }
      #Frame2 {
        animation: 0.4s steps(1) infinite aniOne;
      }
      #Frame3 {
        animation: 0.4s steps(1) infinite aniThree;
      }
    </style>
  </defs>
  <g>
    <g>
      <path d="M178.3549,369.5475c7.3957,4.7331,16.2801,7.1306,25.058,6.7249l.0371.1598c-.2224.0504-.4448.1008-.6813.1526,3.4684.9433,5.0023,1.4383,5.15,1.4947-.5006.3266-16.8893,10.5015-37.883-4.9954-21.3298-15.7337-39.7984-72.2517-39.7984-72.2517l2.1487-4.2128c8.8969,18.4832,15.9991,38.0035,28.2447,54.4219,2.1687,2.8908,4.4916,5.6881,7.2336,8.0532,5.1256,4.4104,11.4809,7.1005,17.723,9.7237-2.3389.7072-4.8081.9584-7.2324.7291Z" style="fill: #a9c7d1; stroke-width: 0px;"/>
      <path d="M219.1963,368.6016c-2.4525,2.2177-6.0538,5.5367-15.7464,7.8306l-.0371-.1598c-8.7779.4058-17.6622-1.9917-25.058-6.7249,2.4243.2293,4.8935-.0218,7.2324-.7291-6.2421-2.6231-12.5975-5.3133-17.723-9.7237-2.742-2.3651-5.0649-5.1625-7.2336-8.0532-12.2456-16.4184-19.3478-35.9388-28.2447-54.4219l14.1982-27.8786s19.5065,46.0271,31.0954,57.7427c11.5966,11.7219,24.7573,27.119,43.1904,31.8768-4.9057,3.8529-11.8259,6.0149-11.8259,6.0149,0,0,3.676,1.4628,10.1523,4.2262Z" style="fill: #235566; stroke-width: 0px;"/>
    </g>
    <g>
      <path d="M207.9328,378.0781l-.0141.0014c-.5006.3266-16.8893,10.5015-37.883-4.9954-21.3298-15.7337-39.7984-72.2517-39.7984-72.2517l2.1487-4.2128,14.1982-27.8786s19.5065,46.0271,31.0954,57.7427c11.5966,11.7219,24.7573,27.119,43.1904,31.8768-4.9057,3.8529-11.8259,6.0149-11.8259,6.0149,0,0,3.676,1.4628,10.1523,4.2262-2.4525,2.2177-6.0538,5.5367-15.7464,7.8306-.2224.0504-.4448.1008-.6813.1526,3.4684.9433,5.0023,1.4383,5.15,1.4947" style="fill: none; stroke: #000; stroke-linecap: round; stroke-linejoin: round; stroke-width: 3px;"/>
      <path d="M129.7718,291.3072c.8986,1.7586,1.7627,3.5278,2.6141,5.3124,8.8969,18.4832,15.9991,38.0035,28.2447,54.4219,2.1687,2.8908,4.4916,5.6881,7.2336,8.0532,5.1256,4.4104,11.4809,7.1005,17.723,9.7237-2.3389.7072-4.8081.9584-7.2324.7291,7.3957,4.7331,16.2801,7.1306,25.058,6.7249" style="fill: none; stroke: #000; stroke-linecap: round; stroke-linejoin: round; stroke-width: 3px;"/>
    </g>
  </g>
  <g>
    <path d="M58.5307,354.8529s-3.2077,14.1471-3.3324,20.2721c-.1392,6.8418-2.9118,16.7309,11.3824,16.45s23.9294,5.4544,22.95-12.3691,4.9503-21.5.362-27.5882-29.925-4.5975-31.362,3.2353Z" style="fill: #235566; stroke: #000; stroke-linecap: round; stroke-linejoin: round; stroke-width: 3px;"/>
    <g>
      <path d="M42.7584,388.6117s-3.619,4.7119-14.119,7.2707-12.8617,3.2841-14.9897,8.0391-1.1218,15.2514,3.7559,18.255,9.2961,6.8093,24.775,3.6735,17.3281-5.1141,27.35-2.441,18.9147,5.344,20.6-7.209,1.0676-16.6706-2.55-17.7,4.798-10.0059,4.0755-14.65c-2.2437.99-.6514,3.9794-10.0399,4.3s-9.9179.603-16.4473-.95-12.2621-2.859-22.4105,1.4116" style="fill: #2e7b5b;"/>
      <g style="clip-path: url(#clippath);">
        <path d="M32.219,385.8235s19.7784-2.0294,25.5259,8.4265-6.0643,6.7506-6.0643,6.7506c0,0-4.6763,3.5935-5.6528-.8506s-14.653,10.1971-12.4472.45c-3.8824.4239-42.8703,8.1647-1.3616-14.7765Z" style="fill: #193425; stroke-width: 0px;"/>
        <path d="M16.7807,397.4412s-2.8294,6.275,2.75,5.6963,15.3441-3.9875,15.3441-3.9875c0,0-1.3529,3.7853,1.2353,5.95,2-2.1294,2.7647-6.1353,9.8824-5.75.9412,1.3265,2.2882,4.6,2.2882,4.6,0,0,5.2412-6.2971,17.9471-1.05s21.4176,2.1,28.0029-4.4,5.6147,14.875,5.6147,14.875c0,0-9.1995,4.8003-21.4388.3597s-21.3259-10.0347-21.3259-10.0347c0,0-3.3824,5.1529-11.8529,6.9176s-1.2971-6.9176-1.2971-6.9176c0,0-5.7382,7.4941-12.5,7.25s-.8269-5.85-.8269-5.85c0,0-21.6114,10.9059-19.0231-2.2" style="fill: #42abe4; stroke: #000; stroke-linecap: round; stroke-linejoin: round; stroke-width: 3px;"/>
        <path d="M32.963,426.7206s-2.5706-3.6618-.9324-6.1324c2.8273.0768,9.6676-.2647,18.3147-2.25s16.325-2.2616,21.4412-1.3235,18.3441-.8147,18.3441-.8147c0,0-.3403,9.2386-7.8422,9.3943s-18.7519-5.3149-28.1048-2.1825-21.2206,3.3088-21.2206,3.3088Z" style="fill: #2b4d3c; stroke-width: 0px;"/>
        <path d="M13.7164,410.7059c2.1731,1.9853,4.7319,8.1176,17.2613,9.75-.3529,1.6324.6618,6.7774.6618,6.7774,0,0-16.5647-1.697-17.4588-8.5167s-.4643-8.0108-.4643-8.0108Z" style="fill: #53b791; stroke-width: 0px;"/>
      </g>
      <path d="M42.7584,388.6117s-3.619,4.7119-14.119,7.2707-12.8617,3.2841-14.9897,8.0391-1.1218,15.2514,3.7559,18.255,9.2961,6.8093,24.775,3.6735,17.3281-5.1141,27.35-2.441,18.9147,5.344,20.6-7.209,1.0676-16.6706-2.55-17.7,4.798-10.0059,4.0755-14.65c-2.2437.99-.6514,3.9794-10.0399,4.3s-9.9179.603-16.4473-.95-12.2621-2.859-22.4105,1.4116" style="fill: none; stroke: #000; stroke-linecap: round; stroke-linejoin: round; stroke-width: 3px;"/>
    </g>
    <path d="M13.1288,409.3328c3.6735,5.8263,9.8919,10.032,16.7011,11.0692,9.3295,1.4211,18.503-2.8767,27.8791-3.9481,2.3434-.2678,4.7099-.333,7.0645-.1947,4.2636.2505,8.465,1.1647,12.7251,1.4689s8.7247-.0538,12.4409-2.1588" style="fill: none; stroke: #000; stroke-linecap: round; stroke-linejoin: round; stroke-width: 3px;"/>
    <path d="M42.7584,388.6117s-.9164-6.5681,3.4235-8.9575,8.0458-1.5071,10.3987,2.7282,1.0071,16.1176,1.0071,16.1176c0,0-5.5339-9.1296-14.8294-9.8883Z" style="fill: #5ea28d; stroke: #000; stroke-linecap: round; stroke-linejoin: round; stroke-width: 3px;"/>
    <path d="M32.219,427.1091c-.4427-.1922-.6455-.6991-.7746-1.1642-.3209-1.1564-.4567-2.364-.4007-3.5628.0108-.2311.0335-.4755.1701-.6623" style="fill: none; stroke: #000; stroke-linecap: round; stroke-linejoin: round; stroke-width: 3px;"/>
  </g>
  <g>
    <path d="M127.463,357.0588s3.5206,17.1353,17.6426,33.1412,27.8515,1.8471,29.075-1.25-3.6-34.9794-9.3647-42.1559-39.2941-7.1176-37.3529,10.2647Z" style="fill: #235566; stroke: #000; stroke-linecap: round; stroke-linejoin: round; stroke-width: 3px;"/>
    <g>
      <g>
        <path d="M182.7507,396.34c3.65,3.25,5.03,8.57,4.24,13.4-.16.98-.41,1.96-.93,2.8-.21.35-.47.66-.75.95-.86.85-2,1.42-3.18,1.74-1.01.27-2.04.37-3.09.42-.18.01-.37.01-.56.02v-.03c2.04-2.45,3.34-5.51,3.7-8.68.24-2.13-.01-4.46-1.4-6.1,1,.28,2.11-.75,1.9-1.76-.11-.54-.49-.98-.87-1.38-.89-.98-1.78-1.96-2.69-2.94l.7-.64c.99.71,2.02,1.38,2.93,2.2Z" style="fill: #2e7b5b; stroke-width: 0px;"/>
        <path d="M185.9407,413.54c.25,3.34-.1,6.72-1.05,9.93l-.45-.13c-.62-1.44-1.28-2.87-2.14-4.18-.85-1.31-1.93-2.5-3.25-3.33l-.01-.18c1.05-.05,2.08-.15,3.09-.42,1.18-.32,2.32-.89,3.18-1.74l.63.05Z" style="fill: #2b4d3c; stroke-width: 0px;"/>
        <path d="M184.8907,423.47c-.01.03-.02.07-.03.1-.49,1.64-1.29,3.41-2.88,4.05-.76.3-1.59.3-2.41.3-12.76,0-25.52-.01-38.29-.01-.41,0-.85,0-1.22-.2-.26-.14-.46-.35-.65-.57-.79-.88-1.55-1.79-2.24-2.75.88-3.53,3.39-6.62,6.66-8.2,1.56-.12,3.13-.14,4.7-.16.58-.01,1.16-.01,1.74-.02,9.01-.1,18.01-.22,27.02-.32.4,0,.8-.01,1.19-.02.19-.01.38-.01.56-.02l.01.18c1.32.83,2.4,2.02,3.25,3.33.86,1.31,1.52,2.74,2.14,4.18l.45.13Z" style="fill: #53b791; stroke-width: 0px;"/>
        <path d="M179.1207,394.78c.91.98,1.8,1.96,2.69,2.94.38.4.76.84.87,1.38.21,1.01-.9,2.04-1.9,1.76,1.39,1.64,1.64,3.97,1.4,6.1-.36,3.17-1.66,6.23-3.7,8.68.08-4.42.78-7.74-1.45-11.56.2-.29.39-.61.39-.96-.01-.44-.31-.82-.62-1.14-.7-.75-1.53-1.29-2.3-1.94.48-.52,1.61-.81,2.28-1.12-.86-.69-1.72-1.37-2.57-2.06-.48-.37-.99-.84-.98-1.44.54-.26,1.07-.53,1.61-.79-.83-.37-1.65-.78-2.3-1.42-.64-.63-1.09-1.51-1.01-2.42h-.01c.34-.82.59-1.68.73-2.56l.74.12,4.66,3.8c.08.25.27.44.46.61.54.5,1.12.95,1.71,1.38l-.7.64Z" style="fill: #42abe4; stroke-width: 0px;"/>
        <path d="M177.0307,404.08c2.23,3.82,1.53,7.14,1.45,11.56v.03c-.39.01-.79.02-1.19.02-9.01.1-18.01.22-27.02.32l-.01-1.21c.13-.02.16-.19.15-.31-.09-1.41-.73-2.71-1.28-4-.77-1.79-1.39-3.65-1.85-5.54l1.19-.29c1.25,1.38,3.2,2.08,5.04,1.81,1.05-.16,2.02-.6,3.02-.94,2.87-1,5.95-1.04,8.94-.63,1.5.2,2.99.51,4.47.85,1.21.28,2.38.82,3.65.83,1.4.01,2.7-1.44,3.44-2.5Z" style="fill: #5ea28d; stroke-width: 0px;"/>
        <path d="M174.4907,379.66c3.57,2.3,5.09,7.32,3.4,11.23-.17.4-.38.85-.24,1.26l-4.66-3.8-.74-.12c.21-1.19.23-2.4.08-3.6l.2-.15c.94-.17,1.63-1.04,1.89-1.96.26-.93.16-1.91.07-2.86Z" style="fill: #2e7b5b; stroke-width: 0px;"/>
        <path d="M177.4207,403.12c0,.35-.19.67-.39.96-.74,1.06-2.04,2.51-3.44,2.5-1.27-.01-2.44-.55-3.65-.83-1.48-.34-2.97-.65-4.47-.85-2.99-.41-6.07-.37-8.94.63-1,.34-1.97.78-3.02.94-1.84.27-3.79-.43-5.04-1.81l-1.19.29h-.01c-.24-.99-.44-2-.6-3.01-.02-.16-.05-.33-.16-.44-.23-.25-.63-.12-.93.03-.85.41-1.7.83-2.54,1.24-.42-2.95,1.3-6.04.35-8.86-.03-.11-.07-.21-.16-.28-.09-.08-.23-.1-.35-.09l2.04-1.22c.06.09.12.18.19.28.44-1.42,3.42-3.4,5.03-4.38,2.02-1.23,4.13-2.28,6.45-2.7,3.9-.7,8.02-.64,11.72.79,1.04.4,2.12.98,2.57,2.01.34.79.24,1.73.63,2.5,0-.01.01-.02.01-.03h.01c-.08.91.37,1.79,1.01,2.42.65.64,1.47,1.05,2.3,1.42-.54.26-1.07.53-1.61.79-.01.6.5,1.07.98,1.44.85.69,1.71,1.37,2.57,2.06-.67.31-1.8.6-2.28,1.12.77.65,1.6,1.19,2.3,1.94.31.32.61.7.62,1.14Z" style="fill: #193425; stroke-width: 0px;"/>
        <path d="M172.5307,384.48l-.2.15c.15,1.2.13,2.41-.08,3.6-.14.88-.39,1.74-.73,2.56,0,.01-.01.02-.01.03-.39-.77-.29-1.71-.63-2.5-.45-1.03-1.53-1.61-2.57-2.01-3.7-1.43-7.82-1.49-11.72-.79-2.32.42-4.43,1.47-6.45,2.7-1.61.98-4.59,2.96-5.03,4.38-.07-.1-.13-.19-.19-.28-.82-1.36-.26-2.28-.78-4.69l-2.24-.08c.12-.21.24-.42.37-.63.89.2,1.83.34,1.92.08,1.2-3.51,4.5-5.87,7.87-7.43,4.24-1.96,9.03-3.04,13.63-2.19,1.06.2,2.12.51,3.03,1.09,2.04,1.31,2.98,3.74,3.81,6.01Z" style="fill: #5ea28d; stroke-width: 0px;"/>
        <path d="M150.4107,414.49c.01.12-.02.29-.15.31-.1.01-.17-.08-.23-.16-1.58-2.17-4.75-2.39-6.89-4.02-.59-.44-1.09-.99-1.48-1.6-.28-.44-.51-.94-.48-1.45.03-.73,1.25-1.59,1.96-1.72-1.73.41-2.48-.18-3.76-1.41-1.03-.99-1.27-2.69-.56-3.93.5-.86,1.41-1.52,1.62-2.49-1.25.61-2.91.1-3.7-1.06-.18-.27-.32-.56-.4-.87-.3-1.02-.1-2.19.53-3.06.34-.47.78-.86,1.16-1.31,1.19-1.43,1.7-3.57,3.4-4.35l.14-.63c.21.06.46.12.7.18-.13.21-.25.42-.37.63-.81,1.51-1.35,3.17-1.61,4.87-.09.58-.08,1.3.44,1.58.66.35,1.39-.4,2.15-.46.12-.01.26.01.35.09.09.07.13.17.16.28.95,2.82-.77,5.91-.35,8.86.84-.41,1.69-.83,2.54-1.24.3-.15.7-.28.93-.03.11.11.14.28.16.44.16,1.01.36,2.02.6,3.01h.01c.46,1.89,1.08,3.75,1.85,5.54.55,1.29,1.19,2.59,1.28,4Z" style="fill: #42abe4; stroke-width: 0px;"/>
        <path d="M143.8307,416.19c-.72.05-1.45.13-2.17.24-.85.13-1.69.31-2.55.26-1.81-.11-3.44-1.26-4.51-2.72-.18-.25-.34-.5-.49-.76-.77-1.3-1.25-2.75-1.63-4.22-.57-2.13-.99-4.33-.78-6.53.22-2.19,1.13-4.39,2.84-5.78-.01-.03-.01-.05-.02-.08l1.82-.51c.08.31.22.6.4.87.79,1.16,2.45,1.67,3.7,1.06-.21.97-1.12,1.63-1.62,2.49-.71,1.24-.47,2.94.56,3.93,1.28,1.23,2.03,1.82,3.76,1.41-.71.13-1.93.99-1.96,1.72-.03.51.2,1.01.48,1.45.39.61.89,1.16,1.48,1.6,2.14,1.63,5.31,1.85,6.89,4.02.06.08.13.17.23.16l.01,1.21c-.58.01-1.16.01-1.74.02-1.57.02-3.14.04-4.7.16Z" style="fill: #2e7b5b; stroke-width: 0px;"/>
        <path d="M144.9207,392.32l-2.04,1.22c-.76.06-1.49.81-2.15.46-.52-.28-.53-1-.44-1.58.26-1.7.8-3.36,1.61-4.87l2.24.08c.52,2.41-.04,3.33.78,4.69Z" style="fill: #193425; stroke-width: 0px;"/>
        <path d="M141.6607,416.43c.72-.11,1.45-.19,2.17-.24-3.27,1.58-5.78,4.67-6.66,8.2-.81-1.12-1.52-2.3-2.09-3.55-1.06-2.34-1.6-4.95-1.23-7.48l.26-.15c.15.26.31.51.49.76,1.07,1.46,2.7,2.61,4.51,2.72.86.05,1.7-.13,2.55-.26Z" style="fill: #2b4d3c; stroke-width: 0px;"/>
        <path d="M141.5707,386.74l-.14.63c-1.7.78-2.21,2.92-3.4,4.35-.38.45-.82.84-1.16,1.31-.63.87-.83,2.04-.53,3.06l-1.82.51c-.67-2.35-1.24-4.81-.9-7.23.2-1.5,1.79-6.13,3.91-5.02,1.14.6,1.91,1.64,3.18,2.13.11.04.44.14.86.26Z" style="fill: #2e7b5b; stroke-width: 0px;"/>
      </g>
      <g>
        <path d="M141.5707,386.74c-.42-.12-.75-.22-.86-.26-1.27-.49-2.04-1.53-3.18-2.13-2.12-1.11-3.71,3.52-3.91,5.02-.34,2.42.23,4.88.9,7.23.01.03.01.05.02.08-1.71,1.39-2.62,3.59-2.84,5.78-.21,2.2.21,4.4.78,6.53.38,1.47.86,2.92,1.63,4.22.15.26.31.51.49.76,1.07,1.46,2.7,2.61,4.51,2.72.86.05,1.7-.13,2.55-.26.72-.11,1.45-.19,2.17-.24,1.56-.12,3.13-.14,4.7-.16.58-.01,1.16-.01,1.74-.02,9.01-.1,18.01-.22,27.02-.32.4,0,.8-.01,1.19-.02.19-.01.38-.01.56-.02,1.05-.05,2.08-.15,3.09-.42,1.18-.32,2.32-.89,3.18-1.74.28-.29.54-.6.75-.95.52-.84.77-1.82.93-2.8.79-4.83-.59-10.15-4.24-13.4-.91-.82-1.94-1.49-2.93-2.2-.59-.43-1.17-.88-1.71-1.38-.19-.17-.38-.36-.46-.61-.14-.41.07-.86.24-1.26,1.69-3.91.17-8.93-3.4-11.23.09.95.19,1.93-.07,2.86-.26.92-.95,1.79-1.89,1.96-.83-2.27-1.77-4.7-3.81-6.01-.91-.58-1.97-.89-3.03-1.09-4.6-.85-9.39.23-13.63,2.19-3.37,1.56-6.67,3.92-7.87,7.43-.09.26-1.03.12-1.92-.08-.24-.06-.49-.12-.7-.18Z" style="fill: none; stroke: #000; stroke-linecap: round; stroke-linejoin: round; stroke-width: 3px;"/>
        <path d="M144.1407,387.63c.52,2.41-.04,3.33.78,4.69.06.09.12.18.19.28.44-1.42,3.42-3.4,5.03-4.38,2.02-1.23,4.13-2.28,6.45-2.7,3.9-.7,8.02-.64,11.72.79,1.04.4,2.12.98,2.57,2.01.34.79.24,1.73.63,2.5,0-.01.01-.02.01-.03.34-.82.59-1.68.73-2.56.21-1.19.23-2.4.08-3.6" style="fill: none; stroke: #000; stroke-linecap: round; stroke-linejoin: round; stroke-width: 3px;"/>
        <path d="M142.2707,386.91v.01c-.13.21-.25.42-.37.63-.81,1.51-1.35,3.17-1.61,4.87-.09.58-.08,1.3.44,1.58.66.35,1.39-.4,2.15-.46.12-.01.26.01.35.09.09.07.13.17.16.28.95,2.82-.77,5.91-.35,8.86.84-.41,1.69-.83,2.54-1.24.3-.15.7-.28.93-.03.11.11.14.28.16.44.16,1.01.36,2.02.6,3.01h.01c.46,1.89,1.08,3.75,1.85,5.54.55,1.29,1.19,2.59,1.28,4,.01.12-.02.29-.15.31-.1.01-.17-.08-.23-.16-1.58-2.17-4.75-2.39-6.89-4.02-.59-.44-1.09-.99-1.48-1.6-.28-.44-.51-.94-.48-1.45.03-.73,1.25-1.59,1.96-1.72-1.73.41-2.48-.18-3.76-1.41-1.03-.99-1.27-2.69-.56-3.93.5-.86,1.41-1.52,1.62-2.49-1.25.61-2.91.1-3.7-1.06-.18-.27-.32-.56-.4-.87-.3-1.02-.1-2.19.53-3.06.34-.47.78-.86,1.16-1.31,1.19-1.43,1.7-3.57,3.4-4.35" style="fill: none; stroke: #000; stroke-linecap: round; stroke-linejoin: round; stroke-width: 3px;"/>
        <path d="M148.4707,404.66c1.25,1.38,3.2,2.08,5.04,1.81,1.05-.16,2.02-.6,3.02-.94,2.87-1,5.95-1.04,8.94-.63,1.5.2,2.99.51,4.47.85,1.21.28,2.38.82,3.65.83,1.4.01,2.7-1.44,3.44-2.5.2-.29.39-.61.39-.96-.01-.44-.31-.82-.62-1.14-.7-.75-1.53-1.29-2.3-1.94.48-.52,1.61-.81,2.28-1.12-.86-.69-1.72-1.37-2.57-2.06-.48-.37-.99-.84-.98-1.44.54-.26,1.07-.53,1.61-.79-.83-.37-1.65-.78-2.3-1.42-.64-.63-1.09-1.51-1.01-2.42" style="fill: none; stroke: #000; stroke-linecap: round; stroke-linejoin: round; stroke-width: 3px;"/>
        <path d="M133.8507,413.36c-.37,2.53.17,5.14,1.23,7.48.57,1.25,1.28,2.43,2.09,3.55.69.96,1.45,1.87,2.24,2.75.19.22.39.43.65.57.37.2.81.2,1.22.2,12.77,0,25.53.01,38.29.01.82,0,1.65,0,2.41-.3,1.59-.64,2.39-2.41,2.88-4.05.01-.03.02-.07.03-.1.95-3.21,1.3-6.59,1.05-9.93" style="fill: none; stroke: #000; stroke-linecap: round; stroke-linejoin: round; stroke-width: 3px;"/>
        <path d="M143.8607,416.17c-.01,0-.02.01-.03.02-3.27,1.58-5.78,4.67-6.66,8.2-.02.08-.04.15-.06.23" style="fill: none; stroke: #000; stroke-linecap: round; stroke-linejoin: round; stroke-width: 3px;"/>
        <path d="M179.0507,415.83c1.32.83,2.4,2.02,3.25,3.33.86,1.31,1.52,2.74,2.14,4.18" style="fill: none; stroke: #000; stroke-linecap: round; stroke-linejoin: round; stroke-width: 3px;"/>
        <line x1="177.6507" y1="392.15" x2="172.9907" y2="388.35" style="fill: none; stroke: #000; stroke-linecap: round; stroke-linejoin: round; stroke-width: 3px;"/>
        <path d="M177.0307,404.08c2.23,3.82,1.53,7.14,1.45,11.56,2.04-2.45,3.34-5.51,3.7-8.68.24-2.13-.01-4.46-1.4-6.1,1,.28,2.11-.75,1.9-1.76-.11-.54-.49-.98-.87-1.38-.89-.98-1.78-1.96-2.69-2.94-.03-.05-.08-.09-.12-.14" style="fill: none; stroke: #000; stroke-linecap: round; stroke-linejoin: round; stroke-width: 3px;"/>
      </g>
    </g>
  </g>
  <g>
    <path d="M65.6839,259.6059s-3.4099,3.93-3.5988,13.0281c-.189,9.098-11.3648,80.8967-13.6655,84.0232,0,0-2.7153.9196-2.9673,4.3081s-1.1421,11.2541-2.0307,17.7076,30.4487,10.364,49.0273,5.3546c-1.5916-14.0184,4.1071-59.9664,9.8178-66.7037s9.555,17.0026,10.9419,21.4402c1.387,4.4375,9.3092,46.6444,11.6002,49.6514s15.0864,4.1719,31.2276-2.2967c16.1412-6.4686,18.4406-14.8124,18.0318-16.9021s-1.5785-4.9643-3.9296-7.725c-2.3511-2.7606-12.7996-53.357-14.7201-63.0137-1.9205-9.6567-9.6992-30.1273-12.4405-34.9153-2.7412-4.788-70.8943-8.5041-77.2941-3.9566Z" style="fill: #122426; stroke-width: 0px;"/>
    <path d="M61.9096,281.0821s10.7719,3.7304,20.0808,3.1177c1.506.1516-2.5317,19.0765-3.9817,18.7625s-18.938-3.041-17.6567-8.0743" style="fill: #122426; stroke: #000; stroke-linecap: round; stroke-linejoin: round; stroke-width: 3px;"/>
    <path d="M82.0829,288.2692s.6549-9.508-.1592-17.2913" style="fill: #383e50; stroke: #000; stroke-linecap: round; stroke-linejoin: round; stroke-width: 3px;"/>
    <path d="M149.7123,281.8427c-1.0749-2.4494-2.4395-1.5223-4.3445-.4931-2.1417,1.1572-4.3471,2.1963-6.6027,3.1116-.6188.2511-7.5129,2.7683-7.5793,2.5547,1.236,4.1163,4.8195,7.019,7.2434,10.5681,1.5829,2.3177,2.6826,4.9395,4.2878,7.2418,3.9528-2.2998,7.9056-4.5996,11.8583-6.8993.1604-.0933.3281-.1939.4192-.3555.1462-.2592.0505-.5822-.048-.863" style="fill: #122426; stroke: #000; stroke-linecap: round; stroke-linejoin: round; stroke-width: 3px;"/>
    <path d="M65.6839,259.6059s-3.4099,3.93-3.5988,13.0281c-.189,9.098-11.3648,80.8967-13.6655,84.0232,0,0-2.7153.9196-2.9673,4.3081s-1.1421,11.2541-2.0307,17.7076,30.4487,10.364,49.0273,5.3546c-1.5916-14.0184,4.1071-59.9664,9.8178-66.7037s9.555,17.0026,10.9419,21.4402c1.387,4.4375,9.3092,46.6444,11.6002,49.6514s15.0864,4.1719,31.2276-2.2967c16.1412-6.4686,18.4406-14.8124,18.0318-16.9021s-1.5785-4.9643-3.9296-7.725c-2.3511-2.7606-12.7996-53.357-14.7201-63.0137-1.9205-9.6567-9.6992-30.1273-12.4405-34.9153-2.7412-4.788-70.8943-8.5041-77.2941-3.9566Z" style="fill: none; stroke: #000; stroke-linecap: round; stroke-linejoin: round; stroke-width: 3px;"/>
    <path d="M69.9129,266.5599s-11.79,31.9709-17.8898,47.474-.5438-2.7119-.5438-2.7119c0,0-5.3374,8.1411-5.1414,10.369s1.9728,4.6302,3.0581,5.9324,2.8708,2.4425,9.4708-7.2608c6.6-9.7033,22.542-42.4351,21.7644-47.3435s-7.9446-8.2756-10.7182-6.4593Z" style="fill: #5a646c; stroke: #000; stroke-linecap: round; stroke-linejoin: round; stroke-width: 3px;"/>
    <path d="M123.4061,276.8084s3.3539,21.2125,43.9813,49.7741c4.7859-8.9025,3.0077-10.7699,2.9894-13.7353-3.5244-2.6056-12.0638-6.5693-12.0638-6.5693,0,0,7.8686,9.8096-.9594,2.5674-8.828-7.2423-23.9969-37.505-28.8634-36.9-4.8666.6049-4.9456.4798-5.0841,4.8631Z" style="fill: #5a646c; stroke: #000; stroke-linecap: round; stroke-linejoin: round; stroke-width: 3px;"/>
    <path d="M84.1906,385.0503s4.3698-68.7482,11.7943-74.9483c7.4245-6.2001,15.4594-7.7983,22.1164,17.2866,6.657,25.0848,15.8439,63.4416,15.8439,63.4416,0,0-8.1514,1.1535-9.7911-4.8819-1.6397-6.0354-11.9104-70.9193-19.7395-70.8466-7.8291.0727-11.1403,68.8429-11.1403,68.8429,0,0-6.0573,2.6983-9.0837,1.1057Z" style="fill: #091719; stroke: #000; stroke-linecap: round; stroke-linejoin: round; stroke-width: 3px;"/>
  </g>
  <g>
    <g>
      <path d="M46.9952,231.31c-18.81-14.17-27.22-45.68-27.02-48.69.08-1.16.69-1.38,1.47-1.14.08.15.15.3.23.45.53.23,1.07.43,1.62.6,1.16.86,2.18,1.91,2.18,1.91,2.48,9.5,17.98,50.34,29.92,45.48,2.18-.88,3.74-1.3,4.84-1.38-.95,1.86-1.78,3.53-2.46,4.96-.65,1.37-.53,2.37.08,3.04-3.88-1.08-7.53-2.89-10.86-5.23Z" style="fill: #032321; stroke-width: 0px;"/>
      <path d="M60.6652,237.09c7.74-2.24,14.57-7.46,18.77-14.33l-.66-.46c.18-.24.34-.49.5-.73,2.25-3.44,3.87-7.24,5.32-11.08,2.22-5.84,4.1-11.92,4.14-18.16.03-4.67-.98-9.23-2.02-13.79,2.42,4.76,5.74,22.01,5.51,23.42-2.02,12.5-13.95,25.22-23.63,33.07-2.82,2.29-7.44,3.17-9.79,2.15.03-.04.12-.16.25-.33.53.12,1.06.23,1.59.33l.02-.09Z" style="fill: #032321; stroke-width: 0px;"/>
      <path d="M79.4352,222.76c-4.2,6.87-11.03,12.09-18.77,14.33l-.02.09c-.53-.1-1.06-.21-1.59-.33,1.26-1.65,6.32-8.69,1.18-8.31,7.18-14.06,20.97-38.89,24.72-50.33.44-1.36,1.06-1.02,1.76.33,1.04,4.56,2.05,9.12,2.02,13.79-.04,6.24-1.92,12.32-4.14,18.16-1.45,3.84-3.07,7.64-5.32,11.08-.16.24-.32.49-.5.73l.66.46Z" style="fill: #032321; stroke-width: 0px;"/>
      <path d="M55.3952,229.92c-11.94,4.86-27.44-35.98-29.92-45.48,0,0-1.02-1.05-2.18-1.91,3.46,1.11,7.26,1.18,10.76.19,4.06-1.15,7.7-3.72,10.14-7.16l.74-.17c1.45,5.97,4.96,11.31,7.48,16.92l.28-.13c6.35-12.35,17.55-22.13,30.65-26.74l1.16.41c.26,4.28,1.25,8.49,2.21,12.69-.7-1.35-1.32-1.69-1.76-.33-3.75,11.44-17.54,36.27-24.72,50.33-1.1.08-2.66.5-4.84,1.38Z" style="fill: #034346; stroke-width: 0px;"/>
      <path d="M59.0552,236.85c-.13.17-.22.29-.25.33-.38-.16-.71-.37-.95-.64.4.11.8.21,1.2.31Z" style="fill: #032321; stroke-width: 0px;"/>
      <path d="M57.7752,233.5c.68-1.43,1.51-3.1,2.46-4.96,5.14-.38.08,6.66-1.18,8.31-.4-.1-.8-.2-1.2-.31-.61-.67-.73-1.67-.08-3.04Z" style="fill: #032321; stroke-width: 0px;"/>
      <path d="M23.2952,182.53c-.55-.17-1.09-.37-1.62-.6-.08-.15-.15-.3-.23-.45.57.17,1.23.58,1.85,1.05Z" style="fill: #032321; stroke-width: 0px;"/>
    </g>
    <g>
      <path d="M44.8152,174.86c.04.18.08.36.12.53,1.45,5.97,4.96,11.31,7.48,16.92,1.25,2.79,2.26,5.65,2.64,8.68" style="fill: none; stroke: #000; stroke-linecap: round; stroke-linejoin: round; stroke-width: 3px;"/>
      <path d="M83.3452,165.44c-13.1,4.61-24.3,14.39-30.65,26.74" style="fill: none; stroke: #000; stroke-linecap: round; stroke-linejoin: round; stroke-width: 3px;"/>
      <path d="M84.5052,165.85c.26,4.28,1.25,8.49,2.21,12.69,1.04,4.56,2.05,9.12,2.02,13.79-.04,6.24-1.92,12.32-4.14,18.16-1.45,3.84-3.07,7.64-5.32,11.08-.16.24-.32.49-.5.73-1.18,1.68-2.66,3.23-4.61,3.83" style="fill: none; stroke: #000; stroke-linecap: round; stroke-linejoin: round; stroke-width: 3px;"/>
      <path d="M19.8252,179.86c-1.22,7.64,1.96,15.25,5.33,22.22,3.77,7.8,7.93,15.53,13.7,21.98,2.41,2.71,5.15,5.19,8.14,7.25,3.33,2.34,6.98,4.15,10.86,5.23.4.11.8.21,1.2.31.53.12,1.06.23,1.59.33.03,0,.05.01.08.01" style="fill: none; stroke: #000; stroke-linecap: round; stroke-linejoin: round; stroke-width: 3px;"/>
      <path d="M60.6652,237.09c7.74-2.24,14.57-7.46,18.77-14.33" style="fill: none; stroke: #000; stroke-linecap: round; stroke-linejoin: round; stroke-width: 3px;"/>
    </g>
  </g>
  <g id="Torso">
    <path d="M134.4086,194.8441c.9956,13.8912,13.8045,37.3289,17.0241,43.3618s-7.5329,6.8824-13.1042,14.6471,14.8397,30.6386,14.8397,30.6386c0,0,29.5301-26.5737,32.3537-39.1944,2.9974-13.3979-35.6471-73.0324-43.0575-75.9892s-14.3252-.6906-14.3252-.6906" style="fill: #034346; stroke: #000; stroke-linecap: round; stroke-linejoin: round; stroke-width: 3px;"/>
    <path d="M138.0704,253.2583l-.078,4.2849c19.1765-9.1332,23.4118-13.9256,16.4706-24.6459-7.4699-11.5369-18.7785-41.6105-18.7785-41.6105,0,0-2.3097-1.1691-.9862,6.5073s17.5588,43.5882,17.5588,43.5882l-14.1867,11.876Z" style="fill: #032321; stroke-width: 0px;"/>
    <path d="M134.4086,194.8441c.9956,13.8912,13.8045,37.3289,17.0241,43.3618s-7.5329,6.8824-13.1042,14.6471,14.8397,30.6386,14.8397,30.6386c0,0,29.5301-26.5737,32.3537-39.1944,2.9974-13.3979-35.6471-73.0324-43.0575-75.9892s-14.3252-.6906-14.3252-.6906" style="fill: none; stroke: #000; stroke-linecap: round; stroke-linejoin: round; stroke-width: 3px;"/>
    <path d="M73.0512,193.6176s-8.1706-20.6412,14.1794-25.9676,51.05-9.9932,48.2,21.4578-59.4382,23.804-62.3794,4.5098Z" style="fill: #034346; stroke-width: 0px;"/>
    <path d="M70.4307,186.9118s1.0981,37.1459-2.6,52.6882-4.4,24.5-4.4,24.5c0,0,7.0319,14.732,30.9439,15.5954s46.9563-9.4294,47.9194-13.6359-2.5133-10.4712-1.6133-18.236-5.8021-63.3824-5.8021-63.3824" style="fill: #034346; stroke-width: 0px;"/>
    <g>
      <path d="M115.1287,227.5935c.0095-.6193-.0153-1.2373-.0741-1.8508l-.0185-.0002c-.8239-8.552-7.7798-11.8902-6.2247-20.5764,0,0-11.178,3.3946-2.4429,18.1771.6554,1.1091,1.1739,2.1605,1.5962,3.1681.0432.4026.0683.8079.0581,1.2157-.1502,4.9848-4.1874,9.0377-9.0111,8.9899h-.0002c-4.8185-.0478-8.5006-4.1695-8.2321-9.1438.0402-.6888.1568-1.3729.3471-2.0389l-.0429-.0003c.9738-2.6682,2.5957-5.4596,5.1684-8.2321,14.9883-16.1526,2.4825-24.3292-.1141-24.2146h0s2.5058,3.9079-4.519,16.0582c-1.1428-1.4233-2.1917-4.1053-.2284-8.6377-.0005.0002-10.3448,4.5311-4.9926,17.1391-5.0214,9.4937-3.0337,16.1136-.0245,20.1743.055.0766.1137.1496.17.225.1607.2092.3232.4108.488.6058.5697.6886,1.1954,1.3238,1.8742,1.9017.1966.17.3906.3309.5808.4812.0967.0744.1925.1492.2911.2213,1.102.8317,2.0388,1.3234,2.4879,1.4793l-.0002-.0003c1.8985.8891,4.0174,1.3965,6.275,1.4207.795.0085,1.5726-.0631,2.3404-.1705-.115.0462-.1806.0698-.1806.0698,0,0,.85-.101,2.1343-.4688.8182-.223,1.6127-.5048,2.3778-.8508,3.8481-1.6585,8.8928-5.3023,9.7769-13.1082.0652-.5759.0976-1.1248.1135-1.6599.0053-.1256.0236-.2478.0261-.374h0Z" style="fill: #24deb0; stroke-width: 0px;"/>
      <polygon points="91.3907 200.5077 91.3907 200.5078 91.3907 200.5078 91.3907 200.5077" style="fill: #24deb0; stroke-width: 0px;"/>
    </g>
    <path d="M87.2307,165.15s-7.2382,3.7497-7.8853,4.8146,3.8824,12.6531,22.4118,13.359c18.5294.7059,26.0235-12.0059,26.0235-13.9735s-3.4941-5.7324-18.2-7.0265c-14.7059-1.2941-22.35,2.8265-22.35,2.8265Z" style="fill: #032321; stroke: #000; stroke-linecap: round; stroke-linejoin: round; stroke-width: 3px;"/>
    <path d="M135.1956,187.1074s-4.8165,55.6867-4.0099,75.4514,11.1082,3.5007,11.1082,3.5007l-7.0984-78.9521Z" style="fill: #032321; stroke-width: 0px;"/>
    <path d="M70.4307,186.9118s1.0981,37.1459-2.6,52.6882-4.4,24.5-4.4,24.5c0,0,7.0319,14.732,30.9439,15.5954s46.9563-9.4294,47.9194-13.6359-2.5133-10.4712-1.6133-18.236-5.8021-63.3824-5.8021-63.3824" style="fill: none; stroke: #000; stroke-linecap: round; stroke-linejoin: round; stroke-width: 3px;"/>
    <path d="M65.3923,250.9825s-3.3585-.0807-3.0851,6.8066-2.6915,8.0785,3.0851,13.1888,50.5887,20.3015,79.5944,0c0,0,4.2007-13.9486,2.0738-16.0662s-3.8471-.8235-3.8471-.8235c0,0,1.132,6.9078-29.1033,6.5716s-48.8472-1.9594-48.7177-9.6773Z" style="fill: #032321; stroke: #000; stroke-linecap: round; stroke-linejoin: round; stroke-width: 3px;"/>
  </g>
  <g id="Cabeza">
    <g id="Cuello">
      <path d="M88.7155,153.9109s.1579,12.6754-2.1971,16.0405,12.6418,7.2669,18.7125,6.1616c11.7604-2.1414,18.6879-3.0965,14.6696-15.0884s2.4852-22.8286,2.4852-22.8286c0,0-32.66-8.4048-33.6702,15.715Z" style="fill: #235566; stroke-width: 0px;"/>
      <g style="clip-path: url(#clippath-1);">
        <path d="M110.768,144.9252s5.6483,6.4533,1.2515,13.8622-3.4301,5.5069-3.4301,5.5069c0,0,1.7653.3082,4.7612-1.7273s.3962,10.0887-4.6825,13.216c-5.0787,3.1273-39.3015,9.3728-23.923-21.7171s26.0228-9.1407,26.0228-9.1407Z" style="fill: #a9c7d1; stroke-width: 0px;"/>
      </g>
      <path d="M88.7155,153.9109s.1579,12.6754-2.1971,16.0405,12.6418,7.2669,18.7125,6.1616c11.7604-2.1414,18.6879-3.0965,14.6696-15.0884s2.4852-22.8286,2.4852-22.8286c0,0-32.66-8.4048-33.6702,15.715Z" style="fill: none; stroke: #000; stroke-linecap: round; stroke-linejoin: round; stroke-width: 3px;"/>
      <path d="M118.9446,157.1735s-1.556,8.776-19.3663,9.9391c-12.6403.8255-10.0621-9.8797-10.0621-9.8797" style="fill: none; stroke: #000; stroke-linecap: round; stroke-linejoin: round; stroke-width: 3px;"/>
    </g>
    <path d="M62.0045,85.8239s-19.6895-11.1611-20.5264-33.4508c-.8369-22.2897,15.7172-49.7006,15.7172-49.7006,0,0-1.2125,2.6803,9.647,19.2473s25.6911,48.7534-4.8378,63.9041Z" style="fill: #235566; stroke: #000; stroke-linecap: round; stroke-linejoin: round; stroke-width: 3px;"/>
    <path d="M129.1892,142.4373s1.3669,11.5764-4.1653,17.9129c4.463-.4779,8.1352-4.6547,9.4662-8.1313,0,0,1.7117,5.5628-2.493,11.0118,0,0,22.6482-18.8483,18.7936-42.5643s-29.6448,6.185-21.6016,21.7708Z" style="fill: #19c9d9; stroke: #000; stroke-linecap: round; stroke-linejoin: round; stroke-width: 3px;"/>
    <path d="M66.3139,92.8259s-20.5909-24.0563,3.157-53.0097,70.8894-2.2583,70.8894-2.2583c0,0,38.061,22.2531,25.0425,48.7328s-35.1404,22.942-35.1404,22.942c0,0-60.6371,9.1514-63.9484-16.4068Z" style="fill: #235566; stroke: #000; stroke-linecap: round; stroke-linejoin: round; stroke-width: 3px;"/>
    <g>
      <path d="M72.8689,93.3713s-11.5535-7.4906-6.729-20.1108c4.8245-12.6202,14.4054-10.0875,16.7067-8.17s8.2723,6.0177,6.0935,22.2645c-2.1788,16.2468-16.0712,6.0163-16.0712,6.0163Z" style="fill: #fff; stroke-width: 0px;"/>
      <path d="M79.9349,67.6242c4.0168-.1716,6.7931,3.3536,6.3317,8.6735s-1.3445,8.376-5.5117,10.5502-7.9797-5.9762-6.3761-12.5002,3.6634-6.6426,5.5561-6.7234Z" style="fill: #000; stroke: #000; stroke-linecap: round; stroke-linejoin: round; stroke-width: 3px;"/>
      <path d="M80.653,71.3346c-1.3815.3527-1.7498,2.7935-1.2763,3.8527s1.1482,2.1862,2.1179,1.9759,1.9617-2.2007,1.5825-3.5748-.7312-2.6861-2.4242-2.2538Z" style="fill: #fff; stroke-width: 0px;"/>
      <path d="M78.2271,80.0225c.4324,1.3363,1.2202,3.0734,2.7194,1.8052.4135-.3493.8269-.9336,1.2147-1.4627.2707-.399.9361-.159.9034.3123.061,3.3187-4.1833,5.2121-5.7051,1.7744-.2822-.6641-.5421-2.9791.5002-2.8085.1941.0481.3158.2017.3674.3793h0Z" style="fill: #3ce699; stroke-width: 0px;"/>
      <path d="M64.7183,80.8277c-.2194-6.7079,1.2907-15.2257,8.3295-18.0438,2.3497-.9321,4.902-.9548,7.2658-.6345.8218.1114,1.3977.8679,1.2863,1.6896-.1114.8218-.8678,1.3977-1.6896,1.2863-10.2028-2.6543-14.0427,7.2451-14.3218,15.6741.0116.5537-.8438.5924-.8703.0283h0Z" style="fill: #000; stroke-width: 0px;"/>
    </g>
    <g>
      <path d="M110.3983,96.9979s-6.6537-19.1155-.0762-21.9335c5.1005-2.1852,15.1755-5.7342,23.2461.4356s4.6311,16.4307-.0935,23.2215-23.0763-1.7236-23.0763-1.7236Z" style="fill: #fff; stroke-width: 0px;"/>
      <path d="M136.007,92.8516c2.0975-6.9457,2.9572-15.2067-5.1069-18.3977-6.7572-2.4843-14.4783.0435-20.5131,3.5031-.7161.4237-1.6419.1827-2.0603-.5366-.4304-.7348-.1556-1.6891.599-2.0833,6.8822-3.5278,15.2447-5.8613,22.7653-2.7441,6.2986,2.8488,8.1559,8.6095,6.7361,15.0489-.356,1.8909-.8529,3.7229-1.5168,5.5347-.0912.2488-.3668.3766-.6156.2855-.2479-.0904-.3741-.3645-.2877-.6103h0Z" style="fill: #000; stroke-width: 0px;"/>
      <path d="M120.8623,73.0294c4.4968-1.7373,10.1144,2.0549,8.7722,8.183-1.3421,6.1281-1.3516,11.4785-6.0613,11.0426s-5.5422-4.2592-6.1696-5.9972-3.3594-10.5943,3.4587-13.2284Z" style="fill: #000; stroke: #000; stroke-linecap: round; stroke-linejoin: round; stroke-width: 3px;"/>
      <path d="M120.5745,73.869c2.33-.0356,4.2694,2.9408,2.4296,5.8544s-4.3886.0275-4.3762-2.1331.9079-3.7055,1.9466-3.7213Z" style="fill: #fff; stroke-width: 0px;"/>
      <path d="M121.1148,86.0234c.6578,1.3861,2.6038,3.3614,4.0187,1.9166.431-.4376.8318-1.1782,1.1674-1.8508.1714-.454.692-.6899,1.1339-.4655.2896.1444.4541.4403.4465.7438-.0282,1.0479-.2549,2.0078-.8844,2.9869-1.3797,2.3624-4.886,1.942-6.3793-.0715-.6761-.7781-1.8941-3.6236-.2754-3.8154.37-.0062.6366.2459.7726.5559h0Z" style="fill: #3ce699; stroke-width: 0px;"/>
    </g>
    <g>
      <path d="M151.3491,129.9389c-5.92,6.26-8.04,13.78-18.15,18.13-2.37,1.02-4.93,1.7-7,3.24-3.41,2.54-4.82,6.91-6.02,10.99-3.12-3.21-6.23-6.41-9.34-9.61-.81,3.67-1.62,7.35-2.43,11.03-13.3-10.37-27.38-19.75-42.08-28.02-7.53-4.25-15.44-8.37-20.95-15.03-2.12-2.57-3.86-5.52-4.53-8.78s-.17-6.84,1.81-9.51l-.18-.5c1.45-3.3,4.2-5.85,7.12-7.97,8.51-6.17,18.94-9.37,29.41-10.23,10.48-.87,21.04.51,31.28,2.86,9.13,2.08,18.13,4.96,26.36,9.41,2.94,1.59,5.9,3.5,7.52,6.43h.32c8.97,8.59,16.35,18.84,21.66,30.07-3.19-1.33-6.13-3.22-8.66-5.56.41,2.75.82,5.49,1.23,8.24-3.05-.09-4.87-3.5-7.37-5.19Z" style="fill: #a9c7d1; stroke-width: 0px;"/>
      <g>
        <path d="M144.1691,102.3789c-1.62-2.93-4.58-4.84-7.52-6.43-8.23-4.45-17.23-7.33-26.36-9.41-10.24-2.35-20.8-3.73-31.28-2.86-10.47.86-20.9,4.06-29.41,10.23-2.92,2.12-5.67,4.67-7.12,7.97" style="fill: none; stroke: #000; stroke-linecap: round; stroke-linejoin: round; stroke-width: 3px;"/>
        <path d="M42.6591,102.3789c-1.98,2.67-2.48,6.25-1.81,9.51s2.41,6.21,4.53,8.78c5.51,6.66,13.42,10.78,20.95,15.03,14.7,8.27,28.78,17.65,42.08,28.02.81-3.68,1.62-7.36,2.43-11.03,3.11,3.2,6.22,6.4,9.34,9.61,1.2-4.08,2.61-8.45,6.02-10.99,2.07-1.54,4.63-2.22,7-3.24,10.11-4.35,12.23-11.87,18.15-18.13" style="fill: none; stroke: #000; stroke-linecap: round; stroke-linejoin: round; stroke-width: 3px;"/>
        <path d="M144.4891,102.3789c8.97,8.59,16.35,18.84,21.66,30.07-3.19-1.33-6.13-3.22-8.66-5.56.41,2.75.82,5.49,1.23,8.24-3.05-.09-4.87-3.5-7.37-5.19-.7-.48-1.46-.82-2.31-.91" style="fill: none; stroke: #000; stroke-linecap: round; stroke-linejoin: round; stroke-width: 3px;"/>
      </g>
    </g>
    <path d="M140.6205,36.5807S121.7467,5.5277,74.7248,6.3101c0,0,16.2658,10.5364,17.577,14.2551,0,0-15.8771-6.5598-45.2974,3.7422,0,0,16.8854,4.4618,18.7343,9.2882,0,0-23.2421,4.2834-34.7639,34.8043,0,0,18.5825-17.4678,30.3022-16.9393,11.7197.5284,36.2895-1.6977,51.4575-7.1053,15.168-5.4077,21.295-1.9203,21.295-1.9203l6.591-5.8542Z" style="fill: #19c9d9; stroke: #000; stroke-linecap: round; stroke-linejoin: round; stroke-width: 3px;"/>
    <path d="M129.4355,51.1285s7.5464-16.9761,23.5065-22.4386c15.96-5.4625,19.9069-21.7129,19.9069-21.7129,0,0,14.1609,24.9211,8.9825,50.2586-5.1785,25.3375-27.8931,44.754-27.8931,44.754" style="fill: #235566; stroke: #000; stroke-linecap: round; stroke-linejoin: round; stroke-width: 3px;"/>
    <path d="M68.8138,84.403s-7.1425.356-9.8635,4.0472-1.68,6.2935-1.68,6.2935c0,0,8.5116,6.3676,10.7374,7.9478s15.5872-5.2198,15.545-6.405,1.871-6.3872-2.805-8.2415-8.5822-3.4451-11.934-3.6421Z" style="fill: #2a2a2a; stroke: #000; stroke-linecap: round; stroke-linejoin: round; stroke-width: 3px;"/>
    <path d="M174.9214,32.1275s2.583,29.3212-7.2293,44.8274c0,0-6.4591-2.7136-5.1752-6.191l12.4046-38.6363Z" style="fill: #a9c7d1; stroke-width: 0px;"/>
    <path d="M176.7206,37.478s.2414-2.9545-2.199-8.129c0,0-2.3388,20.9279-13.1212,43.4594" style="fill: none; stroke: #000; stroke-linecap: round; stroke-linejoin: round; stroke-width: 3px;"/>
    <path d="M67.2331,61.9509c.5784-2.6559,2.43-4.9233,4.9219-6.0154,1.3474-.5326,3.8666-1.6657,4.3936.4043.1586.8178-.3757,1.6094-1.1935,1.7681-1.4622.0383-2.9332.1859-4.1936,1.0031-1.1981.7067-2.2123,1.944-2.742,3.2187-.2876.6876-1.3516.3441-1.1863-.3788h0Z" style="fill: #19c9d9; stroke-width: 0px;"/>
    <path d="M132.6312,62.972c-6.1622-.2832-12.4697.2011-18.4258,1.8414-1.9091.4803-2.6806-2.3555-.7787-2.9007,6.3879-1.26,12.9283-1.2657,19.3725-.473.9718.1318.8155,1.6153-.168,1.5323h0Z" style="fill: #19c9d9; stroke-width: 0px;"/>
    <path d="M142.1234,34.837s1.0446-6.1693,3.9034,3.2062" style="fill: none; stroke: #000; stroke-linecap: round; stroke-linejoin: round; stroke-width: 3px;"/>
    <path d="M147.807,30.9681s2.634-7.0012,6.2373,2.8615" style="fill: none; stroke: #000; stroke-linecap: round; stroke-linejoin: round; stroke-width: 3px;"/>
  </g>
  <path d="M90.886,130.7081c9.811-3.1081,20.6056-3.0235,30.3667.238" style="fill: none; stroke: #000; stroke-linecap: round; stroke-linejoin: round; stroke-width: 3px;"/>
  <g id="Frame1">
    <path d="M52.4852,148.4c.79,1.35,1.58,2.73,1.96,4.26.37,1.52.3,3.22-.56,4.53l.42.43c-3.39,3.31-6.19,7.21-8.22,11.49l-.21-.09c-.6,2.15-1.37,4.25-2.29,6.28l.61.26c-2.44,3.44-6.08,6.01-10.14,7.16-3.5.99-7.3.92-10.76-.19-.62-.47-1.28-.88-1.85-1.05-.92-1.89-1.99-3.71-3.17-5.44l-.01.01c-4.43-2.56-7.61-7.17-8.44-12.21l-.74-.76c-.67-3.14-.14-6.53,1.48-9.3.63-2.09,1.65-4.07,2.99-5.79l.13-.11c1.51.71,2.9,1.68,4.11,2.85l-.54.54c-.59-.54-1.39-.87-2.2-.88-.81,0-1.62.31-2.19.88-.77.77-1.06,1.91-1.02,2.99.05,1.08.39,2.13.72,3.15l.03.28c.84,1,1.29,2.27,1.86,3.45.56,1.18,1.33,2.37,2.52,2.91.87.39,1.88.4,2.81.2.92-.21,1.8-.6,2.66-.99.26-2.8-.26-5.66-1.48-8.18l.69-.33c.41.85.83,1.7,1.26,2.54.46.89.95,1.8,1.7,2.47.98.86,2.38,1.22,3.66.94,1.02-.22,2.02-.96,2.15-1.99l.09-.01c-1.42-4.96-3.52-9.72-6.23-14.11-.12-.22-.25-.44-.39-.65l-.06.04c-.17-.22-.37-.43-.59-.6l1.02-.01c.5-2.16,1.47-4.21,2.85-5.96l.16.12c1.77-.61,3.74-.48,5.46.24,1.26.52,2.38,1.36,3.19,2.46.37.5.67,1.03.92,1.59l-.27.11c-.97-.45-2.02-.75-3.09-.71-1.06.04-2.14.45-2.84,1.25-.65.73-.94,1.81-.66,2.73l-1.17.38c1.17,3.66,2.55,7.27,4.87,10.31.78,1.02,1.69,1.99,2.86,2.5.69.3,1.51.43,2.19.1s1.1-1.23.73-1.89l.58-.24c-.62-3.25-1.25-6.5-1.87-9.75-.21-1.05-.41-2.12-.73-3.15,1.94-.21,3.79-1.26,4.96-2.82l.71-.26c.14.39.29.78.45,1.17,1.26,3.11,3.31,6.21,6.49,7.28l.6.34c.28-.35.6-.66.94-.94l.89.17Z" style="fill: #209276; stroke-width: 0px;"/>
    <path d="M20.9652,155.08c1.22,2.52,1.74,5.38,1.48,8.18-.86.39-1.74.78-2.66.99-.93.2-1.94.19-2.81-.2-1.19-.54-1.96-1.73-2.52-2.91-.57-1.18-1.02-2.45-1.86-3.45l-.03-.28c-.33-1.02-.67-2.07-.72-3.15-.04-1.08.25-2.22,1.02-2.99.57-.57,1.38-.88,2.19-.88.81.01,1.61.34,2.2.88l.54-.54c1.05,1.01,1.97,2.18,2.7,3.46.16.29.32.59.47.89Z" style="fill: #235566; stroke-width: 0px;"/>
    <path d="M20.0252,142.66c1.11-.3,2.34,0,3.22.72.22.17.42.38.59.6l.06-.04c.14.21.27.43.39.65l-.77.47c-.37-.69-1.32-1-2.1-.78-.86.24-1.51.96-1.93,1.76-.66,1.24-.87,2.73-.56,4.11l.85.45c.6,1.4,1.22,2.78,1.88,4.15l-.69.33c-.15-.3-.31-.6-.47-.89-.73-1.28-1.65-2.45-2.7-3.46-1.21-1.17-2.6-2.14-4.11-2.85l1.12-.47c.18-1.41,3.84-4.38,5.22-4.75Z" style="fill: #209276; stroke-width: 0px;"/>
    <path d="M62.6252,148.78c.36,1.06.05,2.37-.88,3.01l.05.06c-2.72,1.62-5.24,3.56-7.49,5.77l-.42-.43c.86-1.31.93-3.01.56-4.53-.38-1.53-1.17-2.91-1.96-4.26l-.89-.17c1.48-1.22,3.43-1.86,5.36-2.04,1.12-.11,2.27-.07,3.32.33s1.98,1.2,2.35,2.26Z" style="fill: #235566; stroke-width: 0px;"/>
    <path d="M43.1152,140.38l-.71.26c-1.17,1.56-3.02,2.61-4.96,2.82-.16-.56-.36-1.11-.6-1.64-.25-.56-.55-1.09-.92-1.59-.81-1.1-1.93-1.94-3.19-2.46l.43-.17c-1.61-5.66-2.61-11.49-2.97-17.36l.09-.01c.15-1.14.53-2.29,1.28-3.15.76-.87,1.94-1.42,3.07-1.21.95.18,1.75.86,2.28,1.67.54.81.84,1.74,1.13,2.66,1.2,3.85,2.27,7.84,1.95,11.86l-.23.18c1.57,2.48,2.34,5.37,3.35,8.14Z" style="fill: #235566; stroke-width: 0px;"/>
    <path d="M29.9852,145.2c-.28-.92.01-2,.66-2.73.7-.8,1.78-1.21,2.84-1.25,1.07-.04,2.12.26,3.09.71l.27-.11c.24.53.44,1.08.6,1.64.32,1.03.52,2.1.73,3.15.62,3.25,1.25,6.5,1.87,9.75l-.58.24c.37.66-.05,1.56-.73,1.89s-1.5.2-2.19-.1c-1.17-.51-2.08-1.48-2.86-2.5-2.32-3.04-3.7-6.65-4.87-10.31l1.17-.38Z" style="fill: #235566; stroke-width: 0px;"/>
    <path d="M23.5152,145.06l.77-.47c2.71,4.39,4.81,9.15,6.23,14.11l-.09.01c-.13,1.03-1.13,1.77-2.15,1.99-1.28.28-2.68-.08-3.66-.94-.75-.67-1.24-1.58-1.7-2.47-.43-.84-.85-1.69-1.26-2.54-.66-1.37-1.28-2.75-1.88-4.15l-.85-.45c-.31-1.38-.1-2.87.56-4.11.42-.8,1.07-1.52,1.93-1.76.78-.22,1.73.09,2.1.78Z" style="fill: #235566; stroke-width: 0px;"/>
    <path d="M9.8252,163.84c.83,5.04,4.01,9.65,8.44,12.21" style="fill: none; stroke: #000; stroke-linecap: round; stroke-linejoin: round; stroke-width: 3px;"/>
    <path d="M18.2652,176.02c0,.01.01.01.01.02,1.18,1.73,2.25,3.55,3.17,5.44.08.15.15.3.23.45,0,.02.01.03.02.05" style="fill: none; stroke: #000; stroke-linecap: round; stroke-linejoin: round; stroke-width: 3px;"/>
    <path d="M21.6752,181.93c.53.23,1.07.43,1.62.6,3.46,1.11,7.26,1.18,10.76.19,4.06-1.15,7.7-3.72,10.14-7.16" style="fill: none; stroke: #000; stroke-linecap: round; stroke-linejoin: round; stroke-width: 3px;"/>
    <path d="M43.5452,175.39c.01-.03.03-.06.04-.09.92-2.03,1.69-4.13,2.29-6.28" style="fill: none; stroke: #000; stroke-linecap: round; stroke-linejoin: round; stroke-width: 3px;"/>
    <path d="M46.0852,169.11c2.03-4.28,4.83-8.18,8.22-11.49,2.25-2.21,4.77-4.15,7.49-5.77" style="fill: none; stroke: #000; stroke-linecap: round; stroke-linejoin: round; stroke-width: 3px;"/>
    <path d="M61.7452,151.79c.93-.64,1.24-1.95.88-3.01-.37-1.06-1.3-1.86-2.35-2.26s-2.2-.44-3.32-.33c-1.93.18-3.88.82-5.36,2.04-.34.28-.66.59-.94.94" style="fill: none; stroke: #000; stroke-linecap: round; stroke-linejoin: round; stroke-width: 3px;"/>
    <path d="M50.0552,148.83c-3.18-1.07-5.23-4.17-6.49-7.28-.16-.39-.31-.78-.45-1.17-1.01-2.77-1.78-5.66-3.35-8.14" style="fill: none; stroke: #000; stroke-linecap: round; stroke-linejoin: round; stroke-width: 3px;"/>
    <path d="M39.9952,132.06c.32-4.02-.75-8.01-1.95-11.86-.29-.92-.59-1.85-1.13-2.66-.53-.81-1.33-1.49-2.28-1.67-1.13-.21-2.31.34-3.07,1.21-.75.86-1.13,2.01-1.28,3.15" style="fill: none; stroke: #000; stroke-linecap: round; stroke-linejoin: round; stroke-width: 3px;"/>
    <path d="M30.1952,120.24c.36,5.87,1.36,11.7,2.97,17.36" style="fill: none; stroke: #000; stroke-linecap: round; stroke-linejoin: round; stroke-width: 3px;"/>
    <path d="M24.2652,143.37c.5-2.16,1.47-4.21,2.85-5.96.02-.03.04-.07.07-.1" style="fill: none; stroke: #000; stroke-linecap: round; stroke-linejoin: round; stroke-width: 3px;"/>
    <path d="M27.2752,137.53c1.77-.61,3.74-.48,5.46.24,1.26.52,2.38,1.36,3.19,2.46.37.5.67,1.03.92,1.59.24.53.44,1.08.6,1.64.32,1.03.52,2.1.73,3.15.62,3.25,1.25,6.5,1.87,9.75" style="fill: none; stroke: #000; stroke-linecap: round; stroke-linejoin: round; stroke-width: 3px;"/>
    <path d="M27.9952,142.96c.27.87.53,1.75.82,2.62,1.17,3.66,2.55,7.27,4.87,10.31.78,1.02,1.69,1.99,2.86,2.5.69.3,1.51.43,2.19.1s1.1-1.23.73-1.89" style="fill: none; stroke: #000; stroke-linecap: round; stroke-linejoin: round; stroke-width: 3px;"/>
    <path d="M14.8052,147.41c.18-1.41,3.84-4.38,5.22-4.75,1.11-.3,2.34,0,3.22.72.22.17.42.38.59.6" style="fill: none; stroke: #000; stroke-linecap: round; stroke-linejoin: round; stroke-width: 3px;"/>
    <path d="M23.8952,143.94c.14.21.27.43.39.65,2.71,4.39,4.81,9.15,6.23,14.11" style="fill: none; stroke: #000; stroke-linecap: round; stroke-linejoin: round; stroke-width: 3px;"/>
    <path d="M30.4252,158.71c-.13,1.03-1.13,1.77-2.15,1.99-1.28.28-2.68-.08-3.66-.94-.75-.67-1.24-1.58-1.7-2.47-.43-.84-.85-1.69-1.26-2.54-.66-1.37-1.28-2.75-1.88-4.15" style="fill: none; stroke: #000; stroke-linecap: round; stroke-linejoin: round; stroke-width: 3px;"/>
    <path d="M10.4952,153.99c.02-.07.04-.14.07-.21.63-2.09,1.65-4.07,2.99-5.79" style="fill: none; stroke: #000; stroke-linecap: round; stroke-linejoin: round; stroke-width: 3px;"/>
    <path d="M13.6852,147.88c1.51.71,2.9,1.68,4.11,2.85,1.05,1.01,1.97,2.18,2.7,3.46.16.29.32.59.47.89,1.22,2.52,1.74,5.38,1.48,8.18" style="fill: none; stroke: #000; stroke-linecap: round; stroke-linejoin: round; stroke-width: 3px;"/>
    <path d="M22.4652,163.25c-.01,0-.01.01-.02.01-.86.39-1.74.78-2.66.99-.93.2-1.94.19-2.81-.2-1.19-.54-1.96-1.73-2.52-2.91-.57-1.18-1.02-2.45-1.86-3.45" style="fill: none; stroke: #000; stroke-linecap: round; stroke-linejoin: round; stroke-width: 3px;"/>
    <path d="M9.0852,163.08c-.67-3.14-.14-6.53,1.48-9.3.02-.04.04-.09.07-.13" style="fill: none; stroke: #000; stroke-linecap: round; stroke-linejoin: round; stroke-width: 3px;"/>
    <path d="M37.0852,143.49c.12-.01.24-.01.36-.03,1.94-.21,3.79-1.26,4.96-2.82" style="fill: none; stroke: #000; stroke-linecap: round; stroke-linejoin: round; stroke-width: 3px;"/>
    <path d="M52.4852,148.4c.79,1.35,1.58,2.73,1.96,4.26.37,1.52.3,3.22-.56,4.53" style="fill: none; stroke: #000; stroke-linecap: round; stroke-linejoin: round; stroke-width: 3px;"/>
    <path d="M30.0752,145.44l-.09-.24c-.28-.92.01-2,.66-2.73.7-.8,1.78-1.21,2.84-1.25,1.07-.04,2.12.26,3.09.71" style="fill: none; stroke: #000; stroke-linecap: round; stroke-linejoin: round; stroke-width: 3px;"/>
    <path d="M12.5652,157.41c-.33-1.02-.67-2.07-.72-3.15-.04-1.08.25-2.22,1.02-2.99.57-.57,1.38-.88,2.19-.88.81.01,1.61.34,2.2.88" style="fill: none; stroke: #000; stroke-linecap: round; stroke-linejoin: round; stroke-width: 3px;"/>
    <path d="M18.9252,150.15c-.31-1.38-.1-2.87.56-4.11.42-.8,1.07-1.52,1.93-1.76.78-.22,1.73.09,2.1.78.04.08.07.16.1.25" style="fill: none; stroke: #000; stroke-linecap: round; stroke-linejoin: round; stroke-width: 3px;"/>
    <path d="M51.0152,149.71c-2.06.91-4.33,1.35-6.58,1.28" style="fill: none; stroke: #000; stroke-linecap: round; stroke-linejoin: round; stroke-width: 3px;"/>
    <path d="M18.4552,175.24c3.99,2.04,8.73,2.58,13.08,1.48" style="fill: none; stroke: #000; stroke-linecap: round; stroke-linejoin: round; stroke-width: 3px;"/>
  </g>
  <g id="Frame2">
    <path d="M55.1108,150.3508c.6538,1.421,1.3047,2.8718,1.5329,4.4317.2192,1.549-.0172,3.2339-1.0015,4.4533l.3758.4691c-3.6982,2.9617-6.8671,6.5683-9.307,10.6287l-.2002-.1102c-.8079,2.0808-1.7801,4.0952-2.8947,6.0252l.5816.3186c-2.7655,3.1842-6.64,5.3849-10.7932,6.1313-3.5802.6421-7.355.1998-10.6895-1.2441-.5709-.5285-1.1875-1.0013-1.7381-1.2263-.7303-1.9711-1.6166-3.8872-2.6213-5.7246l-.0109.009c-4.1576-2.982-6.8703-7.8816-7.2021-12.9787l-.6619-.8289c-.3589-3.1906.5009-6.5123,2.3847-9.1101.8319-2.0182,2.0411-3.8886,3.5433-5.4689l.1402-.0967c1.4331.8546,2.7213,1.9563,3.8108,3.2393l-.5903.4845c-.5342-.5952-1.298-1.0021-2.1031-1.0915-.8061-.0794-1.6426.1497-2.2657.661-.8418.6908-1.2422,1.7969-1.3083,2.8756-.0561,1.0797.1793,2.158.4077,3.2054l.0024.2816c.7379,1.0775,1.0612,2.3855,1.5128,3.6158.4416,1.2292,1.0912,2.489,2.2225,3.1431.8276.4734,1.8317.5824,2.7768.4746.9362-.1188,1.8502-.4206,2.7443-.7244.5333-2.761.2962-5.6582-.6708-8.2857l.719-.2608c.3247.8861.6593,1.7732,1.0049,2.6513.3705.9308.7689,1.8845,1.4496,2.6248.891.9519,2.2489,1.4475,3.5502,1.2943,1.0367-.1189,2.1044-.7573,2.3348-1.7696l.0905-.0011c-.9268-5.0753-2.55-10.0183-4.8165-14.6529-.0979-.2307-.2057-.4624-.3244-.6851l-.0636.0339c-.1476-.2356-.3261-.4642-.5283-.655l1.0161.0901c.7094-2.1006,1.8757-4.0456,3.4206-5.6518l.1475.1351c1.8213-.4335,3.769-.111,5.4102.7742,1.2029.641,2.2352,1.5868,2.9334,2.7609.3192.5339.5658,1.0907.7597,1.6725l-.2795.083c-.9212-.5429-1.9367-.9444-3.0055-1.0096-1.0588-.0641-2.1738.238-2.9489.9655-.7184.6627-1.1129,1.7091-.9245,2.6521l-1.2016.2634c.8055,3.7571,1.8249,7.485,3.8356,10.7378.6762,1.0916,1.4867,2.1461,2.6011,2.7684.6573.3662,1.4606.576,2.1696.3142s1.2153-1.1162.9118-1.8093l.6007-.182c-.2983-3.2951-.6066-6.5912-.905-9.8864-.106-1.0655-.2002-2.15-.4176-3.2064,1.9512-.0188,3.8953-.8823,5.2126-2.3201l.7321-.1891c.1011.4018.2121.8047.3331,1.2085.949,3.2186,2.6852,6.5046,5.7449,7.8813l.5638.3972c.313-.3209.6618-.598,1.0276-.8433l.869.2564Z" style="fill: #209276; stroke-width: 0px;"/>
    <path d="M23.0877,153.908c.967,2.6275,1.2041,5.5247.6708,8.2857-.8941.3038-1.8081.6056-2.7443.7244-.9451.1078-1.9493-.0011-2.7768-.4746-1.1313-.6541-1.7809-1.9138-2.2225-3.1431-.4516-1.2302-.7749-2.5382-1.5128-3.6158l-.0024-.2816c-.2284-1.0474-.4638-2.1257-.4077-3.2054.0661-1.0787.4665-2.1848,1.3083-2.8756.6231-.5114,1.4596-.7404,2.2657-.661.8051.0894,1.5689.4962,2.1031,1.0915l.5903-.4845c.9459,1.1081,1.7468,2.3627,2.3477,3.7081.1308.3043.2606.6185.3805.9318Z" style="fill: #235566; stroke-width: 0px;"/>
    <path d="M23.37,141.4557c1.1341-.1897,2.3287.2294,3.1339,1.0323.2023.1908.3807.4194.5283.655l.0636-.0339c.1187.2227.2265.4544.3244.6851l-.8124.3922c-.3006-.723-1.2156-1.1246-2.0134-.9821-.8794.1545-1.5969.8073-2.0933,1.5623-.7784,1.1693-1.1335,2.6315-.9603,4.0353l.8018.5312c.4598,1.4521.9415,2.8862,1.464,4.3143l-.719.2608c-.1199-.3133-.2497-.6275-.3805-.9318-.601-1.3454-1.4018-2.6-2.3477-3.7081-1.0895-1.283-2.3776-2.3846-3.8108-3.2393l1.1607-.3579c.3174-1.3856,4.251-3.9824,5.6606-4.2153Z" style="fill: #209276; stroke-width: 0px;"/>
    <path d="M65.1646,151.7232c.2543,1.0902-.1826,2.3635-1.1709,2.9092l.0439.0646c-2.8657,1.3455-5.5638,3.0291-8.0197,5.0078l-.3758-.4691c.9843-1.2194,1.2207-2.9043,1.0015-4.4533-.2282-1.5599-.879-3.0107-1.5329-4.4317l-.869-.2564c1.5925-1.069,3.5958-1.5147,5.5342-1.5046,1.1254.0003,2.2659.1529,3.2716.6539s1.8528,1.3884,2.1171,2.4795Z" style="fill: #235566; stroke-width: 0px;"/>
    <path d="M46.5723,141.4507l-.7321.1891c-1.3173,1.4378-3.2614,2.3013-5.2126,2.3201-.1043-.573-.2494-1.1399-.4363-1.6909-.1939-.5818-.4405-1.1387-.7597-1.6725-.6982-1.1741-1.7305-2.1199-2.9334-2.7609l.4446-.127c-1.0473-5.7906-1.4708-11.6905-1.2535-17.5676l.0905-.0011c.2611-1.1198.752-2.227,1.5827-3.0093.8416-.7913,2.0699-1.2229,3.1738-.9032.9278.2723,1.6572,1.0274,2.1053,1.8855.458.859.6653,1.814.8637,2.758.8167,3.9491,1.4903,8.0248.7777,11.9941l-.2465.1566c1.3193,2.622,1.8022,5.5736,2.5357,8.4292Z" style="fill: #235566; stroke-width: 0px;"/>
    <path d="M33.0329,144.96c-.1884-.943.2061-1.9894.9245-2.6521.7751-.7275,1.8901-1.0296,2.9489-.9655,1.0688.0651,2.0843.4666,3.0055,1.0096l.2795-.083c.1869.551.332,1.1179.4363,1.6909.2175,1.0564.3116,2.1409.4176,3.2064.2983,3.2951.6066,6.5912.905,9.8864l-.6007.182c.3035.6931-.2027,1.5476-.9118,1.8093s-1.5124.052-2.1696-.3142c-1.1144-.6223-1.9249-1.6768-2.6011-2.7684-2.0107-3.2528-3.0301-6.9807-3.8356-10.7378l1.2016-.2634Z" style="fill: #235566; stroke-width: 0px;"/>
    <path d="M26.6078,144.1863l.8124-.3922c2.2665,4.6346,3.8897,9.5775,4.8165,14.6529l-.0905.0011c-.2304,1.0123-1.2981,1.6507-2.3348,1.7696-1.3013.1531-2.6592-.3424-3.5502-1.2943-.6807-.7403-1.0791-1.694-1.4496-2.6248-.3456-.8781-.6802-1.7652-1.0049-2.6513-.5225-1.4281-1.0042-2.8623-1.464-4.3143l-.8018-.5312c-.1732-1.4037.1819-2.866.9603-4.0353.4964-.755,1.2139-1.4078,2.0933-1.5623.7978-.1425,1.7128.2592,2.0134.9821Z" style="fill: #235566; stroke-width: 0px;"/>
    <path d="M11.1424,161.5335c.3318,5.0971,3.0445,9.9967,7.2021,12.9787" style="fill: none; stroke: #000; stroke-linecap: round; stroke-linejoin: round; stroke-width: 3px;"/>
    <path d="M18.3475,174.4824c-.001.01.009.0109.008.0209,1.0047,1.8374,1.8911,3.7535,2.6213,5.7246.0649.1571.1199.3133.1848.4704-.002.0199.007.0308.015.0517" style="fill: none; stroke: #000; stroke-linecap: round; stroke-linejoin: round; stroke-width: 3px;"/>
    <path d="M21.1616,180.6983c.5049.2809,1.0227.5328,1.5534.756,3.3345,1.4439,7.1093,1.8862,10.6895,1.2441,4.1532-.7464,8.0276-2.9471,10.7932-6.1313" style="fill: none; stroke: #000; stroke-linecap: round; stroke-linejoin: round; stroke-width: 3px;"/>
    <path d="M43.5674,176.3341c.0129-.0289.0357-.0568.0486-.0856,1.1146-1.93,2.0868-3.9444,2.8947-6.0252" style="fill: none; stroke: #000; stroke-linecap: round; stroke-linejoin: round; stroke-width: 3px;"/>
    <path d="M46.711,170.3334c2.4399-4.0603,5.6088-7.667,9.307-10.6287,2.4559-1.9787,5.1539-3.6623,8.0197-5.0078" style="fill: none; stroke: #000; stroke-linecap: round; stroke-linejoin: round; stroke-width: 3px;"/>
    <path d="M63.9937,154.6324c.9883-.5457,1.4252-1.819,1.1709-2.9092-.2643-1.0912-1.1114-1.9785-2.1171-2.4795s-2.1463-.6536-3.2716-.6539c-1.9383-.0101-3.9417.4356-5.5342,1.5046-.3658.2453-.7147.5224-1.0276.8433" style="fill: none; stroke: #000; stroke-linecap: round; stroke-linejoin: round; stroke-width: 3px;"/>
    <path d="M52.6503,150.5404c-3.0598-1.3766-4.7959-4.6627-5.7449-7.8813-.121-.4038-.232-.8066-.3331-1.2085-.7335-2.8557-1.2165-5.8073-2.5357-8.4292" style="fill: none; stroke: #000; stroke-linecap: round; stroke-linejoin: round; stroke-width: 3px;"/>
    <path d="M44.2831,132.8648c.7126-3.9693.039-8.0449-.7777-11.9941-.1984-.944-.4058-1.8989-.8637-2.758-.448-.8581-1.1775-1.6132-2.1053-1.8855-1.104-.3198-2.3322.1119-3.1738.9032-.8307.7823-1.3216,1.8895-1.5827,3.0093" style="fill: none; stroke: #000; stroke-linecap: round; stroke-linejoin: round; stroke-width: 3px;"/>
    <path d="M35.6893,120.1409c-.2173,5.877.2063,11.777,1.2535,17.5676" style="fill: none; stroke: #000; stroke-linecap: round; stroke-linejoin: round; stroke-width: 3px;"/>
    <path d="M27.5199,142.578c.7094-2.1006,1.8757-4.0456,3.4206-5.6518.0228-.0279.0467-.0657.0795-.0927" style="fill: none; stroke: #000; stroke-linecap: round; stroke-linejoin: round; stroke-width: 3px;"/>
    <path d="M31.088,137.0613c1.8213-.4335,3.769-.111,5.4102.7742,1.2029.641,2.2352,1.5868,2.9334,2.7609.3192.5339.5658,1.0907.7597,1.6725.1869.551.332,1.1179.4363,1.6909.2175,1.0564.3116,2.1409.4176,3.2064.2983,3.2951.6066,6.5912.905,9.8864" style="fill: none; stroke: #000; stroke-linecap: round; stroke-linejoin: round; stroke-width: 3px;"/>
    <path d="M31.2722,142.5357c.1834.8923.3559,1.7935.5592,2.6878.8055,3.7571,1.8249,7.485,3.8356,10.7378.6762,1.0916,1.4867,2.1461,2.6011,2.7684.6573.3662,1.4606.576,2.1696.3142s1.2153-1.1162.9118-1.8093" style="fill: none; stroke: #000; stroke-linecap: round; stroke-linejoin: round; stroke-width: 3px;"/>
    <path d="M17.7094,145.671c.3174-1.3856,4.251-3.9824,5.6606-4.2153,1.1341-.1897,2.3287.2294,3.1339,1.0323.2023.1908.3807.4194.5283.655" style="fill: none; stroke: #000; stroke-linecap: round; stroke-linejoin: round; stroke-width: 3px;"/>
    <path d="M27.0958,143.109c.1187.2227.2265.4544.3244.6851,2.2665,4.6346,3.8897,9.5775,4.8165,14.6529" style="fill: none; stroke: #000; stroke-linecap: round; stroke-linejoin: round; stroke-width: 3px;"/>
    <path d="M32.1461,158.4481c-.2304,1.0123-1.2981,1.6507-2.3348,1.7696-1.3013.1531-2.6592-.3424-3.5502-1.2943-.6807-.7403-1.0791-1.694-1.4496-2.6248-.3456-.8781-.6802-1.7652-1.0049-2.6513-.5225-1.4281-1.0042-2.8623-1.464-4.3143" style="fill: none; stroke: #000; stroke-linecap: round; stroke-linejoin: round; stroke-width: 3px;"/>
    <path d="M12.775,151.7967c.0268-.0677.0535-.1354.0903-.2021.8319-2.0182,2.0411-3.8886,3.5433-5.4689" style="fill: none; stroke: #000; stroke-linecap: round; stroke-linejoin: round; stroke-width: 3px;"/>
    <path d="M16.5487,146.0289c1.4331.8546,2.7213,1.9563,3.8108,3.2393.9459,1.1081,1.7468,2.3627,2.3477,3.7081.1308.3043.2606.6185.3805.9318.967,2.6275,1.2041,5.5247.6708,8.2857" style="fill: none; stroke: #000; stroke-linecap: round; stroke-linejoin: round; stroke-width: 3px;"/>
    <path d="M23.7794,162.1857c-.01-.001-.0109.009-.0209.008-.8941.3038-1.8081.6056-2.7443.7244-.9451.1078-1.9493-.0011-2.7768-.4746-1.1313-.6541-1.7809-1.9138-2.2225-3.1431-.4516-1.2302-.7749-2.5382-1.5128-3.6158" style="fill: none; stroke: #000; stroke-linecap: round; stroke-linejoin: round; stroke-width: 3px;"/>
    <path d="M10.4805,160.7046c-.3589-3.1906.5009-6.5123,2.3847-9.1101.0238-.0378.0486-.0856.0824-.1225" style="fill: none; stroke: #000; stroke-linecap: round; stroke-linejoin: round; stroke-width: 3px;"/>
    <path d="M40.2664,143.9544c.1204.0018.2398.0136.3612.0054,1.9512-.0188,3.8953-.8823,5.2126-2.3201" style="fill: none; stroke: #000; stroke-linecap: round; stroke-linejoin: round; stroke-width: 3px;"/>
    <path d="M55.1108,150.3508c.6538,1.421,1.3047,2.8718,1.5329,4.4317.2192,1.549-.0172,3.2339-1.0015,4.4533" style="fill: none; stroke: #000; stroke-linecap: round; stroke-linejoin: round; stroke-width: 3px;"/>
    <path d="M33.099,145.2077l-.066-.2477c-.1884-.943.2061-1.9894.9245-2.6521.7751-.7275,1.8901-1.0296,2.9489-.9655,1.0688.0651,2.0843.4666,3.0055,1.0096" style="fill: none; stroke: #000; stroke-linecap: round; stroke-linejoin: round; stroke-width: 3px;"/>
    <path d="M14.4997,155.4032c-.2284-1.0474-.4638-2.1257-.4077-3.2054.0661-1.0787.4665-2.1848,1.3083-2.8756.6231-.5114,1.4596-.7404,2.2657-.661.8051.0894,1.5689.4962,2.1031,1.0915" style="fill: none; stroke: #000; stroke-linecap: round; stroke-linejoin: round; stroke-width: 3px;"/>
    <path d="M21.5409,148.8017c-.1732-1.4037.1819-2.866.9603-4.0353.4964-.755,1.2139-1.4078,2.0933-1.5623.7978-.1425,1.7128.2592,2.0134.9821.032.0835.054.1661.075.2586" style="fill: none; stroke: #000; stroke-linecap: round; stroke-linejoin: round; stroke-width: 3px;"/>
    <path d="M53.5194,151.5103c-2.1393.7036-4.4415.9189-6.6738.6287" style="fill: none; stroke: #000; stroke-linecap: round; stroke-linejoin: round; stroke-width: 3px;"/>
    <path d="M18.613,173.7248c3.7708,2.4214,8.435,3.4235,12.8719,2.7554" style="fill: none; stroke: #000; stroke-linecap: round; stroke-linejoin: round; stroke-width: 3px;"/>
  </g>
  <g id="Frame3">
    <path d="M49.0318,146.5681c.9265,1.2602,1.8562,2.5503,2.3937,4.0323.5265,1.4731.6342,3.1711-.0844,4.5637l.4626.3838c-3.0262,3.6456-5.4041,7.8164-6.9766,12.2848l-.2182-.0676c-.3725,2.2009-.9192,4.3697-1.6224,6.4846l.6338.195c-2.0679,3.6758-5.4199,6.6114-9.3378,8.1787-3.3776,1.3497-7.1642,1.6765-10.7211.9334-.6656-.4028-1.3648-.7417-1.9494-.8513-1.1121-1.7837-2.3661-3.4822-3.7202-5.0797l-.0089.011c-4.6729-2.0839-8.3164-6.3371-9.6676-11.263l-.8152-.6787c-.9939-3.053-.8204-6.4798.5018-9.4036.4086-2.1443,1.2164-4.2199,2.3697-6.0703l.1178-.123c1.5758.5486,3.0594,1.3683,4.3849,2.4057l-.4807.5934c-.6431-.4755-1.4732-.7203-2.2798-.6457-.8056.0845-1.5788.4773-2.0863,1.1036-.6855.8461-.855,2.0102-.7025,3.0801.1624,1.0689.6101,2.0777,1.0447,3.0577l.059.2753c.9397.9069,1.5198,2.1231,2.2097,3.2372.68,1.1151,1.57,2.2183,2.8098,2.6313.9059.2971,1.9115.2017,2.8155-.0942.8931-.3048,1.7276-.7845,2.5422-1.2621-.0335-2.8118-.849-5.602-2.3252-7.981l.6518-.4002c.4964.8026,1.0028,1.6041,1.5181,2.3947.5503.8372,1.1326,1.6911,1.9484,2.2792,1.0644.7531,2.4943.9651,3.7381.5531.9915-.3252,1.9088-1.1655,1.9307-2.2034l.0885-.0193c-1.9296-4.7848-4.5147-9.2998-7.6679-13.3832-.1423-.2063-.2945-.4115-.4557-.6058l-.0555.046c-.192-.2011-.4128-.3891-.6494-.5352l1.0134-.1163c.272-2.2004,1.0228-4.3404,2.2128-6.2248l.1716.1027c1.6967-.7913,3.6695-.8675,5.4552-.3309,1.3074.3857,2.5089,1.1043,3.4292,2.1138.4201.4587.7738.9545,1.0808,1.4854l-.2571.1376c-1.0116-.3464-2.0872-.5352-3.1472-.3838-1.05.1504-2.0814.6708-2.6941,1.5394-.5703.7938-.7461,1.8982-.3716,2.784l-1.124.5c1.5454,3.518,3.2944,6.9643,5.9189,9.7458.8821.9331,1.8884,1.8029,3.1052,2.188.7175.2264,1.5466.2701,2.1885-.129s.9657-1.338.5289-1.9558l.5518-.2992c-.9556-3.1676-1.9212-6.3342-2.8768-9.5017-.3184-1.0224-.6289-2.0657-1.0546-3.0567,1.9075-.4112,3.6379-1.6485,4.6388-3.322l.679-.3326c.1799.3733.3698.7455.5696,1.1167,1.5775,2.9616,3.9397,5.8308,7.214,6.5633l.6322.2756c.242-.3773.5279-.719.8368-1.0329l.9029.0762Z" style="fill: #209276; stroke-width: 0px;"/>
    <path d="M18.3806,156.4996c1.4762,2.379,2.2917,5.1691,2.3252,7.981-.8146.4776-1.6491.9572-2.5422,1.2621-.9041.2959-1.9096.3913-2.8155.0942-1.2398-.4129-2.1298-1.5161-2.8098-2.6313-.69-1.1141-1.27-2.3302-2.2097-3.2372l-.059-.2753c-.4346-.98-.8823-1.9888-1.0447-3.0577-.1524-1.0699.0171-2.234.7025-3.0801.5074-.6263,1.2807-1.0191,2.0863-1.1036.8066-.0745,1.6367.1702,2.2798.6457l.4807-.5934c1.1496.895,2.1867,1.9626,3.0462,3.1595.1894.2717.3798.5534.5603.8361Z" style="fill: #235566; stroke-width: 0px;"/>
    <path d="M16.1502,144.2454c1.0727-.4141,2.3272-.2441,3.2775.3802.2365.1461.4573.3341.6494.5352l.0555-.046c.1611.1943.3134.3995.4557.6058l-.7168.5478c-.44-.6476-1.4171-.8569-2.1699-.5567-.8303.3284-1.4016,1.1123-1.7359,1.9517-.5271,1.3021-.5805,2.8059-.1282,4.146l.8923.3589c.7428,1.3298,1.5033,2.6376,2.3026,3.9313l-.6518.4002c-.1805-.2827-.3709-.5644-.5603-.8361-.8595-1.1969-1.8966-2.2645-3.0462-3.1595-1.3254-1.0374-2.809-1.8571-4.3849-2.4057l1.0649-.5843c.0319-1.4211,3.3622-4.7567,4.696-5.2686Z" style="fill: #209276; stroke-width: 0px;"/>
    <path d="M59.1562,145.8883c.4686,1.0167.2969,2.3519-.5612,3.0854l.056.0545c-2.5362,1.8949-4.8401,4.0872-6.8473,6.5198l-.4626-.3838c.7187-1.3926.6109-3.0906.0844-4.5637-.5375-1.482-1.4672-2.7721-2.3937-4.0323l-.9029-.0762c1.3447-1.3677,3.2173-2.2076,5.118-2.588,1.1024-.2262,2.2503-.3064,3.3363-.0181s2.0944.9869,2.5729,2.0025Z" style="fill: #235566; stroke-width: 0px;"/>
    <path d="M38.8764,139.5692l-.679.3326c-1.0009,1.6735-2.7313,2.9108-4.6388,3.322-.2175-.5403-.4738-1.0664-.7678-1.5685-.3071-.5309-.6607-1.0267-1.0808-1.4854-.9203-1.0095-2.1218-1.7281-3.4292-2.1138l.4099-.2139c-2.1916-5.4612-3.7943-11.1551-4.7647-16.9555l.0885-.0193c.0303-1.1494.2882-2.3328.9444-3.2663.6651-.9445,1.7813-1.6146,2.927-1.5236.9636.0799,1.8302.6728,2.4418,1.4231.6215.7493,1.0169,1.6429,1.4013,2.5276,1.5951,3.7038,3.0754,7.5604,3.1765,11.5919l-.21.203c1.8201,2.3027,2.8874,5.0966,4.1808,7.7461Z" style="fill: #235566; stroke-width: 0px;"/>
    <path d="M26.3208,145.7326c-.3744-.8858-.1987-1.9901.3716-2.784.6127-.8687,1.6441-1.3891,2.6941-1.5394,1.06-.1514,2.1356.0374,3.1472.3838l.2571-.1376c.294.5021.5503,1.0282.7678,1.5685.4257.991.7362,2.0343,1.0546,3.0567.9556,3.1676,1.9212,6.3342,2.8768,9.5017l-.5518.2992c.4368.6178.113,1.5567-.5289,1.9558s-1.471.3554-2.1885.129c-1.2168-.3852-2.223-1.255-3.1052-2.188-2.6245-2.7814-4.3735-6.2278-5.9189-9.7458l1.124-.5Z" style="fill: #235566; stroke-width: 0px;"/>
    <path d="M19.8715,146.2682l.7168-.5478c3.1531,4.0834,5.7382,8.5983,7.6679,13.3832l-.0885.0193c-.0218,1.0379-.9392,1.8782-1.9307,2.2034-1.2438.412-2.6737.2-3.7381-.5531-.8158-.5881-1.398-1.442-1.9484-2.2792-.5153-.7906-1.0216-1.5921-1.5181-2.3947-.7993-1.2937-1.5599-2.6015-2.3026-3.9313l-.8923-.3589c-.4523-1.3401-.3988-2.8439.1282-4.146.3343-.8394.9056-1.6233,1.7359-1.9517.7528-.3002,1.73-.091,2.1699.5567Z" style="fill: #235566; stroke-width: 0px;"/>
    <path d="M8.2151,166.3738c1.3512,4.9259,4.9947,9.1791,9.6676,11.263" style="fill: none; stroke: #000; stroke-linecap: round; stroke-linejoin: round; stroke-width: 3px;"/>
    <path d="M17.8796,177.607c.001.0099.011.0089.012.0188,1.354,1.5975,2.608,3.2959,3.7202,5.0797.0952.1408.1805.2827.2757.4236.0021.0199.0131.0288.0251.0476" style="fill: none; stroke: #000; stroke-linecap: round; stroke-linejoin: round; stroke-width: 3px;"/>
    <path d="M21.8875,183.129c.5511.1735,1.109.316,1.6737.4277,3.5569.743,7.3435.4163,10.7211-.9334,3.9179-1.5672,7.27-4.5029,9.3378-8.1787" style="fill: none; stroke: #000; stroke-linecap: round; stroke-linejoin: round; stroke-width: 3px;"/>
    <path d="M42.956,174.3434c.0068-.0309.0236-.0628.0304-.0937.7032-2.1149,1.25-4.2838,1.6224-6.4846" style="fill: none; stroke: #000; stroke-linecap: round; stroke-linejoin: round; stroke-width: 3px;"/>
    <path d="M44.8271,167.8327c1.5725-4.4684,3.9504-8.6392,6.9766-12.2848,2.0072-2.4326,4.3111-4.6249,6.8473-6.5198" style="fill: none; stroke: #000; stroke-linecap: round; stroke-linejoin: round; stroke-width: 3px;"/>
    <path d="M58.5949,148.9737c.8582-.7335,1.0298-2.0687.5612-3.0854-.4786-1.0156-1.4869-1.7142-2.5729-2.0025s-2.2339-.2081-3.3363.0181c-1.9007.3803-3.7733,1.2203-5.118,2.588-.3089.3139-.5949.6556-.8368,1.0329" style="fill: none; stroke: #000; stroke-linecap: round; stroke-linejoin: round; stroke-width: 3px;"/>
    <path d="M46.66,147.2492c-3.2743-.7325-5.6364-3.6017-7.214-6.5633-.1998-.3712-.3897-.7434-.5696-1.1167-1.2934-2.6495-2.3607-5.4434-4.1808-7.7461" style="fill: none; stroke: #000; stroke-linecap: round; stroke-linejoin: round; stroke-width: 3px;"/>
    <path d="M34.9055,131.6201c-.1011-4.0314-1.5814-7.8881-3.1765-11.5919-.3844-.8847-.7798-1.7784-1.4013-2.5276-.6116-.7503-1.4782-1.3431-2.4418-1.4231-1.1457-.091-2.2619.5791-2.927,1.5236-.6562.9335-.9142,2.1169-.9444,3.2663" style="fill: none; stroke: #000; stroke-linecap: round; stroke-linejoin: round; stroke-width: 3px;"/>
    <path d="M23.926,120.8868c.9703,5.8004,2.573,11.4943,4.7647,16.9555" style="fill: none; stroke: #000; stroke-linecap: round; stroke-linejoin: round; stroke-width: 3px;"/>
    <path d="M20.4411,144.5092c.272-2.2004,1.0228-4.3404,2.2128-6.2248.0168-.0319.0325-.0738.0592-.1068" style="fill: none; stroke: #000; stroke-linecap: round; stroke-linejoin: round; stroke-width: 3px;"/>
    <path d="M22.8255,138.3871c1.6967-.7913,3.6695-.8675,5.4552-.3309,1.3074.3857,2.5089,1.1043,3.4292,2.1138.4201.4587.7738.9545,1.0808,1.4854.294.5021.5503,1.0282.7678,1.5685.4257.991.7362,2.0343,1.0546,3.0567.9556,3.1676,1.9212,6.3342,2.8768,9.5017" style="fill: none; stroke: #000; stroke-linecap: round; stroke-linejoin: round; stroke-width: 3px;"/>
    <path d="M24.108,143.7124c.3593.8371.7097,1.6852,1.0888,2.5202,1.5454,3.518,3.2944,6.9643,5.9189,9.7458.8821.9331,1.8884,1.8029,3.1052,2.188.7175.2264,1.5466.2701,2.1885-.129s.9657-1.338.5289-1.9558" style="fill: none; stroke: #000; stroke-linecap: round; stroke-linejoin: round; stroke-width: 3px;"/>
    <path d="M11.4541,149.514c.0319-1.4211,3.3622-4.7567,4.696-5.2686,1.0727-.4141,2.3272-.2441,3.2775.3802.2365.1461.4573.3341.6494.5352" style="fill: none; stroke: #000; stroke-linecap: round; stroke-linejoin: round; stroke-width: 3px;"/>
    <path d="M20.1326,145.1147c.1611.1943.3134.3995.4557.6058,3.1531,4.0834,5.7382,8.5983,7.6679,13.3832" style="fill: none; stroke: #000; stroke-linecap: round; stroke-linejoin: round; stroke-width: 3px;"/>
    <path d="M28.1676,159.123c-.0218,1.0379-.9392,1.8782-1.9307,2.2034-1.2438.412-2.6737.2-3.7381-.5531-.8158-.5881-1.398-1.442-1.9484-2.2792-.5153-.7906-1.0216-1.5921-1.5181-2.3947-.7993-1.2937-1.5599-2.6015-2.3026-3.9313" style="fill: none; stroke: #000; stroke-linecap: round; stroke-linejoin: round; stroke-width: 3px;"/>
    <path d="M7.854,156.5077c.0126-.0717.0252-.1434.0477-.2162.4086-2.1443,1.2164-4.2199,2.3697-6.0703" style="fill: none; stroke: #000; stroke-linecap: round; stroke-linejoin: round; stroke-width: 3px;"/>
    <path d="M10.3893,150.0982c1.5758.5486,3.0594,1.3683,4.3849,2.4057,1.1496.895,2.1867,1.9626,3.0462,3.1595.1894.2717.3798.5534.5603.8361,1.4762,2.379,2.2917,5.1691,2.3252,7.981" style="fill: none; stroke: #000; stroke-linecap: round; stroke-linejoin: round; stroke-width: 3px;"/>
    <path d="M20.7246,164.4685c-.0099.001-.0089.011-.0188.012-.8146.4776-1.6491.9572-2.5422,1.2621-.9041.2959-1.9096.3913-2.8155.0942-1.2398-.4129-2.1298-1.5161-2.8098-2.6313-.69-1.1141-1.27-2.3302-2.2097-3.2372" style="fill: none; stroke: #000; stroke-linecap: round; stroke-linejoin: round; stroke-width: 3px;"/>
    <path d="M7.3999,165.6951c-.9939-3.053-.8204-6.4798.5018-9.4036.0157-.0419.0304-.0937.0561-.1366" style="fill: none; stroke: #000; stroke-linecap: round; stroke-linejoin: round; stroke-width: 3px;"/>
    <path d="M33.2037,143.2913c.1183-.0225.2376-.035.3549-.0674,1.9075-.4112,3.6379-1.6485,4.6388-3.322" style="fill: none; stroke: #000; stroke-linecap: round; stroke-linejoin: round; stroke-width: 3px;"/>
    <path d="M49.0318,146.5681c.9265,1.2602,1.8562,2.5503,2.3937,4.0323.5265,1.4731.6342,3.1711-.0844,4.5637" style="fill: none; stroke: #000; stroke-linecap: round; stroke-linejoin: round; stroke-width: 3px;"/>
    <path d="M26.4353,145.9619l-.1145-.2293c-.3744-.8858-.1987-1.9901.3716-2.784.6127-.8687,1.6441-1.3891,2.6941-1.5394,1.06-.1514,2.1356.0374,3.1472.3838" style="fill: none; stroke: #000; stroke-linecap: round; stroke-linejoin: round; stroke-width: 3px;"/>
    <path d="M10.2695,159.6931c-.4346-.98-.8823-1.9888-1.0447-3.0577-.1524-1.0699.0171-2.234.7025-3.0801.5074-.6263,1.2807-1.0191,2.0863-1.1036.8066-.0745,1.6367.1702,2.2798.6457" style="fill: none; stroke: #000; stroke-linecap: round; stroke-linejoin: round; stroke-width: 3px;"/>
    <path d="M15.8375,151.8093c-.4523-1.3401-.3988-2.8439.1282-4.146.3343-.8394.9056-1.6233,1.7359-1.9517.7528-.3002,1.73-.091,2.1699.5567.0481.0754.0863.1518.1255.2382" style="fill: none; stroke: #000; stroke-linecap: round; stroke-linejoin: round; stroke-width: 3px;"/>
    <path d="M47.7065,148.0243c-1.9538,1.1199-4.1656,1.7943-6.4106,1.9594" style="fill: none; stroke: #000; stroke-linecap: round; stroke-linejoin: round; stroke-width: 3px;"/>
    <path d="M17.9872,176.8114c4.181,1.6127,8.9515,1.6553,13.163.1075" style="fill: none; stroke: #000; stroke-linecap: round; stroke-linejoin: round; stroke-width: 3px;"/>
  </g>
</svg>