<?xml version="1.0" encoding="UTF-8"?><svg id="a" xmlns="http://www.w3.org/2000/svg" xmlns:xlink="http://www.w3.org/1999/xlink" viewBox="0 0 223.0952 429.85"><defs><clipPath id="c"><path d="m32.893,388.6117s-3.619,4.7119-14.119,7.2707-12.8617,3.2841-14.9897,8.0391-1.1218,15.2514,3.7559,18.255,9.2961,6.8093,24.775,3.6735,17.3281-5.1141,27.35-2.441,18.9147,5.344,20.6-7.209,1.0676-16.6706-2.55-17.7,4.798-10.0059,4.0755-14.65c-2.2437.99-.6514,3.9794-10.0399,4.3s-9.9179.603-16.4473-.95-12.2621-2.859-22.4105,1.4116" style="fill:#2e7b5b; stroke:#000; stroke-linecap:round; stroke-linejoin:round; stroke-width:3px;"/></clipPath><clipPath id="g"><path d="m78.2446,154.6765s.1324,12.6757-2.2294,16.036,12.6271,7.2924,18.7,6.1993c11.7647-2.1176,18.6941-3.0588,14.7-15.0588-3.9941-12,2.5312-22.8235,2.5312-22.8235,0,0-32.6429-8.4706-33.7018,15.6471Z" style="fill:none; stroke-width:0px;"/></clipPath></defs><g id="b"><path d="m79.5215,163.6796s25.461-11.4216,49.461-7.1863c24,4.2353,9.8933,14.0765,7.5349,27.0382-2.3584,12.9618-28.7452,26.7852-36.9636,23.0499s-23.3537-25.6121-20.0323-42.9018Z" style="fill:#034346; stroke:#000; stroke-linecap:round; stroke-linejoin:round; stroke-width:3px;"/><path d="m86.6495,167.3168s11.7448-9.4444,28.333-7.781c16.5882,1.6634,20.3501,1.9886,13.7051,4.5772-7.8258,3.0485-14.1176.1683-15.5294,7.1765s3.7067,28.3186-7.5874,28.173-21.9601-21.3221-18.9212-32.1456Z" style="fill:#032321; stroke:#000; stroke-linecap:round; stroke-linejoin:round; stroke-width:3px;"/></g><path d="m190.6152,325.72c8.72-1.03,17.11-4.81,23.64-10.69l.13.1c-.14.18-.28.36-.43.55,3.28-1.47,4.78-2.06,4.93-2.11-.18.57-6.4,18.83-32.46,20.16-26.47,1.36-76.59-30.63-76.59-30.63l-1.01-4.62c18.6,8.65,36.47,19.24,56.35,24.17,3.51.86,7.08,1.55,10.7,1.64,6.76.16,13.38-1.79,19.87-3.72-1.36,2.03-3.11,3.79-5.13,5.15Z" style="fill:#a9c7d1; stroke-width:0px;"/><path d="m221.5952,299.09c-.49,3.27-1.17,8.12-7.21,16.04l-.13-.1c-6.53,5.88-14.92,9.66-23.64,10.69,2.02-1.36,3.77-3.12,5.13-5.15-6.49,1.93-13.11,3.88-19.87,3.72-3.62-.09-7.19-.78-10.7-1.64-19.88-4.93-37.75-15.52-56.35-24.17l-6.7-30.56s44.27,23.22,60.66,24.93c16.4,1.71,36.34,5.27,53.61-2.74-1.35,6.09-5.33,12.15-5.33,12.15,0,0,3.77-1.2,10.53-3.17Z" style="fill:#235566; stroke-width:0px;"/><path d="m218.8952,313.56l-.01.01c-.18.57-6.4,18.83-32.46,20.16-26.47,1.36-76.59-30.63-76.59-30.63l-1.01-4.62-6.7-30.56s44.27,23.22,60.66,24.93c16.4,1.71,36.34,5.27,53.61-2.74-1.35,6.09-5.33,12.15-5.33,12.15,0,0,3.77-1.2,10.53-3.17-.49,3.27-1.17,8.12-7.21,16.04-.14.18-.28.36-.43.55,3.28-1.47,4.78-2.06,4.93-2.11" style="fill:none; stroke:#000; stroke-linecap:round; stroke-linejoin:round; stroke-width:3px;"/><path d="m103.4352,296.03c1.81.79,3.6,1.61,5.39,2.45,18.6,8.65,36.47,19.24,56.35,24.17,3.51.86,7.08,1.55,10.7,1.64,6.76.16,13.38-1.79,19.87-3.72-1.36,2.03-3.11,3.79-5.13,5.15,8.72-1.03,17.11-4.81,23.64-10.69" style="fill:none; stroke:#000; stroke-linecap:round; stroke-linejoin:round; stroke-width:3px;"/><path d="m32.893,388.6117s-3.619,4.7119-14.119,7.2707-12.8617,3.2841-14.9897,8.0391-1.1218,15.2514,3.7559,18.255,9.2961,6.8093,24.775,3.6735,17.3281-5.1141,27.35-2.441,18.9147,5.344,20.6-7.209,1.0676-16.6706-2.55-17.7,4.798-10.0059,4.0755-14.65c-2.2437.99-.6514,3.9794-10.0399,4.3s-9.9179.603-16.4473-.95-12.2621-2.859-22.4105,1.4116" style="fill:#2e7b5b;"/><g style="clip-path:url(#c);"><path d="m22.3536,385.8235s19.7784-2.0294,25.5259,8.4265-6.0643,6.7506-6.0643,6.7506c0,0-4.6763,3.5935-5.6528-.8506s-14.653,10.1971-12.4472.45c-3.8824.4239-42.8703,8.1647-1.3616-14.7765Z" style="fill:#193425; stroke-width:0px;"/><path d="m6.9152,397.4412s-2.8294,6.275,2.75,5.6963,15.3441-3.9875,15.3441-3.9875c0,0-1.3529,3.7853,1.2353,5.95,2-2.1294,2.7647-6.1353,9.8824-5.75.9412,1.3265,2.2882,4.6,2.2882,4.6,0,0,5.2412-6.2971,17.9471-1.05s21.4176,2.1,28.0029-4.4,5.6147,14.875,5.6147,14.875c0,0-9.1995,4.8003-21.4388.3597s-21.3259-10.0347-21.3259-10.0347c0,0-3.3824,5.1529-11.8529,6.9176s-1.2971-6.9176-1.2971-6.9176c0,0-5.7382,7.4941-12.5,7.25s-.8269-5.85-.8269-5.85c0,0-21.6114,10.9059-19.0231-2.2" style="fill:#42abe4; stroke:#000; stroke-linecap:round; stroke-linejoin:round; stroke-width:3px;"/><path d="m23.0976,426.7206s-2.5706-3.6618-.9324-6.1324c2.8273.0768,9.6676-.2647,18.3147-2.25s16.325-2.2616,21.4412-1.3235,18.3441-.8147,18.3441-.8147c0,0-.3403,9.2386-7.8422,9.3943s-18.7519-5.3149-28.1048-2.1825-21.2206,3.3088-21.2206,3.3088Z" style="fill:#2b4d3c; stroke-width:0px;"/><path d="m3.8509,410.7059c2.1731,1.9853,4.7319,8.1176,17.2613,9.75-.3529,1.6324.6618,6.7774.6618,6.7774,0,0-16.5647-1.697-17.4588-8.5167s-.4643-8.0108-.4643-8.0108Z" style="fill:#53b791; stroke-width:0px;"/></g><path d="m32.893,388.6117s-3.619,4.7119-14.119,7.2707-12.8617,3.2841-14.9897,8.0391-1.1218,15.2514,3.7559,18.255,9.2961,6.8093,24.775,3.6735,17.3281-5.1141,27.35-2.441,18.9147,5.344,20.6-7.209,1.0676-16.6706-2.55-17.7,4.798-10.0059,4.0755-14.65c-2.2437.99-.6514,3.9794-10.0399,4.3s-9.9179.603-16.4473-.95-12.2621-2.859-22.4105,1.4116" style="fill:none; stroke:#000; stroke-linecap:round; stroke-linejoin:round; stroke-width:3px;"/><path d="m3.2634,409.3328c3.6735,5.8263,9.8919,10.032,16.7011,11.0692,9.3295,1.4211,18.503-2.8767,27.8791-3.9481,2.3434-.2678,4.7099-.333,7.0645-.1947,4.2636.2505,8.465,1.1647,12.7251,1.4689s8.7247-.0538,12.4409-2.1588" style="fill:none; stroke:#000; stroke-linecap:round; stroke-linejoin:round; stroke-width:3px;"/><path d="m32.893,388.6117s-.9164-6.5681,3.4235-8.9575,8.0458-1.5071,10.3987,2.7282,1.0071,16.1176,1.0071,16.1176c0,0-5.5339-9.1296-14.8294-9.8883Z" style="fill:#5ea28d; stroke:#000; stroke-linecap:round; stroke-linejoin:round; stroke-width:3px;"/><path d="m22.3536,427.1091c-.4427-.1922-.6455-.6991-.7746-1.1642-.3209-1.1564-.4567-2.364-.4007-3.5628.0108-.2311.0335-.4755.1701-.6623" style="fill:none; stroke:#000; stroke-linecap:round; stroke-linejoin:round; stroke-width:3px;"/><path d="m133.9652,416.19c-.72.05-1.45.13-2.17.24-.85.13-1.69.31-2.55.26-1.81-.11-3.44-1.26-4.51-2.72-.18-.25-.34-.5-.49-.76-.77-1.3-1.25-2.75-1.63-4.22-.57-2.13-.99-4.33-.78-6.53.22-2.19,1.13-4.39,2.84-5.78-.01-.03-.01-.05-.02-.08l1.82-.51c.08.31.22.6.4.87.79,1.16,2.45,1.67,3.7,1.06-.21.97-1.12,1.63-1.62,2.49-.71,1.24-.47,2.94.56,3.93,1.28,1.23,2.03,1.82,3.76,1.41-.71.13-1.93.99-1.96,1.72-.03.51.2,1.01.48,1.45.39.61.89,1.16,1.48,1.6,2.14,1.63,5.31,1.85,6.89,4.02.06.08.13.17.23.16l.01,1.21c-.58.01-1.16.01-1.74.02-1.57.02-3.14.04-4.7.16Z" style="fill:#2e7b5b; stroke-width:0px;"/><path d="m133.2752,410.62c-.59-.44-1.09-.99-1.48-1.6-.28-.44-.51-.94-.48-1.45.03-.73,1.25-1.59,1.96-1.72-1.73.41-2.48-.18-3.76-1.41-1.03-.99-1.27-2.69-.56-3.93.5-.86,1.41-1.52,1.62-2.49-1.25.61-2.91.1-3.7-1.06-.18-.27-.32-.56-.4-.87-.3-1.02-.1-2.19.53-3.06.34-.47.78-.86,1.16-1.31,1.19-1.43,1.7-3.57,3.4-4.35l.14-.63c.21.06.46.12.7.18-.13.21-.25.42-.37.63-.81,1.51-1.35,3.17-1.61,4.87-.09.58-.08,1.3.44,1.58.66.35,1.39-.4,2.15-.46.12-.01.26.01.35.09.09.07.13.17.16.28.95,2.82-.77,5.91-.35,8.86.84-.41,1.69-.83,2.54-1.24.3-.15.7-.28.93-.03.11.11.14.28.16.44.16,1.01.36,2.02.6,3.01h.01c.46,1.89,1.08,3.75,1.85,5.54.55,1.29,1.19,2.59,1.28,4,.01.12-.02.29-.15.31-.1.01-.17-.08-.23-.16-1.58-2.17-4.75-2.39-6.89-4.02Z" style="fill:#42abe4; stroke-width:0px;"/><path d="m169.2552,394.78c.91.98,1.8,1.96,2.69,2.94.38.4.76.84.87,1.38.21,1.01-.9,2.04-1.9,1.76,1.39,1.64,1.64,3.97,1.4,6.1-.36,3.17-1.66,6.23-3.7,8.68.08-4.42.78-7.74-1.45-11.56.2-.29.39-.61.39-.96-.01-.44-.31-.82-.62-1.14-.7-.75-1.53-1.29-2.3-1.94.48-.52,1.61-.81,2.28-1.12-.86-.69-1.72-1.37-2.57-2.06-.48-.37-.99-.84-.98-1.44.54-.26,1.07-.53,1.61-.79-.83-.37-1.65-.78-2.3-1.42-.64-.63-1.09-1.51-1.01-2.42h-.01c.34-.82.58-1.69.73-2.56l.74.12,4.66,3.8c.08.25.27.44.46.61.54.5,1.12.95,1.71,1.38l-.7.64Z" style="fill:#42abe4; stroke-width:0px;"/><path d="m162.3852,388.23c-.15.87-.39,1.74-.73,2.56,0,.01-.01.02-.01.03-.39-.77-.29-1.71-.63-2.5-.45-1.03-1.53-1.61-2.57-2.01-3.7-1.43-7.82-1.49-11.72-.79-2.32.42-4.43,1.47-6.45,2.7-1.61.98-4.59,2.96-5.03,4.38-.07-.1-.13-.19-.19-.28-.82-1.36-.26-2.28-.78-4.69l-2.24-.08c.12-.21.24-.42.37-.63.89.2,1.83.34,1.92.08,1.2-3.51,4.5-5.87,7.87-7.43,4.24-1.96,9.03-3.04,13.63-2.19,1.06.2,2.12.51,3.03,1.09,2.04,1.31,2.98,3.74,3.81,6.01l-.2.15c.15,1.2.13,2.41-.08,3.6Z" style="fill:#5ea28d; stroke-width:0px;"/><path d="m172.8852,396.34c3.65,3.25,5.03,8.57,4.24,13.4-.16.98-.41,1.96-.93,2.8-.21.35-.47.66-.75.95-.86.85-2,1.42-3.18,1.74-1.01.27-2.04.37-3.09.42-.18.01-.37.01-.56.02v-.03c2.04-2.45,3.34-5.51,3.7-8.68.24-2.13-.01-4.46-1.4-6.1,1,.28,2.11-.75,1.9-1.76-.11-.54-.49-.98-.87-1.38-.89-.98-1.78-1.96-2.69-2.94l.7-.64c.99.71,2.02,1.38,2.93,2.2Z" style="fill:#2e7b5b; stroke-width:0px;"/><path d="m176.0752,413.54c.25,3.34-.1,6.72-1.05,9.93l-.45-.13c-.62-1.44-1.28-2.87-2.14-4.18-.85-1.31-1.93-2.5-3.25-3.33l-.01-.18c1.05-.05,2.08-.15,3.09-.42,1.18-.32,2.32-.89,3.18-1.74l.63.05Z" style="fill:#2b4d3c; stroke-width:0px;"/><path d="m175.0252,423.47c-.01.03-.02.07-.03.1-.49,1.64-1.29,3.41-2.88,4.05-.76.3-1.59.3-2.41.3-12.76,0-25.52-.01-38.29-.01-.41,0-.85,0-1.22-.2-.26-.14-.46-.35-.65-.57-.79-.88-1.55-1.79-2.24-2.75.88-3.53,3.39-6.62,6.66-8.2,1.56-.12,3.13-.14,4.7-.16.58-.01,1.16-.01,1.74-.02,9.01-.1,18.01-.22,27.02-.32.4,0,.8-.01,1.19-.02.19-.01.38-.01.56-.02l.01.18c1.32.83,2.4,2.02,3.25,3.33.86,1.31,1.52,2.74,2.14,4.18l.45.13Z" style="fill:#53b791; stroke-width:0px;"/><path d="m167.1652,404.08c2.23,3.82,1.53,7.14,1.45,11.56v.03c-.39.01-.79.02-1.19.02-9.01.1-18.01.22-27.02.32l-.01-1.21c.13-.02.16-.19.15-.31-.09-1.41-.73-2.71-1.28-4-.77-1.79-1.39-3.65-1.85-5.54l1.19-.29c1.25,1.38,3.2,2.08,5.04,1.81,1.05-.16,2.02-.6,3.02-.94,2.87-1,5.95-1.04,8.94-.63,1.5.2,2.99.51,4.47.85,1.21.28,2.38.82,3.65.83,1.4.01,2.7-1.44,3.44-2.5Z" style="fill:#5ea28d; stroke-width:0px;"/><path d="m164.6252,379.66c3.57,2.3,5.09,7.32,3.4,11.23-.17.4-.38.85-.24,1.26l-4.66-3.8-.74-.12c.21-1.19.23-2.4.08-3.6l.2-.15c.94-.17,1.63-1.04,1.89-1.96.26-.93.16-1.91.07-2.86Z" style="fill:#2e7b5b; stroke-width:0px;"/><path d="m167.5552,403.12c0,.35-.19.67-.39.96-.74,1.06-2.04,2.51-3.44,2.5-1.27-.01-2.44-.55-3.65-.83-1.48-.34-2.97-.65-4.47-.85-2.99-.41-6.07-.37-8.94.63-1,.34-1.97.78-3.02.94-1.84.27-3.79-.43-5.04-1.81l-1.19.29h-.01c-.24-.99-.44-2-.6-3.01-.02-.16-.05-.33-.16-.44-.23-.25-.63-.12-.93.03-.85.41-1.7.83-2.54,1.24-.42-2.95,1.3-6.04.35-8.86-.03-.11-.07-.21-.16-.28-.09-.08-.23-.1-.35-.09l2.04-1.22c.06.09.12.18.19.28.44-1.42,3.42-3.4,5.03-4.38,2.02-1.23,4.13-2.28,6.45-2.7,3.9-.7,8.02-.64,11.72.79,1.04.4,2.12.98,2.57,2.01.34.79.24,1.73.63,2.5,0-.01.01-.02.01-.03h.01c-.08.91.37,1.79,1.01,2.42.65.64,1.47,1.05,2.3,1.42-.54.26-1.07.53-1.61.79-.01.6.5,1.07.98,1.44.85.69,1.71,1.37,2.57,2.06-.67.31-1.8.6-2.28,1.12.77.65,1.6,1.19,2.3,1.94.31.32.61.7.62,1.14Z" style="fill:#193425; stroke-width:0px;"/><path d="m135.0552,392.32l-2.04,1.22c-.76.06-1.49.81-2.15.46-.52-.28-.53-1-.44-1.58.26-1.7.8-3.36,1.61-4.87l2.24.08c.52,2.41-.04,3.33.78,4.69Z" style="fill:#193425; stroke-width:0px;"/><path d="m131.7952,416.43c.72-.11,1.45-.19,2.17-.24-3.27,1.58-5.78,4.67-6.66,8.2-.81-1.12-1.52-2.3-2.09-3.55-1.06-2.34-1.6-4.95-1.23-7.48l.26-.15c.15.26.31.51.49.76,1.07,1.46,2.7,2.61,4.51,2.72.86.05,1.7-.13,2.55-.26Z" style="fill:#2b4d3c; stroke-width:0px;"/><path d="m131.7052,386.74l-.14.63c-1.7.78-2.21,2.92-3.4,4.35-.38.45-.82.84-1.16,1.31-.63.87-.83,2.04-.53,3.06l-1.82.51c-.67-2.35-1.24-4.81-.9-7.23.2-1.5,1.79-6.13,3.91-5.02,1.14.6,1.91,1.64,3.18,2.13.11.04.44.14.86.26Z" style="fill:#2e7b5b; stroke-width:0px;"/><path d="m131.7052,386.74c-.42-.12-.75-.22-.86-.26-1.27-.49-2.04-1.53-3.18-2.13-2.12-1.11-3.71,3.52-3.91,5.02-.34,2.42.23,4.88.9,7.23.01.03.01.05.02.08-1.71,1.39-2.62,3.59-2.84,5.78-.21,2.2.21,4.4.78,6.53.38,1.47.86,2.92,1.63,4.22.15.26.31.51.49.76,1.07,1.46,2.7,2.61,4.51,2.72.86.05,1.7-.13,2.55-.26.72-.11,1.45-.19,2.17-.24,1.56-.12,3.13-.14,4.7-.16.58-.01,1.16-.01,1.74-.02,9.01-.1,18.01-.22,27.02-.32.4,0,.8-.01,1.19-.02.19-.01.38-.01.56-.02,1.05-.05,2.08-.15,3.09-.42,1.18-.32,2.32-.89,3.18-1.74.28-.29.54-.6.75-.95.52-.84.77-1.82.93-2.8.79-4.83-.59-10.15-4.24-13.4-.91-.82-1.94-1.49-2.93-2.2-.59-.43-1.17-.88-1.71-1.38-.19-.17-.38-.36-.46-.61-.14-.41.07-.86.24-1.26,1.69-3.91.17-8.93-3.4-11.23.09.95.19,1.93-.07,2.86-.26.92-.95,1.79-1.89,1.96-.83-2.27-1.77-4.7-3.81-6.01-.91-.58-1.97-.89-3.03-1.09-4.6-.85-9.39.23-13.63,2.19-3.37,1.56-6.67,3.92-7.87,7.43-.09.26-1.03.12-1.92-.08-.24-.06-.49-.12-.7-.18Z" style="fill:none; stroke:#000; stroke-linecap:round; stroke-linejoin:round; stroke-width:3px;"/><path d="m134.2752,387.63c.52,2.41-.04,3.33.78,4.69.06.09.12.18.19.28.44-1.42,3.42-3.4,5.03-4.38,2.02-1.23,4.13-2.28,6.45-2.7,3.9-.7,8.02-.64,11.72.79,1.04.4,2.12.98,2.57,2.01.34.79.24,1.73.63,2.5,0-.01.01-.02.01-.03.34-.82.58-1.69.73-2.56.21-1.19.23-2.4.08-3.6" style="fill:none; stroke:#000; stroke-linecap:round; stroke-linejoin:round; stroke-width:3px;"/><path d="m132.4052,386.91v.01c-.13.21-.25.42-.37.63-.81,1.51-1.35,3.17-1.61,4.87-.09.58-.08,1.3.44,1.58.66.35,1.39-.4,2.15-.46.12-.01.26.01.35.09.09.07.13.17.16.28.95,2.82-.77,5.91-.35,8.86.84-.41,1.69-.83,2.54-1.24.3-.15.7-.28.93-.03.11.11.14.28.16.44.16,1.01.36,2.02.6,3.01h.01c.46,1.89,1.08,3.75,1.85,5.54.55,1.29,1.19,2.59,1.28,4,.01.12-.02.29-.15.31-.1.01-.17-.08-.23-.16-1.58-2.17-4.75-2.39-6.89-4.02-.59-.44-1.09-.99-1.48-1.6-.28-.44-.51-.94-.48-1.45.03-.73,1.25-1.59,1.96-1.72-1.73.41-2.48-.18-3.76-1.41-1.03-.99-1.27-2.69-.56-3.93.5-.86,1.41-1.52,1.62-2.49-1.25.61-2.91.1-3.7-1.06-.18-.27-.32-.56-.4-.87-.3-1.02-.1-2.19.53-3.06.34-.47.78-.86,1.16-1.31,1.19-1.43,1.7-3.57,3.4-4.35" style="fill:none; stroke:#000; stroke-linecap:round; stroke-linejoin:round; stroke-width:3px;"/><path d="m138.6052,404.66c1.25,1.38,3.2,2.08,5.04,1.81,1.05-.16,2.02-.6,3.02-.94,2.87-1,5.95-1.04,8.94-.63,1.5.2,2.99.51,4.47.85,1.21.28,2.38.82,3.65.83,1.4.01,2.7-1.44,3.44-2.5.2-.29.39-.61.39-.96-.01-.44-.31-.82-.62-1.14-.7-.75-1.53-1.29-2.3-1.94.48-.52,1.61-.81,2.28-1.12-.86-.69-1.72-1.37-2.57-2.06-.48-.37-.99-.84-.98-1.44.54-.26,1.07-.53,1.61-.79-.83-.37-1.65-.78-2.3-1.42-.64-.63-1.09-1.51-1.01-2.42" style="fill:none; stroke:#000; stroke-linecap:round; stroke-linejoin:round; stroke-width:3px;"/><path d="m123.9852,413.36c-.37,2.53.17,5.14,1.23,7.48.57,1.25,1.28,2.43,2.09,3.55.69.96,1.45,1.87,2.24,2.75.19.22.39.43.65.57.37.2.81.2,1.22.2,12.77,0,25.53.01,38.29.01.82,0,1.65,0,2.41-.3,1.59-.64,2.39-2.41,2.88-4.05.01-.03.02-.07.03-.1.95-3.21,1.3-6.59,1.05-9.93" style="fill:none; stroke:#000; stroke-linecap:round; stroke-linejoin:round; stroke-width:3px;"/><path d="m133.9952,416.17c-.01,0-.02.01-.03.02-3.27,1.58-5.78,4.67-6.66,8.2-.02.08-.04.15-.06.23" style="fill:none; stroke:#000; stroke-linecap:round; stroke-linejoin:round; stroke-width:3px;"/><path d="m169.1852,415.83c1.32.83,2.4,2.02,3.25,3.33.86,1.31,1.52,2.74,2.14,4.18" style="fill:none; stroke:#000; stroke-linecap:round; stroke-linejoin:round; stroke-width:3px;"/><line x1="167.7852" y1="392.15" x2="163.1252" y2="388.35" style="fill:none; stroke:#000; stroke-linecap:round; stroke-linejoin:round; stroke-width:3px;"/><path d="m167.1652,404.08c2.23,3.82,1.53,7.14,1.45,11.56,2.04-2.45,3.34-5.51,3.7-8.68.24-2.13-.01-4.46-1.4-6.1,1,.28,2.11-.75,1.9-1.76-.11-.54-.49-.98-.87-1.38-.89-.98-1.78-1.96-2.69-2.94-.03-.05-.08-.09-.12-.14" style="fill:none; stroke:#000; stroke-linecap:round; stroke-linejoin:round; stroke-width:3px;"/><path d="m53.8427,260.35s-3.3275,4-3.3275,13.1-9.6824,81.1153-11.9176,84.2888c0,0-2.6956.9758-2.8772,4.3688s-.9081,11.2754-1.6625,17.7459,30.6574,9.7294,49.1279,4.3353c-1.8824-13.9824,2.8609-60.0387,8.4305-66.8932s9.906,16.8005,11.3848,21.2083,10.2759,46.441,12.6288,49.3998,15.1698,3.8577,31.1731-2.9447,18.129-15.1922,17.6769-17.273-1.6813-4.9305-4.0892-7.6417-13.9049-53.0797-16.0255-62.6944-10.3228-29.9194-13.1629-34.6494-71.0557-7.03-77.3596-2.3506Z" style="fill:#122426; stroke-width:0px;"/><path d="m50.5152,281.9s10.8471,3.5059,20.1412,2.7c1.5088.1203-2.1349,19.125-3.5912,18.8412s-18.9971-2.6471-17.8206-7.7059" style="fill:#122426; stroke:#000; stroke-linecap:round; stroke-linejoin:round; stroke-width:3px;"/><path d="m70.8335,288.6666s.4573-9.5195-.5183-17.2842" style="fill:#383e50; stroke:#000; stroke-linecap:round; stroke-linejoin:round; stroke-width:3px;"/><path d="m138.3148,280.8369c-1.1255-2.4265-2.4706-1.4713-4.3538-.4027-2.1172,1.2014-4.3005,2.2861-6.5367,3.2481-.6135.2639-7.4538,2.9238-7.5246,2.7115,1.3213,4.0898,4.9642,6.9174,7.4613,10.4154,1.6307,2.2844,2.7846,4.8827,4.4372,7.1512,3.9042-2.3814,7.8083-4.7627,11.7125-7.1441.1584-.0966.324-.2007.4118-.3641.1407-.2622.0384-.5831-.0659-.8618" style="fill:#122426; stroke:#000; stroke-linecap:round; stroke-linejoin:round; stroke-width:3px;"/><path d="m53.8427,260.35s-3.3275,4-3.3275,13.1-9.6824,81.1153-11.9176,84.2888c0,0-2.6956.9758-2.8772,4.3688s-.9081,11.2754-1.6625,17.7459,30.6574,9.7294,49.1279,4.3353c-1.8824-13.9824,2.8609-60.0387,8.4305-66.8932s9.906,16.8005,11.3848,21.2083,10.2759,46.441,12.6288,49.3998,15.1698,3.8577,31.1731-2.9447,18.129-15.1922,17.6769-17.273-1.6813-4.9305-4.0892-7.6417-13.9049-53.0797-16.0255-62.6944-10.3228-29.9194-13.1629-34.6494-71.0557-7.03-77.3596-2.3506Z" style="fill:none; stroke:#000; stroke-linecap:round; stroke-linejoin:round; stroke-width:3px;"/><path d="m58.2152,267.2147s-11.1235,32.2088-16.9,47.8353-.6-2.7-.6-2.7c0,0-5.1671,8.2501-4.925,10.4735s2.0685,4.5882,3.1806,5.8676,2.9209,2.3824,9.3179-7.4559,21.6559-42.8941,20.7765-47.7853-8.1147-8.1088-10.85-6.2353Z" style="fill:#5a646c; stroke:#000; stroke-linecap:round; stroke-linejoin:round; stroke-width:3px;"/><path d="m111.9097,276.35s3.7937,21.1383,45.0055,48.85c4.6-9,2.7834-10.8301,2.7035-13.7945-3.5778-2.5319-12.1976-6.3173-12.1976-6.3173,0,0,8.0706,9.6441-.9059,2.5868s-24.7706-36.9985-29.6235-36.2927-4.9345.5824-4.982,4.9677Z" style="fill:#5a646c; stroke:#000; stroke-linecap:round; stroke-linejoin:round; stroke-width:3px;"/><path d="m74.9505,385.383s2.9412-68.8241,10.2353-75.1771,15.2941-8.1176,22.4706,16.8235,17.158,63.0989,17.158,63.0989c0,0-8.1256,1.3225-9.8903-4.6775s-13.3806-70.6567-21.2065-70.4214-9.7082,69.0594-9.7082,69.0594c0,0-6,2.8235-9.0588,1.2941Z" style="fill:#091719; stroke:#000; stroke-linecap:round; stroke-linejoin:round; stroke-width:3px;"/><g id="d"><path d="m18.6271,276.2996s-8.3899,12.1497-8.5778,15.4523,1.5027,6.7011,2.6297,7.771,4.9995,2.2027,6.6321,2.1398,6.3973-11.8858,6.5194-13.8413-5.012-14.1021-7.2034-11.5218Z" style="fill:#235566; stroke:#000; stroke-linecap:round; stroke-linejoin:round; stroke-width:3px;"/><path d="m21.5267,280.7185s-5.9805,11.1455-5.7549,14.9749-.0624,8.0084,2.5548,9.1916,7.4508.5979,9.5795-2.2153.0063-5.5069-2.2884-5.3181,3.321-12.303,5.0559-13.9782-6.6229-5.9771-9.1468-2.6549Z" style="fill:#235566; stroke:#000; stroke-linecap:round; stroke-linejoin:round; stroke-width:3px;"/><path d="m33.3345,281.1866s1.2522,2.7282.6919,6.7561-1.7579,6.4068-1.2531,10.0949,2.6055,3.7395,4.6857,2.8012,2.0511-3.6656,3.9586-6.2878,5.0878-10.7165,3.3892-16.7181-11.5412-4.0317-11.4723,3.3537Z" style="fill:#235566; stroke:#000; stroke-linecap:round; stroke-linejoin:round; stroke-width:3px;"/><path d="m31.1078,251.8176l1.6678-4.8614,20.7896,6.5606-8.5719,23.8478-3.8575,4.9138s-7.0341,1.898-10.2274.4421-8.705,2.0382-9.7433-2.6206-5.5147.4411-2.6-5.05,10.9618-15.1382,12.35-19.7265.1926-3.5059.1926-3.5059" style="fill:#209276; stroke-width:0px;"/><path d="m27.6593,260.736c-2.6555,5.7576-5.4477,11.7006-10.2389,15.8336,0,0-1.47,2.3657,3.2947,3.5304,1.2353,3.6794,8.3865,4.1647,10.1933,2.6206,3.1288,1.1976,11.2509,3.8853,13.2567-3.7706" style="fill:none; stroke:#000; stroke-linecap:round; stroke-linejoin:round; stroke-width:3px;"/><path d="m43.7812,279.352c.3777-1.3172,1.1706-1.8232,1.2121-1.9872,1.9493-7.6947,6.519-14.5187,8.4684-22.2134.0968-.382.1812-.8108-.017-1.151-.1563-.2683-.4528-.4156-.7327-.5479-6.8493-3.2365-12.0115-6.2425-19.8432-5.4926-.2799-.2522-.5474.0953-.6608.3774-1.8639,4.6391-2.8098,9.6488-2.7666,14.6518" style="fill:none; stroke:#000; stroke-linecap:round; stroke-linejoin:round; stroke-width:3px;"/><path d="m91.6163,162.9714l-32.4305,8.5286s-32.7009,76.9412-30.2916,84.7059,14.4871,12,26.7129,6.3529" style="fill:#034346; stroke-width:0px;"/><path d="m62.3931,191.2705s-14.6153,49.5289-10.2661,52.9939c4.0438,3.2217,7.2565.4897,7.0311-.6214,0,0,6.2658-23.4252,3.235-52.3725Z" style="fill:#032321; stroke-width:0px;"/><path d="m91.6163,162.9714l-32.4305,8.5286s-32.7009,76.9412-30.2916,84.7059,14.4871,12,26.7129,6.3529" style="fill:none; stroke:#000; stroke-linecap:round; stroke-linejoin:round; stroke-width:3px;"/><path d="m169.3358,283.2137c.0681-.0552.1372-.1041.205-.1608-.3278-.6436-.6567-1.2866-.97-1.9373.255.6993.51,1.3987.765,2.0981Z" style="fill:none; stroke-width:0px;"/><path d="m160.5072,286.5401c.2766-.0118.5532-.0261.8314-.0522-.5591-1.1554-1.0416-2.3427-1.2734-3.6379.0662,1.276.2484,2.4991.442,3.6901Z" style="fill:none; stroke-width:0px;"/><path d="m164.4488,293.541c.4591,2.173.9413,4.3553,1.7889,6.4083.2275.551.4928,1.1079.9391,1.5031.964.8535,2.5458.6717,3.5518-.1319,1.006-.8036,1.5283-2.0711,1.8127-3.3269.3475-1.5343.3994-3.135.1519-4.6886-.2492-1.5637-.7946-3.0625-1.337-4.5501l-2.0204-5.5411c-2.5538,2.0697-5.3058,3.0218-7.9971,3.2742,1.1175,2.3093,2.5665,4.48,3.1102,7.0531Z" style="fill:#235566; stroke:#000; stroke-linecap:round; stroke-linejoin:round; stroke-width:3px;"/><path d="m175.1289,275.4811c-.1331-.7029-.2604-1.4461-.3732-2.2587-.2982-2.1488-1.0214-4.2346-1.9242-6.2072-1.3245-2.894-3.492-5.3122-5.7408-7.5644-2.4293-2.433-4.9909-4.7295-7.551-7.0245-.3348-.3002-.6748-.6039-1.0767-.8055-1.261-.6329-2.7697-.1301-4.0858.3782-3.6011,1.3908-7.2462,2.8115-10.4789,4.9558-1.2727.8442-3.3975,2.1035-4.0559,3.5445-.6968,1.5249-.5596,3.7681-.981,5.4264-.1709.6725-.3691,1.3376-.5826,1.9978,1.0568,3.0447,2.8668,7.6365,5.1619,11.0527.7477-.7021,1.4792-1.4215,2.1824-2.1682,2.2149,1.8267,3.5623,4.5168,4.2229,7.3246,2.7079,1.266,6.5736,2.5824,10.6611,2.4074-.1935-1.191-.3757-2.4141-.442-3.6901.2318,1.2952.7143,2.4825,1.2734,3.6379,2.6913-.2524,5.4434-1.2045,7.9971-3.2742-.255-.6993-.51-1.3987-.765-2.0981.3134.6507.6422,1.2937.97,1.9373,2.044-1.7123,3.9526-4.1585,5.5881-7.5718Z" style="fill:#209276; stroke:#000; stroke-linecap:round; stroke-linejoin:round; stroke-width:3px;"/><path d="m136.283,272.7477c-1.3566,2.6404-3.1099,5.1896-3.4953,8.1331-.0764.5833-.0876,1.2129.2153,1.7171.2412.4016.6553.6727,1.0901.8471,2.2687.9104,4.7549-.5618,6.6522-2.1031.9282-.754,1.8237-1.547,2.6955-2.3656-2.2952-3.4162-4.1052-8.008-5.1619-11.0527-.5361,1.6578-1.1996,3.2744-1.9958,4.8242Z" style="fill:#235566; stroke:#000; stroke-linecap:round; stroke-linejoin:round; stroke-width:3px;"/><path d="m149.8461,284.1327c.0707.3005.1404.6014.1954.9037.3261,1.7919.4056,3.6186.3717,5.4368-.0166.8919-.0814,1.7803-.1163,2.6712-.0281.7167.0117,1.0748.3006,1.7556.3077.7252,1.5174,1.8697,2.1177,2.3353.7546.5853,1.0215,1.116,1.8898,1.5197.7015.3262,1.4749.5612,2.2425.4644,1.5643-.1971,2.6313-1.6683,3.3059-3.0934,1.5211-3.213.8924-6.2723.3538-9.5859-4.0875.175-7.9532-1.1414-10.6611-2.4074Z" style="fill:#235566; stroke:#000; stroke-linecap:round; stroke-linejoin:round; stroke-width:3px;"/><path d="m175.1289,275.4811c-1.6354,3.4133-3.5441,5.8594-5.5881,7.5718,1.4819,2.9089,3.1024,5.7473,4.8698,8.4922.1961.3046.4365.6367.7949.6894.5644.0831,1.0306-.5308,1.1259-1.0932,1.2783-7.5453-.168-10.1978-1.2025-15.6602Z" style="fill:#235566; stroke:#000; stroke-linecap:round; stroke-linejoin:round; stroke-width:3px;"/><path d="m158.7098,249.5978c-.6762-1.9677-1.587-3.8601-2.2853-5.8246-2.0294-5.7099-2.2361-11.9434-4.2829-17.6471-7.5849,4.3193-15.0665,8.82-22.4363,13.4968,4.2171,6.5342,7.4252,13.7176,9.4793,21.2183.2643-.3619.5287-.7239.8089-1.0735,2.241-2.7963,5.4304-4.7113,8.7886-5.9618s6.9091-1.8838,10.4389-2.5016c-.1444-.5772-.3183-1.1449-.5113-1.7065Z" style="fill:#235566; stroke:#000; stroke-linecap:round; stroke-linejoin:round; stroke-width:3px;"/><path d="m63.1858,193.6176s-8.1706-20.6412,14.1794-25.9676,51.05-9.9932,48.2,21.4578-59.4382,23.804-62.3794,4.5098Z" style="fill:#034346; stroke-width:0px;"/><path d="m60.5652,186.9118s1.0981,37.1459-2.6,52.6882-4.4,24.5-4.4,24.5c0,0,7.0319,14.732,30.9439,15.5954s46.9563-9.4294,47.9194-13.6359-2.5133-10.4712-1.6133-18.236-5.8021-63.3824-5.8021-63.3824" style="fill:#034346; stroke:#000; stroke-linecap:round; stroke-linejoin:round; stroke-width:3px;"/><path d="m60.9434,193.0861s2.4777,4.4784,3.5366,7.4217-2.7516,61.3451-2.7516,61.3451l-6.2233-5.466s4.9017-38.7148,5.4383-63.3008Z" style="fill:#032321; stroke-width:0px;"/><path d="m117.5051,198.342s5.4801,51.0544,8.2569,59.9297,12.3295-5.5952,12.3295-5.5952c0,0-10.7966-59.9631-20.5864-54.3345Z" style="fill:#032321; stroke-width:0px;"/><path d="m60.5652,186.9118s1.0981,37.1459-2.6,52.6882-4.4,24.5-4.4,24.5c0,0,7.0319,14.732,30.9439,15.5954s46.9563-9.4294,47.9194-13.6359-2.5133-10.4712-1.6133-18.236-5.8021-63.3824-5.8021-63.3824" style="fill:none; stroke:#000; stroke-linecap:round; stroke-linejoin:round; stroke-width:3px;"/><path d="m112.2152,164.9073s11.9509-2.816,17.4902,3.0354,32.9833,77.8514,30.9966,86.4985-24.9977,11.7314-26.0216,6.2186-18.7513-58.4744-18.6229-73.5524" style="fill:#034346; stroke-width:0px;"/><path d="m117.9152,202.0867s6.3882,7.178,13.6235,36.5898c.7362,2.9927-1.6687,5.4802-1.6687,5.4802l-11.9548-42.07Z" style="fill:#032321; stroke-width:0px;"/><path d="m112.2152,164.9073s11.9509-2.816,17.4902,3.0354,32.9833,77.8514,30.9966,86.4985-24.9977,11.7314-26.0216,6.2186-18.7513-58.4744-18.6229-73.5524" style="fill:none; stroke:#000; stroke-linecap:round; stroke-linejoin:round; stroke-width:3px;"/><path d="m105.2633,227.5935c.0095-.6193-.0153-1.2373-.0741-1.8508l-.0185-.0002c-.8239-8.552-7.7798-11.8902-6.2247-20.5764,0,0-11.178,3.3946-2.4429,18.1771.6554,1.1091,1.1739,2.1605,1.5962,3.1681.0432.4026.0683.8079.0581,1.2157-.1502,4.9848-4.1874,9.0377-9.0111,8.9899h-.0002c-4.8185-.0478-8.5006-4.1695-8.2321-9.1438.0402-.6888.1568-1.3729.3471-2.0389l-.0429-.0003c.9738-2.6682,2.5957-5.4596,5.1684-8.2321,14.9883-16.1526,2.4825-24.3292-.1141-24.2146h0s2.5058,3.9079-4.519,16.0582c-1.1428-1.4233-2.1917-4.1053-.2284-8.6377-.0005.0002-10.3448,4.5311-4.9926,17.1391-5.0214,9.4937-3.0337,16.1136-.0245,20.1743.055.0766.1137.1496.17.225.1607.2092.3232.4108.488.6058.5697.6886,1.1954,1.3238,1.8742,1.9017.1966.17.3906.3309.5808.4812.0967.0744.1925.1492.2911.2213,1.102.8317,2.0388,1.3234,2.4879,1.4793l-.0002-.0003c1.8985.8891,4.0174,1.3965,6.275,1.4207.795.0085,1.5726-.0631,2.3404-.1705-.115.0462-.1806.0698-.1806.0698,0,0,.85-.101,2.1343-.4688.8182-.223,1.6127-.5048,2.3778-.8508,3.8481-1.6585,8.8928-5.3023,9.7769-13.1082.0652-.5759.0976-1.1248.1135-1.6599.0053-.1256.0236-.2478.0261-.374h0Z" style="fill:#24deb0; stroke-width:0px;"/><polygon points="81.5253 200.5077 81.5253 200.5078 81.5253 200.5078 81.5253 200.5077" style="fill:#84db7b; stroke-width:0px;"/><path d="m77.3652,165.15s-7.2382,3.7497-7.8853,4.8146,3.8824,12.6531,22.4118,13.359c18.5294.7059,26.0235-12.0059,26.0235-13.9735s-3.4941-5.7324-18.2-7.0265c-14.7059-1.2941-22.35,2.8265-22.35,2.8265Z" style="fill:#032321; stroke:#000; stroke-linecap:round; stroke-linejoin:round; stroke-width:3px;"/><path d="m54.3623,253.6176s-2.8235-1.5294-2.5882,3.0588-3.6471,16.8091,24,22.8163,58.6377-8.5664,59.5294-12.8187.2875-11.6253-.9412-11.6446-14.1176,8.1176-42.2353,7.5294-38.5882-4.5882-37.7647-8.9412Z" style="fill:#032321; stroke:#000; stroke-linecap:round; stroke-linejoin:round; stroke-width:3px;"/></g><g id="e"><g id="f"><path d="m78.2446,154.6765s.1324,12.6757-2.2294,16.036,12.6271,7.2924,18.7,6.1993c11.7647-2.1176,18.6941-3.0588,14.7-15.0588-3.9941-12,2.5312-22.8235,2.5312-22.8235,0,0-32.6429-8.4706-33.7018,15.6471Z" style="fill:#235566; stroke-width:0px;"/><g style="clip-path:url(#g);"><path d="m100.3152,145.7353s5.6353,6.4647,1.2235,13.8647-3.4412,5.5-3.4412,5.5c0,0,1.7647.3118,4.7647-1.7177s.3759,10.0895-4.7091,13.2065-39.3203,9.2935-23.8791-21.7653,26.0412-9.0882,26.0412-9.0882Z" style="fill:#a9c7d1; stroke-width:0px;"/></g><path d="m78.2446,154.6765s.1324,12.6757-2.2294,16.036,12.6271,7.2924,18.7,6.1993c11.7647-2.1176,18.6941-3.0588,14.7-15.0588-3.9941-12,2.5312-22.8235,2.5312-22.8235,0,0-32.6429-8.4706-33.7018,15.6471Z" style="fill:none; stroke:#000; stroke-linecap:round; stroke-linejoin:round; stroke-width:3px;"/><path d="m108.4671,158s-1.5737,8.7728-19.3863,9.9c-12.642.8-10.0421-9.9-10.0421-9.9" style="fill:none; stroke:#000; stroke-linecap:round; stroke-linejoin:round; stroke-width:3px;"/></g><path d="m38.2548,92.17s-20.8073-8.9053-24.1146-30.9641S24.2402,10.0672,24.2402,10.0672c0,0-.9074,2.7984,11.725,18.0568,12.6324,15.2584,30.9469,45.5984,2.2896,64.0461Z" style="fill:#235566; stroke:#000; stroke-linecap:round; stroke-linejoin:round; stroke-width:3px;"/><path d="m114.3652,139.7353s2.6441,11.3529-2.15,18.2647c4.3824-.9706,7.5679-5.5294,8.5046-9.1324,0,0,2.319,5.3382-1.2546,11.2206,0,0,20.4147-21.2471,13.95-44.3882s-28.7745,9.4392-19.05,24.0353Z" style="fill:#19c9d9; stroke:#000; stroke-linecap:round; stroke-linejoin:round; stroke-width:3px;"/><path d="m43.3152,98.65s-23.1353-21.6206-2.75-53.0324,70.2-10.1176,70.2-10.1176c0,0,40.2971,17.8882,30.3,45.65s-32.375,26.7029-32.375,26.7029c0,0-59.2456,15.8294-65.375-9.2029Z" style="fill:#235566; stroke:#000; stroke-linecap:round; stroke-linejoin:round; stroke-width:3px;"/><path d="m110.9152,34.5S88.7093,5.7353,42.0652,11.7353c0,0,17.3354,8.6647,19.0515,12.2147,0,0-16.5074-4.7559-44.6015,8.75,0,0,17.2765,2.5588,19.65,7.15,0,0-22.6225,6.8382-30.6833,38.45,0,0,16.5274-19.4235,28.2333-20.2s35.8765-5.7176,50.35-12.7765,20.95-4.2735,20.95-4.2735l5.9-6.55Z" style="fill:#19c9d9; stroke:#000; stroke-linecap:round; stroke-linejoin:round; stroke-width:3px;"/><path d="m101.4152,50.2s5.6143-17.7092,20.8689-24.9105S139.6564,1.5,139.6564,1.5c0,0,16.8412,23.1941,14.5088,48.95s-22.75,47.575-22.75,47.575" style="fill:#235566; stroke:#000; stroke-linecap:round; stroke-linejoin:round; stroke-width:3px;"/><path d="m49.8902,98.4641s-12.314-6.1611-8.9209-19.2391,13.1959-11.625,15.6959-9.975,8.8895,5.0618,8.5286,21.45-15.3036,7.7641-15.3036,7.7641Z" style="fill:#fff; stroke-width:0px;"/><path d="m54.6652,76.1864c3.9729-.6166,7.1235,2.5783,7.2559,7.9166s-.4059,8.4735-4.3059,11.0971-8.5941-5.0529-7.725-11.7147,2.9029-7.0084,4.775-7.2989Z" style="stroke:#000; stroke-linecap:round; stroke-linejoin:round; stroke-width:3px;"/><path d="m55.791,79.7941c-1.3338.504-1.4287,2.9706-.8405,3.9706s1.3839,2.0452,2.3243,1.7285,1.7051-2.4049,1.1757-3.7285-1.025-2.5882-2.6595-1.9706Z" style="fill:#fff; stroke-width:0px;"/><path d="m54.345,88.6977c.5782,1.28,1.554,2.9189,2.9031,1.4919.3722-.393.7181-1.0196,1.0447-1.5885.2247-.4266.9126-.262.9325.2101.4292,3.2914-3.5785,5.6445-5.4727,2.397-.3542-.6287-.8696-2.9004.1852-2.8467.1982.0262.3362.1654.4073.3361h0Z" style="fill:#4aea9b; stroke-width:0px;"/><path d="m40.3969,86.9033c-.963-6.642-.4083-15.2749,6.274-18.8573,2.2316-1.1872,4.7657-1.4933,7.1504-1.4375.8291.0194,1.4854.7072,1.466,1.5363-.0194.8291-.7072,1.4854-1.5363,1.466-10.4345-1.5047-13.1511,8.7599-12.4924,17.1677.073.549-.7728.6825-.8618.1247h0Z" style="stroke-width:0px;"/><path d="m87.5902,97.9s-6.325-10.8846-2.5118-21.7894,13.7544-9.2577,22.4603-4.0224,7.1176,17.6882,3.1765,24.9618-23.125.85-23.125.85Z" style="fill:#fff; stroke-width:0px;"/><path d="m112.5772,90.9475c.622-4.7953,1.1777-10.3969-1.7635-14.4731-3.0307-3.7592-7.4878-6.7312-12.3211-7.3748-3.1534-.4805-6.2501.5201-8.7546,2.356-.6669.5039-1.6206.3643-2.1143-.3105-.5037-.6837-.3337-1.6576.371-2.131,8.1749-5.8063,18.9699-1.0341,24.2179,6.4517,2.1253,2.9977,2.2669,6.9484,2.0454,10.4665-.1284,1.7579-.3643,3.4824-.7415,5.213-.0564.2589-.312.423-.5709.3666-.2578-.0557-.4194-.3096-.3685-.5644h0Z" style="stroke-width:0px;"/><path d="m95.6326,76.1669c4.276-2.226,9.9128,2.1648,9.2595,8.404s-.0684,11.5576-4.7973,11.6474-5.981-3.6173-6.7975-5.2748-4.148-11.4016,2.3353-14.7766Z" style="stroke:#000; stroke-linecap:round; stroke-linejoin:round; stroke-width:3px;"/><path d="m99.0965,80.3517c2.3117-.2942,4.5696,2.4484,3.0648,5.5483s-4.3583.5148-4.586-1.6338.4907-3.7834,1.5212-3.9145Z" style="fill:#fff; stroke-width:0px;"/><path d="m96.9594,90.2983c.8076,1.3044,2.961,3.0514,4.2067,1.4584.3797-.4827.6958-1.2632.9546-1.969.1199-.4703.6111-.7625,1.0752-.5886.3038.1114.5002.3872.5263.6896.0884,1.0445-.0303,2.0237-.5472,3.0667-1.1088,2.501-4.6401,2.4726-6.3478.6375-.7583-.6983-2.2848-3.3908-.6974-3.7612.367-.0472.6599.1737.8296.4666h0Z" style="fill:#4aea9b; stroke-width:0px;"/><path d="m66.0652,90.24s-2.65,4.7894-28,11.3776c-25.35,6.5882-14.5859,24.8289-10.8806,29.0904s16.2364,16.5566,42.5306,25.4978c3.2353,2.9412,3.75,10.6896,3.75,10.6896,0,0,4.3088-1.1602,5.7206-5.1602,1.1294,1.6647,1.4118,5.9147,1.4118,5.9147,0,0,50.5765-20.15,50.8176-52.6206,0,0,5.2353-1.6588,12.15,1.1706-2.2618-6.4647-4.7-7.5-4.7-7.5,0,0,3.9088-3.5353,10.6-2-7.6912-7.9941-26.1618-12.025-42.2451-9.3018-10.2966,1.7434-26.2696,3.6312-41.1549-7.1582Z" style="fill:#a9c7d1; stroke:#000; stroke-linecap:round; stroke-linejoin:round; stroke-width:3px;"/><path d="m39.5976,108.1471s-7.0588,1.1471-9.3529,5.1176-.9706,6.4412-.9706,6.4412c0,0,9.1662,5.3829,11.5537,6.7061s14.911-6.9187,14.7375-8.0918,1.15-6.5555-3.7029-7.879-8.9118-2.4706-12.2647-2.2941Z" style="fill:#2a2a2a; stroke:#000; stroke-linecap:round; stroke-linejoin:round; stroke-width:3px;"/><path d="m71.6652,150s2.3559.0235,4.35-2.65,15.2765,2.6206,19.4-8.3206" style="fill:none; stroke:#000; stroke-linecap:round; stroke-linejoin:round; stroke-width:3px;"/><path d="m144.5093,26.2647s5.8235,28.8529-2.2059,45.3529c0,0-6.7205-1.9794-5.8308-5.5779" style="fill:#a9c7d1; stroke-width:0px;"/><path d="m146.8917,31.3824s-.0882-2.963-3.0882-7.8345c0,0,0,21.0581-8.2132,44.6478" style="fill:none; stroke:#000; stroke-linecap:round; stroke-linejoin:round; stroke-width:3px;"/><path d="m40.7996,67.8639c.2798-2.7037,1.8681-5.1627,4.2233-6.5248,1.2799-.6789,3.6577-2.0848,4.4113-.0862.2485.7952-.1946,1.6412-.9897,1.8897-1.4489.2004-2.8944.5106-4.0563,1.4626-1.1122.8353-1.9827,2.1776-2.3676,3.5033-.2094.7153-1.305.4921-1.2211-.2447h0Z" style="fill:#19c9d9; stroke-width:0px;"/><path d="m101.7197,61.1525c-3.8966-2.9879-9.4038-3.5185-13.8752-1.5444-.7756.2953-1.6438-.0939-1.9392-.8695-.3162-.8173.1507-1.7454.9943-1.9806,1.3727-.3893,2.7667-.7197,4.199-.7842,2.8207-.2073,5.7048.399,8.2099,1.67,1.2547.6382,2.3847,1.378,3.4612,2.3801.3109.2894.3283.776.0389,1.0869-.2918.3156-.7773.3205-1.0889.0417h0Z" style="fill:#19c9d9; stroke-width:0px;"/><path d="m112.2152,32.6001s.3529-6.2472,4.2353,2.7528" style="fill:none; stroke:#000; stroke-linecap:round; stroke-linejoin:round; stroke-width:3px;"/><path d="m117.4339,28.1239s1.8401-7.2504,6.5166,2.1511" style="fill:none; stroke:#000; stroke-linecap:round; stroke-linejoin:round; stroke-width:3px;"/></g></svg>