<?xml version="1.0" encoding="UTF-8"?>
<svg id="Sad_winter" data-name="Sad winter" xmlns="http://www.w3.org/2000/svg" xmlns:xlink="http://www.w3.org/1999/xlink" viewBox="0 0 223.0952 429.85">
  <defs>
    <clipPath id="clippath">
      <path d="M32.893,388.6117s-3.619,4.7119-14.119,7.2707-12.8617,3.2841-14.9897,8.0391-1.1218,15.2514,3.7559,18.255c4.8777,3.0036,9.2961,6.8093,24.775,3.6735,15.4789-3.1358,17.3281-5.1141,27.35-2.441s18.9147,5.344,20.6-7.209,1.0676-16.6706-2.55-17.7,4.798-10.0059,4.0755-14.65c-2.2437.99-.6514,3.9794-10.0399,4.3s-9.9179.603-16.4473-.95c-6.5294-1.553-12.2621-2.859-22.4105,1.4116" style="fill: #2e7b5b; stroke: #000; stroke-linecap: round; stroke-linejoin: round; stroke-width: 3px;"/>
    </clipPath>
    <clipPath id="clippath-1">
      <path d="M78.2446,154.6765s.1324,12.6757-2.2294,16.036,12.6271,7.2924,18.7,6.1993c11.7647-2.1176,18.6941-3.0588,14.7-15.0588s2.5312-22.8235,2.5312-22.8235c0,0-32.6429-8.4706-33.7018,15.6471Z" style="fill: none; stroke-width: 0px;"/>
    </clipPath>
  </defs>
  <g>
    <g>
      <path d="M102.7982,378.4122c4.4745,7.555,11.3294,13.6942,19.3508,17.2821l-.0388.1594c-.2213-.0551-.4426-.1101-.677-.1703,2.6728,2.4032,3.8199,3.5356,3.9264,3.6525-.5941.0664-19.8083,1.7775-31.5821-21.5092-11.9673-23.6494-3.0256-82.4322-3.0256-82.4322l3.8147-2.7951c-.3728,20.5096-2.815,41.1377.7318,61.3105.6358,3.5575,1.4513,7.1009,2.8356,10.447,2.5924,6.2452,7.0572,11.5076,11.4511,16.6592-2.4069-.421-4.725-1.3079-6.7868-2.6037Z" style="fill: #a9c7d1; stroke-width: 0px;"/>
      <path d="M139.696,395.9471c-3.1881.8768-7.8978,2.22-17.5857-.0934l.0388-.1594c-8.0214-3.5879-14.8763-9.7271-19.3508-17.2821,2.0618,1.2958,4.3798,2.1827,6.7868,2.6037-4.3938-5.1516-8.8586-10.414-11.4511-16.6592-1.3843-3.3461-2.1998-6.8895-2.8356-10.447-3.5468-20.1727-1.1046-40.8009-.7318-61.3105l25.2253-18.5065s-3.2937,49.8814,1.7831,65.5588c5.0808,15.6866,9.9045,35.3592,24.2244,47.9032-6.1148,1.233-13.2676.0494-13.2676.0494,0,0,2.6245,2.9606,7.1643,8.3428Z" style="fill: #a9c7d1; stroke-width: 0px;"/>
    </g>
    <path d="M125.3728,399.341l-.0132-.0051c-.5941.0664-19.8083,1.7775-31.5821-21.5092-11.9673-23.6494-3.0256-82.4322-3.0256-82.4322l3.8147-2.7951,25.2253-18.5065s-3.2937,49.8814,1.7831,65.5588c5.0808,15.6866,9.9045,35.3592,24.2244,47.9032-6.1148,1.233-13.2676.0494-13.2676.0494,0,0,2.6245,2.9606,7.1643,8.3428-3.1881.8768-7.8978,2.22-17.5857-.0934-.2213-.0551-.4426-.1101-.677-.1703,2.6728,2.4032,3.8199,3.5356,3.9264,3.6525" style="fill: none; stroke: #000; stroke-linecap: round; stroke-linejoin: round; stroke-width: 3px;"/>
  </g>
  <g>
    <path d="M48.6652,354.8529s-3.2077,14.1471-3.3324,20.2721c-.1392,6.8418-2.9118,16.7309,11.3824,16.45,14.2941-.2809,23.9294,5.4544,22.95-12.3691s4.9503-21.5.362-27.5882-29.925-4.5975-31.362,3.2353Z" style="fill: #235566; stroke: #000; stroke-linecap: round; stroke-linejoin: round; stroke-width: 3px;"/>
    <g>
      <path d="M32.893,388.6117s-3.619,4.7119-14.119,7.2707-12.8617,3.2841-14.9897,8.0391-1.1218,15.2514,3.7559,18.255c4.8777,3.0036,9.2961,6.8093,24.775,3.6735,15.4789-3.1358,17.3281-5.1141,27.35-2.441s18.9147,5.344,20.6-7.209,1.0676-16.6706-2.55-17.7,4.798-10.0059,4.0755-14.65c-2.2437.99-.6514,3.9794-10.0399,4.3s-9.9179.603-16.4473-.95c-6.5294-1.553-12.2621-2.859-22.4105,1.4116" style="fill: #2e7b5b;"/>
      <g style="clip-path: url(#clippath);">
        <path d="M22.3536,385.8235s19.7784-2.0294,25.5259,8.4265-6.0643,6.7506-6.0643,6.7506c0,0-4.6763,3.5935-5.6528-.8506s-14.653,10.1971-12.4472.45c-3.8824.4239-42.8703,8.1647-1.3616-14.7765Z" style="fill: #193425; stroke-width: 0px;"/>
        <path d="M6.9152,397.4412s-2.8294,6.275,2.75,5.6963c5.5794-.5787,15.3441-3.9875,15.3441-3.9875,0,0-1.3529,3.7853,1.2353,5.95,2-2.1294,2.7647-6.1353,9.8824-5.75.9412,1.3265,2.2882,4.6,2.2882,4.6,0,0,5.2412-6.2971,17.9471-1.05s21.4176,2.1,28.0029-4.4c6.5853-6.5,5.6147,14.875,5.6147,14.875,0,0-9.1995,4.8003-21.4388.3597-12.2394-4.4406-21.3259-10.0347-21.3259-10.0347,0,0-3.3824,5.1529-11.8529,6.9176s-1.2971-6.9176-1.2971-6.9176c0,0-5.7382,7.4941-12.5,7.25s-.8269-5.85-.8269-5.85c0,0-21.6114,10.9059-19.0231-2.2" style="fill: #42abe4; stroke: #000; stroke-linecap: round; stroke-linejoin: round; stroke-width: 3px;"/>
        <path d="M23.0976,426.7206s-2.5706-3.6618-.9324-6.1324c2.8273.0768,9.6676-.2647,18.3147-2.25s16.325-2.2616,21.4412-1.3235,18.3441-.8147,18.3441-.8147c0,0-.3403,9.2386-7.8422,9.3943-7.5019.1557-18.7519-5.3149-28.1048-2.1825-9.3529,3.1324-21.2206,3.3088-21.2206,3.3088Z" style="fill: #2b4d3c; stroke-width: 0px;"/>
        <path d="M3.8509,410.7059c2.1731,1.9853,4.7319,8.1176,17.2613,9.75-.3529,1.6324.6618,6.7774.6618,6.7774,0,0-16.5647-1.697-17.4588-8.5167s-.4643-8.0108-.4643-8.0108Z" style="fill: #53b791; stroke-width: 0px;"/>
      </g>
      <path d="M32.893,388.6117s-3.619,4.7119-14.119,7.2707-12.8617,3.2841-14.9897,8.0391-1.1218,15.2514,3.7559,18.255c4.8777,3.0036,9.2961,6.8093,24.775,3.6735,15.4789-3.1358,17.3281-5.1141,27.35-2.441s18.9147,5.344,20.6-7.209,1.0676-16.6706-2.55-17.7,4.798-10.0059,4.0755-14.65c-2.2437.99-.6514,3.9794-10.0399,4.3s-9.9179.603-16.4473-.95c-6.5294-1.553-12.2621-2.859-22.4105,1.4116" style="fill: none; stroke: #000; stroke-linecap: round; stroke-linejoin: round; stroke-width: 3px;"/>
    </g>
    <path d="M3.2634,409.3328c3.6735,5.8263,9.8919,10.032,16.7011,11.0692,9.3295,1.4211,18.503-2.8767,27.8791-3.9481,2.3434-.2678,4.7099-.333,7.0645-.1947,4.2636.2505,8.465,1.1647,12.7251,1.4689,4.2601.3042,8.7247-.0538,12.4409-2.1588" style="fill: none; stroke: #000; stroke-linecap: round; stroke-linejoin: round; stroke-width: 3px;"/>
    <path d="M32.893,388.6117s-.9164-6.5681,3.4235-8.9575,8.0458-1.5071,10.3987,2.7282,1.0071,16.1176,1.0071,16.1176c0,0-5.5339-9.1296-14.8294-9.8883Z" style="fill: #5ea28d; stroke: #000; stroke-linecap: round; stroke-linejoin: round; stroke-width: 3px;"/>
    <path d="M22.3536,427.1091c-.4427-.1922-.6455-.6991-.7746-1.1642-.3209-1.1564-.4567-2.364-.4007-3.5628.0108-.2311.0335-.4755.1701-.6623" style="fill: none; stroke: #000; stroke-linecap: round; stroke-linejoin: round; stroke-width: 3px;"/>
  </g>
  <g>
    <path d="M117.5976,357.0588s3.5206,17.1353,17.6426,33.1412,27.8515,1.8471,29.075-1.25c1.2235-3.0971-3.6-34.9794-9.3647-42.1559s-39.2941-7.1176-37.3529,10.2647Z" style="fill: #235566; stroke: #000; stroke-linecap: round; stroke-linejoin: round; stroke-width: 3px;"/>
    <g>
      <g>
        <path d="M172.8855,396.3319c3.65,3.26,5.03,8.58,4.24,13.41-.16.98-.41,1.96-.93,2.8-.21.35-.47.66-.75.95-.86.85-2,1.42-3.18,1.74-1.01.27-2.04.37-3.09.42-.18.01-.37.01-.56.02v-.04c2.04-2.44,3.34-5.5,3.7-8.67.23-2.13-.01-4.46-1.4-6.1,1,.28,2.11-.75,1.9-1.77-.11-.54-.49-.97-.87-1.38-.9-.98-1.79-1.96-2.69-2.94l.7-.64c.99.72,2.02,1.39,2.93,2.2Z" style="fill: #2e7b5b; stroke-width: 0px;"/>
        <path d="M176.0755,413.5319c.25,3.35-.1,6.73-1.05,9.94l-.45-.13c-.62-1.44-1.28-2.87-2.14-4.18-.85-1.31-1.93-2.5-3.25-3.33l-.01-.18c1.05-.05,2.08-.15,3.09-.42,1.18-.32,2.32-.89,3.18-1.74l.63.04Z" style="fill: #2b4d3c; stroke-width: 0px;"/>
        <path d="M175.0255,423.4719c-.01.03-.02.07-.03.1-.49,1.64-1.29,3.4-2.88,4.04-.76.31-1.59.31-2.41.31-12.76,0-25.52-.01-38.29-.01-.42,0-.85-.01-1.22-.2-.26-.14-.46-.36-.65-.57-.8-.88-1.56-1.8-2.24-2.76.88-3.53,3.38-6.62,6.67-8.2,1.56-.12,3.12-.14,4.69-.15.58-.01,1.16-.01,1.74-.02,9-.11,18.01-.22,27.02-.32.4,0,.8-.01,1.19-.02.19-.01.38-.01.56-.02l.01.18c1.32.83,2.4,2.02,3.25,3.33.86,1.31,1.52,2.74,2.14,4.18l.45.13Z" style="fill: #53b791; stroke-width: 0px;"/>
        <path d="M169.2555,394.7719c.9.98,1.79,1.96,2.69,2.94.38.41.76.84.87,1.38.21,1.02-.9,2.05-1.9,1.77,1.39,1.64,1.63,3.97,1.4,6.1-.36,3.17-1.66,6.23-3.7,8.67.08-4.42.78-7.73-1.45-11.55.2-.29.39-.61.39-.96-.01-.44-.31-.82-.62-1.15-.7-.74-1.53-1.28-2.3-1.93.48-.52,1.61-.82,2.28-1.12-.86-.69-1.72-1.37-2.58-2.06-.47-.37-.98-.84-.97-1.44.54-.26,1.07-.53,1.61-.79-.83-.37-1.65-.78-2.3-1.42-.64-.63-1.09-1.52-1.01-2.42h-.01c.34-.82.59-1.68.73-2.56l.74.12,4.66,3.8c.08.25.27.44.46.61.54.5,1.12.94,1.71,1.37l-.7.64Z" style="fill: #42abe4; stroke-width: 0px;"/>
        <path d="M167.1655,404.0819c2.23,3.82,1.53,7.13,1.45,11.55v.04c-.39.01-.79.02-1.19.02-9.01.1-18.02.21-27.02.32l-.01-1.21c.13-.02.16-.19.15-.32-.09-1.4-.73-2.7-1.28-3.99-.77-1.8-1.39-3.66-1.86-5.55l1.2-.29c1.25,1.39,3.2,2.09,5.04,1.82,1.05-.16,2.02-.6,3.02-.94,2.87-1,5.95-1.04,8.94-.63,1.5.2,2.99.51,4.47.85,1.21.28,2.38.82,3.64.83,1.41.01,2.71-1.44,3.45-2.5Z" style="fill: #5ea28d; stroke-width: 0px;"/>
        <path d="M164.6255,379.6519c3.57,2.31,5.09,7.33,3.4,11.24-.17.4-.38.84-.24,1.26l-4.66-3.8-.74-.12c.21-1.19.23-2.41.08-3.61l.19-.14c.95-.17,1.64-1.04,1.9-1.97.26-.92.16-1.9.07-2.86Z" style="fill: #2e7b5b; stroke-width: 0px;"/>
        <path d="M167.5555,403.1219c0,.35-.19.67-.39.96-.74,1.06-2.04,2.51-3.45,2.5-1.26-.01-2.43-.55-3.64-.83-1.48-.34-2.97-.65-4.47-.85-2.99-.41-6.07-.37-8.94.63-1,.34-1.97.78-3.02.94-1.84.27-3.79-.43-5.04-1.82l-1.2.29c-.24-.99-.44-1.99-.6-3-.02-.16-.05-.33-.16-.45-.23-.24-.63-.11-.93.04-.85.41-1.7.83-2.54,1.24-.42-2.95,1.3-6.04.35-8.87-.03-.1-.07-.21-.16-.27-.09-.08-.23-.1-.35-.09l2.04-1.22c.05.09.11.18.18.28.45-1.43,3.43-3.4,5.04-4.38,2.02-1.23,4.13-2.28,6.45-2.7,3.9-.7,8.02-.64,11.72.78,1.04.41,2.12.99,2.57,2.02.34.79.24,1.73.63,2.5,0-.01.01-.02.01-.03h.01c-.08.9.37,1.79,1.01,2.42.65.64,1.47,1.05,2.3,1.42-.54.26-1.07.53-1.61.79-.01.6.5,1.07.97,1.44.86.69,1.72,1.37,2.58,2.06-.67.3-1.8.6-2.28,1.12.77.65,1.6,1.19,2.3,1.93.31.33.61.71.62,1.15Z" style="fill: #193425; stroke-width: 0px;"/>
        <path d="M162.6555,384.4819l-.19.14c.15,1.2.13,2.42-.08,3.61-.14.88-.39,1.74-.73,2.56,0,.01-.01.02-.01.03-.39-.77-.29-1.71-.63-2.5-.45-1.03-1.53-1.61-2.57-2.02-3.7-1.42-7.82-1.48-11.72-.78-2.32.42-4.43,1.47-6.45,2.7-1.61.98-4.59,2.95-5.04,4.38-.07-.1-.13-.19-.18-.28-.82-1.36-.26-2.28-.78-4.7l-2.24-.08c.12-.21.24-.43.37-.64.88.21,1.83.36,1.92.1,1.2-3.51,4.5-5.87,7.87-7.43,4.24-1.97,9.03-3.04,13.63-2.19,1.06.2,2.12.5,3.03,1.09,2.04,1.3,2.98,3.74,3.8,6.01Z" style="fill: #5ea28d; stroke-width: 0px;"/>
        <path d="M140.5455,414.4819c.01.13-.02.3-.15.32-.1.01-.17-.08-.23-.16-1.58-2.17-4.75-2.4-6.89-4.02-.59-.44-1.09-.99-1.48-1.61-.28-.43-.51-.93-.48-1.45.02-.72,1.25-1.58,1.96-1.71-1.73.41-2.48-.18-3.76-1.41-1.03-.99-1.27-2.69-.56-3.93.5-.87,1.41-1.52,1.62-2.5-1.25.62-2.91.11-3.7-1.05-.18-.27-.32-.56-.4-.87-.3-1.02-.1-2.19.53-3.06.34-.47.78-.86,1.16-1.31,1.19-1.44,1.7-3.57,3.4-4.36l.14-.63c.21.06.45.12.7.17-.13.21-.25.43-.37.64-.81,1.52-1.35,3.18-1.61,4.88-.09.58-.08,1.3.44,1.57.66.36,1.39-.39,2.15-.45.12-.01.26.01.35.09.09.06.13.17.16.27.95,2.83-.77,5.92-.35,8.87.84-.41,1.69-.83,2.54-1.24.3-.15.7-.28.93-.04.11.12.14.29.16.45.16,1.01.36,2.01.6,3,.47,1.89,1.09,3.75,1.86,5.55.55,1.29,1.19,2.59,1.28,3.99Z" style="fill: #42abe4; stroke-width: 0px;"/>
        <path d="M133.9755,416.1819c-.73.06-1.46.14-2.18.25-.85.13-1.7.31-2.55.26-1.81-.11-3.44-1.26-4.51-2.72-.18-.25-.34-.5-.49-.76-.77-1.3-1.25-2.76-1.64-4.22-.56-2.13-.98-4.34-.77-6.53.22-2.19,1.13-4.39,2.84-5.78-.01-.03-.01-.05-.02-.08l1.82-.51c.08.31.22.6.4.87.79,1.16,2.45,1.67,3.7,1.05-.21.98-1.12,1.63-1.62,2.5-.71,1.24-.47,2.94.56,3.93,1.28,1.23,2.03,1.82,3.76,1.41-.71.13-1.94.99-1.96,1.71-.03.52.2,1.02.48,1.45.39.62.89,1.17,1.48,1.61,2.14,1.62,5.31,1.85,6.89,4.02.06.08.13.17.23.16l.01,1.21c-.58.01-1.16.01-1.74.02-1.57.01-3.13.03-4.69.15Z" style="fill: #2e7b5b; stroke-width: 0px;"/>
        <path d="M135.0555,392.3219l-2.04,1.22c-.76.06-1.49.81-2.15.45-.52-.27-.53-.99-.44-1.57.26-1.7.8-3.36,1.61-4.88l2.24.08c.52,2.42-.04,3.34.78,4.7Z" style="fill: #193425; stroke-width: 0px;"/>
        <path d="M131.7955,416.4319c.72-.11,1.45-.19,2.18-.25-3.29,1.58-5.79,4.67-6.67,8.2-.81-1.12-1.52-2.3-2.09-3.55-1.06-2.33-1.6-4.94-1.23-7.47l.26-.15c.15.26.31.51.49.76,1.07,1.46,2.7,2.61,4.51,2.72.85.05,1.7-.13,2.55-.26Z" style="fill: #2b4d3c; stroke-width: 0px;"/>
        <path d="M131.7055,386.7319l-.14.63c-1.7.79-2.21,2.92-3.4,4.36-.38.45-.82.84-1.16,1.31-.63.87-.83,2.04-.53,3.06l-1.82.51c-.67-2.35-1.24-4.81-.9-7.23.2-1.5,1.79-6.13,3.91-5.02,1.14.6,1.91,1.64,3.18,2.13.11.04.44.14.86.25Z" style="fill: #2e7b5b; stroke-width: 0px;"/>
      </g>
      <g>
        <path d="M131.7055,386.7319c-.42-.11-.75-.21-.86-.25-1.27-.49-2.04-1.53-3.18-2.13-2.12-1.11-3.71,3.52-3.91,5.02-.34,2.42.23,4.88.9,7.23.01.03.01.05.02.08-1.71,1.39-2.62,3.59-2.84,5.78-.21,2.19.21,4.4.77,6.53.39,1.46.87,2.92,1.64,4.22.15.26.31.51.49.76,1.07,1.46,2.7,2.61,4.51,2.72.85.05,1.7-.13,2.55-.26.72-.11,1.45-.19,2.18-.25,1.56-.12,3.12-.14,4.69-.15.58-.01,1.16-.01,1.74-.02,9-.11,18.01-.22,27.02-.32.4,0,.8-.01,1.19-.02.19-.01.38-.01.56-.02,1.05-.05,2.08-.15,3.09-.42,1.18-.32,2.32-.89,3.18-1.74.28-.29.54-.6.75-.95.52-.84.77-1.82.93-2.8.79-4.83-.59-10.15-4.24-13.41-.91-.81-1.94-1.48-2.93-2.2-.59-.43-1.17-.87-1.71-1.37-.19-.17-.38-.36-.46-.61-.14-.42.07-.86.24-1.26,1.69-3.91.17-8.93-3.4-11.24.09.96.19,1.94-.07,2.86-.26.93-.95,1.8-1.9,1.97-.82-2.27-1.76-4.71-3.8-6.01-.91-.59-1.97-.89-3.03-1.09-4.6-.85-9.39.22-13.63,2.19-3.37,1.56-6.67,3.92-7.87,7.43-.09.26-1.04.11-1.92-.1-.25-.05-.49-.11-.7-.17Z" style="fill: none; stroke: #000; stroke-linecap: round; stroke-linejoin: round; stroke-width: 3px;"/>
        <path d="M134.2755,387.6219c.52,2.42-.04,3.34.78,4.7.05.09.11.18.18.28.45-1.43,3.43-3.4,5.04-4.38,2.02-1.23,4.13-2.28,6.45-2.7,3.9-.7,8.02-.64,11.72.78,1.04.41,2.12.99,2.57,2.02.34.79.24,1.73.63,2.5,0-.01.01-.02.01-.03.34-.82.59-1.68.73-2.56.21-1.19.23-2.41.08-3.61" style="fill: none; stroke: #000; stroke-linecap: round; stroke-linejoin: round; stroke-width: 3px;"/>
        <path d="M132.4055,386.9019c-.13.21-.25.43-.37.64-.81,1.52-1.35,3.18-1.61,4.88-.09.58-.08,1.3.44,1.57.66.36,1.39-.39,2.15-.45.12-.01.26.01.35.09.09.06.13.17.16.27.95,2.83-.77,5.92-.35,8.87.84-.41,1.69-.83,2.54-1.24.3-.15.7-.28.93-.04.11.12.14.29.16.45.16,1.01.36,2.01.6,3,.47,1.89,1.09,3.75,1.86,5.55.55,1.29,1.19,2.59,1.28,3.99.01.13-.02.3-.15.32-.1.01-.17-.08-.23-.16-1.58-2.17-4.75-2.4-6.89-4.02-.59-.44-1.09-.99-1.48-1.61-.28-.43-.51-.93-.48-1.45.02-.72,1.25-1.58,1.96-1.71-1.73.41-2.48-.18-3.76-1.41-1.03-.99-1.27-2.69-.56-3.93.5-.87,1.41-1.52,1.62-2.5-1.25.62-2.91.11-3.7-1.05-.18-.27-.32-.56-.4-.87-.3-1.02-.1-2.19.53-3.06.34-.47.78-.86,1.16-1.31,1.19-1.44,1.7-3.57,3.4-4.36" style="fill: none; stroke: #000; stroke-linecap: round; stroke-linejoin: round; stroke-width: 3px;"/>
        <path d="M138.6055,404.6519c1.25,1.39,3.2,2.09,5.04,1.82,1.05-.16,2.02-.6,3.02-.94,2.87-1,5.95-1.04,8.94-.63,1.5.2,2.99.51,4.47.85,1.21.28,2.38.82,3.64.83,1.41.01,2.71-1.44,3.45-2.5.2-.29.39-.61.39-.96-.01-.44-.31-.82-.62-1.15-.7-.74-1.53-1.28-2.3-1.93.48-.52,1.61-.82,2.28-1.12-.86-.69-1.72-1.37-2.58-2.06-.47-.37-.98-.84-.97-1.44.54-.26,1.07-.53,1.61-.79-.83-.37-1.65-.78-2.3-1.42-.64-.63-1.09-1.52-1.01-2.42" style="fill: none; stroke: #000; stroke-linecap: round; stroke-linejoin: round; stroke-width: 3px;"/>
        <path d="M123.9855,413.3619c-.37,2.53.17,5.14,1.23,7.47.57,1.25,1.28,2.43,2.09,3.55.68.96,1.44,1.88,2.24,2.76.19.21.39.43.65.57.37.19.8.2,1.22.2,12.77,0,25.53.01,38.29.01.82,0,1.65,0,2.41-.31,1.59-.64,2.39-2.4,2.88-4.04.01-.03.02-.07.03-.1.95-3.21,1.3-6.59,1.05-9.94" style="fill: none; stroke: #000; stroke-linecap: round; stroke-linejoin: round; stroke-width: 3px;"/>
        <path d="M133.9955,416.1719c-.01,0-.01.01-.02.01-3.29,1.58-5.79,4.67-6.67,8.2l-.06.24" style="fill: none; stroke: #000; stroke-linecap: round; stroke-linejoin: round; stroke-width: 3px;"/>
        <path d="M169.1855,415.8319c1.32.83,2.4,2.02,3.25,3.33.86,1.31,1.52,2.74,2.14,4.18" style="fill: none; stroke: #000; stroke-linecap: round; stroke-linejoin: round; stroke-width: 3px;"/>
        <line x1="167.7855" y1="392.1519" x2="163.1255" y2="388.3519" style="fill: none; stroke: #000; stroke-linecap: round; stroke-linejoin: round; stroke-width: 3px;"/>
        <path d="M167.1655,404.0819c2.23,3.82,1.53,7.13,1.45,11.55,2.04-2.44,3.34-5.5,3.7-8.67.23-2.13-.01-4.46-1.4-6.1,1,.28,2.11-.75,1.9-1.77-.11-.54-.49-.97-.87-1.38-.9-.98-1.79-1.96-2.69-2.94-.04-.04-.08-.09-.12-.13" style="fill: none; stroke: #000; stroke-linecap: round; stroke-linejoin: round; stroke-width: 3px;"/>
      </g>
    </g>
  </g>
  <g>
    <path d="M53.3265,261.6494s-3.3275,4-3.3275,13.1-9.6824,81.1153-11.9176,84.2888c0,0-2.6956.9758-2.8772,4.3688s-.9081,11.2754-1.6625,17.7459,30.6574,9.7294,49.1279,4.3353c-1.8824-13.9824,2.8609-60.0387,8.4305-66.8932s9.906,16.8005,11.3848,21.2083,10.2759,46.441,12.6288,49.3998c2.3529,2.9588,15.1698,3.8577,31.1731-2.9447,16.0033-6.8024,18.129-15.1922,17.6769-17.273s-1.6813-4.9305-4.0892-7.6417-13.9049-53.0797-16.0255-62.6944-10.3228-29.9194-13.1629-34.6494-71.0557-7.03-77.3596-2.3506Z" style="fill: #122426; stroke-width: 0px;"/>
    <path d="M49.999,283.1994s10.8471,3.5059,20.1412,2.7c1.5088.1203-2.1349,19.125-3.5912,18.8412s-18.9971-2.6471-17.8206-7.7059" style="fill: #122426; stroke: #000; stroke-linecap: round; stroke-linejoin: round; stroke-width: 3px;"/>
    <path d="M70.3173,289.9659s.4573-9.5195-.5183-17.2842" style="fill: #383e50; stroke: #000; stroke-linecap: round; stroke-linejoin: round; stroke-width: 3px;"/>
    <path d="M137.7986,282.1363c-1.1255-2.4265-2.4706-1.4713-4.3538-.4027-2.1172,1.2014-4.3005,2.2861-6.5367,3.2481-.6135.2639-7.4538,2.9238-7.5246,2.7115,1.3213,4.0898,4.9642,6.9174,7.4613,10.4154,1.6307,2.2844,2.7846,4.8827,4.4372,7.1512,3.9042-2.3814,7.8083-4.7627,11.7125-7.1441.1584-.0966.324-.2007.4118-.3641.1407-.2622.0384-.5831-.0659-.8618" style="fill: #122426; stroke: #000; stroke-linecap: round; stroke-linejoin: round; stroke-width: 3px;"/>
    <path d="M53.3265,261.6494s-3.3275,4-3.3275,13.1-9.6824,81.1153-11.9176,84.2888c0,0-2.6956.9758-2.8772,4.3688s-.9081,11.2754-1.6625,17.7459,30.6574,9.7294,49.1279,4.3353c-1.8824-13.9824,2.8609-60.0387,8.4305-66.8932s9.906,16.8005,11.3848,21.2083,10.2759,46.441,12.6288,49.3998c2.3529,2.9588,15.1698,3.8577,31.1731-2.9447,16.0033-6.8024,18.129-15.1922,17.6769-17.273s-1.6813-4.9305-4.0892-7.6417-13.9049-53.0797-16.0255-62.6944-10.3228-29.9194-13.1629-34.6494-71.0557-7.03-77.3596-2.3506Z" style="fill: none; stroke: #000; stroke-linecap: round; stroke-linejoin: round; stroke-width: 3px;"/>
    <path d="M57.699,268.5141s-11.1235,32.2088-16.9,47.8353-.6-2.7-.6-2.7c0,0-5.1671,8.2501-4.925,10.4735s2.0685,4.5882,3.1806,5.8676,2.9209,2.3824,9.3179-7.4559,21.6559-42.8941,20.7765-47.7853-8.1147-8.1088-10.85-6.2353Z" style="fill: #5a646c; stroke: #000; stroke-linecap: round; stroke-linejoin: round; stroke-width: 3px;"/>
    <path d="M111.3935,277.6494s3.7937,21.1383,45.0055,48.85c4.6-9,2.7834-10.8301,2.7035-13.7945-3.5778-2.5319-12.1976-6.3173-12.1976-6.3173,0,0,8.0706,9.6441-.9059,2.5868-8.9765-7.0574-24.7706-36.9985-29.6235-36.2927s-4.9345.5824-4.982,4.9677Z" style="fill: #5a646c; stroke: #000; stroke-linecap: round; stroke-linejoin: round; stroke-width: 3px;"/>
    <path d="M74.4343,386.6823s2.9412-68.8241,10.2353-75.1771,15.2941-8.1176,22.4706,16.8235,17.158,63.0989,17.158,63.0989c0,0-8.1256,1.3225-9.8903-4.6775s-13.3806-70.6567-21.2065-70.4214-9.7082,69.0594-9.7082,69.0594c0,0-6,2.8235-9.0588,1.2941Z" style="fill: #091719; stroke: #000; stroke-linecap: round; stroke-linejoin: round; stroke-width: 3px;"/>
  </g>
  <g id="Torso">
    <path d="M63.1858,193.6176s-8.1706-20.6412,14.1794-25.9676,51.05-9.9932,48.2,21.4578-59.4382,23.804-62.3794,4.5098Z" style="fill: #034346; stroke-width: 0px;"/>
    <path d="M60.5652,186.9118s1.0981,37.1459-2.6,52.6882-4.4,24.5-4.4,24.5c0,0,7.0319,14.732,30.9439,15.5954s46.9563-9.4294,47.9194-13.6359-2.5133-10.4712-1.6133-18.236c.9-7.7647-5.8021-63.3824-5.8021-63.3824" style="fill: #034346; stroke: #000; stroke-linecap: round; stroke-linejoin: round; stroke-width: 3px;"/>
    <g>
      <path d="M105.2633,227.5935c.0095-.6193-.0153-1.2373-.0741-1.8508l-.0185-.0002c-.8239-8.552-7.7798-11.8902-6.2247-20.5764,0,0-11.178,3.3946-2.4429,18.1771.6554,1.1091,1.1739,2.1605,1.5962,3.1681.0432.4026.0683.8079.0581,1.2157-.1502,4.9848-4.1874,9.0377-9.0111,8.9899h-.0002c-4.8185-.0478-8.5006-4.1695-8.2321-9.1438.0402-.6888.1568-1.3729.3471-2.0389l-.0429-.0003c.9738-2.6682,2.5957-5.4596,5.1684-8.2321,14.9883-16.1526,2.4825-24.3292-.1141-24.2146h0s2.5058,3.9079-4.519,16.0582c-1.1428-1.4233-2.1917-4.1053-.2284-8.6377-.0005.0002-10.3448,4.5311-4.9926,17.1391-5.0214,9.4937-3.0337,16.1136-.0245,20.1743.055.0766.1137.1496.17.225.1607.2092.3232.4108.488.6058.5697.6886,1.1954,1.3238,1.8742,1.9017.1966.17.3906.3309.5808.4812.0967.0744.1925.1492.2911.2213,1.102.8317,2.0388,1.3234,2.4879,1.4793l-.0002-.0003c1.8985.8891,4.0174,1.3965,6.275,1.4207.795.0085,1.5726-.0631,2.3404-.1705-.115.0462-.1806.0698-.1806.0698,0,0,.85-.101,2.1343-.4688.8182-.223,1.6127-.5048,2.3778-.8508,3.8481-1.6585,8.8928-5.3023,9.7769-13.1082.0652-.5759.0976-1.1248.1135-1.6599.0053-.1256.0236-.2478.0261-.374h0Z" style="fill: #24deb0; stroke-width: 0px;"/>
      <polygon points="81.5253 200.5077 81.5253 200.5078 81.5253 200.5078 81.5253 200.5077" style="fill: #24deb0; stroke-width: 0px;"/>
    </g>
    <path d="M77.3652,165.15s-7.2382,3.7497-7.8853,4.8146,3.8824,12.6531,22.4118,13.359c18.5294.7059,26.0235-12.0059,26.0235-13.9735s-3.4941-5.7324-18.2-7.0265c-14.7059-1.2941-22.35,2.8265-22.35,2.8265Z" style="fill: #032321; stroke: #000; stroke-linecap: round; stroke-linejoin: round; stroke-width: 3px;"/>
    <path d="M51.3333,253.5s13.7647,27.9331,83.0588,5.8155c0,0,1.4118-1.1765.3529,9.5294s-73.5294,27.962-84.3529-5.7249l.9412-9.62Z" style="fill: #032321; stroke: #000; stroke-linecap: round; stroke-linejoin: round; stroke-width: 3px;"/>
  </g>
  <g id="Cabeza">
    <g id="Cuello">
      <path d="M78.2446,154.6765s.1324,12.6757-2.2294,16.036,12.6271,7.2924,18.7,6.1993c11.7647-2.1176,18.6941-3.0588,14.7-15.0588s2.5312-22.8235,2.5312-22.8235c0,0-32.6429-8.4706-33.7018,15.6471Z" style="fill: #235566; stroke-width: 0px;"/>
      <g style="clip-path: url(#clippath-1);">
        <path d="M100.3152,145.7353s5.6353,6.4647,1.2235,13.8647c-4.4118,7.4-3.4412,5.5-3.4412,5.5,0,0,1.7647.3118,4.7647-1.7177s.3759,10.0895-4.7091,13.2065-39.3203,9.2935-23.8791-21.7653,26.0412-9.0882,26.0412-9.0882Z" style="fill: #a9c7d1; stroke-width: 0px;"/>
      </g>
      <path d="M78.2446,154.6765s.1324,12.6757-2.2294,16.036,12.6271,7.2924,18.7,6.1993c11.7647-2.1176,18.6941-3.0588,14.7-15.0588s2.5312-22.8235,2.5312-22.8235c0,0-32.6429-8.4706-33.7018,15.6471Z" style="fill: none; stroke: #000; stroke-linecap: round; stroke-linejoin: round; stroke-width: 3px;"/>
      <path d="M108.4671,158s-1.5737,8.7728-19.3863,9.9c-12.642.8-10.0421-9.9-10.0421-9.9" style="fill: none; stroke: #000; stroke-linecap: round; stroke-linejoin: round; stroke-width: 3px;"/>
    </g>
    <path d="M39.3554,106.9601s-21.3501-7.5114-26.1074-29.3035c-4.7573-21.7922,6.6998-51.6942,6.6998-51.6942,0,0-.7205,2.8522,12.8922,17.2428,13.6127,14.3906,33.8914,43.4545,6.5154,63.7549Z" style="fill: #235566; stroke: #000; stroke-linecap: round; stroke-linejoin: round; stroke-width: 3px;"/>
    <path d="M118.4417,149.3938s3.3883,11.1535-.9388,18.3668c4.3087-1.258,7.1861-6.0173,7.8827-9.6742,0,0,2.6665,5.1734-.5106,11.279,0,0,18.9666-22.5492,10.9873-45.2128s-28.0881,11.3193-17.4207,25.2412Z" style="fill: #19c9d9; stroke: #000; stroke-linecap: round; stroke-linejoin: round; stroke-width: 3px;"/>
    <path d="M44.8328,113.0916s-24.513-20.0451-6.2472-52.7349c18.2658-32.6898,69.3783-14.7328,69.3783-14.7328,0,0,41.3907,15.1872,33.2494,43.5487s-30.5403,28.7832-30.5403,28.7832c0,0-58.0705,19.7085-65.8401-4.8643Z" style="fill: #235566; stroke: #000; stroke-linecap: round; stroke-linejoin: round; stroke-width: 3px;"/>
    <path d="M108.0476,44.6162s-24.0575-27.235-70.2034-18.1669c0,0,17.8699,7.5006,19.8168,10.9295,0,0-16.7855-3.655-43.9261,11.6772,0,0,17.4078,1.412,20.0794,5.8363,0,0-22.1214,8.3177-28.0764,40.3929,0,0,15.2083-20.4729,26.8373-22.0209,11.629-1.548,35.4204-8.0751,49.396-16.0746s20.6219-5.6481,20.6219-5.6481l5.4544-6.9254Z" style="fill: #19c9d9; stroke: #000; stroke-linecap: round; stroke-linejoin: round; stroke-width: 3px;"/>
    <path d="M99.6054,60.9095s4.4322-18.0414,19.1778-26.2346c14.7456-8.1932,15.7628-24.8851,15.7628-24.8851,0,0,18.3365,22.031,17.7107,47.8847-.6259,25.8537-19.5576,48.9739-19.5576,48.9739" style="fill: #235566; stroke: #000; stroke-linecap: round; stroke-linejoin: round; stroke-width: 3px;"/>
    <path d="M66.9776,103.1972s-2.3278,4.954-27.1873,13.2024c-24.8594,8.2484-12.9139,25.7381-8.9351,29.7456s17.2947,15.4479,44.122,22.6326c3.4225,2.721,4.4479,10.4185,4.4479,10.4185,0,0,4.2228-1.4423,5.3672-5.5268,1.2369,1.5865,1.7994,5.8085,1.7994,5.8085,0,0,49.1349-23.447,47.2306-55.8626,0,0,5.1143-2.001,12.2008.3654-2.6839-6.3012-5.1852-7.1731-5.1852-7.1731,0,0,3.6668-3.7858,10.4447-2.6958-8.2025-7.4686-26.899-10.2705-42.7673-6.4908-10.159,2.4198-25.9724,5.3586-41.5379-4.424Z" style="fill: #a9c7d1; stroke: #000; stroke-linecap: round; stroke-linejoin: round; stroke-width: 3px;"/>
    <path d="M43.8949,123.99s-6.9676,1.6108-8.9945,5.7243-.543,6.4912-.543,6.4912c0,0,9.5017,4.7656,11.9714,5.9283s14.4214-7.8886,14.1708-9.0477.7144-6.6171-4.2153-7.6172-9.0555-1.8765-12.3895-1.4789Z" style="fill: #2a2a2a; stroke: #000; stroke-linecap: round; stroke-linejoin: round; stroke-width: 3px;"/>
    <path d="M141.0243,34.1798s7.7168,28.4052.7949,45.3996c0,0-6.8366-1.5312-6.1866-5.1806" style="fill: #a9c7d1; stroke-width: 0px;"/>
    <path d="M143.7395,39.1289s-.2838-2.9507-3.599-7.6134c0,0,1.3911,21.0121-5.2459,45.0929" style="fill: none; stroke: #000; stroke-linecap: round; stroke-linejoin: round; stroke-width: 3px;"/>
    <path d="M41.8149,88.731c1.8873-2.2721,3.7383-4.6485,5.2291-7.083,1.2114-1.8149,3.8123.1479,2.3928,1.8111-2.1303,2.3049-4.4009,4.2587-6.7505,6.1747-.5855.4821-1.3738-.3387-.8714-.9029h0Z" style="fill: #000; stroke-width: 0px;"/>
    <path d="M101.8216,76.2441c-5.1726.6713-10.4373.5458-15.5046-.7743-.8043-.2043-1.2908-1.0219-1.0865-1.8263.2148-.8724,1.1744-1.3606,2.0074-1.0289,4.5644,1.6744,9.5656,2.255,14.4136,2.0974.9737-.0766,1.1391,1.3929.1701,1.532h0Z" style="fill: #000; stroke-width: 0px;"/>
    <path d="M109.2192,42.6346s-.0605-6.2569,4.4079,2.467" style="fill: none; stroke: #000; stroke-linecap: round; stroke-linejoin: round; stroke-width: 3px;"/>
    <path d="M114.1309,37.8235s1.3571-7.3561,6.6444,1.7159" style="fill: none; stroke: #000; stroke-linecap: round; stroke-linejoin: round; stroke-width: 3px;"/>
    <path d="M79.7815,165.5901c-.4746-1.0219.0794-2.2857.9725-2.9726s2.04-.9311,3.1467-1.1426c4.0388-.7718,8.1559-1.3601,12.2543-1.027" style="fill: none; stroke: #000; stroke-linecap: round; stroke-linejoin: round; stroke-width: 3px;"/>
    <path d="M46.8684,107.4863c-.1102.6399.0143.9525.3794,1.4934,0,0-1.0829-.4713-1.0829-.4713,1.199-.4259,2.409-.8004,3.6133-1.194,2.3222-.7001,8.493-2.7114,10.8736-3.4898.3813-.124.7909.0845.915.4657.1115.3427-.0467.7088-.3566.8693-4.6054,2.3203-9.4886,4.1888-14.5575,5.1881-1.0928.2772-1.3534-.9824-1.4616-1.8643-.0342-.5255.0827-1.014.2388-1.426.3254-.8616,1.6384-.4592,1.4386.4288h0Z" style="fill: #000; stroke-width: 0px;"/>
    <path d="M83.3256,101.953c1.2069,1.2535,3.3709.878,5.1156.9024,2.076-.0441,4.1519-.0272,6.2278-.0102,3.0012.0334,6.3261.1593,9.341.3183.6637.0035,1.2675.2062,1.7006-.0534.0831-.0714.0936-.1165.1158-.1162-.1257-.2866.0048-.6209.2914-.7466.2866-.1257.6209.0048.7466.2914.4371,1.0413-.4548,1.8672-1.1434,2.0196-3.6513.4456-7.4071.3697-11.0559.471-2.0759.0093-4.1519.0185-6.2277-.0331-1.5762-.056-3.4374.0447-4.9931-.7492-.5795-.2814-1.1286-.7486-1.4943-1.3228-.561-.89.7277-1.7972,1.3757-.9712h0Z" style="fill: #000; stroke-width: 0px;"/>
  </g>
  <g>
    <path d="M72.4652,299.2l2.7-5.07.34-.54,1.27.04c1.76,4.43,2.79,9.16,3.04,13.93-2.24.32-4.44-1.04-5.76-2.87s-1.93-4.04-2.51-6.22c.26.24.53.47.79.71l.13.02Z" style="fill: #235566; stroke-width: 0px;"/>
    <path d="M40.0652,307.85c.57.33,1.15.63,1.75.9l-.63,1.04c1.25,5.18,2.95,10.26,5.1,15.14l-.42.19c-1.48-.06-2.94-.45-4.24-1.14l-.09.08c-5.47-5.5-9.1-12.8-10.18-20.48l1.03-.14c.2.79.55,1.55,1.06,2.19,1.34,1.69,3.64,2.54,5.77,2.19l.85.03Z" style="fill: #235566; stroke-width: 0px;"/>
    <path d="M55.0252,330.63c-2.17.5-4.53.16-6.49-.93v-.01c-.8-1.56-1.55-3.15-2.25-4.76-2.15-4.88-3.85-9.96-5.1-15.14l.63-1.04c2.39,1.09,5,1.69,7.63,1.75.88.02,1.77-.02,2.65-.09l.06.82c1.77,5.16,2.82,10.56,3.11,16,.07,1.13.09,2.27.09,3.4h-.33Z" style="fill: #235566; stroke-width: 0px;"/>
    <path d="M55.5552,327.22l-.29.01c-.29-5.44-1.34-10.84-3.11-16l-.06-.82c.63-.04,1.25-.1,1.88-.16,1.52-.15,3.04-.29,4.55-.55,1.27-.21,2.52-.51,3.78-.81.02,0,.04-.01.06-.01l.17.72c.9,5.43,1.08,10.98.51,16.46-.06.66-.14,1.31-.23,1.96l.09.1c-.11.37-.44.64-.81.76-.36.13-.75.13-1.14.13-.77-.01-1.54-.01-2.31-.01-.74,0-1.51-.01-2.16-.36-.53-.27-.93-.84-.93-1.42Z" style="fill: #235566; stroke-width: 0px;"/>
    <path d="M67.2752,307.72l-.04-.34c-.01-.21-.02-.43-.03-.64l.44-.02c2.07,5.4,2.63,11.39,1.58,17.09l-.08.15c-1.55,1.24-3.47,2.01-5.45,2.18l-.65-.08c.57-5.48.39-11.03-.51-16.46l-.17-.72c1.63-.39,3.27-.77,4.91-1.16Z" style="fill: #235566; stroke-width: 0px;"/>
    <path d="M145.7552,307.81c1.92,3.26,3.63,6.66,5.09,10.15l-.19.08c.14.63-.13,1.29-.56,1.76-.44.47-1.02.77-1.61,1.01-.87.35-1.79.6-2.72.62-1.15-3.51-2.47-6.97-3.95-10.36l.08-.56c.64.09,1.34-.11,1.87-.51.74-.57,1.17-1.46,1.41-2.37l.57.16c0,.01.01.01.01.02Z" style="fill: #235566; stroke-width: 0px;"/>
    <path d="M145.7652,321.43c.6,1.82,1.15,3.66,1.66,5.51l.15.11c-1.1,1.63-3.31,2.35-5.24,1.93-1.48-.32-2.78-1.22-3.75-2.4-.31-.38-.59-.8-.82-1.23l.04-.03c-1.04-4.6-1.95-9.22-2.74-13.87l-2.73-.86c.37-.14.72-.33,1.04-.56.92-.67,1.66-1.57,2.61-2.18.96-.61,2.3-.87,3.2-.17.82.64,1.01,1.86,1.85,2.48.26.19.55.3.86.35l-.08.56c1.48,3.39,2.8,6.85,3.95,10.36Z" style="fill: #235566; stroke-width: 0px;"/>
    <path d="M126.4452,308.15l-.05-.53c.29-.04.59-.02.88.08,1.31.45,1.69,2.23,2.91,2.88.66.35,1.44.29,2.15.01l2.73.86c.79,4.65,1.7,9.27,2.74,13.87l-.04.03c.23.43.51.85.82,1.23l-.9.53c-.67,1.08-1.27,2.23-2.13,3.17-.86.95-2.04,1.69-3.32,1.68-1.27-.02-2.57-1-2.63-2.27l-.12.02c-.9-6.62-1.8-13.26-2.69-19.89l-.64-.09c.07-.53.16-1.06.29-1.58Z" style="fill: #235566; stroke-width: 0px;"/>
    <path d="M126.4452,308.15c-.13.52-.22,1.05-.29,1.58-.35,2.59-.1,5.25.02,7.88.14,3.16.06,6.47-1.38,9.29-.49.95-1.19,1.88-2.2,2.26s-2.35-.01-2.71-1.02l-.02.01c-1.96-6.6-3.04-13.47-3.19-20.35l.29-.47c1.81,1.7,4.65,2.28,6.94,1.27.81-.35,1.65-.88,2.49-.98l.05.53Z" style="fill: #235566; stroke-width: 0px;"/>
    <path d="M106.5752,284.98c1.91,3.62,2.1,8.11.5,11.88l-.59.38c-1.99,1.22-4.51,1.55-6.74.86-2.23-.68-4.13-2.35-5.09-4.48l-.02-.07c2.96-1.15,5.33-3.41,7.62-5.62.95-.92,1.91-1.84,2.86-2.76l1.31-.04.06-.18.09.03Z" style="fill: #235566; stroke-width: 0px;"/>
    <path d="M137.3052,277.11l-1.3.02c-8.28,3.36-18.11,2.63-25.81-1.9l-.84-.2c.66-2.8,1.2-5.62,1.62-8.47l.23-.51c3.08,1.33,6.54,1.82,9.93,1.95,5.45.21,10.94-.45,16.2-1.93-.11,3.68-.12,7.36-.03,11.04Z" style="fill: #235566; stroke-width: 0px;"/>
    <path d="M66.7352,277.31c-9.43,3.55-20.2,1.95-27.76-4.71l-.28-.02c.27-4.11,1.17-8.18,2.69-12.01l.16-.52c6.52,2.06,13.24,3.49,20.03,4.27,1.98.23,4.03.4,6.03.32l2.04.66c-1.2,3.88-1.8,7.94-1.8,12l-1.11.01Z" style="fill: #235566; stroke-width: 0px;"/>
    <path d="M146.4652,307.4l-.71.41c0-.01-.01-.01-.01-.02l-.57-.16c-.24.91-.67,1.8-1.41,2.37-.53.4-1.23.6-1.87.51-.31-.05-.6-.16-.86-.35-.84-.62-1.03-1.84-1.85-2.48-.9-.7-2.24-.44-3.2.17-.95.61-1.69,1.51-2.61,2.18-.32.23-.67.42-1.04.56-.71.28-1.49.34-2.15-.01-1.22-.65-1.6-2.43-2.91-2.88-.29-.1-.59-.12-.88-.08-.84.1-1.68.63-2.49.98-2.29,1.01-5.13.43-6.94-1.27-.26-.24-.5-.51-.71-.81l.08-.06c-.3-2.38-.6-4.76-.89-7.14-.09-.72-.19-1.47-.56-2.1-.69-1.21-2.25-1.72-3.64-1.58s-2.67.8-3.91,1.45l-.26-.23c1.6-3.77,1.41-8.26-.5-11.88l-.09-.03c1.13-3.26,2.09-6.57,2.87-9.92l.84.2c7.7,4.53,17.53,5.26,25.81,1.9l1.3-.02c.04,1.69.1,3.38.19,5.07l.23-.01c4.62,7.68,7.62,16.33,8.74,25.23Z" style="fill: #209276; stroke-width: 0px;"/>
    <path d="M68.4152,284.08l.08-.01c3.24,2.35,5.73,5.73,7.01,9.52l-.34.54-2.7,5.07-.13-.02c-.26-.24-.53-.47-.79-.71-1.94-1.73-3.86-3.46-5.8-5.19l-.21.13c.92,4.39,1.48,8.85,1.67,13.33.01.21.02.43.03.64l.04.34c-1.64.39-3.28.77-4.91,1.16-.02,0-.04.01-.06.01-1.26.3-2.51.6-3.78.81-1.51.26-3.03.4-4.55.55-.63.06-1.25.12-1.88.16-.88.07-1.77.11-2.65.09-2.63-.06-5.24-.66-7.63-1.75-.6-.27-1.18-.57-1.75-.9l-.85-.03c-2.13.35-4.43-.5-5.77-2.19-.51-.64-.86-1.4-1.06-2.19-.33-1.3-.22-2.71.38-3.91l.24-.57c1.85-6.23,3.7-12.46,5.55-18.68l.36-.1c-.32-2.52-.39-5.07-.22-7.6l.28.02c7.56,6.66,18.33,8.26,27.76,4.71l1.11-.01c0,2.27.19,4.54.57,6.78Z" style="fill: #209276; stroke-width: 0px;"/>
    <path d="M41.3852,260.57c-1.52,3.83-2.42,7.9-2.69,12.01-.17,2.53-.1,5.08.22,7.6" style="fill: none; stroke: #000; stroke-linecap: round; stroke-linejoin: round; stroke-width: 3px;"/>
    <path d="M38.5552,280.28c-1.85,6.22-3.7,12.45-5.55,18.68" style="fill: none; stroke: #000; stroke-linecap: round; stroke-linejoin: round; stroke-width: 3px;"/>
    <path d="M32.7652,299.53c-.6,1.2-.71,2.61-.38,3.91.2.79.55,1.55,1.06,2.19,1.34,1.69,3.64,2.54,5.77,2.19" style="fill: none; stroke: #000; stroke-linecap: round; stroke-linejoin: round; stroke-width: 3px;"/>
    <path d="M39.5052,307.51c.19.12.37.23.56.34.57.33,1.15.63,1.75.9,2.39,1.09,5,1.69,7.63,1.75.88.02,1.77-.02,2.65-.09.63-.04,1.25-.1,1.88-.16,1.52-.15,3.04-.29,4.55-.55,1.27-.21,2.52-.51,3.78-.81.02,0,.04-.01.06-.01,1.63-.39,3.27-.77,4.91-1.16" style="fill: none; stroke: #000; stroke-linecap: round; stroke-linejoin: round; stroke-width: 3px;"/>
    <path d="M67.2352,307.38c-.01-.21-.02-.43-.03-.64-.19-4.48-.75-8.94-1.67-13.33" style="fill: none; stroke: #000; stroke-linecap: round; stroke-linejoin: round; stroke-width: 3px;"/>
    <path d="M65.7452,293.28c1.94,1.73,3.86,3.46,5.8,5.19.26.24.53.47.79.71" style="fill: none; stroke: #000; stroke-linecap: round; stroke-linejoin: round; stroke-width: 3px;"/>
    <path d="M72.4652,299.2l2.7-5.07" style="fill: none; stroke: #000; stroke-linecap: round; stroke-linejoin: round; stroke-width: 3px;"/>
    <path d="M75.5052,293.59c-1.28-3.79-3.77-7.17-7.01-9.52" style="fill: none; stroke: #000; stroke-linecap: round; stroke-linejoin: round; stroke-width: 3px;"/>
    <path d="M68.4152,284.1v-.02c-.38-2.24-.57-4.51-.57-6.78,0-4.06.6-8.12,1.8-12" style="fill: none; stroke: #000; stroke-linecap: round; stroke-linejoin: round; stroke-width: 3px;"/>
    <path d="M110.9752,266.56c-.42,2.85-.96,5.67-1.62,8.47-.78,3.35-1.74,6.66-2.87,9.92l-.06.18" style="fill: none; stroke: #000; stroke-linecap: round; stroke-linejoin: round; stroke-width: 3px;"/>
    <path d="M106.5752,284.98c1.91,3.62,2.1,8.11.5,11.88" style="fill: none; stroke: #000; stroke-linecap: round; stroke-linejoin: round; stroke-width: 3px;"/>
    <path d="M107.3352,297.09c1.24-.65,2.52-1.31,3.91-1.45s2.95.37,3.64,1.58c.37.63.47,1.38.56,2.1.29,2.38.59,4.76.89,7.14" style="fill: none; stroke: #000; stroke-linecap: round; stroke-linejoin: round; stroke-width: 3px;"/>
    <path d="M116.2152,306.47c.01.02.02.03.04.05.21.3.45.57.71.81,1.81,1.7,4.65,2.28,6.94,1.27.81-.35,1.65-.88,2.49-.98.29-.04.59-.02.88.08,1.31.45,1.69,2.23,2.91,2.88.66.35,1.44.29,2.15.01.37-.14.72-.33,1.04-.56.92-.67,1.66-1.57,2.61-2.18.96-.61,2.3-.87,3.2-.17.82.64,1.01,1.86,1.85,2.48.26.19.55.3.86.35.64.09,1.34-.11,1.87-.51.74-.57,1.17-1.46,1.41-2.37l.03-.12" style="fill: none; stroke: #000; stroke-linecap: round; stroke-linejoin: round; stroke-width: 3px;"/>
    <path d="M137.3352,265.97v.1c-.11,3.68-.12,7.36-.03,11.04.04,1.69.1,3.38.19,5.07v.03" style="fill: none; stroke: #000; stroke-linecap: round; stroke-linejoin: round; stroke-width: 3px;"/>
    <path d="M137.7252,282.17c4.62,7.68,7.62,16.33,8.74,25.23" style="fill: none; stroke: #000; stroke-linecap: round; stroke-linejoin: round; stroke-width: 3px;"/>
    <path d="M31.3552,303.58c1.08,7.68,4.71,14.98,10.18,20.48" style="fill: none; stroke: #000; stroke-linecap: round; stroke-linejoin: round; stroke-width: 3px;"/>
    <path d="M41.6252,323.98c1.3.69,2.76,1.08,4.24,1.14" style="fill: none; stroke: #000; stroke-linecap: round; stroke-linejoin: round; stroke-width: 3px;"/>
    <path d="M41.1852,309.79c1.25,5.18,2.95,10.26,5.1,15.14.7,1.61,1.45,3.2,2.25,4.76" style="fill: none; stroke: #000; stroke-linecap: round; stroke-linejoin: round; stroke-width: 3px;"/>
    <path d="M48.5152,329.69c.01,0,.01.01.02.01,1.96,1.09,4.32,1.43,6.49.93" style="fill: none; stroke: #000; stroke-linecap: round; stroke-linejoin: round; stroke-width: 3px;"/>
    <path d="M55.3552,330.68v-.05c0-1.13-.02-2.27-.09-3.4-.29-5.44-1.34-10.84-3.11-16" style="fill: none; stroke: #000; stroke-linecap: round; stroke-linejoin: round; stroke-width: 3px;"/>
    <path d="M55.6252,326.82c-.05.13-.07.27-.07.4,0,.58.4,1.15.93,1.42.65.35,1.42.36,2.16.36.77,0,1.54,0,2.31.01.39,0,.78,0,1.14-.13.37-.12.7-.39.81-.76" style="fill: none; stroke: #000; stroke-linecap: round; stroke-linejoin: round; stroke-width: 3px;"/>
    <path d="M62.8152,328.02c.09-.65.17-1.3.23-1.96.57-5.48.39-11.03-.51-16.46" style="fill: none; stroke: #000; stroke-linecap: round; stroke-linejoin: round; stroke-width: 3px;"/>
    <path d="M63.6952,326.14c1.98-.17,3.9-.94,5.45-2.18" style="fill: none; stroke: #000; stroke-linecap: round; stroke-linejoin: round; stroke-width: 3px;"/>
    <path d="M69.2252,323.81c1.05-5.7.49-11.69-1.58-17.09" style="fill: none; stroke: #000; stroke-linecap: round; stroke-linejoin: round; stroke-width: 3px;"/>
    <path d="M76.7752,293.63c1.76,4.43,2.79,9.16,3.04,13.93" style="fill: none; stroke: #000; stroke-linecap: round; stroke-linejoin: round; stroke-width: 3px;"/>
    <path d="M79.8552,307.56h-.04c-2.24.32-4.44-1.04-5.76-2.87s-1.93-4.04-2.51-6.22c-.01-.02-.01-.05-.02-.07" style="fill: none; stroke: #000; stroke-linecap: round; stroke-linejoin: round; stroke-width: 3px;"/>
    <path d="M105.1152,285.17c-.95.92-1.91,1.84-2.86,2.76-2.29,2.21-4.66,4.47-7.62,5.62" style="fill: none; stroke: #000; stroke-linecap: round; stroke-linejoin: round; stroke-width: 3px;"/>
    <path d="M94.6552,293.62c.96,2.13,2.86,3.8,5.09,4.48,2.23.69,4.75.36,6.74-.86" style="fill: none; stroke: #000; stroke-linecap: round; stroke-linejoin: round; stroke-width: 3px;"/>
    <path d="M145.7452,307.79c0,.01.01.01.01.02,1.92,3.26,3.63,6.66,5.09,10.15.03.06.05.12.08.18" style="fill: none; stroke: #000; stroke-linecap: round; stroke-linejoin: round; stroke-width: 3px;"/>
    <path d="M150.6552,318.04c.14.63-.13,1.29-.56,1.76-.44.47-1.02.77-1.61,1.01-.87.35-1.79.6-2.72.62-.31,0-.62-.01-.93-.06" style="fill: none; stroke: #000; stroke-linecap: round; stroke-linejoin: round; stroke-width: 3px;"/>
    <path d="M141.8152,311.07c1.48,3.39,2.8,6.85,3.95,10.36.6,1.82,1.15,3.66,1.66,5.51" style="fill: none; stroke: #000; stroke-linecap: round; stroke-linejoin: round; stroke-width: 3px;"/>
    <path d="M147.6552,326.95c-.02.03-.04.07-.08.1-1.1,1.63-3.31,2.35-5.24,1.93-1.48-.32-2.78-1.22-3.75-2.4-.31-.38-.59-.8-.82-1.23-.01-.01-.01-.02-.02-.03" style="fill: none; stroke: #000; stroke-linecap: round; stroke-linejoin: round; stroke-width: 3px;"/>
    <path d="M137.8052,325.32c-1.04-4.6-1.95-9.22-2.74-13.87" style="fill: none; stroke: #000; stroke-linecap: round; stroke-linejoin: round; stroke-width: 3px;"/>
    <path d="M116.6752,307.8c.15,6.88,1.23,13.75,3.19,20.35,0,.01.01.02.01.03" style="fill: none; stroke: #000; stroke-linecap: round; stroke-linejoin: round; stroke-width: 3px;"/>
    <path d="M119.8852,328.14c.36,1.01,1.7,1.4,2.71,1.02s1.71-1.31,2.2-2.26c1.44-2.82,1.52-6.13,1.38-9.29-.12-2.63-.37-5.29-.02-7.88.07-.53.16-1.06.29-1.58" style="fill: none; stroke: #000; stroke-linecap: round; stroke-linejoin: round; stroke-width: 3px;"/>
    <path d="M126.7952,309.82c.89,6.63,1.79,13.27,2.69,19.89v.02" style="fill: none; stroke: #000; stroke-linecap: round; stroke-linejoin: round; stroke-width: 3px;"/>
    <path d="M129.6052,329.69c.06,1.27,1.36,2.25,2.63,2.27,1.28.01,2.46-.73,3.32-1.68.86-.94,1.46-2.09,2.13-3.17" style="fill: none; stroke: #000; stroke-linecap: round; stroke-linejoin: round; stroke-width: 3px;"/>
    <path d="M38.9752,272.6c7.56,6.66,18.33,8.26,27.76,4.71" style="fill: none; stroke: #000; stroke-linecap: round; stroke-linejoin: round; stroke-width: 3px;"/>
    <path d="M110.1952,275.23c7.7,4.53,17.53,5.26,25.81,1.9" style="fill: none; stroke: #000; stroke-linecap: round; stroke-linejoin: round; stroke-width: 3px;"/>
    <g>
      <g>
        <path d="M136.5209,260.9825l-.13-.49c.34-1.29.47-2.63.39-3.96l.44-.04c.12-.58.23-1.17.34-1.75l1.71.33c.91,1.37,1.82,2.75,2.74,4.12l.08.15c.29,3.63-.03,7.31-.93,10.83l.02.04c-.26,1.58-1.97,2.43-3.49,2.95-5.16,1.78-10.64,2.78-16.09,2.36-5.43-.42-10.82-2.33-14.95-5.89l.19-.23c-.92-3.83-1.22-7.81-.89-11.73l.11-.05c.94-.48,1.87-.96,2.81-1.43l1.94-.09c.05.87.1,1.74.17,2.61l-1.17,1.08c5.25,2.14,11.05,2.33,16.72,2.5,3.38.1,7.01.13,9.99-1.31Z" style="fill: #032321; stroke-width: 0px;"/>
        <path d="M136.7809,256.5325c.08,1.33-.05,2.67-.39,3.96l.13.49c-2.98,1.44-6.61,1.41-9.99,1.31-5.67-.17-11.47-.36-16.72-2.5l1.17-1.08c-.07-.87-.12-1.74-.17-2.61-.76-13.6.59-27.33,3.97-40.52,2.52-9.83,6.19-19.74,5.18-29.81l.91-.1c.31-6.07-.44-12.2-2.22-18.01l.19-.06c3.36,2.38,6.91,4.49,10.6,6.32l1.61-.04c7.94,14.68,11.06,31.92,8.76,48.45l.19.05c.36,10.83-.46,21.7-2.44,32.36-.11.58-.22,1.17-.34,1.75l-.44.04Z" style="fill: #034346; stroke-width: 0px;"/>
        <path d="M73.8509,266.2325l-.03.02c-.13,4.02-.26,8.05-.4,12.07l-.15-.01c-1.18,1.98-3.33,3.24-5.57,3.81-2.23.57-4.57.53-6.88.45-4.62-.16-9.26-.48-13.79-1.42-4.53-.95-8.96-2.53-12.83-5.06l-.05.02c-1.53-3.16-2.37-6.64-2.44-10.15l.23-.12c.76-.54,1.53-1.07,2.3-1.61l1.76-.05c0,.42.01.84.03,1.26l.43.37c.5,1.31,1.66,2.25,2.86,2.96,2.65,1.57,5.7,2.32,8.76,2.68,3.05.35,6.14.32,9.21.43,2.35.09,4.73.25,7.02-.28,2.28-.53,4.52-1.88,5.46-4.03l.19-.01c.1-1.09.17-2.18.2-3.27l1.62.06c.86.41,1.58,1.07,2.07,1.88Z" style="fill: #032321; stroke-width: 0px;"/>
        <path d="M71.2209,168.1325c-1.49,7.1-2.98,14.18-4.48,21.28l-.07.85c.08,10.06.15,20.14-.74,30.17-.35,4.02-.87,8.05-.79,12.09s.78,8.15,2.71,11.7l-.1,1.44c1.81,6.02,2.64,12.35,2.41,18.63-.03,1.09-.1,2.18-.2,3.27l-.19.01c-.94,2.15-3.18,3.5-5.46,4.03-2.29.53-4.67.37-7.02.28-3.07-.11-6.16-.08-9.21-.43-3.06-.36-6.11-1.11-8.76-2.68-1.2-.71-2.36-1.65-2.86-2.96l-.43-.37c-.02-.42-.03-.84-.03-1.26-.93-30.13,5.03-60.44,17.29-87.97l1.25-1.11c4.26-1.89,11.51-5.27,15.77-7.16l.91.19Z" style="fill: #034346; stroke-width: 0px;"/>
      </g>
      <g>
        <path d="M70.3109,167.9425c-4.26,1.89-11.51,5.27-15.77,7.16" style="fill: none; stroke: #000; stroke-linecap: round; stroke-linejoin: round; stroke-width: 3px;"/>
        <path d="M118.8409,167.6025c3.36,2.38,6.91,4.49,10.6,6.32" style="fill: none; stroke: #000; stroke-linecap: round; stroke-linejoin: round; stroke-width: 3px;"/>
        <path d="M53.2909,176.2125c-12.26,27.53-18.22,57.84-17.29,87.97,0,.42.01.84.03,1.26" style="fill: none; stroke: #000; stroke-linecap: round; stroke-linejoin: round; stroke-width: 3px;"/>
        <path d="M34.2409,264.2325c-.77.54-1.54,1.07-2.3,1.61" style="fill: none; stroke: #000; stroke-linecap: round; stroke-linejoin: round; stroke-width: 3px;"/>
        <path d="M31.7109,265.9625c.07,3.51.91,6.99,2.44,10.15" style="fill: none; stroke: #000; stroke-linecap: round; stroke-linejoin: round; stroke-width: 3px;"/>
        <path d="M34.2009,276.0925c3.87,2.53,8.3,4.11,12.83,5.06,4.53.94,9.17,1.26,13.79,1.42,2.31.08,4.65.12,6.88-.45,2.24-.57,4.39-1.83,5.57-3.81" style="fill: none; stroke: #000; stroke-linecap: round; stroke-linejoin: round; stroke-width: 3px;"/>
        <path d="M73.4209,278.3725v-.05c.14-4.02.27-8.05.4-12.07" style="fill: none; stroke: #000; stroke-linecap: round; stroke-linejoin: round; stroke-width: 3px;"/>
        <path d="M73.8509,266.2325c-.49-.81-1.21-1.47-2.07-1.88" style="fill: none; stroke: #000; stroke-linecap: round; stroke-linejoin: round; stroke-width: 3px;"/>
        <path d="M36.4609,265.8125c.5,1.31,1.66,2.25,2.86,2.96,2.65,1.57,5.7,2.32,8.76,2.68,3.05.35,6.14.32,9.21.43,2.35.09,4.73.25,7.02-.28,2.28-.53,4.52-1.88,5.46-4.03" style="fill: none; stroke: #000; stroke-linecap: round; stroke-linejoin: round; stroke-width: 3px;"/>
        <path d="M69.9609,267.5625c.1-1.09.17-2.18.2-3.27.23-6.28-.6-12.61-2.41-18.63" style="fill: none; stroke: #000; stroke-linecap: round; stroke-linejoin: round; stroke-width: 3px;"/>
        <path d="M67.8509,244.2225c-1.93-3.55-2.63-7.66-2.71-11.7s.44-8.07.79-12.09c.89-10.03.82-20.11.74-30.17" style="fill: none; stroke: #000; stroke-linecap: round; stroke-linejoin: round; stroke-width: 3px;"/>
        <path d="M119.8909,185.1525c.03.21.05.42.07.62,1.01,10.07-2.66,19.98-5.18,29.81-3.38,13.19-4.73,26.92-3.97,40.52.05.87.1,1.74.17,2.61" style="fill: none; stroke: #000; stroke-linecap: round; stroke-linejoin: round; stroke-width: 3px;"/>
        <path d="M108.8709,256.1925c-.94.47-1.87.95-2.81,1.43" style="fill: none; stroke: #000; stroke-linecap: round; stroke-linejoin: round; stroke-width: 3px;"/>
        <path d="M105.9509,257.6725c-.33,3.92-.03,7.9.89,11.73" style="fill: none; stroke: #000; stroke-linecap: round; stroke-linejoin: round; stroke-width: 3px;"/>
        <path d="M106.6309,269.6225q.01.01.02.01c4.13,3.56,9.52,5.47,14.95,5.89,5.45.42,10.93-.58,16.09-2.36,1.52-.52,3.23-1.37,3.49-2.95" style="fill: none; stroke: #000; stroke-linecap: round; stroke-linejoin: round; stroke-width: 3px;"/>
        <path d="M141.1609,270.1725c.9-3.52,1.22-7.2.93-10.83" style="fill: none; stroke: #000; stroke-linecap: round; stroke-linejoin: round; stroke-width: 3px;"/>
        <path d="M109.8109,259.7925c5.25,2.14,11.05,2.33,16.72,2.5,3.38.1,7.01.13,9.99-1.31.54-.26,1.05-.56,1.54-.92" style="fill: none; stroke: #000; stroke-linecap: round; stroke-linejoin: round; stroke-width: 3px;"/>
        <path d="M142.0109,259.1925c-.92-1.37-1.83-2.75-2.74-4.12" style="fill: none; stroke: #000; stroke-linecap: round; stroke-linejoin: round; stroke-width: 3px;"/>
        <path d="M131.0509,173.8825c7.94,14.68,11.06,31.92,8.76,48.45" style="fill: none; stroke: #000; stroke-linecap: round; stroke-linejoin: round; stroke-width: 3px;"/>
        <path d="M140.0009,222.3825c.36,10.83-.46,21.7-2.44,32.36-.11.58-.22,1.17-.34,1.75" style="fill: none; stroke: #000; stroke-linecap: round; stroke-linejoin: round; stroke-width: 3px;"/>
        <path d="M136.7409,256.0825c.01.15.03.3.04.45.08,1.33-.05,2.67-.39,3.96" style="fill: none; stroke: #000; stroke-linecap: round; stroke-linejoin: round; stroke-width: 3px;"/>
      </g>
    </g>
  </g>
</svg>