<?xml version="1.0" encoding="UTF-8"?><svg id="a" xmlns="http://www.w3.org/2000/svg" xmlns:xlink="http://www.w3.org/1999/xlink" viewBox="0 0 223.0952 429.85"><defs><clipPath id="c"><path d="m32.893,388.6117s-3.619,4.7119-14.119,7.2707-12.8617,3.2841-14.9897,8.0391-1.1218,15.2514,3.7559,18.255,9.2961,6.8093,24.775,3.6735,17.3281-5.1141,27.35-2.441,18.9147,5.344,20.6-7.209,1.0676-16.6706-2.55-17.7,4.798-10.0059,4.0755-14.65c-2.2437.99-.6514,3.9794-10.0399,4.3s-9.9179.603-16.4473-.95-12.2621-2.859-22.4105,1.4116" style="fill:#2e7b5b; stroke:#000; stroke-linecap:round; stroke-linejoin:round; stroke-width:3px;"/></clipPath><clipPath id="g"><path d="m79.0504,153.9109s.1579,12.6754-2.1971,16.0405,12.6418,7.2669,18.7125,6.1616c11.7604-2.1414,18.6879-3.0965,14.6696-15.0884-4.0183-11.9919,2.4852-22.8286,2.4852-22.8286,0,0-32.66-8.4048-33.6702,15.715Z" style="fill:none; stroke-width:0px;"/></clipPath></defs><g id="b"><path d="m78.7672,166.7442s25.461-11.4216,49.461-7.1863c24,4.2353,9.8933,14.0765,7.5349,27.0382-2.3584,12.9618-28.7452,26.7852-36.9636,23.0499-8.2184-3.7352-23.3537-25.6121-20.0323-42.9018Z" style="fill:#034346; stroke:#000; stroke-linecap:round; stroke-linejoin:round; stroke-width:3px;"/><path d="m85.8952,170.3814s11.7448-9.4444,28.333-7.781c16.5882,1.6634,20.3501,1.9886,13.7051,4.5772-7.8258,3.0485-14.1176.1683-15.5294,7.1765s3.7067,28.3186-7.5874,28.173c-11.2941-.1456-21.9601-21.3221-18.9212-32.1456Z" style="fill:#032321; stroke:#000; stroke-linecap:round; stroke-linejoin:round; stroke-width:3px;"/></g><path d="m168.4894,369.5475c7.3957,4.7331,16.2801,7.1306,25.058,6.7249l.0371.1598c-.2224.0504-.4448.1008-.6813.1526,3.4684.9433,5.0023,1.4383,5.15,1.4947-.5006.3266-16.8893,10.5015-37.883-4.9954-21.3298-15.7337-39.7984-72.2517-39.7984-72.2517l2.1487-4.2128c8.8969,18.4832,15.9991,38.0035,28.2447,54.4219,2.1687,2.8908,4.4916,5.6881,7.2336,8.0532,5.1256,4.4104,11.4809,7.1005,17.723,9.7237-2.3389.7072-4.8081.9584-7.2324.7291Z" style="fill:#a9c7d1; stroke-width:0px;"/><path d="m209.3309,368.6016c-2.4525,2.2177-6.0538,5.5367-15.7464,7.8306l-.0371-.1598c-8.7779.4058-17.6622-1.9917-25.058-6.7249,2.4243.2293,4.8935-.0218,7.2324-.7291-6.2421-2.6231-12.5975-5.3133-17.723-9.7237-2.742-2.3651-5.0649-5.1625-7.2336-8.0532-12.2456-16.4184-19.3478-35.9388-28.2447-54.4219l14.1982-27.8786s19.5065,46.0271,31.0954,57.7427c11.5966,11.7219,24.7573,27.119,43.1904,31.8768-4.9057,3.8529-11.8259,6.0149-11.8259,6.0149,0,0,3.676,1.4628,10.1523,4.2262Z" style="fill:#235566; stroke-width:0px;"/><path d="m198.0673,378.0781l-.0141.0014c-.5006.3266-16.8893,10.5015-37.883-4.9954-21.3298-15.7337-39.7984-72.2517-39.7984-72.2517l2.1487-4.2128,14.1982-27.8786s19.5065,46.0271,31.0954,57.7427c11.5966,11.7219,24.7573,27.119,43.1904,31.8768-4.9057,3.8529-11.8259,6.0149-11.8259,6.0149,0,0,3.676,1.4628,10.1523,4.2262-2.4525,2.2177-6.0538,5.5367-15.7464,7.8306-.2224.0504-.4448.1008-.6813.1526,3.4684.9433,5.0023,1.4383,5.15,1.4947" style="fill:none; stroke:#000; stroke-linecap:round; stroke-linejoin:round; stroke-width:3px;"/><path d="m119.9064,291.3072c.8986,1.7586,1.7627,3.5278,2.6141,5.3124,8.8969,18.4832,15.9991,38.0035,28.2447,54.4219,2.1687,2.8908,4.4916,5.6881,7.2336,8.0532,5.1256,4.4104,11.4809,7.1005,17.723,9.7237-2.3389.7072-4.8081.9584-7.2324.7291,7.3957,4.7331,16.2801,7.1306,25.058,6.7249" style="fill:none; stroke:#000; stroke-linecap:round; stroke-linejoin:round; stroke-width:3px;"/><path d="m48.6652,354.8529s-3.2077,14.1471-3.3324,20.2721c-.1392,6.8418-2.9118,16.7309,11.3824,16.45s23.9294,5.4544,22.95-12.3691,4.9503-21.5.362-27.5882-29.925-4.5975-31.362,3.2353Z" style="fill:#235566; stroke:#000; stroke-linecap:round; stroke-linejoin:round; stroke-width:3px;"/><path d="m32.893,388.6117s-3.619,4.7119-14.119,7.2707-12.8617,3.2841-14.9897,8.0391-1.1218,15.2514,3.7559,18.255,9.2961,6.8093,24.775,3.6735,17.3281-5.1141,27.35-2.441,18.9147,5.344,20.6-7.209,1.0676-16.6706-2.55-17.7,4.798-10.0059,4.0755-14.65c-2.2437.99-.6514,3.9794-10.0399,4.3s-9.9179.603-16.4473-.95-12.2621-2.859-22.4105,1.4116" style="fill:#2e7b5b;"/><g style="clip-path:url(#c);"><path d="m22.3536,385.8235s19.7784-2.0294,25.5259,8.4265-6.0643,6.7506-6.0643,6.7506c0,0-4.6763,3.5935-5.6528-.8506s-14.653,10.1971-12.4472.45c-3.8824.4239-42.8703,8.1647-1.3616-14.7765Z" style="fill:#193425; stroke-width:0px;"/><path d="m6.9152,397.4412s-2.8294,6.275,2.75,5.6963,15.3441-3.9875,15.3441-3.9875c0,0-1.3529,3.7853,1.2353,5.95,2-2.1294,2.7647-6.1353,9.8824-5.75.9412,1.3265,2.2882,4.6,2.2882,4.6,0,0,5.2412-6.2971,17.9471-1.05s21.4176,2.1,28.0029-4.4,5.6147,14.875,5.6147,14.875c0,0-9.1995,4.8003-21.4388.3597s-21.3259-10.0347-21.3259-10.0347c0,0-3.3824,5.1529-11.8529,6.9176s-1.2971-6.9176-1.2971-6.9176c0,0-5.7382,7.4941-12.5,7.25s-.8269-5.85-.8269-5.85c0,0-21.6114,10.9059-19.0231-2.2" style="fill:#42abe4; stroke:#000; stroke-linecap:round; stroke-linejoin:round; stroke-width:3px;"/><path d="m23.0976,426.7206s-2.5706-3.6618-.9324-6.1324c2.8273.0768,9.6676-.2647,18.3147-2.25s16.325-2.2616,21.4412-1.3235,18.3441-.8147,18.3441-.8147c0,0-.3403,9.2386-7.8422,9.3943s-18.7519-5.3149-28.1048-2.1825-21.2206,3.3088-21.2206,3.3088Z" style="fill:#2b4d3c; stroke-width:0px;"/><path d="m3.8509,410.7059c2.1731,1.9853,4.7319,8.1176,17.2613,9.75-.3529,1.6324.6618,6.7774.6618,6.7774,0,0-16.5647-1.697-17.4588-8.5167s-.4643-8.0108-.4643-8.0108Z" style="fill:#53b791; stroke-width:0px;"/></g><path d="m32.893,388.6117s-3.619,4.7119-14.119,7.2707-12.8617,3.2841-14.9897,8.0391-1.1218,15.2514,3.7559,18.255,9.2961,6.8093,24.775,3.6735,17.3281-5.1141,27.35-2.441,18.9147,5.344,20.6-7.209,1.0676-16.6706-2.55-17.7,4.798-10.0059,4.0755-14.65c-2.2437.99-.6514,3.9794-10.0399,4.3s-9.9179.603-16.4473-.95-12.2621-2.859-22.4105,1.4116" style="fill:none; stroke:#000; stroke-linecap:round; stroke-linejoin:round; stroke-width:3px;"/><path d="m3.2634,409.3328c3.6735,5.8263,9.8919,10.032,16.7011,11.0692,9.3295,1.4211,18.503-2.8767,27.8791-3.9481,2.3434-.2678,4.7099-.333,7.0645-.1947,4.2636.2505,8.465,1.1647,12.7251,1.4689s8.7247-.0538,12.4409-2.1588" style="fill:none; stroke:#000; stroke-linecap:round; stroke-linejoin:round; stroke-width:3px;"/><path d="m32.893,388.6117s-.9164-6.5681,3.4235-8.9575,8.0458-1.5071,10.3987,2.7282,1.0071,16.1176,1.0071,16.1176c0,0-5.5339-9.1296-14.8294-9.8883Z" style="fill:#5ea28d; stroke:#000; stroke-linecap:round; stroke-linejoin:round; stroke-width:3px;"/><path d="m22.3536,427.1091c-.4427-.1922-.6455-.6991-.7746-1.1642-.3209-1.1564-.4567-2.364-.4007-3.5628.0108-.2311.0335-.4755.1701-.6623" style="fill:none; stroke:#000; stroke-linecap:round; stroke-linejoin:round; stroke-width:3px;"/><path d="m117.5976,357.0588s3.5206,17.1353,17.6426,33.1412,27.8515,1.8471,29.075-1.25-3.6-34.9794-9.3647-42.1559-39.2941-7.1176-37.3529,10.2647Z" style="fill:#235566; stroke:#000; stroke-linecap:round; stroke-linejoin:round; stroke-width:3px;"/><path d="m172.8852,396.34c3.65,3.25,5.03,8.57,4.24,13.4-.16.98-.41,1.96-.93,2.8-.21.35-.47.66-.75.95-.86.85-2,1.42-3.18,1.74-1.01.27-2.04.37-3.09.42-.18.01-.37.01-.56.02v-.03c2.04-2.45,3.34-5.51,3.7-8.68.24-2.13-.01-4.46-1.4-6.1,1,.28,2.11-.75,1.9-1.76-.11-.54-.49-.98-.87-1.38-.89-.98-1.78-1.96-2.69-2.94l.7-.64c.99.71,2.02,1.38,2.93,2.2Z" style="fill:#2e7b5b; stroke-width:0px;"/><path d="m176.0752,413.54c.25,3.34-.1,6.72-1.05,9.93l-.45-.13c-.62-1.44-1.28-2.87-2.14-4.18-.85-1.31-1.93-2.5-3.25-3.33l-.01-.18c1.05-.05,2.08-.15,3.09-.42,1.18-.32,2.32-.89,3.18-1.74l.63.05Z" style="fill:#2b4d3c; stroke-width:0px;"/><path d="m175.0252,423.47c-.01.03-.02.07-.03.1-.49,1.64-1.29,3.41-2.88,4.05-.76.3-1.59.3-2.41.3-12.76,0-25.52-.01-38.29-.01-.41,0-.85,0-1.22-.2-.26-.14-.46-.35-.65-.57-.79-.88-1.55-1.79-2.24-2.75.88-3.53,3.39-6.62,6.66-8.2,1.56-.12,3.13-.14,4.7-.16.58-.01,1.16-.01,1.74-.02,9.01-.1,18.01-.22,27.02-.32.4,0,.8-.01,1.19-.02.19-.01.38-.01.56-.02l.01.18c1.32.83,2.4,2.02,3.25,3.33.86,1.31,1.52,2.74,2.14,4.18l.45.13Z" style="fill:#53b791; stroke-width:0px;"/><path d="m169.2552,394.78c.91.98,1.8,1.96,2.69,2.94.38.4.76.84.87,1.38.21,1.01-.9,2.04-1.9,1.76,1.39,1.64,1.64,3.97,1.4,6.1-.36,3.17-1.66,6.23-3.7,8.68.08-4.42.78-7.74-1.45-11.56.2-.29.39-.61.39-.96-.01-.44-.31-.82-.62-1.14-.7-.75-1.53-1.29-2.3-1.94.48-.52,1.61-.81,2.28-1.12-.86-.69-1.72-1.37-2.57-2.06-.48-.37-.99-.84-.98-1.44.54-.26,1.07-.53,1.61-.79-.83-.37-1.65-.78-2.3-1.42-.64-.63-1.09-1.51-1.01-2.42h-.01c.34-.82.59-1.68.73-2.56l.74.12,4.66,3.8c.08.25.27.44.46.61.54.5,1.12.95,1.71,1.38l-.7.64Z" style="fill:#42abe4; stroke-width:0px;"/><path d="m167.1652,404.08c2.23,3.82,1.53,7.14,1.45,11.56v.03c-.39.01-.79.02-1.19.02-9.01.1-18.01.22-27.02.32l-.01-1.21c.13-.02.16-.19.15-.31-.09-1.41-.73-2.71-1.28-4-.77-1.79-1.39-3.65-1.85-5.54l1.19-.29c1.25,1.38,3.2,2.08,5.04,1.81,1.05-.16,2.02-.6,3.02-.94,2.87-1,5.95-1.04,8.94-.63,1.5.2,2.99.51,4.47.85,1.21.28,2.38.82,3.65.83,1.4.01,2.7-1.44,3.44-2.5Z" style="fill:#5ea28d; stroke-width:0px;"/><path d="m164.6252,379.66c3.57,2.3,5.09,7.32,3.4,11.23-.17.4-.38.85-.24,1.26l-4.66-3.8-.74-.12c.21-1.19.23-2.4.08-3.6l.2-.15c.94-.17,1.63-1.04,1.89-1.96.26-.93.16-1.91.07-2.86Z" style="fill:#2e7b5b; stroke-width:0px;"/><path d="m167.5552,403.12c0,.35-.19.67-.39.96-.74,1.06-2.04,2.51-3.44,2.5-1.27-.01-2.44-.55-3.65-.83-1.48-.34-2.97-.65-4.47-.85-2.99-.41-6.07-.37-8.94.63-1,.34-1.97.78-3.02.94-1.84.27-3.79-.43-5.04-1.81l-1.19.29h-.01c-.24-.99-.44-2-.6-3.01-.02-.16-.05-.33-.16-.44-.23-.25-.63-.12-.93.03-.85.41-1.7.83-2.54,1.24-.42-2.95,1.3-6.04.35-8.86-.03-.11-.07-.21-.16-.28-.09-.08-.23-.1-.35-.09l2.04-1.22c.06.09.12.18.19.28.44-1.42,3.42-3.4,5.03-4.38,2.02-1.23,4.13-2.28,6.45-2.7,3.9-.7,8.02-.64,11.72.79,1.04.4,2.12.98,2.57,2.01.34.79.24,1.73.63,2.5,0-.01.01-.02.01-.03h.01c-.08.91.37,1.79,1.01,2.42.65.64,1.47,1.05,2.3,1.42-.54.26-1.07.53-1.61.79-.01.6.5,1.07.98,1.44.85.69,1.71,1.37,2.57,2.06-.67.31-1.8.6-2.28,1.12.77.65,1.6,1.19,2.3,1.94.31.32.61.7.62,1.14Z" style="fill:#193425; stroke-width:0px;"/><path d="m162.6652,384.48l-.2.15c.15,1.2.13,2.41-.08,3.6-.14.88-.39,1.74-.73,2.56,0,.01-.01.02-.01.03-.39-.77-.29-1.71-.63-2.5-.45-1.03-1.53-1.61-2.57-2.01-3.7-1.43-7.82-1.49-11.72-.79-2.32.42-4.43,1.47-6.45,2.7-1.61.98-4.59,2.96-5.03,4.38-.07-.1-.13-.19-.19-.28-.82-1.36-.26-2.28-.78-4.69l-2.24-.08c.12-.21.24-.42.37-.63.89.2,1.83.34,1.92.08,1.2-3.51,4.5-5.87,7.87-7.43,4.24-1.96,9.03-3.04,13.63-2.19,1.06.2,2.12.51,3.03,1.09,2.04,1.31,2.98,3.74,3.81,6.01Z" style="fill:#5ea28d; stroke-width:0px;"/><path d="m140.5452,414.49c.01.12-.02.29-.15.31-.1.01-.17-.08-.23-.16-1.58-2.17-4.75-2.39-6.89-4.02-.59-.44-1.09-.99-1.48-1.6-.28-.44-.51-.94-.48-1.45.03-.73,1.25-1.59,1.96-1.72-1.73.41-2.48-.18-3.76-1.41-1.03-.99-1.27-2.69-.56-3.93.5-.86,1.41-1.52,1.62-2.49-1.25.61-2.91.1-3.7-1.06-.18-.27-.32-.56-.4-.87-.3-1.02-.1-2.19.53-3.06.34-.47.78-.86,1.16-1.31,1.19-1.43,1.7-3.57,3.4-4.35l.14-.63c.21.06.46.12.7.18-.13.21-.25.42-.37.63-.81,1.51-1.35,3.17-1.61,4.87-.09.58-.08,1.3.44,1.58.66.35,1.39-.4,2.15-.46.12-.01.26.01.35.09.09.07.13.17.16.28.95,2.82-.77,5.91-.35,8.86.84-.41,1.69-.83,2.54-1.24.3-.15.7-.28.93-.03.11.11.14.28.16.44.16,1.01.36,2.02.6,3.01h.01c.46,1.89,1.08,3.75,1.85,5.54.55,1.29,1.19,2.59,1.28,4Z" style="fill:#42abe4; stroke-width:0px;"/><path d="m133.9652,416.19c-.72.05-1.45.13-2.17.24-.85.13-1.69.31-2.55.26-1.81-.11-3.44-1.26-4.51-2.72-.18-.25-.34-.5-.49-.76-.77-1.3-1.25-2.75-1.63-4.22-.57-2.13-.99-4.33-.78-6.53.22-2.19,1.13-4.39,2.84-5.78-.01-.03-.01-.05-.02-.08l1.82-.51c.08.31.22.6.4.87.79,1.16,2.45,1.67,3.7,1.06-.21.97-1.12,1.63-1.62,2.49-.71,1.24-.47,2.94.56,3.93,1.28,1.23,2.03,1.82,3.76,1.41-.71.13-1.93.99-1.96,1.72-.03.51.2,1.01.48,1.45.39.61.89,1.16,1.48,1.6,2.14,1.63,5.31,1.85,6.89,4.02.06.08.13.17.23.16l.01,1.21c-.58.01-1.16.01-1.74.02-1.57.02-3.14.04-4.7.16Z" style="fill:#2e7b5b; stroke-width:0px;"/><path d="m135.0552,392.32l-2.04,1.22c-.76.06-1.49.81-2.15.46-.52-.28-.53-1-.44-1.58.26-1.7.8-3.36,1.61-4.87l2.24.08c.52,2.41-.04,3.33.78,4.69Z" style="fill:#193425; stroke-width:0px;"/><path d="m131.7952,416.43c.72-.11,1.45-.19,2.17-.24-3.27,1.58-5.78,4.67-6.66,8.2-.81-1.12-1.52-2.3-2.09-3.55-1.06-2.34-1.6-4.95-1.23-7.48l.26-.15c.15.26.31.51.49.76,1.07,1.46,2.7,2.61,4.51,2.72.86.05,1.7-.13,2.55-.26Z" style="fill:#2b4d3c; stroke-width:0px;"/><path d="m131.7052,386.74l-.14.63c-1.7.78-2.21,2.92-3.4,4.35-.38.45-.82.84-1.16,1.31-.63.87-.83,2.04-.53,3.06l-1.82.51c-.67-2.35-1.24-4.81-.9-7.23.2-1.5,1.79-6.13,3.91-5.02,1.14.6,1.91,1.64,3.18,2.13.11.04.44.14.86.26Z" style="fill:#2e7b5b; stroke-width:0px;"/><path d="m131.7052,386.74c-.42-.12-.75-.22-.86-.26-1.27-.49-2.04-1.53-3.18-2.13-2.12-1.11-3.71,3.52-3.91,5.02-.34,2.42.23,4.88.9,7.23.01.03.01.05.02.08-1.71,1.39-2.62,3.59-2.84,5.78-.21,2.2.21,4.4.78,6.53.38,1.47.86,2.92,1.63,4.22.15.26.31.51.49.76,1.07,1.46,2.7,2.61,4.51,2.72.86.05,1.7-.13,2.55-.26.72-.11,1.45-.19,2.17-.24,1.56-.12,3.13-.14,4.7-.16.58-.01,1.16-.01,1.74-.02,9.01-.1,18.01-.22,27.02-.32.4,0,.8-.01,1.19-.02.19-.01.38-.01.56-.02,1.05-.05,2.08-.15,3.09-.42,1.18-.32,2.32-.89,3.18-1.74.28-.29.54-.6.75-.95.52-.84.77-1.82.93-2.8.79-4.83-.59-10.15-4.24-13.4-.91-.82-1.94-1.49-2.93-2.2-.59-.43-1.17-.88-1.71-1.38-.19-.17-.38-.36-.46-.61-.14-.41.07-.86.24-1.26,1.69-3.91.17-8.93-3.4-11.23.09.95.19,1.93-.07,2.86-.26.92-.95,1.79-1.89,1.96-.83-2.27-1.77-4.7-3.81-6.01-.91-.58-1.97-.89-3.03-1.09-4.6-.85-9.39.23-13.63,2.19-3.37,1.56-6.67,3.92-7.87,7.43-.09.26-1.03.12-1.92-.08-.24-.06-.49-.12-.7-.18Z" style="fill:none; stroke:#000; stroke-linecap:round; stroke-linejoin:round; stroke-width:3px;"/><path d="m134.2752,387.63c.52,2.41-.04,3.33.78,4.69.06.09.12.18.19.28.44-1.42,3.42-3.4,5.03-4.38,2.02-1.23,4.13-2.28,6.45-2.7,3.9-.7,8.02-.64,11.72.79,1.04.4,2.12.98,2.57,2.01.34.79.24,1.73.63,2.5,0-.01.01-.02.01-.03.34-.82.59-1.68.73-2.56.21-1.19.23-2.4.08-3.6" style="fill:none; stroke:#000; stroke-linecap:round; stroke-linejoin:round; stroke-width:3px;"/><path d="m132.4052,386.91v.01c-.13.21-.25.42-.37.63-.81,1.51-1.35,3.17-1.61,4.87-.09.58-.08,1.3.44,1.58.66.35,1.39-.4,2.15-.46.12-.01.26.01.35.09.09.07.13.17.16.28.95,2.82-.77,5.91-.35,8.86.84-.41,1.69-.83,2.54-1.24.3-.15.7-.28.93-.03.11.11.14.28.16.44.16,1.01.36,2.02.6,3.01h.01c.46,1.89,1.08,3.75,1.85,5.54.55,1.29,1.19,2.59,1.28,4,.01.12-.02.29-.15.31-.1.01-.17-.08-.23-.16-1.58-2.17-4.75-2.39-6.89-4.02-.59-.44-1.09-.99-1.48-1.6-.28-.44-.51-.94-.48-1.45.03-.73,1.25-1.59,1.96-1.72-1.73.41-2.48-.18-3.76-1.41-1.03-.99-1.27-2.69-.56-3.93.5-.86,1.41-1.52,1.62-2.49-1.25.61-2.91.1-3.7-1.06-.18-.27-.32-.56-.4-.87-.3-1.02-.1-2.19.53-3.06.34-.47.78-.86,1.16-1.31,1.19-1.43,1.7-3.57,3.4-4.35" style="fill:none; stroke:#000; stroke-linecap:round; stroke-linejoin:round; stroke-width:3px;"/><path d="m138.6052,404.66c1.25,1.38,3.2,2.08,5.04,1.81,1.05-.16,2.02-.6,3.02-.94,2.87-1,5.95-1.04,8.94-.63,1.5.2,2.99.51,4.47.85,1.21.28,2.38.82,3.65.83,1.4.01,2.7-1.44,3.44-2.5.2-.29.39-.61.39-.96-.01-.44-.31-.82-.62-1.14-.7-.75-1.53-1.29-2.3-1.94.48-.52,1.61-.81,2.28-1.12-.86-.69-1.72-1.37-2.57-2.06-.48-.37-.99-.84-.98-1.44.54-.26,1.07-.53,1.61-.79-.83-.37-1.65-.78-2.3-1.42-.64-.63-1.09-1.51-1.01-2.42" style="fill:none; stroke:#000; stroke-linecap:round; stroke-linejoin:round; stroke-width:3px;"/><path d="m123.9852,413.36c-.37,2.53.17,5.14,1.23,7.48.57,1.25,1.28,2.43,2.09,3.55.69.96,1.45,1.87,2.24,2.75.19.22.39.43.65.57.37.2.81.2,1.22.2,12.77,0,25.53.01,38.29.01.82,0,1.65,0,2.41-.3,1.59-.64,2.39-2.41,2.88-4.05.01-.03.02-.07.03-.1.95-3.21,1.3-6.59,1.05-9.93" style="fill:none; stroke:#000; stroke-linecap:round; stroke-linejoin:round; stroke-width:3px;"/><path d="m133.9952,416.17c-.01,0-.02.01-.03.02-3.27,1.58-5.78,4.67-6.66,8.2-.02.08-.04.15-.06.23" style="fill:none; stroke:#000; stroke-linecap:round; stroke-linejoin:round; stroke-width:3px;"/><path d="m169.1852,415.83c1.32.83,2.4,2.02,3.25,3.33.86,1.31,1.52,2.74,2.14,4.18" style="fill:none; stroke:#000; stroke-linecap:round; stroke-linejoin:round; stroke-width:3px;"/><line x1="167.7852" y1="392.15" x2="163.1252" y2="388.35" style="fill:none; stroke:#000; stroke-linecap:round; stroke-linejoin:round; stroke-width:3px;"/><path d="m167.1652,404.08c2.23,3.82,1.53,7.14,1.45,11.56,2.04-2.45,3.34-5.51,3.7-8.68.24-2.13-.01-4.46-1.4-6.1,1,.28,2.11-.75,1.9-1.76-.11-.54-.49-.98-.87-1.38-.89-.98-1.78-1.96-2.69-2.94-.03-.05-.08-.09-.12-.14" style="fill:none; stroke:#000; stroke-linecap:round; stroke-linejoin:round; stroke-width:3px;"/><path d="m55.8185,259.6059s-3.4099,3.93-3.5988,13.0281c-.189,9.098-11.3648,80.8967-13.6655,84.0232,0,0-2.7153.9196-2.9673,4.3081s-1.1421,11.2541-2.0307,17.7076,30.4487,10.364,49.0273,5.3546c-1.5916-14.0184,4.1071-59.9664,9.8178-66.7037s9.555,17.0026,10.9419,21.4402,9.3092,46.6444,11.6002,49.6514,15.0864,4.1719,31.2276-2.2967c16.1412-6.4686,18.4406-14.8124,18.0318-16.9021s-1.5785-4.9643-3.9296-7.725c-2.3511-2.7606-12.7996-53.357-14.7201-63.0137-1.9205-9.6567-9.6992-30.1273-12.4405-34.9153-2.7412-4.788-70.8943-8.5041-77.2941-3.9566Z" style="fill:#122426; stroke-width:0px;"/><path d="m52.0441,281.0821s10.7719,3.7304,20.0808,3.1177c1.506.1516-2.5317,19.0765-3.9817,18.7625s-18.938-3.041-17.6567-8.0743" style="fill:#122426; stroke:#000; stroke-linecap:round; stroke-linejoin:round; stroke-width:3px;"/><path d="m72.2175,288.2692s.6549-9.508-.1592-17.2913" style="fill:#383e50; stroke:#000; stroke-linecap:round; stroke-linejoin:round; stroke-width:3px;"/><path d="m139.8468,281.8427c-1.0749-2.4494-2.4395-1.5223-4.3445-.4931-2.1417,1.1572-4.3471,2.1963-6.6027,3.1116-.6188.2511-7.5129,2.7683-7.5793,2.5547,1.236,4.1163,4.8195,7.019,7.2434,10.5681,1.5829,2.3177,2.6826,4.9395,4.2878,7.2418,3.9528-2.2998,7.9056-4.5996,11.8583-6.8993.1604-.0933.3281-.1939.4192-.3555.1462-.2592.0505-.5822-.048-.863" style="fill:#122426; stroke:#000; stroke-linecap:round; stroke-linejoin:round; stroke-width:3px;"/><path d="m55.8185,259.6059s-3.4099,3.93-3.5988,13.0281c-.189,9.098-11.3648,80.8967-13.6655,84.0232,0,0-2.7153.9196-2.9673,4.3081s-1.1421,11.2541-2.0307,17.7076,30.4487,10.364,49.0273,5.3546c-1.5916-14.0184,4.1071-59.9664,9.8178-66.7037s9.555,17.0026,10.9419,21.4402,9.3092,46.6444,11.6002,49.6514,15.0864,4.1719,31.2276-2.2967c16.1412-6.4686,18.4406-14.8124,18.0318-16.9021s-1.5785-4.9643-3.9296-7.725c-2.3511-2.7606-12.7996-53.357-14.7201-63.0137-1.9205-9.6567-9.6992-30.1273-12.4405-34.9153-2.7412-4.788-70.8943-8.5041-77.2941-3.9566Z" style="fill:none; stroke:#000; stroke-linecap:round; stroke-linejoin:round; stroke-width:3px;"/><path d="m60.0475,266.5599s-11.79,31.9709-17.8898,47.474-.5438-2.7119-.5438-2.7119c0,0-5.3374,8.1411-5.1414,10.369s1.9728,4.6302,3.0581,5.9324,2.8708,2.4425,9.4708-7.2608c6.6-9.7033,22.542-42.4351,21.7644-47.3435s-7.9446-8.2756-10.7182-6.4593Z" style="fill:#5a646c; stroke:#000; stroke-linecap:round; stroke-linejoin:round; stroke-width:3px;"/><path d="m113.5407,276.8084s3.3539,21.2125,43.9813,49.7741c4.7859-8.9025,3.0077-10.7699,2.9894-13.7353-3.5244-2.6056-12.0638-6.5693-12.0638-6.5693,0,0,7.8686,9.8096-.9594,2.5674-8.828-7.2423-23.9969-37.505-28.8634-36.9-4.8666.6049-4.9456.4798-5.0841,4.8631Z" style="fill:#5a646c; stroke:#000; stroke-linecap:round; stroke-linejoin:round; stroke-width:3px;"/><path d="m74.3251,385.0503s4.3698-68.7482,11.7943-74.9483c7.4245-6.2001,15.4594-7.7983,22.1164,17.2866,6.657,25.0848,15.8439,63.4416,15.8439,63.4416,0,0-8.1514,1.1535-9.7911-4.8819-1.6397-6.0354-11.9104-70.9193-19.7395-70.8466-7.8291.0727-11.1403,68.8429-11.1403,68.8429,0,0-6.0573,2.6983-9.0837,1.1057Z" style="fill:#091719; stroke:#000; stroke-linecap:round; stroke-linejoin:round; stroke-width:3px;"/><g id="d"><path d="m59.5408,173.9943c2.355-4.5645,9.9391-4.0298,9.9391-4.0298,0,0,9.4027,11.5364.3065,17.7707l-9.0962,6.2344-.1631,24.9568c-5.4647,3.866-11.0183,7.7788-17.3254,10.0216-6.5157,2.317-14.0579,2.6652-20.0965-.7718-3.2447-2.5781-4.5125-7.0987-4.8846-11.3003-1.461-16.4983,6.8059-32.4482,6.9975-49.0099.0206-1.7788-.0487-3.5894.4343-5.3014s3.1748-4.3103,4.8768-4.8276l29.8833,5.2571c.7337,6.4911-1.2401,12.9493-3.1904,19.1838-2.5058,8.0105-5.0116,16.0209-7.5173,24.0314" style="fill:#034346; stroke-width:0px;"/><path d="m60.6902,193.9697s-.8608,13.0598-11.1238,25.4127-20.9809,7.8717-19.5043,10.3476,29.9239-6.4359,30.465-10.8035.1631-24.9568.1631-24.9568Z" style="fill:#032321; stroke-width:0px;"/><path d="m59.5408,173.9943c2.355-4.5645,9.9391-4.0298,9.9391-4.0298,0,0,9.4027,11.5364.3065,17.7707l-9.0962,6.2344-.1631,24.9568c-5.4647,3.866-11.0183,7.7788-17.3254,10.0216-6.5157,2.317-14.0579,2.6652-20.0965-.7718-3.2447-2.5781-4.5125-7.0987-4.8846-11.3003-1.461-16.4983,6.8059-32.4482,6.9975-49.0099.0206-1.7788-.0487-3.5894.4343-5.3014s3.1748-4.3103,4.8768-4.8276l29.8833,5.2571c.7337,6.4911-1.2401,12.9493-3.1904,19.1838-2.5058,8.0105-5.0116,16.0209-7.5173,24.0314" style="fill:none; stroke:#000; stroke-linecap:round; stroke-linejoin:round; stroke-width:3px;"/><path d="m124.5431,194.8441c.9956,13.8912,13.8045,37.3289,17.0241,43.3618s-7.5329,6.8824-13.1042,14.6471,14.8397,30.6386,14.8397,30.6386c0,0,29.5301-26.5737,32.3537-39.1944,2.9974-13.3979-35.6471-73.0324-43.0575-75.9892s-14.3252-.6906-14.3252-.6906" style="fill:#034346; stroke:#000; stroke-linecap:round; stroke-linejoin:round; stroke-width:3px;"/><path d="m128.2049,253.2583l-.078,4.2849c19.1765-9.1332,23.4118-13.9256,16.4706-24.6459-7.4699-11.5369-18.7785-41.6105-18.7785-41.6105,0,0-2.3097-1.1691-.9862,6.5073s17.5588,43.5882,17.5588,43.5882l-14.1867,11.876Z" style="fill:#032321; stroke-width:0px;"/><path d="m124.5431,194.8441c.9956,13.8912,13.8045,37.3289,17.0241,43.3618s-7.5329,6.8824-13.1042,14.6471,14.8397,30.6386,14.8397,30.6386c0,0,29.5301-26.5737,32.3537-39.1944,2.9974-13.3979-35.6471-73.0324-43.0575-75.9892s-14.3252-.6906-14.3252-.6906" style="fill:none; stroke:#000; stroke-linecap:round; stroke-linejoin:round; stroke-width:3px;"/><path d="m63.1858,193.6176s-8.1706-20.6412,14.1794-25.9676,51.05-9.9932,48.2,21.4578-59.4382,23.804-62.3794,4.5098Z" style="fill:#034346; stroke-width:0px;"/><path d="m60.5652,186.9118s1.0981,37.1459-2.6,52.6882-4.4,24.5-4.4,24.5c0,0,7.0319,14.732,30.9439,15.5954s46.9563-9.4294,47.9194-13.6359-2.5133-10.4712-1.6133-18.236-5.8021-63.3824-5.8021-63.3824" style="fill:#034346; stroke-width:0px;"/><path d="m105.2633,227.5935c.0095-.6193-.0153-1.2373-.0741-1.8508l-.0185-.0002c-.8239-8.552-7.7798-11.8902-6.2247-20.5764,0,0-11.178,3.3946-2.4429,18.1771.6554,1.1091,1.1739,2.1605,1.5962,3.1681.0432.4026.0683.8079.0581,1.2157-.1502,4.9848-4.1874,9.0377-9.0111,8.9899h-.0002c-4.8185-.0478-8.5006-4.1695-8.2321-9.1438.0402-.6888.1568-1.3729.3471-2.0389l-.0429-.0003c.9738-2.6682,2.5957-5.4596,5.1684-8.2321,14.9883-16.1526,2.4825-24.3292-.1141-24.2146h0s2.5058,3.9079-4.519,16.0582c-1.1428-1.4233-2.1917-4.1053-.2284-8.6377-.0005.0002-10.3448,4.5311-4.9926,17.1391-5.0214,9.4937-3.0337,16.1136-.0245,20.1743.055.0766.1137.1496.17.225.1607.2092.3232.4108.488.6058.5697.6886,1.1954,1.3238,1.8742,1.9017.1966.17.3906.3309.5808.4812.0967.0744.1925.1492.2911.2213,1.102.8317,2.0388,1.3234,2.4879,1.4793l-.0002-.0003c1.8985.8891,4.0174,1.3965,6.275,1.4207.795.0085,1.5726-.0631,2.3404-.1705-.115.0462-.1806.0698-.1806.0698,0,0,.85-.101,2.1343-.4688.8182-.223,1.6127-.5048,2.3778-.8508,3.8481-1.6585,8.8928-5.3023,9.7769-13.1082.0652-.5759.0976-1.1248.1135-1.6599.0053-.1256.0236-.2478.0261-.374h0Z" style="fill:#24deb0; stroke-width:0px;"/><polygon points="81.5253 200.5077 81.5253 200.5078 81.5253 200.5078 81.5253 200.5077" style="fill:#24deb0; stroke-width:0px;"/><path d="m77.3652,165.15s-7.2382,3.7497-7.8853,4.8146,3.8824,12.6531,22.4118,13.359c18.5294.7059,26.0235-12.0059,26.0235-13.9735s-3.4941-5.7324-18.2-7.0265c-14.7059-1.2941-22.35,2.8265-22.35,2.8265Z" style="fill:#032321; stroke:#000; stroke-linecap:round; stroke-linejoin:round; stroke-width:3px;"/><path d="m125.3302,187.1074s-4.8165,55.6867-4.0099,75.4514,11.1082,3.5007,11.1082,3.5007l-7.0984-78.9521Z" style="fill:#032321; stroke-width:0px;"/><path d="m60.5652,186.9118s1.0981,37.1459-2.6,52.6882-4.4,24.5-4.4,24.5c0,0,7.0319,14.732,30.9439,15.5954s46.9563-9.4294,47.9194-13.6359-2.5133-10.4712-1.6133-18.236-5.8021-63.3824-5.8021-63.3824" style="fill:none; stroke:#000; stroke-linecap:round; stroke-linejoin:round; stroke-width:3px;"/><path d="m55.5269,250.9825s-3.3585-.0807-3.0851,6.8066-2.6915,8.0785,3.0851,13.1888,50.5887,20.3015,79.5944,0c0,0,4.2007-13.9486,2.0738-16.0662s-3.8471-.8235-3.8471-.8235c0,0,1.132,6.9078-29.1033,6.5716s-48.8472-1.9594-48.7177-9.6773Z" style="fill:#032321; stroke:#000; stroke-linecap:round; stroke-linejoin:round; stroke-width:3px;"/></g><g id="e"><g id="f"><path d="m79.0504,153.9109s.1579,12.6754-2.1971,16.0405,12.6418,7.2669,18.7125,6.1616c11.7604-2.1414,18.6879-3.0965,14.6696-15.0884-4.0183-11.9919,2.4852-22.8286,2.4852-22.8286,0,0-32.66-8.4048-33.6702,15.715Z" style="fill:#235566; stroke-width:0px;"/><g style="clip-path:url(#g);"><path d="m101.1029,144.9252s5.6483,6.4533,1.2515,13.8622c-4.3968,7.4089-3.4301,5.5069-3.4301,5.5069,0,0,1.7653.3082,4.7612-1.7273s.3962,10.0887-4.6825,13.216c-5.0787,3.1273-39.3015,9.3728-23.923-21.7171s26.0228-9.1407,26.0228-9.1407Z" style="fill:#a9c7d1; stroke-width:0px;"/></g><path d="m79.0504,153.9109s.1579,12.6754-2.1971,16.0405,12.6418,7.2669,18.7125,6.1616c11.7604-2.1414,18.6879-3.0965,14.6696-15.0884-4.0183-11.9919,2.4852-22.8286,2.4852-22.8286,0,0-32.66-8.4048-33.6702,15.715Z" style="fill:none; stroke:#000; stroke-linecap:round; stroke-linejoin:round; stroke-width:3px;"/><path d="m109.2795,157.1735s-1.556,8.776-19.3663,9.9391c-12.6403.8255-10.0621-9.8797-10.0621-9.8797" style="fill:none; stroke:#000; stroke-linecap:round; stroke-linejoin:round; stroke-width:3px;"/></g><path d="m52.3394,85.8239s-19.6895-11.1611-20.5264-33.4508c-.8369-22.2897,15.7172-49.7006,15.7172-49.7006,0,0-1.2125,2.6803,9.647,19.2473s25.6911,48.7534-4.8378,63.9041Z" style="fill:#235566; stroke:#000; stroke-linecap:round; stroke-linejoin:round; stroke-width:3px;"/><path d="m119.5241,142.4373s1.3669,11.5764-4.1653,17.9129c4.463-.4779,8.1352-4.6547,9.4662-8.1313,0,0,1.7117,5.5628-2.493,11.0118,0,0,22.6482-18.8483,18.7936-42.5643s-29.6448,6.185-21.6016,21.7708Z" style="fill:#19c9d9; stroke:#000; stroke-linecap:round; stroke-linejoin:round; stroke-width:3px;"/><path d="m56.6488,92.8259s-20.5909-24.0563,3.157-53.0097,70.8894-2.2583,70.8894-2.2583c0,0,38.061,22.2531,25.0425,48.7328s-35.1404,22.942-35.1404,22.942c0,0-60.6371,9.1514-63.9484-16.4068Z" style="fill:#235566; stroke:#000; stroke-linecap:round; stroke-linejoin:round; stroke-width:3px;"/><path d="m63.2038,93.3713s-11.5535-7.4906-6.729-20.1108c4.8245-12.6202,14.4054-10.0875,16.7067-8.17s8.2723,6.0177,6.0935,22.2645c-2.1788,16.2468-16.0712,6.0163-16.0712,6.0163Z" style="fill:#fff; stroke-width:0px;"/><path d="m70.1514,66.2415c4.0168-.1716,6.7931,3.3536,6.3317,8.6735s-1.3445,8.376-5.5117,10.5502-7.9797-5.9762-6.3761-12.5002,3.6634-6.6426,5.5561-6.7234Z" style="stroke:#000; stroke-linecap:round; stroke-linejoin:round; stroke-width:3px;"/><path d="m70.8695,69.952c-1.3815.3527-1.7498,2.7935-1.2763,3.8527s1.1482,2.1862,2.1179,1.9759,1.9617-2.2007,1.5825-3.5748-.7312-2.6861-2.4242-2.2538Z" style="fill:#fff; stroke-width:0px;"/><path d="m68.4436,78.6399c.4324,1.3363,1.2202,3.0734,2.7194,1.8052.4135-.3493.8269-.9336,1.2147-1.4627.2707-.399.9361-.159.9034.3123.061,3.3187-4.1832,5.2121-5.7051,1.7744-.2822-.6641-.5421-2.9791.5002-2.8085.1941.048.3158.2017.3674.3793h0Z" style="fill:#3ce699; stroke-width:0px;"/><path d="m55.0532,80.8277c-.2194-6.7079,1.2907-15.2257,8.3295-18.0438,2.3497-.9321,4.902-.9548,7.2658-.6345.8218.1114,1.3977.8679,1.2863,1.6896-.1114.8218-.8678,1.3977-1.6896,1.2863-10.2028-2.6543-14.0427,7.2451-14.3218,15.6741.0116.5537-.8438.5924-.8703.0283h0Z" style="stroke-width:0px;"/><path d="m100.7332,96.9979s-5.077-11.5197-.0762-21.9335c5.0008-10.4138,14.6975-7.6728,22.7681-1.503s5.1091,18.3693.3845,25.1601-23.0763-1.7236-23.0763-1.7236Z" style="fill:#fff; stroke-width:0px;"/><path d="m126.3378,92.8636c1.1508-4.6965,2.3251-10.2018-.1451-14.5794-2.5944-4.0725-6.6938-7.5212-11.4258-8.6976-3.0805-.8277-6.2692-.1773-8.9621,1.3691-.7188.4266-1.651.182-2.0667-.5435-.4246-.7354-.1475-1.6844.6054-2.0766,8.7692-4.8624,18.9674,1.0792,23.3515,9.1015,1.7792,3.2152,1.4812,7.1572.8703,10.6289-.3228,1.7328-.7488,3.4204-1.3159,5.0984-.0848.251-.3571.3857-.6081.3009-.2501-.084-.3824-.3543-.3035-.6018h0Z" style="stroke-width:0px;"/><path d="m107.8119,69.5042c4.4968-1.7373,9.611,3.2524,8.2689,9.3804-1.3421,6.1281-1.3516,11.4785-6.0613,11.0426s-5.5422-4.2592-6.1696-5.9972-2.8561-11.7917,3.962-14.4258Z" style="stroke:#000; stroke-linecap:round; stroke-linejoin:round; stroke-width:3px;"/><path d="m107.0208,71.5412c2.33-.0356,4.2694,2.9408,2.4296,5.8544s-4.3886.0275-4.3762-2.1331.9079-3.7055,1.9466-3.7213Z" style="fill:#fff; stroke-width:0px;"/><path d="m107.5611,83.6956c.6577,1.386,2.6038,3.3614,4.0187,1.9166.431-.4376.8318-1.1782,1.1674-1.8508.1714-.454.692-.69,1.1339-.4655.2896.1444.4541.4403.4465.7438-.0282,1.0479-.2549,2.0078-.8844,2.9869-1.3797,2.3624-4.886,1.942-6.3793-.0715-.6761-.7781-1.8941-3.6236-.2754-3.8154.37-.0062.6366.2459.7726.5559h0Z" style="fill:#3ce699; stroke-width:0px;"/><path d="m141.6841,129.9389c-5.92,6.26-8.04,13.78-18.15,18.13-2.37,1.02-4.93,1.7-7,3.24-3.41,2.54-4.82,6.91-6.02,10.99-3.12-3.21-6.23-6.41-9.34-9.61-.81,3.67-1.62,7.35-2.43,11.03-13.3-10.37-27.38-19.75-42.08-28.02-7.53-4.25-15.44-8.37-20.95-15.03-2.12-2.57-3.86-5.52-4.53-8.78s-.17-6.84,1.81-9.51l-.18-.5c1.45-3.3,4.2-5.85,7.12-7.97,8.51-6.17,18.94-9.37,29.41-10.23,10.48-.87,21.04.51,31.28,2.86,9.13,2.08,18.13,4.96,26.36,9.41,2.94,1.59,5.9,3.5,7.52,6.43h.32c8.97,8.59,16.35,18.84,21.66,30.07-3.19-1.33-6.13-3.22-8.66-5.56.41,2.75.82,5.49,1.23,8.24-3.05-.09-4.87-3.5-7.37-5.19Z" style="fill:#a9c7d1; stroke-width:0px;"/><path d="m134.5041,102.3789c-1.62-2.93-4.58-4.84-7.52-6.43-8.23-4.45-17.23-7.33-26.36-9.41-10.24-2.35-20.8-3.73-31.28-2.86-10.47.86-20.9,4.06-29.41,10.23-2.92,2.12-5.67,4.67-7.12,7.97" style="fill:none; stroke:#000; stroke-linecap:round; stroke-linejoin:round; stroke-width:3px;"/><path d="m32.9941,102.3789c-1.98,2.67-2.48,6.25-1.81,9.51s2.41,6.21,4.53,8.78c5.51,6.66,13.42,10.78,20.95,15.03,14.7,8.27,28.78,17.65,42.08,28.02.81-3.68,1.62-7.36,2.43-11.03,3.11,3.2,6.22,6.4,9.34,9.61,1.2-4.08,2.61-8.45,6.02-10.99,2.07-1.54,4.63-2.22,7-3.24,10.11-4.35,12.23-11.87,18.15-18.13" style="fill:none; stroke:#000; stroke-linecap:round; stroke-linejoin:round; stroke-width:3px;"/><path d="m134.8241,102.3789c8.97,8.59,16.35,18.84,21.66,30.07-3.19-1.33-6.13-3.22-8.66-5.56.41,2.75.82,5.49,1.23,8.24-3.05-.09-4.87-3.5-7.37-5.19-.7-.48-1.46-.82-2.31-.91" style="fill:none; stroke:#000; stroke-linecap:round; stroke-linejoin:round; stroke-width:3px;"/><path d="m130.9554,36.5807S112.0816,5.5277,65.0597,6.3101c0,0,16.2658,10.5364,17.577,14.2551,0,0-15.8771-6.5598-45.2974,3.7422,0,0,16.8854,4.4618,18.7343,9.2882,0,0-23.2421,4.2834-34.7639,34.8043,0,0,18.5825-17.4678,30.3022-16.9393,11.7197.5284,36.2895-1.6977,51.4575-7.1053s21.295-1.9203,21.295-1.9203l6.591-5.8542Z" style="fill:#19c9d9; stroke:#000; stroke-linecap:round; stroke-linejoin:round; stroke-width:3px;"/><path d="m119.7704,51.1285s7.5464-16.9761,23.5065-22.4386c15.96-5.4625,19.9069-21.7129,19.9069-21.7129,0,0,14.1609,24.9211,8.9825,50.2586-5.1785,25.3375-27.8931,44.754-27.8931,44.754" style="fill:#235566; stroke:#000; stroke-linecap:round; stroke-linejoin:round; stroke-width:3px;"/><path d="m59.1487,84.403s-7.1425.356-9.8635,4.0472-1.68,6.2935-1.68,6.2935c0,0,8.5116,6.3676,10.7374,7.9478s15.5872-5.2198,15.545-6.405,1.871-6.3872-2.805-8.2415-8.5822-3.4451-11.934-3.6421Z" style="fill:#2a2a2a; stroke:#000; stroke-linecap:round; stroke-linejoin:round; stroke-width:3px;"/><path d="m165.2563,32.1275s2.583,29.3212-7.2293,44.8274c0,0-6.4591-2.7136-5.1752-6.191l12.4046-38.6363Z" style="fill:#a9c7d1; stroke-width:0px;"/><path d="m167.0555,37.478s.2414-2.9545-2.199-8.129c0,0-2.3388,20.9279-13.1212,43.4594" style="fill:none; stroke:#000; stroke-linecap:round; stroke-linejoin:round; stroke-width:3px;"/><path d="m57.568,61.9509c.5784-2.6559,2.43-4.9233,4.9219-6.0154,1.3474-.5326,3.8666-1.6657,4.3936.4043.1586.8178-.3757,1.6094-1.1935,1.7681-1.4622.0383-2.9332.1859-4.1936,1.0031-1.1981.7067-2.2123,1.9439-2.742,3.2187-.2876.6875-1.3516.3441-1.1863-.3788h0Z" style="fill:#19c9d9; stroke-width:0px;"/><path d="m118.8566,62.047c-3.5171-3.3765-8.8931-4.5362-13.5327-3.0979-.8206.2582-1.7028-.2202-1.9158-1.0575-.2235-.8474.3436-1.7179,1.2081-1.8579,1.4074-.2344,2.8295-.408,4.2601-.313,2.8262.1073,5.6252,1.0301,7.9736,2.5715,1.176.7736,2.2169,1.6344,3.1755,2.7498.2768.3221.2401.8076-.082,1.0845-.3251.2812-.8081.2322-1.0867-.0795h0Z" style="fill:#19c9d9; stroke-width:0px;"/><path d="m132.4583,34.837s1.0446-6.1693,3.9034,3.2062" style="fill:none; stroke:#000; stroke-linecap:round; stroke-linejoin:round; stroke-width:3px;"/><path d="m138.1419,30.9681s2.634-7.0012,6.2373,2.8615" style="fill:none; stroke:#000; stroke-linecap:round; stroke-linejoin:round; stroke-width:3px;"/><path d="m82.7997,134.4777c8.0625-.7424,17.5625-.6565,22.4655-3.3013" style="fill:none; stroke:#000; stroke-linecap:round; stroke-linejoin:round; stroke-width:3px;"/></g><path d="m36.8329,153.7894s-6.5928,3.8723-6.767,10.4385,5.7317,9.6959,14.1905,8.484,12.56-4.859,10.98-11.3296-18.4035-7.5929-18.4035-7.5929Z" style="fill:#034346; stroke:#000; stroke-linecap:round; stroke-linejoin:round; stroke-width:3px;"/><path d="m84.2564,152.2644l.32.09c-.37.71-.98,1.28-1.66,1.69-1.65,1.02-3.67,1.18-5.61,1.18-.97,0-1.94-.04-2.91-.11l.02-.38c.09-1.59.17-3.22-.33-4.73-.28-.82-.73-1.59-1.32-2.23,1.76-.17,3.47-.32,4.33-.27,3,.18,5.83,2.07,7.16,4.76Z" style="fill:#235566; stroke-width:0px;"/><path d="m69.5464,131.1544l-.11.05c-1.37,0-1.68.46-2.77,1.18l-.32.02c-.02-.27-.04-.55-.07-.82-.18-.26-.32-.54-.43-.85-.29-.81-.33-1.73-.32-2.6,0-.61.02-1.21.05-1.82l-.43-.83c2.03-1.08,4.1-2.08,6.2-3.01l.15-.12c1.2.52,2.22,1.42,3,2.48.85,1.15,1.44,2.47,2,3.78,1.23,2.86,2.39,5.75,3.55,8.64l-.18.25c-.79.54-1.81.68-2.76.54-.94-.14-1.83-.55-2.65-1.05-2.21-1.36-3.96-3.43-4.91-5.84Z" style="fill:#235566; stroke-width:0px;"/><path d="m54.0864,164.8344l.18.4c-.39,1.04-1.32,1.8-2.35,2.25-1.02.44-2.13.6-3.24.75-2.96.4-6.09.73-8.83-.45-1.45-.62-2.69-1.64-3.78-2.78-2.41-2.53-4.13-6-3.61-9.46l.38-.54c1.8-2.67,2.94-5.77,3.3-8.97.19-1.64.18-3.31.56-4.91.39-1.6,1.25-3.19,2.72-3.95l.31.36c1.87-1.59,4.15-2.64,6.41-3.63l.5,1.17c-.52.8-1.1,1.57-1.75,2.28-.25.28-.51.56-.72.87-.1-.02-.22.04-.3.12-.09.11-.12.26-.14.4-.28,1.54-.32,3.1-.12,4.65v.01c-.34.57-.28,1.3-.01,1.9.28.61.75,1.09,1.23,1.55.36.33.75.67,1.24.74.4.06.8-.09,1.18-.25.43-.18.85-.4,1.25-.64l1.07.2c.12.4.24.8.4,1.19.65,1.47,2.05,2.59,3.64,2.89l.03-.05c.7-1.17,1.5-2.29,2.3-3.41l1.36.02c1.22.73,2.79.84,4.1.3.98-.4,1.79-1.12,2.63-1.78l.03.03c.78-1.69,1.14-3.54,1.48-5.36.03-.13.05-.27.07-.4l1.82.34c-.42,2.34-.19,4.78.05,7.16l.4.35c.94,0,2.94-.22,4.89-.41.59.64,1.04,1.41,1.32,2.23.5,1.51.42,3.14.33,4.73l-.02.38c-1.54-.09-3.08-.25-4.61-.4l-.08-.08c-1.52,1.76-3.24,3.34-5.13,4.69-3.22,2.31-6.86,3.93-10.49,5.51Z" style="fill:#209276; stroke-width:0px;"/><path d="m68.8026,147.723c-4.156-.7886-8.5071-1.308-12.5689-.1266-3.7427,1.0886-6.9214,3.5266-10.0027,5.9138" style="fill:none; stroke:#000; stroke-linecap:round; stroke-linejoin:round; stroke-width:3px;"/><path d="m66.3464,132.4044c.06.89.06,1.79.01,2.69-.1,1.76-.41,3.5-.75,5.24-.02.13-.04.27-.07.4-.34,1.82-.7,3.67-1.48,5.36l-.03-.03c-.84.66-1.65,1.38-2.63,1.78-1.31.54-2.88.43-4.1-.3l-1.36-.02c1.32-1.88,2.64-3.75,3.57-5.84.37-.85.67-1.73.74-2.65.1-1.57-.51-3.1-1.23-4.51-1-.3-2.04-.49-3.08-.59l.11-1.23c.4,0,.8-.08,1.2-.16,2.76-.58,5.46-1.66,8.28-1.68l.32-.13c.11.31.25.59.43.85.03.27.05.55.07.82Z" style="fill:#235566; stroke-width:0px;"/><path d="m56.0464,132.7044l-.11,1.23c-.99-.09-2-.09-3,0l-.11-.89c3.93-2.8,8.05-5.33,12.32-7.56l.43.83c-.03.61-.05,1.21-.05,1.82-.01.87.03,1.79.32,2.6l-.32.13c-2.82.02-5.52,1.1-8.28,1.68-.4.08-.8.16-1.2.16Z" style="fill:#209276; stroke-width:0px;"/><path d="m59.0164,134.5244c.72,1.41,1.33,2.94,1.23,4.51-.07.92-.37,1.8-.74,2.65-.93,2.09-2.25,3.96-3.57,5.84-.8,1.12-1.6,2.24-2.3,3.41l-.03.05c-1.59-.3-2.99-1.42-3.64-2.89-.16-.39-.28-.79-.4-1.19l-1.07-.2c.4-.25.76-.54,1.09-.87.65-.67,1.11-1.57,1.1-2.5l.49-.02c1-1.39,1.9-2.83,2.71-4.33.21-.39.42-.79.47-1.22.08-.79-.37-1.55-.98-2.05-.46-.37-1-.61-1.55-.82l-.13-.79c.41-.07.83-.13,1.24-.17,1-.09,2.01-.09,3,0,1.04.1,2.08.29,3.08.59Z" style="fill:#235566; stroke-width:0px;"/><path d="m44.1664,138.2244c.21-.31.47-.59.72-.87.65-.71,1.23-1.48,1.75-2.28.17-.27.33-.54.49-.82l.05-.07c1.35-.33,2.76.08,4.09.52.19.06.37.13.56.19.55.21,1.09.45,1.55.82.61.5,1.06,1.26.98,2.05-.05.43-.26.83-.47,1.22-.81,1.5-1.71,2.94-2.71,4.33l-.49.02c.01.93-.45,1.83-1.1,2.5-.33.33-.69.62-1.09.87-.4.24-.82.46-1.25.64-.38.16-.78.31-1.18.25-.49-.07-.88-.41-1.24-.74-.48-.46-.95-.94-1.23-1.55-.27-.6-.33-1.33.01-1.9v-.01c-.2-1.55-.16-3.11.12-4.65.02-.14.05-.29.14-.4.08-.08.2-.14.3-.12Z" style="fill:#235566; stroke-width:0px;"/><path d="m43.8364,138.9044c.07-.25.19-.47.33-.68.21-.31.47-.59.72-.87.65-.71,1.23-1.48,1.75-2.28.17-.27.33-.54.49-.82" style="fill:none; stroke:#000; stroke-linecap:round; stroke-linejoin:round; stroke-width:3px;"/><path d="m47.1764,134.1844c1.35-.33,2.76.08,4.09.52.19.06.37.13.56.19.55.21,1.09.45,1.55.82.61.5,1.06,1.26.98,2.05-.05.43-.26.83-.47,1.22-.81,1.5-1.71,2.94-2.71,4.33" style="fill:none; stroke:#000; stroke-linecap:round; stroke-linejoin:round; stroke-width:3px;"/><path d="m51.4564,134.1444c.08-.01.16-.03.24-.04.41-.07.83-.13,1.24-.17,1-.09,2.01-.09,3,0,1.04.1,2.08.29,3.08.59" style="fill:none; stroke:#000; stroke-linecap:round; stroke-linejoin:round; stroke-width:3px;"/><path d="m59.0164,134.5244c.72,1.41,1.33,2.94,1.23,4.51-.07.92-.37,1.8-.74,2.65-.93,2.09-2.25,3.96-3.57,5.84-.8,1.12-1.6,2.24-2.3,3.41" style="fill:none; stroke:#000; stroke-linecap:round; stroke-linejoin:round; stroke-width:3px;"/><path d="m53.6064,150.9844c-1.59-.3-2.99-1.42-3.64-2.89-.16-.39-.28-.79-.4-1.19" style="fill:none; stroke:#000; stroke-linecap:round; stroke-linejoin:round; stroke-width:3px;"/><path d="m55.6364,132.6744c.14.02.27.03.41.03.4,0,.8-.08,1.2-.16,2.76-.58,5.46-1.66,8.28-1.68" style="fill:none; stroke:#000; stroke-linecap:round; stroke-linejoin:round; stroke-width:3px;"/><path d="m66.1664,130.6544c.04.31.08.62.11.93.03.27.05.55.07.82.06.89.06,1.79.01,2.69-.1,1.76-.41,3.5-.75,5.24-.02.13-.04.27-.07.4-.34,1.82-.7,3.67-1.48,5.36" style="fill:none; stroke:#000; stroke-linecap:round; stroke-linejoin:round; stroke-width:3px;"/><path d="m64.0264,146.0644c-.84.66-1.65,1.38-2.63,1.78-1.31.54-2.88.43-4.1-.3" style="fill:none; stroke:#000; stroke-linecap:round; stroke-linejoin:round; stroke-width:3px;"/><path d="m50.6864,143.3344c.01.93-.45,1.83-1.1,2.5-.33.33-.69.62-1.09.87-.4.24-.82.46-1.25.64-.38.16-.78.31-1.18.25-.49-.07-.88-.41-1.24-.74-.48-.46-.95-.94-1.23-1.55-.27-.6-.33-1.33.01-1.9" style="fill:none; stroke:#000; stroke-linecap:round; stroke-linejoin:round; stroke-width:3px;"/><path d="m68.5564,133.4144c.09.71-.76,5.63-.93,6.32-.08.31-.15.62-.2.94-.42,2.34-.19,4.78.05,7.16" style="fill:none; stroke:#000; stroke-linecap:round; stroke-linejoin:round; stroke-width:3px;"/><path d="m67.8764,148.1844c.94,0,2.94-.22,4.89-.41,1.76-.17,3.47-.32,4.33-.27,3,.18,5.83,2.07,7.16,4.76" style="fill:none; stroke:#000; stroke-linecap:round; stroke-linejoin:round; stroke-width:3px;"/><path d="m84.5764,152.3544c-.37.71-.98,1.28-1.66,1.69-1.65,1.02-3.67,1.18-5.61,1.18-.97,0-1.94-.04-2.91-.11-1.54-.09-3.08-.25-4.61-.4" style="fill:none; stroke:#000; stroke-linecap:round; stroke-linejoin:round; stroke-width:3px;"/><path d="m69.7064,154.6344c-1.52,1.76-3.24,3.34-5.13,4.69-3.22,2.31-6.86,3.93-10.49,5.51-.13.06-.25.11-.38.17" style="fill:none; stroke:#000; stroke-linecap:round; stroke-linejoin:round; stroke-width:3px;"/><path d="m46.9364,133.7544c.05-.1-.13-.13-.23-.09l-.57.24c-2.26.99-4.54,2.04-6.41,3.63-.13.1-.26.21-.38.32" style="fill:none; stroke:#000; stroke-linecap:round; stroke-linejoin:round; stroke-width:3px;"/><path d="m39.4164,137.1744c-1.47.76-2.33,2.35-2.72,3.95-.38,1.6-.37,3.27-.56,4.91-.36,3.2-1.5,6.3-3.3,8.97" style="fill:none; stroke:#000; stroke-linecap:round; stroke-linejoin:round; stroke-width:3px;"/><path d="m52.8264,133.0444c3.93-2.8,8.05-5.33,12.32-7.56,2.03-1.08,4.1-2.08,6.2-3.01" style="fill:none; stroke:#000; stroke-linecap:round; stroke-linejoin:round; stroke-width:3px;"/><path d="m71.4964,122.3544c1.2.52,2.22,1.42,3,2.48.85,1.15,1.44,2.47,2,3.78,1.23,2.86,2.39,5.75,3.55,8.64" style="fill:none; stroke:#000; stroke-linecap:round; stroke-linejoin:round; stroke-width:3px;"/><path d="m69.4364,131.2044c-1.37,0-1.68.46-2.77,1.18" style="fill:none; stroke:#000; stroke-linecap:round; stroke-linejoin:round; stroke-width:3px;"/><path d="m69.4064,130.8144c.04.11.09.23.14.34.95,2.41,2.7,4.48,4.91,5.84.82.5,1.71.91,2.65,1.05.95.14,1.97,0,2.76-.54" style="fill:none; stroke:#000; stroke-linecap:round; stroke-linejoin:round; stroke-width:3px;"/><path d="m32.4564,155.5444c-.52,3.46,1.2,6.93,3.61,9.46,1.09,1.14,2.33,2.16,3.78,2.78,2.74,1.18,5.87.85,8.83.45,1.11-.15,2.22-.31,3.24-.75,1.03-.45,1.96-1.21,2.35-2.25" style="fill:none; stroke:#000; stroke-linecap:round; stroke-linejoin:round; stroke-width:3px;"/><path d="m44.2564,138.2544c-.03-.02-.06-.03-.09-.03-.1-.02-.22.04-.3.12-.09.11-.12.26-.14.4-.28,1.54-.32,3.1-.12,4.65v.01c0,.07.01.14.02.21" style="fill:none; stroke:#000; stroke-linecap:round; stroke-linejoin:round; stroke-width:3px;"/><path d="m72.6464,147.6344c.04.05.09.09.12.14.59.64,1.04,1.41,1.32,2.23.5,1.51.42,3.14.33,4.73" style="fill:none; stroke:#000; stroke-linecap:round; stroke-linejoin:round; stroke-width:3px;"/><path d="m65.5764,126.3144c-.03.61-.05,1.21-.05,1.82-.01.87.03,1.79.32,2.6.11.31.25.59.43.85.07.11.15.21.24.3" style="fill:none; stroke:#000; stroke-linecap:round; stroke-linejoin:round; stroke-width:3px;"/></svg>