<?xml version="1.0" encoding="UTF-8"?><svg id="Capa_1" xmlns="http://www.w3.org/2000/svg" viewBox="0 0 64 64"><g id="Cabeza"><path d="M15.8011,34.7696s-7.5876-3.2474-8.7936-11.2914S10.6906,4.83,10.6906,4.83c0,0-.3309,1.0205,4.2756,6.5846,4.6065,5.5641,11.2851,16.6279,.8349,23.355Z" style="fill:#698cbd;"/><path d="M43.5555,52.1147s.9642,4.14-.784,6.6604c1.5981-.3539,2.7597-2.0164,3.1013-3.3302,0,0,.8456,1.9466-.4575,4.0917,0,0,7.4444-7.748,5.087-16.1866s-10.4929,3.4421-6.9468,8.7647Z" style="fill:#4dc485;"/><path d="M17.6465,37.1326s-8.4365-7.8842-1.0028-19.3388,25.5991-3.6895,25.5991-3.6895c0,0,14.6947,6.5231,11.0492,16.6467s-11.8059,9.7375-11.8059,9.7375c0,0-21.6045,5.7724-23.8396-3.3559Z" style="fill:#698cbd;"/><path d="M42.2975,13.7397S34.1999,3.2503,17.1906,5.4383c0,0,6.3215,3.1597,6.9473,4.4542,0,0-6.0196-1.7343-16.2644,3.1908,0,0,6.3,.9331,7.1656,2.6073,0,0-8.2495,2.4936-11.189,14.0212,0,0,6.0269-7.083,10.2956-7.3661,4.2687-.2831,13.0827-2.085,18.3606-4.6591s7.6396-1.5584,7.6396-1.5584l2.1515-2.3885Z" style="fill:#4dc485;"/><path d="M38.8332,19.4648s2.0473-6.4578,7.6101-9.0839c5.5627-2.626,6.335-8.6751,6.335-8.6751,0,0,6.1413,8.458,5.2908,17.8501-.8505,9.3921-8.296,17.3487-8.296,17.3487" style="fill:#698cbd;"/><path d="M25.9425,34.0658s-.9663,1.7465-10.2105,4.149c-9.2441,2.4025-5.3189,9.0541-3.9677,10.6081s5.9208,6.0375,15.5092,9.298c1.1798,1.0725,1.3675,3.8981,1.3675,3.8981,0,0,1.5713-.4231,2.0861-1.8817,.4119,.607,.5148,2.1569,.5148,2.1569,0,0,18.4432-7.3479,18.5312-19.1886,0,0,1.9091-.6049,4.4306,.4269-.8248-2.3574-1.7139-2.7349-1.7139-2.7349,0,0,1.4254-1.2892,3.8654-.7293-2.8047-2.9151-9.5401-4.385-15.4051-3.392-3.7548,.6358-9.5795,1.3242-15.0075-2.6103Z" style="fill:#d3e1f6;"/><path d="M16.2908,40.5958s-2.5741,.4183-3.4106,1.8662-.3539,2.3488-.3539,2.3488c0,0,3.3425,1.9629,4.2132,2.4455s5.4375-2.523,5.3742-2.9508,.4194-2.3905-1.3503-2.8732-3.2498-.9009-4.4724-.8366Z" style="fill:#2a2a2a;"/><path d="M54.5479,10.7366s2.1236,10.5215-.8044,16.5384c0,0-2.4507-.7218-2.1263-2.0341" style="fill:#d3e1f6;"/><path d="M55.4166,12.6028s-.0322-1.0805-1.1262-2.8569c0,0,0,7.6791-2.995,16.2813" style="fill:none;"/><path d="M42.7715,13.0468s.1287-2.2781,1.5444,1.0038" style="fill:none;"/><path d="M44.6746,11.4146s.671-2.6439,2.3763,.7844" style="fill:none;"/></g><path d="M52.7782,1.7059s-.7722,6.0491-6.335,8.6751c-.1655,.0782-.3178,.17-.4772,.2546-.9121-.7132-1.2915,.779-1.2915,.779l.008,.0026c-.4553,.3205-.8775,.6646-1.2733,1.0245-.568-.5694-.6377,.6051-.6377,.6051l.004,.0026c-.1911,.1964-.3797,.3939-.5553,.5946-.84-1.0195-8.951-10.274-25.0295-8.2058,0,0,6.3215,3.1597,6.9473,4.4542,0,0-3.5475-1.0081-9.8134,.7344-3.9237-4.8668-3.634-5.7969-3.634-5.7969,0,0-4.5294,9.8287-3.7904,17.7392-1.211,1.8703-2.3027,4.2119-3.0501,7.1426,0,0,1.6225-1.9008,3.7755-3.7726,2.1691,6.2449,8.1756,8.8304,8.1756,8.8304,.0003-.0001,.0004-.0003,.0007-.0005,.9498,1.5229,1.8446,2.3635,1.8446,2.3635,.0439,.179,.1079,.3424,.1664,.5101-.6475,.1866-1.3272,.3762-2.0808,.572-9.2441,2.4025-5.3189,9.0541-3.9678,10.6082,1.3512,1.554,5.9208,6.0375,15.5092,9.298,1.1798,1.0725,1.3675,3.898,1.3675,3.898,0,0,1.5712-.4231,2.0861-1.8817,.4118,.607,.5148,2.1568,.5148,2.1568,0,0,7.1562-2.8524,12.5747-7.865,.0308,1.3626-.1552,3.0631-1.045,4.346,1.5981-.3539,2.7597-2.0163,3.1013-3.3302,0,0,.8457,1.9466-.4575,4.0916,0,0,7.4444-7.7479,5.087-16.1866-.0365-.1307-.0784-.242-.1177-.3631,.7544-.102,2.1441-.1399,3.819,.5454-.8248-2.3574-1.7139-2.7349-1.7139-2.7349,0,0,1.4254-1.2892,3.8654-.7293-1.4064-1.4618-3.8017-2.5597-6.5795-3.1663,.0295-.0316,7.4446-7.9723,8.2934-17.3458,.8505-9.3922-5.2908-17.8501-5.2908-17.8501Zm-3.1825,35.1609c.0311-.0316,.0621-.064,.0932-.0961l.0816,.1301c-.0574-.0125-.1171-.0219-.1748-.034Z" style="fill:none; stroke:#000; stroke-linecap:round; stroke-linejoin:round; stroke-width:1.0808px;"/></svg>