<?xml version="1.0" encoding="UTF-8"?><svg id="Capa_4" xmlns="http://www.w3.org/2000/svg" viewBox="0 0 655.1765 655.1765"><g id="Creative_endeavours"><path d="m254.9748,37.9961c72.7044,2.199,143.0595,34.4595,199.8098,95.82,32.5947,35.2427,56.7344,75.609,68.1201,122.7974,6.1704,25.5736,7.7025,51.397,2.347,77.2849-1.0394,5.0245-3.4341,10.2337-6.5912,14.2732-12.5893,16.1079-30.7124,15.6182-42.621-.9612-3.6739-5.1149-6.1254-11.0984-9.7049-16.2926-5.176-7.5108-10.1706-15.3502-16.506-21.8105-9.4874-9.6743-18.8889-7.2958-23.9492,5.3296-4.1184,10.2754-5.8767,21.1305-2.6944,31.8349,5.1196,17.2209,11.0813,34.1933,16.7862,51.2376,2.9055,8.6807,6.3571,17.1898,8.9918,25.9479,10.2801,34.1729-4.5764,65.4069-37.4204,79.3879-52.6629,22.4174-106.6001,23.9287-160.9528,8.1554-71.5018-20.7499-131.0869-60.456-175.3162-120.2798-42.3272-57.2511-56.4122-122.5711-41.5044-192.4158C50.5866,119.5134,100.2021,70.158,176.7426,47.1838c21.8385-6.555,44.3227-9.1928,78.2321-9.1877Zm-72.7555,285.8956c-23.4035-.0255-42.4443,18.7672-42.6106,42.0551-.1672,23.4206,19.0612,42.7766,42.4908,42.7726,23.2631-.0039,42.2686-19.0543,42.2999-42.4002.0315-23.3994-18.8604-42.4022-42.1801-42.4276Zm100.9969-176.3496c-.0379,23.4427,18.7808,42.3831,42.1456,42.4182,23.6023.0355,42.7527-19.0804,42.6243-42.5474-.1271-23.2281-19.2297-42.2113-42.5061-42.2407-23.2609-.0293-42.226,18.9834-42.2638,42.3698Zm-48.7812-2.707c.0525-23.3142-18.8361-42.3897-42.1361-42.5532-23.3148-.1636-42.7599,19.244-42.6856,42.6033.074,23.2732,19.0994,42.1669,42.4814,42.1873,23.3987.0205,42.2877-18.8226,42.3404-42.2374Zm-114.9405,70.8808c-23.4282.0434-42.173,18.8901-42.1553,42.3843.0177,23.4065,18.8203,42.2227,42.2865,42.317,23.413.0941,42.6634-19.2498,42.5016-42.7079-.1609-23.3207-19.1621-42.0369-42.6328-41.9935Z" fill="#fff"/><path d="m575.4938,525.0661l-428.4692,69.565,1.1598-5.1603c1.9215-8.5493.6138-17.5072-3.6717-25.1503l-2.5867-4.6133,430.4741-55.8319c5.7991-.7521,11.1294,3.2867,11.9741,9.0731h0c.8447,5.7864-3.1084,11.1805-8.8805,12.1177Z" fill="#fff"/><path d="m140.7329,573.4467c6.3485,15.4724-9.4623,38.3683-32.6862,42.1508-23.224,3.7826-52.367-12.0358-61.5981-44.454-9.231-32.4182-7.1204-41.548-7.1204-41.548,0,0,11.7481,26.5022,31.9813,26.0424s57.9603-10.129,69.4235,17.8087Z" fill="#fff"/></g></svg>