<?xml version="1.0" encoding="UTF-8"?><svg id="Capa_4" xmlns="http://www.w3.org/2000/svg" viewBox="0 0 655.1765 655.1765"><g id="Gaming"><path d="m154.3698,301.9454c-5.773,1.502-11.1901,3.0542-16.6747,4.3124-18.6566,4.28-37.2656,8.8168-56.0351,12.5379-11.3987,2.2598-22.9445,1.1556-34.4218-.953-12.4632-2.2897-22.5757-8.2079-31.3827-17.2058-14.2274-14.5359-20.0896-42.0942-12.5565-60.963,3.3002-8.2665,9.1989-14.4715,15.7463-20.0975,18.813-16.1655,37.7261-32.2148,56.635-48.2683,19.7504-16.768,39.4901-33.5492,59.3342-50.206,12.224-10.2607,24.1383-20.9905,37.0763-30.2773,19.9371-14.3105,42.6375-18.9221,66.8609-15.2048,5.1463.7897,9.5064.383,13.8725-2.5646,3.6451-2.4608,7.8318-4.1052,11.5717-6.4422,13.0957-8.1834,26.0136-6.2836,38.1947,1.43,16.1946,10.2551,27.2105,24.927,33.5243,43.0417,2.4431,7.0093,1.6437,13.9383-1.8899,20.3143-3.5025,6.3201-7.5013,12.3715-11.4225,18.4503-1.9575,3.0347-2.7629,6.1289-2.3142,9.7612.3505,2.8375,1.3923,4.9707,3.431,7.0059,54.584,54.4912,109.1118,109.0388,163.6491,163.5767,5.4046,5.4046,11.1926,6.0697,17.7601,1.8772,4.447-2.8388,8.8532-5.752,13.1587-8.8,10.2994-7.2912,21.0738-7.3729,32.0644-2.026,13.429,6.5333,25.1486,15.3006,34.1083,27.4235,4.5373,6.1392,7.126,13.1253,8.5522,20.5735,1.1633,6.0751-.3098,11.7214-2.9964,17.1023-3.015,6.0386-6.4485,11.8858-9.1418,18.0598-1.2609,2.8905-1.8637,6.3977-1.6484,9.549,1.3802,20.1982,1.2514,40.2364-8.9038,58.4963-4.4952,8.0826-10.0554,15.7195-16.0155,22.817-37.9808,45.2295-76.148,90.3031-114.4252,135.2822-5.1287,6.0267-10.56,12.1972-17.0043,16.6215-14.4364,9.9113-30.5622,9.5286-46.7309,4.7438-18.8023-5.5641-31.1285-17.9341-36.9816-36.6136-5.6123-17.9107-5.6783-36.1128-1.5148-54.2438,4.1209-17.9451,8.894-35.7405,13.3916-53.599,1.7631-7.001,1.798-7.136-5.1585-8.2328-44.1845-6.9661-70.7323-51.9844-56.1127-93.1545,1.9261-5.4242,1.1652-8.7114-3.0479-12.6028-9.2853-8.5764-18.1288-17.6481-26.8644-26.793-2.8519-2.9856-5.1787-3.5799-9.1643-2.1891-19.4447,6.7853-38.6942,6.0362-57.1883-3.2991-20.9213-10.5605-33.1004-27.8672-37.7345-50.6706-.5371-2.6432-.993-5.3029-1.6009-8.5698Zm19.9952-87.2866c27.4317,27.6891,73.1094,27.8554,100.9447.3674,28.4809-28.1255,28.6344-74.6218.3405-103.1486-27.2734-27.4979-73.6426-27.507-101.4014-.0198-28.8071,28.5253-28.7561,73.6579.1161,102.8011Zm266.9313,266.0036c27.1679,30.8948,76.0134,26.6202,101.3795.9964,28.1993-28.4858,28.3165-74.3096-.1693-102.7909-27.7268-27.7224-73.6382-27.5094-101.6465.1703-27.8353,27.5086-28.8134,75.8124.4364,101.6242Zm-185.6986-151.0362c16.7429-14.3864,17.5271-44.5287-1.1337-62.1126-17.5111-16.5005-43.7201-15.8293-61.7256,2.3958-15.3658,15.5532-14.2899,43.8093,2.2466,60.0057,18.795,18.4084,47.9812,14.6154,60.6127-.2889Zm70.3507,130.6796c14.38,16.6485,45.7999,15.9924,59.4669,1.4593,17.9978-19.1384,18.859-44.4173.791-62.4323-17.2729-17.2221-43.973-17.2895-61.1712-.1546-16.9021,16.8399-16.5003,43.7282.9134,61.1275Zm-9.314-96.9897c5.2004-5.2004,10.2202-10.3512,15.4029-15.3325,1.8345-1.7632,1.8831-2.9155.0296-4.7253-7.4485-7.2727-14.7529-14.6928-22.1319-22.0369-.6527-.6496-1.4599-1.1441-2.1718-1.6924-5.9188,5.9188-11.6051,11.6051-17.458,17.458,8.756,8.756,17.3672,17.3672,26.3291,26.3291Zm-14.9233-128.4729c-3.6448,3.6448-7.0764,6.9397-10.2904,10.4348-.4931.5362-.4107,2.4119.1276,2.9641,7.356,7.546,14.8195,14.9882,22.3335,22.3775.5241.5154,2.0807.8654,2.4389.5286,3.6977-3.4773,7.2474-7.112,10.9154-10.7801-8.6573-8.6573-16.8713-16.8713-25.525-25.525Zm71.3489,100.1825c11.1427,5.4652,21.5377,10.5636,31.9327,15.6621.2905-.4009.5809-.8019.8714-1.2028-5.3823-10.0942-10.7646-20.1883-16.4369-30.8265-5.6523,5.6523-10.7394,10.7394-16.3672,16.3672Z" fill="#fff"/><path d="m229.0863,167.128c8.5039.2198,15.7311.3911,22.9566.6184.6872.0216,1.5627.1912,2.0143.6347,5.3129,5.2173,10.5615,10.5001,16.1366,16.0753-4.751,4.751-9.2414,9.242-13.7325,13.7323-2.689,2.6885-5.422,5.335-8.051,8.0809-1.3351,1.3945-2.3995,1.7606-3.9325.1793-4.4391-4.5791-9.0193-9.0214-13.4764-13.5835-.6345-.6495-1.2388-1.6527-1.2718-2.5146-.281-7.3367-.4266-14.6787-.6433-23.2229Z" fill="#fff"/><path d="m181.0603,142.8955c7.4945-7.4945,14.6412-14.7129,21.9283-21.7867.5588-.5425,2.5317-.5307,3.1307.013,4.9023,4.4499,9.6614,9.06,14.3799,13.7067.5154.5075.6802,1.5487.7031,2.351.2129,7.4771.3592,14.9562.5161,22.0425-8.2286.2389-15.6578.4604-23.0877.651-.3296.0085-.7491-.1819-.9879-.4194-5.5447-5.5132-11.0701-11.0458-16.5824-16.5581Z" fill="#fff"/><path d="m204.6921,207.2279c-8.0318-8.0318-15.7076-15.7076-23.817-23.817,3.6679-3.6679,7.5393-7.0355,10.7883-10.9232,3.5918-4.2979,7.6353-6.0929,13.3216-5.6873,5.075.362,10.2377-.5064,15.9991-.8724.0874,9.0481.1653,16.5953.2163,24.1428.0023.3386-.1493.7697-.383,1.005-5.3212,5.356-10.6639,10.6907-16.1253,16.1521Z" fill="#fff"/><path d="m228.7424,160.7993c-.0626-8.7534-.1438-16.2245-.1279-23.6954.0017-.7691.3888-1.7274.926-2.2758,4.8852-4.9876,9.8436-9.9036,15.1434-15.2035,1.7471,1.7471,3.2816,3.2813,4.8158,4.8159,5.6441,5.6454,11.2482,11.3318,16.958,16.9099,1.5766,1.5403,1.6905,2.6306.0498,4.2128-4.5078,4.3472-8.8415,8.8751-13.3566,13.2145-.7893.7586-2.1097,1.2948-3.2114,1.3447-6.9835.3157-13.9745.4656-21.1973.6771Z" fill="#fff"/><path d="m478.537,389.3484c7.246,7.2764,7.14,19.5825-.2315,26.8836-7.0448,6.9775-20.206,7.0951-27.1176.2422-7.0813-7.0212-6.95-20.0742.2751-27.3294,7.5341-7.5656,19.4265-7.4761,27.074.2036Z" fill="#fff"/><path d="m533.9407,388.5603c7.2582,7.2557,7.1456,19.5319-.2464,26.8607-7.0797,7.0192-20.1402,7.1283-27.0983.2263-7.0603-7.0033-6.9564-20.1659.216-27.3845,7.421-7.4688,19.4921-7.3365,27.1287.2975Z" fill="#fff"/><path d="m477.6373,444.7309c7.2415,7.3668,6.8894,20.0888-.7626,27.5583-7.1349,6.9647-19.5214,6.6714-26.5854-.6293-7.1619-7.4019-6.9216-20.085.517-27.2899,7.5515-7.3143,19.4436-7.1544,26.831.3609Z" fill="#fff"/><path d="m532.8378,470.8919c-7.1146,6.9708-20.2161,7.0276-27.1132.1175-7.0593-7.0726-6.8737-20.1208.3889-27.3487,7.5261-7.4903,19.5003-7.3333,27.0917.355,7.2132,7.3052,7.0449,19.6137-.3675,26.8762Z" fill="#fff"/><path d="m389.462,273.5807s34.6493-21.7968,39.5468-37.2387c21.9517-69.214-74.0579-52.246-60.0759-110.9703,13.982-58.7243,123.3119-41.7957,142.6162,41.7563,11.372,49.2198-23.4897,72.8959,0,115.9604,23.4897,43.0645,148.209,55.3686,105.1445-51.4537-43.0645-106.8223-83.3326-185.6807-159.3946-184.0028-76.062,1.6778-172.8173,36.0735-172.8173-47.6319" fill="none" stroke="#fff" stroke-miterlimit="10" stroke-width="19"/></g></svg>