<?xml version="1.0" encoding="UTF-8"?><svg id="Capa_4" xmlns="http://www.w3.org/2000/svg" viewBox="0 0 655.1765 655.1765"><path id="Updates" d="m532.6412,42.3529s-7.272,56.9551-59.647,81.6806c-1.5597.7361-2.9941,1.6005-4.4939,2.3981-8.5892-6.7145-12.1592,7.3346-12.1592,7.3346l.0736.0247c-4.2859,3.0176-8.2616,6.2576-11.9877,9.6459-5.3491-5.3623-6.0043,5.6973-6.0043,5.6973l.0367.0247c-1.7987,1.8488-3.5745,3.7084-5.2284,5.5991-7.911-9.6011-84.2798-96.7355-235.6671-77.262,0,0,59.5205,29.7505,65.4132,41.9388,0,0-33.4014-9.4919-92.3977,6.9139-36.9449-45.8231-34.2163-54.58-34.2163-54.58,0,0-42.6456,92.5409-35.6874,167.0231-11.4016,17.6104-21.6815,39.6567-28.7178,67.2516,0,0,15.2749-17.8972,35.5472-35.5214,20.4217,58.7987,76.9769,83.1431,76.9769,83.1431.0023-.0017.0046-.0029.0069-.0046,8.9431,14.3394,17.369,22.2532,17.369,22.2532.4115,1.6861,1.0161,3.2239,1.5654,4.8037-6.0962,1.7562-12.4958,3.5417-19.5919,5.3859-87.0383,22.621-50.0797,85.2494-37.3586,99.8807,12.7233,14.6318,55.7483,56.8465,146.0278,87.5457,11.1074,10.0983,12.8751,36.7023,12.8751,36.7023,0,0,14.7945-3.9836,19.6425-17.7173,3.8779,5.7151,4.8469,20.3085,4.8469,20.3085,0,0,67.3786-26.8564,118.3962-74.0518.2896,12.8291-1.462,28.839-9.8385,40.9176,15.0463-3.332,25.9835-18.9857,29.1993-31.3555,0,0,7.9615,18.3281-4.3066,38.5258,0,0,70.0923-72.9518,47.8959-152.4056-.3436-1.2303-.739-2.2774-1.108-3.417,7.103-.9603,20.1873-1.3183,35.9587,5.1353-7.7661-22.1957-16.137-25.7501-16.137-25.7501,0,0,13.4199-12.1389,36.3943-6.8668-13.2417-13.7635-35.7942-24.1008-61.9513-29.8131.2552-.2719,70.0946-75.0505,78.0895-163.3215,8.0063-88.4313-49.8164-168.0678-49.8164-168.0678Zm-205.053,378.1767c-22.1616,0-43.624-7.9297-60.4341-22.3291l13.0107-15.1895c13.1885,11.2969,30.0303,17.5186,47.4233,17.5186,40.2197,0,72.9414-32.7217,72.9414-72.9414s-32.7217-72.9414-72.9414-72.9414c-12.8212,0-25.1666,3.3185-36.0433,9.518l28.0332,14.0463-74.9351,49.3752-5.3054-89.5803,31.6688,15.8679c16.1688-12.4508,35.8898-19.2271,56.5817-19.2271,51.248,0,92.9414,41.6934,92.9414,92.9414s-41.6934,92.9414-92.9414,92.9414Zm175.0857-47.1161c.2943-.2983.5862-.6046.8805-.908l.7701,1.2281c-.5425-.1179-1.1057-.2057-1.6506-.3201Z" fill="#fff"/></svg>