<?xml version="1.0" encoding="UTF-8"?><svg id="Capa_4" xmlns="http://www.w3.org/2000/svg" viewBox="0 0 655.1765 655.1765"><g id="Misc"><path d="m462.0882,159.3236h75.2942c-43.7178-43.7178-71.8842-71.8842-115.5881-115.5881v75.2942c0,22.2183,18.0762,40.2939,40.2939,40.2939Z" fill="#fff"/><path d="m462.0882,178.3236c-32.6943,0-59.2939-26.5991-59.2939-59.2939V34.2353h-251.9708c-23.4559,0-42.4706,19.0147-42.4706,42.4706v501.7647c0,23.4559,19.0147,42.4706,42.4706,42.4706h353.5294c23.4559,0,42.4707-19.0147,42.4707-42.4706V178.3236h-84.7354Zm-291.147,71h233.9995v19h-233.9995v-19Zm0,55.0586h186.353v19h-186.353v-19Zm0,55.0586h257.2944v19H170.9413v-19Zm289.0587,210.6769H170.9412v-152.4706h289.0588v152.4706Zm.0004-356.8531H170.9413v-19h289.0591v19Z" fill="#fff"/><circle cx="315.4706" cy="493.8824" r="19.6765" fill="#fff"/><circle cx="244.4412" cy="493.8824" r="19.6765" fill="#fff"/><circle cx="386.5" cy="493.8824" r="19.6765" fill="#fff"/></g></svg>