<?xml version="1.0" encoding="UTF-8"?><svg id="Capa_4" xmlns="http://www.w3.org/2000/svg" viewBox="0 0 655.1765 655.1765"><g id="Outdoor_Adventures"><path d="m327.5882,621.6016c111.413,0,220.8161,8.6027,327.5882,25.163-97.3171-53.084-208.9279-83.2569-327.5882-83.2569S97.317,593.6806,0,646.7646c106.7722-16.5603,216.1751-25.163,327.5882-25.163Z" fill="#fff"/><ellipse cx="482.0981" cy="134.0196" rx="25.4224" ry="68.838" transform="translate(6.883 290.7053) rotate(-33.7837)" fill="#fff"/><rect x="382.0968" y="128.6721" width="178.8204" height="25.183" transform="translate(326.7314 -329.1768) rotate(56.2163)" fill="#fff"/><rect x="238.4366" y="238.2882" width="149.017" height="18.9206" transform="translate(344.8434 -150.1163) rotate(56.2163)" fill="#fff"/><polygon points="265.5103 204.1992 137.8752 305.0174 193.2037 387.717 335.0978 308.2121 265.5103 204.1992" fill="#fff"/><polygon points="296.0106 344.5298 190.4624 584.3852 215.6189 595.2271 318.5638 360.4929 416.2415 585.0141 445.1714 570.5492 325.0494 323.3871 296.0106 344.5298" fill="#fff"/><path d="m101.6952,358.9693l104.3857-69.8371,27.8331,41.6021-83.0619,55.5709c-13.8988-2.7561-21.6913-4.3014-35.59-7.0575l-13.5668-20.2784Z" fill="#fff"/><rect x="118.8355" y="318.7647" width="25.1564" height="18.4481" transform="translate(-160.1909 128.4571) rotate(-33.7837)" fill="#fff"/><polygon points="413.8634 87.016 289.4552 185.2853 361.7178 293.2966 500.0252 215.8013 413.8634 87.016" fill="#fff"/></g></svg>