<?xml version="1.0" encoding="UTF-8"?><svg id="Capa_1" xmlns="http://www.w3.org/2000/svg" xmlns:xlink="http://www.w3.org/1999/xlink" viewBox="0 0 57.1366 57.1364"><defs><style>.cls-1{fill:url(#Degradado_sin_nombre_41);}.cls-2{fill:url(#Degradado_sin_nombre_44);}.cls-3{stroke:#fff;stroke-linejoin:round;stroke-width:8px;}.cls-3,.cls-4{fill:none;}.cls-5,.cls-6{fill:url(#Degradado_sin_nombre_62);}.cls-4{stroke:#5b5b5b;}.cls-4,.cls-6{stroke-miterlimit:10;stroke-width:4px;}.cls-7{fill:#ffdc89;}.cls-8{fill:#261101;}.cls-9{fill:#48423c;}.cls-10{fill:#894e01;}.cls-6{stroke:#8e0c30;}</style><linearGradient id="Degradado_sin_nombre_41" x1="765.4772" y1="5541.5862" x2="781.2827" y2="5541.5862" gradientTransform="translate(-834.5823 -4762.6882) scale(1.1165 .8645)" gradientUnits="userSpaceOnUse"><stop offset="0" stop-color="#fdfc7e"/><stop offset=".1666" stop-color="#fdfb7f"/><stop offset=".2266" stop-color="#fdfa86"/><stop offset=".2694" stop-color="#fdf892"/><stop offset=".3037" stop-color="#fef6a3"/><stop offset=".333" stop-color="#fef3b8"/><stop offset=".3354" stop-color="#fff3bb"/><stop offset=".3719" stop-color="#ffdb00"/><stop offset=".6319" stop-color="#ffd900"/><stop offset=".7255" stop-color="#ffd200"/><stop offset=".792" stop-color="#ffc600"/><stop offset=".8345" stop-color="#ffba00"/><stop offset=".9087" stop-color="#ffba00"/></linearGradient><linearGradient id="Degradado_sin_nombre_44" x1="765.4771" y1="23126.2208" x2="781.2826" y2="23126.2208" gradientTransform="translate(-827.1327 -2980.0661) scale(1.1165 .1298)" gradientUnits="userSpaceOnUse"><stop offset="0" stop-color="#e0e0e0"/><stop offset=".1596" stop-color="#e1e1e1"/><stop offset=".2171" stop-color="#e8e8e8"/><stop offset=".2579" stop-color="#f4f4f4"/><stop offset=".2805" stop-color="#fff"/><stop offset=".3582" stop-color="#fbfbfb"/><stop offset=".4359" stop-color="#efefef"/><stop offset=".4787" stop-color="#e5e5e5"/><stop offset=".6657" stop-color="#e3e3e3"/><stop offset=".7331" stop-color="#dcdcdc"/><stop offset=".7811" stop-color="#d0d0d0"/><stop offset=".8197" stop-color="#bfbfbf"/><stop offset=".8345" stop-color="#b7b7b7"/><stop offset=".9192" stop-color="#969696"/></linearGradient><radialGradient id="Degradado_sin_nombre_62" cx="40.5536" cy="12.8838" fx="40.5536" fy="12.8838" r="25.0352" gradientTransform="translate(35.006 55.641) rotate(-89.6969) scale(1 .4264)" gradientUnits="userSpaceOnUse"><stop offset="0" stop-color="#ffc0e0"/><stop offset=".1" stop-color="#fdbada"/><stop offset=".2333" stop-color="#f7a9cb"/><stop offset=".3847" stop-color="#ef8db2"/><stop offset=".4157" stop-color="#ed87ad"/><stop offset=".6511" stop-color="#eb85ab"/><stop offset=".7358" stop-color="#e57ea5"/><stop offset=".796" stop-color="#da729c"/><stop offset=".8345" stop-color="#cf6692"/><stop offset=".9192" stop-color="#b24175"/></radialGradient></defs><path class="cls-3" d="m52.6937,14.7735l-10.3314-10.3306c-.5905-.5904-1.5567-.5904-2.1472,0L4,40.658v12.4785h12.4772L52.6938,16.9205c.5905-.5905.5905-1.5566,0-2.1471Z"/><path class="cls-8" d="m3.9998,40.6583l12.478,12.478H3.9998v-12.478m-.0004-2.0001c-.2577,0-.5175.0498-.7649.1523-.7474.3096-1.2346,1.0388-1.2346,1.8478v12.478c0,1.1046.8954,2,2,2h12.478c.8089,0,1.5382-.4873,1.8478-1.2346.3096-.7474.1385-1.6076-.4335-2.1796l-12.478-12.478c-.3826-.3826-.8942-.5858-1.4147-.5858h0Z"/><path class="cls-1" d="m23.2665,1.885h11.2339c1.7696,0,3.2064,1.4367,3.2064,3.2064v49.5287h-17.6466V5.0914c0-1.7696,1.4367-3.2064,3.2064-3.2064Z" transform="translate(28.4374 -12.1487) rotate(45)"/><path class="cls-10" d="m41.2891,7.0343c2.2616,0,4.5233.8579,6.239,2.5736h0c3.4315,3.4315,3.4315,9.0466,0,12.478l-31.0503,31.0503-12.478-12.478,31.0503-31.0503c1.7157-1.7157,3.9774-2.5736,6.239-2.5736m0-2c-2.8979,0-5.6159,1.122-7.6532,3.1594L2.5856,39.244c-.7811.781-.7811,2.0474,0,2.8284l12.478,12.478c.3905.3905.9024.5858,1.4142.5858s1.0237-.1953,1.4142-.5858l31.0503-31.0503c4.22-4.22,4.22-11.0864,0-15.3064-2.0373-2.0374-4.7553-3.1594-7.6532-3.1594h0Z"/><rect class="cls-4" x="27.5097" y="16.8455" width="17.6466" height="7.9151" transform="translate(25.3517 -19.5983) rotate(45)"/><polygon class="cls-7" points="3.9998 40.6583 16.4778 53.1363 3.9998 53.1363 3.9998 40.6583"/><polygon class="cls-9" points="3.9998 47.1346 10.0015 53.1363 3.9998 53.1363 3.9998 47.1346"/><rect class="cls-2" x="27.5097" y="16.8455" width="17.6466" height="7.9151" transform="translate(25.3517 -19.5983) rotate(45)"/><path class="cls-6" d="m36.3774,7.8689h13.9047c1.0326,0,1.8709.8383,1.8709,1.8709v10.0038h-17.6466v-10.0038c0-1.0326.8383-1.8709,1.8709-1.8709Z" transform="translate(22.4535 -26.595) rotate(45)"/><path class="cls-5" d="m36.3774,7.8689h13.9047c1.0326,0,1.8709.8383,1.8709,1.8709v10.0038h-17.6466v-10.0038c0-1.0326.8383-1.8709,1.8709-1.8709Z" transform="translate(22.4535 -26.595) rotate(45)"/></svg>