<?xml version="1.0" encoding="UTF-8"?><svg id="a" xmlns="http://www.w3.org/2000/svg" viewBox="0 0 256 256"><path d="m193.5149,159.4978c.1891-1.5081.1901-3.0143,0-4.5V59.9764c0-6.9391-6.7727-11.8571-13.3711-9.7095l-65.6717,21.3748c-8.569,2.789-14.3692,10.7766-14.3692,19.7881v66.7641c-6.6053-2.3767-14.9319-2.2707-23.0466.9048-14.823,5.8008-23.2843,19.5875-18.899,30.7937,4.3855,11.2062,19.9569,15.5884,34.7796,9.7876,13.5713-5.3107,21.7773-17.3119,19.7062-27.9016v-50.4027c0-5.8158,3.7433-10.9708,9.2736-12.7708l53.699-17.4779c3.1497-1.0252,6.3826,1.3224,6.3826,4.6348v45.0331c-6.7799-2.8562-15.6402-2.948-24.263.4264-14.8227,5.8008-23.2841,19.5875-18.8988,30.7937s19.9567,15.5884,34.7796,9.7876c11.1102-4.3477,18.6453-13.1821,19.877-22.0534h.0217v-.2514h.0001Z" style="fill:#e1f4ff; stroke-width:0px;"/></svg>