<svg width="24" height="23" viewBox="0 0 24 23" fill="none" xmlns="http://www.w3.org/2000/svg">
<g clip-path="url(#clip0_32_356)">
<path d="M5.82443 1.41202C6.11619 1.41202 6.35189 1.64419 6.35189 1.93119V3.60246C6.62719 3.66829 6.8825 3.78136 7.10734 3.93735C7.10909 3.8067 7.15916 3.67673 7.26005 3.57676L7.67579 3.1672C7.77875 3.06575 7.91385 3.01516 8.04895 3.01516C8.18406 3.01516 8.31916 3.06578 8.42212 3.16667C8.62805 3.36937 8.62806 3.69791 8.42248 3.90131L8.00674 4.31087C7.90589 4.41031 7.77384 4.45945 7.64143 4.46153C7.79762 4.67732 7.91077 4.92277 7.97941 5.18667C8.15174 5.15187 8.32966 5.13341 8.51178 5.13341H19.9019C21.3669 5.13341 22.5654 6.31326 22.5654 7.75525V20.8344C22.5654 21.2487 22.2211 21.588 21.8002 21.588H8.51182C7.04712 21.588 5.84825 20.408 5.84825 18.966V10.0493C5.83986 10.0498 5.83283 10.0539 5.82443 10.0539C5.53304 10.0539 5.29698 9.82195 5.29698 9.53496V7.86334C5.02168 7.7975 4.76637 7.68461 4.54153 7.52876C4.53978 7.65923 4.48971 7.78956 4.38846 7.88918L3.97237 8.29887C3.86904 8.40022 3.73419 8.45091 3.59938 8.45091C3.46456 8.45091 3.32936 8.40022 3.22639 8.29887C3.02046 8.096 3.02046 7.76746 3.22639 7.56477L3.64281 7.15507C3.74366 7.0558 3.87535 7.00649 4.00741 7.0044C3.84594 6.78102 3.72792 6.52696 3.66031 6.25219H1.96199C1.67024 6.25219 1.43454 6.01984 1.43454 5.73302C1.43454 5.44603 1.67024 5.21386 1.96199 5.21386H3.65995C3.72684 4.94289 3.84171 4.69158 4.00002 4.47028C3.86728 4.46855 3.73523 4.4191 3.63366 4.31948L3.21757 3.90992C3.01163 3.70705 3.01163 3.37851 3.21757 3.17581C3.32053 3.07436 3.45545 3.02367 3.59045 3.02367C3.72544 3.02367 3.86043 3.07439 3.96358 3.17581L4.37968 3.58537C4.48053 3.68481 4.53063 3.81426 4.53275 3.94459C4.7597 3.78514 5.01781 3.66914 5.29698 3.60246V1.93119C5.29698 1.64419 5.53304 1.41202 5.82443 1.41202ZM5.82443 0C4.84552 0 4.03172 0.709364 3.88572 1.63325C3.78885 1.61895 3.69022 1.61165 3.59048 1.61165C3.06622 1.61165 2.57341 1.81272 2.20279 2.1778C1.74742 2.62604 1.56329 3.24211 1.65062 3.82619C0.716174 3.97343 0 4.77246 0 5.73309C0 6.69708 0.721231 7.49836 1.66052 7.64151C1.57075 8.2275 1.75441 8.84663 2.21154 9.29696C2.58252 9.66211 3.07526 9.86301 3.59938 9.86301C3.69661 9.86301 3.79276 9.85609 3.88726 9.84246C3.95225 10.2404 4.14114 10.598 4.41368 10.8757V18.966C4.41368 21.1904 6.25208 23 8.51182 23H21.8002C23.0132 23 24 22.0285 24 20.8344V7.75525C24 5.53096 22.1616 3.72138 19.9019 3.72138H10.0004C10.0551 3.16586 9.86692 2.59184 9.43658 2.16827C9.06406 1.80319 8.57211 1.60324 8.04913 1.60317C7.95201 1.60317 7.856 1.61006 7.76161 1.62358C7.61155 0.704352 6.80002 0 5.82443 0Z" fill="white"/>
<path d="M8.51202 5.13342H19.9018C21.3719 5.13342 22.5655 6.30823 22.5655 7.7553V20.8345C22.5655 21.2503 22.2225 21.5879 21.8001 21.5879H8.51202C7.04187 21.5879 5.84827 20.4131 5.84827 18.966V7.7553C5.84827 6.30826 7.04183 5.13342 8.51202 5.13342Z" fill="url(#paint0_linear_32_356)"/>
<path d="M7.79796 5.13342H8.29769V21.5879H7.80108C6.72328 21.5879 5.84827 20.7266 5.84827 19.6657V7.05243C5.84827 5.99331 6.72192 5.13342 7.79796 5.13342Z" fill="url(#paint1_linear_32_356)"/>
<path d="M7.93026 18.4839H22.5655V20.8948H7.93026C7.25433 20.8948 6.70557 20.3547 6.70557 19.6894C6.70557 19.0241 7.25433 18.4839 7.93026 18.4839Z" fill="url(#paint2_linear_32_356)"/>
<path d="M19.2435 8.11694H11.0227C10.769 8.11694 10.5634 8.31934 10.5634 8.569V10.8292C10.5634 11.0789 10.769 11.2812 11.0227 11.2812H19.2435C19.4972 11.2812 19.7028 11.0789 19.7028 10.8292V8.569C19.7028 8.31934 19.4972 8.11694 19.2435 8.11694Z" stroke="#A3ECFF" stroke-width="2" stroke-miterlimit="10"/>
<path d="M19.9017 5.13344C21.3669 5.13344 22.5655 6.31329 22.5655 7.75532V20.8344C22.5655 21.2488 22.2211 21.5879 21.7999 21.5879H8.51196C8.43851 21.5879 8.36965 21.5722 8.2977 21.5665V21.5879H7.80109C6.72247 21.5879 5.84821 20.7274 5.84821 19.6658V7.05252C5.84821 5.99262 6.72122 5.13348 7.79804 5.13348H8.2977V5.15487C8.36965 5.14911 8.43851 5.13348 8.51196 5.13348L19.9017 5.13344ZM19.9017 4.42746H7.79804C6.32739 4.42746 5.13092 5.60506 5.13092 7.05252V19.6659C5.13092 21.115 6.32875 22.2939 7.80109 22.2939H21.7999C22.6176 22.2939 23.2827 21.6392 23.2827 20.8345V7.75532C23.2827 5.92032 21.766 4.42746 19.9017 4.42746Z" fill="#001C51"/>
<path d="M5.82449 10.407C5.33591 10.407 4.93839 10.0158 4.93839 9.53488V8.12526C4.86677 8.10009 4.79655 8.07181 4.72808 8.04046C4.70215 8.07495 4.67346 8.10803 4.64212 8.13871L4.22588 8.54826C4.059 8.71305 3.83642 8.80405 3.59947 8.80405C3.36237 8.80405 3.1398 8.71305 2.97238 8.54791C2.80551 8.38348 2.71337 8.16458 2.71337 7.93188C2.71337 7.69883 2.80547 7.47993 2.97288 7.31514L3.38913 6.90559C3.41943 6.87558 3.45182 6.84801 3.48578 6.8232C3.45182 6.75217 3.42115 6.67945 3.39386 6.60497H1.96191C1.47333 6.60497 1.07581 6.2137 1.07581 5.7328C1.07581 5.25225 1.47333 4.86098 1.96191 4.86098H3.39368C3.41961 4.79031 3.4483 4.72137 3.48018 4.6538C3.445 4.62828 3.41172 4.60004 3.38037 4.56901L2.96413 4.15945C2.61898 3.81954 2.6188 3.26659 2.96395 2.92633C3.13155 2.7612 3.35412 2.67055 3.59072 2.67055C3.82732 2.67055 4.04989 2.7612 4.21712 2.92598L4.63337 3.33585C4.66385 3.36586 4.69168 3.39756 4.71689 3.43099C4.78905 3.39756 4.86293 3.3672 4.93843 3.34034V1.93107C4.93843 1.45017 5.33595 1.0589 5.82453 1.0589C6.31311 1.0589 6.71063 1.45017 6.71063 1.93107V3.34034C6.78225 3.36551 6.85229 3.3941 6.92093 3.42513C6.94669 3.39064 6.97523 3.35824 7.0064 3.32756L7.42178 2.91768C7.58955 2.75255 7.81195 2.66225 8.04869 2.66225C8.28511 2.66225 8.5075 2.75258 8.67491 2.91631C9.02061 3.25622 9.02111 3.80952 8.67685 4.1501L8.26075 4.56032C8.23012 4.59033 8.1977 4.6179 8.16338 4.64307C8.19735 4.71409 8.22801 4.78681 8.25516 4.86094H9.68711C10.1757 4.86094 10.5732 5.25222 10.5732 5.73276C10.5732 6.21366 10.1757 6.60493 9.68711 6.60493H8.25516C8.22941 6.67525 8.20068 6.74455 8.16901 6.81176C8.20369 6.83693 8.2368 6.86485 8.26796 6.89517L8.68492 7.3054C9.0299 7.6446 9.03044 8.19791 8.68614 8.53852C8.51819 8.70401 8.29543 8.79466 8.05851 8.79466C7.8221 8.79466 7.5997 8.70433 7.43229 8.5399L7.01605 8.13105C6.98542 8.10072 6.95719 8.06863 6.9318 8.03485C6.85964 8.06828 6.78594 8.09829 6.71063 8.12519V9.53481C6.71063 10.0157 6.31307 10.407 5.82449 10.407Z" fill="url(#paint3_radial_32_356)"/>
<path d="M5.82449 1.41198C6.11603 1.41198 6.35195 1.64419 6.35195 1.93114V3.60241C6.62724 3.66832 6.88249 3.78139 7.10732 3.93727C7.10912 3.80673 7.15907 3.67669 7.26003 3.57682L7.6757 3.16716C7.77874 3.06577 7.91377 3.01519 8.04887 3.01519C8.18397 3.01519 8.31903 3.06577 8.42207 3.16666C8.62811 3.36946 8.62811 3.69797 8.42257 3.9013L8.00691 4.31093C7.90595 4.4103 7.77382 4.45948 7.64145 4.46152C7.8032 4.68497 7.92115 4.9391 7.98887 5.21388H9.68708C9.97862 5.21388 10.2145 5.44609 10.2145 5.73305C10.2145 6.02001 9.97862 6.25218 9.68708 6.25218H7.98887C7.92191 6.52315 7.80703 6.77463 7.64866 6.99578C7.78154 6.99758 7.91395 7.04686 8.01516 7.14599L8.43136 7.55516C8.6374 7.75796 8.6374 8.08647 8.43186 8.28976C8.32886 8.39118 8.1934 8.44187 8.05844 8.44187C7.92349 8.44187 7.78853 8.39118 7.68553 8.29029L7.26936 7.88116C7.1684 7.78164 7.11819 7.65188 7.1164 7.52144C6.88923 7.68061 6.63119 7.79661 6.35202 7.8634V9.53495C6.35202 9.82191 6.1161 10.0541 5.82456 10.0541C5.53302 10.0541 5.29711 9.82188 5.29711 9.53495V7.8634C5.02181 7.79749 4.76657 7.68471 4.54173 7.52879C4.53994 7.65933 4.48969 7.78962 4.38852 7.88924L3.97232 8.2989C3.86931 8.40029 3.73436 8.45098 3.5994 8.45098C3.46444 8.45098 3.32948 8.40029 3.22648 8.2989C3.02044 8.0961 3.02044 7.7676 3.22648 7.56479L3.64265 7.15513C3.74361 7.05576 3.87548 7.00659 4.00757 7.00454C3.84582 6.78109 3.7279 6.52699 3.66015 6.25218H1.96194C1.6704 6.25218 1.43452 6.01997 1.43452 5.73305C1.43452 5.44613 1.67044 5.21388 1.96194 5.21388H3.6599C3.72686 4.94302 3.84173 4.69158 4.00011 4.47042C3.86748 4.46862 3.73511 4.4192 3.6339 4.31958L3.21769 3.90995C3.01165 3.70715 3.01165 3.37864 3.21769 3.17581C3.3207 3.07442 3.45565 3.02373 3.59061 3.02373C3.72557 3.02373 3.86053 3.07442 3.96353 3.17581L4.37973 3.58547C4.48069 3.68484 4.53065 3.81436 4.5327 3.94455C4.75986 3.7852 5.0179 3.66924 5.29707 3.60245V1.93118C5.29707 1.64422 5.53295 1.41198 5.82449 1.41198ZM5.82453 0.706003C5.13819 0.706003 4.57979 1.2556 4.57979 1.93118V2.78393L4.47072 2.67659C4.2356 2.44516 3.92304 2.31768 3.59061 2.31768C3.25819 2.31768 2.94563 2.44512 2.7105 2.67655C2.22522 3.15424 2.22522 3.93145 2.71043 4.4091L2.81074 4.50784H1.96187C1.27553 4.50784 0.717163 5.05743 0.717163 5.73301C0.717163 6.4086 1.27553 6.95815 1.96187 6.95815H2.82828L2.71922 7.0655C2.48409 7.2969 2.35458 7.60454 2.35458 7.93178C2.35458 8.25901 2.48409 8.56666 2.71922 8.79805C2.95431 9.02945 3.2669 9.15692 3.59933 9.15692C3.93175 9.15692 4.24435 9.02945 4.47944 8.79802L4.57971 8.69928V9.53481C4.57971 10.2104 5.13808 10.76 5.82446 10.76C6.51083 10.76 7.0692 10.2104 7.0692 9.53481V8.6822L7.17858 8.78972C7.41468 9.02094 7.72677 9.14778 8.05841 9.14778C8.39119 9.14778 8.70397 9.02031 8.93909 8.78884C9.42369 8.30949 9.4229 7.5326 8.93852 7.05587L8.8391 6.95812H9.68708C10.3734 6.95812 10.9318 6.40852 10.9318 5.73298C10.9318 5.05743 10.3734 4.5078 9.68708 4.5078H8.82085L8.93005 4.40017C9.4144 3.921 9.41361 3.14414 8.92923 2.66741C8.69288 2.43594 8.38068 2.30914 8.04887 2.30914C7.71619 2.30914 7.40356 2.43654 7.16851 2.66787L7.0692 2.76572V1.93111C7.0692 1.25553 6.5109 0.706003 5.82453 0.706003Z" fill="#442200"/>
</g>
<defs>
<linearGradient id="paint0_linear_32_356" x1="14.2069" y1="5.43478" x2="14.2069" y2="11.3077" gradientUnits="userSpaceOnUse">
<stop stop-color="#8DDFF7"/>
<stop offset="0.0902" stop-color="#6AD7F8"/>
<stop offset="0.1969" stop-color="#4ACFF9"/>
<stop offset="0.3122" stop-color="#2FC9FA"/>
<stop offset="0.4371" stop-color="#1AC4FB"/>
<stop offset="0.5765" stop-color="#0BC0FC"/>
<stop offset="0.742" stop-color="#02BEFC"/>
<stop offset="1" stop-color="#00BEFD"/>
</linearGradient>
<linearGradient id="paint1_linear_32_356" x1="6.60791" y1="13.3606" x2="7.76772" y2="13.3606" gradientUnits="userSpaceOnUse">
<stop stop-color="#008FCE"/>
<stop offset="1" stop-color="#006BCC"/>
</linearGradient>
<linearGradient id="paint2_linear_32_356" x1="6.70557" y1="19.6893" x2="22.5655" y2="19.6893" gradientUnits="userSpaceOnUse">
<stop stop-color="#FBF7CA"/>
<stop offset="1" stop-color="#FFBD00"/>
</linearGradient>
<radialGradient id="paint3_radial_32_356" cx="0" cy="0" r="1" gradientUnits="userSpaceOnUse" gradientTransform="translate(5.82449 5.73301) scale(4.74868 4.67404)">
<stop offset="0.1788" stop-color="#FFDD8C"/>
<stop offset="1" stop-color="#FFBC00"/>
</radialGradient>
<clipPath id="clip0_32_356">
<rect width="24" height="23" fill="white"/>
</clipPath>
</defs>
</svg>
