<?xml version="1.0" encoding="UTF-8"?><svg id="Capa_1" xmlns="http://www.w3.org/2000/svg" viewBox="0 0 64 64"><path d="m13.2686,27.2482c.1305.2673.314.4968.6045.6275.0303.0136.0615.0263.0942.0377.8774.3537,1.6101.9176,2.2247,1.6302.7896.8729,1.0004,1.9176.8113,2.9188-.2883,1.5282-1.5088,2.9547-3.0301,3.5131-.1887.073-.3419.1686-.4653.2815-.2286.2155-.3513.5002-.4211.8225-.0451.2677-.0375.557-.0013.8457.0966.4841.2307,1.0665.4219,1.6392.2999.8353.7401,1.7646,1.416,2.2163.4138.2648.9126.3547,1.5151.1661.0008-.0003.0016-.0005.0025-.0008.9253-.2574,2.0024-.4011,2.9657-.1817.5374.122,1.0394.3565,1.4586.7485.5225.5133.85,1.0986,1.018,1.7048.2388.8619.1546,1.7661-.1544,2.5663-.0144.0331-.029.0666-.0437.1002-.1103.2538-.2231.5224-.2843.791-.0892.3931-.0659.7856.2395,1.1338.0055.0062.0105.0124.0161.0186.1659.1856.3592.3648.5726.5352.5155.3965,1.2356.8069,1.9952,1.1095.8045.3031,1.6461.4742,2.378.4488.4411-.048.8184-.2054,1.0807-.5104.1077-.1315.1966-.2867.2664-.4656.7486-1.9249,2.3513-2.9185,3.9635-2.9495.0105-.0002.0209-.0008.0314-.0009.0146-.0002.0293.0003.0439.0002,1.6085-.0031,3.2143.9522,3.9789,2.9113.1126.2713.2783.5145.497.7167.0567.0502.1165.0961.1791.1369.2433.1279.535.1821.8538.1812.672-.0702,1.3108-.2247,1.9174-.4594.6491-.2686,1.2585-.6136,1.6924-.9182.0679-.0485.1354-.0981.2024-.149.001-.0008.002-.0015.003-.0023.0002-.0002.0004-.0003.0006-.0005.1754-.1346.307-.2713.4042-.4108.1002-.1531.1702-.3225.21-.4996.0597-.3297-.0082-.6795-.1136-1.0597-.2501-.5184-.3824-1.096-.4038-1.6795-.0562-.5666.0021-1.195.3256-1.9026.1918-.5211.4916-.9434.8634-1.2751.4468-.4296,1.0141-.7334,1.6933-.8393.0557-.0126.1117-.0244.168-.035.4039-.1073.7934-.1179,1.1699-.081.5561.024,1.1079.1335,1.6117.3196.0053.0015.0104.0026.0157.0041.3664.073.7201.1141,1.0628.0624.3644-.0689.6855-.2348.9667-.4683.0932-.0836.1856-.1799.2773-.2905.4407-.5414.7573-1.1405.9807-1.7803.2208-.6778.3393-1.3795.3703-1.9546.0007-.0174.0004-.0343.0006-.0514-.0275-.4404-.1776-.7936-.4759-1.091-.0375-.0357-.0764-.0704-.1177-.1038-.3234-.184-.6315-.359-.9203-.5356-.8134-.388-1.3963-.9451-1.773-1.5879-.3055-.4919-.5002-1.0919-.5544-1.8756-.079-1.1752.2766-2.0731.841-2.7788.4574-.6579,1.0933-1.1949,1.8753-1.5046.2465-.139.4935-.2659.7333-.3833.0127-.0094.0245-.0196.0366-.0296.1051-.1012.1924-.2169.2606-.343.1274-.2697.1676-.616.1438-1.0018-.0033-.017-.0066-.034-.0104-.051-.085-.5078-.2619-1.2967-.5459-2.0628-.3578-.8509-.8196-1.5999-1.1792-1.9175-.0023-.0023-.0047-.0044-.007-.0067-.2214-.1804-.4656-.2999-.7339-.3345-.2495-.0116-.5156.0519-.8057.1441-.6004.3206-1.2578.4844-1.9143.5066-.4184.0366-.8767.0104-1.3834-.1311-.9478-.2419-1.6671-.7509-2.1606-1.413-.4429-.5489-.7378-1.231-.8058-2.0261-.062-.4288-.0342-.8382.0424-1.2392.0712-.5236.2236-1.0468.4569-1.5448,0-.0002.0001-.0004.0002-.0006.0545-.3775-.0579-.7352-.2822-1.0645-.3392-.4628-.8917-.8448-1.3114-1.1118-.0866-.0491-.175-.0965-.2647-.1423-.1374-.0687-.2915-.1414-.457-.2137-.7974-.3414-1.6353-.5449-2.2224-.5628-.3209.0078-.6069.0802-.8234.2468-.1592.1441-.3011.3-.423.4717-.0982.1484-.1829.3052-.2555.4551-.0002.0004-.0004.0008-.0005.0012-.0013.003-.0026.0059-.0039.0088-.4776,1.1549-1.3217,1.9154-2.2908,2.303-1.0104.4283-2.1637.461-3.194.0387-.5643-.2108-.9775-.5051-1.2982-.8346-.4749-.4348-.859-.9952-1.0974-1.6779-.0205-.0549-.042-.1073-.0642-.1576-.2351-.4102-.4899-.7265-.9085-.8293-.1797-.0374-.3839-.0403-.6171-.0092-.4974.0666-.9982.1642-1.4853.3049-.0261.0077-.0523.0152-.0784.0232-.0098.0029-.0197.0059-.0295.0089-.5985.1865-1.1726.4427-1.7163.7819-.2635.1728-.5129.3687-.7439.5909-.1336.1483-.2443.3108-.3198.4873-.0965.2838-.0858.604-.0387.9669.3045,1.1611.308,2.2365.0661,3.1523-.0536.2151-.1234.4377-.2137.6685-.3397.9346-1.0157,1.5608-1.836,1.9198-.7691.3707-1.706.4958-2.7595.3062-.4423-.0701-.8727-.1927-1.2694-.3638,0,0-.0002,0-.0003,0-.1907-.0611-.3721-.0766-.5444-.0543-.0044.0006-.0089.0011-.0133.0018-.0116.0016-.0231.0038-.0347.0058-.5062.0939-.9503.5272-1.3126,1.1059-.4331.7093-.7354,1.6222-.9073,2.3324-.1093.5017-.1563.9541-.1318,1.2684.0636.2243.1329.4541.2337.6613Zm18.7689-4.4666c4.9915,0,9.0379,4.0464,9.0379,9.0379s-4.0464,9.0379-9.0379,9.0379-9.0379-4.0464-9.0379-9.0379,4.0464-9.0379,9.0379-9.0379Z" style="fill:#dffffb;"/></svg>