<svg width="23" height="23" viewBox="0 0 23 23" fill="none" xmlns="http://www.w3.org/2000/svg">
<g clip-path="url(#clip0_33_45)">
<path d="M4.84463 6.23516C5.61263 6.23516 6.23522 5.61257 6.23522 4.84457C6.23522 4.07657 5.61263 3.45398 4.84463 3.45398C4.07663 3.45398 3.45404 4.07657 3.45404 4.84457C3.45404 5.61257 4.07663 6.23516 4.84463 6.23516Z" fill="white"/>
<path d="M9.37021 1.5336C9.86434 1.5336 10.3382 1.7299 10.6876 2.07929L20.605 11.9966C21.7536 13.1452 21.7536 15.0075 20.605 16.1562L16.1562 20.6049C15.5819 21.1792 14.8292 21.4664 14.0765 21.4664C13.3238 21.4664 12.571 21.1792 11.9967 20.6049L2.07925 10.6875C1.72986 10.3381 1.5336 9.86426 1.5336 9.37014V3.39665C1.5336 2.36769 2.36772 1.5336 3.39665 1.5336H9.37021ZM9.37018 0H3.39665C1.52375 0 0 1.52371 0 3.39665V9.37014C0 10.2774 0.353303 11.1304 0.994846 11.7719L10.9122 21.6893C11.7575 22.5346 12.8812 23 14.0764 23C15.2717 23 16.3954 22.5345 17.2406 21.6893L21.6893 17.2406C22.5345 16.3954 23 15.2717 23 14.0764C23 12.8812 22.5346 11.7574 21.6893 10.9122L11.772 0.994846C11.1305 0.353303 10.2775 0 9.37018 0Z" fill="white"/>
<path d="M20.6049 11.9966L10.6875 2.07926C10.3382 1.72987 9.86427 1.53357 9.37014 1.53357H3.39662C2.36769 1.53357 1.53357 2.36769 1.53357 3.39662V9.37014C1.53357 9.86427 1.72987 10.3382 2.07922 10.6875L11.9966 20.6049C13.1453 21.7535 15.0075 21.7535 16.1562 20.6049L20.6049 16.1561C21.7535 15.0075 21.7535 13.1452 20.6049 11.9966ZM5.82788 5.82784C5.28483 6.37089 4.40435 6.37089 3.8613 5.82784C3.31826 5.28479 3.31826 4.40431 3.8613 3.86127C4.40435 3.31822 5.28483 3.31822 5.82788 3.86127C6.37092 4.40431 6.37092 5.28479 5.82788 5.82784Z" fill="url(#paint0_linear_33_45)" stroke="#9F7F5A" stroke-miterlimit="10"/>
<path d="M9.40778 7.48218L17.2063 15.2807" stroke="#9F7F5A" stroke-miterlimit="10"/>
<path d="M7.75098 9.13892L15.5495 16.9375" stroke="#9F7F5A" stroke-miterlimit="10"/>
</g>
<defs>
<linearGradient id="paint0_linear_33_45" x1="2.44813" y1="2.44809" x2="18.0054" y2="18.0054" gradientUnits="userSpaceOnUse">
<stop stop-color="#FFF2D8"/>
<stop offset="0.1584" stop-color="#FFF2D8"/>
<stop offset="0.4389" stop-color="#FDEFD5"/>
<stop offset="0.6414" stop-color="#F7E8CB"/>
<stop offset="0.8195" stop-color="#EDDBBB"/>
<stop offset="0.9825" stop-color="#DFCAA5"/>
<stop offset="1" stop-color="#DEC8A3"/>
</linearGradient>
<clipPath id="clip0_33_45">
<rect width="23" height="23" fill="white"/>
</clipPath>
</defs>
</svg>
