<?xml version="1.0" encoding="UTF-8"?><svg xmlns="http://www.w3.org/2000/svg" viewBox="0 0 57.1366 57.1364"><g id="a"><path d="m31.5366,4.1177c.9435,0,1.7084.7649,1.7084,1.7084v1.9992c0,.9435-.7649,1.7084-1.7084,1.7084h-.4199v3.6212c3.4654.494,6.6434,1.8533,9.319,3.8601l2.0358-2.0358c.2807-.2807.6485-.421,1.0164-.421s.7357.1403,1.0164.421l2.065,2.065c.5613.5613.5613,1.4714,0,2.0328l-2.0359,2.0359c2.5564,3.4082,4.0893,7.6281,4.0893,12.2165,0,11.2686-9.135,20.4036-20.4036,20.4036S7.8155,44.5979,7.8155,33.3293c0-4.5884,1.5329-8.8084,4.0893-12.2166l-2.0358-2.0358c-.5613-.5613-.5613-1.4714,0-2.0328l2.0651-2.065c.2807-.2807.6485-.421,1.0164-.421s.7357.1403,1.0164.421l2.0359,2.0358c2.6755-2.0068,5.8535-3.3661,9.3189-3.8601v-3.6212h-.4198c-.9435,0-1.7084-.7649-1.7084-1.7084v-1.9992c0-.9435.7649-1.7084,1.7084-1.7084h6.6348m0-3h-6.6348c-2.5962,0-4.7084,2.1122-4.7084,4.7084v1.9992c0,1.2051.4552,2.306,1.2026,3.1397-1.7463.5332-3.4289,1.2708-5.0055,2.1952l-.3024-.3024c-.838-.838-1.9523-1.2996-3.1376-1.2996s-2.2996.4616-3.1377,1.2997l-2.065,2.0649c-1.7302,1.7302-1.7302,4.5453,0,6.2754l.2982.2982c-2.1206,3.5871-3.2304,7.6302-3.2304,11.8328,0,12.9048,10.4988,23.4036,23.4036,23.4036s23.4036-10.4988,23.4036-23.4036c0-4.2026-1.1098-8.2457-3.2304-11.8328l.2983-.2983c.8381-.8381,1.2997-1.9524,1.2997-3.1377s-.4616-2.2996-1.2997-3.1377l-2.065-2.065c-.838-.8381-1.9524-1.2996-3.1377-1.2996s-2.2996.4616-3.1377,1.2997l-.3023.3023c-1.5766-.9245-3.2592-1.662-5.0055-2.1952.7473-.8337,1.2025-1.9346,1.2025-3.1397v-1.9992c0-2.5962-2.1122-4.7084-4.7084-4.7084h0Z" style="fill:#fff; stroke-width:0px;"/></g><g id="b"><rect x="25.3216" y="8.7073" width="5.7951" height="5.416" style="fill:#7da7aa; stroke:#005e60; stroke-miterlimit:10; stroke-width:2px;"/><rect x="23.1934" y="4.1177" width="10.0516" height="5.416" rx="1.7084" ry="1.7084" style="fill:#7da7aa; stroke:#005e60; stroke-miterlimit:10; stroke-width:2px;"/><rect x="10.4065" y="15.0166" width="5.7951" height="6.7952" rx="1.4374" ry="1.4374" transform="translate(-9.1241 14.8008) rotate(-45)" style="fill:#3579db; stroke:#071a75; stroke-miterlimit:10; stroke-width:2px;"/><rect x="40.2367" y="15.0166" width="5.7951" height="6.7952" rx="1.4374" ry="1.4374" transform="translate(60.6141 61.9355) rotate(-135)" style="fill:#1beaa5; stroke:#195e06; stroke-miterlimit:10; stroke-width:2px;"/><circle cx="28.2192" cy="33.3293" r="20.4036" style="fill:#7da7aa; stroke:#005e60; stroke-miterlimit:10; stroke-width:2px;"/><circle cx="28.2192" cy="33.3293" r="16.6632" style="fill:#fff; stroke-width:0px;"/><circle cx="28.2192" cy="33.5052" r="13.939" style="fill:none; stroke:#005e60; stroke-dasharray:0 0 1.9457 5.3508; stroke-miterlimit:10; stroke-width:5px;"/><path d="m28.2192,30.3264l6.2621-6.2621c.2848-.2848.753.034.5925.4034l-3.8517,8.8616h-.8856c-1.1693,0-2.1173-.9479-2.1173-2.1173v-.8856Z" style="fill:#14385b; stroke:#020d0f; stroke-miterlimit:10;"/><path d="m26.8363,35.9949l-10.4447,3.3092c-.4923.156-.8156-.506-.3899-.7983l9.5519-6.5593.7861.4078c1.038.5385,1.4429,1.8165.9044,2.8544l-.4078.7861Z" style="fill:#db124c; stroke:#4f071f; stroke-miterlimit:10;"/><circle cx="28.2192" cy="33.3293" r="3.7173" style="fill:#88bdd1; stroke:#262e30; stroke-miterlimit:10;"/><path d="m28.2192,18.6661c8.0853,0,14.6632,6.5779,14.6632,14.6632s-6.5779,14.6632-14.6632,14.6632-14.6632-6.5779-14.6632-14.6632,6.5779-14.6632,14.6632-14.6632m0-2c-9.2028,0-16.6632,7.4604-16.6632,16.6632s7.4604,16.6632,16.6632,16.6632,16.6632-7.4604,16.6632-16.6632-7.4604-16.6632-16.6632-16.6632h0Z" style="fill:#bdefef; stroke-width:0px;"/></g></svg>