<?xml version="1.0" encoding="UTF-8"?><svg id="Lian" xmlns="http://www.w3.org/2000/svg" viewBox="0 0 223.0952 429.85"><path d="M114.2295,245.65c-1.19-.8-2.22-1.82-2.93-3.03-.18-.31-.33-.63-.47-.96-.57-1.36-.72-2.84-.63-4.32.03-.56.1-1.12.19-1.67.73-4.38,3.01-8.38,6.16-11.53,1.43-1.43,3.04-2.7,4.77-3.74,2.11-1.28,4.38-2.25,6.74-2.96l-.33-1.13c-2.17-11.25-2.91-22.78-2.21-34.22l-.37-.15c.48-1.16.95-2.32,1.41-3.48,1.37-3.46,2.74-6.93,3.81-10.5.29-.97.55-2,.62-3.02l.8.01c.25-.2.49-.42.71-.65l1.66.61c2.51.91,5.11,1.56,7.74,1.93,7.16,3.52,12.95,9.78,16.79,16.85,4.71,8.67,10.63,18,11.94,27.78l-.28.17c.49.75.94,1.52,1.36,2.32,1.82,3.49,2.86,7.5,2.23,11.38-.72,4.44-3.72,8.46-7.79,10.4l-1.9.45c-6.31-1.49-13.1.04-19.08,2.66-.68.3-1.35.61-2.01.92-5.35,2.58-10.33,5.86-15.6,8.6-.4.21-.79.41-1.19.61l-.65-.64c-.45-.02-.89-.04-1.34-.07-2.44-.14-4.88-.37-7.18-1.16-1.04-.36-2.06-.84-2.97-1.46Z" style="fill:#8e4300; stroke-width:0px;"/><path d="M88.8995,181.15c-2.58-2.74-5.07-5.54-7.25-8.6-1.44-2.02-2.79-4.42-2.29-6.85.06-.3.16-.6.28-.88.73-1.74,2.43-3.04,4.28-3.55,2.14-.58,4.45-.25,6.57.43l.02-.03c1.43.8,2.85,1.61,4.28,2.41l.03.1c3.34-1.2,6.69-2.4,9.94-3.8l.37.88c2.77-1.2,5.6-2.23,8.54-2.84,1.03-.21,2.07-.37,3.13-.46,3.77-.34,7.62.15,10.96,1.89,1.04.54,2.05,1.23,2.64,2.24.51.87.65,1.85.59,2.85-.07,1.02-.33,2.05-.62,3.02-1.07,3.57-2.44,7.04-3.81,10.5-.46,1.16-.93,2.32-1.41,3.48-1.67,4.03-3.53,7.98-6.07,11.51-3.25,4.51-7.76,8.34-13.15,9.68-2.53-5.96-6.74-11.05-11.17-15.8-1.94-2.08-3.93-4.11-5.86-6.18Z" style="fill:#fec04f; stroke-width:0px;"/><path d="M104.5595,302.47c3.24-1.63,5.51-4.7,7.59-7.69,4.77-6.87,9.2-14.03,12.38-21.76,3.17-7.73,5.07-16.09,4.64-24.44l-1.61-.21c5.27-2.74,10.25-6.02,15.6-8.6,1.85,12.6,1.88,23.3,1.14,35.88l.6.04c5.55,34.46,13.45,68.54,23.65,101.92l.79-.2c2.14,8.27,4.41,16.54,7.98,24.29,1.27,2.74,2.7,5.43,3.53,8.34,1.5,5.25.91,11.07-1.62,15.91l-.28-.13c-13.11-.03-26.23-.07-39.35-.11l-.51-.08c-.2-11.55-2.38-23.06-6.4-33.88l-.35.06c-2.22-5.06-4.35-10.16-6.37-15.3-1.49-3.73-2.92-7.48-4.29-11.25-4.42-12.05-8.32-24.29-11.69-36.67-.49-1.79-.98-3.6-2-5.14s-2.69-2.78-4.53-2.78c-1.85,0-3.7,1.58-3.56,3.42l-.29.88c-4.12,15.37-6.32,31.24-6.55,47.15-.07,4.68.03,9.36.3,14.04.22,3.99.58,7.97,1.06,11.94l-.22.03c-4.18,8.33-.27,18.88-3.99,27.43l-.38-.04c-13.41-.58-26.86,0-40.17,1.74l-.05-.44c-3.55-3.17-3.78-8.76-2.32-13.29,1.47-4.52,4.3-8.48,6.14-12.87,3.77-9,3.19-19.14,2.45-28.89l.45-.03c-2.1-42.22,3.4-84.81,16.18-125.11,2.01-1.2,3.85-2.7,5.69-4.18l1.6.01c-2.18,11.28-1.48,23.2,2.67,33.91,4.16,10.71,11.87,20.13,21.9,25.73l.19.37Z" style="fill:#8e4300; stroke-width:0px;"/><path d="M129.8195,37.17c1.74-1.63,3.62-3.11,5.49-4.59,8.46-6.67,16.93-13.34,25.39-20.01l.22-.04c2.77,1.29,3.52,4.81,3.92,7.84,1.6,12.15,3,24.42,1.98,36.63-1.01,12.06-4.53,24.18-11.85,33.8-.38,2.26-1.05,4.44-2.16,6.47l.07.46c-3.21.46-6.45.66-9.69.62l-.05-.35c-17.08,2.61-34.88,5.07-51.28-.3-4.5-1.48-8.9-3.54-13.62-3.84-7.67-.5-15.2,3.72-22.78,2.9l.02-.2c-2.59-1.72-4.56-4.06-5.99-6.76-2.57-4.83-3.43-10.8-3.11-16.35.8-13.76,7.69-27,18.27-35.79,1.99-1.65,4.11-3.15,6.34-4.46,3.93-2.3,8.18-4.02,12.58-5.15-1.25-1.04-2.31-2.28-3.06-3.73-1.81-3.52-1.39-8.29,1.57-10.92,1.48-1.32,3.43-2.01,5.38-2.35,3.7-.65,7.54-.13,11.11,1.04s6.9,2.97,10.12,4.91c2.58,1.56,5.13,3.25,7.19,5.44,2.07,2.2,3.63,4.98,3.9,7.98l-.24.55c3.47,1.55,6.92,3.23,10.2,5.15l.08,1.05ZM125.7695,62.39c.41-2.2-.57-4.51-2.18-6.08-1.6-1.56-3.75-2.45-5.93-2.95-4.2-.95-8.71-.5-12.64,1.27-1.15.51-2.27,1.15-3.08,2.11-.54.64-1.13,1.68-1.05,2.55.11,1.17.83.91,1.72.67,2.07-.58,4.26-.52,6.34.06,2.59.73,4.93,2.16,7.06,3.81,1.54,1.19,3.16,2.57,5.11,2.62,2.24.05,4.24-1.86,4.65-4.06ZM115.2395,94.76c1.4-3.64,1.99-8.51,1.8-12.27-.21-4.18-2.08-8.37-5.84-10.54-2.15-1.24-4.52-1.43-6.56-.66-1.49-.44-3.17-.14-4.56,1.41-5.05,5.59-13.36,16.24-6.67,23.27,4.54,4.77,18.79,6.66,21.83-1.21ZM65.4595,95.06c3.64-1.63,5.31-4.45,4.98-8.43-.27-3.29-1.26-7.16-3.47-9.68-1.6-1.83-4.57-1.83-6.47-.48-1.95.24-3.53,1.69-4.25,3.64-1.17,3.13-1.13,6.5-.72,9.77.29,2.4,1.1,4.44,3.46,5.52,2.14.97,4.4.59,6.47-.34ZM64.4095,65.58c.93-.79,2.38-1.35,2.03-2.84-.64-2.75-5.52-3.19-7.69-2.73-3.38.73-6.18,3.53-7.08,6.88-.49,1.81-.36,4,1.05,5.24,1.25,1.11,3.18,1.13,4.7.46,1.52-.68,2.7-1.93,3.74-3.23,1.03-1.29,1.98-2.69,3.25-3.78Z" style="fill:#8e4300; stroke-width:0px;"/><path d="M144.6895,117.52c-4.31,7.48-8.64,14.98-13.88,21.83-2.03,2.65-4.21,5.21-6.55,7.61-1.87,1.92-3.84,3.74-5.93,5.41-2.08,1.68-4.28,3.21-6.6,4.56-2.24,1.31-4.58,2.43-6.97,3.45-3.25,1.4-6.6,2.6-9.94,3.8l-.03-.1c-1.43-.8-2.85-1.61-4.28-2.41-14.04-7.91-28.09-15.81-42.13-23.72-3.69-2.08-7.41-4.17-10.62-6.93-3.2-2.76-5.91-6.26-7.03-10.35-1.76-6.4.79-13.58,5.71-18.03,4.92-4.46,11.88-6.31,18.49-5.69l.03-.25c.17.03.34.05.5.06,7.58.82,15.11-3.4,22.78-2.9,4.72.3,9.12,2.36,13.62,3.84,16.4,5.37,34.2,2.91,51.28.3l.05.35c3.24.04,6.48-.16,9.69-.62,2.55-.34,5.07-.84,7.56-1.48.57,3.8-1.02,7.85-4.02,10.25l3.45-.63c-.45,3.36-2.86,6.21-5.74,8.02-2.86,1.8-6.18,2.73-9.44,3.63ZM94.6795,147.77l.09-.06c.48.74,1.07,1.39,1.73,1.91,1.32,1.04,2.94,1.53,4.52,1.38.56-.05,1.14-.19,1.58-.61.6-.56.83-1.51.95-2.41.3-2.46-.57-5.53-1.48-7.77l-.03-.06c-2.91,1.4-6.6,1.78-9.04,3.97-.17.16-.34.32-.5.49l.87.21s.34,1.44,1.31,2.95ZM116.2195,108.54l.04.09c-.51.23-.9.75-.95,1.31-.08.82.42,1.62,1.1,2.08s1.52.63,2.33.71c.68.06,1.4.04,1.98-.32.88-.56,1.09-1.86.6-2.78-.49-.93-1.53-1.46-2.58-1.55-.86-.07-1.71.13-2.52.46ZM134.1895,117.51c.35-2.49-2.27-4.88-4.73-4.74-3.43.21-2.8,4.06-.31,5.23.85.4,1.74.7,2.65.88.63.14,1.35.19,1.85-.22.33-.28.48-.73.54-1.15ZM128.2795,107.88c2.4-1.42-.63-3.66-2.2-3.83-1.37-.14-4.61,1.25-2.84,2.91.35.33.8.52,1.26.67.68.22,1.39.38,2.1.47.57.06,1.18.08,1.68-.22ZM60.1095,109.55c.06-1.14-.97-2.03-1.95-2.62-4.08-2.47-9.13-3.29-13.78-2.25-2.34-.11-4.72,1.06-6,3.03-.53.81-.87,1.89-.41,2.74.27.49.76.82,1.23,1.13l11.25,7.35c2.72-2.36,5.43-4.73,8.14-7.1.71-.62,1.47-1.34,1.52-2.28Z" style="fill:#c37a43; stroke-width:0px;"/><path d="M124.7395,147.44c1.54-1.7,4.25-2.27,6.53-1.65,2.66.74,4.79,2.76,6.43,4.98,1.64,2.23,2.91,4.71,4.58,6.9,3.36,4.41,8.36,7.55,13.79,8.66-4.64,1.04-9.46,1.21-14.17.51-2.63-.37-5.23-1.02-7.74-1.93l-1.66-.61c2.29-2.37,3.09-6.11,1.88-9.18-1.32-3.38-4.97-5.69-8.58-5.44-1.89.13-3.68.87-5.34,1.78-.66.36-1.3.76-1.88,1.24l-.25-.33c2.09-1.67,4.06-3.49,5.93-5.41l.48.48Z" style="fill:#fec04f; stroke-width:0px;"/><path d="M134.3795,155.12c1.21,3.07.41,6.81-1.88,9.18-.22.23-.46.45-.71.65l-.8-.01c.06-1-.08-1.98-.59-2.85-.59-1.01-1.6-1.7-2.64-2.24-3.34-1.74-7.19-2.23-10.96-1.89l-.07-.95c-.28-1.17.16-2.42.91-3.36.28-.35.6-.67.94-.95.58-.48,1.22-.88,1.88-1.24,1.66-.91,3.45-1.65,5.34-1.78,3.61-.25,7.26,2.06,8.58,5.44Z" style="fill:#fec04f; stroke-width:0px;"/><path d="M129.4595,112.77c2.46-.14,5.08,2.25,4.73,4.74-.06.42-.21.87-.54,1.15-.5.41-1.22.36-1.85.22-.91-.18-1.8-.48-2.65-.88-2.49-1.17-3.12-5.02.31-5.23Z" style="fill:#3c2d1c; stroke-width:0px;"/><path d="M129.1695,248.58c.43,8.35-1.47,16.71-4.64,24.44-3.18,7.73-7.61,14.89-12.38,21.76-2.08,2.99-4.35,6.06-7.59,7.69l-.19-.37c-10.03-5.6-17.74-15.02-21.9-25.73-4.15-10.71-4.85-22.63-2.67-33.91l-1.6-.01c2.64-2.13,5.29-4.22,8.43-5.35l1.79.27c.96.45,1.92.9,2.89,1.29l-.18.42c-.5,5.61,1.51,11.45,5.52,15.41,4.01,3.96,9.98,5.89,15.52,4.82,5.53-1.07,10.41-5.21,12.18-10.56l.03-.48c.45.03.89.05,1.34.07l.65.64c.4-.2.79-.4,1.19-.61l1.61.21Z" style="fill:#c37a43; stroke-width:0px;"/><path d="M126.0795,104.05c1.57.17,4.6,2.41,2.2,3.83-.5.3-1.11.28-1.68.22-.71-.09-1.42-.25-2.1-.47-.46-.15-.91-.34-1.26-.67-1.77-1.66,1.47-3.05,2.84-2.91Z" style="fill:#3c2d1c; stroke-width:0px;"/><path d="M105.9295,203.13c5.39-1.34,9.9-5.17,13.15-9.68,2.54-3.53,4.4-7.48,6.07-11.51l.37.15c-.7,11.44.04,22.97,2.21,34.22l.33,1.13c-2.36.71-4.63,1.68-6.74,2.96-1.73,1.04-3.34,2.31-4.77,3.74l-.45-.84c-3.55-3.08-8.96-3.81-13.2-1.79l-.76.21c-.36-.67-.76-1.31-1.18-1.94l-.13-.68c-3.98-4.08-9.42-6.69-15.09-7.3l.12-.99c3.67-9.36,4.73-19.75,3.04-29.66,1.93,2.07,3.92,4.1,5.86,6.18,4.43,4.75,8.64,9.84,11.17,15.8Z" style="fill:#c37a43; stroke-width:0px;"/><path d="M125.9695,376.51l-.43.17c.13,1.64-.14,3.32-.76,4.84l-.21.1c-4.09-.57-8.04-2.14-11.41-4.53l-.45,1.14c-.27,4.81,1.85,9.7,5.54,12.79l-1.14.77c-5.44-.61-10.77-2.22-15.64-4.75.41,2.91.92,6.03,2.84,8.2-4.81-.96-9.03-4.51-10.79-9.09l-.16.01c-.27-4.68-.37-9.36-.3-14.04l1.4.01c3.02,3.75,7.19,6.56,11.8,7.97-1.59-4.19-2.4-8.67-2.38-13.15,4.07,3.58,9.58,5.47,14.99,5.17l1.07-.73c1.2-1.63,1.49-3.89.77-5.77l.97-.36c1.37,3.77,2.8,7.52,4.29,11.25Z" style="fill:#8e4300; stroke-width:0px;"/><path d="M123.5895,56.31c1.61,1.57,2.59,3.88,2.18,6.08s-2.41,4.11-4.65,4.06c-1.95-.05-3.57-1.43-5.11-2.62-2.13-1.65-4.47-3.08-7.06-3.81-2.08-.58-4.27-.64-6.34-.06-.89.24-1.61.5-1.72-.67-.08-.87.51-1.91,1.05-2.55.81-.96,1.93-1.6,3.08-2.11,3.93-1.77,8.44-2.22,12.64-1.27,2.18.5,4.33,1.39,5.93,2.95Z" style="fill:#3c2d1c; stroke-width:0px;"/><path d="M112.3895,249.5c-.35.36-.65.76-.9,1.2-.34.59-.6,1.28-.44,1.95.16.71.78,1.26,1.46,1.53,1.12.44,2.46.23,3.4-.52s1.44-2,1.3-3.2c-.08-.63-.35-1.28-.87-1.64-.57-.4-1.34-.41-1.99-.19-.66.22-1.23.64-1.78,1.04l-.18-.17ZM114.2295,245.65c.91.62,1.93,1.1,2.97,1.46,2.3.79,4.74,1.02,7.18,1.16l-.03.48c-1.77,5.35-6.65,9.49-12.18,10.56-5.54,1.07-11.51-.86-15.52-4.82-4.01-3.96-6.02-9.8-5.52-15.41l.18-.42c1.7.7,3.45,1.24,5.28,1.37,2.87.2,6.02-.88,7.48-3.36.97-1.66,1.07-3.69.9-5.61-.08-1-.24-2-.45-2.99l.8-.07c.75.19,1.52.38,2.28.29.77-.08,1.55-.5,1.85-1.21.21-.48.17-1.04.03-1.55-.3-1.07-1.1-2.03-2.16-2.33-1.06-.31-2.35.18-2.79,1.19l-1.11.06c-.37-.94-.79-1.85-1.28-2.73l.76-.21c4.24-2.02,9.65-1.29,13.2,1.79l.45.84c-3.15,3.15-5.43,7.15-6.16,11.53-.09.55-.16,1.11-.19,1.67l-.95-.08c-.61-.03-1.2.26-1.63.7-.42.44-.69,1.01-.88,1.59-.19.59-.3,1.22-.13,1.81.22.76.9,1.33,1.65,1.57.75.25,1.56.21,2.34.07l.7-.38c.71,1.21,1.74,2.23,2.93,3.03ZM105.9195,256.74c.14-.19.15-.44.13-.68-.1-1.24-1.18-2.34-2.43-2.46-2-.19-2.37,2.48-.73,3.29.64.31,1.38.29,2.09.23.35-.03.74-.09.94-.38ZM101.1395,247.4c.38-.34.51-.89.48-1.4-.08-1.09-.94-2.1-2.01-2.3-1.91-.37-3.86,2.06-2.09,3.52.65.54,1.54.67,2.37.6.45-.03.92-.12,1.25-.42Z" style="fill:#fec04f; stroke-width:0px;"/><path d="M120.7095,365.62c.72,1.88.43,4.14-.77,5.77l-1.07.73c-5.41.3-10.92-1.59-14.99-5.17-.02,4.48.79,8.96,2.38,13.15-4.61-1.41-8.78-4.22-11.8-7.97l-1.4-.01c.23-15.91,2.43-31.78,6.55-47.15l.29-.88c-.14-1.84,1.71-3.42,3.56-3.42,1.84,0,3.51,1.24,4.53,2.78s1.51,3.35,2,5.14c3.37,12.38,7.27,24.62,11.69,36.67l-.97.36Z" style="fill:#c37a43; stroke-width:0px;"/><path d="M116.2595,108.63l-.04-.09c.81-.33,1.66-.53,2.52-.46,1.05.09,2.09.62,2.58,1.55.49.92.28,2.22-.6,2.78-.58.36-1.3.38-1.98.32-.81-.08-1.65-.25-2.33-.71s-1.18-1.26-1.1-2.08c.05-.56.44-1.08.95-1.31Z" style="fill:#3c2d1c; stroke-width:0px;"/><path d="M117.2095,250.46c.14,1.2-.36,2.45-1.3,3.2s-2.28.96-3.4.52c-.68-.27-1.3-.82-1.46-1.53-.16-.67.1-1.36.44-1.95.25-.44.55-.84.9-1.2l.18.17c.55-.4,1.12-.82,1.78-1.04.65-.22,1.42-.21,1.99.19.52.36.79,1.01.87,1.64Z" style="fill:#3c2d1c; stroke-width:0px;"/><path d="M117.0395,82.49c.19,3.76-.4,8.63-1.8,12.27-3.04,7.87-17.29,5.98-21.83,1.21-6.69-7.03,1.62-17.68,6.67-23.27,1.39-1.55,3.07-1.85,4.56-1.41,2.04-.77,4.41-.58,6.56.66,3.76,2.17,5.63,6.36,5.84,10.54Z" style="fill:#fff; stroke-width:0px;"/><path d="M111.2995,242.62l-.7.38c-.78.14-1.59.18-2.34-.07-.75-.24-1.43-.81-1.65-1.57-.17-.59-.06-1.22.13-1.81.19-.58.46-1.15.88-1.59.43-.44,1.02-.73,1.63-.7l.95.08c-.09,1.48.06,2.96.63,4.32.14.33.29.65.47.96Z" style="fill:#3c2d1c; stroke-width:0px;"/><path d="M109.4795,225.53c.14.51.18,1.07-.03,1.55-.3.71-1.08,1.13-1.85,1.21-.76.09-1.53-.1-2.28-.29l-.8.07c-.27-1.23-.64-2.44-1.1-3.62l1.11-.06c.44-1.01,1.73-1.5,2.79-1.19,1.06.3,1.86,1.26,2.16,2.33Z" style="fill:#3c2d1c; stroke-width:0px;"/><path d="M106.0495,256.06c.02.24.01.49-.13.68-.2.29-.59.35-.94.38-.71.06-1.45.08-2.09-.23-1.64-.81-1.27-3.48.73-3.29,1.25.12,2.33,1.22,2.43,2.46Z" style="fill:#3c2d1c; stroke-width:0px;"/><path d="M72.5095,246.63c-.36.22-.73.43-1.11.63-4.83,2.53-10.7,3-15.87,1.26-5.14-1.73-9.51-5.62-11.84-10.53l.13-.07c-3.92-9.7-1.87-20.67.42-30.88,2.49-11.05,5.35-22.38,12.09-31.49,2.65-3.57,5.9-6.77,9.83-8.87,3.93-2.11,8.56-3.05,12.91-2.11l.57.25c-.12.28-.22.58-.28.88-.5,2.43.85,4.83,2.29,6.85,2.18,3.06,4.67,5.86,7.25,8.6,1.69,9.91.63,20.3-3.04,29.66l-.12.99c5.67.61,11.11,3.22,15.09,7.3l.13.68c.42.63.82,1.27,1.18,1.94.49.88.91,1.79,1.28,2.73.46,1.18.83,2.39,1.1,3.62.21.99.37,1.99.45,2.99.17,1.92.07,3.95-.9,5.61-1.46,2.48-4.61,3.56-7.48,3.36-1.83-.13-3.58-.67-5.28-1.37-.97-.39-1.93-.84-2.89-1.29l-1.79-.27c-3.14,1.13-5.79,3.22-8.43,5.35-1.84,1.48-3.68,2.98-5.69,4.18Z" style="fill:#8e4300; stroke-width:0px;"/><path d="M94.7695,147.71l-.09.06c-.97-1.51-1.31-2.95-1.31-2.95l-.87-.21c.16-.17.33-.33.5-.49,2.44-2.19,6.13-2.57,9.04-3.97l.03.06c.91,2.24,1.78,5.31,1.48,7.77-.12.9-.35,1.85-.95,2.41-.44.42-1.02.56-1.58.61-1.58.15-3.2-.34-4.52-1.38-.66-.52-1.25-1.17-1.73-1.91Z" style="fill:#ff9185; stroke-width:0px;"/><path d="M101.6195,246c.03.51-.1,1.06-.48,1.4-.33.3-.8.39-1.25.42-.83.07-1.72-.06-2.37-.6-1.77-1.46.18-3.89,2.09-3.52,1.07.2,1.93,1.21,2.01,2.3Z" style="fill:#3c2d1c; stroke-width:0px;"/><path d="M70.4395,86.63c.33,3.98-1.34,6.8-4.98,8.43-2.07.93-4.33,1.31-6.47.34-2.36-1.08-3.17-3.12-3.46-5.52-.41-3.27-.45-6.64.72-9.77.72-1.95,2.3-3.4,4.25-3.64,1.9-1.35,4.87-1.35,6.47.48,2.21,2.52,3.2,6.39,3.47,9.68Z" style="fill:#fff; stroke-width:0px;"/><path d="M66.4395,62.74c.35,1.49-1.1,2.05-2.03,2.84-1.27,1.09-2.22,2.49-3.25,3.78-1.04,1.3-2.22,2.55-3.74,3.23-1.52.67-3.45.65-4.7-.46-1.41-1.24-1.54-3.43-1.05-5.24.9-3.35,3.7-6.15,7.08-6.88,2.17-.46,7.05-.02,7.69,2.73Z" style="fill:#3c2d1c; stroke-width:0px;"/><path d="M64.5495,37.55l.1.11c-10.58,8.79-17.47,22.03-18.27,35.79-.32,5.55.54,11.52,3.11,16.35l-.26.14c-6.35-6.49-9.92-15.39-10.93-24.42-1.02-9.02.38-18.19,2.93-26.9,2.56-8.72,6.25-17.05,9.94-25.35l.34.01c.29-1.89,2.98-2.53,4.62-1.53,1.63,1,2.41,2.93,3.04,4.74,2.39,6.85,4.19,13.91,5.38,21.06Z" style="fill:#8e4300; stroke-width:0px;"/><path d="M44.3795,104.68c4.65-1.04,9.7-.22,13.78,2.25.98.59,2.01,1.48,1.95,2.62-.05.94-.81,1.66-1.52,2.28-2.71,2.37-5.42,4.74-8.14,7.1l-11.25-7.35c-.47-.31-.96-.64-1.23-1.13-.46-.85-.12-1.93.41-2.74,1.28-1.97,3.66-3.14,6-3.03Z" style="fill:#3c2d1c; stroke-width:0px;"/><path d="M84.1695,27.89c-.2.05-.4.1-.6.16-4.4,1.13-8.65,2.85-12.58,5.15-2.23,1.31-4.35,2.81-6.34,4.46-10.58,8.79-17.47,22.03-18.27,35.79-.32,5.55.54,11.52,3.11,16.35,1.43,2.7,3.4,5.04,5.99,6.76" style="fill:none; stroke:#000; stroke-linecap:round; stroke-linejoin:round; stroke-width:3px;"/><path d="M54.9295,96.95c-6.61-.62-13.57,1.23-18.49,5.69-4.92,4.45-7.47,11.63-5.71,18.03,1.12,4.09,3.83,7.59,7.03,10.35,3.21,2.76,6.93,4.85,10.62,6.93,14.04,7.91,28.09,15.81,42.13,23.72,1.43.8,2.85,1.61,4.28,2.41" style="fill:none; stroke:#000; stroke-linecap:round; stroke-linejoin:round; stroke-width:3px;"/><path d="M94.7295,164.21l.09-.03c3.34-1.2,6.69-2.4,9.94-3.8,2.39-1.02,4.73-2.14,6.97-3.45,2.32-1.35,4.52-2.88,6.6-4.56,2.09-1.67,4.06-3.49,5.93-5.41,2.34-2.4,4.52-4.96,6.55-7.61,5.24-6.85,9.57-14.35,13.88-21.83.04-.06.07-.13.11-.19" style="fill:none; stroke:#000; stroke-linecap:round; stroke-linejoin:round; stroke-width:3px;"/><path d="M143.1895,98.35c3.24.04,6.48-.16,9.69-.62,2.55-.34,5.07-.84,7.56-1.48.57,3.8-1.02,7.85-4.02,10.25l3.45-.63c-.45,3.36-2.86,6.21-5.74,8.02-2.86,1.8-6.18,2.73-9.44,3.63-.01,0-.02.01-.03.01" style="fill:none; stroke:#000; stroke-linecap:round; stroke-linejoin:round; stroke-width:3px;"/><path d="M54.5495,96.64c.14.02.28.04.41.06.17.03.34.05.5.06,7.58.82,15.11-3.4,22.78-2.9,4.72.3,9.12,2.36,13.62,3.84,16.4,5.37,34.2,2.91,51.28.3.18-.02.37-.05.55-.08" style="fill:none; stroke:#000; stroke-linecap:round; stroke-linejoin:round; stroke-width:3px;"/><path d="M108.9495,60.02c2.59.73,4.93,2.16,7.06,3.81,1.54,1.19,3.16,2.57,5.11,2.62,2.24.05,4.24-1.86,4.65-4.06s-.57-4.51-2.18-6.08c-1.6-1.56-3.75-2.45-5.93-2.95-4.2-.95-8.71-.5-12.64,1.27-1.15.51-2.27,1.15-3.08,2.11-.54.64-1.13,1.68-1.05,2.55.11,1.17.83.91,1.72.67,2.07-.58,4.26-.52,6.34.06Z" style="fill:none; stroke:#000; stroke-linecap:round; stroke-linejoin:round; stroke-width:3px;"/><path d="M61.1595,69.36c-1.04,1.3-2.22,2.55-3.74,3.23-1.52.67-3.45.65-4.7-.46-1.41-1.24-1.54-3.43-1.05-5.24.9-3.35,3.7-6.15,7.08-6.88,2.17-.46,7.05-.02,7.69,2.73.35,1.49-1.1,2.05-2.03,2.84-1.27,1.09-2.22,2.49-3.25,3.78Z" style="fill:none; stroke:#000; stroke-linecap:round; stroke-linejoin:round; stroke-width:3px;"/><path d="M44.3795,104.68c-.29.06-.58.13-.87.21" style="fill:none; stroke:#000; stroke-linecap:round; stroke-linejoin:round; stroke-width:3px;"/><path d="M44.3795,104.68c-2.34-.11-4.72,1.06-6,3.03-.53.81-.87,1.89-.41,2.74.27.49.76.82,1.23,1.13l11.25,7.35c2.72-2.36,5.43-4.73,8.14-7.1.71-.62,1.47-1.34,1.52-2.28.06-1.14-.97-2.03-1.95-2.62-4.08-2.47-9.13-3.29-13.78-2.25Z" style="fill:none; stroke:#000; stroke-linecap:round; stroke-linejoin:round; stroke-width:3px;"/><path d="M45.5295,104.83c-.38-.09-.76-.14-1.15-.15" style="fill:none; stroke:#000; stroke-linecap:round; stroke-linejoin:round; stroke-width:3px;"/><path d="M123.2395,106.96c.35.33.8.52,1.26.67.68.22,1.39.38,2.1.47.57.06,1.18.08,1.68-.22,2.4-1.42-.63-3.66-2.2-3.83-1.37-.14-4.61,1.25-2.84,2.91Z" style="fill:none; stroke:#000; stroke-linecap:round; stroke-linejoin:round; stroke-width:3px;"/><path d="M116.9895,108.53c-.25-.04-.5,0-.73.1-.51.23-.9.75-.95,1.31-.08.82.42,1.62,1.1,2.08s1.52.63,2.33.71c.68.06,1.4.04,1.98-.32.88-.56,1.09-1.86.6-2.78-.49-.93-1.53-1.46-2.58-1.55-.86-.07-1.71.13-2.52.46-.17.06-.34.13-.5.21" style="fill:none; stroke:#000; stroke-linecap:round; stroke-linejoin:round; stroke-width:3px;"/><path d="M129.1495,118c.85.4,1.74.7,2.65.88.63.14,1.35.19,1.85-.22.33-.28.48-.73.54-1.15.35-2.49-2.27-4.88-4.73-4.74-3.43.21-2.8,4.06-.31,5.23Z" style="fill:none; stroke:#000; stroke-linecap:round; stroke-linejoin:round; stroke-width:3px;"/><path d="M118.2795,30.42c.42.18.84.37,1.26.55,3.47,1.55,6.92,3.23,10.2,5.15" style="fill:none; stroke:#000; stroke-linecap:round; stroke-linejoin:round; stroke-width:3px;"/><path d="M155.3595,85.73c-.01,1.71-.12,3.41-.39,5.07-.38,2.26-1.05,4.44-2.16,6.47" style="fill:none; stroke:#000; stroke-linecap:round; stroke-linejoin:round; stroke-width:3px;"/><path d="M84.4495,147.57c1.28.98,3.12,1.15,4.56.42,1.46-.73,2.36-2.2,3.49-3.38.16-.17.33-.33.5-.49,2.44-2.19,6.13-2.57,9.04-3.97,1.13-.53,2.13-1.22,2.91-2.22" style="fill:none; stroke:#000; stroke-linecap:round; stroke-linejoin:round; stroke-width:3px;"/><path d="M97.0495,142.21c.56.82,1.04,1.7,1.45,2.61" style="fill:none; stroke:#000; stroke-linecap:round; stroke-linejoin:round; stroke-width:3px;"/><path d="M119.7795,30.42c-.27-3-1.83-5.78-3.9-7.98-2.06-2.19-4.61-3.88-7.19-5.44-3.22-1.94-6.55-3.74-10.12-4.91s-7.41-1.69-11.11-1.04c-1.95.34-3.9,1.03-5.38,2.35-2.96,2.63-3.38,7.4-1.57,10.92.75,1.45,1.81,2.69,3.06,3.73,1.79,1.48,3.97,2.53,6.23,3.12" style="fill:none; stroke:#000; stroke-linecap:round; stroke-linejoin:round; stroke-width:3px;"/><path d="M89.1695,31.03c-5.33.39-10.57,1.99-15.22,4.63-2.46,1.39-4.83,3.16-6.16,5.65-1.34,2.49-1.4,5.83.47,7.94,1.13,1.28,2.78,1.96,4.41,2.44,5.77,1.69,12.11,1.39,17.69-.85" style="fill:none; stroke:#000; stroke-linecap:round; stroke-linejoin:round; stroke-width:3px;"/><path d="M122.3895,50.58c.21-3.8,2.04-7.38,4.47-10.31.91-1.1,1.91-2.13,2.96-3.1,1.74-1.63,3.62-3.11,5.49-4.59,8.46-6.67,16.93-13.34,25.39-20.01" style="fill:none; stroke:#000; stroke-linecap:round; stroke-linejoin:round; stroke-width:3px;"/><path d="M160.9195,12.53c2.77,1.29,3.52,4.81,3.92,7.84,1.6,12.15,3,24.42,1.98,36.63-1.01,12.06-4.53,24.18-11.85,33.8-.09.12-.18.23-.27.35" style="fill:none; stroke:#000; stroke-linecap:round; stroke-linejoin:round; stroke-width:3px;"/><path d="M64.5495,37.55c-1.19-7.15-2.99-14.21-5.38-21.06-.63-1.81-1.41-3.74-3.04-4.74-1.64-1-4.33-.36-4.62,1.53" style="fill:none; stroke:#000; stroke-linecap:round; stroke-linejoin:round; stroke-width:3px;"/><path d="M51.1695,13.27c-3.69,8.3-7.38,16.63-9.94,25.35-2.55,8.71-3.95,17.88-2.93,26.9,1.01,9.03,4.58,17.93,10.93,24.42" style="fill:none; stroke:#000; stroke-linecap:round; stroke-linejoin:round; stroke-width:3px;"/><path d="M90.4895,161.7c-2.12-.68-4.43-1.01-6.57-.43-1.85.51-3.55,1.81-4.28,3.55-.12.28-.22.58-.28.88-.5,2.43.85,4.83,2.29,6.85,2.18,3.06,4.67,5.86,7.25,8.6,1.93,2.07,3.92,4.1,5.86,6.18,4.43,4.75,8.64,9.84,11.17,15.8.05.1.09.2.13.3" style="fill:none; stroke:#000; stroke-linecap:round; stroke-linejoin:round; stroke-width:3px;"/><path d="M105.8195,203.16c.04-.01.07-.02.11-.03,5.39-1.34,9.9-5.17,13.15-9.68,2.54-3.53,4.4-7.48,6.07-11.51.48-1.16.95-2.32,1.41-3.48,1.37-3.46,2.74-6.93,3.81-10.5.29-.97.55-2,.62-3.02.06-1-.08-1.98-.59-2.85-.59-1.01-1.6-1.7-2.64-2.24-3.34-1.74-7.19-2.23-10.96-1.89-1.06.09-2.1.25-3.13.46-2.94.61-5.77,1.64-8.54,2.84-1.66.71-3.3,1.48-4.93,2.26" style="fill:none; stroke:#000; stroke-linecap:round; stroke-linejoin:round; stroke-width:3px;"/><path d="M100.7895,163.47c-3.44,2.09-5.44,6.33-4.86,10.31" style="fill:none; stroke:#000; stroke-linecap:round; stroke-linejoin:round; stroke-width:3px;"/><path d="M116.7295,157.01c-.28-1.17.16-2.42.91-3.36.28-.35.6-.67.94-.95.58-.48,1.22-.88,1.88-1.24,1.66-.91,3.45-1.65,5.34-1.78,3.61-.25,7.26,2.06,8.58,5.44,1.21,3.07.41,6.81-1.88,9.18-.22.23-.46.45-.71.65" style="fill:none; stroke:#000; stroke-linecap:round; stroke-linejoin:round; stroke-width:3px;"/><path d="M124.0595,148.41c.19-.35.42-.68.68-.97,1.54-1.7,4.25-2.27,6.53-1.65,2.66.74,4.79,2.76,6.43,4.98,1.64,2.23,2.91,4.71,4.58,6.9,3.36,4.41,8.36,7.55,13.79,8.66-4.64,1.04-9.46,1.21-14.17.51-2.63-.37-5.23-1.02-7.74-1.93" style="fill:none; stroke:#000; stroke-linecap:round; stroke-linejoin:round; stroke-width:3px;"/><path d="M79.0695,164.57c-4.35-.94-8.98,0-12.91,2.11-3.93,2.1-7.18,5.3-9.83,8.87-6.74,9.11-9.6,20.44-12.09,31.49-2.29,10.21-4.34,21.18-.42,30.88" style="fill:none; stroke:#000; stroke-linecap:round; stroke-linejoin:round; stroke-width:3px;"/><path d="M43.6595,237.93l.03.06c2.33,4.91,6.7,8.8,11.84,10.53,5.17,1.74,11.04,1.27,15.87-1.26.38-.2.75-.41,1.11-.63,2.01-1.2,3.85-2.7,5.69-4.18,2.64-2.13,5.29-4.22,8.43-5.35.18-.07.37-.13.56-.19" style="fill:none; stroke:#000; stroke-linecap:round; stroke-linejoin:round; stroke-width:3px;"/><path d="M79.5795,185.08c.23,10.86-.79,18.47-5.44,28.28l-.01.01" style="fill:none; stroke:#000; stroke-linecap:round; stroke-linejoin:round; stroke-width:3px;"/><path d="M64.8295,219.71c2.56-2.8,5.78-4.97,9.31-6.35,2.73-1.07,5.63-1.67,8.56-1.71,1.02-.02,2.03.03,3.04.15,5.67.61,11.11,3.22,15.09,7.3" style="fill:none; stroke:#000; stroke-linecap:round; stroke-linejoin:round; stroke-width:3px;"/><path d="M100.9595,219.78c.42.63.82,1.27,1.18,1.94.49.88.91,1.79,1.28,2.73.46,1.18.83,2.39,1.1,3.62.21.99.37,1.99.45,2.99.17,1.92.07,3.95-.9,5.61-1.46,2.48-4.61,3.56-7.48,3.36-1.83-.13-3.58-.67-5.28-1.37-.97-.39-1.93-.84-2.89-1.29" style="fill:none; stroke:#000; stroke-linecap:round; stroke-linejoin:round; stroke-width:3px;"/><path d="M94.4895,228.54c3.42,1.67,6.02,4.93,6.88,8.63" style="fill:none; stroke:#000; stroke-linecap:round; stroke-linejoin:round; stroke-width:3px;"/><path d="M97.7895,223.17c3.02,1.34,5.31,4.21,5.95,7.46" style="fill:none; stroke:#000; stroke-linecap:round; stroke-linejoin:round; stroke-width:3px;"/><path d="M143.1595,239.77c1.85,12.6,1.88,23.3,1.14,35.88-.02.45-.05.91-.08,1.37" style="fill:none; stroke:#000; stroke-linecap:round; stroke-linejoin:round; stroke-width:3px;"/><path d="M72.6495,246.18c-.05.15-.1.3-.14.45-12.78,40.3-18.28,82.89-16.18,125.11" style="fill:none; stroke:#000; stroke-linecap:round; stroke-linejoin:round; stroke-width:3px;"/><path d="M99.8995,324.09c-.14-1.84,1.71-3.42,3.56-3.42,1.84,0,3.51,1.24,4.53,2.78s1.51,3.35,2,5.14c3.37,12.38,7.27,24.62,11.69,36.67,1.37,3.77,2.8,7.52,4.29,11.25,2.02,5.14,4.15,10.24,6.37,15.3" style="fill:none; stroke:#000; stroke-linecap:round; stroke-linejoin:round; stroke-width:3px;"/><path d="M144.8995,275.69c5.55,34.46,13.45,68.54,23.65,101.92" style="fill:none; stroke:#000; stroke-linecap:round; stroke-linejoin:round; stroke-width:3px;"/><path d="M136.8495,164.9c1.75.49,3.43,1.15,5.05,1.94,7.16,3.52,12.95,9.78,16.79,16.85,4.71,8.67,10.63,18,11.94,27.78" style="fill:none; stroke:#000; stroke-linecap:round; stroke-linejoin:round; stroke-width:3px;"/><path d="M129.2595,191.26c-.06,9.22,3.93,18.39,10.71,24.63" style="fill:none; stroke:#000; stroke-linecap:round; stroke-linejoin:round; stroke-width:3px;"/><path d="M139.8995,215.94c-3.98-.09-8.03.36-11.84,1.5-2.36.71-4.63,1.68-6.74,2.96-1.73,1.04-3.34,2.31-4.77,3.74-3.15,3.15-5.43,7.15-6.16,11.53-.09.55-.16,1.11-.19,1.67-.09,1.48.06,2.96.63,4.32.14.33.29.65.47.96.71,1.21,1.74,2.23,2.93,3.03.91.62,1.93,1.1,2.97,1.46,2.3.79,4.74,1.02,7.18,1.16.45.03.89.05,1.34.07" style="fill:none; stroke:#000; stroke-linecap:round; stroke-linejoin:round; stroke-width:3px;"/><path d="M126.3695,248.98c.4-.2.79-.4,1.19-.61,5.27-2.74,10.25-6.02,15.6-8.6.66-.31,1.33-.62,2.01-.92,5.98-2.62,12.77-4.15,19.08-2.66.57.13,1.13.29,1.69.47" style="fill:none; stroke:#000; stroke-linecap:round; stroke-linejoin:round; stroke-width:3px;"/><path d="M166.1495,235.74c4.07-1.94,7.07-5.96,7.79-10.4.63-3.88-.41-7.89-2.23-11.38-.42-.8-.87-1.57-1.36-2.32-1.63-2.55-3.61-4.88-5.61-7.15" style="fill:none; stroke:#000; stroke-linecap:round; stroke-linejoin:round; stroke-width:3px;"/><path d="M111.5595,236.89c.51-1.78,1.85-3.24,3.41-4.25,1.55-1.01,3.32-1.62,5.08-2.23" style="fill:none; stroke:#000; stroke-linecap:round; stroke-linejoin:round; stroke-width:3px;"/><path d="M120.5095,235.61c-3.38,2.27-5.71,6.02-6.28,10.04-.04.18-.06.37-.08.55" style="fill:none; stroke:#000; stroke-linecap:round; stroke-linejoin:round; stroke-width:3px;"/><path d="M99.6095,324.97c-4.12,15.37-6.32,31.24-6.55,47.15-.07,4.68.03,9.36.3,14.04.22,3.99.58,7.97,1.06,11.94h.01c.03.3.06.6.1.9" style="fill:none; stroke:#000; stroke-linecap:round; stroke-linejoin:round; stroke-width:3px;"/><path d="M55.8295,371.13c.02.21.03.43.05.64.74,9.75,1.32,19.89-2.45,28.89-1.84,4.39-4.67,8.35-6.14,12.87-1.46,4.53-1.23,10.12,2.32,13.29" style="fill:none; stroke:#000; stroke-linecap:round; stroke-linejoin:round; stroke-width:3px;"/><path d="M49.2595,427.31c.13-.02.27-.04.4-.05,13.31-1.74,26.76-2.32,40.17-1.74" style="fill:none; stroke:#000; stroke-linecap:round; stroke-linejoin:round; stroke-width:3px;"/><path d="M90.2095,425.56c3.72-8.55-.19-19.1,3.99-27.43" style="fill:none; stroke:#000; stroke-linecap:round; stroke-linejoin:round; stroke-width:3px;"/><path d="M132.6895,391.75c4.02,10.82,6.2,22.33,6.4,33.88" style="fill:none; stroke:#000; stroke-linecap:round; stroke-linejoin:round; stroke-width:3px;"/><path d="M139.5995,425.71c13.12.04,26.24.08,39.35.11" style="fill:none; stroke:#000; stroke-linecap:round; stroke-linejoin:round; stroke-width:3px;"/><path d="M179.2295,425.95c2.53-4.84,3.12-10.66,1.62-15.91-.83-2.91-2.26-5.6-3.53-8.34-3.57-7.75-5.84-16.02-7.98-24.29l-.6-2.31" style="fill:none; stroke:#000; stroke-linecap:round; stroke-linejoin:round; stroke-width:3px;"/><path d="M61.7695,412.18c.29,4.57.85,9.13,1.66,13.63" style="fill:none; stroke:#000; stroke-linecap:round; stroke-linejoin:round; stroke-width:3px;"/><path d="M76.8895,412.56c.03,4.23.06,8.47.09,12.7" style="fill:none; stroke:#000; stroke-linecap:round; stroke-linejoin:round; stroke-width:3px;"/><path d="M159.7495,411.17c.71,4.45.58,9.03-.37,13.43" style="fill:none; stroke:#000; stroke-linecap:round; stroke-linejoin:round; stroke-width:3px;"/><path d="M170.7995,411.3c.4-.13.84.09,1.09.43.24.33.33.75.41,1.16.76,4.24.5,8.66-.76,12.78" style="fill:none; stroke:#000; stroke-linecap:round; stroke-linejoin:round; stroke-width:3px;"/><path d="M88.7495,180.3c.05.28.1.56.15.85,1.69,9.91.63,20.3-3.04,29.66" style="fill:none; stroke:#000; stroke-linecap:round; stroke-linejoin:round; stroke-width:3px;"/><path d="M79.7995,242.46c-2.18,11.28-1.48,23.2,2.67,33.91,4.16,10.71,11.87,20.13,21.9,25.73" style="fill:none; stroke:#000; stroke-linecap:round; stroke-linejoin:round; stroke-width:3px;"/><path d="M104.2695,302.62c.1-.05.19-.09.29-.15,3.24-1.63,5.51-4.7,7.59-7.69,4.77-6.87,9.2-14.03,12.38-21.76,3.17-7.73,5.07-16.09,4.64-24.44" style="fill:none; stroke:#000; stroke-linecap:round; stroke-linejoin:round; stroke-width:3px;"/><path d="M79.1895,344.66c-.67,1.99-1.35,3.98-2.03,5.97" style="fill:none; stroke:#000; stroke-linecap:round; stroke-linejoin:round; stroke-width:3px;"/><path d="M56.0695,343.58c.77,2.17,1.54,4.35,2.31,6.52" style="fill:none; stroke:#000; stroke-linecap:round; stroke-linejoin:round; stroke-width:3px;"/><path d="M129.8995,345.01c2.09,2.74,4.07,5.57,5.93,8.47" style="fill:none; stroke:#000; stroke-linecap:round; stroke-linejoin:round; stroke-width:3px;"/><path d="M157.0595,341.72c-1.52,3.79-3.05,7.58-4.57,11.37" style="fill:none; stroke:#000; stroke-linecap:round; stroke-linejoin:round; stroke-width:3px;"/><path d="M93.5195,386.15c1.76,4.58,5.98,8.13,10.79,9.09.15.04.31.06.46.09" style="fill:none; stroke:#000; stroke-linecap:round; stroke-linejoin:round; stroke-width:3px;"/><path d="M104.6195,395.57c-.11-.11-.21-.22-.31-.33-1.92-2.17-2.43-5.29-2.84-8.2,4.87,2.53,10.2,4.14,15.64,4.75" style="fill:none; stroke:#000; stroke-linecap:round; stroke-linejoin:round; stroke-width:3px;"/><path d="M118.2495,391.02c-3.69-3.09-5.81-7.98-5.54-12.79" style="fill:none; stroke:#000; stroke-linecap:round; stroke-linejoin:round; stroke-width:3px;"/><path d="M113.1595,377.09c3.37,2.39,7.32,3.96,11.41,4.53" style="fill:none; stroke:#000; stroke-linecap:round; stroke-linejoin:round; stroke-width:3px;"/><path d="M94.4595,372.13c3.02,3.75,7.19,6.56,11.8,7.97-1.59-4.19-2.4-8.67-2.38-13.15,4.07,3.58,9.58,5.47,14.99,5.17" style="fill:none; stroke:#000; stroke-linecap:round; stroke-linejoin:round; stroke-width:3px;"/><path d="M119.9395,371.39c1.2-1.63,1.49-3.89.77-5.77-.08-.23-.18-.46-.3-.67" style="fill:none; stroke:#000; stroke-linecap:round; stroke-linejoin:round; stroke-width:3px;"/><path d="M124.7795,381.52c.62-1.52.89-3.2.76-4.84" style="fill:none; stroke:#000; stroke-linecap:round; stroke-linejoin:round; stroke-width:3px;"/><path d="M127.7295,216.31c-2.17-11.25-2.91-22.78-2.21-34.22" style="fill:none; stroke:#000; stroke-linecap:round; stroke-linejoin:round; stroke-width:3px;"/><path d="M93.3695,144.82s.34,1.44,1.31,2.95c1.19,1.88,3.35,3.85,7.04,3.26,6.65-1.06.74-10.82.74-10.82" style="fill:none; stroke:#000; stroke-linecap:round; stroke-linejoin:round; stroke-width:3px;"/><path d="M102.8995,221.51c4.24-2.02,9.65-1.29,13.2,1.79" style="fill:none; stroke:#000; stroke-miterlimit:10; stroke-width:2px;"/><path d="M91.1295,239.08c-.5,5.61,1.51,11.45,5.52,15.41,4.01,3.96,9.98,5.89,15.52,4.82,5.53-1.07,10.41-5.21,12.18-10.56" style="fill:none; stroke:#000; stroke-miterlimit:10; stroke-width:2px;"/><path d="M97.5195,247.22c.65.54,1.54.67,2.37.6.45-.03.92-.12,1.25-.42.38-.34.51-.89.48-1.4-.08-1.09-.94-2.1-2.01-2.3-1.91-.37-3.86,2.06-2.09,3.52Z" style="fill:none; stroke:#000; stroke-miterlimit:10; stroke-width:2px;"/><path d="M112.8695,249.04c-.17.14-.33.3-.48.46-.35.36-.65.76-.9,1.2-.34.59-.6,1.28-.44,1.95.16.71.78,1.26,1.46,1.53,1.12.44,2.46.23,3.4-.52s1.44-2,1.3-3.2c-.08-.63-.35-1.28-.87-1.64-.57-.4-1.34-.41-1.99-.19-.66.22-1.23.64-1.78,1.04" style="fill:none; stroke:#000; stroke-miterlimit:10; stroke-width:2px;"/><path d="M105.3195,228c.75.19,1.52.38,2.28.29.77-.08,1.55-.5,1.85-1.21.21-.48.17-1.04.03-1.55-.3-1.07-1.1-2.03-2.16-2.33-1.06-.31-2.35.18-2.79,1.19" style="fill:none; stroke:#000; stroke-miterlimit:10; stroke-width:2px;"/><path d="M109.2495,237.26c-.61-.03-1.2.26-1.63.7-.42.44-.69,1.01-.88,1.59-.19.59-.3,1.22-.13,1.81.22.76.9,1.33,1.65,1.57.75.25,1.56.21,2.34.07" style="fill:none; stroke:#000; stroke-miterlimit:10; stroke-width:2px;"/><path d="M103.6195,253.6c1.25.12,2.33,1.22,2.43,2.46.02.24.01.49-.13.68-.2.29-.59.35-.94.38-.71.06-1.45.08-2.09-.23-1.64-.81-1.27-3.48.73-3.29Z" style="fill:none; stroke:#000; stroke-miterlimit:10; stroke-width:2px;"/><path d="M67.7262,78.1811c-1.2326-1.4804-3.0863-2.4263-5.0083-2.5556s-3.8857.5599-5.3054,1.8619c-1.3689,1.2555-2.1987,3.0014-2.7168,4.7851-1.4634,5.0375-.4266,10.9625,3.3738,14.5783" style="fill:none; stroke:#000; stroke-linecap:round; stroke-linejoin:round; stroke-width:3px;"/><path d="M62.7517,91.4786c.1697,1.0296.4639,2.0708,1.1066,2.8928s1.695,1.3861,2.7239,1.2121c.8401-.1421,1.549-.7531,1.9729-1.4922s.5956-1.5963.6785-2.4443c.1222-1.2501.0647-2.5177-.1702-3.7516-.1707-.8966-.4457-1.7973-1.0016-2.5212-1.275-1.6602-3.239-1.3029-4.5908.0529-1.3755,1.3797-1.0025,4.3331-.7194,6.0515Z" style="fill:#000; stroke:#000; stroke-linecap:round; stroke-linejoin:round; stroke-width:3px;"/><path d="M98.7096,75.1414c1.5369-2.7679,4.4595-4.7192,7.6051-5.0777s6.4323.8851,8.5526,3.2362c1.86,2.0624,2.7836,4.8192,3.1883,7.5668.5507,3.7395.2107,7.6305-1.1596,11.1532s-3.7902,6.6588-6.9564,8.7232" style="fill:none; stroke:#000; stroke-linecap:round; stroke-linejoin:round; stroke-width:3px;"/><path d="M93.7535,93.5998c.4328,1.1158,1.2047,2.2034,2.3515,2.5455,1.2894.3846,2.7185-.3167,3.5253-1.3936s1.1-2.4515,1.2318-3.7906c.1352-1.3734.1126-2.8106-.4632-4.0649-1.0521-2.2918-4.4133-3.1695-6.115-1.0356-1.4796,1.8555-1.316,5.7144-.5305,7.7392Z" style="fill:#000; stroke:#000; stroke-linecap:round; stroke-linejoin:round; stroke-width:3px;"/><path d="M66.8942,85.373c-1.2291.0678-1.4511,1.5093-1.0049,2.9505s1.5932,1.1176,2.152.8824.9412-1.6765.4412-2.4118-.3529-1.4892-1.5882-1.4211Z" style="fill:#fff; stroke-width:0px;"/><path d="M97.953,85.7442c-1.2291.0678-1.4511,1.5093-1.0049,2.9505s1.5932,1.1176,2.152.8824.9412-1.6765.4412-2.4118-.3529-1.4892-1.5882-1.4211Z" style="fill:#fff; stroke-width:0px;"/><path d="M63.247,92.3258s1.7206,2.2059,5.7795,1.3235c0,0-.0744,1.7239-3.0151,1.6561s-2.7643-2.759-2.7643-2.759" style="fill:#fec04f; stroke-width:0px;"/><path d="M93.6,92.9859s1.7206,2.2059,5.7795,1.3235c0,0-.0744,1.7239-3.0151,1.6561s-2.7643-2.759-2.7643-2.759" style="fill:#fec04f; stroke-width:0px;"/><path d="M160.5548,67.1471c1.9251-11.2941,1.7642-31.2043-.104-32.3489-4.7809,11.9392-6.5311,25.078-5.0424,37.8524" style="fill:#ddcdbf; stroke:#000; stroke-linecap:round; stroke-linejoin:round;"/></svg>