<?xml version="1.0" encoding="UTF-8"?><svg xmlns="http://www.w3.org/2000/svg" viewBox="0 0 361 64"><g style="isolation:isolate;"><g id="a"><path d="m284.11,0H39.3161C17.6024,0,0,18.7625,0,41.9072v22.0928h361l-48.131-51.3025c-7.627-8.1301-17.972-12.6975-28.759-12.6975Z" style="fill:#0b2350; stroke-width:0px;"/><g style="mix-blend-mode:color-dodge; opacity:.2;"><path d="m53.0191,48.8666h-3.888c-.304,0-.528-.064-.672-.192-.128-.144-.192-.368-.192-.672v-11.784h-3.528c-.304,0-.528-.064-.672-.192-.128-.144-.192-.368-.192-.672v-2.904c0-.304.064-.52.192-.648.144-.144.368-.216.672-.216h12.672c.304,0,.52.072.648.216.144.128.216.344.216.648v2.904c0,.304-.072.528-.216.672-.128.128-.344.192-.648.192h-3.528v11.784c0,.304-.072.528-.216.672-.128.128-.344.192-.648.192Zm12.174,0h-3.72c-.304,0-.528-.064-.672-.192-.128-.144-.192-.368-.192-.672v-15.552c0-.304.064-.52.192-.648.144-.144.368-.216.672-.216h3.72c.304,0,.52.072.648.216.144.128.216.344.216.648v5.208h4.008v-5.208c0-.304.064-.52.192-.648.144-.144.368-.216.672-.216h3.72c.304,0,.52.072.648.216.144.128.216.344.216.648v15.552c0,.304-.072.528-.216.672-.128.128-.344.192-.648.192h-3.72c-.304,0-.528-.064-.672-.192-.128-.144-.192-.368-.192-.672v-5.328h-4.008v5.328c0,.304-.072.528-.216.672-.128.128-.344.192-.648.192Zm25.627,0h-11.136c-.304,0-.528-.064-.672-.192-.128-.144-.192-.368-.192-.672v-15.552c0-.304.064-.52.192-.648.144-.144.368-.216.672-.216h11.136c.304,0,.52.072.648.216.144.128.216.344.216.648v2.808c0,.304-.072.528-.216.672-.128.128-.344.192-.648.192h-6.624v1.848h4.68c.304,0,.52.072.648.216.144.128.216.344.216.648v2.568c0,.304-.072.528-.216.672-.128.128-.344.192-.648.192h-4.68v2.064h6.624c.304,0,.52.072.648.216.144.128.216.344.216.648v2.808c0,.304-.072.528-.216.672-.128.128-.344.192-.648.192Zm17.6193,0h-3.888c-.304,0-.528-.064-.672-.192-.128-.144-.192-.368-.192-.672v-3.072l-3.672-4.92c-.368-.496-.616-.928-.744-1.296-.112-.368-.168-.92-.168-1.656v-4.608c0-.304.064-.52.192-.648.144-.144.368-.216.672-.216h3.696c.304,0,.52.072.648.216.144.128.216.344.216.648v3.936c0,.16.008.328.024.504s.08.344.192.504l1.104,1.728c.08.144.16.248.24.312.096.064.208.096.336.096h.24c.128,0,.232-.032.312-.096.096-.064.184-.168.264-.312l1.104-1.728c.112-.16.176-.328.192-.504s.024-.344.024-.504v-3.936c0-.304.064-.52.192-.648.144-.144.368-.216.672-.216h3.5756c.304,0,.52.072.648.216.144.128.216.344.216.648v4.608c0,.736-.064,1.288-.192,1.656-.128.368-.368.8-.72,1.296l-3.6476,4.944v3.048c0,.304-.072.528-.216.672-.128.128-.344.192-.648.192Zm22.8016-4.536c0,.736-.112,1.408-.336,2.016-.208.592-.592,1.104-1.152,1.536-.544.416-1.304.744-2.28.984-.96.24-2.184.36-3.672.36s-2.72-.12-3.696-.36c-.976-.24-1.744-.568-2.304-.984-.544-.432-.928-.944-1.152-1.536-.208-.608-.312-1.28-.312-2.016v-8.184c0-.736.104-1.4.312-1.992.224-.608.608-1.128,1.152-1.56.56-.432,1.328-.768,2.304-1.008.976-.24,2.208-.36,3.696-.36s2.712.12,3.672.36c.976.24,1.736.576,2.28,1.008.56.432.944.952,1.152,1.56.224.592.336,1.256.336,1.992v8.184Zm-9.456-.864c0,.32.12.592.36.816.24.208.792.312,1.656.312s1.416-.104,1.656-.312c.24-.224.36-.496.36-.816v-6.456c0-.304-.12-.56-.36-.768-.24-.224-.792-.336-1.656-.336s-1.416.112-1.656.336c-.24.208-.36.464-.36.768v6.456Zm16.976,5.4h-3.6c-.304,0-.528-.064-.672-.192-.128-.144-.192-.368-.192-.672v-15.552c0-.304.064-.52.192-.648.144-.144.368-.216.672-.216h2.496c.304,0,.56.048.768.144.224.096.44.264.648.504l4.656,5.328v-5.112c0-.304.064-.52.192-.648.144-.144.368-.216.672-.216h3.6c.304,0,.52.072.648.216.144.128.216.344.216.648v15.552c0,.304-.072.528-.216.672-.128.128-.344.192-.648.192h-3.6c-.304,0-.528-.064-.672-.192-.128-.144-.192-.368-.192-.672v-2.952l-4.104-4.968v7.92c0,.304-.072.528-.216.672-.128.128-.344.192-.648.192Zm14.086,0c-.304,0-.528-.064-.672-.192-.128-.144-.192-.368-.192-.672v-2.856c0-.304.064-.52.192-.648.144-.144.368-.216.672-.216h2.376v-8.064h-2.376c-.304,0-.528-.064-.672-.192-.128-.144-.192-.368-.192-.672v-2.904c0-.304.064-.52.192-.648.144-.144.368-.216.672-.216h10.224c.304,0,.52.072.648.216.144.128.216.344.216.648v2.904c0,.304-.072.528-.216.672-.128.128-.344.192-.648.192h-2.328v8.064h2.328c.304,0,.52.072.648.216.144.128.216.344.216.648v2.856c0,.304-.072.528-.216.672-.128.128-.344.192-.648.192h-10.224Zm25.547,0h-5.856c-2,0-3.488-.4-4.464-1.2-.96-.8-1.44-2.032-1.44-3.696v-7.464c0-1.664.48-2.896,1.44-3.696.976-.816,2.464-1.224,4.464-1.224h5.856c.304,0,.52.072.648.216.144.128.216.344.216.648v2.904c0,.304-.072.528-.216.672-.128.128-.344.192-.648.192h-4.824c-.496,0-.864.104-1.104.312-.24.192-.36.488-.36.888v5.712c0,.4.12.696.36.888.24.176.608.264,1.104.264h4.824c.304,0,.52.072.648.216.144.128.216.344.216.648v2.856c0,.304-.072.528-.216.672-.128.128-.344.192-.648.192Zm20.461,0h-5.856c-2,0-3.488-.4-4.464-1.2-.96-.8-1.44-2.032-1.44-3.696v-7.464c0-1.664.48-2.896,1.44-3.696.976-.816,2.464-1.224,4.464-1.224h5.856c.304,0,.52.072.648.216.144.128.216.344.216.648v2.904c0,.304-.072.528-.216.672-.128.128-.344.192-.648.192h-4.824c-.496,0-.864.104-1.104.312-.24.192-.36.488-.36.888v5.712c0,.4.12.696.36.888.24.176.608.264,1.104.264h4.824c.304,0,.52.072.648.216.144.128.216.344.216.648v2.856c0,.304-.072.528-.216.672-.128.128-.344.192-.648.192Zm18.097-4.536c0,.736-.112,1.408-.336,2.016-.208.592-.592,1.104-1.152,1.536-.544.416-1.304.744-2.28.984-.96.24-2.184.36-3.672.36s-2.72-.12-3.696-.36c-.976-.24-1.744-.568-2.304-.984-.544-.432-.928-.944-1.152-1.536-.208-.608-.312-1.28-.312-2.016v-8.184c0-.736.104-1.4.312-1.992.224-.608.608-1.128,1.152-1.56.56-.432,1.328-.768,2.304-1.008.976-.24,2.208-.36,3.696-.36s2.712.12,3.672.36c.976.24,1.736.576,2.28,1.008.56.432.944.952,1.152,1.56.224.592.336,1.256.336,1.992v8.184Zm-9.456-.864c0,.32.12.592.36.816.24.208.792.312,1.656.312s1.416-.104,1.656-.312c.24-.224.36-.496.36-.816v-6.456c0-.304-.12-.56-.36-.768-.24-.224-.792-.336-1.656-.336s-1.416.112-1.656.336c-.24.208-.36.464-.36.768v6.456Zm17.936-7.56v3.072h1.8c.416,0,.696-.104.84-.312.144-.224.216-.496.216-.816v-.816c0-.32-.072-.584-.216-.792-.144-.224-.424-.336-.84-.336h-1.8Zm-.864,12.96h-3.696c-.304,0-.528-.064-.672-.192-.128-.144-.192-.368-.192-.672v-15.552c0-.304.064-.52.192-.648.144-.144.368-.216.672-.216h7.992c1.792,0,3.024.376,3.696,1.128.688.736,1.032,1.696,1.032,2.88v1.104c0,.672-.104,1.248-.312,1.728-.192.464-.536.8-1.032,1.008.864.096,1.56.448,2.088,1.056.544.608.816,1.416.816,2.424v5.088c0,.304-.072.528-.216.672-.128.128-.344.192-.648.192h-3.72c-.304,0-.528-.064-.672-.192-.128-.144-.192-.368-.192-.672v-3.672c0-.352-.072-.608-.216-.768-.128-.176-.36-.264-.696-.264h-3.36v4.704c0,.304-.072.528-.216.672-.128.128-.344.192-.648.192Zm17.74,0h-3.6c-.304,0-.528-.064-.672-.192-.128-.144-.192-.368-.192-.672v-15.552c0-.304.064-.52.192-.648.144-.144.368-.216.672-.216h2.496c.304,0,.56.048.768.144.224.096.44.264.648.504l4.656,5.328v-5.112c0-.304.064-.52.192-.648.144-.144.368-.216.672-.216h3.6c.304,0,.52.072.648.216.144.128.216.344.216.648v15.552c0,.304-.072.528-.216.672-.128.128-.344.192-.648.192h-3.6c-.304,0-.528-.064-.672-.192-.128-.144-.192-.368-.192-.672v-2.952l-4.104-4.968v7.92c0,.304-.072.528-.216.672-.128.128-.344.192-.648.192Zm25.606,0h-11.136c-.304,0-.528-.064-.672-.192-.128-.144-.192-.368-.192-.672v-15.552c0-.304.064-.52.192-.648.144-.144.368-.216.672-.216h11.136c.304,0,.52.072.648.216.144.128.216.344.216.648v2.808c0,.304-.072.528-.216.672-.128.128-.344.192-.648.192h-6.624v1.848h4.68c.304,0,.52.072.648.216.144.128.216.344.216.648v2.568c0,.304-.072.528-.216.672-.128.128-.344.192-.648.192h-4.68v2.064h6.624c.304,0,.52.072.648.216.144.128.216.344.216.648v2.808c0,.304-.072.528-.216.672-.128.128-.344.192-.648.192Zm9.127-12.96v3.072h1.8c.416,0,.696-.104.84-.312.144-.224.216-.496.216-.816v-.816c0-.32-.072-.584-.216-.792-.144-.224-.424-.336-.84-.336h-1.8Zm-.864,12.96h-3.696c-.304,0-.528-.064-.672-.192-.128-.144-.192-.368-.192-.672v-15.552c0-.304.064-.52.192-.648.144-.144.368-.216.672-.216h7.992c1.792,0,3.024.376,3.696,1.128.688.736,1.032,1.696,1.032,2.88v1.104c0,.672-.104,1.248-.312,1.728-.192.464-.536.8-1.032,1.008.864.096,1.56.448,2.088,1.056.544.608.816,1.416.816,2.424v5.088c0,.304-.072.528-.216.672-.128.128-.344.192-.648.192h-3.72c-.304,0-.528-.064-.672-.192-.128-.144-.192-.368-.192-.672v-3.672c0-.352-.072-.608-.216-.768-.128-.176-.36-.264-.696-.264h-3.36v4.704c0,.304-.072.528-.216.672-.128.128-.344.192-.648.192Z" style="fill:#129e23; stroke-width:0px;"/><path d="m49.0191,44.8666h-3.888c-.304,0-.528-.064-.672-.192-.128-.144-.192-.368-.192-.672v-11.784h-3.528c-.304,0-.528-.064-.672-.192-.128-.144-.192-.368-.192-.672v-2.904c0-.304.064-.52.192-.648.144-.144.368-.216.672-.216h12.672c.304,0,.52.072.648.216.144.128.216.344.216.648v2.904c0,.304-.072.528-.216.672-.128.128-.344.192-.648.192h-3.528v11.784c0,.304-.072.528-.216.672-.128.128-.344.192-.648.192Zm12.174,0h-3.72c-.304,0-.528-.064-.672-.192-.128-.144-.192-.368-.192-.672v-15.552c0-.304.064-.52.192-.648.144-.144.368-.216.672-.216h3.72c.304,0,.52.072.648.216.144.128.216.344.216.648v5.208h4.008v-5.208c0-.304.064-.52.192-.648.144-.144.368-.216.672-.216h3.72c.304,0,.52.072.648.216.144.128.216.344.216.648v15.552c0,.304-.072.528-.216.672-.128.128-.344.192-.648.192h-3.72c-.304,0-.528-.064-.672-.192-.128-.144-.192-.368-.192-.672v-5.328h-4.008v5.328c0,.304-.072.528-.216.672-.128.128-.344.192-.648.192Zm25.627,0h-11.136c-.304,0-.528-.064-.672-.192-.128-.144-.192-.368-.192-.672v-15.552c0-.304.064-.52.192-.648.144-.144.368-.216.672-.216h11.136c.304,0,.52.072.648.216.144.128.216.344.216.648v2.808c0,.304-.072.528-.216.672-.128.128-.344.192-.648.192h-6.624v1.848h4.68c.304,0,.52.072.648.216.144.128.216.344.216.648v2.568c0,.304-.072.528-.216.672-.128.128-.344.192-.648.192h-4.68v2.064h6.624c.304,0,.52.072.648.216.144.128.216.344.216.648v2.808c0,.304-.072.528-.216.672-.128.128-.344.192-.648.192Zm17.6193,0h-3.888c-.304,0-.528-.064-.672-.192-.128-.144-.192-.368-.192-.672v-3.072l-3.672-4.92c-.368-.496-.616-.928-.744-1.296-.112-.368-.168-.92-.168-1.656v-4.608c0-.304.064-.52.192-.648.144-.144.368-.216.672-.216h3.696c.304,0,.52.072.648.216.144.128.216.344.216.648v3.936c0,.16.008.328.024.504s.08.344.192.504l1.104,1.728c.08.144.16.248.24.312.096.064.208.096.336.096h.24c.128,0,.232-.032.312-.096.096-.064.184-.168.264-.312l1.104-1.728c.112-.16.176-.328.192-.504s.024-.344.024-.504v-3.936c0-.304.064-.52.192-.648.144-.144.368-.216.672-.216h3.5756c.304,0,.52.072.648.216.144.128.216.344.216.648v4.608c0,.736-.064,1.288-.192,1.656-.128.368-.368.8-.72,1.296l-3.6476,4.944v3.048c0,.304-.072.528-.216.672-.128.128-.344.192-.648.192Zm22.8016-4.536c0,.736-.112,1.408-.336,2.016-.208.592-.592,1.104-1.152,1.536-.544.416-1.304.744-2.28.984-.96.24-2.184.36-3.672.36s-2.72-.12-3.696-.36c-.976-.24-1.744-.568-2.304-.984-.544-.432-.928-.944-1.152-1.536-.208-.608-.312-1.28-.312-2.016v-8.184c0-.736.104-1.4.312-1.992.224-.608.608-1.128,1.152-1.56.56-.432,1.328-.768,2.304-1.008.976-.24,2.208-.36,3.696-.36s2.712.12,3.672.36c.976.24,1.736.576,2.28,1.008.56.432.944.952,1.152,1.56.224.592.336,1.256.336,1.992v8.184Zm-9.456-.864c0,.32.12.592.36.816.24.208.792.312,1.656.312s1.416-.104,1.656-.312c.24-.224.36-.496.36-.816v-6.456c0-.304-.12-.56-.36-.768-.24-.224-.792-.336-1.656-.336s-1.416.112-1.656.336c-.24.208-.36.464-.36.768v6.456Zm16.976,5.4h-3.6c-.304,0-.528-.064-.672-.192-.128-.144-.192-.368-.192-.672v-15.552c0-.304.064-.52.192-.648.144-.144.368-.216.672-.216h2.496c.304,0,.56.048.768.144.224.096.44.264.648.504l4.656,5.328v-5.112c0-.304.064-.52.192-.648.144-.144.368-.216.672-.216h3.6c.304,0,.52.072.648.216.144.128.216.344.216.648v15.552c0,.304-.072.528-.216.672-.128.128-.344.192-.648.192h-3.6c-.304,0-.528-.064-.672-.192-.128-.144-.192-.368-.192-.672v-2.952l-4.104-4.968v7.92c0,.304-.072.528-.216.672-.128.128-.344.192-.648.192Zm14.086,0c-.304,0-.528-.064-.672-.192-.128-.144-.192-.368-.192-.672v-2.856c0-.304.064-.52.192-.648.144-.144.368-.216.672-.216h2.376v-8.064h-2.376c-.304,0-.528-.064-.672-.192-.128-.144-.192-.368-.192-.672v-2.904c0-.304.064-.52.192-.648.144-.144.368-.216.672-.216h10.224c.304,0,.52.072.648.216.144.128.216.344.216.648v2.904c0,.304-.072.528-.216.672-.128.128-.344.192-.648.192h-2.328v8.064h2.328c.304,0,.52.072.648.216.144.128.216.344.216.648v2.856c0,.304-.072.528-.216.672-.128.128-.344.192-.648.192h-10.224Zm25.547,0h-5.856c-2,0-3.488-.4-4.464-1.2-.96-.8-1.44-2.032-1.44-3.696v-7.464c0-1.664.48-2.896,1.44-3.696.976-.816,2.464-1.224,4.464-1.224h5.856c.304,0,.52.072.648.216.144.128.216.344.216.648v2.904c0,.304-.072.528-.216.672-.128.128-.344.192-.648.192h-4.824c-.496,0-.864.104-1.104.312-.24.192-.36.488-.36.888v5.712c0,.4.12.696.36.888.24.176.608.264,1.104.264h4.824c.304,0,.52.072.648.216.144.128.216.344.216.648v2.856c0,.304-.072.528-.216.672-.128.128-.344.192-.648.192Zm20.461,0h-5.856c-2,0-3.488-.4-4.464-1.2-.96-.8-1.44-2.032-1.44-3.696v-7.464c0-1.664.48-2.896,1.44-3.696.976-.816,2.464-1.224,4.464-1.224h5.856c.304,0,.52.072.648.216.144.128.216.344.216.648v2.904c0,.304-.072.528-.216.672-.128.128-.344.192-.648.192h-4.824c-.496,0-.864.104-1.104.312-.24.192-.36.488-.36.888v5.712c0,.4.12.696.36.888.24.176.608.264,1.104.264h4.824c.304,0,.52.072.648.216.144.128.216.344.216.648v2.856c0,.304-.072.528-.216.672-.128.128-.344.192-.648.192Zm18.097-4.536c0,.736-.112,1.408-.336,2.016-.208.592-.592,1.104-1.152,1.536-.544.416-1.304.744-2.28.984-.96.24-2.184.36-3.672.36s-2.72-.12-3.696-.36c-.976-.24-1.744-.568-2.304-.984-.544-.432-.928-.944-1.152-1.536-.208-.608-.312-1.28-.312-2.016v-8.184c0-.736.104-1.4.312-1.992.224-.608.608-1.128,1.152-1.56.56-.432,1.328-.768,2.304-1.008.976-.24,2.208-.36,3.696-.36s2.712.12,3.672.36c.976.24,1.736.576,2.28,1.008.56.432.944.952,1.152,1.56.224.592.336,1.256.336,1.992v8.184Zm-9.456-.864c0,.32.12.592.36.816.24.208.792.312,1.656.312s1.416-.104,1.656-.312c.24-.224.36-.496.36-.816v-6.456c0-.304-.12-.56-.36-.768-.24-.224-.792-.336-1.656-.336s-1.416.112-1.656.336c-.24.208-.36.464-.36.768v6.456Zm17.936-7.56v3.072h1.8c.416,0,.696-.104.84-.312.144-.224.216-.496.216-.816v-.816c0-.32-.072-.584-.216-.792-.144-.224-.424-.336-.84-.336h-1.8Zm-.864,12.96h-3.696c-.304,0-.528-.064-.672-.192-.128-.144-.192-.368-.192-.672v-15.552c0-.304.064-.52.192-.648.144-.144.368-.216.672-.216h7.992c1.792,0,3.024.376,3.696,1.128.688.736,1.032,1.696,1.032,2.88v1.104c0,.672-.104,1.248-.312,1.728-.192.464-.536.8-1.032,1.008.864.096,1.56.448,2.088,1.056.544.608.816,1.416.816,2.424v5.088c0,.304-.072.528-.216.672-.128.128-.344.192-.648.192h-3.72c-.304,0-.528-.064-.672-.192-.128-.144-.192-.368-.192-.672v-3.672c0-.352-.072-.608-.216-.768-.128-.176-.36-.264-.696-.264h-3.36v4.704c0,.304-.072.528-.216.672-.128.128-.344.192-.648.192Zm17.74,0h-3.6c-.304,0-.528-.064-.672-.192-.128-.144-.192-.368-.192-.672v-15.552c0-.304.064-.52.192-.648.144-.144.368-.216.672-.216h2.496c.304,0,.56.048.768.144.224.096.44.264.648.504l4.656,5.328v-5.112c0-.304.064-.52.192-.648.144-.144.368-.216.672-.216h3.6c.304,0,.52.072.648.216.144.128.216.344.216.648v15.552c0,.304-.072.528-.216.672-.128.128-.344.192-.648.192h-3.6c-.304,0-.528-.064-.672-.192-.128-.144-.192-.368-.192-.672v-2.952l-4.104-4.968v7.92c0,.304-.072.528-.216.672-.128.128-.344.192-.648.192Zm25.606,0h-11.136c-.304,0-.528-.064-.672-.192-.128-.144-.192-.368-.192-.672v-15.552c0-.304.064-.52.192-.648.144-.144.368-.216.672-.216h11.136c.304,0,.52.072.648.216.144.128.216.344.216.648v2.808c0,.304-.072.528-.216.672-.128.128-.344.192-.648.192h-6.624v1.848h4.68c.304,0,.52.072.648.216.144.128.216.344.216.648v2.568c0,.304-.072.528-.216.672-.128.128-.344.192-.648.192h-4.68v2.064h6.624c.304,0,.52.072.648.216.144.128.216.344.216.648v2.808c0,.304-.072.528-.216.672-.128.128-.344.192-.648.192Zm9.127-12.96v3.072h1.8c.416,0,.696-.104.84-.312.144-.224.216-.496.216-.816v-.816c0-.32-.072-.584-.216-.792-.144-.224-.424-.336-.84-.336h-1.8Zm-.864,12.96h-3.696c-.304,0-.528-.064-.672-.192-.128-.144-.192-.368-.192-.672v-15.552c0-.304.064-.52.192-.648.144-.144.368-.216.672-.216h7.992c1.792,0,3.024.376,3.696,1.128.688.736,1.032,1.696,1.032,2.88v1.104c0,.672-.104,1.248-.312,1.728-.192.464-.536.8-1.032,1.008.864.096,1.56.448,2.088,1.056.544.608.816,1.416.816,2.424v5.088c0,.304-.072.528-.216.672-.128.128-.344.192-.648.192h-3.72c-.304,0-.528-.064-.672-.192-.128-.144-.192-.368-.192-.672v-3.672c0-.352-.072-.608-.216-.768-.128-.176-.36-.264-.696-.264h-3.36v4.704c0,.304-.072.528-.216.672-.128.128-.344.192-.648.192Z" style="fill:#129e23; stroke-width:0px;"/><path d="m49.0191,44.8666h-3.888c-.304,0-.528-.064-.672-.192-.128-.144-.192-.368-.192-.672v-11.784h-3.528c-.304,0-.528-.064-.672-.192-.128-.144-.192-.368-.192-.672v-2.904c0-.304.064-.52.192-.648.144-.144.368-.216.672-.216h12.672c.304,0,.52.072.648.216.144.128.216.344.216.648v2.904c0,.304-.072.528-.216.672-.128.128-.344.192-.648.192h-3.528v11.784c0,.304-.072.528-.216.672-.128.128-.344.192-.648.192Zm12.174,0h-3.72c-.304,0-.528-.064-.672-.192-.128-.144-.192-.368-.192-.672v-15.552c0-.304.064-.52.192-.648.144-.144.368-.216.672-.216h3.72c.304,0,.52.072.648.216.144.128.216.344.216.648v5.208h4.008v-5.208c0-.304.064-.52.192-.648.144-.144.368-.216.672-.216h3.72c.304,0,.52.072.648.216.144.128.216.344.216.648v15.552c0,.304-.072.528-.216.672-.128.128-.344.192-.648.192h-3.72c-.304,0-.528-.064-.672-.192-.128-.144-.192-.368-.192-.672v-5.328h-4.008v5.328c0,.304-.072.528-.216.672-.128.128-.344.192-.648.192Zm25.627,0h-11.136c-.304,0-.528-.064-.672-.192-.128-.144-.192-.368-.192-.672v-15.552c0-.304.064-.52.192-.648.144-.144.368-.216.672-.216h11.136c.304,0,.52.072.648.216.144.128.216.344.216.648v2.808c0,.304-.072.528-.216.672-.128.128-.344.192-.648.192h-6.624v1.848h4.68c.304,0,.52.072.648.216.144.128.216.344.216.648v2.568c0,.304-.072.528-.216.672-.128.128-.344.192-.648.192h-4.68v2.064h6.624c.304,0,.52.072.648.216.144.128.216.344.216.648v2.808c0,.304-.072.528-.216.672-.128.128-.344.192-.648.192Zm17.6193,0h-3.888c-.304,0-.528-.064-.672-.192-.128-.144-.192-.368-.192-.672v-3.072l-3.672-4.92c-.368-.496-.616-.928-.744-1.296-.112-.368-.168-.92-.168-1.656v-4.608c0-.304.064-.52.192-.648.144-.144.368-.216.672-.216h3.696c.304,0,.52.072.648.216.144.128.216.344.216.648v3.936c0,.16.008.328.024.504s.08.344.192.504l1.104,1.728c.08.144.16.248.24.312.096.064.208.096.336.096h.24c.128,0,.232-.032.312-.096.096-.064.184-.168.264-.312l1.104-1.728c.112-.16.176-.328.192-.504s.024-.344.024-.504v-3.936c0-.304.064-.52.192-.648.144-.144.368-.216.672-.216h3.5756c.304,0,.52.072.648.216.144.128.216.344.216.648v4.608c0,.736-.064,1.288-.192,1.656-.128.368-.368.8-.72,1.296l-3.6476,4.944v3.048c0,.304-.072.528-.216.672-.128.128-.344.192-.648.192Zm22.8016-4.536c0,.736-.112,1.408-.336,2.016-.208.592-.592,1.104-1.152,1.536-.544.416-1.304.744-2.28.984-.96.24-2.184.36-3.672.36s-2.72-.12-3.696-.36c-.976-.24-1.744-.568-2.304-.984-.544-.432-.928-.944-1.152-1.536-.208-.608-.312-1.28-.312-2.016v-8.184c0-.736.104-1.4.312-1.992.224-.608.608-1.128,1.152-1.56.56-.432,1.328-.768,2.304-1.008.976-.24,2.208-.36,3.696-.36s2.712.12,3.672.36c.976.24,1.736.576,2.28,1.008.56.432.944.952,1.152,1.56.224.592.336,1.256.336,1.992v8.184Zm-9.456-.864c0,.32.12.592.36.816.24.208.792.312,1.656.312s1.416-.104,1.656-.312c.24-.224.36-.496.36-.816v-6.456c0-.304-.12-.56-.36-.768-.24-.224-.792-.336-1.656-.336s-1.416.112-1.656.336c-.24.208-.36.464-.36.768v6.456Zm16.976,5.4h-3.6c-.304,0-.528-.064-.672-.192-.128-.144-.192-.368-.192-.672v-15.552c0-.304.064-.52.192-.648.144-.144.368-.216.672-.216h2.496c.304,0,.56.048.768.144.224.096.44.264.648.504l4.656,5.328v-5.112c0-.304.064-.52.192-.648.144-.144.368-.216.672-.216h3.6c.304,0,.52.072.648.216.144.128.216.344.216.648v15.552c0,.304-.072.528-.216.672-.128.128-.344.192-.648.192h-3.6c-.304,0-.528-.064-.672-.192-.128-.144-.192-.368-.192-.672v-2.952l-4.104-4.968v7.92c0,.304-.072.528-.216.672-.128.128-.344.192-.648.192Zm14.086,0c-.304,0-.528-.064-.672-.192-.128-.144-.192-.368-.192-.672v-2.856c0-.304.064-.52.192-.648.144-.144.368-.216.672-.216h2.376v-8.064h-2.376c-.304,0-.528-.064-.672-.192-.128-.144-.192-.368-.192-.672v-2.904c0-.304.064-.52.192-.648.144-.144.368-.216.672-.216h10.224c.304,0,.52.072.648.216.144.128.216.344.216.648v2.904c0,.304-.072.528-.216.672-.128.128-.344.192-.648.192h-2.328v8.064h2.328c.304,0,.52.072.648.216.144.128.216.344.216.648v2.856c0,.304-.072.528-.216.672-.128.128-.344.192-.648.192h-10.224Zm25.547,0h-5.856c-2,0-3.488-.4-4.464-1.2-.96-.8-1.44-2.032-1.44-3.696v-7.464c0-1.664.48-2.896,1.44-3.696.976-.816,2.464-1.224,4.464-1.224h5.856c.304,0,.52.072.648.216.144.128.216.344.216.648v2.904c0,.304-.072.528-.216.672-.128.128-.344.192-.648.192h-4.824c-.496,0-.864.104-1.104.312-.24.192-.36.488-.36.888v5.712c0,.4.12.696.36.888.24.176.608.264,1.104.264h4.824c.304,0,.52.072.648.216.144.128.216.344.216.648v2.856c0,.304-.072.528-.216.672-.128.128-.344.192-.648.192Zm20.461,0h-5.856c-2,0-3.488-.4-4.464-1.2-.96-.8-1.44-2.032-1.44-3.696v-7.464c0-1.664.48-2.896,1.44-3.696.976-.816,2.464-1.224,4.464-1.224h5.856c.304,0,.52.072.648.216.144.128.216.344.216.648v2.904c0,.304-.072.528-.216.672-.128.128-.344.192-.648.192h-4.824c-.496,0-.864.104-1.104.312-.24.192-.36.488-.36.888v5.712c0,.4.12.696.36.888.24.176.608.264,1.104.264h4.824c.304,0,.52.072.648.216.144.128.216.344.216.648v2.856c0,.304-.072.528-.216.672-.128.128-.344.192-.648.192Zm18.097-4.536c0,.736-.112,1.408-.336,2.016-.208.592-.592,1.104-1.152,1.536-.544.416-1.304.744-2.28.984-.96.24-2.184.36-3.672.36s-2.72-.12-3.696-.36c-.976-.24-1.744-.568-2.304-.984-.544-.432-.928-.944-1.152-1.536-.208-.608-.312-1.28-.312-2.016v-8.184c0-.736.104-1.4.312-1.992.224-.608.608-1.128,1.152-1.56.56-.432,1.328-.768,2.304-1.008.976-.24,2.208-.36,3.696-.36s2.712.12,3.672.36c.976.24,1.736.576,2.28,1.008.56.432.944.952,1.152,1.56.224.592.336,1.256.336,1.992v8.184Zm-9.456-.864c0,.32.12.592.36.816.24.208.792.312,1.656.312s1.416-.104,1.656-.312c.24-.224.36-.496.36-.816v-6.456c0-.304-.12-.56-.36-.768-.24-.224-.792-.336-1.656-.336s-1.416.112-1.656.336c-.24.208-.36.464-.36.768v6.456Zm17.936-7.56v3.072h1.8c.416,0,.696-.104.84-.312.144-.224.216-.496.216-.816v-.816c0-.32-.072-.584-.216-.792-.144-.224-.424-.336-.84-.336h-1.8Zm-.864,12.96h-3.696c-.304,0-.528-.064-.672-.192-.128-.144-.192-.368-.192-.672v-15.552c0-.304.064-.52.192-.648.144-.144.368-.216.672-.216h7.992c1.792,0,3.024.376,3.696,1.128.688.736,1.032,1.696,1.032,2.88v1.104c0,.672-.104,1.248-.312,1.728-.192.464-.536.8-1.032,1.008.864.096,1.56.448,2.088,1.056.544.608.816,1.416.816,2.424v5.088c0,.304-.072.528-.216.672-.128.128-.344.192-.648.192h-3.72c-.304,0-.528-.064-.672-.192-.128-.144-.192-.368-.192-.672v-3.672c0-.352-.072-.608-.216-.768-.128-.176-.36-.264-.696-.264h-3.36v4.704c0,.304-.072.528-.216.672-.128.128-.344.192-.648.192Zm17.74,0h-3.6c-.304,0-.528-.064-.672-.192-.128-.144-.192-.368-.192-.672v-15.552c0-.304.064-.52.192-.648.144-.144.368-.216.672-.216h2.496c.304,0,.56.048.768.144.224.096.44.264.648.504l4.656,5.328v-5.112c0-.304.064-.52.192-.648.144-.144.368-.216.672-.216h3.6c.304,0,.52.072.648.216.144.128.216.344.216.648v15.552c0,.304-.072.528-.216.672-.128.128-.344.192-.648.192h-3.6c-.304,0-.528-.064-.672-.192-.128-.144-.192-.368-.192-.672v-2.952l-4.104-4.968v7.92c0,.304-.072.528-.216.672-.128.128-.344.192-.648.192Zm25.606,0h-11.136c-.304,0-.528-.064-.672-.192-.128-.144-.192-.368-.192-.672v-15.552c0-.304.064-.52.192-.648.144-.144.368-.216.672-.216h11.136c.304,0,.52.072.648.216.144.128.216.344.216.648v2.808c0,.304-.072.528-.216.672-.128.128-.344.192-.648.192h-6.624v1.848h4.68c.304,0,.52.072.648.216.144.128.216.344.216.648v2.568c0,.304-.072.528-.216.672-.128.128-.344.192-.648.192h-4.68v2.064h6.624c.304,0,.52.072.648.216.144.128.216.344.216.648v2.808c0,.304-.072.528-.216.672-.128.128-.344.192-.648.192Zm9.127-12.96v3.072h1.8c.416,0,.696-.104.84-.312.144-.224.216-.496.216-.816v-.816c0-.32-.072-.584-.216-.792-.144-.224-.424-.336-.84-.336h-1.8Zm-.864,12.96h-3.696c-.304,0-.528-.064-.672-.192-.128-.144-.192-.368-.192-.672v-15.552c0-.304.064-.52.192-.648.144-.144.368-.216.672-.216h7.992c1.792,0,3.024.376,3.696,1.128.688.736,1.032,1.696,1.032,2.88v1.104c0,.672-.104,1.248-.312,1.728-.192.464-.536.8-1.032,1.008.864.096,1.56.448,2.088,1.056.544.608.816,1.416.816,2.424v5.088c0,.304-.072.528-.216.672-.128.128-.344.192-.648.192h-3.72c-.304,0-.528-.064-.672-.192-.128-.144-.192-.368-.192-.672v-3.672c0-.352-.072-.608-.216-.768-.128-.176-.36-.264-.696-.264h-3.36v4.704c0,.304-.072.528-.216.672-.128.128-.344.192-.648.192Z" style="fill:#129e23; stroke-width:0px;"/><path d="m45.0191,40.8666h-3.888c-.304,0-.528-.064-.672-.192-.128-.144-.192-.368-.192-.672v-11.784h-3.528c-.304,0-.528-.064-.672-.192-.128-.144-.192-.368-.192-.672v-2.904c0-.304.064-.52.192-.648.144-.144.368-.216.672-.216h12.672c.304,0,.52.072.648.216.144.128.216.344.216.648v2.904c0,.304-.072.528-.216.672-.128.128-.344.192-.648.192h-3.528v11.784c0,.304-.072.528-.216.672-.128.128-.344.192-.648.192Zm12.174,0h-3.72c-.304,0-.528-.064-.672-.192-.128-.144-.192-.368-.192-.672v-15.552c0-.304.064-.52.192-.648.144-.144.368-.216.672-.216h3.72c.304,0,.52.072.648.216.144.128.216.344.216.648v5.208h4.008v-5.208c0-.304.064-.52.192-.648.144-.144.368-.216.672-.216h3.72c.304,0,.52.072.648.216.144.128.216.344.216.648v15.552c0,.304-.072.528-.216.672-.128.128-.344.192-.648.192h-3.72c-.304,0-.528-.064-.672-.192-.128-.144-.192-.368-.192-.672v-5.328h-4.008v5.328c0,.304-.072.528-.216.672-.128.128-.344.192-.648.192Zm25.627,0h-11.136c-.304,0-.528-.064-.672-.192-.128-.144-.192-.368-.192-.672v-15.552c0-.304.064-.52.192-.648.144-.144.368-.216.672-.216h11.136c.304,0,.52.072.648.216.144.128.216.344.216.648v2.808c0,.304-.072.528-.216.672-.128.128-.344.192-.648.192h-6.624v1.848h4.68c.304,0,.52.072.648.216.144.128.216.344.216.648v2.568c0,.304-.072.528-.216.672-.128.128-.344.192-.648.192h-4.68v2.064h6.624c.304,0,.52.072.648.216.144.128.216.344.216.648v2.808c0,.304-.072.528-.216.672-.128.128-.344.192-.648.192Zm17.6193,0h-3.888c-.304,0-.528-.064-.672-.192-.128-.144-.192-.368-.192-.672v-3.072l-3.672-4.92c-.368-.496-.616-.928-.744-1.296-.112-.368-.168-.92-.168-1.656v-4.608c0-.304.064-.52.192-.648.144-.144.368-.216.672-.216h3.696c.304,0,.52.072.648.216.144.128.216.344.216.648v3.936c0,.16.008.328.024.504s.08.344.192.504l1.104,1.728c.08.144.16.248.24.312.096.064.208.096.336.096h.24c.128,0,.232-.032.312-.096.096-.064.184-.168.264-.312l1.104-1.728c.112-.16.176-.328.192-.504s.024-.344.024-.504v-3.936c0-.304.064-.52.192-.648.144-.144.368-.216.672-.216h3.5756c.304,0,.52.072.648.216.144.128.216.344.216.648v4.608c0,.736-.064,1.288-.192,1.656-.128.368-.368.8-.72,1.296l-3.6476,4.944v3.048c0,.304-.072.528-.216.672-.128.128-.344.192-.648.192Zm22.8016-4.536c0,.736-.112,1.408-.336,2.016-.208.592-.592,1.104-1.152,1.536-.544.416-1.304.744-2.28.984-.96.24-2.184.36-3.672.36s-2.72-.12-3.696-.36c-.976-.24-1.744-.568-2.304-.984-.544-.432-.928-.944-1.152-1.536-.208-.608-.312-1.28-.312-2.016v-8.184c0-.736.104-1.4.312-1.992.224-.608.608-1.128,1.152-1.56.56-.432,1.328-.768,2.304-1.008.976-.24,2.208-.36,3.696-.36s2.712.12,3.672.36c.976.24,1.736.576,2.28,1.008.56.432.944.952,1.152,1.56.224.592.336,1.256.336,1.992v8.184Zm-9.456-.864c0,.32.12.592.36.816.24.208.792.312,1.656.312s1.416-.104,1.656-.312c.24-.224.36-.496.36-.816v-6.456c0-.304-.12-.56-.36-.768-.24-.224-.792-.336-1.656-.336s-1.416.112-1.656.336c-.24.208-.36.464-.36.768v6.456Zm16.976,5.4h-3.6c-.304,0-.528-.064-.672-.192-.128-.144-.192-.368-.192-.672v-15.552c0-.304.064-.52.192-.648.144-.144.368-.216.672-.216h2.496c.304,0,.56.048.768.144.224.096.44.264.648.504l4.656,5.328v-5.112c0-.304.064-.52.192-.648.144-.144.368-.216.672-.216h3.6c.304,0,.52.072.648.216.144.128.216.344.216.648v15.552c0,.304-.072.528-.216.672-.128.128-.344.192-.648.192h-3.6c-.304,0-.528-.064-.672-.192-.128-.144-.192-.368-.192-.672v-2.952l-4.104-4.968v7.92c0,.304-.072.528-.216.672-.128.128-.344.192-.648.192Zm14.086,0c-.304,0-.528-.064-.672-.192-.128-.144-.192-.368-.192-.672v-2.856c0-.304.064-.52.192-.648.144-.144.368-.216.672-.216h2.376v-8.064h-2.376c-.304,0-.528-.064-.672-.192-.128-.144-.192-.368-.192-.672v-2.904c0-.304.064-.52.192-.648.144-.144.368-.216.672-.216h10.224c.304,0,.52.072.648.216.144.128.216.344.216.648v2.904c0,.304-.072.528-.216.672-.128.128-.344.192-.648.192h-2.328v8.064h2.328c.304,0,.52.072.648.216.144.128.216.344.216.648v2.856c0,.304-.072.528-.216.672-.128.128-.344.192-.648.192h-10.224Zm25.547,0h-5.856c-2,0-3.488-.4-4.464-1.2-.96-.8-1.44-2.032-1.44-3.696v-7.464c0-1.664.48-2.896,1.44-3.696.976-.816,2.464-1.224,4.464-1.224h5.856c.304,0,.52.072.648.216.144.128.216.344.216.648v2.904c0,.304-.072.528-.216.672-.128.128-.344.192-.648.192h-4.824c-.496,0-.864.104-1.104.312-.24.192-.36.488-.36.888v5.712c0,.4.12.696.36.888.24.176.608.264,1.104.264h4.824c.304,0,.52.072.648.216.144.128.216.344.216.648v2.856c0,.304-.072.528-.216.672-.128.128-.344.192-.648.192Zm20.461,0h-5.856c-2,0-3.488-.4-4.464-1.2-.96-.8-1.44-2.032-1.44-3.696v-7.464c0-1.664.48-2.896,1.44-3.696.976-.816,2.464-1.224,4.464-1.224h5.856c.304,0,.52.072.648.216.144.128.216.344.216.648v2.904c0,.304-.072.528-.216.672-.128.128-.344.192-.648.192h-4.824c-.496,0-.864.104-1.104.312-.24.192-.36.488-.36.888v5.712c0,.4.12.696.36.888.24.176.608.264,1.104.264h4.824c.304,0,.52.072.648.216.144.128.216.344.216.648v2.856c0,.304-.072.528-.216.672-.128.128-.344.192-.648.192Zm18.097-4.536c0,.736-.112,1.408-.336,2.016-.208.592-.592,1.104-1.152,1.536-.544.416-1.304.744-2.28.984-.96.24-2.184.36-3.672.36s-2.72-.12-3.696-.36c-.976-.24-1.744-.568-2.304-.984-.544-.432-.928-.944-1.152-1.536-.208-.608-.312-1.28-.312-2.016v-8.184c0-.736.104-1.4.312-1.992.224-.608.608-1.128,1.152-1.56.56-.432,1.328-.768,2.304-1.008.976-.24,2.208-.36,3.696-.36s2.712.12,3.672.36c.976.24,1.736.576,2.28,1.008.56.432.944.952,1.152,1.56.224.592.336,1.256.336,1.992v8.184Zm-9.456-.864c0,.32.12.592.36.816.24.208.792.312,1.656.312s1.416-.104,1.656-.312c.24-.224.36-.496.36-.816v-6.456c0-.304-.12-.56-.36-.768-.24-.224-.792-.336-1.656-.336s-1.416.112-1.656.336c-.24.208-.36.464-.36.768v6.456Zm17.936-7.56v3.072h1.8c.416,0,.696-.104.84-.312.144-.224.216-.496.216-.816v-.816c0-.32-.072-.584-.216-.792-.144-.224-.424-.336-.84-.336h-1.8Zm-.864,12.96h-3.696c-.304,0-.528-.064-.672-.192-.128-.144-.192-.368-.192-.672v-15.552c0-.304.064-.52.192-.648.144-.144.368-.216.672-.216h7.992c1.792,0,3.024.376,3.696,1.128.688.736,1.032,1.696,1.032,2.88v1.104c0,.672-.104,1.248-.312,1.728-.192.464-.536.8-1.032,1.008.864.096,1.56.448,2.088,1.056.544.608.816,1.416.816,2.424v5.088c0,.304-.072.528-.216.672-.128.128-.344.192-.648.192h-3.72c-.304,0-.528-.064-.672-.192-.128-.144-.192-.368-.192-.672v-3.672c0-.352-.072-.608-.216-.768-.128-.176-.36-.264-.696-.264h-3.36v4.704c0,.304-.072.528-.216.672-.128.128-.344.192-.648.192Zm17.74,0h-3.6c-.304,0-.528-.064-.672-.192-.128-.144-.192-.368-.192-.672v-15.552c0-.304.064-.52.192-.648.144-.144.368-.216.672-.216h2.496c.304,0,.56.048.768.144.224.096.44.264.648.504l4.656,5.328v-5.112c0-.304.064-.52.192-.648.144-.144.368-.216.672-.216h3.6c.304,0,.52.072.648.216.144.128.216.344.216.648v15.552c0,.304-.072.528-.216.672-.128.128-.344.192-.648.192h-3.6c-.304,0-.528-.064-.672-.192-.128-.144-.192-.368-.192-.672v-2.952l-4.104-4.968v7.92c0,.304-.072.528-.216.672-.128.128-.344.192-.648.192Zm25.606,0h-11.136c-.304,0-.528-.064-.672-.192-.128-.144-.192-.368-.192-.672v-15.552c0-.304.064-.52.192-.648.144-.144.368-.216.672-.216h11.136c.304,0,.52.072.648.216.144.128.216.344.216.648v2.808c0,.304-.072.528-.216.672-.128.128-.344.192-.648.192h-6.624v1.848h4.68c.304,0,.52.072.648.216.144.128.216.344.216.648v2.568c0,.304-.072.528-.216.672-.128.128-.344.192-.648.192h-4.68v2.064h6.624c.304,0,.52.072.648.216.144.128.216.344.216.648v2.808c0,.304-.072.528-.216.672-.128.128-.344.192-.648.192Zm9.127-12.96v3.072h1.8c.416,0,.696-.104.84-.312.144-.224.216-.496.216-.816v-.816c0-.32-.072-.584-.216-.792-.144-.224-.424-.336-.84-.336h-1.8Zm-.864,12.96h-3.696c-.304,0-.528-.064-.672-.192-.128-.144-.192-.368-.192-.672v-15.552c0-.304.064-.52.192-.648.144-.144.368-.216.672-.216h7.992c1.792,0,3.024.376,3.696,1.128.688.736,1.032,1.696,1.032,2.88v1.104c0,.672-.104,1.248-.312,1.728-.192.464-.536.8-1.032,1.008.864.096,1.56.448,2.088,1.056.544.608.816,1.416.816,2.424v5.088c0,.304-.072.528-.216.672-.128.128-.344.192-.648.192h-3.72c-.304,0-.528-.064-.672-.192-.128-.144-.192-.368-.192-.672v-3.672c0-.352-.072-.608-.216-.768-.128-.176-.36-.264-.696-.264h-3.36v4.704c0,.304-.072.528-.216.672-.128.128-.344.192-.648.192Z" style="fill:#129e23; stroke-width:0px;"/></g><g style="mix-blend-mode:color-dodge; opacity:.4;"><path d="m49.0191,44.8666h-3.888c-.304,0-.528-.064-.672-.192-.128-.144-.192-.368-.192-.672v-11.784h-3.528c-.304,0-.528-.064-.672-.192-.128-.144-.192-.368-.192-.672v-2.904c0-.304.064-.52.192-.648.144-.144.368-.216.672-.216h12.672c.304,0,.52.072.648.216.144.128.216.344.216.648v2.904c0,.304-.072.528-.216.672-.128.128-.344.192-.648.192h-3.528v11.784c0,.304-.072.528-.216.672-.128.128-.344.192-.648.192Zm12.174,0h-3.72c-.304,0-.528-.064-.672-.192-.128-.144-.192-.368-.192-.672v-15.552c0-.304.064-.52.192-.648.144-.144.368-.216.672-.216h3.72c.304,0,.52.072.648.216.144.128.216.344.216.648v5.208h4.008v-5.208c0-.304.064-.52.192-.648.144-.144.368-.216.672-.216h3.72c.304,0,.52.072.648.216.144.128.216.344.216.648v15.552c0,.304-.072.528-.216.672-.128.128-.344.192-.648.192h-3.72c-.304,0-.528-.064-.672-.192-.128-.144-.192-.368-.192-.672v-5.328h-4.008v5.328c0,.304-.072.528-.216.672-.128.128-.344.192-.648.192Zm25.627,0h-11.136c-.304,0-.528-.064-.672-.192-.128-.144-.192-.368-.192-.672v-15.552c0-.304.064-.52.192-.648.144-.144.368-.216.672-.216h11.136c.304,0,.52.072.648.216.144.128.216.344.216.648v2.808c0,.304-.072.528-.216.672-.128.128-.344.192-.648.192h-6.624v1.848h4.68c.304,0,.52.072.648.216.144.128.216.344.216.648v2.568c0,.304-.072.528-.216.672-.128.128-.344.192-.648.192h-4.68v2.064h6.624c.304,0,.52.072.648.216.144.128.216.344.216.648v2.808c0,.304-.072.528-.216.672-.128.128-.344.192-.648.192Zm17.6193,0h-3.888c-.304,0-.528-.064-.672-.192-.128-.144-.192-.368-.192-.672v-3.072l-3.672-4.92c-.368-.496-.616-.928-.744-1.296-.112-.368-.168-.92-.168-1.656v-4.608c0-.304.064-.52.192-.648.144-.144.368-.216.672-.216h3.696c.304,0,.52.072.648.216.144.128.216.344.216.648v3.936c0,.16.008.328.024.504s.08.344.192.504l1.104,1.728c.08.144.16.248.24.312.096.064.208.096.336.096h.24c.128,0,.232-.032.312-.096.096-.064.184-.168.264-.312l1.104-1.728c.112-.16.176-.328.192-.504s.024-.344.024-.504v-3.936c0-.304.064-.52.192-.648.144-.144.368-.216.672-.216h3.5756c.304,0,.52.072.648.216.144.128.216.344.216.648v4.608c0,.736-.064,1.288-.192,1.656-.128.368-.368.8-.72,1.296l-3.6476,4.944v3.048c0,.304-.072.528-.216.672-.128.128-.344.192-.648.192Zm22.8016-4.536c0,.736-.112,1.408-.336,2.016-.208.592-.592,1.104-1.152,1.536-.544.416-1.304.744-2.28.984-.96.24-2.184.36-3.672.36s-2.72-.12-3.696-.36c-.976-.24-1.744-.568-2.304-.984-.544-.432-.928-.944-1.152-1.536-.208-.608-.312-1.28-.312-2.016v-8.184c0-.736.104-1.4.312-1.992.224-.608.608-1.128,1.152-1.56.56-.432,1.328-.768,2.304-1.008.976-.24,2.208-.36,3.696-.36s2.712.12,3.672.36c.976.24,1.736.576,2.28,1.008.56.432.944.952,1.152,1.56.224.592.336,1.256.336,1.992v8.184Zm-9.456-.864c0,.32.12.592.36.816.24.208.792.312,1.656.312s1.416-.104,1.656-.312c.24-.224.36-.496.36-.816v-6.456c0-.304-.12-.56-.36-.768-.24-.224-.792-.336-1.656-.336s-1.416.112-1.656.336c-.24.208-.36.464-.36.768v6.456Zm16.976,5.4h-3.6c-.304,0-.528-.064-.672-.192-.128-.144-.192-.368-.192-.672v-15.552c0-.304.064-.52.192-.648.144-.144.368-.216.672-.216h2.496c.304,0,.56.048.768.144.224.096.44.264.648.504l4.656,5.328v-5.112c0-.304.064-.52.192-.648.144-.144.368-.216.672-.216h3.6c.304,0,.52.072.648.216.144.128.216.344.216.648v15.552c0,.304-.072.528-.216.672-.128.128-.344.192-.648.192h-3.6c-.304,0-.528-.064-.672-.192-.128-.144-.192-.368-.192-.672v-2.952l-4.104-4.968v7.92c0,.304-.072.528-.216.672-.128.128-.344.192-.648.192Zm14.086,0c-.304,0-.528-.064-.672-.192-.128-.144-.192-.368-.192-.672v-2.856c0-.304.064-.52.192-.648.144-.144.368-.216.672-.216h2.376v-8.064h-2.376c-.304,0-.528-.064-.672-.192-.128-.144-.192-.368-.192-.672v-2.904c0-.304.064-.52.192-.648.144-.144.368-.216.672-.216h10.224c.304,0,.52.072.648.216.144.128.216.344.216.648v2.904c0,.304-.072.528-.216.672-.128.128-.344.192-.648.192h-2.328v8.064h2.328c.304,0,.52.072.648.216.144.128.216.344.216.648v2.856c0,.304-.072.528-.216.672-.128.128-.344.192-.648.192h-10.224Zm25.547,0h-5.856c-2,0-3.488-.4-4.464-1.2-.96-.8-1.44-2.032-1.44-3.696v-7.464c0-1.664.48-2.896,1.44-3.696.976-.816,2.464-1.224,4.464-1.224h5.856c.304,0,.52.072.648.216.144.128.216.344.216.648v2.904c0,.304-.072.528-.216.672-.128.128-.344.192-.648.192h-4.824c-.496,0-.864.104-1.104.312-.24.192-.36.488-.36.888v5.712c0,.4.12.696.36.888.24.176.608.264,1.104.264h4.824c.304,0,.52.072.648.216.144.128.216.344.216.648v2.856c0,.304-.072.528-.216.672-.128.128-.344.192-.648.192Zm20.461,0h-5.856c-2,0-3.488-.4-4.464-1.2-.96-.8-1.44-2.032-1.44-3.696v-7.464c0-1.664.48-2.896,1.44-3.696.976-.816,2.464-1.224,4.464-1.224h5.856c.304,0,.52.072.648.216.144.128.216.344.216.648v2.904c0,.304-.072.528-.216.672-.128.128-.344.192-.648.192h-4.824c-.496,0-.864.104-1.104.312-.24.192-.36.488-.36.888v5.712c0,.4.12.696.36.888.24.176.608.264,1.104.264h4.824c.304,0,.52.072.648.216.144.128.216.344.216.648v2.856c0,.304-.072.528-.216.672-.128.128-.344.192-.648.192Zm18.097-4.536c0,.736-.112,1.408-.336,2.016-.208.592-.592,1.104-1.152,1.536-.544.416-1.304.744-2.28.984-.96.24-2.184.36-3.672.36s-2.72-.12-3.696-.36c-.976-.24-1.744-.568-2.304-.984-.544-.432-.928-.944-1.152-1.536-.208-.608-.312-1.28-.312-2.016v-8.184c0-.736.104-1.4.312-1.992.224-.608.608-1.128,1.152-1.56.56-.432,1.328-.768,2.304-1.008.976-.24,2.208-.36,3.696-.36s2.712.12,3.672.36c.976.24,1.736.576,2.28,1.008.56.432.944.952,1.152,1.56.224.592.336,1.256.336,1.992v8.184Zm-9.456-.864c0,.32.12.592.36.816.24.208.792.312,1.656.312s1.416-.104,1.656-.312c.24-.224.36-.496.36-.816v-6.456c0-.304-.12-.56-.36-.768-.24-.224-.792-.336-1.656-.336s-1.416.112-1.656.336c-.24.208-.36.464-.36.768v6.456Zm17.936-7.56v3.072h1.8c.416,0,.696-.104.84-.312.144-.224.216-.496.216-.816v-.816c0-.32-.072-.584-.216-.792-.144-.224-.424-.336-.84-.336h-1.8Zm-.864,12.96h-3.696c-.304,0-.528-.064-.672-.192-.128-.144-.192-.368-.192-.672v-15.552c0-.304.064-.52.192-.648.144-.144.368-.216.672-.216h7.992c1.792,0,3.024.376,3.696,1.128.688.736,1.032,1.696,1.032,2.88v1.104c0,.672-.104,1.248-.312,1.728-.192.464-.536.8-1.032,1.008.864.096,1.56.448,2.088,1.056.544.608.816,1.416.816,2.424v5.088c0,.304-.072.528-.216.672-.128.128-.344.192-.648.192h-3.72c-.304,0-.528-.064-.672-.192-.128-.144-.192-.368-.192-.672v-3.672c0-.352-.072-.608-.216-.768-.128-.176-.36-.264-.696-.264h-3.36v4.704c0,.304-.072.528-.216.672-.128.128-.344.192-.648.192Zm17.74,0h-3.6c-.304,0-.528-.064-.672-.192-.128-.144-.192-.368-.192-.672v-15.552c0-.304.064-.52.192-.648.144-.144.368-.216.672-.216h2.496c.304,0,.56.048.768.144.224.096.44.264.648.504l4.656,5.328v-5.112c0-.304.064-.52.192-.648.144-.144.368-.216.672-.216h3.6c.304,0,.52.072.648.216.144.128.216.344.216.648v15.552c0,.304-.072.528-.216.672-.128.128-.344.192-.648.192h-3.6c-.304,0-.528-.064-.672-.192-.128-.144-.192-.368-.192-.672v-2.952l-4.104-4.968v7.92c0,.304-.072.528-.216.672-.128.128-.344.192-.648.192Zm25.606,0h-11.136c-.304,0-.528-.064-.672-.192-.128-.144-.192-.368-.192-.672v-15.552c0-.304.064-.52.192-.648.144-.144.368-.216.672-.216h11.136c.304,0,.52.072.648.216.144.128.216.344.216.648v2.808c0,.304-.072.528-.216.672-.128.128-.344.192-.648.192h-6.624v1.848h4.68c.304,0,.52.072.648.216.144.128.216.344.216.648v2.568c0,.304-.072.528-.216.672-.128.128-.344.192-.648.192h-4.68v2.064h6.624c.304,0,.52.072.648.216.144.128.216.344.216.648v2.808c0,.304-.072.528-.216.672-.128.128-.344.192-.648.192Zm9.127-12.96v3.072h1.8c.416,0,.696-.104.84-.312.144-.224.216-.496.216-.816v-.816c0-.32-.072-.584-.216-.792-.144-.224-.424-.336-.84-.336h-1.8Zm-.864,12.96h-3.696c-.304,0-.528-.064-.672-.192-.128-.144-.192-.368-.192-.672v-15.552c0-.304.064-.52.192-.648.144-.144.368-.216.672-.216h7.992c1.792,0,3.024.376,3.696,1.128.688.736,1.032,1.696,1.032,2.88v1.104c0,.672-.104,1.248-.312,1.728-.192.464-.536.8-1.032,1.008.864.096,1.56.448,2.088,1.056.544.608.816,1.416.816,2.424v5.088c0,.304-.072.528-.216.672-.128.128-.344.192-.648.192h-3.72c-.304,0-.528-.064-.672-.192-.128-.144-.192-.368-.192-.672v-3.672c0-.352-.072-.608-.216-.768-.128-.176-.36-.264-.696-.264h-3.36v4.704c0,.304-.072.528-.216.672-.128.128-.344.192-.648.192Z" style="fill:#008c71; stroke-width:0px;"/><path d="m45.0191,40.8666h-3.888c-.304,0-.528-.064-.672-.192-.128-.144-.192-.368-.192-.672v-11.784h-3.528c-.304,0-.528-.064-.672-.192-.128-.144-.192-.368-.192-.672v-2.904c0-.304.064-.52.192-.648.144-.144.368-.216.672-.216h12.672c.304,0,.52.072.648.216.144.128.216.344.216.648v2.904c0,.304-.072.528-.216.672-.128.128-.344.192-.648.192h-3.528v11.784c0,.304-.072.528-.216.672-.128.128-.344.192-.648.192Zm12.174,0h-3.72c-.304,0-.528-.064-.672-.192-.128-.144-.192-.368-.192-.672v-15.552c0-.304.064-.52.192-.648.144-.144.368-.216.672-.216h3.72c.304,0,.52.072.648.216.144.128.216.344.216.648v5.208h4.008v-5.208c0-.304.064-.52.192-.648.144-.144.368-.216.672-.216h3.72c.304,0,.52.072.648.216.144.128.216.344.216.648v15.552c0,.304-.072.528-.216.672-.128.128-.344.192-.648.192h-3.72c-.304,0-.528-.064-.672-.192-.128-.144-.192-.368-.192-.672v-5.328h-4.008v5.328c0,.304-.072.528-.216.672-.128.128-.344.192-.648.192Zm25.627,0h-11.136c-.304,0-.528-.064-.672-.192-.128-.144-.192-.368-.192-.672v-15.552c0-.304.064-.52.192-.648.144-.144.368-.216.672-.216h11.136c.304,0,.52.072.648.216.144.128.216.344.216.648v2.808c0,.304-.072.528-.216.672-.128.128-.344.192-.648.192h-6.624v1.848h4.68c.304,0,.52.072.648.216.144.128.216.344.216.648v2.568c0,.304-.072.528-.216.672-.128.128-.344.192-.648.192h-4.68v2.064h6.624c.304,0,.52.072.648.216.144.128.216.344.216.648v2.808c0,.304-.072.528-.216.672-.128.128-.344.192-.648.192Zm17.6193,0h-3.888c-.304,0-.528-.064-.672-.192-.128-.144-.192-.368-.192-.672v-3.072l-3.672-4.92c-.368-.496-.616-.928-.744-1.296-.112-.368-.168-.92-.168-1.656v-4.608c0-.304.064-.52.192-.648.144-.144.368-.216.672-.216h3.696c.304,0,.52.072.648.216.144.128.216.344.216.648v3.936c0,.16.008.328.024.504s.08.344.192.504l1.104,1.728c.08.144.16.248.24.312.096.064.208.096.336.096h.24c.128,0,.232-.032.312-.096.096-.064.184-.168.264-.312l1.104-1.728c.112-.16.176-.328.192-.504s.024-.344.024-.504v-3.936c0-.304.064-.52.192-.648.144-.144.368-.216.672-.216h3.5756c.304,0,.52.072.648.216.144.128.216.344.216.648v4.608c0,.736-.064,1.288-.192,1.656-.128.368-.368.8-.72,1.296l-3.6476,4.944v3.048c0,.304-.072.528-.216.672-.128.128-.344.192-.648.192Zm22.8016-4.536c0,.736-.112,1.408-.336,2.016-.208.592-.592,1.104-1.152,1.536-.544.416-1.304.744-2.28.984-.96.24-2.184.36-3.672.36s-2.72-.12-3.696-.36c-.976-.24-1.744-.568-2.304-.984-.544-.432-.928-.944-1.152-1.536-.208-.608-.312-1.28-.312-2.016v-8.184c0-.736.104-1.4.312-1.992.224-.608.608-1.128,1.152-1.56.56-.432,1.328-.768,2.304-1.008.976-.24,2.208-.36,3.696-.36s2.712.12,3.672.36c.976.24,1.736.576,2.28,1.008.56.432.944.952,1.152,1.56.224.592.336,1.256.336,1.992v8.184Zm-9.456-.864c0,.32.12.592.36.816.24.208.792.312,1.656.312s1.416-.104,1.656-.312c.24-.224.36-.496.36-.816v-6.456c0-.304-.12-.56-.36-.768-.24-.224-.792-.336-1.656-.336s-1.416.112-1.656.336c-.24.208-.36.464-.36.768v6.456Zm16.976,5.4h-3.6c-.304,0-.528-.064-.672-.192-.128-.144-.192-.368-.192-.672v-15.552c0-.304.064-.52.192-.648.144-.144.368-.216.672-.216h2.496c.304,0,.56.048.768.144.224.096.44.264.648.504l4.656,5.328v-5.112c0-.304.064-.52.192-.648.144-.144.368-.216.672-.216h3.6c.304,0,.52.072.648.216.144.128.216.344.216.648v15.552c0,.304-.072.528-.216.672-.128.128-.344.192-.648.192h-3.6c-.304,0-.528-.064-.672-.192-.128-.144-.192-.368-.192-.672v-2.952l-4.104-4.968v7.92c0,.304-.072.528-.216.672-.128.128-.344.192-.648.192Zm14.086,0c-.304,0-.528-.064-.672-.192-.128-.144-.192-.368-.192-.672v-2.856c0-.304.064-.52.192-.648.144-.144.368-.216.672-.216h2.376v-8.064h-2.376c-.304,0-.528-.064-.672-.192-.128-.144-.192-.368-.192-.672v-2.904c0-.304.064-.52.192-.648.144-.144.368-.216.672-.216h10.224c.304,0,.52.072.648.216.144.128.216.344.216.648v2.904c0,.304-.072.528-.216.672-.128.128-.344.192-.648.192h-2.328v8.064h2.328c.304,0,.52.072.648.216.144.128.216.344.216.648v2.856c0,.304-.072.528-.216.672-.128.128-.344.192-.648.192h-10.224Zm25.547,0h-5.856c-2,0-3.488-.4-4.464-1.2-.96-.8-1.44-2.032-1.44-3.696v-7.464c0-1.664.48-2.896,1.44-3.696.976-.816,2.464-1.224,4.464-1.224h5.856c.304,0,.52.072.648.216.144.128.216.344.216.648v2.904c0,.304-.072.528-.216.672-.128.128-.344.192-.648.192h-4.824c-.496,0-.864.104-1.104.312-.24.192-.36.488-.36.888v5.712c0,.4.12.696.36.888.24.176.608.264,1.104.264h4.824c.304,0,.52.072.648.216.144.128.216.344.216.648v2.856c0,.304-.072.528-.216.672-.128.128-.344.192-.648.192Zm20.461,0h-5.856c-2,0-3.488-.4-4.464-1.2-.96-.8-1.44-2.032-1.44-3.696v-7.464c0-1.664.48-2.896,1.44-3.696.976-.816,2.464-1.224,4.464-1.224h5.856c.304,0,.52.072.648.216.144.128.216.344.216.648v2.904c0,.304-.072.528-.216.672-.128.128-.344.192-.648.192h-4.824c-.496,0-.864.104-1.104.312-.24.192-.36.488-.36.888v5.712c0,.4.12.696.36.888.24.176.608.264,1.104.264h4.824c.304,0,.52.072.648.216.144.128.216.344.216.648v2.856c0,.304-.072.528-.216.672-.128.128-.344.192-.648.192Zm18.097-4.536c0,.736-.112,1.408-.336,2.016-.208.592-.592,1.104-1.152,1.536-.544.416-1.304.744-2.28.984-.96.24-2.184.36-3.672.36s-2.72-.12-3.696-.36c-.976-.24-1.744-.568-2.304-.984-.544-.432-.928-.944-1.152-1.536-.208-.608-.312-1.28-.312-2.016v-8.184c0-.736.104-1.4.312-1.992.224-.608.608-1.128,1.152-1.56.56-.432,1.328-.768,2.304-1.008.976-.24,2.208-.36,3.696-.36s2.712.12,3.672.36c.976.24,1.736.576,2.28,1.008.56.432.944.952,1.152,1.56.224.592.336,1.256.336,1.992v8.184Zm-9.456-.864c0,.32.12.592.36.816.24.208.792.312,1.656.312s1.416-.104,1.656-.312c.24-.224.36-.496.36-.816v-6.456c0-.304-.12-.56-.36-.768-.24-.224-.792-.336-1.656-.336s-1.416.112-1.656.336c-.24.208-.36.464-.36.768v6.456Zm17.936-7.56v3.072h1.8c.416,0,.696-.104.84-.312.144-.224.216-.496.216-.816v-.816c0-.32-.072-.584-.216-.792-.144-.224-.424-.336-.84-.336h-1.8Zm-.864,12.96h-3.696c-.304,0-.528-.064-.672-.192-.128-.144-.192-.368-.192-.672v-15.552c0-.304.064-.52.192-.648.144-.144.368-.216.672-.216h7.992c1.792,0,3.024.376,3.696,1.128.688.736,1.032,1.696,1.032,2.88v1.104c0,.672-.104,1.248-.312,1.728-.192.464-.536.8-1.032,1.008.864.096,1.56.448,2.088,1.056.544.608.816,1.416.816,2.424v5.088c0,.304-.072.528-.216.672-.128.128-.344.192-.648.192h-3.72c-.304,0-.528-.064-.672-.192-.128-.144-.192-.368-.192-.672v-3.672c0-.352-.072-.608-.216-.768-.128-.176-.36-.264-.696-.264h-3.36v4.704c0,.304-.072.528-.216.672-.128.128-.344.192-.648.192Zm17.74,0h-3.6c-.304,0-.528-.064-.672-.192-.128-.144-.192-.368-.192-.672v-15.552c0-.304.064-.52.192-.648.144-.144.368-.216.672-.216h2.496c.304,0,.56.048.768.144.224.096.44.264.648.504l4.656,5.328v-5.112c0-.304.064-.52.192-.648.144-.144.368-.216.672-.216h3.6c.304,0,.52.072.648.216.144.128.216.344.216.648v15.552c0,.304-.072.528-.216.672-.128.128-.344.192-.648.192h-3.6c-.304,0-.528-.064-.672-.192-.128-.144-.192-.368-.192-.672v-2.952l-4.104-4.968v7.92c0,.304-.072.528-.216.672-.128.128-.344.192-.648.192Zm25.606,0h-11.136c-.304,0-.528-.064-.672-.192-.128-.144-.192-.368-.192-.672v-15.552c0-.304.064-.52.192-.648.144-.144.368-.216.672-.216h11.136c.304,0,.52.072.648.216.144.128.216.344.216.648v2.808c0,.304-.072.528-.216.672-.128.128-.344.192-.648.192h-6.624v1.848h4.68c.304,0,.52.072.648.216.144.128.216.344.216.648v2.568c0,.304-.072.528-.216.672-.128.128-.344.192-.648.192h-4.68v2.064h6.624c.304,0,.52.072.648.216.144.128.216.344.216.648v2.808c0,.304-.072.528-.216.672-.128.128-.344.192-.648.192Zm9.127-12.96v3.072h1.8c.416,0,.696-.104.84-.312.144-.224.216-.496.216-.816v-.816c0-.32-.072-.584-.216-.792-.144-.224-.424-.336-.84-.336h-1.8Zm-.864,12.96h-3.696c-.304,0-.528-.064-.672-.192-.128-.144-.192-.368-.192-.672v-15.552c0-.304.064-.52.192-.648.144-.144.368-.216.672-.216h7.992c1.792,0,3.024.376,3.696,1.128.688.736,1.032,1.696,1.032,2.88v1.104c0,.672-.104,1.248-.312,1.728-.192.464-.536.8-1.032,1.008.864.096,1.56.448,2.088,1.056.544.608.816,1.416.816,2.424v5.088c0,.304-.072.528-.216.672-.128.128-.344.192-.648.192h-3.72c-.304,0-.528-.064-.672-.192-.128-.144-.192-.368-.192-.672v-3.672c0-.352-.072-.608-.216-.768-.128-.176-.36-.264-.696-.264h-3.36v4.704c0,.304-.072.528-.216.672-.128.128-.344.192-.648.192Z" style="fill:#008c71; stroke-width:0px;"/></g><g style="mix-blend-mode:color-dodge; opacity:.2;"><path d="m45.0191,40.8666h-3.888c-.304,0-.528-.064-.672-.192-.128-.144-.192-.368-.192-.672v-11.784h-3.528c-.304,0-.528-.064-.672-.192-.128-.144-.192-.368-.192-.672v-2.904c0-.304.064-.52.192-.648.144-.144.368-.216.672-.216h12.672c.304,0,.52.072.648.216.144.128.216.344.216.648v2.904c0,.304-.072.528-.216.672-.128.128-.344.192-.648.192h-3.528v11.784c0,.304-.072.528-.216.672-.128.128-.344.192-.648.192Zm12.174,0h-3.72c-.304,0-.528-.064-.672-.192-.128-.144-.192-.368-.192-.672v-15.552c0-.304.064-.52.192-.648.144-.144.368-.216.672-.216h3.72c.304,0,.52.072.648.216.144.128.216.344.216.648v5.208h4.008v-5.208c0-.304.064-.52.192-.648.144-.144.368-.216.672-.216h3.72c.304,0,.52.072.648.216.144.128.216.344.216.648v15.552c0,.304-.072.528-.216.672-.128.128-.344.192-.648.192h-3.72c-.304,0-.528-.064-.672-.192-.128-.144-.192-.368-.192-.672v-5.328h-4.008v5.328c0,.304-.072.528-.216.672-.128.128-.344.192-.648.192Zm25.627,0h-11.136c-.304,0-.528-.064-.672-.192-.128-.144-.192-.368-.192-.672v-15.552c0-.304.064-.52.192-.648.144-.144.368-.216.672-.216h11.136c.304,0,.52.072.648.216.144.128.216.344.216.648v2.808c0,.304-.072.528-.216.672-.128.128-.344.192-.648.192h-6.624v1.848h4.68c.304,0,.52.072.648.216.144.128.216.344.216.648v2.568c0,.304-.072.528-.216.672-.128.128-.344.192-.648.192h-4.68v2.064h6.624c.304,0,.52.072.648.216.144.128.216.344.216.648v2.808c0,.304-.072.528-.216.672-.128.128-.344.192-.648.192Zm17.6193,0h-3.888c-.304,0-.528-.064-.672-.192-.128-.144-.192-.368-.192-.672v-3.072l-3.672-4.92c-.368-.496-.616-.928-.744-1.296-.112-.368-.168-.92-.168-1.656v-4.608c0-.304.064-.52.192-.648.144-.144.368-.216.672-.216h3.696c.304,0,.52.072.648.216.144.128.216.344.216.648v3.936c0,.16.008.328.024.504s.08.344.192.504l1.104,1.728c.08.144.16.248.24.312.096.064.208.096.336.096h.24c.128,0,.232-.032.312-.096.096-.064.184-.168.264-.312l1.104-1.728c.112-.16.176-.328.192-.504s.024-.344.024-.504v-3.936c0-.304.064-.52.192-.648.144-.144.368-.216.672-.216h3.5756c.304,0,.52.072.648.216.144.128.216.344.216.648v4.608c0,.736-.064,1.288-.192,1.656-.128.368-.368.8-.72,1.296l-3.6476,4.944v3.048c0,.304-.072.528-.216.672-.128.128-.344.192-.648.192Zm22.8016-4.536c0,.736-.112,1.408-.336,2.016-.208.592-.592,1.104-1.152,1.536-.544.416-1.304.744-2.28.984-.96.24-2.184.36-3.672.36s-2.72-.12-3.696-.36c-.976-.24-1.744-.568-2.304-.984-.544-.432-.928-.944-1.152-1.536-.208-.608-.312-1.28-.312-2.016v-8.184c0-.736.104-1.4.312-1.992.224-.608.608-1.128,1.152-1.56.56-.432,1.328-.768,2.304-1.008.976-.24,2.208-.36,3.696-.36s2.712.12,3.672.36c.976.24,1.736.576,2.28,1.008.56.432.944.952,1.152,1.56.224.592.336,1.256.336,1.992v8.184Zm-9.456-.864c0,.32.12.592.36.816.24.208.792.312,1.656.312s1.416-.104,1.656-.312c.24-.224.36-.496.36-.816v-6.456c0-.304-.12-.56-.36-.768-.24-.224-.792-.336-1.656-.336s-1.416.112-1.656.336c-.24.208-.36.464-.36.768v6.456Zm16.976,5.4h-3.6c-.304,0-.528-.064-.672-.192-.128-.144-.192-.368-.192-.672v-15.552c0-.304.064-.52.192-.648.144-.144.368-.216.672-.216h2.496c.304,0,.56.048.768.144.224.096.44.264.648.504l4.656,5.328v-5.112c0-.304.064-.52.192-.648.144-.144.368-.216.672-.216h3.6c.304,0,.52.072.648.216.144.128.216.344.216.648v15.552c0,.304-.072.528-.216.672-.128.128-.344.192-.648.192h-3.6c-.304,0-.528-.064-.672-.192-.128-.144-.192-.368-.192-.672v-2.952l-4.104-4.968v7.92c0,.304-.072.528-.216.672-.128.128-.344.192-.648.192Zm14.086,0c-.304,0-.528-.064-.672-.192-.128-.144-.192-.368-.192-.672v-2.856c0-.304.064-.52.192-.648.144-.144.368-.216.672-.216h2.376v-8.064h-2.376c-.304,0-.528-.064-.672-.192-.128-.144-.192-.368-.192-.672v-2.904c0-.304.064-.52.192-.648.144-.144.368-.216.672-.216h10.224c.304,0,.52.072.648.216.144.128.216.344.216.648v2.904c0,.304-.072.528-.216.672-.128.128-.344.192-.648.192h-2.328v8.064h2.328c.304,0,.52.072.648.216.144.128.216.344.216.648v2.856c0,.304-.072.528-.216.672-.128.128-.344.192-.648.192h-10.224Zm25.547,0h-5.856c-2,0-3.488-.4-4.464-1.2-.96-.8-1.44-2.032-1.44-3.696v-7.464c0-1.664.48-2.896,1.44-3.696.976-.816,2.464-1.224,4.464-1.224h5.856c.304,0,.52.072.648.216.144.128.216.344.216.648v2.904c0,.304-.072.528-.216.672-.128.128-.344.192-.648.192h-4.824c-.496,0-.864.104-1.104.312-.24.192-.36.488-.36.888v5.712c0,.4.12.696.36.888.24.176.608.264,1.104.264h4.824c.304,0,.52.072.648.216.144.128.216.344.216.648v2.856c0,.304-.072.528-.216.672-.128.128-.344.192-.648.192Zm20.461,0h-5.856c-2,0-3.488-.4-4.464-1.2-.96-.8-1.44-2.032-1.44-3.696v-7.464c0-1.664.48-2.896,1.44-3.696.976-.816,2.464-1.224,4.464-1.224h5.856c.304,0,.52.072.648.216.144.128.216.344.216.648v2.904c0,.304-.072.528-.216.672-.128.128-.344.192-.648.192h-4.824c-.496,0-.864.104-1.104.312-.24.192-.36.488-.36.888v5.712c0,.4.12.696.36.888.24.176.608.264,1.104.264h4.824c.304,0,.52.072.648.216.144.128.216.344.216.648v2.856c0,.304-.072.528-.216.672-.128.128-.344.192-.648.192Zm18.097-4.536c0,.736-.112,1.408-.336,2.016-.208.592-.592,1.104-1.152,1.536-.544.416-1.304.744-2.28.984-.96.24-2.184.36-3.672.36s-2.72-.12-3.696-.36c-.976-.24-1.744-.568-2.304-.984-.544-.432-.928-.944-1.152-1.536-.208-.608-.312-1.28-.312-2.016v-8.184c0-.736.104-1.4.312-1.992.224-.608.608-1.128,1.152-1.56.56-.432,1.328-.768,2.304-1.008.976-.24,2.208-.36,3.696-.36s2.712.12,3.672.36c.976.24,1.736.576,2.28,1.008.56.432.944.952,1.152,1.56.224.592.336,1.256.336,1.992v8.184Zm-9.456-.864c0,.32.12.592.36.816.24.208.792.312,1.656.312s1.416-.104,1.656-.312c.24-.224.36-.496.36-.816v-6.456c0-.304-.12-.56-.36-.768-.24-.224-.792-.336-1.656-.336s-1.416.112-1.656.336c-.24.208-.36.464-.36.768v6.456Zm17.936-7.56v3.072h1.8c.416,0,.696-.104.84-.312.144-.224.216-.496.216-.816v-.816c0-.32-.072-.584-.216-.792-.144-.224-.424-.336-.84-.336h-1.8Zm-.864,12.96h-3.696c-.304,0-.528-.064-.672-.192-.128-.144-.192-.368-.192-.672v-15.552c0-.304.064-.52.192-.648.144-.144.368-.216.672-.216h7.992c1.792,0,3.024.376,3.696,1.128.688.736,1.032,1.696,1.032,2.88v1.104c0,.672-.104,1.248-.312,1.728-.192.464-.536.8-1.032,1.008.864.096,1.56.448,2.088,1.056.544.608.816,1.416.816,2.424v5.088c0,.304-.072.528-.216.672-.128.128-.344.192-.648.192h-3.72c-.304,0-.528-.064-.672-.192-.128-.144-.192-.368-.192-.672v-3.672c0-.352-.072-.608-.216-.768-.128-.176-.36-.264-.696-.264h-3.36v4.704c0,.304-.072.528-.216.672-.128.128-.344.192-.648.192Zm17.74,0h-3.6c-.304,0-.528-.064-.672-.192-.128-.144-.192-.368-.192-.672v-15.552c0-.304.064-.52.192-.648.144-.144.368-.216.672-.216h2.496c.304,0,.56.048.768.144.224.096.44.264.648.504l4.656,5.328v-5.112c0-.304.064-.52.192-.648.144-.144.368-.216.672-.216h3.6c.304,0,.52.072.648.216.144.128.216.344.216.648v15.552c0,.304-.072.528-.216.672-.128.128-.344.192-.648.192h-3.6c-.304,0-.528-.064-.672-.192-.128-.144-.192-.368-.192-.672v-2.952l-4.104-4.968v7.92c0,.304-.072.528-.216.672-.128.128-.344.192-.648.192Zm25.606,0h-11.136c-.304,0-.528-.064-.672-.192-.128-.144-.192-.368-.192-.672v-15.552c0-.304.064-.52.192-.648.144-.144.368-.216.672-.216h11.136c.304,0,.52.072.648.216.144.128.216.344.216.648v2.808c0,.304-.072.528-.216.672-.128.128-.344.192-.648.192h-6.624v1.848h4.68c.304,0,.52.072.648.216.144.128.216.344.216.648v2.568c0,.304-.072.528-.216.672-.128.128-.344.192-.648.192h-4.68v2.064h6.624c.304,0,.52.072.648.216.144.128.216.344.216.648v2.808c0,.304-.072.528-.216.672-.128.128-.344.192-.648.192Zm9.127-12.96v3.072h1.8c.416,0,.696-.104.84-.312.144-.224.216-.496.216-.816v-.816c0-.32-.072-.584-.216-.792-.144-.224-.424-.336-.84-.336h-1.8Zm-.864,12.96h-3.696c-.304,0-.528-.064-.672-.192-.128-.144-.192-.368-.192-.672v-15.552c0-.304.064-.52.192-.648.144-.144.368-.216.672-.216h7.992c1.792,0,3.024.376,3.696,1.128.688.736,1.032,1.696,1.032,2.88v1.104c0,.672-.104,1.248-.312,1.728-.192.464-.536.8-1.032,1.008.864.096,1.56.448,2.088,1.056.544.608.816,1.416.816,2.424v5.088c0,.304-.072.528-.216.672-.128.128-.344.192-.648.192h-3.72c-.304,0-.528-.064-.672-.192-.128-.144-.192-.368-.192-.672v-3.672c0-.352-.072-.608-.216-.768-.128-.176-.36-.264-.696-.264h-3.36v4.704c0,.304-.072.528-.216.672-.128.128-.344.192-.648.192Z" style="fill:#149ff4; stroke-width:0px;"/></g><path d="m41.0191,36.8666h-3.888c-.304,0-.528-.064-.672-.192-.128-.144-.192-.368-.192-.672v-11.784h-3.528c-.304,0-.528-.064-.672-.192-.128-.144-.192-.368-.192-.672v-2.904c0-.304.064-.52.192-.648.144-.144.368-.216.672-.216h12.672c.304,0,.52.072.648.216.144.128.216.344.216.648v2.904c0,.304-.072.528-.216.672-.128.128-.344.192-.648.192h-3.528v11.784c0,.304-.072.528-.216.672-.128.128-.344.192-.648.192Zm12.174,0h-3.72c-.304,0-.528-.064-.672-.192-.128-.144-.192-.368-.192-.672v-15.552c0-.304.064-.52.192-.648.144-.144.368-.216.672-.216h3.72c.304,0,.52.072.648.216.144.128.216.344.216.648v5.208h4.008v-5.208c0-.304.064-.52.192-.648.144-.144.368-.216.672-.216h3.72c.304,0,.52.072.648.216.144.128.216.344.216.648v15.552c0,.304-.072.528-.216.672-.128.128-.344.192-.648.192h-3.72c-.304,0-.528-.064-.672-.192-.128-.144-.192-.368-.192-.672v-5.328h-4.008v5.328c0,.304-.072.528-.216.672-.128.128-.344.192-.648.192Zm25.627,0h-11.136c-.304,0-.528-.064-.672-.192-.128-.144-.192-.368-.192-.672v-15.552c0-.304.064-.52.192-.648.144-.144.368-.216.672-.216h11.136c.304,0,.52.072.648.216.144.128.216.344.216.648v2.808c0,.304-.072.528-.216.672-.128.128-.344.192-.648.192h-6.624v1.848h4.68c.304,0,.52.072.648.216.144.128.216.344.216.648v2.568c0,.304-.072.528-.216.672-.128.128-.344.192-.648.192h-4.68v2.064h6.624c.304,0,.52.072.648.216.144.128.216.344.216.648v2.808c0,.304-.072.528-.216.672-.128.128-.344.192-.648.192Zm17.6193,0h-3.888c-.304,0-.528-.064-.672-.192-.128-.144-.192-.368-.192-.672v-3.072l-3.672-4.92c-.368-.496-.616-.928-.744-1.296-.112-.368-.168-.92-.168-1.656v-4.608c0-.304.064-.52.192-.648.144-.144.368-.216.672-.216h3.696c.304,0,.52.072.648.216.144.128.216.344.216.648v3.936c0,.16.008.328.024.504s.08.344.192.504l1.104,1.728c.08.144.16.248.24.312.096.064.208.096.336.096h.24c.128,0,.232-.032.312-.096.096-.064.184-.168.264-.312l1.104-1.728c.112-.16.176-.328.192-.504s.024-.344.024-.504v-3.936c0-.304.064-.52.192-.648.144-.144.368-.216.672-.216h3.5756c.304,0,.52.072.648.216.144.128.216.344.216.648v4.608c0,.736-.064,1.288-.192,1.656-.128.368-.368.8-.72,1.296l-3.6476,4.944v3.048c0,.304-.072.528-.216.672-.128.128-.344.192-.648.192Zm22.8016-4.536c0,.736-.112,1.408-.336,2.016-.208.592-.592,1.104-1.152,1.536-.544.416-1.304.744-2.28.984-.96.24-2.184.36-3.672.36s-2.72-.12-3.696-.36c-.976-.24-1.744-.568-2.304-.984-.544-.432-.928-.944-1.152-1.536-.208-.608-.312-1.28-.312-2.016v-8.184c0-.736.104-1.4.312-1.992.224-.608.608-1.128,1.152-1.56.56-.432,1.328-.768,2.304-1.008.976-.24,2.208-.36,3.696-.36s2.712.12,3.672.36c.976.24,1.736.576,2.28,1.008.56.432.944.952,1.152,1.56.224.592.336,1.256.336,1.992v8.184Zm-9.456-.864c0,.32.12.592.36.816.24.208.792.312,1.656.312s1.416-.104,1.656-.312c.24-.224.36-.496.36-.816v-6.456c0-.304-.12-.56-.36-.768-.24-.224-.792-.336-1.656-.336s-1.416.112-1.656.336c-.24.208-.36.464-.36.768v6.456Zm16.976,5.4h-3.6c-.304,0-.528-.064-.672-.192-.128-.144-.192-.368-.192-.672v-15.552c0-.304.064-.52.192-.648.144-.144.368-.216.672-.216h2.496c.304,0,.56.048.768.144.224.096.44.264.648.504l4.656,5.328v-5.112c0-.304.064-.52.192-.648.144-.144.368-.216.672-.216h3.6c.304,0,.52.072.648.216.144.128.216.344.216.648v15.552c0,.304-.072.528-.216.672-.128.128-.344.192-.648.192h-3.6c-.304,0-.528-.064-.672-.192-.128-.144-.192-.368-.192-.672v-2.952l-4.104-4.968v7.92c0,.304-.072.528-.216.672-.128.128-.344.192-.648.192Zm14.086,0c-.304,0-.528-.064-.672-.192-.128-.144-.192-.368-.192-.672v-2.856c0-.304.064-.52.192-.648.144-.144.368-.216.672-.216h2.376v-8.064h-2.376c-.304,0-.528-.064-.672-.192-.128-.144-.192-.368-.192-.672v-2.904c0-.304.064-.52.192-.648.144-.144.368-.216.672-.216h10.224c.304,0,.52.072.648.216.144.128.216.344.216.648v2.904c0,.304-.072.528-.216.672-.128.128-.344.192-.648.192h-2.328v8.064h2.328c.304,0,.52.072.648.216.144.128.216.344.216.648v2.856c0,.304-.072.528-.216.672-.128.128-.344.192-.648.192h-10.224Zm25.547,0h-5.856c-2,0-3.488-.4-4.464-1.2-.96-.8-1.44-2.032-1.44-3.696v-7.464c0-1.664.48-2.896,1.44-3.696.976-.816,2.464-1.224,4.464-1.224h5.856c.304,0,.52.072.648.216.144.128.216.344.216.648v2.904c0,.304-.072.528-.216.672-.128.128-.344.192-.648.192h-4.824c-.496,0-.864.104-1.104.312-.24.192-.36.488-.36.888v5.712c0,.4.12.696.36.888.24.176.608.264,1.104.264h4.824c.304,0,.52.072.648.216.144.128.216.344.216.648v2.856c0,.304-.072.528-.216.672-.128.128-.344.192-.648.192Zm20.461,0h-5.856c-2,0-3.488-.4-4.464-1.2-.96-.8-1.44-2.032-1.44-3.696v-7.464c0-1.664.48-2.896,1.44-3.696.976-.816,2.464-1.224,4.464-1.224h5.856c.304,0,.52.072.648.216.144.128.216.344.216.648v2.904c0,.304-.072.528-.216.672-.128.128-.344.192-.648.192h-4.824c-.496,0-.864.104-1.104.312-.24.192-.36.488-.36.888v5.712c0,.4.12.696.36.888.24.176.608.264,1.104.264h4.824c.304,0,.52.072.648.216.144.128.216.344.216.648v2.856c0,.304-.072.528-.216.672-.128.128-.344.192-.648.192Zm18.097-4.536c0,.736-.112,1.408-.336,2.016-.208.592-.592,1.104-1.152,1.536-.544.416-1.304.744-2.28.984-.96.24-2.184.36-3.672.36s-2.72-.12-3.696-.36c-.976-.24-1.744-.568-2.304-.984-.544-.432-.928-.944-1.152-1.536-.208-.608-.312-1.28-.312-2.016v-8.184c0-.736.104-1.4.312-1.992.224-.608.608-1.128,1.152-1.56.56-.432,1.328-.768,2.304-1.008.976-.24,2.208-.36,3.696-.36s2.712.12,3.672.36c.976.24,1.736.576,2.28,1.008.56.432.944.952,1.152,1.56.224.592.336,1.256.336,1.992v8.184Zm-9.456-.864c0,.32.12.592.36.816.24.208.792.312,1.656.312s1.416-.104,1.656-.312c.24-.224.36-.496.36-.816v-6.456c0-.304-.12-.56-.36-.768-.24-.224-.792-.336-1.656-.336s-1.416.112-1.656.336c-.24.208-.36.464-.36.768v6.456Zm17.936-7.56v3.072h1.8c.416,0,.696-.104.84-.312.144-.224.216-.496.216-.816v-.816c0-.32-.072-.584-.216-.792-.144-.224-.424-.336-.84-.336h-1.8Zm-.864,12.96h-3.696c-.304,0-.528-.064-.672-.192-.128-.144-.192-.368-.192-.672v-15.552c0-.304.064-.52.192-.648.144-.144.368-.216.672-.216h7.992c1.792,0,3.024.376,3.696,1.128.688.736,1.032,1.696,1.032,2.88v1.104c0,.672-.104,1.248-.312,1.728-.192.464-.536.8-1.032,1.008.864.096,1.56.448,2.088,1.056.544.608.816,1.416.816,2.424v5.088c0,.304-.072.528-.216.672-.128.128-.344.192-.648.192h-3.72c-.304,0-.528-.064-.672-.192-.128-.144-.192-.368-.192-.672v-3.672c0-.352-.072-.608-.216-.768-.128-.176-.36-.264-.696-.264h-3.36v4.704c0,.304-.072.528-.216.672-.128.128-.344.192-.648.192Zm17.74,0h-3.6c-.304,0-.528-.064-.672-.192-.128-.144-.192-.368-.192-.672v-15.552c0-.304.064-.52.192-.648.144-.144.368-.216.672-.216h2.496c.304,0,.56.048.768.144.224.096.44.264.648.504l4.656,5.328v-5.112c0-.304.064-.52.192-.648.144-.144.368-.216.672-.216h3.6c.304,0,.52.072.648.216.144.128.216.344.216.648v15.552c0,.304-.072.528-.216.672-.128.128-.344.192-.648.192h-3.6c-.304,0-.528-.064-.672-.192-.128-.144-.192-.368-.192-.672v-2.952l-4.104-4.968v7.92c0,.304-.072.528-.216.672-.128.128-.344.192-.648.192Zm25.606,0h-11.136c-.304,0-.528-.064-.672-.192-.128-.144-.192-.368-.192-.672v-15.552c0-.304.064-.52.192-.648.144-.144.368-.216.672-.216h11.136c.304,0,.52.072.648.216.144.128.216.344.216.648v2.808c0,.304-.072.528-.216.672-.128.128-.344.192-.648.192h-6.624v1.848h4.68c.304,0,.52.072.648.216.144.128.216.344.216.648v2.568c0,.304-.072.528-.216.672-.128.128-.344.192-.648.192h-4.68v2.064h6.624c.304,0,.52.072.648.216.144.128.216.344.216.648v2.808c0,.304-.072.528-.216.672-.128.128-.344.192-.648.192Zm9.127-12.96v3.072h1.8c.416,0,.696-.104.84-.312.144-.224.216-.496.216-.816v-.816c0-.32-.072-.584-.216-.792-.144-.224-.424-.336-.84-.336h-1.8Zm-.864,12.96h-3.696c-.304,0-.528-.064-.672-.192-.128-.144-.192-.368-.192-.672v-15.552c0-.304.064-.52.192-.648.144-.144.368-.216.672-.216h7.992c1.792,0,3.024.376,3.696,1.128.688.736,1.032,1.696,1.032,2.88v1.104c0,.672-.104,1.248-.312,1.728-.192.464-.536.8-1.032,1.008.864.096,1.56.448,2.088,1.056.544.608.816,1.416.816,2.424v5.088c0,.304-.072.528-.216.672-.128.128-.344.192-.648.192h-3.72c-.304,0-.528-.064-.672-.192-.128-.144-.192-.368-.192-.672v-3.672c0-.352-.072-.608-.216-.768-.128-.176-.36-.264-.696-.264h-3.36v4.704c0,.304-.072.528-.216.672-.128.128-.344.192-.648.192Z" style="fill:#76cdff; stroke-width:0px;"/></g></g></svg>