<svg width="361" height="64" viewBox="0 0 361 64" fill="none" xmlns="http://www.w3.org/2000/svg">
<path d="M284.11 0H39.3161C17.6024 0 0 18.7625 0 41.9072V64H361L312.869 12.6975C305.242 4.56745 294.897 0 284.11 0Z" fill="#00423A"/>
<g filter="url(#filter0_ddd_32_36)">
<path d="M41.0191 36.8666H37.1311C36.8271 36.8666 36.6031 36.8026 36.4591 36.6746C36.3311 36.5306 36.2671 36.3066 36.2671 36.0026V24.2186H32.7391C32.4351 24.2186 32.2111 24.1546 32.0671 24.0266C31.9391 23.8826 31.8751 23.6586 31.8751 23.3546V20.4506C31.8751 20.1466 31.9391 19.9306 32.0671 19.8026C32.2111 19.6586 32.4351 19.5866 32.7391 19.5866H45.4111C45.7151 19.5866 45.9311 19.6586 46.0591 19.8026C46.2031 19.9306 46.2751 20.1466 46.2751 20.4506V23.3546C46.2751 23.6586 46.2031 23.8826 46.0591 24.0266C45.9311 24.1546 45.7151 24.2186 45.4111 24.2186H41.8831V36.0026C41.8831 36.3066 41.8111 36.5306 41.6671 36.6746C41.5391 36.8026 41.3231 36.8666 41.0191 36.8666ZM53.1931 36.8666H49.4731C49.1691 36.8666 48.9451 36.8026 48.8011 36.6746C48.6731 36.5306 48.6091 36.3066 48.6091 36.0026V20.4506C48.6091 20.1466 48.6731 19.9306 48.8011 19.8026C48.9451 19.6586 49.1691 19.5866 49.4731 19.5866H53.1931C53.4971 19.5866 53.7131 19.6586 53.8411 19.8026C53.9851 19.9306 54.0571 20.1466 54.0571 20.4506V25.6586H58.0651V20.4506C58.0651 20.1466 58.1291 19.9306 58.2571 19.8026C58.4011 19.6586 58.6251 19.5866 58.9291 19.5866H62.6491C62.9531 19.5866 63.1691 19.6586 63.2971 19.8026C63.4411 19.9306 63.5131 20.1466 63.5131 20.4506V36.0026C63.5131 36.3066 63.4411 36.5306 63.2971 36.6746C63.1691 36.8026 62.9531 36.8666 62.6491 36.8666H58.9291C58.6251 36.8666 58.4011 36.8026 58.2571 36.6746C58.1291 36.5306 58.0651 36.3066 58.0651 36.0026V30.6746H54.0571V36.0026C54.0571 36.3066 53.9851 36.5306 53.8411 36.6746C53.7131 36.8026 53.4971 36.8666 53.1931 36.8666ZM78.8201 36.8666H67.6841C67.3801 36.8666 67.1561 36.8026 67.0121 36.6746C66.8841 36.5306 66.8201 36.3066 66.8201 36.0026V20.4506C66.8201 20.1466 66.8841 19.9306 67.0121 19.8026C67.1561 19.6586 67.3801 19.5866 67.6841 19.5866H78.8201C79.1241 19.5866 79.3401 19.6586 79.4681 19.8026C79.6121 19.9306 79.6841 20.1466 79.6841 20.4506V23.2586C79.6841 23.5626 79.6121 23.7866 79.4681 23.9306C79.3401 24.0586 79.1241 24.1226 78.8201 24.1226H72.1961V25.9706H76.8761C77.1801 25.9706 77.3961 26.0426 77.5241 26.1866C77.6681 26.3146 77.7401 26.5306 77.7401 26.8346V29.4026C77.7401 29.7066 77.6681 29.9306 77.5241 30.0746C77.3961 30.2026 77.1801 30.2666 76.8761 30.2666H72.1961V32.3306H78.8201C79.1241 32.3306 79.3401 32.4026 79.4681 32.5466C79.6121 32.6746 79.6841 32.8906 79.6841 33.1946V36.0026C79.6841 36.3066 79.6121 36.5306 79.4681 36.6746C79.3401 36.8026 79.1241 36.8666 78.8201 36.8666ZM96.4394 36.8666H92.5514C92.2474 36.8666 92.0234 36.8026 91.8794 36.6746C91.7514 36.5306 91.6874 36.3066 91.6874 36.0026V32.9306L88.0154 28.0106C87.6474 27.5146 87.3994 27.0826 87.2714 26.7146C87.1594 26.3466 87.1034 25.7946 87.1034 25.0586V20.4506C87.1034 20.1466 87.1674 19.9306 87.2954 19.8026C87.4394 19.6586 87.6634 19.5866 87.9674 19.5866H91.6634C91.9674 19.5866 92.1834 19.6586 92.3114 19.8026C92.4554 19.9306 92.5274 20.1466 92.5274 20.4506V24.3866C92.5274 24.5466 92.5354 24.7146 92.5514 24.8906C92.5674 25.0666 92.6314 25.2346 92.7434 25.3946L93.8474 27.1226C93.9274 27.2666 94.0074 27.3706 94.0874 27.4346C94.1834 27.4986 94.2954 27.5306 94.4234 27.5306H94.6634C94.7914 27.5306 94.8954 27.4986 94.9754 27.4346C95.0714 27.3706 95.1594 27.2666 95.2394 27.1226L96.3434 25.3946C96.4554 25.2346 96.5194 25.0666 96.5354 24.8906C96.5514 24.7146 96.5594 24.5466 96.5594 24.3866V20.4506C96.5594 20.1466 96.6234 19.9306 96.7514 19.8026C96.8954 19.6586 97.1194 19.5866 97.4234 19.5866H100.999C101.303 19.5866 101.519 19.6586 101.647 19.8026C101.791 19.9306 101.863 20.1466 101.863 20.4506V25.0586C101.863 25.7946 101.799 26.3466 101.671 26.7146C101.543 27.0826 101.303 27.5146 100.951 28.0106L97.3034 32.9546V36.0026C97.3034 36.3066 97.2314 36.5306 97.0874 36.6746C96.9594 36.8026 96.7434 36.8666 96.4394 36.8666ZM119.241 32.3306C119.241 33.0666 119.129 33.7386 118.905 34.3466C118.697 34.9386 118.313 35.4506 117.753 35.8826C117.209 36.2986 116.449 36.6266 115.473 36.8666C114.513 37.1066 113.289 37.2266 111.801 37.2266C110.313 37.2266 109.081 37.1066 108.105 36.8666C107.129 36.6266 106.361 36.2986 105.801 35.8826C105.257 35.4506 104.873 34.9386 104.649 34.3466C104.441 33.7386 104.337 33.0666 104.337 32.3306V24.1466C104.337 23.4106 104.441 22.7466 104.649 22.1546C104.873 21.5466 105.257 21.0266 105.801 20.5946C106.361 20.1626 107.129 19.8266 108.105 19.5866C109.081 19.3466 110.313 19.2266 111.801 19.2266C113.289 19.2266 114.513 19.3466 115.473 19.5866C116.449 19.8266 117.209 20.1626 117.753 20.5946C118.313 21.0266 118.697 21.5466 118.905 22.1546C119.129 22.7466 119.241 23.4106 119.241 24.1466V32.3306ZM109.785 31.4666C109.785 31.7866 109.905 32.0586 110.145 32.2826C110.385 32.4906 110.937 32.5946 111.801 32.5946C112.665 32.5946 113.217 32.4906 113.457 32.2826C113.697 32.0586 113.817 31.7866 113.817 31.4666V25.0106C113.817 24.7066 113.697 24.4506 113.457 24.2426C113.217 24.0186 112.665 23.9066 111.801 23.9066C110.937 23.9066 110.385 24.0186 110.145 24.2426C109.905 24.4506 109.785 24.7066 109.785 25.0106V31.4666ZM126.761 36.8666H123.161C122.857 36.8666 122.633 36.8026 122.489 36.6746C122.361 36.5306 122.297 36.3066 122.297 36.0026V20.4506C122.297 20.1466 122.361 19.9306 122.489 19.8026C122.633 19.6586 122.857 19.5866 123.161 19.5866H125.657C125.961 19.5866 126.217 19.6346 126.425 19.7306C126.649 19.8266 126.865 19.9946 127.073 20.2346L131.729 25.5626V20.4506C131.729 20.1466 131.793 19.9306 131.921 19.8026C132.065 19.6586 132.289 19.5866 132.593 19.5866H136.193C136.497 19.5866 136.713 19.6586 136.841 19.8026C136.985 19.9306 137.057 20.1466 137.057 20.4506V36.0026C137.057 36.3066 136.985 36.5306 136.841 36.6746C136.713 36.8026 136.497 36.8666 136.193 36.8666H132.593C132.289 36.8666 132.065 36.8026 131.921 36.6746C131.793 36.5306 131.729 36.3066 131.729 36.0026V33.0506L127.625 28.0826V36.0026C127.625 36.3066 127.553 36.5306 127.409 36.6746C127.281 36.8026 127.065 36.8666 126.761 36.8666ZM140.847 36.8666C140.543 36.8666 140.319 36.8026 140.175 36.6746C140.047 36.5306 139.983 36.3066 139.983 36.0026V33.1466C139.983 32.8426 140.047 32.6266 140.175 32.4986C140.319 32.3546 140.543 32.2826 140.847 32.2826H143.223V24.2186H140.847C140.543 24.2186 140.319 24.1546 140.175 24.0266C140.047 23.8826 139.983 23.6586 139.983 23.3546V20.4506C139.983 20.1466 140.047 19.9306 140.175 19.8026C140.319 19.6586 140.543 19.5866 140.847 19.5866H151.071C151.375 19.5866 151.591 19.6586 151.719 19.8026C151.863 19.9306 151.935 20.1466 151.935 20.4506V23.3546C151.935 23.6586 151.863 23.8826 151.719 24.0266C151.591 24.1546 151.375 24.2186 151.071 24.2186H148.743V32.2826H151.071C151.375 32.2826 151.591 32.3546 151.719 32.4986C151.863 32.6266 151.935 32.8426 151.935 33.1466V36.0026C151.935 36.3066 151.863 36.5306 151.719 36.6746C151.591 36.8026 151.375 36.8666 151.071 36.8666H140.847ZM166.394 36.8666H160.538C158.538 36.8666 157.05 36.4666 156.074 35.6666C155.114 34.8666 154.634 33.6346 154.634 31.9706V24.5066C154.634 22.8426 155.114 21.6106 156.074 20.8106C157.05 19.9946 158.538 19.5866 160.538 19.5866H166.394C166.698 19.5866 166.914 19.6586 167.042 19.8026C167.186 19.9306 167.258 20.1466 167.258 20.4506V23.3546C167.258 23.6586 167.186 23.8826 167.042 24.0266C166.914 24.1546 166.698 24.2186 166.394 24.2186H161.57C161.074 24.2186 160.706 24.3226 160.466 24.5306C160.226 24.7226 160.106 25.0186 160.106 25.4186V31.1306C160.106 31.5306 160.226 31.8266 160.466 32.0186C160.706 32.1946 161.074 32.2826 161.57 32.2826H166.394C166.698 32.2826 166.914 32.3546 167.042 32.4986C167.186 32.6266 167.258 32.8426 167.258 33.1466V36.0026C167.258 36.3066 167.186 36.5306 167.042 36.6746C166.914 36.8026 166.698 36.8666 166.394 36.8666ZM186.855 36.8666H180.999C178.999 36.8666 177.511 36.4666 176.535 35.6666C175.575 34.8666 175.095 33.6346 175.095 31.9706V24.5066C175.095 22.8426 175.575 21.6106 176.535 20.8106C177.511 19.9946 178.999 19.5866 180.999 19.5866H186.855C187.159 19.5866 187.375 19.6586 187.503 19.8026C187.647 19.9306 187.719 20.1466 187.719 20.4506V23.3546C187.719 23.6586 187.647 23.8826 187.503 24.0266C187.375 24.1546 187.159 24.2186 186.855 24.2186H182.031C181.535 24.2186 181.167 24.3226 180.927 24.5306C180.687 24.7226 180.567 25.0186 180.567 25.4186V31.1306C180.567 31.5306 180.687 31.8266 180.927 32.0186C181.167 32.1946 181.535 32.2826 182.031 32.2826H186.855C187.159 32.2826 187.375 32.3546 187.503 32.4986C187.647 32.6266 187.719 32.8426 187.719 33.1466V36.0026C187.719 36.3066 187.647 36.5306 187.503 36.6746C187.375 36.8026 187.159 36.8666 186.855 36.8666ZM204.952 32.3306C204.952 33.0666 204.84 33.7386 204.616 34.3466C204.408 34.9386 204.024 35.4506 203.464 35.8826C202.92 36.2986 202.16 36.6266 201.184 36.8666C200.224 37.1066 199 37.2266 197.512 37.2266C196.024 37.2266 194.792 37.1066 193.816 36.8666C192.84 36.6266 192.072 36.2986 191.512 35.8826C190.968 35.4506 190.584 34.9386 190.36 34.3466C190.152 33.7386 190.048 33.0666 190.048 32.3306V24.1466C190.048 23.4106 190.152 22.7466 190.36 22.1546C190.584 21.5466 190.968 21.0266 191.512 20.5946C192.072 20.1626 192.84 19.8266 193.816 19.5866C194.792 19.3466 196.024 19.2266 197.512 19.2266C199 19.2266 200.224 19.3466 201.184 19.5866C202.16 19.8266 202.92 20.1626 203.464 20.5946C204.024 21.0266 204.408 21.5466 204.616 22.1546C204.84 22.7466 204.952 23.4106 204.952 24.1466V32.3306ZM195.496 31.4666C195.496 31.7866 195.616 32.0586 195.856 32.2826C196.096 32.4906 196.648 32.5946 197.512 32.5946C198.376 32.5946 198.928 32.4906 199.168 32.2826C199.408 32.0586 199.528 31.7866 199.528 31.4666V25.0106C199.528 24.7066 199.408 24.4506 199.168 24.2426C198.928 24.0186 198.376 23.9066 197.512 23.9066C196.648 23.9066 196.096 24.0186 195.856 24.2426C195.616 24.4506 195.496 24.7066 195.496 25.0106V31.4666ZM213.432 23.9066V26.9786H215.232C215.648 26.9786 215.928 26.8746 216.072 26.6666C216.216 26.4426 216.288 26.1706 216.288 25.8506V25.0346C216.288 24.7146 216.216 24.4506 216.072 24.2426C215.928 24.0186 215.648 23.9066 215.232 23.9066H213.432ZM212.568 36.8666H208.872C208.568 36.8666 208.344 36.8026 208.2 36.6746C208.072 36.5306 208.008 36.3066 208.008 36.0026V20.4506C208.008 20.1466 208.072 19.9306 208.2 19.8026C208.344 19.6586 208.568 19.5866 208.872 19.5866H216.864C218.656 19.5866 219.888 19.9626 220.56 20.7146C221.248 21.4506 221.592 22.4106 221.592 23.5946V24.6986C221.592 25.3706 221.488 25.9466 221.28 26.4266C221.088 26.8906 220.744 27.2266 220.248 27.4346C221.112 27.5306 221.808 27.8826 222.336 28.4906C222.88 29.0986 223.152 29.9066 223.152 30.9146V36.0026C223.152 36.3066 223.08 36.5306 222.936 36.6746C222.808 36.8026 222.592 36.8666 222.288 36.8666H218.568C218.264 36.8666 218.04 36.8026 217.896 36.6746C217.768 36.5306 217.704 36.3066 217.704 36.0026V32.3306C217.704 31.9786 217.632 31.7226 217.488 31.5626C217.36 31.3866 217.128 31.2986 216.792 31.2986H213.432V36.0026C213.432 36.3066 213.36 36.5306 213.216 36.6746C213.088 36.8026 212.872 36.8666 212.568 36.8666ZM230.308 36.8666H226.708C226.404 36.8666 226.18 36.8026 226.036 36.6746C225.908 36.5306 225.844 36.3066 225.844 36.0026V20.4506C225.844 20.1466 225.908 19.9306 226.036 19.8026C226.18 19.6586 226.404 19.5866 226.708 19.5866H229.204C229.508 19.5866 229.764 19.6346 229.972 19.7306C230.196 19.8266 230.412 19.9946 230.62 20.2346L235.276 25.5626V20.4506C235.276 20.1466 235.34 19.9306 235.468 19.8026C235.612 19.6586 235.836 19.5866 236.14 19.5866H239.74C240.044 19.5866 240.26 19.6586 240.388 19.8026C240.532 19.9306 240.604 20.1466 240.604 20.4506V36.0026C240.604 36.3066 240.532 36.5306 240.388 36.6746C240.26 36.8026 240.044 36.8666 239.74 36.8666H236.14C235.836 36.8666 235.612 36.8026 235.468 36.6746C235.34 36.5306 235.276 36.3066 235.276 36.0026V33.0506L231.172 28.0826V36.0026C231.172 36.3066 231.1 36.5306 230.956 36.6746C230.828 36.8026 230.612 36.8666 230.308 36.8666ZM255.914 36.8666H244.778C244.474 36.8666 244.25 36.8026 244.106 36.6746C243.978 36.5306 243.914 36.3066 243.914 36.0026V20.4506C243.914 20.1466 243.978 19.9306 244.106 19.8026C244.25 19.6586 244.474 19.5866 244.778 19.5866H255.914C256.218 19.5866 256.434 19.6586 256.562 19.8026C256.706 19.9306 256.778 20.1466 256.778 20.4506V23.2586C256.778 23.5626 256.706 23.7866 256.562 23.9306C256.434 24.0586 256.218 24.1226 255.914 24.1226H249.29V25.9706H253.97C254.274 25.9706 254.49 26.0426 254.618 26.1866C254.762 26.3146 254.834 26.5306 254.834 26.8346V29.4026C254.834 29.7066 254.762 29.9306 254.618 30.0746C254.49 30.2026 254.274 30.2666 253.97 30.2666H249.29V32.3306H255.914C256.218 32.3306 256.434 32.4026 256.562 32.5466C256.706 32.6746 256.778 32.8906 256.778 33.1946V36.0026C256.778 36.3066 256.706 36.5306 256.562 36.6746C256.434 36.8026 256.218 36.8666 255.914 36.8666ZM265.041 23.9066V26.9786H266.841C267.257 26.9786 267.537 26.8746 267.681 26.6666C267.825 26.4426 267.897 26.1706 267.897 25.8506V25.0346C267.897 24.7146 267.825 24.4506 267.681 24.2426C267.537 24.0186 267.257 23.9066 266.841 23.9066H265.041ZM264.177 36.8666H260.481C260.177 36.8666 259.953 36.8026 259.809 36.6746C259.681 36.5306 259.617 36.3066 259.617 36.0026V20.4506C259.617 20.1466 259.681 19.9306 259.809 19.8026C259.953 19.6586 260.177 19.5866 260.481 19.5866H268.473C270.265 19.5866 271.497 19.9626 272.169 20.7146C272.857 21.4506 273.201 22.4106 273.201 23.5946V24.6986C273.201 25.3706 273.097 25.9466 272.889 26.4266C272.697 26.8906 272.353 27.2266 271.857 27.4346C272.721 27.5306 273.417 27.8826 273.945 28.4906C274.489 29.0986 274.761 29.9066 274.761 30.9146V36.0026C274.761 36.3066 274.689 36.5306 274.545 36.6746C274.417 36.8026 274.201 36.8666 273.897 36.8666H270.177C269.873 36.8666 269.649 36.8026 269.505 36.6746C269.377 36.5306 269.313 36.3066 269.313 36.0026V32.3306C269.313 31.9786 269.241 31.7226 269.097 31.5626C268.969 31.3866 268.737 31.2986 268.401 31.2986H265.041V36.0026C265.041 36.3066 264.969 36.5306 264.825 36.6746C264.697 36.8026 264.481 36.8666 264.177 36.8666Z" fill="#57DBD3"/>
</g>
<defs>
<filter id="filter0_ddd_32_36" x="31.8751" y="19.2266" width="254.886" height="30" filterUnits="userSpaceOnUse" color-interpolation-filters="sRGB">
<feFlood flood-opacity="0" result="BackgroundImageFix"/>
<feColorMatrix in="SourceAlpha" type="matrix" values="0 0 0 0 0 0 0 0 0 0 0 0 0 0 0 0 0 0 127 0" result="hardAlpha"/>
<feOffset dx="12" dy="12"/>
<feComposite in2="hardAlpha" operator="out"/>
<feColorMatrix type="matrix" values="0 0 0 0 0 0 0 0 0 0.0941176 0 0 0 0 0.0745098 0 0 0 1 0"/>
<feBlend mode="normal" in2="BackgroundImageFix" result="effect1_dropShadow_32_36"/>
<feColorMatrix in="SourceAlpha" type="matrix" values="0 0 0 0 0 0 0 0 0 0 0 0 0 0 0 0 0 0 127 0" result="hardAlpha"/>
<feOffset dx="8" dy="8"/>
<feComposite in2="hardAlpha" operator="out"/>
<feColorMatrix type="matrix" values="0 0 0 0 0 0 0 0 0 0.419608 0 0 0 0 0.384314 0 0 0 1 0"/>
<feBlend mode="normal" in2="effect1_dropShadow_32_36" result="effect2_dropShadow_32_36"/>
<feColorMatrix in="SourceAlpha" type="matrix" values="0 0 0 0 0 0 0 0 0 0 0 0 0 0 0 0 0 0 127 0" result="hardAlpha"/>
<feOffset dx="4" dy="4"/>
<feComposite in2="hardAlpha" operator="out"/>
<feColorMatrix type="matrix" values="0 0 0 0 0 0 0 0 0 0.537255 0 0 0 0 0.501961 0 0 0 1 0"/>
<feBlend mode="normal" in2="effect2_dropShadow_32_36" result="effect3_dropShadow_32_36"/>
<feBlend mode="normal" in="SourceGraphic" in2="effect3_dropShadow_32_36" result="shape"/>
</filter>
</defs>
</svg>
