<?xml version="1.0" encoding="UTF-8"?><svg id="a" xmlns="http://www.w3.org/2000/svg" viewBox="0 0 64 64"><rect x="8" y="9" width="48" height="9" rx="4.2825" ry="4.2825" style="fill:#020f1b; stroke-width:0px;"/><path d="m12.2825,28h39.435c2.3636,0,4.2825,1.9189,4.2825,4.2825v.435c0,2.3636-1.9189,4.2825-4.2825,4.2825H12.2825c-2.3636,0-4.2825-1.9189-4.2825-4.2825v-.435c0-2.3636,1.9189-4.2825,4.2825-4.2825Z" style="fill:#020f1b; stroke-width:0px;"/><path d="m12.2825,46h39.435c2.3636,0,4.2825,1.9189,4.2825,4.2825v.435c0,2.3636-1.9189,4.2825-4.2825,4.2825H12.2825c-2.3636,0-4.2825-1.9189-4.2825-4.2825v-.435c0-2.3636,1.9189-4.2825,4.2825-4.2825Z" style="fill:#020f1b; stroke-width:0px;"/></svg>