<?xml version="1.0" encoding="UTF-8"?><svg xmlns="http://www.w3.org/2000/svg" xmlns:xlink="http://www.w3.org/1999/xlink" viewBox="0 0 1920 1080"><defs><pattern id="c" x="0" y="0" width="24" height="24" patternUnits="userSpaceOnUse" viewBox="0 0 24 24"><rect width="24" height="24" fill="none"/><polygon points="24 2.4746 24 0 21.5254 0 0 21.5254 0 24 2.4746 24 24 2.4746"/><polygon points="14.4746 24 24 14.4746 24 9.5254 9.5254 24 14.4746 24"/><polygon points="24 24 24 21.5254 21.5254 24 24 24"/><polygon points="9.5254 0 0 9.5254 0 14.4746 14.4746 0 9.5254 0"/><polygon points="0 0 0 2.4746 2.4746 0 0 0"/></pattern></defs><g id="a"><rect x="0" width="1920" height="1080" fill="#727272"/></g><g id="b"><g fill="none" opacity=".25"><rect x=".5" y=".5" width="1919" height="1079" fill="url(#c)"/><path d="m1919,1v1078H1V1h1918m1-1H0v1080h1920V0h0Z"/></g></g><g id="d"><g id="e"><path d="m740.5013,292.6168h45.0995c-26.186-26.186-43.057-43.057-69.2347-69.2347v45.0995c0,13.3082,10.8272,24.1352,24.1352,24.1352Z" fill="#fff"/><path d="m740.5013,303.9974c-19.5832,0-35.5157-15.9323-35.5157-35.5157v-50.7899h-150.9248c-14.0495,0-25.4389,11.3894-25.4389,25.4389v300.5457c0,14.0495,11.3894,25.4389,25.4389,25.4389h211.7561c14.0496,0,25.439-11.3894,25.439-25.4389v-239.679h-50.7546Zm-174.3905,42.5274h140.1604v11.3806h-140.1604v-11.3806Zm0,32.9789h111.6212v11.3806h-111.6212v-11.3806Zm0,32.9789h154.1135v11.3806h-154.1135v-11.3806Zm173.1396,126.1907h-173.1397v-91.3264h173.1397v91.3264Zm.0002-213.747h-173.1399v-11.3806h173.1399v11.3806Z" fill="#fff"/><circle cx="652.6806" cy="493.01" r="11.7858" fill="#fff"/><circle cx="610.1356" cy="493.01" r="11.7858" fill="#fff"/><circle cx="695.2256" cy="493.01" r="11.7858" fill="#fff"/></g><g id="f"><path d="m894.6916,779.223l-22.5498-39.0573c-9.5848,35.7707-15.7599,58.8169-25.3417,94.5763l39.0573-22.5498c11.5253-6.6541,15.4881-21.4442,8.8341-32.9692Z" fill="#fff"/><path d="m904.5474,773.5327c9.7916,16.9595,3.9601,38.7237-12.9997,48.5154l-43.9854,25.395,75.4624,130.7047c7.0248,12.1673,22.583,16.3361,34.7502,9.3113l260.2802-150.2729c12.1673-7.0248,16.3361-22.583,9.3113-34.7502l-105.878-183.3862c-7.0248-12.1673-22.583-16.3361-34.7502-9.3114l-207.5681,119.8395,25.3773,43.9547Zm124.025,129.7629l-70.0802-121.3825,9.8559-5.6903,70.0802,121.3825-9.8559,5.6903Zm28.5605-16.4894l-55.8106-96.6668,9.8559-5.6903,55.8106,96.6668-9.8559,5.6903Zm28.5605-16.4894l-77.0568-133.4662,9.8559-5.6903,77.0568,133.4662-9.8559,5.6903Zm22.7145-213.0387l86.5698,149.9434-79.091,45.6632-86.5698-149.9434,79.091-45.6632Zm-185.1104,106.8733l86.5699,149.9435-9.8559,5.6903-86.5699-149.9435,9.8559-5.6903Z" fill="#fff"/><circle cx="1112.1474" cy="755.0813" r="11.7858" fill="#fff"/><circle cx="1133.4199" cy="791.9264" r="11.7858" fill="#fff"/><circle cx="1090.8749" cy="718.2363" r="11.7858" fill="#fff"/></g><g id="g"><path d="m1239.0097,402.3872l-22.5498,39.0573c35.7707-9.5847,58.8169-15.7599,94.5763-25.3417l-39.0573-22.5498c-11.5253-6.6541-26.3153-2.6909-32.9692,8.8341Z" fill="#fff"/><path d="m1229.1538,396.6969c9.7916-16.9595,31.5556-22.7914,48.5154-12.9997l43.9854,25.395,75.4624-130.7047c7.0248-12.1673,2.856-27.7254-9.3113-34.7502l-260.2802-150.2729c-12.1673-7.0248-27.7254-2.856-34.7502,9.3113l-105.878,183.3862c-7.0248,12.1673-2.856,27.7255,9.3113,34.7503l207.5681,119.8395,25.3773-43.9547Zm50.3654-172.2903l-70.0802,121.3825-9.8559-5.6903,70.0802-121.3825,9.8559,5.6903Zm-28.5605-16.4894l-55.8106,96.6668-9.8559-5.6903,55.8106-96.6668,9.8559,5.6903Zm-28.5605-16.4894l-77.0568,133.4662-9.8559-5.6903,77.0568-133.4662,9.8559,5.6903Zm-195.8542,86.848l86.5698-149.9434,79.091,45.6632-86.5698,149.9434-79.091-45.6632Zm185.1102,106.8737l86.5699-149.9435,9.8559,5.6903-86.5699,149.9435-9.8559-5.6903Z" fill="#fff"/><circle cx="1109.3745" cy="226.1357" r="11.7858" fill="#fff"/><circle cx="1130.647" cy="189.2906" r="11.7858" fill="#fff"/><circle cx="1088.102" cy="262.9808" r="11.7858" fill="#fff"/></g><path d="m1056.2429,523.8919l-125.3447,72.3678c-14.7003,8.4872-33.0756-2.1218-33.0756-19.0962v-144.7355c0-16.9744,18.3753-27.5834,33.0756-19.0962l125.3447,72.3678c14.7003,8.4872,14.7003,29.7052,0,38.1924Z" fill="#fff"/></g></svg>