<?xml version="1.0" encoding="UTF-8"?><svg id="uuid-3384d580-6a08-47bc-b657-b4e4065d7bba" xmlns="http://www.w3.org/2000/svg" xmlns:xlink="http://www.w3.org/1999/xlink" viewBox="0 0 443.2941 429.85"><defs><clipPath id="uuid-defdb92f-56ee-42ce-ba2d-651650ef5399"><path d="M191.7083,387.71c3.51.44,7.16-.42,10.11-2.38,0,0,12.37-1.83,15.67-19.51,3.29-17.68-14.65-20.85-14.65-20.85-1.72-.79-3.49-1.46-5.3-2.02l.59-1.86c-2.23-4.85-6.33-8.81-11.25-10.87l-1.26-.84c.77-1.15,1.5-2.33,2.19-3.53l.04.02c8.83,1.97,17.05,6.58,23.34,13.08l.07.17c13.49,5.18,27.84,7.85,42.22,9.17,9.86.91,19.76,1.2,29.67,1.28,4.37.05,8.73.05,13.1.05v-.59c.19-1.31,1.22-2.29,2.47-2.77.63-.24,1.3-.36,1.96-.34,1.47.06,2.85.64,4.17,1.33-.2.28-.4.57-.59.86-1.24,1.84-2.4,3.73-3.37,5.72-.23.45-.44.91-.64,1.37-2.18,5-2.98,10.9-.71,15.86.95,2.08,2.37,3.87,3.99,5.48.93.95,1.93,1.82,2.94,2.66,1.99,1.64,4.05,3.18,6.19,4.61-.06.62-.12,1.24-.19,1.86-1.44,12.51-6.46,24.59-14.31,34.44l-.27-.15c-.26.15-.52.29-.78.42-4.09,2.03-9.24,1.82-13.12-.6l-.09-.32c-38.83,10.61-82.05,4-115.92-17.75l-.47-1.16v-.01c8.5-3.34,16.59-7.73,24.01-13.07l.19.24Z" fill="none" stroke-width="0"/></clipPath></defs><path d="M433.7483,377.52c-5.64-1.23-11.38-2.04-17.14-2.42l-1.39.01c-.57-.73-1.17-1.44-1.81-2.12l-.05.05c-1.63-.29-3.25-.63-4.86-1.01.39-1.77.94-3.51,1.63-5.18l2.71.02c7.22,2.61,14.34,5.49,21.35,8.63l-.44,2.02Z" fill="#698cbd" stroke-width="0"/><path d="M448.1983,381.66l-1.24,35.31c-8.89-.14-17.77-.28-26.65-.43l-.53-.03c-.27,0-.54-.01-.81-.01,3.57-6.75,5.06-14.59,4.18-22.17-.8-6.97-3.59-13.7-7.93-19.22l1.39-.01c5.76.38,11.5,1.19,17.14,2.42,4.9,1.07,9.73,2.45,14.45,4.14Z" fill="#698cbd" stroke-width="0"/><path d="M185.4483,331.22c1.71,4.25,4.6,8,8.27,10.72-5.93-1.3-12.12-1.42-18.09-.35,3.34-3.35,6.41-6.99,9.1-10.88l.72.51Z" fill="#698cbd" stroke-width="0"/><path d="M186.8783,330.22c4.92,2.06,9.02,6.02,11.25,10.87l-.59,1.86c-1.26-.4-2.53-.73-3.82-1.01-3.67-2.72-6.56-6.47-8.27-10.72l-.72-.51c.3-.44.6-.88.89-1.33l1.26.84Z" fill="#283131" stroke-width="0"/><path d="M346.7283,417.12c-7.77-.74-15.64,1.86-23.2,4.16-8.43,2.56-18.85,4.02-27.06.86l.64-1.76c.26-.13.52-.27.78-.42l.27.15c7.85-9.85,12.87-21.93,14.31-34.44.07-.62.13-1.24.19-1.86,7.95,5.35,16.89,9.22,26.24,11.33,3.89,3.66,9.87,4.98,14.94,3.28-4.93-2.9-8.87-7.47-10.99-12.78l.06-.04c4.5,2.58,9.54,4.23,14.69,4.79-4.94-2.47-8.86-7.09-10.05-12.48-1.19-5.42.6-11.49,4.82-15.08,3-2.55,6.88-3.72,10.43-5.4,1.38-.65,2.74-1.44,3.96-2.38,3.51,1.34,6.99,2.76,10.44,4.18l.35-.54c9.43,6.22,19.96,10.75,30.95,13.34,1.61.38,3.23.72,4.86,1.01l.05-.05c.64.68,1.24,1.39,1.81,2.12,4.34,5.52,7.13,12.25,7.93,19.22.88,7.58-.61,15.42-4.18,22.17-23.14-.24-46.29-.13-69.43.31l-2.81.31Z" fill="#2e556b" stroke-width="0"/><path d="M207.1983,291.54c-2.21,1.15-4.47,2.2-6.78,3.13-1.74.71-3.51,1.36-5.29,1.93-3.22,1.05-6.51,1.9-9.84,2.53,1.12-3.84,1.88-7.77,2.16-11.76.59-8.3-.92-16.83-4.99-24.08-2.84-5.04-6.96-9.41-11.9-12.38.05-.03.1-.05.15-.07,6.64-2.78,14.35-2.94,21.11-.44,13.96,5.15,22.53,20.42,36.77,24.76l.04.02c-6.09,6.68-13.4,12.21-21.43,16.36Z" fill="#698cbd" stroke-width="0"/><path d="M370.1183,351.21c.13-.23.24-.48.33-.73,4.85,1.69,9.59,3.7,14.19,6l-.14.29c8.2,4.33,17.18,7.2,26.38,8.43-.26.54-.51,1.09-.75,1.65-.69,1.67-1.24,3.41-1.63,5.18-10.99-2.59-21.52-7.12-30.95-13.34l-.35.54c-3.45-1.42-6.93-2.84-10.44-4.18,1.39-1.07,2.59-2.34,3.36-3.84Z" fill="#2e556b" stroke-width="0"/><path d="M60.7783,322.8l-.13-.07c4.67-10.12,14.82-17.49,25.87-18.87l1.98.11c-.02,1.5,1.15,2.8,2.52,3.39,1.37.6,2.91.63,4.41.64h.29c3.36.05,6.76.04,10-.84l.46-.25c1.41,2.69,4.96,4.04,7.81,2.98,1.02-.38,2.16-1.02,3.1-.48.66.37.9,1.16,1.31,1.8,1,1.57,2.98,2.16,4.8,2.55,5.96,1.31,12.05,1.88,18.14,2.33,6.36.47,12.77.8,19.11.14,6.35-.66,12.67-2.36,18.1-5.72l1.97.65c.7-1.4,1.36-2.81,1.97-4.25l2.28.93c4.01-2.99,7.58-6.55,10.59-10.55l.2.09c-.36,6.33-2.95,12.51-7.21,17.19,2.14-1.37,4.15-2.97,5.98-4.74-1.36,5.64-3.61,11.01-6.52,16.02-.69,1.2-1.42,2.38-2.19,3.53-.29.45-.59.89-.89,1.33-2.69,3.89-5.76,7.53-9.1,10.88-2.79.49-5.54,1.25-8.19,2.27-9.57,3.68-17.79,10.72-23,19.54-.94,1.59-1.78,3.24-2.51,4.94,0,0-.01.01-.01,0-1.66-.64-3.33-1.28-4.99-1.92.95,1.21,1.67,2.6,2.1,4.07-1.65.39-3.52.79-5.52,1.19h-.01c-2.52-.59-5.02-1.27-7.5-2.04-.17-1.95-.81-7.1-2.82-11.25-1.39-2.83-3.42-5.2-6.4-5.75-8.23-1.51-12.38,7.6-12.61,8.13-.25-.12-.49-.25-.74-.37-11.41-5.73-22.23-12.56-33.03-19.38l-.44.38c-1.7-2.04-3.74-3.8-5.57-5.74-1.86-1.98-3.54-4.24-4.22-6.88-.51-1.98-.35-4.21.61-5.98ZM89.9683,336.23c3.51-2.65,7.01-5.31,10.52-7.97.91-.69,1.88-1.45,2.24-2.55.62-1.87-.78-3.8-2.29-5.08-3.21-2.73-7.35-4.36-11.56-4.56l-1.95-.53c-2.44.34-4.89.74-7.16,1.67-2.59,1.04-4.98,2.86-6.14,5.4l.18.09c-.41,1.13,0,2.42.75,3.36s1.79,1.59,2.8,2.23c4.18,2.61,8.35,5.21,12.52,7.82l.09.12Z" fill="#d3e1f6" stroke-width="0"/><path d="M182.4583,263.29c4.07,7.25,5.58,15.78,4.99,24.08-.28,3.99-1.04,7.92-2.16,11.76-6.55,1.24-13.25,1.65-19.91,1.14l-9.82-34.71c2.95-6.52,8.42-11.86,15-14.65,4.94,2.97,9.06,7.34,11.9,12.38Z" fill="#698cbd" stroke-width="0"/><path d="M102.3083,299.38c-.69-3.52-2.5-6.81-5.1-9.27l-.69-.89c-.77-.41-1.56-.77-2.37-1.09l21.13-24.43c14.71-7.48,30.77-12.32,47.17-14.17l1.21-1.68c2.43.71,4.74,1.75,6.9,3.06-6.58,2.79-12.05,8.13-15,14.65l9.82,34.71c6.66.51,13.36.1,19.91-1.14-.77,2.65-1.71,5.25-2.8,7.78-.61,1.44-1.27,2.85-1.97,4.25l-1.97-.65c-5.43,3.36-11.75,5.06-18.1,5.72-6.34.66-12.75.33-19.11-.14-6.09-.45-12.18-1.02-18.14-2.33-1.82-.39-3.8-.98-4.8-2.55-.41-.64-.65-1.43-1.31-1.8-.94-.54-2.08.1-3.1.48-2.85,1.06-6.4-.29-7.81-2.98l-.46.25c-3.24.88-6.64.89-10,.84l.01-.75h.34c2.17-2.5,4.21-5.12,6.11-7.84l.13-.03Z" fill="#698cbd" stroke-width="0"/><path d="M167.4383,343.86c2.65-1.02,5.4-1.78,8.19-2.27-8.92,8.98-19.65,15.97-30.74,22.07l-.45-.26c5.21-8.82,13.43-15.86,23-19.54Z" fill="#000" stroke-width="0"/><path d="M116.7083,235.91c-5.09-3.42-10.88-5.81-16.9-6.97l.07-.36c9.11-3.08,19.07-3.3,28.48-1.33,9.41,1.98,18.3,6.08,26.34,11.36,3.62,2.38,7.24,5.19,8.99,9.16l-.03.08-1.21,1.68c-16.4,1.85-32.46,6.69-47.17,14.17l1.29-1.49-30.03-14-8.52,6.4c-2.47.02-4.93.27-7.35.76l-.18-.13c4.59-7.37,12.23-12.47,20.43-15.32s16.97-3.62,25.65-3.8l.14-.21Z" fill="#4dc485" stroke-width="0"/><path d="M141.9283,368.34c.66.26,1.33.52,1.99.77-.49.18-1.05.36-1.67.54l-.35-1.25c.01-.02.02-.04.02-.06,0,.01.01,0,.01,0Z" fill="#000" stroke-width="0"/><path d="M139.0283,370.49c.25.79.4,1.59.47,2.41-2.01-.35-4.01-.75-5.99-1.22,2-.4,3.87-.8,5.52-1.19Z" fill="#000" stroke-width="0"/><path d="M123.1783,358.39c2.01,4.15,2.65,9.3,2.82,11.25-5.32-1.64-10.53-3.66-15.63-5.95l2.39-4.11c1.64.55,3.25,1.17,4.83,1.86l.08-.07c1.26-.25,2.3-1.12,3.35-1.86.66-.47,1.39-.91,2.16-1.12Z" fill="#d3e1f6" stroke-width="0"/><path d="M123.1783,358.39c-.77.21-1.5.65-2.16,1.12-1.05.74-2.09,1.61-3.35,1.86l-.08.07c-1.58-.69-3.19-1.31-4.83-1.86l4.02-6.94c2.98.55,5.01,2.92,6.4,5.75Z" fill="#d3e1f6" stroke-width="0"/><path d="M112.7583,359.58l-2.39,4.11c-2.09-.93-4.15-1.91-6.2-2.92.23-.53,4.38-9.64,12.61-8.13l-4.02,6.94Z" fill="#d3e1f6" stroke-width="0"/><path d="M92.8083,257.33c-4.7-1.84-9.74-2.76-14.79-2.72l8.52-6.4,30.03,14-1.29,1.49c-3.81,1.94-7.53,4.05-11.14,6.34-6.44,4.08-12.66,8.74-19.41,12.18-2.7,1.37-5.49,2.55-8.41,3.42l-.16-.31c1.74-10.72,7.77-20.68,16.48-27.19l.17-.81Z" fill="#4dc485" stroke-width="0"/><path d="M115.2783,263.7l-21.13,24.43c-1.07-.41-2.17-.75-3.29-.99l-.13-.07c-1.63,3.16-3.1,6.39-4.43,9.69-1.08-4.62-1.54-9.38-1.36-14.12l-.21-.42c6.75-3.44,12.97-8.1,19.41-12.18,3.61-2.29,7.33-4.4,11.14-6.34Z" fill="#698cbd" stroke-width="0"/><path d="M100.4383,320.63c1.51,1.28,2.91,3.21,2.29,5.08-.36,1.1-1.33,1.86-2.24,2.55-3.51,2.66-7.01,5.32-10.52,7.97l-.09-.12c-4.17-2.61-8.34-5.21-12.52-7.82-1.01-.64-2.05-1.29-2.8-2.23s-1.16-2.23-.75-3.36l-.18-.09c1.16-2.54,3.55-4.36,6.14-5.4,2.27-.93,4.72-1.33,7.16-1.67l1.95.53c4.21.2,8.35,1.83,11.56,4.56Z" fill="#2a2a2a" stroke-width="0"/><path d="M95.7283,307.25l-.01.75h-.29c-1.5-.01-3.04-.04-4.41-.64-1.37-.59-2.54-1.89-2.52-3.39l-1.98-.11c.35-.05.71-.09,1.07-.12l.78-.18c-.8-2.1-1.46-4.26-1.98-6.45l7.76-8.98c.81.32,1.6.68,2.37,1.09l.69.89c2.6,2.46,4.41,5.75,5.1,9.27l-.13.03c-1.9,2.72-3.94,5.34-6.11,7.84h-.34Z" fill="#698cbd" stroke-width="0"/><path d="M94.1483,288.13l-7.76,8.98c-.03-.12-.06-.23-.09-.35,1.33-3.3,2.8-6.53,4.43-9.69l.13.07c1.12.24,2.22.58,3.29.99Z" fill="#698cbd" stroke-width="0"/><path d="M92.8083,257.33l-.17.81c-8.71,6.51-14.74,16.47-16.48,27.19l.16.31c2.92-.87,5.71-2.05,8.41-3.42l.21.42c-.18,4.74.28,9.5,1.36,14.12-.11.27-.22.54-.33.82l-1.29,1.5c-3.42,3.4-8.73,4.03-13.52,3.53s-9.49-1.94-14.31-1.94l-.31-.1c4.57-6.86,5.91-15.29,7.86-23.29,1.95-8.01,4.99-16.37,11.67-21.2l1.95-1.47c5.05-.04,10.09.88,14.79,2.72Z" fill="#698cbd" stroke-width="0"/><path d="M86.2983,296.76c.03.12.06.23.09.35l-.42.47c.11-.28.22-.55.33-.82Z" fill="#698cbd" stroke-width="0"/><path d="M78.0183,254.61l-1.95,1.47c-6.68,4.83-9.72,13.19-11.67,21.2-1.95,8-3.29,16.43-7.86,23.29" fill="none" stroke="#000" stroke-linecap="round" stroke-linejoin="round" stroke-width="3"/><path d="M56.8483,300.67c4.82,0,9.52,1.44,14.31,1.94s10.1-.13,13.52-3.53l1.29-1.5.42-.47" fill="none" stroke="#000" stroke-linecap="round" stroke-linejoin="round" stroke-width="3"/><path d="M163.6883,247.77c-1.75-3.97-5.37-6.78-8.99-9.16-8.04-5.28-16.93-9.38-26.34-11.36-9.41-1.97-19.37-1.75-28.48,1.33" fill="none" stroke="#000" stroke-linecap="round" stroke-linejoin="round" stroke-width="3"/><path d="M99.7083,228.92c.03.01.07.01.1.02,6.02,1.16,11.81,3.55,16.9,6.97.38.25.74.51,1.11.77" fill="none" stroke="#000" stroke-linecap="round" stroke-linejoin="round" stroke-width="3"/><path d="M116.5683,236.12c-8.68.18-17.45.95-25.65,3.8s-15.84,7.95-20.43,15.32" fill="none" stroke="#000" stroke-linecap="round" stroke-linejoin="round" stroke-width="3"/><path d="M70.6683,255.37c2.42-.49,4.88-.74,7.35-.76,5.05-.04,10.09.88,14.79,2.72.3.12.61.24.91.37" fill="none" stroke="#000" stroke-linecap="round" stroke-linejoin="round" stroke-width="3"/><path d="M92.6383,258.14c-8.71,6.51-14.74,16.47-16.48,27.19" fill="none" stroke="#000" stroke-linecap="round" stroke-linejoin="round" stroke-width="3"/><path d="M76.3183,285.64c2.92-.87,5.71-2.05,8.41-3.42,6.75-3.44,12.97-8.1,19.41-12.18,3.61-2.29,7.33-4.4,11.14-6.34,14.71-7.48,30.77-12.32,47.17-14.17" fill="none" stroke="#000" stroke-linecap="round" stroke-linejoin="round" stroke-width="3"/><path d="M87.5883,303.74c-.36.03-.72.07-1.07.12-11.05,1.38-21.2,8.75-25.87,18.87" fill="none" stroke="#000" stroke-linecap="round" stroke-linejoin="round" stroke-width="3"/><path d="M175.6283,341.59c3.34-3.35,6.41-6.99,9.1-10.88.3-.44.6-.88.89-1.33.77-1.15,1.5-2.33,2.19-3.53,2.91-5.01,5.16-10.38,6.52-16.02.06-.21.11-.43.16-.64" fill="none" stroke="#000" stroke-linecap="round" stroke-linejoin="round" stroke-width="3"/><path d="M194.8983,309.28c-.19.19-.38.37-.57.55-1.83,1.77-3.84,3.37-5.98,4.74-.08.05-.17.11-.25.16" fill="none" stroke="#000" stroke-linecap="round" stroke-linejoin="round" stroke-width="3"/><path d="M188.1683,314.77c.06-.07.12-.13.18-.2,4.26-4.68,6.85-10.86,7.21-17.19" fill="none" stroke="#000" stroke-linecap="round" stroke-linejoin="round" stroke-width="3"/><path d="M195.3583,297.29c-3.01,4-6.58,7.56-10.59,10.55" fill="none" stroke="#000" stroke-linecap="round" stroke-linejoin="round" stroke-width="3"/><path d="M185.2883,299.13c-.77,2.65-1.71,5.25-2.8,7.78-.61,1.44-1.27,2.85-1.97,4.25" fill="none" stroke="#000" stroke-linecap="round" stroke-linejoin="round" stroke-width="3"/><path d="M163.6583,247.85c2.43.71,4.74,1.75,6.9,3.06" fill="none" stroke="#000" stroke-linecap="round" stroke-linejoin="round" stroke-width="3"/><path d="M88.4983,303.97c-.02,1.5,1.15,2.8,2.52,3.39,1.37.6,2.91.63,4.41.64h.29c3.36.05,6.76.04,10-.84" fill="none" stroke="#000" stroke-linecap="round" stroke-linejoin="round" stroke-width="3"/><path d="M106.1783,306.91c1.41,2.69,4.96,4.04,7.81,2.98,1.02-.38,2.16-1.02,3.1-.48.66.37.9,1.16,1.31,1.8,1,1.57,2.98,2.16,4.8,2.55,5.96,1.31,12.05,1.88,18.14,2.33,6.36.47,12.77.8,19.11.14,6.35-.66,12.67-2.36,18.1-5.72" fill="none" stroke="#000" stroke-linecap="round" stroke-linejoin="round" stroke-width="3"/><path d="M87.9683,315.4c-.35.05-.7.09-1.04.14-2.44.34-4.89.74-7.16,1.67-2.59,1.04-4.98,2.86-6.14,5.4-.01.01-.01.03-.02.04" fill="none" stroke="#000" stroke-linecap="round" stroke-linejoin="round" stroke-width="3"/><path d="M89.8983,336.29c.02-.02.05-.04.07-.06,3.51-2.65,7.01-5.31,10.52-7.97.91-.69,1.88-1.45,2.24-2.55.62-1.87-.78-3.8-2.29-5.08-3.21-2.73-7.35-4.36-11.56-4.56" fill="none" stroke="#000" stroke-linecap="round" stroke-linejoin="round" stroke-width="3"/><path d="M138.8283,306.11c-1.2-.9-2.48-1.7-3.83-2.37" fill="none" stroke="#000" stroke-linecap="round" stroke-linejoin="round" stroke-width="3"/><path d="M134.5583,303.46c2.91-1.74,5.93-3.29,9.04-4.66" fill="none" stroke="#000" stroke-linecap="round" stroke-linejoin="round" stroke-width="3"/><path d="M143.8383,298.53c2.35,2.33,4.53,4.84,6.5,7.49" fill="none" stroke="#000" stroke-linecap="round" stroke-linejoin="round" stroke-width="3"/><path d="M150.1683,306.32c-.11,2.02-.73,4.01-1.79,5.74" fill="none" stroke="#000" stroke-linecap="round" stroke-linejoin="round" stroke-width="3"/><path d="M148.4283,312.13c-5.1,1.76-10.5,2.66-15.9,2.65" fill="none" stroke="#000" stroke-linecap="round" stroke-linejoin="round" stroke-width="3"/><path d="M132.4983,314.87c-.59-.33-.88-.99-1.14-1.61-1.33-3.22-2.66-6.43-4-9.65" fill="none" stroke="#000" stroke-linecap="round" stroke-linejoin="round" stroke-width="3"/><path d="M127.4083,303.23c2.61-5.01,6.24-9.49,10.6-13.09" fill="none" stroke="#000" stroke-linecap="round" stroke-linejoin="round" stroke-width="3"/><path d="M138.1883,290.13c5.47.88,10.82,2.51,15.85,4.83" fill="none" stroke="#000" stroke-linecap="round" stroke-linejoin="round" stroke-width="3"/><path d="M154.3383,295.24c1.16,3.5,2.32,7,3.48,10.49" fill="none" stroke="#000" stroke-linecap="round" stroke-linejoin="round" stroke-width="3"/><path d="M97.5383,298.96c-.79-.67-1.45-1.5-1.92-2.42" fill="none" stroke="#000" stroke-linecap="round" stroke-linejoin="round" stroke-width="3"/><path d="M95.3183,296.32c-1.94.66-3.69,1.88-5,3.45-.02.01-.03.03-.04.04" fill="none" stroke="#000" stroke-linecap="round" stroke-linejoin="round" stroke-width="3"/><path d="M90.2783,299.69c.01.03.02.05.04.08,1.17,2.88,3.04,5.47,5.41,7.48" fill="none" stroke="#000" stroke-linecap="round" stroke-linejoin="round" stroke-width="3"/><path d="M96.0683,307.25c2.17-2.5,4.21-5.12,6.11-7.84" fill="none" stroke="#000" stroke-linecap="round" stroke-linejoin="round" stroke-width="3"/><path d="M102.3283,299.49c-.01-.04-.01-.07-.02-.11-.69-3.52-2.5-6.81-5.1-9.27" fill="none" stroke="#000" stroke-linecap="round" stroke-linejoin="round" stroke-width="3"/><path d="M96.5183,289.22c-.77-.41-1.56-.77-2.37-1.09-1.07-.41-2.17-.75-3.29-.99" fill="none" stroke="#000" stroke-linecap="round" stroke-linejoin="round" stroke-width="3"/><path d="M85.8083,297.99c.05-.14.11-.27.16-.41.11-.28.22-.55.33-.82,1.33-3.3,2.8-6.53,4.43-9.69" fill="none" stroke="#000" stroke-linecap="round" stroke-linejoin="round" stroke-width="3"/><path d="M155.5583,265.56c2.95-6.52,8.42-11.86,15-14.65.05-.03.1-.05.15-.07,6.64-2.78,14.35-2.94,21.11-.44,13.96,5.15,22.53,20.42,36.77,24.76l.04.02c-6.09,6.68-13.4,12.21-21.43,16.36-2.21,1.15-4.47,2.2-6.78,3.13-1.74.71-3.51,1.36-5.29,1.93-3.22,1.05-6.51,1.9-9.84,2.53-6.55,1.24-13.25,1.65-19.91,1.14" fill="none" stroke="#000" stroke-linecap="round" stroke-linejoin="round" stroke-width="3"/><path d="M196.1883,288.5c1.67-.04,3.33.95,4.09,2.45.58,1.14.61,2.53.14,3.72-.14.37-.33.72-.57,1.03" fill="none" stroke="#000" stroke-linecap="round" stroke-linejoin="round" stroke-width="3"/><path d="M203.7883,286.33c1.64-.12,3.29,1.04,3.72,2.63.23.86.1,1.79-.31,2.58-.33.67-.87,1.24-1.55,1.58" fill="none" stroke="#000" stroke-linecap="round" stroke-linejoin="round" stroke-width="3"/><path d="M84.9383,282.64c-.18,4.74.28,9.5,1.36,14.12.03.12.06.23.09.35.52,2.19,1.18,4.35,1.98,6.45" fill="none" stroke="#000" stroke-linecap="round" stroke-linejoin="round" stroke-width="3"/><path d="M61.9783,321.23c-.49.46-.89.99-1.2,1.57-.96,1.77-1.12,4-.61,5.98.68,2.64,2.36,4.9,4.22,6.88,1.83,1.94,3.87,3.7,5.57,5.74.04.04.07.07.1.11" fill="none" stroke="#000" stroke-linecap="round" stroke-linejoin="round" stroke-width="3"/><path d="M70.3983,341.02c10.8,6.82,21.62,13.65,33.03,19.38.25.12.49.25.74.37,2.05,1.01,4.11,1.99,6.2,2.92,5.1,2.29,10.31,4.31,15.63,5.95,2.48.77,4.98,1.45,7.5,2.04" fill="none" stroke="#000" stroke-linecap="round" stroke-linejoin="round" stroke-width="3"/><path d="M73.8083,322.7c-.41,1.13,0,2.42.75,3.36s1.79,1.59,2.8,2.23c4.18,2.61,8.35,5.21,12.52,7.82" fill="none" stroke="#000" stroke-linecap="round" stroke-linejoin="round" stroke-width="3"/><path d="M109.8283,361.83c.46-.98,1.17-1.85,2.03-2.51" fill="none" stroke="#000" stroke-linecap="round" stroke-linejoin="round" stroke-width="3"/><path d="M111.8683,359.27c.3.1.59.2.89.31,1.64.55,3.25,1.17,4.83,1.86" fill="none" stroke="#000" stroke-linecap="round" stroke-linejoin="round" stroke-width="3"/><path d="M117.6683,361.37c1.26-.25,2.3-1.12,3.35-1.86.66-.47,1.39-.91,2.16-1.12.46-.14.93-.2,1.41-.12.75.11,1.42.52,2.16.64,1.14.2,2.28-.27,3.33-.73,4.26-1.84,8.53-3.69,12.79-5.54" fill="none" stroke="#000" stroke-linecap="round" stroke-linejoin="round" stroke-width="3"/><path d="M185.4483,331.22c1.71,4.25,4.6,8,8.27,10.72" fill="none" stroke="#000" stroke-linecap="round" stroke-linejoin="round" stroke-width="3"/><path d="M187.8483,325.87c8.83,1.97,17.05,6.58,23.34,13.08" fill="none" stroke="#000" stroke-linecap="round" stroke-linejoin="round" stroke-width="3"/><path d="M296.7883,349.62h-.54" fill="none" stroke="#000" stroke-linecap="round" stroke-linejoin="round" stroke-width="3"/><path d="M211.2583,339.12c13.49,5.18,27.84,7.85,42.22,9.17,9.86.91,19.76,1.2,29.67,1.28" fill="none" stroke="#000" stroke-linecap="round" stroke-linejoin="round" stroke-width="3"/><path d="M167.9783,401.71c33.87,21.75,77.09,28.36,115.92,17.75l.66-.18" fill="none" stroke="#000" stroke-linecap="round" stroke-linejoin="round" stroke-width="3"/><path d="M306.1683,348c-.43-.25-.87-.51-1.32-.75-1.32-.69-2.7-1.27-4.17-1.33-.66-.02-1.33.1-1.96.34" fill="none" stroke="#000" stroke-linecap="round" stroke-linejoin="round" stroke-width="3"/><path d="M298.1583,420.11c7.85-9.85,12.87-21.93,14.31-34.44.07-.62.13-1.24.19-1.86" fill="none" stroke="#000" stroke-linecap="round" stroke-linejoin="round" stroke-width="3"/><path d="M297.8883,419.96c-.26.15-.52.29-.78.42-4.09,2.03-9.24,1.82-13.12-.6" fill="none" stroke="#000" stroke-linecap="round" stroke-linejoin="round" stroke-width="3"/><path d="M303.5283,376.54c-1.02,13.74-6.58,27.17-16.05,37.2" fill="none" stroke="#000" stroke-linecap="round" stroke-linejoin="round" stroke-width="3"/><path d="M300.8883,353.83c-.19-.57-.39-1.14-.59-1.71" fill="none" stroke="#000" stroke-linecap="round" stroke-linejoin="round" stroke-width="3"/><path d="M377.1983,359.23c-3.45-1.42-6.93-2.84-10.44-4.18" fill="none" stroke="#000" stroke-linecap="round" stroke-linejoin="round" stroke-width="3"/><path d="M377.3983,358.6c.05.03.1.07.15.09,9.43,6.22,19.96,10.75,30.95,13.34,1.61.38,3.23.72,4.86,1.01" fill="none" stroke="#000" stroke-linecap="round" stroke-linejoin="round" stroke-width="3"/><path d="M413.2683,372.83c.05.05.1.11.14.16.64.68,1.24,1.39,1.81,2.12,4.34,5.52,7.13,12.25,7.93,19.22.88,7.58-.61,15.42-4.18,22.17-.18.35-.37.69-.56,1.03" fill="none" stroke="#000" stroke-linecap="round" stroke-linejoin="round" stroke-width="3"/><path d="M296.3383,422.09c.04.02.09.03.13.05,8.21,3.16,18.63,1.7,27.06-.86,7.56-2.3,15.43-4.9,23.2-4.16.93.09,1.85.23,2.77.42" fill="none" stroke="#000" stroke-linecap="round" stroke-linejoin="round" stroke-width="3"/><path d="M349.5383,416.81c23.14-.44,46.29-.55,69.43-.31.27,0,.54.01.81.01" fill="none" stroke="#000" stroke-linecap="round" stroke-linejoin="round" stroke-width="3"/><path d="M384.6383,356.48c-4.6-2.3-9.34-4.31-14.19-6-.12-.04-.24-.08-.35-.12" fill="none" stroke="#000" stroke-linecap="round" stroke-linejoin="round" stroke-width="3"/><path d="M384.4983,356.77c8.2,4.33,17.18,7.2,26.38,8.43.09.02.17.03.26.04" fill="none" stroke="#000" stroke-linecap="round" stroke-linejoin="round" stroke-width="3"/><path d="M416.6083,375.1c5.76.38,11.5,1.19,17.14,2.42,4.9,1.07,9.73,2.45,14.45,4.14l-1.24,35.31c-8.89-.14-17.77-.28-26.65-.43" fill="none" stroke="#000" stroke-linecap="round" stroke-linejoin="round" stroke-width="3"/><path d="M408.3183,372.91c.06-.29.12-.59.18-.88.39-1.77.94-3.51,1.63-5.18.24-.56.49-1.11.75-1.65.13-.27.27-.54.41-.8" fill="none" stroke="#000" stroke-linecap="round" stroke-linejoin="round" stroke-width="3"/><path d="M412.8383,366.87c7.22,2.61,14.34,5.49,21.35,8.63" fill="none" stroke="#000" stroke-linecap="round" stroke-linejoin="round" stroke-width="3"/><path d="M370.1183,351.26v-.05" fill="none" stroke="#000" stroke-linecap="round" stroke-linejoin="round" stroke-width="3"/><path d="M339.8183,395.35c-.31-.07-.61-.13-.92-.21" fill="none" stroke="#000" stroke-linecap="round" stroke-linejoin="round" stroke-width="3"/><path d="M357.6583,390.42l-.06-.03" fill="none" stroke="#000" stroke-linecap="round" stroke-linejoin="round" stroke-width="3"/><path d="M370.1183,351.21c.13-.23.24-.48.33-.73.16-.36.28-.74.38-1.13" fill="none" stroke="#000" stroke-linecap="round" stroke-linejoin="round" stroke-width="3"/><path d="M357.7083,390.4c-.04,0-.07-.01-.11-.01" fill="none" stroke="#000" stroke-linecap="round" stroke-linejoin="round" stroke-width="3"/><path d="M354.4383,398.77c-.2-.11-.4-.23-.6-.35" fill="none" stroke="#000" stroke-linecap="round" stroke-linejoin="round" stroke-width="3"/><path d="M338.8983,395.14c-.38-.35-.74-.73-1.08-1.13" fill="none" stroke="#000" stroke-linecap="round" stroke-linejoin="round" stroke-width="3"/><path d="M355.0683,397.95c-.4.18-.81.34-1.23.47" fill="none" stroke="#000" stroke-linecap="round" stroke-linejoin="round" stroke-width="3"/><path d="M186.8783,330.22c4.92,2.06,9.02,6.02,11.25,10.87" fill="none" stroke="#000" stroke-linecap="round" stroke-linejoin="round" stroke-width="3"/><path d="M141.8983,368.4c.01-.02.02-.04.02-.06" fill="none" stroke="#000" stroke-linecap="round" stroke-linejoin="round" stroke-width="3"/><path d="M191.7083,387.71c3.51.44,7.16-.42,10.11-2.38,0,0,12.37-1.83,15.67-19.51,3.29-17.68-14.65-20.85-14.65-20.85-1.72-.79-3.49-1.46-5.3-2.02l.59-1.86c-2.23-4.85-6.33-8.81-11.25-10.87l-1.26-.84c.77-1.15,1.5-2.33,2.19-3.53l.04.02c8.83,1.97,17.05,6.58,23.34,13.08l.07.17c13.49,5.18,27.84,7.85,42.22,9.17,9.86.91,19.76,1.2,29.67,1.28,4.37.05,8.73.05,13.1.05v-.59c.19-1.31,1.22-2.29,2.47-2.77.63-.24,1.3-.36,1.96-.34,1.47.06,2.85.64,4.17,1.33-.2.28-.4.57-.59.86-1.24,1.84-2.4,3.73-3.37,5.72-.23.45-.44.91-.64,1.37-2.18,5-2.98,10.9-.71,15.86.95,2.08,2.37,3.87,3.99,5.48.93.95,1.93,1.82,2.94,2.66,1.99,1.64,4.05,3.18,6.19,4.61-.06.62-.12,1.24-.19,1.86-1.44,12.51-6.46,24.59-14.31,34.44l-.27-.15c-.26.15-.52.29-.78.42-4.09,2.03-9.24,1.82-13.12-.6l-.09-.32c-38.83,10.61-82.05,4-115.92-17.75l-.47-1.16v-.01c8.5-3.34,16.59-7.73,24.01-13.07l.19.24Z" fill="#000" stroke-width="0"/><path d="M193.7183,341.94c1.29.28,2.56.61,3.82,1.01,1.81.56,3.58,1.23,5.3,2.02,0,0,17.94,3.17,14.65,20.85-3.3,17.68-15.67,19.51-15.67,19.51-2.95,1.96-6.6,2.82-10.11,2.38l-.19-.24c-7.42,5.34-15.51,9.73-24.01,13.07v.01c-10.84,4.27-22.35,6.86-33.99,7.58l-2.88-.25c-5.44.43-10.81,1.79-15.8,4.01l-1.51-.28c.01-.11.02-.23.02-.35l-.24-.81c1.22-11.55-2.29-23.52-9.56-32.57l.13-.16c-.34-.24-.69-.46-1.05-.67.13-.03.26-.05.39-.08,5.89-1.15,20.01-3.21,30.48-5.29h.01c1.98.47,3.98.87,5.99,1.22-.07-.82-.22-1.62-.47-2.41,1.19-.28,2.28-.56,3.22-.84.62-.18,1.18-.36,1.67-.54-.66-.25-1.33-.51-1.99-.77.73-1.7,1.57-3.35,2.51-4.94l.45.26c11.09-6.1,21.82-13.09,30.74-22.07,5.97-1.07,12.16-.95,18.09.35Z" fill="#000" stroke-width="0"/><path d="M97.5483,375.27c.96.15,1.9.39,2.81.72l.01.01,2,1.1c.08-.02.17-.03.25-.05h.01c.36.21.71.43,1.05.67l-.13.16c7.27,9.05,10.78,21.02,9.56,32.57l.24.81c0,.12-.01.24-.02.35-.11.82-.59,1.57-1.22,2.11-.72.61-1.62.98-2.53,1.25-3.35,1.01-7.04.77-10.25-.62-.27-.12-.54-.25-.8-.38l.12-2.4c2.19-11.11-.79-23.12-7.91-31.92l-.25.08c-.36-.02-.73-.05-1.09-.07v-.01c0-.88,8.47-2.46,8.41-3.33l-1.08-1.15c.27.02.55.06.82.1Z" fill="#283131" stroke-width="0"/><path d="M99.3283,414.35l-.2.45c-8.32.67-17.45,1.15-26.71,1.33-4.74-9.03-6.45-19.62-4.79-29.69l-.2-.55c7.01-2.48,14.38-3.95,21.82-4.33l.19-1.36c-.01-.18-.03-.36-.04-.54.36.02.73.05,1.09.07l.25-.08c7.12,8.8,10.1,20.81,7.91,31.92l-.12,2.4c.26.13.53.26.8.38Z" fill="#698cbd" stroke-width="0"/><path d="M97.8083,376.32c.06.87-8.41,2.45-8.41,3.33-.07-.88-.13-1.75-.19-2.62l.66-.96c2.16-.86,4.53-1.15,6.86-.9l1.08,1.15Z" fill="#283131" stroke-width="0"/><path d="M47.6783,415.62c-4.2-2.42-9.94-5.28-14.47-.79l.18-1.98c.04-.39.07-.78.11-1.17l-2.42-.22c-1.58.52-3.19.96-4.82,1.32l-.08-.36c-1.82-3.05-2.7-6.66-2.46-10.2.12-1.8.61-3.74,2.06-4.8l-.22-.45c7-3.51,14.66-5.86,22.2-8.15l.04-.09c3.36,1.62,7.3,2.01,10.91,1.06l-.04-.17c1.55-.78,3.12-1.5,4.72-2.16,1.33-.56,2.68-1.09,4.04-1.57l.2.55c-1.66,10.07.05,20.66,4.79,29.69-8.13.17-16.38.11-24.29-.24-.15-.09-.3-.17-.45-.27Z" fill="#df5959" stroke-width="0"/><path d="M47.6783,415.62c-4.67,4.3-9.33,8.6-14.01,12.9l-.18.11c-1.21.02-2.41.04-3.62.07-.95.02-1.91.03-2.83-.19s-1.82-.71-2.33-1.51c-.57-.88-.59-2.03-.31-3.03.28-1.01.84-1.92,1.39-2.81l.76-.42c.79-1.54,2.18-2.67,3.48-3.82,1.3-1.14,2.6-2.43,3.09-4.09l.27.02-.18,1.98c4.53-4.49,10.27-1.63,14.47.79Z" fill="#698cbd" stroke-width="0"/><path d="M16.3383,403.06l-.15-.27c2.92-2.27,6.07-4.17,9.37-5.82l.22.45c-1.45,1.06-1.94,3-2.06,4.8-.24,3.54.64,7.15,2.46,10.2l.08.36c-5.92,1.33-12.08,1.63-18.1.88l-.06-.25-1.41-3.33c-.16-.38-.32-.8-.19-1.19.13-.4.53-.64.9-.85l8.94-4.98Z" fill="#698cbd" stroke-width="0"/><path d="M65.6983,377.64c3.3-6.43,9.06-11.56,15.84-14.09l-.06-.07h10.05c7.57-.62,5.13-1.52,12.63-2.69,0,0,0-.01.01-.02,2.05,1.01,4.11,1.99,6.2,2.92l-7.74,13.36h-.01c-.45-.26-.92-.5-1.4-.7l-.18-.09-2.12-1.06c-.71-.53-1.38-.93-2.13-1.24-.51-.22-1.08-.4-1.73-.58,0,0-.01-.01-.03-.01-.45-.12-.94-.24-1.5-.36l-3.33.02c-1.75-.67-4.9.21-6.64-.01l-.01.06c-6.07.89-12.04,2.44-17.78,4.59l-.07-.03Z" fill="#000" stroke-width="0"/><path d="M125.9983,369.64c.05.51.06.8.06.8-7.51,2.74-15.2,4.93-23.04,6.53-.13.03-.26.05-.39.08l7.74-13.36c5.1,2.29,10.31,4.31,15.63,5.95Z" fill="#000" stroke-width="0"/><path d="M102.6183,377.05c-.08.02-.17.03-.25.05l-2-1.1c.23.08.45.17.67.26l.18.09,1.4.7Z" fill="#000" stroke-width="0"/><path d="M102.6183,377.05l-1.4-.7c.48.2.95.44,1.4.7Z" fill="#283131" stroke-width="0"/><path d="M98.9183,375.2l2.12,1.06c-.22-.09-.44-.18-.67-.26l-.01-.01-1.44-.79Z" fill="#000" stroke-width="0"/><path d="M65.6383,377.96l-.07-.07.2-.22c5.74-2.15,11.71-3.7,17.78-4.59l6.65-.05c.2.08.38.17.54.29l4.29.05c.02,0,.03.01.03.01l1.67,1.79c-2.33-.25-4.7.04-6.86.9l-.66.96c.06.87.12,1.74.19,2.62v.01c-4.53-.29-9.09-.53-13.58.1-3.93.55-7.86,1.82-11.11,4.07l-1.38-1.49c.23-1.68,1.07-3.26,2.31-4.38Z" fill="#283131" stroke-width="0"/><path d="M90.1983,373.03l-6.65.05.01-.06c1.74.22,4.89-.66,6.64.01Z" fill="#000" stroke-width="0"/><path d="M89.3983,379.66c.01.18.03.36.04.54l-.19,1.36c-7.44.38-14.81,1.85-21.82,4.33-1.36.48-2.71,1.01-4.04,1.57l-.81-1.91c.67-.63,1.38-1.2,2.13-1.72,3.25-2.25,7.18-3.52,11.11-4.07,4.49-.63,9.05-.39,13.58-.1Z" fill="#df5959" stroke-width="0"/><path d="M65.7683,377.67l-.2.22c.04-.08.09-.17.13-.25l.07.03Z" fill="#000" stroke-width="0"/><path d="M63.3283,382.34c.23-1.68,1.07-3.26,2.31-4.38.06-.07.12-.12.18-.17" fill="none" stroke="#000" stroke-linecap="round" stroke-linejoin="round" stroke-width="3"/><path d="M62.5783,385.55c.67-.63,1.38-1.2,2.13-1.72,3.25-2.25,7.18-3.52,11.11-4.07,4.49-.63,9.05-.39,13.58-.1" fill="none" stroke="#000" stroke-linecap="round" stroke-linejoin="round" stroke-width="3"/><path d="M98.9183,375.2c-.71-.53-1.38-.93-2.13-1.24-.51-.22-1.08-.4-1.73-.58,0,0-.01-.01-.03-.01-.45-.12-.94-.24-1.5-.36l-3.33.02-6.65.05c-6.07.89-12.04,2.44-17.78,4.59" fill="none" stroke="#000" stroke-linecap="round" stroke-linejoin="round" stroke-width="3"/><path d="M125.9983,369.64c.05.51.06.8.06.8-7.51,2.74-15.2,4.93-23.04,6.53" fill="none" stroke="#000" stroke-linecap="round" stroke-linejoin="round" stroke-width="3"/><path d="M65.5683,377.89c.04-.08.09-.17.13-.25,3.3-6.43,9.06-11.56,15.84-14.09l-.06-.07h10.05c7.57-.62,5.13-1.52,12.63-2.69,0,0,0-.01.01-.02" fill="none" stroke="#000" stroke-linecap="round" stroke-linejoin="round" stroke-width="3"/><path d="M89.6583,366.53c2.86,1.94,5.3,4.5,7.13,7.43.26.43.52.86.76,1.31" fill="none" stroke="#000" stroke-linecap="round" stroke-linejoin="round" stroke-width="3"/><path d="M139.0283,370.49c-.43-1.47-1.15-2.86-2.1-4.07,1.66.64,3.33,1.28,4.99,1.92" fill="none" stroke="#000" stroke-linecap="round" stroke-linejoin="round" stroke-width="3"/><path d="M98.5283,413.97c.26.13.53.26.8.38,3.21,1.39,6.9,1.63,10.25.62.91-.27,1.81-.64,2.53-1.25.63-.54,1.11-1.29,1.22-2.11.01-.11.02-.23.02-.35" fill="none" stroke="#000" stroke-linecap="round" stroke-linejoin="round" stroke-width="3"/><path d="M130.6383,407.88c-5.44.43-10.81,1.79-15.8,4.01" fill="none" stroke="#000" stroke-linecap="round" stroke-linejoin="round" stroke-width="3"/><path d="M103.5483,377.88c7.27,9.05,10.78,21.02,9.56,32.57" fill="none" stroke="#000" stroke-linecap="round" stroke-linejoin="round" stroke-width="3"/><path d="M144.4383,363.4c5.21-8.82,13.43-15.86,23-19.54,2.65-1.02,5.4-1.78,8.19-2.27,5.97-1.07,12.16-.95,18.09.35,1.29.28,2.56.61,3.82,1.01,1.81.56,3.58,1.23,5.3,2.02,0,0,17.94,3.17,14.65,20.85-3.3,17.68-15.67,19.51-15.67,19.51-2.95,1.96-6.6,2.82-10.11,2.38" fill="none" stroke="#000" stroke-linecap="round" stroke-linejoin="round" stroke-width="3"/><path d="M141.9183,368.34c0,.01.01,0,.01,0,.73-1.7,1.57-3.35,2.51-4.94" fill="none" stroke="#000" stroke-linecap="round" stroke-linejoin="round" stroke-width="3"/><path d="M89.2083,377.03c.06.87.12,1.74.19,2.62v.01c.01.18.03.36.04.54" fill="none" stroke="#000" stroke-linecap="round" stroke-linejoin="round" stroke-width="3"/><path d="M102.6283,377.05c.36.21.71.43,1.05.67" fill="none" stroke="#000" stroke-linecap="round" stroke-linejoin="round" stroke-width="3"/><path d="M101.2183,376.35c.48.2.95.44,1.4.7" fill="none" stroke="#000" stroke-linecap="round" stroke-linejoin="round" stroke-width="3"/><path d="M89.8683,376.07c2.16-.86,4.53-1.15,6.86-.9.27.02.55.06.82.1.96.15,1.9.39,2.81.72" fill="none" stroke="#000" stroke-linecap="round" stroke-linejoin="round" stroke-width="3"/><path d="M98.6483,411.57c2.19-11.11-.79-23.12-7.91-31.92" fill="none" stroke="#000" stroke-linecap="round" stroke-linejoin="round" stroke-width="3"/><path d="M33.7683,408.69c-.09,1-.18,1.99-.27,2.99-.04.39-.07.78-.11,1.17l-.18,1.98c4.53-4.49,10.27-1.63,14.47.79.15.1.3.18.45.27,7.91.35,16.16.41,24.29.24,9.26-.18,18.39-.66,26.71-1.33" fill="none" stroke="#000" stroke-linecap="round" stroke-linejoin="round" stroke-width="3"/><path d="M89.2483,381.56c-7.44.38-14.81,1.85-21.82,4.33-1.36.48-2.71,1.01-4.04,1.57-1.6.66-3.17,1.38-4.72,2.16" fill="none" stroke="#000" stroke-linecap="round" stroke-linejoin="round" stroke-width="3"/><path d="M58.7083,389.79c-3.61.95-7.55.56-10.91-1.06-.01-.01-.03-.01-.04-.02" fill="none" stroke="#000" stroke-linecap="round" stroke-linejoin="round" stroke-width="3"/><path d="M47.7583,388.82c-7.54,2.29-15.2,4.64-22.2,8.15-3.3,1.65-6.45,3.55-9.37,5.82" fill="none" stroke="#000" stroke-linecap="round" stroke-linejoin="round" stroke-width="3"/><path d="M16.3783,403.04c-.01.01-.03.01-.04.02l-8.94,4.98c-.37.21-.77.45-.9.85-.13.39.03.81.19,1.19l1.41,3.33" fill="none" stroke="#000" stroke-linecap="round" stroke-linejoin="round" stroke-width="3"/><path d="M8.1583,413.66c6.02.75,12.18.45,18.1-.88,1.63-.36,3.24-.8,4.82-1.32" fill="none" stroke="#000" stroke-linecap="round" stroke-linejoin="round" stroke-width="3"/><path d="M33.1183,412.83c-.49,1.66-1.79,2.95-3.09,4.09-1.3,1.15-2.69,2.28-3.48,3.82" fill="none" stroke="#000" stroke-linecap="round" stroke-linejoin="round" stroke-width="3"/><path d="M25.7883,421.16c-.55.89-1.11,1.8-1.39,2.81-.28,1-.26,2.15.31,3.03.51.8,1.41,1.29,2.33,1.51s1.88.21,2.83.19c1.21-.03,2.41-.05,3.62-.07" fill="none" stroke="#000" stroke-linecap="round" stroke-linejoin="round" stroke-width="3"/><path d="M33.6683,428.52c4.68-4.3,9.34-8.6,14.01-12.9.7-.65,1.41-1.29,2.11-1.94" fill="none" stroke="#000" stroke-linecap="round" stroke-linejoin="round" stroke-width="3"/><path d="M67.6283,386.44c-1.66,10.07.05,20.66,4.79,29.69.07.15.15.29.23.44" fill="none" stroke="#000" stroke-linecap="round" stroke-linejoin="round" stroke-width="3"/><path d="M25.7783,397.42c-1.45,1.06-1.94,3-2.06,4.8-.24,3.54.64,7.15,2.46,10.2" fill="none" stroke="#000" stroke-linecap="round" stroke-linejoin="round" stroke-width="3"/><path d="M102.6183,377.05c-.08.02-.17.03-.25.05l-2-1.1-.01-.01-1.44-.79" fill="none" stroke="#000" stroke-linecap="round" stroke-linejoin="round" stroke-width="3"/><polyline points="101.0383 376.26 101.2183 376.35 102.6183 377.05" fill="none" stroke="#000" stroke-linecap="round" stroke-linejoin="round" stroke-width="3"/><path d="M143.9183,369.11c-.49.18-1.05.36-1.67.54-.94.28-2.03.56-3.22.84-1.65.39-3.52.79-5.52,1.19h-.01c-10.47,2.08-24.59,4.14-30.48,5.29-.13.03-.26.05-.39.08" fill="none" stroke="#000" stroke-linecap="round" stroke-linejoin="round" stroke-width="3"/><path d="M191.5183,387.47c-7.42,5.34-15.51,9.73-24.01,13.07v.01c-10.84,4.27-22.35,6.86-33.99,7.58-.67.04-1.34.07-2.01.1" fill="none" stroke="#000" stroke-linecap="round" stroke-linejoin="round" stroke-width="3"/><g clip-path="url(#uuid-defdb92f-56ee-42ce-ba2d-651650ef5399)"><path d="M143.5983,383.5223c.241.0461.6172.1886,1.1286.4276,1.0253.4795,2.2118,1.203,3.5595,2.1704,3.2387,2.3221,6.9392,5.694,11.1015,10.1158-.3118-.0276-.6409-.0827-.9872-.1655-2.3372-.5525-4.9854-2.2009-7.9447-4.9454.1122.385.3237.8865.6346,1.5046.6238,1.2394,1.4351,2.4474,2.4339,3.6241,1.3982,1.6462,3.0742,3.1116,5.0281,4.3963,2.4233,1.5957,5.207,2.8659,8.3512,3.8103,2.6509,2.6874,5.2823,4.9183,7.8943,6.6925,2.9984,2.0367,5.9022,3.4309,8.7113,4.1825.3407.0904.6773.1698,1.0097.2383l.9842.1887,1.124.1431c.3726.0399.7367.0632,1.0923.0701.9902.0187,1.887-.0736,2.6904-.2769.2563-.0577.4987-.125.7274-.202.4089-.138.7005-.2757.8747-.413l-.0038-.0024c.0071-.0029.0145-.0066.0221-.0111,1.1974-.6556,2.0049-1.6249,2.4225-2.9081.1441-.4426.2375-.9098.2803-1.4014.0042.025.0087.0492.0134.0726l.0164-.3773c.0015-.1087.0009-.2207-.0018-.3357-.0019-.7522-.1135-1.556-.3348-2.4113-.0635-.2502-.1358-.5021-.2167-.7558-.1329-.4445-.2904-.8943-.4723-1.3492-.7227-1.826-1.784-3.6072-3.1837-5.3436-1.7468-2.1672-3.9721-4.2005-6.676-6.0997-.2386-.1673-.4756-.3298-.7111-.4877l-.7156-.4738c-.1597-.1063-.3202-.2104-.4814-.3121-.584-.3666-1.1798-.7155-1.7876-1.0469l-.003.0093c-1.1817-.6433-2.3553-1.1932-3.5208-1.6496-.9492-.3721-1.9664-.7108-3.0515-1.0161-.681-.1917-1.6329-.4325-2.8556-.7224-1.2738-.3036-2.205-.5369-2.7935-.7-1.0416-.2872-1.9964-.5996-2.8644-.9371-2.1683-.8438-4.3192-2.0585-6.4527-3.6443.054.3743.2058.8604.4553,1.4584.5021,1.1961,1.2466,2.3536,2.2334,3.4725,1.3784,1.5649,3.1409,2.9399,5.2876,4.125,2.6828,1.4806,5.8941,2.6217,9.6339,3.4233,1.1623.2481,2.2785.5433,3.3484.8856.3893.2066.7825.4342,1.1797.6829,1.1567.7297,2.2196,1.563,3.1886,2.4996.9367.9033,1.7219,1.8411,2.3554,2.8134.6341.9707,1.0659,1.8994,1.2955,2.786.2405.9195.2473,1.7278.0204,2.4249s-.6679,1.2229-1.3231,1.5773c-.6302.3441-1.4165.5043-2.3588.4805-.9428-.0222-1.9669-.2259-3.0723-.611-1.1447-.3969-2.2955-.9602-3.4521-1.6899-.6669-.4245-1.3016-.8816-1.9041-1.3714l-.0083.0254c-2.6475-2.3284-5.0112-4.9694-7.0912-7.9231-3.1032-4.4061-6.2679-7.9363-9.4941-10.5907-2.6523-2.1808-5.2558-3.7016-7.8104-4.5622-2.0098-.6768-3.8002-.9001-5.3712-.6699-.6162.0927-1.1248.2478-1.5256.4652-.3673.1996-.5771.413-.6294.6402Z" fill="#7bc85e" stroke-width="0"/></g><path d="M255.1927,66.1322c-61.822,0-111.9385,31.6035-111.9385,70.5883,0,24.5256,19.8385,46.1265,49.9444,58.7784l-5.8584,27.3374,24.0761-21.1313c13.4471,3.6068,28.2416,5.6037,43.7764,5.6037,61.8219,0,111.9385-31.6034,111.9385-70.5882s-50.1166-70.5883-111.9385-70.5883Z" fill="#fff" stroke="#000" stroke-miterlimit="10" stroke-width="5"/><path d="M293.3665,415.7353s-2.9741,1.1765-2.4282,7.2941,35.84,9.5294,46.3106-12.5882,10.5882-18.8235,5.5294-21.6471-7.5294-3.7647-10.1176,3.6471-11.8465,26.6373-30.2174,28.0245-6.3709-5.3187-9.0768-4.7304Z" fill="#7bc85e" stroke="#000" stroke-miterlimit="10" stroke-width="3"/><path d="M338.8983,395.14c-9.35-2.11-18.29-5.98-26.24-11.33-2.14-1.43-4.2-2.97-6.19-4.61-1.01-.84-2.01-1.71-2.94-2.66-1.62-1.61-3.04-3.4-3.99-5.48-2.27-4.96-1.47-10.86.71-15.86.2-.46.41-.92.64-1.37.97-1.99,2.13-3.88,3.37-5.72.19-.29.39-.58.59-.86,1.35-1.96,2.77-3.88,4.15-5.82,1.77-2.5,3.48-5.11,4.82-7.86l-1.42-.1c-1.5,1.55-3.48,2.53-5.44,3.45-1.95.91-3.96,1.81-5.58,3.23-1.63,1.42-2.84,3.49-2.67,5.64l.01.47c-1.25.48-2.28,1.46-2.47,2.77v.59c-4.37,0-8.73,0-13.1-.05l.01-.65c-.03-8.33,4.13-16.36,10.25-22,6.13-5.64,14.07-9.05,22.22-10.76,12.12-2.55,25.29-1.39,35.99,4.83,10.45,6.07,18.12,17.32,18.48,29.37.01.28.02.57.02.85-.77,1.5-1.97,2.77-3.36,3.84-1.22.94-2.58,1.73-3.96,2.38-3.55,1.68-7.43,2.85-10.43,5.4-4.22,3.59-6.01,9.66-4.82,15.08,1.19,5.39,5.11,10.01,10.05,12.48-5.15-.56-10.19-2.21-14.69-4.79l-.06.04c2.12,5.31,6.06,9.88,10.99,12.78-5.07,1.7-11.05.38-14.94-3.28Z" fill="#698cbd" stroke-width="0"/><path d="M312.3983,333.47l1.42.1c-1.34,2.75-3.05,5.36-4.82,7.86-1.38,1.94-2.8,3.86-4.15,5.82-1.32-.69-2.7-1.27-4.17-1.33-.66-.02-1.33.1-1.96.34l-.01-.47c-.17-2.15,1.04-4.22,2.67-5.64,1.62-1.42,3.63-2.32,5.58-3.23,1.96-.92,3.94-1.9,5.44-3.45Z" fill="#d3e1f6" stroke-width="0"/><path d="M370.1183,351.21c-.77,1.5-1.97,2.77-3.36,3.84-1.22.94-2.58,1.73-3.96,2.38-3.55,1.68-7.43,2.85-10.43,5.4-4.22,3.59-6.01,9.66-4.82,15.08,1.19,5.39,5.11,10.01,10.05,12.48-5.15-.56-10.19-2.21-14.69-4.79l-.06.04c2.12,5.31,6.06,9.88,10.99,12.78-5.07,1.7-11.05.38-14.94-3.28-9.35-2.11-18.29-5.98-26.24-11.33-2.14-1.43-4.2-2.97-6.19-4.61-1.01-.84-2.01-1.71-2.94-2.66-1.62-1.61-3.04-3.4-3.99-5.48-2.27-4.96-1.47-10.86.71-15.86.2-.46.41-.92.64-1.37.97-1.99,2.13-3.88,3.37-5.72.19-.29.39-.58.59-.86,1.35-1.96,2.77-3.88,4.15-5.82,1.77-2.5,3.48-5.11,4.82-7.86l-1.42-.1c-1.5,1.55-3.48,2.53-5.44,3.45-1.95.91-3.96,1.81-5.58,3.23-1.63,1.42-2.84,3.49-2.67,5.64l.01.47c-1.25.48-2.28,1.46-2.47,2.77v.59c-4.37,0-8.73,0-13.1-.05l.01-.65c-.03-8.33,4.13-16.36,10.25-22,6.13-5.64,14.07-9.05,22.22-10.76,12.12-2.55,25.29-1.39,35.99,4.83,10.45,6.07,18.12,17.32,18.48,29.37.01.28.02.57.02.85Z" fill="none" stroke="#000" stroke-linecap="round" stroke-linejoin="round" stroke-width="3"/><path d="M316.1183,326.85c-.44,2.34-1.26,4.57-2.3,6.72" fill="none" stroke="#000" stroke-linecap="round" stroke-linejoin="round" stroke-width="3"/><path d="M153.5241,285.2831c-5.2427-2.7311-10.1423-6.1836-14.5178-10.2499-.6084-.5633-.6449-1.5131-.0816-2.1215.5892-.6425,1.6198-.6397,2.2068.004,3.8599,4.1993,8.3095,7.9009,13.1978,10.958.8644.5387.103,1.8811-.8052,1.4093h0Z" fill="#000" stroke-width="0"/></svg>