<svg xmlns="http://www.w3.org/2000/svg" xmlns:xlink="http://www.w3.org/1999/xlink" preserveAspectRatio="none" width="209" height="423" xmlns:v="https://vecta.io/nano"><defs><path fill="#0e1111" stroke="none" d="M130.1 219.8q.507-.465.05-.1-.05.05-.05.1m14.7-7.4q0 .25 0 .5 0 4.8-4.9 4.8-1.1 0-2.35-2.45-2.45.95-3.25 1.5-1.8 1.2-4.3 3.15-2.173 2.375-3.25 3.5-2 2.1-4.65 2.25-3.1.2-5.65 1.1-.7.25-1.35.55-1.5.65-2.8 1.6-2.65 2.5-4.1 3.6-2.45 2-5.3 2-.75 0-3.4-2.3-3.05-2.65-3.15-2.7-2.85-.8-4.45-1.25-.75-.2-1.3-.5l-.75 1.85q.95 6.55.95 8.9 0 6.1-1.2 9.7l.5 1.4q4.6 4.5 10.25 6.1 3.45.95 12.35 3 4.85 1.55 12.15 2.05 4.7.35 13.6.35 7.75 0 15-2.85 2.35-1 4.7-2.25 8.2-4.5 13.7-11.75l.4-.55q1.25-.35 1.9-.7.05-.05.2-.05l-.3-2.05q-.8-8-2.45-17.3-1.55-8.5-3.3-15.4l-.65-1.5q-.6.25-1.25.45-.5.2-1.05.35-.05 0-.1 0-1.75.45-3.7.7-1.9.2-5.8.35-1.85.65-3.55 1.2-.2.1-.4.15-.25.05-.45.15-.25.1-.45.2-3.4 1.15-6.1 2.15z" id="A"/><path fill="#26dda2" stroke="none" d="M1372.15 641.65q-19.75 24.85-49.9 56.2-60.3 62.65-112.2 95.15-3.05-23.45-13.25-60.85-20.4-74.9-56.1-144.9-50-98-123.45-172.25-91.8-92.8-215.2-143l10.3 12.95q12.85 16.75 25.85 35.5 41.6 60 68.75 117.8 37.95 80.95 41.5 145.95 4.45 81.25-45.4 132.8-12.35-18.6-31.55-45.6-38.35-53.9-72.3-95.5-47.6-58.3-79.65-83.75-40.1-31.8-53.5-10.15l7.85 12.1q9.85 15.7 19.7 33.7 31.55 57.65 51.8 117 28.3 83.1 29.85 157.6 2 93.2-38.2 167.6-83.85 155.35-81.85 269.15 1.65 91 57.85 151.35 40.15 43.15 103.6 66.65 31.7 11.75 55.4 14.85Q804 1368.85 786 1243.4q-14.35-100.35 3.8-210.4 12.95-78.6 40.9-154.15 8.75-23.65 17.9-44.1l7.45-15.75 11.9 13.95q14.65 16.75 28.35 30.95 43.75 45.35 61.25 47.85 6.05-4.15 14.8-13.5 17.45-18.6 30.85-44.25 42.75-82.1 28.35-204l4.05 8.3q5.1 10.7 10.45 23.15 17.1 39.65 30 80.7 41.25 131.2 25 226.85l5.15.05q6.65-.2 14.3-1.4 24.35-3.85 49.05-16.25 34.55-17.4 64.8-49.5 37.85-40.05 66.7-100.9l.65 17.25q.3 22.3-1.2 47.45-4.8 80.55-26.2 159.7-29.95 110.75-88.85 202.95-73.6 115.25-188.4 194.65l25.05-11.5q31.6-15.45 64.15-35.05 104.3-62.85 179.9-144.35Q1372 1138 1405.3 1002.85q41.6-168.9-33.15-361.2z" id="B"/><path fill="#26dda2" stroke="none" d="M935.3 1256.25q-24.45-12.55-43.8-37.65-6-7.85-10.85-16l-3.6-6.6q-24.35 48.15-.75 109.9 7.35 19.25 18.65 37.6 5.65 9.2 9.8 14.5 43.4 16.25 85.8-5.35 33.9-17.3 65.55-57.9 22.65-29.05 41.9-66.8 6.05-11.8 11-23.05l3.75-8.9q-54.65 55.2-103.9 67.75-39.4 10.05-73.55-7.5z" id="C"/><g id="D" stroke="none"><path fill="#4b9c7e" d="M146.3 396.35q-.25-.05-.5-.05h-.05q-1.75-.2-2.65-.2-5.25 0-8.85 1.4-3.95 1.5-6.65 4.95l-.3.55q1.45.9 4.9 3.6 1.8-.1 3.2-.3 1.95-.25 7.8-1.3 3.85-.65 7.75-3.1l.7-.4q-4.65-5.1-5.35-5.15m50.7-2.6q-.15-.45-.55-1.25l-3.1.05q-5.25-.6-9.7.2-5.55.95-8.75 4 2 1.1 3.5 2.45.45.45 1.45 2.25 6.65-.1 9.45-.6 7.75-1.35 7.75-6 0-.85-.05-1.1m-47.15-12.4l-.1.8q4.45 4.45 5.8 5.6 1.55 1.35 3.25 2.45.45.3.95.6.05 0 .1.05.65.4 1.35.75.75.4 1.5.75.85.4 2.15.85l.55-1.4q1.2-3.4 4.2-4.75 2.3-1.05 6.2-1.05 1.8 0 2.1.05.2.05.45.1-.6-1.4-.6-3.25 0-.45.1-1.05.05-.35.1-.7l-.1-.5q-1.45.45-3 .8-8.55 1.8-21.9.25-1.9-.2-3.1-.35m-33.5 4.35q-9-1.1-14.7-2.45-3.85-.9-6.15-1.9l5.85 3.2q4.3 7.75 13.45 12.3.9.45 2.15 1.05l.6-1.2q.2-4.25 3.5-5.25.75-.2 3.3-.3 1.45-.05 3.5-.05 3.4 0 4.35.05 1.45.1 2.3.4-.7-.55-1.25-1.2-2-2.25-2.95-5.85l-1.35-.9q-1.55 2.35-3.7 2.75-.3.05-1 .05-1 0-2.75-.15-2.05-.2-5.15-.55z"/><path fill="#5fb696" d="M196.45 392.5q.4.8.55 1.25.05.25.05 1.1 0 4.65-7.75 6-2.8.5-9.45.6-.25-.05-.45 0-.05 0-.1 0-1.4 0-2.95 0-4.45 0-11.75-.6-2.3-.2-4.9-.45-.05-.05-.1 0l-.35.1-.65 9.8q9.05 1.75 9.85 1.8 1.15.15 8.3.15v-.2q.146.195.4.2-.206 0-.4 0 0 .7 5.7.25 5.95-.5 11.5-1.8 2.3-.55 4.7-4.3 2.45-3.75 2.45-6.8 0-.65-.2-1.85-1.15-3.6-4.45-5.25M78 375.9q-.15.1-.2.25l-1.4 4.65-.5 1.55q-.45 2.3-.5 2.95-.05.3-.05 1.95 0 3.75 3.45 8.05 3 3.7 6 5.2 3 1.45 5.95 5.4 1.75 2.25 4.85 7.15 2.75 4.1 5.55 5.6 3.15 1.7 9.5 1.9 2.8.1 10.1.65 6.4.5 10.55.5 10.25 0 14.6-1.9 2.45-1.05 11.45-7.9l.35-5.05q0-3.4-.75-5.8-.15-.45-.3-.85l-2.25-.8q-1.4 1.15-2.75 2.1l-.7.4q-3.9 2.45-7.75 3.1-5.85 1.05-7.8 1.3-1.4.2-3.2.3-1.8.1-3.95.1-9.05 0-17.9-1.35-10.8-1.6-14.2-4.4-8-5.6-11.5-8.75-5.15-4.6-6.9-10.45-.3-1-.5-2.05l.75-3.8z"/><path fill="#135332" d="M165.4 391.8q1 .35 1.85.35 2.8 0 7.8-1.5 2.55-.75 5.5-1.95-1.5-.95-2.2-2.55-.25-.05-.45-.1-.3-.05-2.1-.05-3.9 0-6.2 1.05-3 1.35-4.2 4.75m-37.55-.7q-2.05 0-3.5.05-2.55.1-3.3.3-3.3 1-3.5 5.25l-.6 1.2h.05q.4.2.9.45l.8-1.65q4.65-.25 9.45-1.6 4.55-1.3 6.8-1.8l-.45-1.75q-.85-.3-2.3-.4-.95-.05-4.35-.05z"/><path fill="#091813" d="M167.25 392.15q-.85 0-1.85-.35l-.55 1.4.05.05.4.1q2.25.75 5.7 1.7 2.15.75 3.9 1.7 3.2-3.05 8.75-4 4.45-.8 9.7-.2l3.1-.05q-.15-.1-.25-.15-.25-.1-.5-.2-.8-.35-2.05-.6l-.05-.05h-.05q-2.15-.5-5.65-.9-5.1-.6-7.05-1.7-.15-.1-.3-.2-2.95 1.2-5.5 1.95-5 1.5-7.8 1.5m-30.45.85q-.2-.1-.4-.2-.65.35-1.45.5-2.25.5-6.8 1.8-4.8 1.35-9.45 1.6l-.8 1.65q1.9.85 4.55 2.05 2.7 1.3 4.85 2.6l.3-.55q2.7-3.45 6.65-4.95 3.6-1.4 8.85-1.4.9 0 2.65.2h.05l.15-1.6q-6.6-.55-9.15-1.7z"/><path fill="#1f6d4f" d="M146.5 394.75h-.05q-.25-.05-.5-.05l-.15 1.6q.25 0 .5.05.7.05 5.35 5.15 1.35-.95 2.75-2.1l2.25.8q-.05-.1-.1-.2v-.05q-.35-.75-.75-1.35l-.05-.05-.15-.25q-.65-.85-1.45-1.45-2.2-1.6-7.65-2.1m-15.6-18.55q-.1.6-.45 1.95-.8 2.65-.85 3.05l.2.9q.15-.3.3-.6.1-.3.2-.6-.1.3-.2.6-.15.3-.3.6-.4.8-.85 1.5l1.35.9q.95 3.6 2.95 5.85.55.65 1.25 1.2.35.3.75.6.55.35 1.15.65.2.1.4.2 2.55 1.15 9.15 1.7.25 0 .5.05h.05q5.45.5 7.65 2.1.8.6 1.45 1.45l.15.25.05.05q.4.6.75 1.35v.05q.05.1.1.2 1.4.05 2.6.15.15 0 .35.05.05-.05.1 0 2.6.25 4.9.45 7.3.6 11.75.6 1.55 0 2.95 0 .05 0 .1 0 .2-.05.45 0-1-1.8-1.45-2.25-1.5-1.35-3.5-2.45-1.75-.95-3.9-1.7-3.45-.95-5.7-1.7l-.4-.1-.05-.05q-1.3-.45-2.15-.85-.75-.35-1.5-.75-.7-.35-1.35-.75-.05-.05-.1-.05-.5-.3-.95-.6-1.7-1.1-3.25-2.45-1.35-1.15-5.8-5.6l.1-.8q-1.6-.2-2.05-.3-3.35-.6-5.1-1.75-5-2.45-7.25-4.1-3.95-2.95-5.4-3.95.45 2.5.85 4.95m-52.25-1.1q1.5-.5 1.9-2.05-.65.6-1.4 1.45-.25.3-.5.6m-.05 0q-.35.4-.6.8l-.75 3.8q.2 1.05.5 2.05 1.75 5.85 6.9 10.45 3.5 3.15 11.5 8.75 3.4 2.8 14.2 4.4 8.85 1.35 17.9 1.35 2.15 0 3.95-.1-3.45-2.7-4.9-3.6-2.15-1.3-4.85-2.6-2.65-1.2-4.55-2.05-.5-.25-.9-.45h-.05q-1.25-.6-2.15-1.05-9.15-4.55-13.45-12.3l-5.85-3.2q-.8-.4-1.45-.75-.25-.15-.45-.3-.15-.1-.25-.15-.9-.55-3.1-1.35-2.65-.95-.3-1.75h-.05q-3.25-1.35-3.75-2.9-.25-.75-.5-1.3-.85-1.65-2.05-1.65-1.1 0-3.05 1.85-.4 1.55-1.9 2.05h-.05z"/><path fill="#144f4e" d="M89.05 314.6l-1.2-1.2q-.05.5-.05 1.1-.15 1.55-.25 3.25-.75 11.5-1.35 16.7v.05q0 .2-.05.45-.85 7.15-1.75 10.9-.05 0-.05.05v.05q-.05.15-.1.35-.7 2.55-1.2 5.6 2.75-2.75 9.3-6.55 5.2-3.8 5.2-9.7-.85-2.75-4.9-9.75-3.15-5.4-3.6-11.3m51.4 4.3l-.25-.05q-.5 2.95-1.15 6.25-1.95 9.35-2.4 11.9-.1.6-.35 1.45-.5 1.35-1.4 3.3.55 3.2-.1 7.45-1 6.35-1.85 7.3 3.1-2.05 6.5-6.75 3.25-4.2 7.85-7.8h-.25q-.95-3.75-3.2-11.2-2.3-7.5-3.4-11.85z"/><path fill="#c3d8f0" d="M67.3 321.4q.65.1 3.7.1 3.6 0 4.4-.05 2.1-.15 3.65-.85-2.3 3.3-4.9 5.05-.55.35-4.95 2.6 1.45.65 3.1 1.5.05 0 .1.05.4.2.85.45h.05q1.85 1 4 2.15 3.7 1.75 7.3 1.85l1.6.2q.6-5.2 1.35-16.7.1-1.7.25-3.25 0-.6.05-1.1.4-6.05.9-10.25l-1.7-.2q-2.35 2.7-4.65 4.9-3.65 3.55-7.05 5.85-4.25 2.85-12.2 6.15 2.25 1.3 4.15 1.55m67.4-157.75q.65-.15.9-.65.05-.1.15-.65-.65.75-1.4 1.35.2 0 .35-.05m-31.8-4.45q.15.6.65 1.3 1.5 2.1 3.75 3.85 1.05.85 1.3 1.2.3.35.8 1.05.35.3.75.4l-.1.3q.65.1 1.3.25 3.75.55 8.5.55 8.65 0 13.7-3.75.4-.3.8-.65.75-.6 1.4-1.35 0-.15.05-.3l.05-1.25q0-.05 0-.1.1-.2.15-.4.55-1.8.45-5.1 0-1.1-.4-1.55-.45-.5-1.4-.4-1.2 2.2-1.25 2.25-.35.55-.65 1.1-1.2 1.75-2.35 2.75-2.1 1.75-5.45 2.4-2.55.5-6.65.5-3.1 0-5.85-.35-2.35-.35-4.45-.95-2.8-.8-5.1-2.1-.05.15 0 .35M83.6 93.25q-.6.25-1.25.55-8.15 3.45-27.3 13.2v.1l-.4 1.05q-5.6 3.45-9 10.25-2.05 4.15-4.75 13.65 2-.6 4.45-2.3 2-1.35 3.7-1.4-.35 2.2-.35 4.6 0 3.8.85 5.85.15.4 2.9 5.2.9-2.8 2.45-5.55.8-1.45 2-3.4 2 2.5 3.15 5 1.45 3.35 2.1 4.4.7-4.1 1.9-6.3.6-1.05 2.25-2.7.3-.4.7-.8-.4.4-.7.8 12.1 8 26.65 13.2 1.95.7 4.15 1.4 1.65.55 3.45 1.1h.05q1.95.6 4.1 1.2.25.05.55.15 5.9 1.6 13.1 3.3.45.1.95.2-.5-.1-.95-.2-7.2-1.7-13.1-3.3-.3-.1-.55-.15-.3-.05-.55 0-.85.15-1 1-.2.7.65 2.05l1.2 1.8q-1-.15-1.6.45-.5.5-.5 1.2 2.3 1.3 5.1 2.1 2.1.6 4.45.95 2.75.35 5.85.35 4.1 0 6.65-.5 3.35-.65 5.45-2.4 1.15-1 2.35-2.75.3-.55.65-1.1.05-.05 1.25-2.25-.25 0-.55.05-.5-2-.55-3.85-.1-1.15-.35-1.5-.25-.4-.6-.55-1.1.95-2.15 1.75-6.3 4.85-11.85 5.7 5.55-.85 11.85-5.7 1.05-.8 2.15-1.75.2-.2.45-.35.45-.45.9-.85.2-.2.45-.4 0-.05.1-.05.05-.1.1-.15.05-.05.15-.1 5.55-5.25 9.6-11.2 2.5-3.6 6.1-6.5 2-1.6 5.65-4.1 5.8-4.5 5.8-13.15 0-5.55-3-11l-.75-.4q-.3-.2-.55-.4-2.2-1.5-4.15-2.75-2.8-1.75-5.25-2.9-1.85-.9-3.45-1.5-2.05-.7-4.35-1.2-5.6-1.25-12.85-1.25-6.55 0-7.8.1-2.75.2-9.4 1.35.1-1.05.65-2.2.9-1.65 1.55-3.05-8.95 1.15-18 3.95Q89.1 91 83.6 93.25m55.35 3.85q.3-.05.6-.05 3.7-.4 6.15 1 .8.4 1.5 1.05 1.15 1.1 3.5 2.55 1.75 1.5 1.65 4.2-1.15 1.2-3.3 3.05-3.35 2.9-4.65 4.1-1.4-1.45-10.45-3.65-7.8-1.95-8.2-5.5.65-4.4 10.7-6.75h2.5m-13.9 35.45q4.05 1.95 5.95 4.05-1.9-2.1-5.95-4.05-2.05-1-4-1.55-2.45-.7-4.7-.7-6.25 0-10.4 1.9-5.5 2.55-7.9 8.6 2.4-6.05 7.9-8.6 4.15-1.9 10.4-1.9 2.25 0 4.7.7 1.95.55 4 1.55m-5.75 4.05q.75.35 1.9 2.9-1.15-2.55-1.9-2.9-.4-.2-3.25-.2-6.45 0-7.1 3.65.65-3.65 7.1-3.65 2.85 0 3.25.2z"/><path fill="#222e46" d="M141.35 270.75q-3.05 0-5.85 0 .85 3.3 1.15 5.8.15 1.4.3 3.85.5 3.9 4.65 3.9 1.7 0 2.6-3.5.6-2.4.6-4.55 0-.8-.3-1.7-.3-.85-.3-4.15-1.45.25-2.85.35z"/><path fill="#6e85a2" d="M88.25 271.6q-.05-.7 0-1.25-4.3 6.05-8.85 8.4-5.65 2.25-8.75 3.7-6.65 3.25-9.55 5.05-4.55 2.8-8.3 6.75-8.15 8.55-13.2 18.25-6.05 11.5-6.05 21.75 0 1.95.25 3.15h.25q4.8-6.25 9.75-9.4 4.2-2.65 10.5-4.3.05-.05.1-.05.4-.1.8-.2-.4.1-.8.2l.3 1.2q-.7 2-.85 3.8-.05.65-.05 3.2 0 4.65 3.45 9.9 3.05 4.6 5.9 6-2.35-8.55 7-13.65l.3-.6.9.4q.75 5.2 3.45 7.85 2 2 6.25 3.35l3.3.8q0-.05.05-.05.9-3.75 1.75-10.9.05-.25.05-.45v-.05l-1.6-.2q-3.6-.1-7.3-1.85-2.15-1.15-4-2.15h-.05q-.45-.25-.85-.45-.05-.05-.1-.05-1.65-.85-3.1-1.5 4.4-2.25 4.95-2.6 2.6-1.75 4.9-5.05-1.55.7-3.65.85-.8.05-4.4.05-3.05 0-3.7-.1-1.9-.25-4.15-1.55 7.95-3.3 12.2-6.15 3.4-2.3 7.05-5.85 2.3-2.2 4.65-4.9l1.7.2q.15-1.55.35-2.85.45-3.2.05-11.55-.1-1.3-.15-2.7-.1-1.05-.15-2.1-.6-8.15-.6-12.35m20.3-55.3h-1.15q-6.25-.45-11.5-.9l-.1 1.05q-3.6 2.45-4.85 3.65-2.05 2-2.05 5.15 0 1.6 1.7 2.5.55.3 1.3.5 1.6.45 4.45 1.25.1.05 3.15 2.7 2.65 2.3 3.4 2.3 2.85 0 5.3-2 1.45-1.1 4.1-3.6 1.3-.95 2.8-1.6l-.9-2.2q-.7-2.55-1.75-3.95-.3-.4-.6-.7-1.25-.9-2.2-1.7-.05-.05-.1-.1l-.05-.05q-.35-.3-.65-.6l.6-1.25q-.05 0-.1-.05-.45-.2-.8-.4m21.6 3.35l-.05.15q.497-.457.05-.15M128.6 213l.2.95q1.9 1 2.15 4.4l-.8 1.3q.447-.307-.05.15-.048.052-.1.1 2.5-1.95 4.3-3.15.8-.55 3.25-1.5-.45-1.5-1.25-4.05-3.9.95-7.7 1.8m7.85-27.05l-.5.8q3.05-1.4 4.3-1.8 1.4-.5 3.95-.5 1.6 0 1.95.05 1.1.1 3.65.35.55-.3 1.8-.75 1.05-.5 1.05-1.65 0-1.45-4.4-1.45-6.3 0-11.8 4.95m-15.05 5.4l-1.65.1q.05.15.15.4.45 1.55.85 5.25.45 4 .45 6.45 0 5.9-1.55 10.4-.1.3-.2.6-.05.1-.1.2.05 0 .1 0 .15-.05.35-.05 4.3-.75 8.8-1.7 3.8-.85 7.7-1.8 2.05-.55 4.1-1.1.05 0 .1 0 .1-.05.25-.1-.25-.3-.4-.55-.1-.1-.15-.2-.6.05-1.15.15.55-.1 1.15-.15-2.7-3.8-3.7-6.05-1.7-3.95-1.7-9.25 0-2.5.05-3 .15-.75 1.1-4.2-2.55 1-6.65 2.1-4.15 1.1-7.9 2.5m-18.25-38q.15-.85 1-1 .25-.05.55 0-2.15-.6-4.1-1.2h-.05q-1.8-.55-3.45-1.1l-.3.95q1.3 2.1 1.5 3.75.1.55.1 1.4v.05q-.05.15 0 .35v.05q-.05.45-.05 1-.05.05-.05.15 0 1.7-.05 2.05-.2 1-.95 1.55 2.5 2.2 5.6 3.65 1.05.5 2.15.9 1.45.55 3 .95.95.25 2 .45l.1-.3q-.4-.1-.75-.4-.5-.7-.8-1.05-.25-.35-1.3-1.2-2.25-1.75-3.75-3.85-.5-.7-.65-1.3-.05-.2 0-.35-2.05-1.15-3.75-2.65 1.7 1.5 3.75 2.65 0-.7.5-1.2.6-.6 1.6-.45l-1.2-1.8q-.85-1.35-.65-2.05m29.45-5.95q.35.15.6.55.25.35.35 1.5.05 1.85.55 3.85.3-.05.55-.05.6-1.1 1.45-2.7-.85 1.6-1.45 2.7.95-.1 1.4.4.4.45.4 1.55.1 3.3-.45 5.1-.05.2-.15.4 0 .05 0 .1l-.05 1.25q-.05.15-.05.3 2.75-3.05 4.45-8-2.1-2.6-2.9-3.7h-.05q-.05-.05-.05-.1-.15-.15-.2-.25l-.05-.05q-.05-.05-.05-.1h-.05q-.7-.95-.85-2.25-.05-.25-.05-.5l-1.45-1.65q-.1 0-.1.05-.25.2-.45.4-.45.4-.9.85-.25.15-.45.35m22.8-78.55l-.5-.3q-.15.25-.3.55.4-.15.8-.25m-33.35-49.9Q125.8 11 127.6 1.5q-6.7 9.35-25.7 17.7-10.75 4.45-16.2 6.75-6.6 2.8-11.4 5.3-2.3 1.1-4.15 2.2Q58.95 37.15 54 46.4q-4.6 8.6-5.6 20.45Q49.4 55 54 46.4q4.95-9.25 16.15-12.95 1.85-1.1 4.15-2.2l-.4-.85q-4.75-6.3-16.45-7.85-3.25-.35-5.7-.6l-.2 1.95q-1 2.5-1.7 3.85-1.25 2.5-3.3 2.5-5.55 0-5.55-5.45 0-1.3.1-1.75.1-.4.3-.85l-4.3-1.6q-.45 1.5-2.1 3.25-1.8 1.85-3.1 1.85-1.3 0-2.7-1.2-1.5-1.3-1.5-2.85 0-.7.65-2.2l1.4-3.3q-3.8-1.55-8.4-3.45Q8 7.15 5.25 6.05L4.1 6.8q-1.95 2.8-2.4 6-.2 1.2-.2 5.4 0 11.7 5.5 27.05.6 1.7 1.25 3.35 0 .05.05.05 0 .05 0 .1 4.85 12.3 12.25 24.55Q28.8 86.9 37.6 95.85q9.2 9.45 16.05 10.75l1.4.5v-.1q19.15-9.75 27.3-13.2.65-.3 1.25-.55Q89.1 91 94.55 89.3q9.05-2.8 18-3.95-.65 1.4-1.55 3.05-.55 1.15-.65 2.2 6.65-1.15 9.4-1.35 1.25-.1 7.8-.1 7.25 0 12.85 1.25 2.3.5 4.35 1.2 1.6.6 3.45 1.5 2.45 1.15 5.25 2.9l.4-.65h.4q1.45-4.65 3.25-7 .85-1.05.85-6.15 0-2.8-1.15-6.4-1.4-4.45-1.8-6.95-.4.1-.8.25.15-.3.3-.55 1.4-2.75 2.75-5 2.05-3.35 3.4-7.6l.05-.5q-5.85-.35-10.75-2.35-4.35-1.8-8.95-6.75.4-.4 7.45-4.7 4.35-2.65 6.9-4.7 1.2-.95 2.25-2 .2-.15.35-.35 5.25-5.35 7.5-12.8-11.45 4.6-23.8 7.1-10.65 2.15-27.6 3.75 5.8-9.8 7.6-13.7M93.1 83.75l-.25-.8q-4.35.15-10.2 1.45-8.45 1.9-10.15 4.65 1.7-2.75 10.15-4.65 5.85-1.3 10.2-1.45.65-.05 1.25-.05h1.65q-.8.25-1.55.5-.6.15-1.1.35-.15 0-.25.05-3.7 1.15-5.55 1.75-4.05 1.35-7.3 2.9 3.25-1.55 7.3-2.9 1.85-.6 5.55-1.75.1-.05.25-.05M129.15 74q1.95-.5 6.5-1.8 9.5-2.25 11.25-4.65-1.75 2.4-11.25 4.65-4.55 1.3-6.5 1.8-3.3.9-7.9 1.05 4.6-.15 7.9-1.05m2.7 7.35q2.55 0 5.75 1.05 2.8.95 4.7 2.25h-.65q-.5-.45-4.75-1.1-4.05-.65-5.85-.65-1.25 0-2.05.1-.85.05-1.3.2.45-.15 1.3-.2l-.15-1.4q-4.65.4-5.5.55.85-.15 5.5-.55 1.3-.1 3-.25M12.8 46.85q-.25-4.35-.25-11.65Q18.4 40.55 26.8 50q2.85 3.25 6.5 8.4 4.45 6.3 5.85 8.05-1.4-1.75-5.85-8.05-3.65-5.15-6.5-8.4-8.4-9.45-14.25-14.8 0 7.3.25 11.65M62 71.75q1.4 3.95 15.75 4.15 7.75.15 20.4-.05-12.65.2-20.4.05Q63.4 75.7 62 71.75M171.5 191.1q-2.15-1.6-5.8-3l-8.2-1.35q3.15 1.95 5.5 4.45 2.35 2.55 2.35 4.3 0 .25-.2.9-.2.65-.2.9 0 .3.7 1.85.65 1.55.65 3.05 0 1.85-1.35 4.15l.3 1.15q.05 0 .1 0 .55-.15 1.05-.35.65-.2 1.25-.45 6.7-2.75 8.05-9.95-.9-2.7-3.05-4.7-.55-.5-1.15-.95m36.75-150.2h-5.2q-1.05.05-5.85.05-3.8 0-11.45-.25-.9 1.95-2.4 2.95-1.8.9-2.65 1.45.85-.55 2.65-1.45 1.5-1 2.4-2.95-.2 0-.4 0-5.25-.65-14.15-2.55-6.15-1.3-12.45-3.2H158q-1.05 1.05-2.25 2-2.55 2.05-6.9 4.7-7.05 4.3-7.45 4.7 8.3 3.15 12.2 3.7 1.75.25 10.2.25 1 0 5.1-.2 4.75-.3 7.45-.55-5.75 9.3-9.4 12.7-4.2 4-11.55 6.6.4 2.5 1.8 6.95 1.15 3.6 1.15 6.4 0 5.1-.85 6.15-1.8 2.35-3.25 7l3.35 3.4q.25 0 .55 0 .35-.05.7-.05 21.6-1.3 35.5-17.8 13.65-16.25 13.9-40m-14.8 28.25q.5-1.9 1-3.4-11.8 8-26.95 9.35 15.15-1.35 26.95-9.35-.5 1.5-1 3.4-.6 2.25-1.4 4.75.8-2.5 1.4-4.75z"/><path fill="#152238" d="M105.75 268.8l.05-.7q-9.05-1.3-9.8-1.65-2.7-1.25-4.6-2.55-1-.65-1.8-1.35-1.1 4.5-1.25 5.6 0 .2-.05.4-.05.75-.05 1.8-.05.55 0 1.25 0 4.2.6 12.35.05 1.05.15 2.1.05 1.4.15 2.7 2.1-5.1 9.7-10.9 5.45-4.25 6.9-9.05z"/><path fill="#1c3257" d="M105.85 268.1h-.05l-.05.7q-1.45 4.8-6.9 9.05-7.6 5.8-9.7 10.9.4 8.35-.05 11.55-.2 1.3-.35 2.85-.5 4.2-.9 10.25l1.2 1.2q.45 5.9 3.6 11.3 4.05 7 4.9 9.75 0 5.9-5.2 9.7-6.55 3.8-9.3 6.55-.25 1.4-.4 2.95-.3 2.55-.15 7.55.3.9.6 1.8 1.6 4.65 3.55 8.1 1.55 2.75 3.25 4.75h.05q1.6 1.9 3.4 3.1.1.05.25.15.2.15.45.3.65.35 1.45.75 2.3 1 6.15 1.9 5.7 1.35 14.7 2.45 3.1.35 5.15.55 1.75.15 2.75.15.7 0 1-.05 2.15-.4 3.7-2.75.45-.7.85-1.5l-.2-.9q.05-.4.85-3.05.35-1.35.45-1.95-.4-2.45-.85-4.95-.35-1.65-.65-3.35 0-.1-.05-.2-1.45-8.05-1.05-11.45.35-3 4.1-9.7 1.5-2.75 2.5-4.8.9-1.95 1.4-3.3.25-.85.35-1.45.45-2.55 2.4-11.9.65-3.3 1.15-6.25.45-2.9.75-5.45.6-4.8.25-7.65-.8-7.3-.9-9.3.1 2 .9 9.3.35 2.85-.25 7.65-.3 2.55-.75 5.45l.25.05q1.1 4.35 3.4 11.85 2.25 7.45 3.2 11.2h.25q-4.6 3.6-7.85 7.8-3.4 4.7-6.5 6.75-1.25 3.05-2 5.55-.5 1.7-1.6 5.65.05.1.05.2.3 1.7.65 3.35 1.45 1 5.4 3.95 2.25 1.65 7.25 4.1 1.75 1.15 5.1 1.75.45.1 2.05.3 1.2.15 3.1.35 13.35 1.55 21.9-.25 1.55-.35 3-.8h.05q1.35-.5 2.6-1.05-3.3-9.6-3.95-11.95-.75-2.9.3-11.95.6-4.95 2.3-12.5 1.9-8.65 2.7-13.75-2.65-11.3-5.2-38.1-2.2-24-1.85-27.2.2-1.45.8-3.65l-1.05-1.55q-2.2 1.6-5.35 2.95-4.85 1.55-8.15 2.7-2.75.95-4.4 1.65-.45.15-.85.35-6.25 2.85-11.6 3.8 0 3.3.3 4.15.3.9.3 1.7 0 2.15-.6 4.55-.9 3.5-2.6 3.5-4.15 0-4.65-3.9-.15-2.45-.3-3.85-.3-2.5-1.15-5.8-4.75-.05-8.65-.05-7.65 0-9.35-.1-5.25-.35-7.2-1.85-2.45-.35-4.45-.65z"/><path fill="#323e3a" d="M105.8 268.1h.05q2 .3 4.45.65 1.95 1.5 7.2 1.85 1.7.1 9.35.1 3.9 0 8.65.05 2.8 0 5.85 0 1.4-.1 2.85-.35 5.35-.95 11.6-3.8.4-.2.85-.35 1.65-.7 4.4-1.65 3.3-1.15 8.15-2.7 3.15-1.35 5.35-2.95 1.7-1.25 2.85-2.7 1.4-1.8 1.9-3.85v-.7q-.35-4.7-.8-6.3-.7-2.55-3.5-2.55-.45 0-.65.1-.15 0-.2.05-.65.35-1.9.7l-.4.55q-5.5 7.25-13.7 11.75-2.35 1.25-4.7 2.25-7.25 2.85-15 2.85-8.9 0-13.6-.35-7.3-.5-12.15-2.05-8.9-2.05-12.35-3-5.65-1.6-10.25-6.1l-.5-1.4q-.05.25-.15.45-.05.1-.05.2 0 .05-.05.1-.05.2-.1.4v.05q-1.9 5.9-2.55 8.8l2.9 4.35q.8.7 1.8 1.35 1.9 1.3 4.6 2.55.75.35 9.8 1.65m46.4-58.35q1.7-.55 3.55-1.2-1.6.05-3.5.1-.2 0-.4 0-.2 0-.45 0-.25 0-.5 0-.3 0-.55 0-6.3.05-10.05.6-.05 0-.1 0 .05.1.15.2.15.25.4.55-.15.05-.25.1-.05 0-.1 0-2.05.55-4.1 1.1.8 2.55 1.25 4.05 1.25 2.45 2.35 2.45 4.9 0 4.9-4.8 0-.25 0-.5-.1-.7-.3-1.25-.4-.9-1.05-.95.65.05 1.05.95.2.55.3 1.25 2.7-1 6.1-2.15.2-.1.45-.2.2-.1.45-.15.2-.05.4-.15m-32.45-18.3q-.05-.15-.1-.25-1.6-1.95-4.7-1.95-.55 0-.7.05-.45.1-1.05.45-.1 0-.15.05l.45.8q.15.55.15 1.15-.05 1.15-.6 2.3-.9 1.7-.9 7.55-.05 5.85-.35 8.35-.4 2.5-.2 6.35h-3.05q.35.2.8.4.05.05.1.05.55.3 1.2.6h.05l.05.05q.1.05.25.1.05.05.1.05 1.05.5 2.3 1.4.3.15.6.4l.5.05q.2 0 .45 0 2.7-.35 4.4-4.65.05-.1.1-.2.1-.3.2-.6 1.55-4.5 1.55-10.4 0-2.45-.45-6.45-.4-3.7-.85-5.25-.1-.25-.15-.4m-14.7-25.55q-1.1-.4-2.15-.9-3.1-1.45-5.6-3.65.75-.55.95-1.55.05-.35.05-2.05 0-.1.05-.15 0-.55.05-1v-.05q-.05-.2 0-.35v-.05q0-.85-.1-1.4-.2-1.65-1.5-3.75l.3-.95q-2.2-.7-4.15-1.4l1.7 8.85h1.7-1.7q-6 2.2-7.35 4.6l.2.5.2-.1q2.5 3.95 12.3 8.45.05 0 .15.05.05.05.15.05 1.15.55 2.3 1 8.75 3.65 15.3 3.65 15.1 0 20.6-3.35 7-4.2 8.1-17.1 0-.55.05-1.1-.45-.8-.9-1.4-.15-.25-.3-.45-1.05-1.35-2.15-1.95-1.95-1.05-5-.5l-1 .8q.8 1.1 2.9 3.7-1.7 4.95-4.45 8-.1.55-.15.65-.25.5-.9.65-.15.05-.35.05-.4.35-.8.65-5.05 3.75-13.7 3.75-4.75 0-8.5-.55-.65-.15-1.3-.25-1.05-.2-2-.45-1.55-.4-3-.95z"/><path fill="#43ad6a" d="M128.8 213.95l-.2-.95q-4.5.95-8.8 1.7-.2 0-.35.05-.05 0-.1 0-1.7 4.3-4.4 4.65-.25 0-.45 0l-.5-.05q-.3-.25-.6-.4-1.25-.9-2.3-1.4-.05 0-.1-.05-.15-.05-.25-.1l-.05-.05h-.05q-.65-.3-1.2-.6l-.6 1.25q.3.3.65.6l.05.05q.05.05.1.1.95.8 2.2 1.7.3.3.6.7 1.05 1.4 1.75 3.95l.9 2.2q.65-.3 1.35-.55 2.55-.9 5.65-1.1 2.65-.15 4.65-2.25 1.077-1.125 3.25-3.5.052-.048.1-.1 0-.05.05-.1v-.05l.8-1.3q-.25-3.4-2.15-4.4m30.05-27.05q-.05-.05-.1 0-.4-.05-.75-.1-.25-.05-.5-.05l8.2 1.35q-1.65-.65-6.85-1.2M28.35 19.45q-.65 1.5-.65 2.2 0 1.55 1.5 2.85 1.4 1.2 2.7 1.2 1.3 0 3.1-1.85 1.65-1.75 2.1-3.25l.5-1.4q-.05-.05-.1-.05-3.2-1.2-7.7-3-.55 1.35-1.45 3.3m13.95 1.1l-.1.35q-.5.7-.8 1.3-.2.45-.3.85-.1.45-.1 1.75 0 5.45 5.55 5.45 2.05 0 3.3-2.5.7-1.35 1.7-3.85l.2-1.95q-2.6-.3-4.3-.55-2.8-.35-5.15-.85M165.35 195.5q0-1.75-2.35-4.3-2.35-2.5-5.5-4.45-5.1-.55-7.7-1.9-2.55-.25-3.65-.35-.35-.05-1.95-.05-2.55 0-3.95.5-1.25.4-4.3 1.8-.95 3.45-1.1 4.2-.05.5-.05 3 0 5.3 1.7 9.25 1 2.25 3.7 6.05.05 0 .1 0 3.75-.55 10.05-.6.25 0 .55 0 .25 0 .5 0 .25 0 .45 0 .2 0 .4 0 1.9-.05 3.5-.1 3.9-.15 5.8-.35 1.95-.25 3.7-.7l-.3-1.15q1.35-2.3 1.35-4.15 0-1.5-.65-3.05-.7-1.55-.7-1.85 0-.25.2-.9.2-.65.2-.9z"/><path fill="#08110f" d="M139.55 97.05q-.3 0-.6.05h-2.5q-10.05 2.35-10.7 6.75.4 3.55 8.2 5.5 9.05 2.2 10.45 3.65 1.3-1.2 4.65-4.1 2.15-1.85 3.3-3.05.1-2.7-1.65-4.2-2.35-1.45-3.5-2.55-.7-.65-1.5-1.05-2.45-1.4-6.15-1z"/><path fill="#0e1111" d="M169.75 170.7q-3.85-4.55-6.55-6.75-5.9-4.55-7.65-6.15-.45-.4-3.6-2.8-1.85-1.45-3.25-3-.35-.4-.65-.75l-2.3 1.5q.45.6.9 1.4-.05.55-.05 1.1-1.1 12.9-8.1 17.1-5.5 3.35-20.6 3.35-6.55 0-15.3-3.65-1.15-.45-2.3-1-.1 0-.15-.05-.1-.05-.15-.05-9.8-4.5-12.3-8.45l-.2.1-.65.2H84.9q-6.75 6.2-13.15 19.8-1.75 3.8-5.3 11.75-3.25 7.15-6.1 12 8.35 5.8 24.75 7.9 4.7.6 10.8 1.15 5.25.45 11.5.9h1.15 3.05q-.2-3.85.2-6.35.3-2.5.35-8.35 0-5.85.9-7.55.55-1.15.6-2.3 0-.6-.15-1.15l-.45-.8q-.05 0-.1.05-2.55-.6-6.95-1.1-5.4-.6-7.85-1 2.45.4 7.85 1 4.4.5 6.95 1.1.05-.05.1-.05.05-.05.15-.05.6-.35 1.05-.45.15-.05.7-.05 3.1 0 4.7 1.95.05.1.1.25l1.65-.1q3.75-1.4 7.9-2.5 4.1-1.1 6.65-2.1l.5-.8q5.5-4.95 11.8-4.95 4.4 0 4.4 1.45 0 1.15-1.05 1.65-1.25.45-1.8.75 2.6 1.35 7.7 1.9.25 0 .5.05.35.05.75.1.05-.05.1 0 5.2.55 6.85 1.2 3.65 1.4 5.8 3l3.25-1.25q.7-2.25 1.1-3.7.8-2.8.8-4.2 0-.4-.4-3.8-1.45-1.5-6.5-7.45z"/><path fill="#4772bd" d="M176.35 49.55q-2.7.25-7.45.55-4.1.2-5.1.2-8.45 0-10.2-.25-3.9-.55-12.2-3.7 4.6 4.95 8.95 6.75 4.9 2 10.75 2.35l-.05.5q-1.35 4.25-3.4 7.6-1.35 2.25-2.75 5l.5.3q7.35-2.6 11.55-6.6 3.65-3.4 9.4-12.7z"/></g><path id="E" stroke="#000" stroke-width="3" stroke-linejoin="round" stroke-linecap="round" fill="none" d="M203.05 40.9q3.2-.2 5.2-1.1 0 .55 0 1.1-.25 23.75-13.9 40-13.9 16.5-35.5 17.8-.35 0-.7.05-.3 0-.55 0 .25.2.55.4m.75.4q3 5.45 3 11 0 8.65-5.8 13.15-3.65 2.5-5.65 4.1-3.6 2.9-6.1 6.5-4.05 5.95-9.6 11.2-.1.05-.15.1-.05.05-.1.15m1.45 1.65q0 .25.05.5.15 1.3.85 2.25h.05q0 .05.05.1l.05.05q.05.1.2.25 0 .05.05.1h.05m1-.8q3.05-.55 5 .5 1.1.6 2.15 1.95.15.2.3.45m2.3-1.5q.3.35.65.75 1.4 1.55 3.25 3 3.15 2.4 3.6 2.8 1.75 1.6 7.65 6.15 2.7 2.2 6.55 6.75 5.05 5.95 6.5 7.45.4 3.4.4 3.8 0 1.4-.8 4.2-.4 1.45-1.1 3.7m-3.25 1.25q.6.45 1.15.95 2.15 2 3.05 4.7-1.35 7.2-8.05 9.95-.6.25-1.25.45-.5.2-1.05.35-.05 0-.1 0-1.75.45-3.7.7-1.9.2-5.8.35-1.85.65-3.55 1.2-.2.1-.4.15-.25.05-.45.15-.25.1-.45.2-3.4 1.15-6.1 2.15 0 .25 0 .5 0 4.8-4.9 4.8-1.1 0-2.35-2.45-2.45.95-3.25 1.5-1.8 1.2-4.3 3.15-2.173 2.375-3.25 3.5-2 2.1-4.65 2.25-3.1.2-5.65 1.1-.7.25-1.35.55-1.5.65-2.8 1.6-2.65 2.5-4.1 3.6-2.45 2-5.3 2-.75 0-3.4-2.3-3.05-2.65-3.15-2.7-2.85-.8-4.45-1.25-.75-.2-1.3-.5-1.7-.9-1.7-2.5 0-3.15 2.05-5.15 1.25-1.2 4.85-3.65m.1-1.05q-6.1-.55-10.8-1.15-16.4-2.1-24.75-7.9 2.85-4.85 6.1-12 3.55-7.95 5.3-11.75 6.4-13.6 13.15-19.8h1.95m7.8-5.3q-6 2.2-7.35 4.6m5.65-13.45q-14.55-5.2-26.65-13.2-1.65 1.65-2.25 2.7-1.2 2.2-1.9 6.3-.65-1.05-2.1-4.4-1.15-2.5-3.15-5-1.2 1.95-2 3.4-1.55 2.75-2.45 5.55-2.75-4.8-2.9-5.2-.85-2.05-.85-5.85 0-2.4.35-4.6-1.7.05-3.7 1.4-2.45 1.7-4.45 2.3 2.7-9.5 4.75-13.65 3.4-6.8 9-10.25m-1-1.55q-6.85-1.3-16.05-10.75-8.8-8.95-17.05-22.55-7.4-12.25-12.25-24.55 0-.05 0-.1-.05 0-.05-.05Q7.6 46.95 7 45.25 1.5 29.9 1.5 18.2q0-4.2.2-5.4.45-3.2 2.4-6m1.15-.75Q8 7.15 21.35 12.7q4.6 1.9 8.4 3.45h.05q4.5 1.8 7.7 3 .05 0 .1.05 2.05.75 4.7 1.35 2.35.5 5.15.85 1.7.25 4.3.55 2.45.25 5.7.6 11.7 1.55 16.45 7.85m.4.85q4.8-2.5 11.4-5.3 5.45-2.3 16.2-6.75 19-8.35 25.7-17.7-1.8 9.5-5.55 17.45-1.8 3.9-7.6 13.7 16.95-1.6 27.6-3.75 12.35-2.5 23.8-7.1-2.25 7.45-7.5 12.8-.15.2-.35.35h.75q6.3 1.9 12.45 3.2 8.9 1.9 14.15 2.55 2.1-2.9 1-5.75-1.1-2.85-3.8-2.7-2.75.1-6.3 1.6-3.85 1.65-4.95 3.75m31.75 3.3q-1.05.05-5.85.05-3.8 0-11.45-.25-.9 1.95-2.4 2.95-1.8.9-2.65 1.45m4.65-4.4q.2 0 .4 0m6.3 33.2q.8-2.5 1.4-4.75.5-1.9 1-3.4-11.8 8-26.95 9.35m-26.1-28.75q8.3 3.15 12.2 3.7 1.75.25 10.2.25 1 0 5.1-.2 4.75-.3 7.45-.55-5.75 9.3-9.4 12.7-4.2 4-11.55 6.6.4 2.5 1.8 6.95 1.15 3.6 1.15 6.4 0 5.1-.85 6.15-1.8 2.35-3.25 7m3.35 3.4q-2.2-1.5-4.15-2.75-2.8-1.75-5.25-2.9-1.85-.9-3.45-1.5-2.05-.7-4.35-1.2-5.6-1.25-12.85-1.25-6.55 0-7.8.1-2.75.2-9.4 1.35.1-1.05.65-2.2.9-1.65 1.55-3.05-8.95 1.15-18 3.95Q89.1 91 83.6 93.25q-.6.25-1.25.55-8.15 3.45-27.3 13.2m110.65 81.1q3.65 1.4 5.8 3m-14-4.35q3.15 1.95 5.5 4.45 2.35 2.55 2.35 4.3 0 .25-.2.9-.2.65-.2.9 0 .3.7 1.85.65 1.55.65 3.05 0 1.85-1.35 4.15M158 34.95q-1.05 1.05-2.25 2-2.55 2.05-6.9 4.7-7.05 4.3-7.45 4.7m14 22.5q-.4.1-.8.25M92.85 82.95q-4.35.15-10.2 1.45-8.45 1.9-10.15 4.65m20.35-6.1q.65-.05 1.25-.05h1.65q-.8.25-1.55.5-.6.15-1.1.35-.15 0-.25.05-3.7 1.15-5.55 1.75-4.05 1.35-7.3 2.9m41.25-13.4q4.6-.15 7.9-1.05 1.95-.5 6.5-1.8 9.5-2.25 11.25-4.65M128.85 81.6q1.3-.1 3-.25 2.55 0 5.75 1.05 2.8.95 4.7 2.25h-.65q-.5-.45-4.75-1.1-4.05-.65-5.85-.65-1.25 0-2.05.1-.85.05-1.3.2m-4.35-1.05q.85-.15 5.5-.55m7.6 15.5q-10.05 2.35-10.7 6.75.4 3.55 8.2 5.5 9.05 2.2 10.45 3.65 1.3-1.2 4.65-4.1 2.15-1.85 3.3-3.05.1-2.7-1.65-4.2-2.35-1.45-3.5-2.55-.7-.65-1.5-1.05-2.45-1.4-6.15-1-.3 0-.6.05h-2.5zm17.8-1.75h-.4M42.2 20.9q-.5.7-.8 1.3-.2.45-.3.85-.1.45-.1 1.75 0 5.45 5.55 5.45 2.05 0 3.3-2.5.7-1.35 1.7-3.85M48.4 66.85Q49.4 55 54 46.4q4.95-9.25 16.15-12.95 1.85-1.1 4.15-2.2m-45.95-11.8q-.65 1.5-.65 2.2 0 1.55 1.5 2.85 1.4 1.2 2.7 1.2 1.3 0 3.1-1.85 1.65-1.75 2.1-3.25m-7.3-4.45q-.55 1.35-1.45 3.3M12.8 46.85q-.25-4.35-.25-11.65Q18.4 40.55 26.8 50q2.85 3.25 6.5 8.4 4.45 6.3 5.85 8.05M62 71.75q1.4 3.95 15.75 4.15 7.75.15 20.4-.05m-31.85 59.6q.3-.4.7-.8m67.65 18.6q.6-1.1 1.45-2.7m-3.5-3.15q.2-.2.45-.35.45-.45.9-.85.2-.2.45-.4 0-.05.1-.05m-36.45-4.95q2.4-6.05 7.9-8.6 4.15-1.9 10.4-1.9 2.25 0 4.7.7 1.95.55 4 1.55 4.05 1.95 5.95 4.05m-26.3 15.75q.25.05.55.15 5.9 1.6 13.1 3.3.45.1.95.2m-14.6-3.65q-2.15-.6-4.1-1.2h-.05q-1.8-.55-3.45-1.1m-.3.95q1.3 2.1 1.5 3.75.1.55.1 1.4v.05q-.05.15 0 .35v.05q-.05.45-.05 1-.05.05-.05.15 0 1.7-.05 2.05-.2 1-.95 1.55 2.5 2.2 5.6 3.65 1.05.5 2.15.9 1.45.55 3 .95.95.25 2 .45m-10.9-11.1q1.7 1.5 3.75 2.65m7.15 8.45q.65.1 1.3.25 3.75.55 8.5.55 8.65 0 13.7-3.75.4-.3.8-.65.75-.6 1.4-1.35m-1.1-9.1q-1.2 2.2-1.25 2.25-.35.55-.65 1.1-1.2 1.75-2.35 2.75-2.1 1.75-5.45 2.4-2.55.5-6.65.5-3.1 0-5.85-.35-2.35-.35-4.45-.95-2.8-.8-5.1-2.1m-6.55-1.35h-1.7m-1.7-8.85q1.95.7 4.15 1.4m-9.4 12.45q2.5 3.95 12.3 8.45.05 0 .15.05.05.05.15.05 1.15.55 2.3 1 8.75 3.65 15.3 3.65 15.1 0 20.6-3.35 7-4.2 8.1-17.1 0-.55.05-1.1-.45-.8-.9-1.4m-26 38.7q.05.15.15.4.45 1.55.85 5.25.45 4 .45 6.45 0 5.9-1.55 10.4-.1.3-.2.6-.05.1-.1.2.05 0 .1 0 .15-.05.35-.05 4.3-.75 8.8-1.7 3.8-.85 7.7-1.8 2.05-.55 4.1-1.1.05 0 .1 0 .1-.05.25-.1-.25-.3-.4-.55-.1-.1-.15-.2-.6.05-1.15.15m-26-19.6q.05-.05.15-.05.6-.35 1.05-.45.15-.05.7-.05 3.1 0 4.7 1.95.05.1.1.25m-8.15 24.85q-.2-3.85.2-6.35.3-2.5.35-8.35 0-5.85.9-7.55.55-1.15.6-2.3 0-.6-.15-1.15m-.45-.8q-.05 0-.1.05-2.55-.6-6.95-1.1-5.4-.6-7.85-1m37.6-25.4q2.75-3.05 4.45-8-2.1-2.6-2.9-3.7m-.85 35.3q5.5-4.95 11.8-4.95 4.4 0 4.4 1.45 0 1.15-1.05 1.65-1.25.45-1.8.75 2.6 1.35 7.7 1.9.25 0 .5.05.35.05.75.1.05-.05.1 0 5.2.55 6.85 1.2m-15.9-3.25q-2.55-.25-3.65-.35-.35-.05-1.95-.05-2.55 0-3.95.5-1.25.4-4.3 1.8-.95 3.45-1.1 4.2-.05.5-.05 3 0 5.3 1.7 9.25 1 2.25 3.7 6.05.05 0 .1 0 3.75-.55 10.05-.6.25 0 .55 0 .25 0 .5 0 .25 0 .45 0 .2 0 .4 0 1.9-.05 3.5-.1m-34.35-17.2q3.75-1.4 7.9-2.5 4.1-1.1 6.65-2.1m-17.35-31.9q5.55-.85 11.85-5.7 1.05-.8 2.15-1.75m12.2 65q-.1-.7-.3-1.25-.4-.9-1.05-.95m-12.5 8.15q-.25-3.4-2.15-4.4m1.2 5.95q.052-.048.1-.1 0-.05.05-.1l.025-.025q.422-.332-.075.125m6.2-8.6q.8 2.55 1.25 4.05m-23.55 4.1q-.3-.25-.6-.4-1.25-.9-2.3-1.4-.05 0-.1-.05-.15-.05-.25-.1l-.05-.05h-.05q-.65-.3-1.2-.6m-.6 1.25q.3.3.65.6l.05.05q.05.05.1.1.95.8 2.2 1.7.3.3.6.7 1.05 1.4 1.75 3.95m-4.75-8.35q-.05 0-.1-.05-.45-.2-.8-.4m10.8-1.55q-1.7 4.3-4.4 4.65-.25 0-.45 0m-24.65 10.2q.95 6.55.95 8.9 0 6.1-1.2 9.7m.5 1.4q4.6 4.5 10.25 6.1 3.45.95 12.35 3 4.85 1.55 12.15 2.05 4.7.35 13.6.35 7.75 0 15-2.85 2.35-1 4.7-2.25 8.2-4.5 13.7-11.75m.4-.55q1.25-.35 1.9-.7.05-.05.2-.05.2-.1.65-.1 2.8 0 3.5 2.55.45 1.6.8 6.3m0 .7q-.5 2.05-1.9 3.85-1.15 1.45-2.85 2.7m1.05 1.55q-.6 2.2-.8 3.65-.35 3.2 1.85 27.2 2.55 26.8 5.2 38.1-.8 5.1-2.7 13.75-1.7 7.55-2.3 12.5-1.05 9.05-.3 11.95.65 2.35 3.95 11.95-1.25.55-2.6 1.05h-.05m.1.5q-.05.35-.1.7-.1.6-.1 1.05 0 1.85.6 3.25.7.15 1.9.6M95.9 215.4q5.25.45 11.5.9m-1.6 51.8h.05q2 .3 4.45.65 1.95 1.5 7.2 1.85 1.7.1 9.35.1 3.9 0 8.65.05 2.8 0 5.85 0 1.4-.1 2.85-.35 5.35-.95 11.6-3.8.4-.2.85-.35 1.65-.7 4.4-1.65 3.3-1.15 8.15-2.7 3.15-1.35 5.35-2.95m-68.8 9.85q-1.45 4.8-6.9 9.05-7.6 5.8-9.7 10.9.4 8.35-.05 11.55-.2 1.3-.35 2.85-.5 4.2-.9 10.25m1.2 1.2q.45 5.9 3.6 11.3 4.05 7 4.9 9.75 0 5.9-5.2 9.7-6.55 3.8-9.3 6.55-.25 1.4-.4 2.95-.3 2.55-.15 7.55.3.9.6 1.8 1.6 4.65 3.55 8.1 1.55 2.75 3.25 4.75h.05q1.6 1.9 3.4 3.1.1.05.25.15.2.15.45.3.65.35 1.45.75 2.3 1 6.15 1.9 5.7 1.35 14.7 2.45 3.1.35 5.15.55 1.75.15 2.75.15.7 0 1-.05 2.15-.4 3.7-2.75.45-.7.85-1.5m-.2-.9q.05-.4.85-3.05.35-1.35.45-1.95-.4-2.45-.85-4.95-.35-1.65-.65-3.35 0-.1-.05-.2-1.45-8.05-1.05-11.45.35-3 4.1-9.7 1.5-2.75 2.5-4.8.9-1.95 1.4-3.3.25-.85.35-1.45.45-2.55 2.4-11.9.65-3.3 1.15-6.25.45-2.9.75-5.45.6-4.8.25-7.65-.8-7.3-.9-9.3M89.6 248.2q-.05.25-.15.45-.05.1-.05.2 0 .05-.05.1-.05.2-.1.4v.05q-1.9 5.9-2.55 8.8m2.9 4.35q.8.7 1.8 1.35 1.9 1.3 4.6 2.55.75.35 9.8 1.65m-16.2-5.55q-1.1 4.5-1.25 5.6 0 .2-.05.4-.05.75-.05 1.8-.05.55 0 1.25 0 4.2.6 12.35.05 1.05.15 2.1.05 1.4.15 2.7M86.7 258.2q.6 2.3 2.9 4.35m45.9 8.2q.85 3.3 1.15 5.8.15 1.4.3 3.85.5 3.9 4.65 3.9 1.7 0 2.6-3.5.6-2.4.6-4.55 0-.8-.3-1.7-.3-.85-.3-4.15m-55.95-.05q-4.3 6.05-8.85 8.4-5.65 2.25-8.75 3.7-6.65 3.25-9.55 5.05-4.55 2.8-8.3 6.75-8.15 8.55-13.2 18.25-6.05 11.5-6.05 21.75 0 1.95.25 3.15h.25q4.8-6.25 9.75-9.4 4.2-2.65 10.5-4.3.05-.05.1-.05.4-.1.8-.2m31.85-20.5q-2.35 2.7-4.65 4.9-3.65 3.55-7.05 5.85-4.25 2.85-12.2 6.15 2.25 1.3 4.15 1.55.65.1 3.7.1 3.6 0 4.4-.05 2.1-.15 3.65-.85-2.3 3.3-4.9 5.05-.55.35-4.95 2.6 1.45.65 3.1 1.5.05 0 .1.05.4.2.85.45h.05q1.85 1 4 2.15 3.7 1.75 7.3 1.85m1.6.2q.6-5.2 1.35-16.7.1-1.7.25-3.25 0-.6.05-1.1M54.7 324.85q-.7 2-.85 3.8-.05.65-.05 3.2 0 4.65 3.45 9.9 3.05 4.6 5.9 6-2.35-8.55 7-13.65m1.2-.2q.75 5.2 3.45 7.85 2 2 6.25 3.35m3.3.8q0-.05.05-.05.9-3.75 1.75-10.9.05-.25.05-.45v-.05M78 375.9q.25-.4.6-.8h.05q.25-.3.5-.6.75-.85 1.4-1.45 1.95-1.85 3.05-1.85 1.2 0 2.05 1.65.25.55.5 1.3.5 1.55 3.75 2.9m-12.1-.9q.05-.15.2-.25m-.75 3.8q.2 1.05.5 2.05 1.75 5.85 6.9 10.45 3.5 3.15 11.5 8.75 3.4 2.8 14.2 4.4 8.85 1.35 17.9 1.35 2.15 0 3.95-.1-3.45-2.7-4.9-3.6-2.15-1.3-4.85-2.6-2.65-1.2-4.55-2.05-.5-.25-.9-.45h-.05q-1.25-.6-2.15-1.05-9.15-4.55-13.45-12.3m-20.8-11.5q-.4 1.55-1.9 2.05m-2.25 5.7q-.1-.55-.1-1.05-.05-.3-.05-.55 0-1.1 1.55-3.05m-1.9 6.2q-.45 2.3-.5 2.95-.05.3-.05 1.95 0 3.75 3.45 8.05 3 3.7 6 5.2 3 1.45 5.95 5.4 1.75 2.25 4.85 7.15 2.75 4.1 5.55 5.6 3.15 1.7 9.5 1.9 2.8.1 10.1.65 6.4.5 10.55.5 10.25 0 14.6-1.9 2.45-1.05 11.45-7.9l.35-5.05q0-3.4-.75-5.8-.15-.45-.3-.85m-2.25-.8q-1.4 1.15-2.75 2.1l-.7.4q-3.9 2.45-7.75 3.1-5.85 1.05-7.8 1.3-1.4.2-3.2.3m8.25-87.7q1.1 4.35 3.4 11.85 2.25 7.45 3.2 11.2h.25q-4.6 3.6-7.85 7.8-3.4 4.7-6.5 6.75-1.25 3.05-2 5.55-.5 1.7-1.6 5.65m-45-21.8v.05q-.05.15-.1.35-.7 2.55-1.2 5.6m6.9 25.15q-2.35.8.3 1.75 2.2.8 3.1 1.35m39.6-23.65q.85-.95 1.85-7.3.65-4.25.1-7.45m-5.1 40.35q.15-.3.3-.6.1-.3.2-.6m-12.75 15.8q.2-4.25 3.5-5.25.75-.2 3.3-.3 1.45-.05 3.5-.05 3.4 0 4.35.05 1.45.1 2.3.4-.7-.55-1.25-1.2-2-2.25-2.95-5.85m6.1 8.3q-.6-.3-1.15-.65-.4-.3-.75-.6m.45 1.75q.8-.15 1.45-.5.2.1.4.2 2.55 1.15 9.15 1.7.25 0 .5.05h.05q5.45.5 7.65 2.1.8.6 1.45 1.45l.15.25.05.05q.4.6.75 1.35v.05q.05.1.1.2 1.4.05 2.6.15.15 0 .35.05.05-.05.1 0 2.6.25 4.9.45 7.3.6 11.75.6 1.55 0 2.95 0 .05 0 .1 0 .2-.05.45 0-1-1.8-1.45-2.25-1.5-1.35-3.5-2.45-1.75-.95-3.9-1.7-3.45-.95-5.7-1.7l-.4-.1-.05-.05q-1.3-.45-2.15-.85-.75-.35-1.5-.75-.7-.35-1.35-.75-.05-.05-.1-.05-.5-.3-.95-.6-1.7-1.1-3.25-2.45-1.35-1.15-5.8-5.6m.1-.8q-1.6-.2-2.05-.3-3.35-.6-5.1-1.75-5-2.45-7.25-4.1-3.95-2.95-5.4-3.95M118.7 396.7q4.65-.25 9.45-1.6 4.55-1.3 6.8-1.8m42.9-12.65q-1.45.45-3 .8-8.55 1.8-21.9.25-1.9-.2-3.1-.35m24.2-140.45q-.8-8-2.45-17.3-1.55-8.5-3.3-15.4m12.25 180.5q-2.95 1.2-5.5 1.95-5 1.5-7.8 1.5-.85 0-1.85-.35 1.2-3.4 4.2-4.75 2.3-1.05 6.2-1.05 1.8 0 2.1.05.2.05.45.1.7 1.6 2.2 2.55.15.1.3.2 1.95 1.1 7.05 1.7 3.5.4 5.65.9h.05l.05.05q1.25.25 2.05.6.25.1.5.2.1.05.25.15 3.3 1.65 4.45 5.25.2 1.2.2 1.85 0 3.05-2.45 6.8-2.4 3.75-4.7 4.3-5.55 1.3-11.5 1.8-5.7.45-5.7-.25-7.15 0-8.3-.15-.8-.05-9.85-1.8m37.85-17.8q.4.8.55 1.25.05.25.05 1.1 0 4.65-7.75 6-2.8.5-9.45.6m13.5-8.9q-5.25-.6-9.7.2-5.55.95-8.75 4m1.85 15.5v-.2q.146.195.4.2-.206 0-.4 0zM145.8 396.3q.25 0 .5.05.7.05 5.35 5.15m-24.05.95q2.7-3.45 6.65-4.95 3.6-1.4 8.85-1.4.9 0 2.65.2h.05"/><path id="F" stroke="#000" stroke-width="2" stroke-linejoin="round" stroke-linecap="round" fill="none" d="M141.4 46.35q4.6 4.95 8.95 6.75 4.9 2 10.75 2.35m-.05.5q-1.35 4.25-3.4 7.6-1.35 2.25-2.75 5-.15.25-.3.55m-45.65 70.95q.65-3.65 7.1-3.65 2.85 0 3.25.2.75.35 1.9 2.9"/></defs><use xlink:href="#A"/><g transform="matrix(.043823 -.001129 .003052 .042374 83.7 181.75)"><use xlink:href="#B"/><use xlink:href="#C"/></g><use xlink:href="#D"/><use xlink:href="#E"/><use xlink:href="#F"/></svg>