<?xml version="1.0" encoding="UTF-8"?><svg id="a" xmlns="http://www.w3.org/2000/svg" xmlns:xlink="http://www.w3.org/1999/xlink" viewBox="0 0 223.0952 429.85"><defs><clipPath id="b"><path d="m156.6316,388.6117s3.619,4.7119,14.119,7.2707,12.8617,3.2841,14.9897,8.0391,1.1218,15.2514-3.7559,18.255-9.2961,6.8093-24.775,3.6735-17.3281-5.1141-27.35-2.441-18.9147,5.344-20.6-7.209c-1.6853-12.553-1.0676-16.6706,2.55-17.7s-4.798-10.0059-4.0755-14.65c2.2437.99.6514,3.9794,10.0399,4.3s9.9179.603,16.4473-.95,12.2621-2.859,22.4105,1.4116" style="fill:#2e7b5b; stroke:#000; stroke-linecap:round; stroke-linejoin:round; stroke-width:3px;"/></clipPath><clipPath id="f"><path d="m99.5489,155.6594s-.1324,12.6757,2.2294,16.036-12.6271,7.2924-18.7,6.1993c-11.7647-2.1176-18.6941-3.0588-14.7-15.0588,3.9941-12-2.5312-22.8235-2.5312-22.8235,0,0,32.6429-8.4706,33.7018,15.6471Z" style="fill:none; stroke-width:0px;"/></clipPath></defs><path d="m97.2682,370.1956c-2.4911-2.6499-4.9726-5.2972-7.4612-7.9568.5308,6.8037-1.6945,13.7695-6.0594,19.0115s-10.8205,8.69-17.6057,9.3906c21.2348-13.128,11.2389-36.7616,11.2389-36.7616-5.5851,3.0307-8.7007.603-8.7007.603,6.8586-11.6024,1.2413-29.554.1903-49.1762-1.051-19.6222,28.8771-31.0637,28.8771-31.0637-4.9396,2.9687-17.5136,15.6899-17.5136,15.6899-2.4645,1.847-4.3654,4.4367-5.3901,7.3538-2.8004,7.9232,1.0483,16.525,5.015,23.939,8.2768,15.4629,17.7733,31.4441,17.4094,48.9705Z" style="fill:#d3e1f6; stroke-width:0px;"/><path d="m66.1419,390.641c2.9804-5.3173,5.2693-11.0386,6.7711-16.9509-8.2726,11.1582-23.3477,16.7886-36.904,13.7759,6.036-1.2019,10.4868-6.1742,14.4752-10.8725-5.2555,1.7422-10.9929,1.978-16.3824.6925,7.7584-1.2775,14.4622-7.5522,16.2474-15.2189,2.4407-10.4718-3.6594-20.7641-6.764-31.0646-3.1808-10.5676-3.1836-22.1804.6317-32.5381,3.825-10.3552,11.5523-19.3408,21.5196-24.0892,9.9745-4.7363,22.1102-5.0079,32.011-.1328,0,0-29.928,11.4415-28.8771,31.0637,1.051,19.6222,6.6683,37.5738-.1903,49.1762,0,0,3.1156,2.4277,8.7007-.603,0,0,9.996,23.6336-11.2389,36.7616Z" style="fill:#698cbd; stroke-width:0px;"/><path d="m97.7475,274.2424c-9.9008-4.8751-22.0365-4.6035-32.011.1328-9.9673,4.7485-17.6946,13.734-21.5196,24.0892-3.8153,10.3577-3.8125,21.9704-.6317,32.5381,3.1047,10.3004,9.2047,20.5928,6.764,31.0646-1.7853,7.6667-8.489,13.9414-16.2474,15.2189,5.3896,1.2855,11.1269,1.0496,16.3824-.6925-3.9885,4.6983-8.4392,9.6706-14.4752,10.8725,13.5562,3.0128,28.6313-2.6176,36.904-13.7759-1.5017,5.9123-3.7906,11.6335-6.7711,16.9509,6.7852-.7007,13.2408-4.1487,17.6057-9.3906s6.5902-12.2078,6.0594-19.0115c2.4886,2.6595,4.9701,5.3069,7.4612,7.9568.3638-17.5263-9.1326-33.5076-17.4094-48.9705-3.9667-7.414-7.8155-16.0158-5.015-23.939,1.0247-2.9171,2.9257-5.5068,5.3901-7.3538,0,0,12.574-12.7212,17.5136-15.6899Z" style="fill:none; stroke:#000; stroke-linecap:round; stroke-linejoin:round; stroke-width:3px;"/><path d="m97.7475,274.2424s-29.928,11.4415-28.8771,31.0637c1.051,19.6222,6.6683,37.5738-.1903,49.1762,0,0,3.1156,2.4277,8.7007-.603,0,0,9.996,23.6336-11.2389,36.7616" style="fill:none; stroke:#000; stroke-linecap:round; stroke-linejoin:round; stroke-width:3px;"/><path d="m140.8594,354.8529s3.2077,14.1471,3.3324,20.2721c.1392,6.8418,2.9118,16.7309-11.3824,16.45s-23.9294,5.4544-22.95-12.3691c.9794-17.8235-4.9503-21.5-.362-27.5882s29.925-4.5975,31.362,3.2353Z" style="fill:#698cbd; stroke:#000; stroke-linecap:round; stroke-linejoin:round; stroke-width:3px;"/><path d="m156.6316,388.6117s3.619,4.7119,14.119,7.2707,12.8617,3.2841,14.9897,8.0391,1.1218,15.2514-3.7559,18.255-9.2961,6.8093-24.775,3.6735-17.3281-5.1141-27.35-2.441-18.9147,5.344-20.6-7.209c-1.6853-12.553-1.0676-16.6706,2.55-17.7s-4.798-10.0059-4.0755-14.65c2.2437.99.6514,3.9794,10.0399,4.3s9.9179.603,16.4473-.95,12.2621-2.859,22.4105,1.4116" style="fill:#2e7b5b;"/><g style="clip-path:url(#b);"><path d="m167.171,385.8235s-19.7784-2.0294-25.5259,8.4265,6.0643,6.7506,6.0643,6.7506c0,0,4.6763,3.5935,5.6528-.8506s14.653,10.1971,12.4472.45c3.8824.4239,42.8703,8.1647,1.3616-14.7765Z" style="fill:#193425; stroke-width:0px;"/><path d="m182.6094,397.4412s2.8294,6.275-2.75,5.6963c-5.5794-.5787-15.3441-3.9875-15.3441-3.9875,0,0,1.3529,3.7853-1.2353,5.95-2-2.1294-2.7647-6.1353-9.8824-5.75-.9412,1.3265-2.2882,4.6-2.2882,4.6,0,0-5.2412-6.2971-17.9471-1.05-12.7059,5.2471-21.4176,2.1-28.0029-4.4-6.5853-6.5-5.6147,14.875-5.6147,14.875,0,0,9.1995,4.8003,21.4388.3597s21.3259-10.0347,21.3259-10.0347c0,0,3.3824,5.1529,11.8529,6.9176s1.2971-6.9176,1.2971-6.9176c0,0,5.7382,7.4941,12.5,7.25,6.7618-.2441.8269-5.85.8269-5.85,0,0,21.6114,10.9059,19.0231-2.2" style="fill:#42abe4; stroke:#000; stroke-linecap:round; stroke-linejoin:round; stroke-width:3px;"/><path d="m166.427,426.7206s2.5706-3.6618.9324-6.1324c-2.8273.0768-9.6676-.2647-18.3147-2.25-8.6471-1.9853-16.325-2.2616-21.4412-1.3235s-18.3441-.8147-18.3441-.8147c0,0,.3403,9.2386,7.8422,9.3943s18.7519-5.3149,28.1048-2.1825,21.2206,3.3088,21.2206,3.3088Z" style="fill:#2b4d3c; stroke-width:0px;"/><path d="m185.6737,410.7059c-2.1731,1.9853-4.7319,8.1176-17.2613,9.75.3529,1.6324-.6618,6.7774-.6618,6.7774,0,0,16.5647-1.697,17.4588-8.5167s.4643-8.0108.4643-8.0108Z" style="fill:#53b791; stroke-width:0px;"/></g><path d="m156.6316,388.6117s3.619,4.7119,14.119,7.2707,12.8617,3.2841,14.9897,8.0391,1.1218,15.2514-3.7559,18.255-9.2961,6.8093-24.775,3.6735-17.3281-5.1141-27.35-2.441-18.9147,5.344-20.6-7.209c-1.6853-12.553-1.0676-16.6706,2.55-17.7s-4.798-10.0059-4.0755-14.65c2.2437.99.6514,3.9794,10.0399,4.3s9.9179.603,16.4473-.95,12.2621-2.859,22.4105,1.4116" style="fill:none; stroke:#000; stroke-linecap:round; stroke-linejoin:round; stroke-width:3px;"/><path d="m186.2612,409.3328c-3.6735,5.8263-9.8919,10.032-16.7011,11.0692-9.3295,1.4211-18.503-2.8767-27.8791-3.9481-2.3434-.2678-4.7099-.333-7.0645-.1947-4.2636.2505-8.465,1.1647-12.7251,1.4689s-8.7247-.0538-12.4409-2.1588" style="fill:none; stroke:#000; stroke-linecap:round; stroke-linejoin:round; stroke-width:3px;"/><path d="m156.6316,388.6117s.9164-6.5681-3.4235-8.9575c-4.3399-2.3894-8.0458-1.5071-10.3987,2.7282s-1.0071,16.1176-1.0071,16.1176c0,0,5.5339-9.1296,14.8294-9.8883Z" style="fill:#5ea28d; stroke:#000; stroke-linecap:round; stroke-linejoin:round; stroke-width:3px;"/><path d="m167.171,427.1091c.4427-.1922.6455-.6991.7746-1.1642.3209-1.1564.4567-2.364.4007-3.5628-.0108-.2311-.0335-.4755-.1701-.6623" style="fill:none; stroke:#000; stroke-linecap:round; stroke-linejoin:round; stroke-width:3px;"/><path d="m71.927,357.0588s-3.5206,17.1353-17.6426,33.1412c-14.1221,16.0059-27.8515,1.8471-29.075-1.25s3.6-34.9794,9.3647-42.1559c5.7647-7.1765,39.2941-7.1176,37.3529,10.2647Z" style="fill:#698cbd; stroke:#000; stroke-linecap:round; stroke-linejoin:round; stroke-width:3px;"/><path d="m16.6394,396.34c-3.65,3.25-5.03,8.57-4.24,13.4.16.98.41,1.96.93,2.8.21.35.47.66.75.95.86.85,2,1.42,3.18,1.74,1.01.27,2.04.37,3.09.42.18.01.37.01.56.02v-.03c-2.04-2.45-3.34-5.51-3.7-8.68-.24-2.13.01-4.46,1.4-6.1-1,.28-2.11-.75-1.9-1.76.11-.54.49-.98.87-1.38.89-.98,1.78-1.96,2.69-2.94l-.7-.64c-.99.71-2.02,1.38-2.93,2.2Z" style="fill:#2e7b5b; stroke-width:0px;"/><path d="m13.4494,413.54c-.25,3.34.1,6.72,1.05,9.93l.45-.13c.62-1.44,1.28-2.87,2.14-4.18.85-1.31,1.93-2.5,3.25-3.33l.01-.18c-1.05-.05-2.08-.15-3.09-.42-1.18-.32-2.32-.89-3.18-1.74l-.63.05Z" style="fill:#2b4d3c; stroke-width:0px;"/><path d="m14.4994,423.47c.01.03.02.07.03.1.49,1.64,1.29,3.41,2.88,4.05.76.3,1.59.3,2.41.3,12.76,0,25.52-.01,38.29-.01.41,0,.85,0,1.22-.2.26-.14.46-.35.65-.57.79-.88,1.55-1.79,2.24-2.75-.88-3.53-3.39-6.62-6.66-8.2-1.56-.12-3.13-.14-4.7-.16-.58-.01-1.16-.01-1.74-.02-9.01-.1-18.01-.22-27.02-.32-.4,0-.8-.01-1.19-.02-.19-.01-.38-.01-.56-.02l-.01.18c-1.32.83-2.4,2.02-3.25,3.33-.86,1.31-1.52,2.74-2.14,4.18l-.45.13Z" style="fill:#53b791; stroke-width:0px;"/><path d="m20.2694,394.78c-.91.98-1.8,1.96-2.69,2.94-.38.4-.76.84-.87,1.38-.21,1.01.9,2.04,1.9,1.76-1.39,1.64-1.64,3.97-1.4,6.1.36,3.17,1.66,6.23,3.7,8.68-.08-4.42-.78-7.74,1.45-11.56-.2-.29-.39-.61-.39-.96.01-.44.31-.82.62-1.14.7-.75,1.53-1.29,2.3-1.94-.48-.52-1.61-.81-2.28-1.12.86-.69,1.72-1.37,2.57-2.06.48-.37.99-.84.98-1.44-.54-.26-1.07-.53-1.61-.79.83-.37,1.65-.78,2.3-1.42.64-.63,1.09-1.51,1.01-2.42h.01c-.34-.82-.59-1.68-.73-2.56l-.74.12-4.66,3.8c-.08.25-.27.44-.46.61-.54.5-1.12.95-1.71,1.38l.7.64Z" style="fill:#42abe4; stroke-width:0px;"/><path d="m22.3594,404.08c-2.23,3.82-1.53,7.14-1.45,11.56v.03c.39.01.79.02,1.19.02,9.01.1,18.01.22,27.02.32l.01-1.21c-.13-.02-.16-.19-.15-.31.09-1.41.73-2.71,1.28-4,.77-1.79,1.39-3.65,1.85-5.54l-1.19-.29c-1.25,1.38-3.2,2.08-5.04,1.81-1.05-.16-2.02-.6-3.02-.94-2.87-1-5.95-1.04-8.94-.63-1.5.2-2.99.51-4.47.85-1.21.28-2.38.82-3.65.83-1.4.01-2.7-1.44-3.44-2.5Z" style="fill:#5ea28d; stroke-width:0px;"/><path d="m24.8994,379.66c-3.57,2.3-5.09,7.32-3.4,11.23.17.4.38.85.24,1.26l4.66-3.8.74-.12c-.21-1.19-.23-2.4-.08-3.6l-.2-.15c-.94-.17-1.63-1.04-1.89-1.96-.26-.93-.16-1.91-.07-2.86Z" style="fill:#2e7b5b; stroke-width:0px;"/><path d="m21.9694,403.12c0,.35.19.67.39.96.74,1.06,2.04,2.51,3.44,2.5,1.27-.01,2.44-.55,3.65-.83,1.48-.34,2.97-.65,4.47-.85,2.99-.41,6.07-.37,8.94.63,1,.34,1.97.78,3.02.94,1.84.27,3.79-.43,5.04-1.81l1.19.29h.01c.24-.99.44-2,.6-3.01.02-.16.05-.33.16-.44.23-.25.63-.12.93.03.85.41,1.7.83,2.54,1.24.42-2.95-1.3-6.04-.35-8.86.03-.11.07-.21.16-.28.09-.08.23-.1.35-.09l-2.04-1.22c-.06.09-.12.18-.19.28-.44-1.42-3.42-3.4-5.03-4.38-2.02-1.23-4.13-2.28-6.45-2.7-3.9-.7-8.02-.64-11.72.79-1.04.4-2.12.98-2.57,2.01-.34.79-.24,1.73-.63,2.5,0-.01-.01-.02-.01-.03h-.01c.08.91-.37,1.79-1.01,2.42-.65.64-1.47,1.05-2.3,1.42.54.26,1.07.53,1.61.79.01.6-.5,1.07-.98,1.44-.85.69-1.71,1.37-2.57,2.06.67.31,1.8.6,2.28,1.12-.77.65-1.6,1.19-2.3,1.94-.31.32-.61.7-.62,1.14Z" style="fill:#193425; stroke-width:0px;"/><path d="m26.8594,384.48l.2.15c-.15,1.2-.13,2.41.08,3.6.14.88.39,1.74.73,2.56,0,.01.01.02.01.03.39-.77.29-1.71.63-2.5.45-1.03,1.53-1.61,2.57-2.01,3.7-1.43,7.82-1.49,11.72-.79,2.32.42,4.43,1.47,6.45,2.7,1.61.98,4.59,2.96,5.03,4.38.07-.1.13-.19.19-.28.82-1.36.26-2.28.78-4.69l2.24-.08c-.12-.21-.24-.42-.37-.63-.89.2-1.83.34-1.92.08-1.2-3.51-4.5-5.87-7.87-7.43-4.24-1.96-9.03-3.04-13.63-2.19-1.06.2-2.12.51-3.03,1.09-2.04,1.31-2.98,3.74-3.81,6.01Z" style="fill:#5ea28d; stroke-width:0px;"/><path d="m48.9794,414.49c-.01.12.02.29.15.31.1.01.17-.08.23-.16,1.58-2.17,4.75-2.39,6.89-4.02.59-.44,1.09-.99,1.48-1.6.28-.44.51-.94.48-1.45-.03-.73-1.25-1.59-1.96-1.72,1.73.41,2.48-.18,3.76-1.41,1.03-.99,1.27-2.69.56-3.93-.5-.86-1.41-1.52-1.62-2.49,1.25.61,2.91.1,3.7-1.06.18-.27.32-.56.4-.87.3-1.02.1-2.19-.53-3.06-.34-.47-.78-.86-1.16-1.31-1.19-1.43-1.7-3.57-3.4-4.35l-.14-.63c-.21.06-.46.12-.7.18.13.21.25.42.37.63.81,1.51,1.35,3.17,1.61,4.87.09.58.08,1.3-.44,1.58-.66.35-1.39-.4-2.15-.46-.12-.01-.26.01-.35.09-.09.07-.13.17-.16.28-.95,2.82.77,5.91.35,8.86-.84-.41-1.69-.83-2.54-1.24-.3-.15-.7-.28-.93-.03-.11.11-.14.28-.16.44-.16,1.01-.36,2.02-.6,3.01h-.01c-.46,1.89-1.08,3.75-1.85,5.54-.55,1.29-1.19,2.59-1.28,4Z" style="fill:#42abe4; stroke-width:0px;"/><path d="m55.5594,416.19c.72.05,1.45.13,2.17.24.85.13,1.69.31,2.55.26,1.81-.11,3.44-1.26,4.51-2.72.18-.25.34-.5.49-.76.77-1.3,1.25-2.75,1.63-4.22.57-2.13.99-4.33.78-6.53-.22-2.19-1.13-4.39-2.84-5.78.01-.03.01-.05.02-.08l-1.82-.51c-.08.31-.22.6-.4.87-.79,1.16-2.45,1.67-3.7,1.06.21.97,1.12,1.63,1.62,2.49.71,1.24.47,2.94-.56,3.93-1.28,1.23-2.03,1.82-3.76,1.41.71.13,1.93.99,1.96,1.72.03.51-.2,1.01-.48,1.45-.39.61-.89,1.16-1.48,1.6-2.14,1.63-5.31,1.85-6.89,4.02-.06.08-.13.17-.23.16l-.01,1.21c.58.01,1.16.01,1.74.02,1.57.02,3.14.04,4.7.16Z" style="fill:#2e7b5b; stroke-width:0px;"/><path d="m54.4694,392.32l2.04,1.22c.76.06,1.49.81,2.15.46.52-.28.53-1,.44-1.58-.26-1.7-.8-3.36-1.61-4.87l-2.24.08c-.52,2.41.04,3.33-.78,4.69Z" style="fill:#193425; stroke-width:0px;"/><path d="m57.7294,416.43c-.72-.11-1.45-.19-2.17-.24,3.27,1.58,5.78,4.67,6.66,8.2.81-1.12,1.52-2.3,2.09-3.55,1.06-2.34,1.6-4.95,1.23-7.48l-.26-.15c-.15.26-.31.51-.49.76-1.07,1.46-2.7,2.61-4.51,2.72-.86.05-1.7-.13-2.55-.26Z" style="fill:#2b4d3c; stroke-width:0px;"/><path d="m57.8194,386.74l.14.63c1.7.78,2.21,2.92,3.4,4.35.38.45.82.84,1.16,1.31.63.87.83,2.04.53,3.06l1.82.51c.67-2.35,1.24-4.81.9-7.23-.2-1.5-1.79-6.13-3.91-5.02-1.14.6-1.91,1.64-3.18,2.13-.11.04-.44.14-.86.26Z" style="fill:#2e7b5b; stroke-width:0px;"/><path d="m57.8194,386.74c.42-.12.75-.22.86-.26,1.27-.49,2.04-1.53,3.18-2.13,2.12-1.11,3.71,3.52,3.91,5.02.34,2.42-.23,4.88-.9,7.23-.01.03-.01.05-.02.08,1.71,1.39,2.62,3.59,2.84,5.78.21,2.2-.21,4.4-.78,6.53-.38,1.47-.86,2.92-1.63,4.22-.15.26-.31.51-.49.76-1.07,1.46-2.7,2.61-4.51,2.72-.86.05-1.7-.13-2.55-.26-.72-.11-1.45-.19-2.17-.24-1.56-.12-3.13-.14-4.7-.16-.58-.01-1.16-.01-1.74-.02-9.01-.1-18.01-.22-27.02-.32-.4,0-.8-.01-1.19-.02-.19-.01-.38-.01-.56-.02-1.05-.05-2.08-.15-3.09-.42-1.18-.32-2.32-.89-3.18-1.74-.28-.29-.54-.6-.75-.95-.52-.84-.77-1.82-.93-2.8-.79-4.83.59-10.15,4.24-13.4.91-.82,1.94-1.49,2.93-2.2.59-.43,1.17-.88,1.71-1.38.19-.17.38-.36.46-.61.14-.41-.07-.86-.24-1.26-1.69-3.91-.17-8.93,3.4-11.23-.09.95-.19,1.93.07,2.86.26.92.95,1.79,1.89,1.96.83-2.27,1.77-4.7,3.81-6.01.91-.58,1.97-.89,3.03-1.09,4.6-.85,9.39.23,13.63,2.19,3.37,1.56,6.67,3.92,7.87,7.43.09.26,1.03.12,1.92-.08.24-.06.49-.12.7-.18Z" style="fill:none; stroke:#000; stroke-linecap:round; stroke-linejoin:round; stroke-width:3px;"/><path d="m55.2494,387.63c-.52,2.41.04,3.33-.78,4.69-.06.09-.12.18-.19.28-.44-1.42-3.42-3.4-5.03-4.38-2.02-1.23-4.13-2.28-6.45-2.7-3.9-.7-8.02-.64-11.72.79-1.04.4-2.12.98-2.57,2.01-.34.79-.24,1.73-.63,2.5,0-.01-.01-.02-.01-.03-.34-.82-.59-1.68-.73-2.56-.21-1.19-.23-2.4-.08-3.6" style="fill:none; stroke:#000; stroke-linecap:round; stroke-linejoin:round; stroke-width:3px;"/><path d="m57.1194,386.91v.01c.13.21.25.42.37.63.81,1.51,1.35,3.17,1.61,4.87.09.58.08,1.3-.44,1.58-.66.35-1.39-.4-2.15-.46-.12-.01-.26.01-.35.09-.09.07-.13.17-.16.28-.95,2.82.77,5.91.35,8.86-.84-.41-1.69-.83-2.54-1.24-.3-.15-.7-.28-.93-.03-.11.11-.14.28-.16.44-.16,1.01-.36,2.02-.6,3.01h-.01c-.46,1.89-1.08,3.75-1.85,5.54-.55,1.29-1.19,2.59-1.28,4-.01.12.02.29.15.31.1.01.17-.08.23-.16,1.58-2.17,4.75-2.39,6.89-4.02.59-.44,1.09-.99,1.48-1.6.28-.44.51-.94.48-1.45-.03-.73-1.25-1.59-1.96-1.72,1.73.41,2.48-.18,3.76-1.41,1.03-.99,1.27-2.69.56-3.93-.5-.86-1.41-1.52-1.62-2.49,1.25.61,2.91.1,3.7-1.06.18-.27.32-.56.4-.87.3-1.02.1-2.19-.53-3.06-.34-.47-.78-.86-1.16-1.31-1.19-1.43-1.7-3.57-3.4-4.35" style="fill:none; stroke:#000; stroke-linecap:round; stroke-linejoin:round; stroke-width:3px;"/><path d="m50.9194,404.66c-1.25,1.38-3.2,2.08-5.04,1.81-1.05-.16-2.02-.6-3.02-.94-2.87-1-5.95-1.04-8.94-.63-1.5.2-2.99.51-4.47.85-1.21.28-2.38.82-3.65.83-1.4.01-2.7-1.44-3.44-2.5-.2-.29-.39-.61-.39-.96.01-.44.31-.82.62-1.14.7-.75,1.53-1.29,2.3-1.94-.48-.52-1.61-.81-2.28-1.12.86-.69,1.72-1.37,2.57-2.06.48-.37.99-.84.98-1.44-.54-.26-1.07-.53-1.61-.79.83-.37,1.65-.78,2.3-1.42.64-.63,1.09-1.51,1.01-2.42" style="fill:none; stroke:#000; stroke-linecap:round; stroke-linejoin:round; stroke-width:3px;"/><path d="m65.5394,413.36c.37,2.53-.17,5.14-1.23,7.48-.57,1.25-1.28,2.43-2.09,3.55-.69.96-1.45,1.87-2.24,2.75-.19.22-.39.43-.65.57-.37.2-.81.2-1.22.2-12.77,0-25.53.01-38.29.01-.82,0-1.65,0-2.41-.3-1.59-.64-2.39-2.41-2.88-4.05-.01-.03-.02-.07-.03-.1-.95-3.21-1.3-6.59-1.05-9.93" style="fill:none; stroke:#000; stroke-linecap:round; stroke-linejoin:round; stroke-width:3px;"/><path d="m55.5294,416.17c.01,0,.02.01.03.02,3.27,1.58,5.78,4.67,6.66,8.2.02.08.04.15.06.23" style="fill:none; stroke:#000; stroke-linecap:round; stroke-linejoin:round; stroke-width:3px;"/><path d="m20.3394,415.83c-1.32.83-2.4,2.02-3.25,3.33-.86,1.31-1.52,2.74-2.14,4.18" style="fill:none; stroke:#000; stroke-linecap:round; stroke-linejoin:round; stroke-width:3px;"/><line x1="21.7394" y1="392.15" x2="26.3994" y2="388.35" style="fill:none; stroke:#000; stroke-linecap:round; stroke-linejoin:round; stroke-width:3px;"/><path d="m22.3594,404.08c-2.23,3.82-1.53,7.14-1.45,11.56-2.04-2.45-3.34-5.51-3.7-8.68-.24-2.13.01-4.46,1.4-6.1-1,.28-2.11-.75-1.9-1.76.11-.54.49-.98.87-1.38.89-.98,1.78-1.96,2.69-2.94.03-.05.08-.09.12-.14" style="fill:none; stroke:#000; stroke-linecap:round; stroke-linejoin:round; stroke-width:3px;"/><path d="m135.6819,260.35s3.3275,4,3.3275,13.1c0,9.1,5.8,58.5265,8.0353,61.7,0,0,2.6956.9758,2.8772,4.3688s.9081,11.2754,1.6625,17.7459c.7544,6.4706-30.6574,9.7294-49.1279,4.3353,1.8824-13.9824,1.0214-37.4499-4.5481-44.3044s-9.906,16.8005-11.3848,21.2083-5.3612,20.1372-7.7141,23.096-15.1698,3.8577-31.1731-2.9447-18.129-15.1922-17.6769-17.273,1.6813-4.9305,4.0892-7.6417,8.9902-26.7759,11.1108-36.3906c2.1206-9.6147,10.3228-29.9194,13.1629-34.6494s71.0557-7.03,77.3596-2.3506Z" style="fill:#2e556b; stroke-width:0px;"/><path d="m101.3976,294.7647c-.9265,1.3676-3.9958,2.0387-5.6029,2.3824-1.1542-2.7841-2.2895-5.5964-3.0909-8.5018-.4515-1.6371-.5255-3.3511-.5969-5.0479-.1486-3.5319-.2891-7.136.6847-10.5342.1269-.4428.283-.8981.6097-1.2227.5288-.5252,1.3522-.5757,2.0973-.5894,2.7722-.0512,5.5456-.0336,8.3169.053-.0121,2.1601-2.7427,23.4607-2.4179,23.4607Z" style="fill:#383e50; stroke:#000; stroke-linecap:round; stroke-linejoin:round; stroke-width:3px;"/><path d="m139.0094,281.9s-10.8471,3.5059-20.1412,2.7c-1.5088.1203,2.1349,19.125,3.5912,18.8412s18.9971-2.6471,17.8206-7.7059" style="fill:#383e50; stroke:#000; stroke-linecap:round; stroke-linejoin:round; stroke-width:3px;"/><path d="m118.6911,288.6666s-.4573-9.5195.5183-17.2842" style="fill:#383e50; stroke:#000; stroke-linecap:round; stroke-linejoin:round; stroke-width:3px;"/><path d="m51.2098,280.8369c1.1255-2.4265,2.4706-1.4713,4.3538-.4027,2.1172,1.2014,4.3005,2.2861,6.5367,3.2481.6135.2639,7.4538,2.9238,7.5246,2.7115-1.3213,4.0898-4.9642,6.9174-7.4613,10.4154-1.6307,2.2844-2.7846,4.8827-4.4372,7.1512-3.9042-2.3814-7.8083-4.7627-11.7125-7.1441-.1584-.0966-.324-.2007-.4118-.3641-.1407-.2622-.0384-.5831.0659-.8618" style="fill:#383e50; stroke:#000; stroke-linecap:round; stroke-linejoin:round; stroke-width:3px;"/><path d="m135.6819,260.35s3.3275,4,3.3275,13.1c0,9.1,5.8,58.5265,8.0353,61.7,0,0,2.6956.9758,2.8772,4.3688s.9081,11.2754,1.6625,17.7459c.7544,6.4706-30.6574,9.7294-49.1279,4.3353,1.8824-13.9824,1.0214-37.4499-4.5481-44.3044s-9.906,16.8005-11.3848,21.2083-5.3612,20.1372-7.7141,23.096-15.1698,3.8577-31.1731-2.9447-18.129-15.1922-17.6769-17.273,1.6813-4.9305,4.0892-7.6417,8.9902-26.7759,11.1108-36.3906c2.1206-9.6147,10.3228-29.9194,13.1629-34.6494s71.0557-7.03,77.3596-2.3506Z" style="fill:none; stroke:#000; stroke-linecap:round; stroke-linejoin:round; stroke-width:3px;"/><path d="m131.3094,267.2147s11.1235,32.2088,16.9,47.8353c5.7765,15.6265.6-2.7.6-2.7,0,0,5.1671,8.2501,4.925,10.4735s-2.0685,4.5882-3.1806,5.8676-2.9209,2.3824-9.3179-7.4559-21.6559-42.8941-20.7765-47.7853c.8794-4.8912,8.1147-8.1088,10.85-6.2353Z" style="fill:#7bc85e; stroke:#000; stroke-linecap:round; stroke-linejoin:round; stroke-width:3px;"/><path d="m77.6149,276.35s-3.7937,21.1383-45.0055,48.85c-4.6-9-2.7834-10.8301-2.7035-13.7945,3.5778-2.5319,12.1976-6.3173,12.1976-6.3173,0,0-8.0706,9.6441.9059,2.5868s24.7706-36.9985,29.6235-36.2927c4.8529.7059,4.9345.5824,4.982,4.9677Z" style="fill:#7bc85e; stroke:#000; stroke-linecap:round; stroke-linejoin:round; stroke-width:3px;"/><g id="c"><path d="m117.4939,192.1522s5.8388-21.4179-16.9631-24.241c-22.8018-2.8232-51.8418-4.2887-45.5326,26.6545,6.3092,30.9432,61.7053,17.0875,62.4956-2.4135Z" style="fill:#111414; stroke:#111414; stroke-miterlimit:10;"/><path d="m119.3571,185.1977s3.0149,37.0397,8.4084,52.0779c5.3936,15.0383,7.0814,23.8635,7.0814,23.8635,0,0-5.3603,15.4191-29.0303,18.9205s-47.7109-4.1809-49.1331-8.2552,1.3404-10.6849-.4124-18.3025c-1.7528-7.6176-1.24-63.6353-1.24-63.6353" style="fill:#111414; stroke:#000; stroke-linecap:round; stroke-linejoin:round; stroke-width:3px;"/><path d="m119.3571,185.1977s3.0149,37.0397,8.4084,52.0779c5.3936,15.0383,7.0814,23.8635,7.0814,23.8635,0,0-5.3603,15.4191-29.0303,18.9205s-47.7109-4.1809-49.1331-8.2552,1.3404-10.6849-.4124-18.3025c-1.7528-7.6176-1.24-63.6353-1.24-63.6353" style="fill:none; stroke:#000; stroke-linecap:round; stroke-linejoin:round; stroke-width:3px;"/><path d="m111.0313,227.0563c-.0591-.6166-.152-1.228-.2783-1.8312l-.0184.0019c-1.7642-8.4086-9.0465-10.9574-8.4611-19.7621,0,0-10.7343,4.6094-.4186,18.3358.774,1.0299,1.4055,2.0175,1.9366,2.9723.0875.3954.1572.7954.1921,1.2018.4017,4.9708-3.1627,9.4452-7.962,9.9309h-.0002c-4.7943.4852-8.9094-3.2042-9.1924-8.1778-.0362-.689.0041-1.3818.1196-2.0647l-.0426.0044c.6728-2.7595,1.9763-5.7131,4.2267-8.753,13.1109-17.7105-.2222-24.4545-2.7902-24.0536h0s2.9225,3.607-2.7161,16.4594c-1.2932-1.2882-2.6321-3.8379-1.1818-8.5595-.0005.0003-9.7805,5.6469-3.0674,17.586-3.9411,9.9906-1.2339,16.3502,2.2058,20.0534.0631.07.1296.1361.1938.2049.1828.1901.3666.3726.552.5481.6423.6214,1.3345,1.1836,2.073,1.6828.2142.1472.4248.2857.6304.4141.1043.0632.2078.127.3137.1878,1.1872.7047,2.1726,1.0899,2.6361,1.1952l-.0002-.0003c1.9851.6738,4.1472.9438,6.3936.7183.7911-.0794,1.556-.2366,2.3072-.4282-.1092.0586-.1718.0894-.1718.0894,0,0,.8336-.1944,2.0694-.7019.7886-.3121,1.547-.68,2.2692-1.1085,3.6412-2.0738,8.2522-6.2529,8.268-14.1086.0012-.5796-.0273-1.1287-.0706-1.6623-.0086-.1254-.004-.2489-.0154-.3746h0Z" style="fill:#84db7b; stroke-width:0px;"/><polygon points="100.0284 201.0274 100.0285 201.0274 100.0285 201.0274 100.0284 201.0274" style="fill:#84db7b; stroke-width:0px;"/><path d="m67.3597,166.5301s-14.1605.2428-22.6815,11.1702c-8.521,10.9274.1928,35.1889,4.1867,42.3024s13.1723,3.8353,19.0518,1.407c0,0,10.7205-3.0081,9.1472-6.7856s-8.6961-21.5466-12.1542-27.839" style="fill:#111414; stroke:#000; stroke-linecap:round; stroke-linejoin:round; stroke-width:3px;"/><path d="m63.1858,262.4412s30.5882,15.9901,63.5294-4.652" style="fill:none; stroke:#000; stroke-linecap:round; stroke-linejoin:round; stroke-width:3px;"/><path d="m48.8088,218.5096s-.4963,6.4713,2.926,10.437.2744-9.8907,12.9803-14.0216c12.7059-4.1309,12.5062-1.5427,12.5062-1.5427,0,0,1.4534-3.3529-1.3297-5.6945s-18.8716-4.7569-27.0828,10.8217Z" style="fill:#283131; stroke:#000; stroke-linecap:round; stroke-linejoin:round; stroke-width:3px;"/><path d="m52.8329,229.2647s3.6878,9.7028,18.0204,11.9691,20.4885-10.5573,31.1752-13.4985,8.9694-11.515,1.9609-13.5516-18.0977-2.919-23.6271-1.6248-28.5882-2.1176-27.5294,16.7059Z" style="fill:#698cbd; stroke:#000; stroke-linecap:round; stroke-linejoin:round; stroke-width:3px;"/><path d="m97.768,212.8321s10.4178-.0674,18.5943,1.4179,8.1938,2.4492,10.3322,4.3496-8.6531,10.018-14.4632,9.371-11.2219,2.4118-10.0454-3,.3996-8.5123-4.4178-12.1385Z" style="fill:#df5959; stroke:#000; stroke-linecap:round; stroke-linejoin:round; stroke-width:3px;"/><path d="m127.4279,208.8691s.0552,5.6784,2.165,14.9902c5.6421,24.9024,20.0117,20.5636,23.0738,12.048,3.0621-8.5156-1.1302-20.4462-3.6467-21.2693s-11.5296-14.305-21.5921-5.7688Z" style="fill:#698cbd; stroke:#000; stroke-linecap:round; stroke-linejoin:round; stroke-width:3px;"/><path d="m109.0682,168.3235s21.512.3721,25.0153,12.7743,15.1521,28.8728,13.5381,32.2846-16.0086,7.5559-22.6215,1.5427c-6.6128-6.0132-4.7781-25.4183-8.9515-29.4217" style="fill:#111414; stroke:#000; stroke-linecap:round; stroke-linejoin:round; stroke-width:3px;"/><path d="m122.8365,212.8947s-.2831,1.9619,2.2809,5.143,8.9162,3.9533,17.8415,1.7584,6.8197-7.4891,6.8197-7.4891c0,0-1.4323-4.7647-3.7642-3.1765s-4.1812,2.9118-14.2322,4.3235-8.9456-.5593-8.9456-.5593Z" style="fill:#283131; stroke:#000; stroke-linecap:round; stroke-linejoin:round; stroke-width:3px;"/><path d="m149.9949,239.5818c-8.0077,8.8413-39.7828,13.3164-61.5711-4.3502,0,0,31.7075-13.3774,47.3286-14.9281,5.7822-.574,9.9071.3722,12.6302,2.2268" style="fill:#698cbd; stroke-width:0px;"/><path d="m106.8696,228.2073l-18.4457,7.2747,16.5634,9.1176s-2.539-6.4752,1.8824-16.3923Z" style="fill:#df5959; stroke-width:0px;"/><path d="m149.9949,239.5818c-8.0077,8.8413-39.7828,13.3164-61.5711-4.3502,0,0,31.7075-13.3774,47.3286-14.9281,5.7822-.574,9.9071.3722,12.6302,2.2268" style="fill:none; stroke:#000; stroke-linecap:round; stroke-linejoin:round; stroke-width:3px;"/><path d="m107.4464,227.9377s-5.9483,9.3757-2.1498,16.0228" style="fill:none; stroke:#000; stroke-linecap:round; stroke-linejoin:round; stroke-width:3px;"/><path d="m66.4052,167.7932c2.7377-1.2727,7.0763-2.4895,13.7445-3.2473,14.6645-1.6738,22.4102,2.2465,22.4102,2.2465,0,0,3.6917,1.7892,6.0802,3.2066l.01.0008c.9748.5746,1.7239,1.0899,1.9185,1.3975.6734,1.0508-3.5524,12.7449-22.0594,13.9314-18.507,1.1865-26.3256-11.3208-26.3788-13.2924-.0198-1.0655.9728-2.7073,4.2748-4.2431Z" style="fill:#283131; stroke:#000; stroke-linecap:round; stroke-linejoin:round; stroke-width:3px;"/></g><g id="d"><g id="e"><path d="m99.5489,155.6594s-.1324,12.6757,2.2294,16.036-12.6271,7.2924-18.7,6.1993c-11.7647-2.1176-18.6941-3.0588-14.7-15.0588,3.9941-12-2.5312-22.8235-2.5312-22.8235,0,0,32.6429-8.4706,33.7018,15.6471Z" style="fill:#698cbd; stroke-width:0px;"/><g style="clip-path:url(#f);"><path d="m77.4783,146.7182s-5.6353,6.4647-1.2235,13.8647c4.4118,7.4,3.4412,5.5,3.4412,5.5,0,0-1.7647.3118-4.7647-1.7177s-.3759,10.0895,4.7091,13.2065,39.3203,9.2935,23.8791-21.7653-26.0412-9.0882-26.0412-9.0882Z" style="fill:#d3e1f6; stroke-width:0px;"/></g><path d="m99.5489,155.6594s-.1324,12.6757,2.2294,16.036-12.6271,7.2924-18.7,6.1993c-11.7647-2.1176-18.6941-3.0588-14.7-15.0588,3.9941-12-2.5312-22.8235-2.5312-22.8235,0,0,32.6429-8.4706,33.7018,15.6471Z" style="fill:none; stroke:#000; stroke-linecap:round; stroke-linejoin:round; stroke-width:3px;"/><path d="m69.3264,158.9829s1.5737,8.7728,19.3863,9.9c12.642.8,10.0421-9.9,10.0421-9.9" style="fill:none; stroke:#000; stroke-linecap:round; stroke-linejoin:round; stroke-width:3px;"/></g><path d="m142.8817,98.1622s21.0412-8.3375,24.9458-30.2985-8.7089-51.3939-8.7089-51.3939c0,0,.8311,2.8219-12.2106,17.732-13.0417,14.9101-32.1726,44.742-4.0263,63.9604Z" style="fill:#698cbd; stroke:#000; stroke-linecap:round; stroke-linejoin:round; stroke-width:3px;"/><path d="m65.5089,143.6451s-2.9511,11.277,1.6537,18.3163c-4.3544-1.0891-7.4151-5.7327-8.2537-9.3597,0,0-2.4629,5.2734.9497,11.2505,0,0-19.8308-21.7931-12.7406-44.7504,7.0901-22.9573,28.5078,10.2163,18.3909,24.5433Z" style="fill:#4dc485; stroke:#000; stroke-linecap:round; stroke-linejoin:round; stroke-width:3px;"/><path d="m137.6474,104.5025s23.7133-20.985,4.1877-52.9382-69.8997-12.0184-69.8997-12.0184c0,0-40.7675,16.7884-31.5273,44.8112,9.2402,28.0228,31.6386,27.5714,31.6386,27.5714,0,0,58.7943,17.4309,65.6006-7.4259Z" style="fill:#698cbd; stroke:#000; stroke-linecap:round; stroke-linejoin:round; stroke-width:3px;"/><path d="m71.8126,38.5422s22.9781-28.1517,69.4423-20.8884c0,0-17.5641,8.1912-19.3759,11.6933,0,0,16.6303-4.3063,44.3477,9.9568,0,0-17.3395,2.0892-19.8367,6.6143,0,0,22.4287,7.4495,29.6289,39.2683,0,0-15.9944-19.8648-27.6749-20.9585s-35.7081-6.6889-49.9848-14.1377c-14.2767-7.4489-20.8264-4.8403-20.8264-4.8403l-5.7201-6.7077Z" style="fill:#4dc485; stroke:#000; stroke-linecap:round; stroke-linejoin:round; stroke-width:3px;"/><path d="m80.8832,54.4941s-5.1318-17.855-20.1854-25.4675c-15.0536-7.6125-16.7205-24.2521-16.7205-24.2521,0,0-17.4642,22.7287-15.8315,48.5384,1.6327,25.8097,21.4509,48.1747,21.4509,48.1747" style="fill:#698cbd; stroke:#000; stroke-linecap:round; stroke-linejoin:round; stroke-width:3px;"/><path d="m118.9324,99.3953s-1.2794.9426,23.8825,8.2162,13.9069,25.2154,10.0873,29.3749c-3.8196,4.1595-16.6796,16.11-43.2067,24.3346-3.3139,2.8523-4.0386,10.5839-4.0386,10.5839,0,0-4.2758-1.2766-5.5785-5.3135-1.1742,1.6334-1.5717,5.8742-1.5717,5.8742,0,0-50.0112-21.5147-49.3714-53.9799,0,0-5.1884-1.8003-12.1773.8405,2.4363-6.401,4.9018-7.3697,4.9018-7.3697,0,0-3.8115-3.64-10.5418-2.2868,7.9052-7.7825,26.4784-11.3108,42.4819-8.1523,10.2456,2.0221,29.96,8.2595,45.1325-2.1222Z" style="fill:#d3e1f6; stroke:#000; stroke-linecap:round; stroke-linejoin:round; stroke-width:3px;"/><path d="m140.0266,115.5909s7.0251,1.3381,9.2107,5.3695.7955,6.4651.7955,6.4651c0,0-9.3088,5.1322-11.7314,6.3902s-14.7178-7.3207-14.5125-8.4887-.9717-6.5843,3.9153-7.7757,8.9755-2.2279,12.3224-1.9605Z" style="fill:#2a2a2a; stroke:#000; stroke-linecap:round; stroke-linejoin:round; stroke-width:3px;"/><path d="m38.4543,29.3985s-6.6042,28.6843.9747,45.3961c0,0,6.7717-1.7964,5.98-5.4177" style="fill:#d3e1f6; stroke-width:0px;"/><path d="m35.934,34.4496s.1686-2.9596,3.2996-7.7478c0,0-.5713,21.0504,6.9989,44.8542" style="fill:none; stroke:#000; stroke-linecap:round; stroke-linejoin:round; stroke-width:3px;"/><path d="m79.923,83.5751c6.4685,1.7091,13.0856,2.7492,19.7111,3.1095,2.0469.1725,1.7681,3.202-.2848,2.9865-6.7777-.9175-13.4329-2.5247-19.8322-4.7778-.8136-.2867-.4361-1.5396.4059-1.3181h0Z" style="fill:#134228; stroke-width:0px;"/><path d="m129.5647,87.7268c4.6144.5521,9.1908,1.302,13.7128,2.2446.6183.1262.4937,1.0719-.1392,1.0275-4.5803-.2901-9.1592-.3813-13.7194-.2756-2.1215-.0244-1.9749-3.1765.1458-2.9965h0Z" style="fill:#134228; stroke-width:0px;"/><path d="m91.5964,145.4067c7.0981-1.3393,14.467-1.2268,21.521.3286.7245.1597,1.4605.3406,2.0878.7368s1.1372,1.049,1.1753,1.7899-.5175,1.5189-1.2582,1.5607" style="fill:none; stroke:#000; stroke-linecap:round; stroke-linejoin:round; stroke-width:3px;"/><path d="m100.1827,149.8227l7.6133.9856" style="fill:none; stroke:#000; stroke-linecap:round; stroke-linejoin:round; stroke-width:2px;"/><path d="m81.5556,94.4546c6.1945.4596,12.3666,1.2214,18.487,2.2815-5.093-.165-10.173-.7321-15.177-1.6945" style="fill:none; stroke:#000; stroke-linecap:round; stroke-linejoin:round; stroke-width:3px;"/><path d="m137.1274,100.5813l-8.7885-1.186,5.4657.7376" style="fill:none; stroke:#000; stroke-linecap:round; stroke-linejoin:round; stroke-width:3px;"/><path d="m98.5424,97.8087c-4.967.247-9.9435.3017-14.9147.1638" style="fill:none; stroke:#000; stroke-linecap:round; stroke-linejoin:round; stroke-width:3px;"/><path d="m128.5315,100.0447l7.1022,3.3491" style="fill:none; stroke:#000; stroke-linecap:round; stroke-linejoin:round; stroke-width:3px;"/><path d="m59.255,29.7866s-2.3946,3.4781,1.0466,5.1987,4.9124-1.52,4.9124-1.52" style="fill:#0fad75; stroke:#000; stroke-linecap:round; stroke-linejoin:round; stroke-width:3px;"/><path d="m68.0297,34.0951s-3.7703,2.3167-.8145,5.052,5.5121,0,5.5121,0" style="fill:#0fad75; stroke:#000; stroke-linecap:round; stroke-linejoin:round; stroke-width:3px;"/></g><path d="m183.0683,109.8528l-1.5274.9013c2.7728-2.1384,5.5455-4.2769,8.3183-6.4153,1.1841-.9132,2.4683-2.0016,2.5955-3.4915.1175-1.3765-.8554-2.6606-2.0627-3.3321s-2.6165-.8555-3.9872-1.0274c-.751,4.7538.4736,9.789,3.324,13.6669,1.3764,1.8726,3.2247,4.0575,2.346,6.2091-.5012,1.2273-1.7598,1.9474-2.9582,2.5144-4.6044,2.1785-9.6266,3.4697-14.7108,3.7819.7726-4.1777,3.7729-7.6391,7.2161-10.1279s7.3768-4.1971,11.0651-6.3057c.8466-.484,1.7253-1.0365,2.1525-1.9132.6231-1.2785.054-2.8811-.9654-3.873s-2.3954-1.5111-3.7294-2.0043c-1.5967-.5904-3.2466-1.1897-4.9472-1.1135s-3.4824,1.0028-4.0326,2.6137c-.5923,1.734.3656,3.5787,1.2915,5.1599,2.4773,4.2307,4.9547,8.4613,7.432,12.692-7.7789-.0108-15.5135-3.0707-21.1944-8.3846-1.0981-1.0271-2.2042-2.4202-1.8351-3.8777.408-1.6109,2.3161-2.2451,3.9411-2.5929,7.2487-1.5515,14.5875-2.6821,21.9671-3.3842.3025-2.9542-2.7466-5.2199-5.6545-5.8221-1.9983-.4138-4.1874-.3337-5.9375.716-3.3474,2.0078-3.8819,6.8799-2.3275,10.4605s4.6153,6.2353,7.3877,8.983,5.4623,5.9698,5.8922,9.8494" style="fill:none; stroke:#000; stroke-linecap:round; stroke-linejoin:round; stroke-width:3px;"/></svg>