<?xml version="1.0" encoding="UTF-8"?>
<svg id="Explaining" xmlns="http://www.w3.org/2000/svg" xmlns:xlink="http://www.w3.org/1999/xlink" viewBox="0 0 223.0952 429.85">
  <defs>
    <clipPath id="clippath">
      <path d="M42.5581,388.6117s-3.619,4.7119-14.119,7.2707-12.8617,3.2841-14.9897,8.0391-1.1218,15.2514,3.7559,18.255,9.2961,6.8093,24.775,3.6735,17.3281-5.1141,27.35-2.441,18.9147,5.344,20.6-7.209,1.0676-16.6706-2.55-17.7,4.798-10.0059,4.0755-14.65c-2.2437.99-.6514,3.9794-10.0399,4.3s-9.9179.603-16.4473-.95-12.2621-2.859-22.4105,1.4116" style="fill: #2e7b5b; stroke: #000; stroke-linecap: round; stroke-linejoin: round; stroke-width: 3px;"/>
    </clipPath>
    <clipPath id="clippath-1">
      <path d="M88.7155,153.9109s.1579,12.6754-2.1971,16.0405,12.6418,7.2669,18.7125,6.1616c11.7604-2.1414,18.6879-3.0965,14.6696-15.0884s2.4852-22.8286,2.4852-22.8286c0,0-32.66-8.4048-33.6702,15.715Z" style="fill: none; stroke-width: 0px;"/>
    </clipPath>
    <style>
      #Frame1 {
        animation: 0.3s steps(1) infinite reverse anim;
      }
      #Frame2 {
        animation: 0.3s steps(1) infinite anim;
      }

      @keyframes anim {
        0% {
          opacity: 0;
        }
        50% {
          opacity: 1;
        }
      }
    </style>
  </defs>
  <g>
    <g>
      <path d="M20.9652,155.08c1.22,2.52,1.74,5.38,1.48,8.18-.86.39-1.74.78-2.66.99-.93.2-1.94.19-2.81-.2-1.19-.54-1.96-1.73-2.52-2.91-.57-1.18-1.02-2.45-1.86-3.45l-.03-.28c-.33-1.02-.67-2.07-.72-3.15-.04-1.08.25-2.22,1.02-2.99.57-.57,1.38-.88,2.19-.88.81.01,1.61.34,2.2.88l.54-.54c1.05,1.01,1.97,2.18,2.7,3.46.16.29.32.59.47.89Z" style="fill: #698cbd; stroke-width: 0px;"/>
      <path d="M37.4452,143.46c.32,1.03.52,2.1.73,3.15.62,3.25,1.25,6.5,1.87,9.75l-.58.24c.37.66-.05,1.56-.73,1.89s-1.5.2-2.19-.1c-1.17-.51-2.08-1.48-2.86-2.5-2.32-3.04-3.7-6.65-4.87-10.31l1.17-.38c-.28-.92.01-2,.66-2.73.7-.8,1.78-1.21,2.84-1.25,1.07-.04,2.12.26,3.09.71l.27-.11c.24.53.44,1.08.6,1.64Z" style="fill: #698cbd; stroke-width: 0px;"/>
      <path d="M62.6252,148.78c.36,1.06.05,2.37-.88,3.01l.05.06c-2.72,1.62-5.24,3.56-7.49,5.77l-.42-.43c.86-1.31.93-3.01.56-4.53-.38-1.53-1.17-2.91-1.96-4.26l-.89-.17c1.48-1.22,3.43-1.86,5.36-2.04,1.12-.11,2.27-.07,3.32.33s1.98,1.2,2.35,2.26Z" style="fill: #698cbd; stroke-width: 0px;"/>
      <path d="M43.1152,140.38l-.71.26c-1.17,1.56-3.02,2.61-4.96,2.82-.16-.56-.36-1.11-.6-1.64-.25-.56-.55-1.09-.92-1.59-.81-1.1-1.93-1.94-3.19-2.46l.43-.17c-1.61-5.66-2.61-11.49-2.97-17.36l.09-.01c.15-1.14.53-2.29,1.28-3.15.76-.87,1.94-1.42,3.07-1.21.95.18,1.75.86,2.28,1.67.54.81.84,1.74,1.13,2.66,1.2,3.85,2.27,7.84,1.95,11.86l-.23.18c1.57,2.48,2.34,5.37,3.35,8.14Z" style="fill: #698cbd; stroke-width: 0px;"/>
      <path d="M84.5052,165.85c.54,8.94,4.28,17.52,4.23,26.48-.04,6.24-1.92,12.32-4.14,18.16-1.45,3.84-3.07,7.64-5.32,11.08-1.27,1.95-2.88,3.87-5.11,4.56s-5.13-.42-5.58-2.7v-.03c.09-.19.18-.38.26-.58,2.25-4.96,2.79-10.66,1.52-15.95l-.42-.24c-2.34-6.29-8.73-10.85-15.44-11.03l-.68.24c-.41-1.19-.89-2.37-1.41-3.53l.28-.13c6.35-12.35,17.55-22.13,30.65-26.74l1.16.41Z" style="fill: #111414; stroke-width: 0px;"/>
      <path d="M12.8652,151.27c-.77.77-1.06,1.91-1.02,2.99.05,1.08.39,2.13.72,3.15l.03.28c.84,1,1.29,2.27,1.86,3.45.56,1.18,1.33,2.37,2.52,2.91.87.39,1.88.4,2.81.2.92-.21,1.8-.6,2.66-.99.26-2.8-.26-5.66-1.48-8.18l.69-.33c.41.85.83,1.7,1.26,2.54.46.89.95,1.8,1.7,2.47.98.86,2.38,1.22,3.66.94,1.02-.22,2.02-.96,2.15-1.99l.09-.01c-1.42-4.96-3.52-9.72-6.23-14.11-.12-.22-.25-.44-.39-.65l-.06.04c-.17-.22-.37-.43-.59-.6l1.02-.01c.5-2.16,1.47-4.21,2.85-5.96l.16.12c1.77-.61,3.74-.48,5.46.24,1.26.52,2.38,1.36,3.19,2.46.37.5.67,1.03.92,1.59l-.27.11c-.97-.45-2.02-.75-3.09-.71-1.06.04-2.14.45-2.84,1.25-.65.73-.94,1.81-.66,2.73l-1.17.38c1.17,3.66,2.55,7.27,4.87,10.31.78,1.02,1.69,1.99,2.86,2.5.69.3,1.51.43,2.19.1s1.1-1.23.73-1.89l.58-.24c-.62-3.25-1.25-6.5-1.87-9.75-.21-1.05-.41-2.12-.73-3.15,1.94-.21,3.79-1.26,4.96-2.82l.71-.26c.14.39.29.78.45,1.17,1.26,3.11,3.31,6.21,6.49,7.28l.6.34c.28-.35.6-.66.94-.94l.89.17c.79,1.35,1.58,2.73,1.96,4.26.37,1.52.3,3.22-.56,4.53l.42.43c-3.39,3.31-6.19,7.21-8.22,11.49l-.21-.09c-.6,2.15-1.37,4.25-2.29,6.28l.61.26c-2.44,3.44-6.08,6.01-10.14,7.16-4.05,1.15-8.5.87-12.38-.79-.99-2.05-2.12-4.02-3.4-5.89l-.01.01c-4.43-2.56-7.61-7.17-8.44-12.21l-.74-.76c-.67-3.14-.14-6.53,1.48-9.3.63-2.09,1.65-4.07,2.99-5.79l.13-.11c1.51.71,2.9,1.68,4.11,2.85l-.54.54c-.59-.54-1.39-.87-2.2-.88-.81,0-1.62.31-2.19.88Z" style="fill: #df5959; stroke-width: 0px;"/>
      <path d="M58.2552,225.17c-1.16.71-2.39,1.31-3.67,1.8-2.73,1.04-5.67,1.55-8.59,1.44l-.2.06c-7.26-8.26-14.64-16.71-19.04-26.79-2.58-5.91-4.06-12.24-5.46-18.54l.4-1.16c-.01-.02-.02-.03-.02-.05,3.88,1.66,8.33,1.94,12.38.79,4.06-1.15,7.7-3.72,10.14-7.16l.74-.17c1.45,5.97,4.96,11.31,7.48,16.92.52,1.16,1,2.34,1.41,3.53.34.99.63,2,.85,3.02l1.48-.33c2.23,2.7,4.48,5.42,6.1,8.53,1.62,3.1,2.58,6.66,2.04,10.12-.53,3.46-2.74,6.77-6.02,8.01l-.02-.02Z" style="fill: #698cbd; stroke-width: 0px;"/>
      <path d="M17.7952,150.73c-1.21-1.17-2.6-2.14-4.11-2.85l1.12-.47c.18-1.41,3.84-4.38,5.22-4.75,1.11-.3,2.34,0,3.22.72.22.17.42.38.59.6l.06-.04c.14.21.27.43.39.65l-.77.47c-.37-.69-1.32-1-2.1-.78-.86.24-1.51.96-1.93,1.76-.66,1.24-.87,2.73-.56,4.11l.85.45c.6,1.4,1.22,2.78,1.88,4.15l-.69.33c-.15-.3-.31-.6-.47-.89-.73-1.28-1.65-2.45-2.7-3.46Z" style="fill: #df5959; stroke-width: 0px;"/>
      <path d="M23.5152,145.06l.77-.47c2.71,4.39,4.81,9.15,6.23,14.11l-.09.01c-.13,1.03-1.13,1.77-2.15,1.99-1.28.28-2.68-.08-3.66-.94-.75-.67-1.24-1.58-1.7-2.47-.43-.84-.85-1.69-1.26-2.54-.66-1.37-1.28-2.75-1.88-4.15l-.85-.45c-.31-1.38-.1-2.87.56-4.11.42-.8,1.07-1.52,1.93-1.76.78-.22,1.73.09,2.1.78Z" style="fill: #698cbd; stroke-width: 0px;"/>
      <path d="M70.3652,206.87c1.27,5.29.73,10.99-1.52,15.95l-.52-.23c-1.25,1.43-2.5,2.88-4.01,4.03-1.52,1.15-3.32,2.01-5.21,2.09-1.66.07-3.4-.53-4.52-1.74,1.28-.49,2.51-1.09,3.67-1.8l.02.02c3.28-1.24,5.49-4.55,6.02-8.01.54-3.46-.42-7.02-2.04-10.12-1.62-3.11-3.87-5.83-6.1-8.53l-1.48.33c-.22-1.02-.51-2.03-.85-3.02l.68-.24c6.71.18,13.1,4.74,15.44,11.03l.42.24Z" style="fill: #283131; stroke-width: 0px;"/>
    </g>
    <g>
      <path d="M9.8252,163.84c.83,5.04,4.01,9.65,8.44,12.21" style="fill: none; stroke: #000; stroke-linecap: round; stroke-linejoin: round; stroke-width: 3px;"/>
      <path d="M18.2652,176.02c0,.01.01.01.01.02,1.28,1.87,2.41,3.84,3.4,5.89,0,.02.01.03.02.05" style="fill: none; stroke: #000; stroke-linecap: round; stroke-linejoin: round; stroke-width: 3px;"/>
      <path d="M21.6752,181.93c3.88,1.66,8.33,1.94,12.38.79,4.06-1.15,7.7-3.72,10.14-7.16" style="fill: none; stroke: #000; stroke-linecap: round; stroke-linejoin: round; stroke-width: 3px;"/>
      <path d="M43.5452,175.39c.01-.03.03-.06.04-.09.92-2.03,1.69-4.13,2.29-6.28" style="fill: none; stroke: #000; stroke-linecap: round; stroke-linejoin: round; stroke-width: 3px;"/>
      <path d="M46.0852,169.11c2.03-4.28,4.83-8.18,8.22-11.49,2.25-2.21,4.77-4.15,7.49-5.77" style="fill: none; stroke: #000; stroke-linecap: round; stroke-linejoin: round; stroke-width: 3px;"/>
      <path d="M61.7452,151.79c.93-.64,1.24-1.95.88-3.01-.37-1.06-1.3-1.86-2.35-2.26s-2.2-.44-3.32-.33c-1.93.18-3.88.82-5.36,2.04-.34.28-.66.59-.94.94" style="fill: none; stroke: #000; stroke-linecap: round; stroke-linejoin: round; stroke-width: 3px;"/>
      <path d="M50.0552,148.83c-3.18-1.07-5.23-4.17-6.49-7.28-.16-.39-.31-.78-.45-1.17-1.01-2.77-1.78-5.66-3.35-8.14" style="fill: none; stroke: #000; stroke-linecap: round; stroke-linejoin: round; stroke-width: 3px;"/>
      <path d="M39.9952,132.06c.32-4.02-.75-8.01-1.95-11.86-.29-.92-.59-1.85-1.13-2.66-.53-.81-1.33-1.49-2.28-1.67-1.13-.21-2.31.34-3.07,1.21-.75.86-1.13,2.01-1.28,3.15" style="fill: none; stroke: #000; stroke-linecap: round; stroke-linejoin: round; stroke-width: 3px;"/>
      <path d="M30.1952,120.24c.36,5.87,1.36,11.7,2.97,17.36" style="fill: none; stroke: #000; stroke-linecap: round; stroke-linejoin: round; stroke-width: 3px;"/>
      <path d="M24.2652,143.37c.5-2.16,1.47-4.21,2.85-5.96.02-.03.04-.07.07-.1" style="fill: none; stroke: #000; stroke-linecap: round; stroke-linejoin: round; stroke-width: 3px;"/>
      <path d="M27.2752,137.53c1.77-.61,3.74-.48,5.46.24,1.26.52,2.38,1.36,3.19,2.46.37.5.67,1.03.92,1.59.24.53.44,1.08.6,1.64.32,1.03.52,2.1.73,3.15.62,3.25,1.25,6.5,1.87,9.75" style="fill: none; stroke: #000; stroke-linecap: round; stroke-linejoin: round; stroke-width: 3px;"/>
      <path d="M27.9952,142.96c.27.87.53,1.75.82,2.62,1.17,3.66,2.55,7.27,4.87,10.31.78,1.02,1.69,1.99,2.86,2.5.69.3,1.51.43,2.19.1s1.1-1.23.73-1.89" style="fill: none; stroke: #000; stroke-linecap: round; stroke-linejoin: round; stroke-width: 3px;"/>
      <path d="M14.8052,147.41c.18-1.41,3.84-4.38,5.22-4.75,1.11-.3,2.34,0,3.22.72.22.17.42.38.59.6" style="fill: none; stroke: #000; stroke-linecap: round; stroke-linejoin: round; stroke-width: 3px;"/>
      <path d="M23.8952,143.94c.14.21.27.43.39.65,2.71,4.39,4.81,9.15,6.23,14.11" style="fill: none; stroke: #000; stroke-linecap: round; stroke-linejoin: round; stroke-width: 3px;"/>
      <path d="M30.4252,158.71c-.13,1.03-1.13,1.77-2.15,1.99-1.28.28-2.68-.08-3.66-.94-.75-.67-1.24-1.58-1.7-2.47-.43-.84-.85-1.69-1.26-2.54-.66-1.37-1.28-2.75-1.88-4.15" style="fill: none; stroke: #000; stroke-linecap: round; stroke-linejoin: round; stroke-width: 3px;"/>
      <path d="M10.4952,153.99c.02-.07.04-.14.07-.21.63-2.09,1.65-4.07,2.99-5.79" style="fill: none; stroke: #000; stroke-linecap: round; stroke-linejoin: round; stroke-width: 3px;"/>
      <path d="M13.6852,147.88c1.51.71,2.9,1.68,4.11,2.85,1.05,1.01,1.97,2.18,2.7,3.46.16.29.32.59.47.89,1.22,2.52,1.74,5.38,1.48,8.18" style="fill: none; stroke: #000; stroke-linecap: round; stroke-linejoin: round; stroke-width: 3px;"/>
      <path d="M22.4652,163.25c-.01,0-.01.01-.02.01-.86.39-1.74.78-2.66.99-.93.2-1.94.19-2.81-.2-1.19-.54-1.96-1.73-2.52-2.91-.57-1.18-1.02-2.45-1.86-3.45" style="fill: none; stroke: #000; stroke-linecap: round; stroke-linejoin: round; stroke-width: 3px;"/>
      <path d="M9.0852,163.08c-.67-3.14-.14-6.53,1.48-9.3.02-.04.04-.09.07-.13" style="fill: none; stroke: #000; stroke-linecap: round; stroke-linejoin: round; stroke-width: 3px;"/>
      <path d="M37.0852,143.49c.12-.01.24-.01.36-.03,1.94-.21,3.79-1.26,4.96-2.82" style="fill: none; stroke: #000; stroke-linecap: round; stroke-linejoin: round; stroke-width: 3px;"/>
      <path d="M52.4852,148.4c.79,1.35,1.58,2.73,1.96,4.26.37,1.52.3,3.22-.56,4.53" style="fill: none; stroke: #000; stroke-linecap: round; stroke-linejoin: round; stroke-width: 3px;"/>
      <path d="M30.0752,145.44l-.09-.24c-.28-.92.01-2,.66-2.73.7-.8,1.78-1.21,2.84-1.25,1.07-.04,2.12.26,3.09.71" style="fill: none; stroke: #000; stroke-linecap: round; stroke-linejoin: round; stroke-width: 3px;"/>
      <path d="M12.5652,157.41c-.33-1.02-.67-2.07-.72-3.15-.04-1.08.25-2.22,1.02-2.99.57-.57,1.38-.88,2.19-.88.81.01,1.61.34,2.2.88" style="fill: none; stroke: #000; stroke-linecap: round; stroke-linejoin: round; stroke-width: 3px;"/>
      <path d="M18.9252,150.15c-.31-1.38-.1-2.87.56-4.11.42-.8,1.07-1.52,1.93-1.76.78-.22,1.73.09,2.1.78.04.08.07.16.1.25" style="fill: none; stroke: #000; stroke-linecap: round; stroke-linejoin: round; stroke-width: 3px;"/>
      <path d="M51.0152,149.71c-2.06.91-4.33,1.35-6.58,1.28" style="fill: none; stroke: #000; stroke-linecap: round; stroke-linejoin: round; stroke-width: 3px;"/>
      <path d="M21.2952,183.14c1.4,6.3,2.88,12.63,5.46,18.54,4.4,10.08,11.78,18.53,19.04,26.79" style="fill: none; stroke: #000; stroke-linecap: round; stroke-linejoin: round; stroke-width: 3px;"/>
      <path d="M44.8152,174.86c.04.18.08.36.12.53,1.45,5.97,4.96,11.31,7.48,16.92.52,1.16,1,2.34,1.41,3.53.34.99.63,2,.85,3.02.16.7.29,1.41.38,2.13" style="fill: none; stroke: #000; stroke-linecap: round; stroke-linejoin: round; stroke-width: 3px;"/>
      <path d="M56.1552,198.53c2.23,2.7,4.48,5.42,6.1,8.53,1.62,3.1,2.58,6.66,2.04,10.12-.53,3.46-2.74,6.77-6.02,8.01" style="fill: none; stroke: #000; stroke-linecap: round; stroke-linejoin: round; stroke-width: 3px;"/>
      <path d="M54.1452,226.42c.13.2.28.38.44.55,1.12,1.21,2.86,1.81,4.52,1.74,1.89-.08,3.69-.94,5.21-2.09,1.51-1.15,2.76-2.6,4.01-4.03" style="fill: none; stroke: #000; stroke-linecap: round; stroke-linejoin: round; stroke-width: 3px;"/>
      <path d="M54.5052,195.6c6.71.18,13.1,4.74,15.44,11.03" style="fill: none; stroke: #000; stroke-linecap: round; stroke-linejoin: round; stroke-width: 3px;"/>
      <path d="M83.3452,165.44c-13.1,4.61-24.3,14.39-30.65,26.74" style="fill: none; stroke: #000; stroke-linecap: round; stroke-linejoin: round; stroke-width: 3px;"/>
      <path d="M45.9952,228.41c2.92.11,5.86-.4,8.59-1.44,1.28-.49,2.51-1.09,3.67-1.8.37-.23.73-.46,1.08-.71" style="fill: none; stroke: #000; stroke-linecap: round; stroke-linejoin: round; stroke-width: 3px;"/>
      <path d="M18.4552,175.24c3.99,2.04,8.73,2.58,13.08,1.48" style="fill: none; stroke: #000; stroke-linecap: round; stroke-linejoin: round; stroke-width: 3px;"/>
      <path d="M70.3652,206.87c1.27,5.29.73,10.99-1.52,15.95-.08.2-.17.39-.26.58" style="fill: none; stroke: #000; stroke-linecap: round; stroke-linejoin: round; stroke-width: 3px;"/>
      <path d="M84.5052,165.85c.54,8.94,4.28,17.52,4.23,26.48-.04,6.24-1.92,12.32-4.14,18.16-1.45,3.84-3.07,7.64-5.32,11.08-1.27,1.95-2.88,3.87-5.11,4.56s-5.13-.42-5.58-2.7" style="fill: none; stroke: #000; stroke-linecap: round; stroke-linejoin: round; stroke-width: 3px;"/>
    </g>
  </g>
  <g>
    <g>
      <path d="M178.1545,369.5475c7.3957,4.7331,16.2801,7.1306,25.058,6.7249l.0371.1598c-.2224.0504-.4448.1008-.6813.1526,3.4684.9433,5.0023,1.4383,5.15,1.4947-.5006.3266-16.8893,10.5015-37.883-4.9954-21.3298-15.7337-39.7984-72.2517-39.7984-72.2517l2.1487-4.2128c8.8969,18.4832,15.9991,38.0035,28.2447,54.4219,2.1687,2.8908,4.4916,5.6881,7.2336,8.0532,5.1256,4.4104,11.4809,7.1005,17.723,9.7237-2.3389.7072-4.8081.9584-7.2324.7291Z" style="fill: #d3e1f6; stroke-width: 0px;"/>
      <path d="M218.996,368.6016c-2.4525,2.2177-6.0538,5.5367-15.7464,7.8306l-.0371-.1598c-8.7779.4058-17.6622-1.9917-25.058-6.7249,2.4243.2293,4.8935-.0218,7.2324-.7291-6.2421-2.6231-12.5975-5.3133-17.723-9.7237-2.742-2.3651-5.0649-5.1625-7.2336-8.0532-12.2456-16.4184-19.3478-35.9388-28.2447-54.4219l14.1982-27.8786s19.5065,46.0271,31.0954,57.7427c11.5966,11.7219,24.7573,27.119,43.1904,31.8768-4.9057,3.8529-11.8259,6.0149-11.8259,6.0149,0,0,3.676,1.4628,10.1523,4.2262Z" style="fill: #698cbd; stroke-width: 0px;"/>
    </g>
    <g>
      <path d="M207.7324,378.0781l-.0141.0014c-.5006.3266-16.8893,10.5015-37.883-4.9954-21.3298-15.7337-39.7984-72.2517-39.7984-72.2517l2.1487-4.2128,14.1982-27.8786s19.5065,46.0271,31.0954,57.7427c11.5966,11.7219,24.7573,27.119,43.1904,31.8768-4.9057,3.8529-11.8259,6.0149-11.8259,6.0149,0,0,3.676,1.4628,10.1523,4.2262-2.4525,2.2177-6.0538,5.5367-15.7464,7.8306-.2224.0504-.4448.1008-.6813.1526,3.4684.9433,5.0023,1.4383,5.15,1.4947" style="fill: none; stroke: #000; stroke-linecap: round; stroke-linejoin: round; stroke-width: 3px;"/>
      <path d="M129.5715,291.3072c.8986,1.7586,1.7627,3.5278,2.6141,5.3124,8.8969,18.4832,15.9991,38.0035,28.2447,54.4219,2.1687,2.8908,4.4916,5.6881,7.2336,8.0532,5.1256,4.4104,11.4809,7.1005,17.723,9.7237-2.3389.7072-4.8081.9584-7.2324.7291,7.3957,4.7331,16.2801,7.1306,25.058,6.7249" style="fill: none; stroke: #000; stroke-linecap: round; stroke-linejoin: round; stroke-width: 3px;"/>
    </g>
  </g>
  <g>
    <path d="M58.3303,354.8529s-3.2077,14.1471-3.3324,20.2721c-.1392,6.8418-2.9118,16.7309,11.3824,16.45s23.9294,5.4544,22.95-12.3691,4.9503-21.5.362-27.5882-29.925-4.5975-31.362,3.2353Z" style="fill: #698cbd; stroke: #000; stroke-linecap: round; stroke-linejoin: round; stroke-width: 3px;"/>
    <g>
      <path d="M42.5581,388.6117s-3.619,4.7119-14.119,7.2707-12.8617,3.2841-14.9897,8.0391-1.1218,15.2514,3.7559,18.255,9.2961,6.8093,24.775,3.6735,17.3281-5.1141,27.35-2.441,18.9147,5.344,20.6-7.209,1.0676-16.6706-2.55-17.7,4.798-10.0059,4.0755-14.65c-2.2437.99-.6514,3.9794-10.0399,4.3s-9.9179.603-16.4473-.95-12.2621-2.859-22.4105,1.4116" style="fill: #2e7b5b;"/>
      <g style="clip-path: url(#clippath);">
        <path d="M32.0187,385.8235s19.7784-2.0294,25.5259,8.4265-6.0643,6.7506-6.0643,6.7506c0,0-4.6763,3.5935-5.6528-.8506s-14.653,10.1971-12.4472.45c-3.8824.4239-42.8703,8.1647-1.3616-14.7765Z" style="fill: #193425; stroke-width: 0px;"/>
        <path d="M16.5803,397.4412s-2.8294,6.275,2.75,5.6963,15.3441-3.9875,15.3441-3.9875c0,0-1.3529,3.7853,1.2353,5.95,2-2.1294,2.7647-6.1353,9.8824-5.75.9412,1.3265,2.2882,4.6,2.2882,4.6,0,0,5.2412-6.2971,17.9471-1.05s21.4176,2.1,28.0029-4.4,5.6147,14.875,5.6147,14.875c0,0-9.1995,4.8003-21.4388.3597s-21.3259-10.0347-21.3259-10.0347c0,0-3.3824,5.1529-11.8529,6.9176s-1.2971-6.9176-1.2971-6.9176c0,0-5.7382,7.4941-12.5,7.25s-.8269-5.85-.8269-5.85c0,0-21.6114,10.9059-19.0231-2.2" style="fill: #42abe4; stroke: #000; stroke-linecap: round; stroke-linejoin: round; stroke-width: 3px;"/>
        <path d="M32.7627,426.7206s-2.5706-3.6618-.9324-6.1324c2.8273.0768,9.6676-.2647,18.3147-2.25s16.325-2.2616,21.4412-1.3235,18.3441-.8147,18.3441-.8147c0,0-.3403,9.2386-7.8422,9.3943s-18.7519-5.3149-28.1048-2.1825-21.2206,3.3088-21.2206,3.3088Z" style="fill: #2b4d3c; stroke-width: 0px;"/>
        <path d="M13.516,410.7059c2.1731,1.9853,4.7319,8.1176,17.2613,9.75-.3529,1.6324.6618,6.7774.6618,6.7774,0,0-16.5647-1.697-17.4588-8.5167s-.4643-8.0108-.4643-8.0108Z" style="fill: #53b791; stroke-width: 0px;"/>
      </g>
      <path d="M42.5581,388.6117s-3.619,4.7119-14.119,7.2707-12.8617,3.2841-14.9897,8.0391-1.1218,15.2514,3.7559,18.255,9.2961,6.8093,24.775,3.6735,17.3281-5.1141,27.35-2.441,18.9147,5.344,20.6-7.209,1.0676-16.6706-2.55-17.7,4.798-10.0059,4.0755-14.65c-2.2437.99-.6514,3.9794-10.0399,4.3s-9.9179.603-16.4473-.95-12.2621-2.859-22.4105,1.4116" style="fill: none; stroke: #000; stroke-linecap: round; stroke-linejoin: round; stroke-width: 3px;"/>
    </g>
    <path d="M12.9285,409.3328c3.6735,5.8263,9.8919,10.032,16.7011,11.0692,9.3295,1.4211,18.503-2.8767,27.8791-3.9481,2.3434-.2678,4.7099-.333,7.0645-.1947,4.2636.2505,8.465,1.1647,12.7251,1.4689s8.7247-.0538,12.4409-2.1588" style="fill: none; stroke: #000; stroke-linecap: round; stroke-linejoin: round; stroke-width: 3px;"/>
    <path d="M42.5581,388.6117s-.9164-6.5681,3.4235-8.9575,8.0458-1.5071,10.3987,2.7282,1.0071,16.1176,1.0071,16.1176c0,0-5.5339-9.1296-14.8294-9.8883Z" style="fill: #5ea28d; stroke: #000; stroke-linecap: round; stroke-linejoin: round; stroke-width: 3px;"/>
    <path d="M32.0187,427.1091c-.4427-.1922-.6455-.6991-.7746-1.1642-.3209-1.1564-.4567-2.364-.4007-3.5628.0108-.2311.0335-.4755.1701-.6623" style="fill: none; stroke: #000; stroke-linecap: round; stroke-linejoin: round; stroke-width: 3px;"/>
  </g>
  <g>
    <path d="M127.2627,357.0588s3.5206,17.1353,17.6426,33.1412,27.8515,1.8471,29.075-1.25-3.6-34.9794-9.3647-42.1559-39.2941-7.1176-37.3529,10.2647Z" style="fill: #698cbd; stroke: #000; stroke-linecap: round; stroke-linejoin: round; stroke-width: 3px;"/>
    <g>
      <g>
        <path d="M182.5503,396.34c3.65,3.25,5.03,8.57,4.24,13.4-.16.98-.41,1.96-.93,2.8-.21.35-.47.66-.75.95-.86.85-2,1.42-3.18,1.74-1.01.27-2.04.37-3.09.42-.18.01-.37.01-.56.02v-.03c2.04-2.45,3.34-5.51,3.7-8.68.24-2.13-.01-4.46-1.4-6.1,1,.28,2.11-.75,1.9-1.76-.11-.54-.49-.98-.87-1.38-.89-.98-1.78-1.96-2.69-2.94l.7-.64c.99.71,2.02,1.38,2.93,2.2Z" style="fill: #2e7b5b; stroke-width: 0px;"/>
        <path d="M185.7403,413.54c.25,3.34-.1,6.72-1.05,9.93l-.45-.13c-.62-1.44-1.28-2.87-2.14-4.18-.85-1.31-1.93-2.5-3.25-3.33l-.01-.18c1.05-.05,2.08-.15,3.09-.42,1.18-.32,2.32-.89,3.18-1.74l.63.05Z" style="fill: #2b4d3c; stroke-width: 0px;"/>
        <path d="M184.6903,423.47c-.01.03-.02.07-.03.1-.49,1.64-1.29,3.41-2.88,4.05-.76.3-1.59.3-2.41.3-12.76,0-25.52-.01-38.29-.01-.41,0-.85,0-1.22-.2-.26-.14-.46-.35-.65-.57-.79-.88-1.55-1.79-2.24-2.75.88-3.53,3.39-6.62,6.66-8.2,1.56-.12,3.13-.14,4.7-.16.58-.01,1.16-.01,1.74-.02,9.01-.1,18.01-.22,27.02-.32.4,0,.8-.01,1.19-.02.19-.01.38-.01.56-.02l.01.18c1.32.83,2.4,2.02,3.25,3.33.86,1.31,1.52,2.74,2.14,4.18l.45.13Z" style="fill: #53b791; stroke-width: 0px;"/>
        <path d="M178.9203,394.78c.91.98,1.8,1.96,2.69,2.94.38.4.76.84.87,1.38.21,1.01-.9,2.04-1.9,1.76,1.39,1.64,1.64,3.97,1.4,6.1-.36,3.17-1.66,6.23-3.7,8.68.08-4.42.78-7.74-1.45-11.56.2-.29.39-.61.39-.96-.01-.44-.31-.82-.62-1.14-.7-.75-1.53-1.29-2.3-1.94.48-.52,1.61-.81,2.28-1.12-.86-.69-1.72-1.37-2.57-2.06-.48-.37-.99-.84-.98-1.44.54-.26,1.07-.53,1.61-.79-.83-.37-1.65-.78-2.3-1.42-.64-.63-1.09-1.51-1.01-2.42h-.01c.34-.82.59-1.68.73-2.56l.74.12,4.66,3.8c.08.25.27.44.46.61.54.5,1.12.95,1.71,1.38l-.7.64Z" style="fill: #42abe4; stroke-width: 0px;"/>
        <path d="M176.8303,404.08c2.23,3.82,1.53,7.14,1.45,11.56v.03c-.39.01-.79.02-1.19.02-9.01.1-18.01.22-27.02.32l-.01-1.21c.13-.02.16-.19.15-.31-.09-1.41-.73-2.71-1.28-4-.77-1.79-1.39-3.65-1.85-5.54l1.19-.29c1.25,1.38,3.2,2.08,5.04,1.81,1.05-.16,2.02-.6,3.02-.94,2.87-1,5.95-1.04,8.94-.63,1.5.2,2.99.51,4.47.85,1.21.28,2.38.82,3.65.83,1.4.01,2.7-1.44,3.44-2.5Z" style="fill: #5ea28d; stroke-width: 0px;"/>
        <path d="M174.2903,379.66c3.57,2.3,5.09,7.32,3.4,11.23-.17.4-.38.85-.24,1.26l-4.66-3.8-.74-.12c.21-1.19.23-2.4.08-3.6l.2-.15c.94-.17,1.63-1.04,1.89-1.96.26-.93.16-1.91.07-2.86Z" style="fill: #2e7b5b; stroke-width: 0px;"/>
        <path d="M177.2203,403.12c0,.35-.19.67-.39.96-.74,1.06-2.04,2.51-3.44,2.5-1.27-.01-2.44-.55-3.65-.83-1.48-.34-2.97-.65-4.47-.85-2.99-.41-6.07-.37-8.94.63-1,.34-1.97.78-3.02.94-1.84.27-3.79-.43-5.04-1.81l-1.19.29h-.01c-.24-.99-.44-2-.6-3.01-.02-.16-.05-.33-.16-.44-.23-.25-.63-.12-.93.03-.85.41-1.7.83-2.54,1.24-.42-2.95,1.3-6.04.35-8.86-.03-.11-.07-.21-.16-.28-.09-.08-.23-.1-.35-.09l2.04-1.22c.06.09.12.18.19.28.44-1.42,3.42-3.4,5.03-4.38,2.02-1.23,4.13-2.28,6.45-2.7,3.9-.7,8.02-.64,11.72.79,1.04.4,2.12.98,2.57,2.01.34.79.24,1.73.63,2.5,0-.01.01-.02.01-.03h.01c-.08.91.37,1.79,1.01,2.42.65.64,1.47,1.05,2.3,1.42-.54.26-1.07.53-1.61.79-.01.6.5,1.07.98,1.44.85.69,1.71,1.37,2.57,2.06-.67.31-1.8.6-2.28,1.12.77.65,1.6,1.19,2.3,1.94.31.32.61.7.62,1.14Z" style="fill: #193425; stroke-width: 0px;"/>
        <path d="M172.3303,384.48l-.2.15c.15,1.2.13,2.41-.08,3.6-.14.88-.39,1.74-.73,2.56,0,.01-.01.02-.01.03-.39-.77-.29-1.71-.63-2.5-.45-1.03-1.53-1.61-2.57-2.01-3.7-1.43-7.82-1.49-11.72-.79-2.32.42-4.43,1.47-6.45,2.7-1.61.98-4.59,2.96-5.03,4.38-.07-.1-.13-.19-.19-.28-.82-1.36-.26-2.28-.78-4.69l-2.24-.08c.12-.21.24-.42.37-.63.89.2,1.83.34,1.92.08,1.2-3.51,4.5-5.87,7.87-7.43,4.24-1.96,9.03-3.04,13.63-2.19,1.06.2,2.12.51,3.03,1.09,2.04,1.31,2.98,3.74,3.81,6.01Z" style="fill: #5ea28d; stroke-width: 0px;"/>
        <path d="M150.2103,414.49c.01.12-.02.29-.15.31-.1.01-.17-.08-.23-.16-1.58-2.17-4.75-2.39-6.89-4.02-.59-.44-1.09-.99-1.48-1.6-.28-.44-.51-.94-.48-1.45.03-.73,1.25-1.59,1.96-1.72-1.73.41-2.48-.18-3.76-1.41-1.03-.99-1.27-2.69-.56-3.93.5-.86,1.41-1.52,1.62-2.49-1.25.61-2.91.1-3.7-1.06-.18-.27-.32-.56-.4-.87-.3-1.02-.1-2.19.53-3.06.34-.47.78-.86,1.16-1.31,1.19-1.43,1.7-3.57,3.4-4.35l.14-.63c.21.06.46.12.7.18-.13.21-.25.42-.37.63-.81,1.51-1.35,3.17-1.61,4.87-.09.58-.08,1.3.44,1.58.66.35,1.39-.4,2.15-.46.12-.01.26.01.35.09.09.07.13.17.16.28.95,2.82-.77,5.91-.35,8.86.84-.41,1.69-.83,2.54-1.24.3-.15.7-.28.93-.03.11.11.14.28.16.44.16,1.01.36,2.02.6,3.01h.01c.46,1.89,1.08,3.75,1.85,5.54.55,1.29,1.19,2.59,1.28,4Z" style="fill: #42abe4; stroke-width: 0px;"/>
        <path d="M143.6303,416.19c-.72.05-1.45.13-2.17.24-.85.13-1.69.31-2.55.26-1.81-.11-3.44-1.26-4.51-2.72-.18-.25-.34-.5-.49-.76-.77-1.3-1.25-2.75-1.63-4.22-.57-2.13-.99-4.33-.78-6.53.22-2.19,1.13-4.39,2.84-5.78-.01-.03-.01-.05-.02-.08l1.82-.51c.08.31.22.6.4.87.79,1.16,2.45,1.67,3.7,1.06-.21.97-1.12,1.63-1.62,2.49-.71,1.24-.47,2.94.56,3.93,1.28,1.23,2.03,1.82,3.76,1.41-.71.13-1.93.99-1.96,1.72-.03.51.2,1.01.48,1.45.39.61.89,1.16,1.48,1.6,2.14,1.63,5.31,1.85,6.89,4.02.06.08.13.17.23.16l.01,1.21c-.58.01-1.16.01-1.74.02-1.57.02-3.14.04-4.7.16Z" style="fill: #2e7b5b; stroke-width: 0px;"/>
        <path d="M144.7203,392.32l-2.04,1.22c-.76.06-1.49.81-2.15.46-.52-.28-.53-1-.44-1.58.26-1.7.8-3.36,1.61-4.87l2.24.08c.52,2.41-.04,3.33.78,4.69Z" style="fill: #193425; stroke-width: 0px;"/>
        <path d="M141.4603,416.43c.72-.11,1.45-.19,2.17-.24-3.27,1.58-5.78,4.67-6.66,8.2-.81-1.12-1.52-2.3-2.09-3.55-1.06-2.34-1.6-4.95-1.23-7.48l.26-.15c.15.26.31.51.49.76,1.07,1.46,2.7,2.61,4.51,2.72.86.05,1.7-.13,2.55-.26Z" style="fill: #2b4d3c; stroke-width: 0px;"/>
        <path d="M141.3703,386.74l-.14.63c-1.7.78-2.21,2.92-3.4,4.35-.38.45-.82.84-1.16,1.31-.63.87-.83,2.04-.53,3.06l-1.82.51c-.67-2.35-1.24-4.81-.9-7.23.2-1.5,1.79-6.13,3.91-5.02,1.14.6,1.91,1.64,3.18,2.13.11.04.44.14.86.26Z" style="fill: #2e7b5b; stroke-width: 0px;"/>
      </g>
      <g>
        <path d="M141.3703,386.74c-.42-.12-.75-.22-.86-.26-1.27-.49-2.04-1.53-3.18-2.13-2.12-1.11-3.71,3.52-3.91,5.02-.34,2.42.23,4.88.9,7.23.01.03.01.05.02.08-1.71,1.39-2.62,3.59-2.84,5.78-.21,2.2.21,4.4.78,6.53.38,1.47.86,2.92,1.63,4.22.15.26.31.51.49.76,1.07,1.46,2.7,2.61,4.51,2.72.86.05,1.7-.13,2.55-.26.72-.11,1.45-.19,2.17-.24,1.56-.12,3.13-.14,4.7-.16.58-.01,1.16-.01,1.74-.02,9.01-.1,18.01-.22,27.02-.32.4,0,.8-.01,1.19-.02.19-.01.38-.01.56-.02,1.05-.05,2.08-.15,3.09-.42,1.18-.32,2.32-.89,3.18-1.74.28-.29.54-.6.75-.95.52-.84.77-1.82.93-2.8.79-4.83-.59-10.15-4.24-13.4-.91-.82-1.94-1.49-2.93-2.2-.59-.43-1.17-.88-1.71-1.38-.19-.17-.38-.36-.46-.61-.14-.41.07-.86.24-1.26,1.69-3.91.17-8.93-3.4-11.23.09.95.19,1.93-.07,2.86-.26.92-.95,1.79-1.89,1.96-.83-2.27-1.77-4.7-3.81-6.01-.91-.58-1.97-.89-3.03-1.09-4.6-.85-9.39.23-13.63,2.19-3.37,1.56-6.67,3.92-7.87,7.43-.09.26-1.03.12-1.92-.08-.24-.06-.49-.12-.7-.18Z" style="fill: none; stroke: #000; stroke-linecap: round; stroke-linejoin: round; stroke-width: 3px;"/>
        <path d="M143.9403,387.63c.52,2.41-.04,3.33.78,4.69.06.09.12.18.19.28.44-1.42,3.42-3.4,5.03-4.38,2.02-1.23,4.13-2.28,6.45-2.7,3.9-.7,8.02-.64,11.72.79,1.04.4,2.12.98,2.57,2.01.34.79.24,1.73.63,2.5,0-.01.01-.02.01-.03.34-.82.59-1.68.73-2.56.21-1.19.23-2.4.08-3.6" style="fill: none; stroke: #000; stroke-linecap: round; stroke-linejoin: round; stroke-width: 3px;"/>
        <path d="M142.0703,386.91v.01c-.13.21-.25.42-.37.63-.81,1.51-1.35,3.17-1.61,4.87-.09.58-.08,1.3.44,1.58.66.35,1.39-.4,2.15-.46.12-.01.26.01.35.09.09.07.13.17.16.28.95,2.82-.77,5.91-.35,8.86.84-.41,1.69-.83,2.54-1.24.3-.15.7-.28.93-.03.11.11.14.28.16.44.16,1.01.36,2.02.6,3.01h.01c.46,1.89,1.08,3.75,1.85,5.54.55,1.29,1.19,2.59,1.28,4,.01.12-.02.29-.15.31-.1.01-.17-.08-.23-.16-1.58-2.17-4.75-2.39-6.89-4.02-.59-.44-1.09-.99-1.48-1.6-.28-.44-.51-.94-.48-1.45.03-.73,1.25-1.59,1.96-1.72-1.73.41-2.48-.18-3.76-1.41-1.03-.99-1.27-2.69-.56-3.93.5-.86,1.41-1.52,1.62-2.49-1.25.61-2.91.1-3.7-1.06-.18-.27-.32-.56-.4-.87-.3-1.02-.1-2.19.53-3.06.34-.47.78-.86,1.16-1.31,1.19-1.43,1.7-3.57,3.4-4.35" style="fill: none; stroke: #000; stroke-linecap: round; stroke-linejoin: round; stroke-width: 3px;"/>
        <path d="M148.2703,404.66c1.25,1.38,3.2,2.08,5.04,1.81,1.05-.16,2.02-.6,3.02-.94,2.87-1,5.95-1.04,8.94-.63,1.5.2,2.99.51,4.47.85,1.21.28,2.38.82,3.65.83,1.4.01,2.7-1.44,3.44-2.5.2-.29.39-.61.39-.96-.01-.44-.31-.82-.62-1.14-.7-.75-1.53-1.29-2.3-1.94.48-.52,1.61-.81,2.28-1.12-.86-.69-1.72-1.37-2.57-2.06-.48-.37-.99-.84-.98-1.44.54-.26,1.07-.53,1.61-.79-.83-.37-1.65-.78-2.3-1.42-.64-.63-1.09-1.51-1.01-2.42" style="fill: none; stroke: #000; stroke-linecap: round; stroke-linejoin: round; stroke-width: 3px;"/>
        <path d="M133.6503,413.36c-.37,2.53.17,5.14,1.23,7.48.57,1.25,1.28,2.43,2.09,3.55.69.96,1.45,1.87,2.24,2.75.19.22.39.43.65.57.37.2.81.2,1.22.2,12.77,0,25.53.01,38.29.01.82,0,1.65,0,2.41-.3,1.59-.64,2.39-2.41,2.88-4.05.01-.03.02-.07.03-.1.95-3.21,1.3-6.59,1.05-9.93" style="fill: none; stroke: #000; stroke-linecap: round; stroke-linejoin: round; stroke-width: 3px;"/>
        <path d="M143.6603,416.17c-.01,0-.02.01-.03.02-3.27,1.58-5.78,4.67-6.66,8.2-.02.08-.04.15-.06.23" style="fill: none; stroke: #000; stroke-linecap: round; stroke-linejoin: round; stroke-width: 3px;"/>
        <path d="M178.8503,415.83c1.32.83,2.4,2.02,3.25,3.33.86,1.31,1.52,2.74,2.14,4.18" style="fill: none; stroke: #000; stroke-linecap: round; stroke-linejoin: round; stroke-width: 3px;"/>
        <line x1="177.4503" y1="392.15" x2="172.7903" y2="388.35" style="fill: none; stroke: #000; stroke-linecap: round; stroke-linejoin: round; stroke-width: 3px;"/>
        <path d="M176.8303,404.08c2.23,3.82,1.53,7.14,1.45,11.56,2.04-2.45,3.34-5.51,3.7-8.68.24-2.13-.01-4.46-1.4-6.1,1,.28,2.11-.75,1.9-1.76-.11-.54-.49-.98-.87-1.38-.89-.98-1.78-1.96-2.69-2.94-.03-.05-.08-.09-.12-.14" style="fill: none; stroke: #000; stroke-linecap: round; stroke-linejoin: round; stroke-width: 3px;"/>
      </g>
    </g>
  </g>
  <path d="M182.9796,248.1455c.224.6504.4434,1.3268.3804,2.0118-.0467.5077-.2464.9875-.455,1.4528-2.0879,4.6589-5.3255,8.7974-9.3448,11.9453-1.9636,1.5379-4.1025,2.8377-6.2797,4.0544-8.7052,4.8644-18.45,8.5098-28.4107,8.0338-4.2637-.2038-9.0114-1.5424-11.0102-5.3141-.6238-1.177-.9221-2.5069-1.0072-3.8363-.4333-6.7642,4.5596-12.8389,10.4234-16.2386,1.9969-1.1577,4.1192-2.0977,6.0584-3.3497,4.7981-3.098,8.2036-7.9142,12.5628-11.6042,2.5293-2.1411,5.3873-3.8901,8.4362-5.1868,2.0475-.8708,7.0123-3.2216,8.933-1.779,2.3341,1.7531,4.1485,6.9139,5.4214,9.5017,1.6441,3.3422,3.0791,6.7873,4.292,10.309Z" style="fill: #698cbd; stroke: #000; stroke-linecap: round; stroke-linejoin: round; stroke-width: 3px;"/>
  <g>
    <path d="M63.5078,260.35s-3.3275,4-3.3275,13.1-5.8,58.5265-8.0353,61.7c0,0-2.6956.9758-2.8772,4.3688s-.9081,11.2754-1.6625,17.7459,30.6574,9.7294,49.1279,4.3353c-1.8824-13.9824-1.0214-37.4499,4.5481-44.3044s9.906,16.8005,11.3848,21.2083,5.3612,20.1372,7.7141,23.096,15.1698,3.8577,31.1731-2.9447,18.129-15.1922,17.6769-17.273-1.6813-4.9305-4.0892-7.6417-8.9902-26.7759-11.1108-36.3906-10.3228-29.9194-13.1629-34.6494-71.0557-7.03-77.3596-2.3506Z" style="fill: #2e556b; stroke-width: 0px;"/>
    <path d="M97.7921,294.7647c.9265,1.3676,3.9958,2.0387,5.6029,2.3824,1.1542-2.7841,2.2895-5.5964,3.0909-8.5018.4515-1.6371.5255-3.3511.5969-5.0479.1486-3.5319.2891-7.136-.6847-10.5342-.1269-.4428-.283-.8981-.6097-1.2227-.5288-.5252-1.3522-.5757-2.0973-.5894-2.7722-.0512-5.5456-.0336-8.3169.053.0121,2.1601,2.7427,23.4607,2.4179,23.4607Z" style="fill: #383e50; stroke: #000; stroke-linecap: round; stroke-linejoin: round; stroke-width: 3px;"/>
    <path d="M60.1803,281.9s10.8471,3.5059,20.1412,2.7c1.5088.1203-2.1349,19.125-3.5912,18.8412s-18.9971-2.6471-17.8206-7.7059" style="fill: #383e50; stroke: #000; stroke-linecap: round; stroke-linejoin: round; stroke-width: 3px;"/>
    <path d="M80.4986,288.6666s.4573-9.5195-.5183-17.2842" style="fill: #383e50; stroke: #000; stroke-linecap: round; stroke-linejoin: round; stroke-width: 3px;"/>
    <path d="M147.9799,280.8369c-1.1255-2.4265-2.4706-1.4713-4.3538-.4027-2.1172,1.2014-4.3005,2.2861-6.5367,3.2481-.6135.2639-7.4538,2.9238-7.5246,2.7115,1.3213,4.0898,4.9642,6.9174,7.4613,10.4154,1.6307,2.2844,2.7846,4.8827,4.4372,7.1512,3.9042-2.3814,7.8083-4.7627,11.7125-7.1441.1584-.0966.324-.2007.4118-.3641.1407-.2622.0384-.5831-.0659-.8618" style="fill: #383e50; stroke: #000; stroke-linecap: round; stroke-linejoin: round; stroke-width: 3px;"/>
    <path d="M63.5078,260.35s-3.3275,4-3.3275,13.1-5.8,58.5265-8.0353,61.7c0,0-2.6956.9758-2.8772,4.3688s-.9081,11.2754-1.6625,17.7459,30.6574,9.7294,49.1279,4.3353c-1.8824-13.9824-1.0214-37.4499,4.5481-44.3044s9.906,16.8005,11.3848,21.2083,5.3612,20.1372,7.7141,23.096,15.1698,3.8577,31.1731-2.9447,18.129-15.1922,17.6769-17.273-1.6813-4.9305-4.0892-7.6417-8.9902-26.7759-11.1108-36.3906-10.3228-29.9194-13.1629-34.6494-71.0557-7.03-77.3596-2.3506Z" style="fill: none; stroke: #000; stroke-linecap: round; stroke-linejoin: round; stroke-width: 3px;"/>
    <path d="M67.8803,267.2147s-11.1235,32.2088-16.9,47.8353-.6-2.7-.6-2.7c0,0-5.1671,8.2501-4.925,10.4735s2.0685,4.5882,3.1806,5.8676,2.9209,2.3824,9.3179-7.4559,21.6559-42.8941,20.7765-47.7853-8.1147-8.1088-10.85-6.2353Z" style="fill: #7bc85e; stroke: #000; stroke-linecap: round; stroke-linejoin: round; stroke-width: 3px;"/>
    <path d="M121.5748,276.35s3.7937,21.1383,45.0055,48.85c4.6-9,2.7834-10.8301,2.7035-13.7945-3.5778-2.5319-12.1976-6.3173-12.1976-6.3173,0,0,8.0706,9.6441-.9059,2.5868s-24.7706-36.9985-29.6235-36.2927-4.9345.5824-4.982,4.9677Z" style="fill: #7bc85e; stroke: #000; stroke-linecap: round; stroke-linejoin: round; stroke-width: 3px;"/>
  </g>
  <g id="Torso">
    <path d="M148.0628,243.4715s8.2089,3.8627,21.1163-5.1213c14.3871-10.0138,10.9913-12.0436,10.446-14.4966-.8172-3.676-2.1943-8.9033-6.0472-7.7916-3.9616,1.143-30.4507,5.1027-30.4507,5.1027,0,0-1.3085,17.5291,4.9356,22.3069Z" style="fill: #283131; stroke: #000; stroke-linecap: round; stroke-linejoin: round; stroke-width: 3px;"/>
    <path d="M72.8509,193.6176s-8.1706-20.6412,14.1794-25.9676,51.05-9.9932,48.2,21.4578-59.4382,23.804-62.3794,4.5098Z" style="fill: #111414; stroke-width: 0px;"/>
    <path d="M70.2303,186.9118s1.0981,37.1459-2.6,52.6882-4.4,24.5-4.4,24.5c0,0,7.0319,14.732,30.9439,15.5954s46.9563-9.4294,47.9194-13.6359-2.5133-10.4712-1.6133-18.236-5.8021-63.3824-5.8021-63.3824" style="fill: #111414; stroke: #000; stroke-linecap: round; stroke-linejoin: round; stroke-width: 3px;"/>
    <path d="M126.9522,168.7228s8.6427-.7066,12.6247-.2754,30.1456,46.2621,31.2785,48.3517,4.6113,6.2592-5.099,11.6364c-9.7103,5.3773-17.6397,4.5231-18.676,4.2296s-12.1858-32.4768-14.5517-44.886" style="fill: #111414; stroke: #000; stroke-linecap: round; stroke-linejoin: round; stroke-width: 3px;"/>
    <path d="M70.4769,261.1275s21.3735,14.0029,61.6088-.4677" style="fill: none; stroke: #000; stroke-linecap: round; stroke-linejoin: round; stroke-width: 3px;"/>
    <g>
      <path d="M114.9283,227.5935c.0095-.6193-.0153-1.2373-.0741-1.8508l-.0185-.0002c-.8239-8.552-7.7798-11.8902-6.2247-20.5764,0,0-11.178,3.3946-2.4429,18.1771.6554,1.1091,1.1739,2.1605,1.5962,3.1681.0432.4026.0683.8079.0581,1.2157-.1502,4.9848-4.1874,9.0377-9.0111,8.9899h-.0002c-4.8185-.0478-8.5006-4.1695-8.2321-9.1438.0402-.6888.1568-1.3729.3471-2.0389l-.0429-.0003c.9738-2.6682,2.5957-5.4596,5.1684-8.2321,14.9883-16.1526,2.4825-24.3292-.1141-24.2146h0s2.5058,3.9079-4.519,16.0582c-1.1428-1.4233-2.1917-4.1053-.2284-8.6377-.0005.0002-10.3448,4.5311-4.9926,17.1391-5.0214,9.4937-3.0337,16.1136-.0245,20.1743.055.0766.1137.1496.17.225.1607.2092.3232.4108.488.6058.5697.6886,1.1954,1.3238,1.8742,1.9017.1966.17.3906.3309.5808.4812.0967.0744.1925.1492.2911.2213,1.102.8317,2.0388,1.3234,2.4879,1.4793l-.0002-.0003c1.8985.8891,4.0174,1.3965,6.275,1.4207.795.0085,1.5726-.0631,2.3404-.1705-.115.0462-.1806.0698-.1806.0698,0,0,.85-.101,2.1343-.4688.8182-.223,1.6127-.5048,2.3778-.8508,3.8481-1.6585,8.8928-5.3023,9.7769-13.1082.0652-.5759.0976-1.1248.1135-1.6599.0053-.1256.0236-.2478.0261-.374h0Z" style="fill: #84db7b; stroke-width: 0px;"/>
      <polygon points="91.1904 200.5077 91.1904 200.5078 91.1904 200.5078 91.1904 200.5077" style="fill: #84db7b; stroke-width: 0px;"/>
    </g>
    <path d="M87.0303,165.15s-7.2382,3.7497-7.8853,4.8146,3.8824,12.6531,22.4118,13.359c18.5294.7059,26.0235-12.0059,26.0235-13.9735s-3.4941-5.7324-18.2-7.0265c-14.7059-1.2941-22.35,2.8265-22.35,2.8265Z" style="fill: #283131; stroke: #000; stroke-linecap: round; stroke-linejoin: round; stroke-width: 3px;"/>
  </g>
  <g id="Cabeza">
    <g id="Cuello">
      <path d="M88.7155,153.9109s.1579,12.6754-2.1971,16.0405,12.6418,7.2669,18.7125,6.1616c11.7604-2.1414,18.6879-3.0965,14.6696-15.0884s2.4852-22.8286,2.4852-22.8286c0,0-32.66-8.4048-33.6702,15.715Z" style="fill: #698cbd; stroke-width: 0px;"/>
      <g style="clip-path: url(#clippath-1);">
        <path d="M110.768,144.9252s5.6483,6.4533,1.2515,13.8622-3.4301,5.5069-3.4301,5.5069c0,0,1.7653.3082,4.7612-1.7273s.3962,10.0887-4.6825,13.216c-5.0787,3.1273-39.3015,9.3728-23.923-21.7171s26.0228-9.1407,26.0228-9.1407Z" style="fill: #d3e1f6; stroke-width: 0px;"/>
      </g>
      <path d="M88.7155,153.9109s.1579,12.6754-2.1971,16.0405,12.6418,7.2669,18.7125,6.1616c11.7604-2.1414,18.6879-3.0965,14.6696-15.0884s2.4852-22.8286,2.4852-22.8286c0,0-32.66-8.4048-33.6702,15.715Z" style="fill: none; stroke: #000; stroke-linecap: round; stroke-linejoin: round; stroke-width: 3px;"/>
      <path d="M118.9446,157.1735s-1.556,8.776-19.3663,9.9391c-12.6403.8255-10.0621-9.8797-10.0621-9.8797" style="fill: none; stroke: #000; stroke-linecap: round; stroke-linejoin: round; stroke-width: 3px;"/>
    </g>
    <path d="M62.0045,85.8239s-19.6895-11.1611-20.5264-33.4508c-.8369-22.2897,15.7172-49.7006,15.7172-49.7006,0,0-1.2125,2.6803,9.647,19.2473s25.6911,48.7534-4.8378,63.9041Z" style="fill: #698cbd; stroke: #000; stroke-linecap: round; stroke-linejoin: round; stroke-width: 3px;"/>
    <path d="M129.1892,142.4373s1.3669,11.5764-4.1653,17.9129c4.463-.4779,8.1352-4.6547,9.4662-8.1313,0,0,1.7117,5.5628-2.493,11.0118,0,0,22.6482-18.8483,18.7936-42.5643s-29.6448,6.185-21.6016,21.7708Z" style="fill: #4dc485; stroke: #000; stroke-linecap: round; stroke-linejoin: round; stroke-width: 3px;"/>
    <path d="M66.3139,92.8259s-20.5909-24.0563,3.157-53.0097,70.8894-2.2583,70.8894-2.2583c0,0,38.061,22.2531,25.0425,48.7328s-35.1404,22.942-35.1404,22.942c0,0-60.6371,9.1514-63.9484-16.4068Z" style="fill: #698cbd; stroke: #000; stroke-linecap: round; stroke-linejoin: round; stroke-width: 3px;"/>
    <g>
      <path d="M72.8689,93.3713s-11.5535-7.4906-6.729-20.1108c4.8245-12.6202,14.4054-10.0875,16.7067-8.17s8.2723,6.0177,6.0935,22.2645c-2.1788,16.2468-16.0712,6.0163-16.0712,6.0163Z" style="fill: #fff; stroke-width: 0px;"/>
      <path d="M79.9349,67.6242c4.0168-.1716,6.7931,3.3536,6.3317,8.6735s-1.3445,8.376-5.5117,10.5502-7.9797-5.9762-6.3761-12.5002,3.6634-6.6426,5.5561-6.7234Z" style="fill: #000; stroke: #000; stroke-linecap: round; stroke-linejoin: round; stroke-width: 3px;"/>
      <path d="M80.653,71.3346c-1.3815.3527-1.7498,2.7935-1.2763,3.8527s1.1482,2.1862,2.1179,1.9759,1.9617-2.2007,1.5825-3.5748-.7312-2.6861-2.4242-2.2538Z" style="fill: #fff; stroke-width: 0px;"/>
      <path d="M78.2271,80.0225c.4324,1.3363,1.2202,3.0734,2.7194,1.8052.4135-.3493.8269-.9336,1.2147-1.4627.2707-.399.9361-.159.9034.3123.061,3.3187-4.1833,5.2121-5.7051,1.7744-.2822-.6641-.5421-2.9791.5002-2.8085.1941.0481.3158.2017.3674.3793h0Z" style="fill: #3ce699; stroke-width: 0px;"/>
      <path d="M64.7183,80.8277c-.2194-6.7079,1.2907-15.2257,8.3295-18.0438,2.3497-.9321,4.902-.9548,7.2658-.6345.8218.1114,1.3977.8679,1.2863,1.6896-.1114.8218-.8678,1.3977-1.6896,1.2863-10.2028-2.6543-14.0427,7.2451-14.3218,15.6741.0116.5537-.8438.5924-.8703.0283h0Z" style="fill: #000; stroke-width: 0px;"/>
    </g>
    <g>
      <path d="M110.3983,96.9979s-5.077-11.5197-.0762-21.9335c5.0008-10.4138,14.6975-7.6728,22.7681-1.503s5.1091,18.3693.3845,25.1601-23.0763-1.7236-23.0763-1.7236Z" style="fill: #fff; stroke-width: 0px;"/>
      <path d="M136.0029,92.8636c1.1508-4.6965,2.3251-10.2017-.1451-14.5794-2.5944-4.0725-6.6938-7.5212-11.4258-8.6976-3.0805-.8277-6.2692-.1773-8.9621,1.3691-.7188.4266-1.651.182-2.0667-.5435-.4246-.7354-.1475-1.6844.6054-2.0766,8.7692-4.8624,18.9674,1.0792,23.3515,9.1015,1.7792,3.2152,1.4812,7.1572.8703,10.6289-.3228,1.7328-.7488,3.4204-1.3159,5.0984-.0848.251-.3571.3857-.6081.3009-.2501-.084-.3824-.3543-.3035-.6018h0Z" style="fill: #000; stroke-width: 0px;"/>
      <path d="M121.3656,71.832c4.4968-1.7373,9.611,3.2524,8.2689,9.3804-1.3421,6.1281-1.3516,11.4785-6.0613,11.0426s-5.5422-4.2592-6.1696-5.9972-2.8561-11.7917,3.962-14.4258Z" style="fill: #000; stroke: #000; stroke-linecap: round; stroke-linejoin: round; stroke-width: 3px;"/>
      <path d="M120.5745,73.869c2.33-.0356,4.2694,2.9408,2.4296,5.8544s-4.3886.0275-4.3762-2.1331.9079-3.7055,1.9466-3.7213Z" style="fill: #fff; stroke-width: 0px;"/>
      <path d="M121.1148,86.0234c.6578,1.3861,2.6038,3.3614,4.0187,1.9166.431-.4376.8318-1.1782,1.1674-1.8508.1714-.454.692-.6899,1.1339-.4655.2896.1444.4541.4403.4465.7438-.0282,1.0479-.2549,2.0078-.8844,2.9869-1.3797,2.3624-4.886,1.942-6.3793-.0715-.6761-.7781-1.8941-3.6236-.2754-3.8154.37-.0062.6366.2459.7726.5559h0Z" style="fill: #3ce699; stroke-width: 0px;"/>
    </g>
    <g>
      <path d="M151.3491,129.9389c-5.92,6.26-8.04,13.78-18.15,18.13-2.37,1.02-4.93,1.7-7,3.24-3.41,2.54-4.82,6.91-6.02,10.99-3.12-3.21-6.23-6.41-9.34-9.61-.81,3.67-1.62,7.35-2.43,11.03-13.3-10.37-27.38-19.75-42.08-28.02-7.53-4.25-15.44-8.37-20.95-15.03-2.12-2.57-3.86-5.52-4.53-8.78s-.17-6.84,1.81-9.51l-.18-.5c1.45-3.3,4.2-5.85,7.12-7.97,8.51-6.17,18.94-9.37,29.41-10.23,10.48-.87,21.04.51,31.28,2.86,9.13,2.08,18.13,4.96,26.36,9.41,2.94,1.59,5.9,3.5,7.52,6.43h.32c8.97,8.59,16.35,18.84,21.66,30.07-3.19-1.33-6.13-3.22-8.66-5.56.41,2.75.82,5.49,1.23,8.24-3.05-.09-4.87-3.5-7.37-5.19Z" style="fill: #d3e1f6; stroke-width: 0px;"/>
      <g>
        <path d="M144.1691,102.3789c-1.62-2.93-4.58-4.84-7.52-6.43-8.23-4.45-17.23-7.33-26.36-9.41-10.24-2.35-20.8-3.73-31.28-2.86-10.47.86-20.9,4.06-29.41,10.23-2.92,2.12-5.67,4.67-7.12,7.97" style="fill: none; stroke: #000; stroke-linecap: round; stroke-linejoin: round; stroke-width: 3px;"/>
        <path d="M42.6591,102.3789c-1.98,2.67-2.48,6.25-1.81,9.51s2.41,6.21,4.53,8.78c5.51,6.66,13.42,10.78,20.95,15.03,14.7,8.27,28.78,17.65,42.08,28.02.81-3.68,1.62-7.36,2.43-11.03,3.11,3.2,6.22,6.4,9.34,9.61,1.2-4.08,2.61-8.45,6.02-10.99,2.07-1.54,4.63-2.22,7-3.24,10.11-4.35,12.23-11.87,18.15-18.13" style="fill: none; stroke: #000; stroke-linecap: round; stroke-linejoin: round; stroke-width: 3px;"/>
        <path d="M144.4891,102.3789c8.97,8.59,16.35,18.84,21.66,30.07-3.19-1.33-6.13-3.22-8.66-5.56.41,2.75.82,5.49,1.23,8.24-3.05-.09-4.87-3.5-7.37-5.19-.7-.48-1.46-.82-2.31-.91" style="fill: none; stroke: #000; stroke-linecap: round; stroke-linejoin: round; stroke-width: 3px;"/>
      </g>
    </g>
    <path d="M140.6205,36.5807S121.7467,5.5277,74.7248,6.3101c0,0,16.2658,10.5364,17.577,14.2551,0,0-15.8771-6.5598-45.2974,3.7422,0,0,16.8854,4.4618,18.7343,9.2882,0,0-23.2421,4.2834-34.7639,34.8043,0,0,18.5825-17.4678,30.3022-16.9393,11.7197.5284,36.2895-1.6977,51.4575-7.1053,15.168-5.4077,21.295-1.9203,21.295-1.9203l6.591-5.8542Z" style="fill: #4dc485; stroke: #000; stroke-linecap: round; stroke-linejoin: round; stroke-width: 3px;"/>
    <path d="M129.4355,51.1285s7.5464-16.9761,23.5065-22.4386c15.96-5.4625,19.9069-21.7129,19.9069-21.7129,0,0,14.1609,24.9211,8.9825,50.2586-5.1785,25.3375-27.8931,44.754-27.8931,44.754" style="fill: #698cbd; stroke: #000; stroke-linecap: round; stroke-linejoin: round; stroke-width: 3px;"/>
    <path d="M68.8138,84.403s-7.1425.356-9.8635,4.0472-1.68,6.2935-1.68,6.2935c0,0,8.5116,6.3676,10.7374,7.9478s15.5872-5.2198,15.545-6.405,1.871-6.3872-2.805-8.2415-8.5822-3.4451-11.934-3.6421Z" style="fill: #2a2a2a; stroke: #000; stroke-linecap: round; stroke-linejoin: round; stroke-width: 3px;"/>
    <path d="M174.9214,32.1275s2.583,29.3212-7.2293,44.8274c0,0-6.4591-2.7136-5.1752-6.191l12.4046-38.6363Z" style="fill: #d3e1f6; stroke-width: 0px;"/>
    <path d="M176.7206,37.478s.2414-2.9545-2.199-8.129c0,0-2.3388,20.9279-13.1212,43.4594" style="fill: none; stroke: #000; stroke-linecap: round; stroke-linejoin: round; stroke-width: 3px;"/>
    <path d="M67.2331,61.9509c.5784-2.6559,2.43-4.9233,4.9219-6.0154,1.3474-.5326,3.8666-1.6657,4.3936.4043.1586.8178-.3757,1.6094-1.1935,1.7681-1.4622.0383-2.9332.1859-4.1936,1.0031-1.1981.7067-2.2123,1.944-2.742,3.2187-.2876.6876-1.3516.3441-1.1863-.3788h0Z" style="fill: #0f3049; stroke-width: 0px;"/>
    <path d="M128.5217,62.047c-3.5171-3.3765-8.8931-4.5362-13.5327-3.0979-.8206.2582-1.7028-.2202-1.9158-1.0575-.2235-.8474.3436-1.7179,1.2081-1.8579,1.4074-.2344,2.8295-.408,4.2601-.313,2.8262.1073,5.6252,1.0301,7.9736,2.5715,1.176.7736,2.2169,1.6344,3.1755,2.7498.2768.3221.2401.8076-.082,1.0845-.3251.2812-.8081.2322-1.0867-.0795h0Z" style="fill: #0f3049; stroke-width: 0px;"/>
    <path d="M142.1234,34.837s1.0446-6.1693,3.9034,3.2062" style="fill: none; stroke: #000; stroke-linecap: round; stroke-linejoin: round; stroke-width: 3px;"/>
    <path d="M147.807,30.9681s2.634-7.0012,6.2373,2.8615" style="fill: none; stroke: #000; stroke-linecap: round; stroke-linejoin: round; stroke-width: 3px;"/>
  </g>
  <path id="Frame1" d="M92.4648,134.4777c8.0625-.7424,17.5625-.6565,22.4655-3.3013" style="fill: none; stroke: #000; stroke-linecap: round; stroke-linejoin: round; stroke-width: 3px;"/>
  <g id="Frame2">
    <g>
      <g>
        <path d="M98.2252,137.97l-.29.26c-.44-.47-.86-.95-1.26-1.43-2.2-2.62-4.17-5.51-6.91-7.56l.04-.52c7.76.63,15.65-.26,23.09-2.6h.07c.25,3.13-.11,6.31-1.03,9.32-4.17-.46-10.11.37-13.71,2.53Z" style="fill: #682128; stroke-width: 0px;"/>
        <path d="M111.9352,135.44c-.5,1.68-1.18,3.3-2.02,4.83-.42.78-.92,1.57-1.67,2.04-.98.61-2.23.59-3.35.35-2.73-.6-5.02-2.37-6.96-4.43l.29-.26c3.6-2.16,9.54-2.99,13.71-2.53Z" style="fill: #ef9eb4; stroke-width: 0px;"/>
      </g>
      <g>
        <path d="M89.4152,128.69l.39.03c7.76.63,15.65-.26,23.09-2.6" style="fill: none; stroke: #000; stroke-linecap: round; stroke-linejoin: round; stroke-width: 3px;"/>
        <path d="M112.9652,126.04v.08c.25,3.13-.11,6.31-1.03,9.32-.5,1.68-1.18,3.3-2.02,4.83-.42.78-.92,1.57-1.67,2.04-.98.61-2.23.59-3.35.35-2.73-.6-5.02-2.37-6.96-4.43-.44-.47-.86-.95-1.26-1.43-2.2-2.62-4.17-5.51-6.91-7.56" style="fill: none; stroke: #000; stroke-linecap: round; stroke-linejoin: round; stroke-width: 3px;"/>
        <path d="M98.2252,137.97c3.6-2.16,9.54-2.99,13.71-2.53h.01" style="fill: none; stroke: #000; stroke-linecap: round; stroke-linejoin: round; stroke-width: 3px;"/>
      </g>
    </g>
  </g>
</svg>