<svg xmlns="http://www.w3.org/2000/svg" xmlns:xlink="http://www.w3.org/1999/xlink" viewBox="0 0 223.095 429.42" xmlns:v="https://vecta.io/nano"><style><![CDATA[.B{stroke:#000}.C{stroke-linejoin:round}.D{stroke-width:3}.E{stroke-linecap:round}.F{fill:none}.G{fill:#698cbd}.H{fill:#2e7b5b}.I{fill:#d3e1f6}.J{fill:#2b4d3c}.K{fill:#5ea28d}.L{fill:#283131}.M{fill:#4dc485}]]></style><defs><clipPath id="A"><path d="M32.893 388.612s-3.619 4.712-14.119 7.271-12.862 3.284-14.99 8.039-1.122 15.251 3.756 18.255 9.296 6.809 24.775 3.673 17.328-5.114 27.35-2.441 18.915 5.344 20.6-7.209 1.068-16.671-2.55-17.7 4.798-10.006 4.076-14.65c-2.244.99-.651 3.979-10.04 4.3s-9.918.603-16.447-.95-12.262-2.859-22.41 1.412" class="B C D E H"/></clipPath><clipPath id="B"><path d="M78.245 154.677s.132 12.676-2.229 16.036 12.627 7.292 18.7 6.199c11.765-2.118 18.694-3.059 14.7-15.059s2.531-22.823 2.531-22.823-32.643-8.471-33.702 15.647z" class="F"/></clipPath><path id="C" d="M32.893 388.612s-3.619 4.712-14.119 7.271-12.862 3.284-14.99 8.039-1.122 15.251 3.756 18.255 9.296 6.809 24.775 3.673 17.328-5.114 27.35-2.441 18.915 5.344 20.6-7.209 1.068-16.671-2.55-17.7 4.798-10.006 4.076-14.65c-2.244.99-.651 3.979-10.04 4.3s-9.918.603-16.447-.95-12.262-2.859-22.41 1.412"/><path id="D" d="M53.843 260.35s-3.328 4-3.328 13.1-5.8 58.527-8.035 61.7c0 0-2.696.976-2.877 4.369s-.908 11.275-1.663 17.746 30.657 9.729 49.128 4.335c-1.882-13.982-1.021-37.45 4.548-44.304s9.906 16.801 11.385 21.208 5.361 20.137 7.714 23.096 15.17 3.858 31.173-2.945 18.129-15.192 17.677-17.273-1.681-4.93-4.089-7.642-8.99-26.776-11.111-36.391-10.323-29.919-13.163-34.649-71.056-7.03-77.36-2.351z"/><path id="E" d="M78.245 154.677s.132 12.676-2.229 16.036 12.627 7.292 18.7 6.199c11.765-2.118 18.694-3.059 14.7-15.059s2.531-22.823 2.531-22.823-32.643-8.471-33.702 15.647z"/></defs><path d="M190.615 325.72c8.72-1.03 17.11-4.81 23.64-10.69l.13.1-.43.55c3.28-1.47 4.78-2.06 4.93-2.11-.18.57-6.4 18.83-32.46 20.16-26.47 1.36-76.59-30.63-76.59-30.63l-1.01-4.62c18.6 8.65 36.47 19.24 56.35 24.17 3.51.86 7.08 1.55 10.7 1.64 6.76.16 13.38-1.79 19.87-3.72-1.36 2.03-3.11 3.79-5.13 5.15z" class="I"/><path d="M221.595 299.09c-.49 3.27-1.17 8.12-7.21 16.04l-.13-.1c-6.53 5.88-14.92 9.66-23.64 10.69 2.02-1.36 3.77-3.12 5.13-5.15-6.49 1.93-13.11 3.88-19.87 3.72-3.62-.09-7.19-.78-10.7-1.64-19.88-4.93-37.75-15.52-56.35-24.17l-6.7-30.56s44.27 23.22 60.66 24.93c16.4 1.71 36.34 5.27 53.61-2.74-1.35 6.09-5.33 12.15-5.33 12.15s3.77-1.2 10.53-3.17z" class="G"/><g class="B C D E F"><path d="M218.895 313.56l-.01.01c-.18.57-6.4 18.83-32.46 20.16-26.47 1.36-76.59-30.63-76.59-30.63l-1.01-4.62-6.7-30.56s44.27 23.22 60.66 24.93c16.4 1.71 36.34 5.27 53.61-2.74-1.35 6.09-5.33 12.15-5.33 12.15s3.77-1.2 10.53-3.17c-.49 3.27-1.17 8.12-7.21 16.04l-.43.55c3.28-1.47 4.78-2.06 4.93-2.11"/><path d="M103.435 296.03l5.39 2.45c18.6 8.65 36.47 19.24 56.35 24.17 3.51.86 7.08 1.55 10.7 1.64 6.76.16 13.38-1.79 19.87-3.72-1.36 2.03-3.11 3.79-5.13 5.15 8.72-1.03 17.11-4.81 23.64-10.69"/></g><path d="M48.665 354.853S45.457 369 45.333 375.125c-.139 6.842-2.912 16.731 11.382 16.45s23.929 5.454 22.95-12.369 4.95-21.5.362-27.588-29.925-4.598-31.362 3.235z" class="B C D G"/><use xlink:href="#C" class="H"/><g clip-path="url(#A)"><path d="M22.354 385.824s19.778-2.029 25.526 8.426-6.064 6.751-6.064 6.751-4.676 3.594-5.653-.851-14.653 10.197-12.447.45c-3.882.424-42.87 8.165-1.362-14.776z" fill="#193425"/><path d="M6.915 397.441s-2.829 6.275 2.75 5.696 15.344-3.988 15.344-3.988-1.353 3.785 1.235 5.95c2-2.129 2.765-6.135 9.882-5.75.941 1.327 2.288 4.6 2.288 4.6s5.241-6.297 17.947-1.05 21.418 2.1 28.003-4.4 5.615 14.875 5.615 14.875-9.199 4.8-21.439.36S47.215 403.7 47.215 403.7s-3.382 5.153-11.853 6.918-1.297-6.918-1.297-6.918-5.738 7.494-12.5 7.25-.827-5.85-.827-5.85-21.611 10.906-19.023-2.2" fill="#42abe4" class="B C D E"/><path d="M23.098 426.721s-2.571-3.662-.932-6.132c2.827.077 9.668-.265 18.315-2.25s16.325-2.262 21.441-1.324 18.344-.815 18.344-.815-.34 9.239-7.842 9.394-18.752-5.315-28.105-2.183-21.221 3.309-21.221 3.309z" class="J"/><path d="M3.851 410.706c2.173 1.985 4.732 8.118 17.261 9.75-.353 1.632.662 6.777.662 6.777s-16.565-1.697-17.459-8.517-.464-8.011-.464-8.011z" fill="#53b791"/></g><g class="B C D E F"><use xlink:href="#C"/><path d="M3.263 409.333c3.673 5.826 9.892 10.032 16.701 11.069 9.33 1.421 18.503-2.877 27.879-3.948 2.343-.268 4.71-.333 7.065-.195 4.264.25 8.465 1.165 12.725 1.469s8.725-.054 12.441-2.159"/></g><path d="M32.893 388.612s-.916-6.568 3.423-8.957 8.046-1.507 10.399 2.728 1.007 16.118 1.007 16.118-5.534-9.13-14.829-9.888z" class="B C D K"/><path d="M22.354 427.109c-.443-.192-.645-.699-.775-1.164a11.37 11.37 0 0 1-.401-3.563c.011-.231.034-.476.17-.662" class="B C D E F"/><path d="M117.598 357.059s3.521 17.135 17.643 33.141 27.851 1.847 29.075-1.25-3.6-34.979-9.365-42.156-39.294-7.118-37.353 10.265z" class="B C D G"/><path d="M133.965 416.19l-2.17.24c-.85.13-1.69.31-2.55.26-1.81-.11-3.44-1.26-4.51-2.72-.18-.25-.34-.5-.49-.76-.77-1.3-1.25-2.75-1.63-4.22-.57-2.13-.99-4.33-.78-6.53.22-2.19 1.13-4.39 2.84-5.78-.01-.03-.01-.05-.02-.08l1.82-.51a2.86 2.86 0 0 0 .4.87c.79 1.16 2.45 1.67 3.7 1.06-.21.97-1.12 1.63-1.62 2.49-.71 1.24-.47 2.94.56 3.93 1.28 1.23 2.03 1.82 3.76 1.41-.71.13-1.93.99-1.96 1.72-.03.51.2 1.01.48 1.45.39.61.89 1.16 1.48 1.6 2.14 1.63 5.31 1.85 6.89 4.02.06.08.13.17.23.16l.01 1.21-1.74.02-4.7.16z" class="H"/><path d="M133.275 410.62c-.59-.44-1.09-.99-1.48-1.6-.28-.44-.51-.94-.48-1.45.03-.73 1.25-1.59 1.96-1.72-1.73.41-2.48-.18-3.76-1.41-1.03-.99-1.27-2.69-.56-3.93.5-.86 1.41-1.52 1.62-2.49-1.25.61-2.91.1-3.7-1.06a2.86 2.86 0 0 1-.4-.87 3.59 3.59 0 0 1 .53-3.06c.34-.47.78-.86 1.16-1.31 1.19-1.43 1.7-3.57 3.4-4.35l.14-.63.7.18-.37.63c-.81 1.51-1.35 3.17-1.61 4.87-.09.58-.08 1.3.44 1.58.66.35 1.39-.4 2.15-.46.12-.01.26.01.35.09.09.07.13.17.16.28.95 2.82-.77 5.91-.35 8.86l2.54-1.24c.3-.15.7-.28.93-.03.11.11.14.28.16.44l.6 3.01h.01c.46 1.89 1.08 3.75 1.85 5.54.55 1.29 1.19 2.59 1.28 4 .01.12-.02.29-.15.31-.1.01-.17-.08-.23-.16-1.58-2.17-4.75-2.39-6.89-4.02zm35.98-15.84l2.69 2.94c.38.4.76.84.87 1.38.21 1.01-.9 2.04-1.9 1.76 1.39 1.64 1.64 3.97 1.4 6.1a16.58 16.58 0 0 1-3.7 8.68c.08-4.42.78-7.74-1.45-11.56.2-.29.39-.61.39-.96-.01-.44-.31-.82-.62-1.14-.7-.75-1.53-1.29-2.3-1.94.48-.52 1.61-.81 2.28-1.12l-2.57-2.06c-.48-.37-.99-.84-.98-1.44l1.61-.79c-.83-.37-1.65-.78-2.3-1.42-.64-.63-1.09-1.51-1.01-2.42h-.01c.34-.82.58-1.69.73-2.56l.74.12 4.66 3.8c.08.25.27.44.46.61.54.5 1.12.95 1.71 1.38l-.7.64z" fill="#42abe4"/><path d="M162.385 388.23c-.15.87-.39 1.74-.73 2.56 0 .01-.01.02-.01.03-.39-.77-.29-1.71-.63-2.5-.45-1.03-1.53-1.61-2.57-2.01-3.7-1.43-7.82-1.49-11.72-.79-2.32.42-4.43 1.47-6.45 2.7-1.61.98-4.59 2.96-5.03 4.38-.07-.1-.13-.19-.19-.28-.82-1.36-.26-2.28-.78-4.69l-2.24-.08.37-.63c.89.2 1.83.34 1.92.08 1.2-3.51 4.5-5.87 7.87-7.43 4.24-1.96 9.03-3.04 13.63-2.19 1.06.2 2.12.51 3.03 1.09 2.04 1.31 2.98 3.74 3.81 6.01l-.2.15a12.07 12.07 0 0 1-.08 3.6z" class="K"/><path d="M172.885 396.34c3.65 3.25 5.03 8.57 4.24 13.4-.16.98-.41 1.96-.93 2.8-.21.35-.47.66-.75.95-.86.85-2 1.42-3.18 1.74-1.01.27-2.04.37-3.09.42-.18.01-.37.01-.56.02v-.03a16.58 16.58 0 0 0 3.7-8.68c.24-2.13-.01-4.46-1.4-6.1 1 .28 2.11-.75 1.9-1.76-.11-.54-.49-.98-.87-1.38l-2.69-2.94.7-.64c.99.71 2.02 1.38 2.93 2.2z" class="H"/><path d="M176.075 413.54c.25 3.34-.1 6.72-1.05 9.93l-.45-.13c-.62-1.44-1.28-2.87-2.14-4.18-.85-1.31-1.93-2.5-3.25-3.33l-.01-.18c1.05-.05 2.08-.15 3.09-.42 1.18-.32 2.32-.89 3.18-1.74l.63.05z" class="J"/><path d="M175.025 423.47l-.03.1c-.49 1.64-1.29 3.41-2.88 4.05-.76.3-1.59.3-2.41.3-12.76 0-25.52-.01-38.29-.01-.41 0-.85 0-1.22-.2-.26-.14-.46-.35-.65-.57a32.77 32.77 0 0 1-2.24-2.75 12.64 12.64 0 0 1 6.66-8.2c1.56-.12 3.13-.14 4.7-.16l1.74-.02 27.02-.32c.4 0 .8-.01 1.19-.02.19-.01.38-.01.56-.02l.01.18c1.32.83 2.4 2.02 3.25 3.33.86 1.31 1.52 2.74 2.14 4.18l.45.13z" fill="#53b791"/><path d="M167.165 404.08c2.23 3.82 1.53 7.14 1.45 11.56v.03l-1.19.02-27.02.32-.01-1.21c.13-.02.16-.19.15-.31-.09-1.41-.73-2.71-1.28-4-.77-1.79-1.39-3.65-1.85-5.54l1.19-.29c1.25 1.38 3.2 2.08 5.04 1.81 1.05-.16 2.02-.6 3.02-.94 2.87-1 5.95-1.04 8.94-.63 1.5.2 2.99.51 4.47.85 1.21.28 2.38.82 3.65.83 1.4.01 2.7-1.44 3.44-2.5z" class="K"/><path d="M164.625 379.66c3.57 2.3 5.09 7.32 3.4 11.23-.17.4-.38.85-.24 1.26l-4.66-3.8-.74-.12a12.07 12.07 0 0 0 .08-3.6l.2-.15c.94-.17 1.63-1.04 1.89-1.96.26-.93.16-1.91.07-2.86z" class="H"/><g fill="#193425"><path d="M167.555 403.12c0 .35-.19.67-.39.96-.74 1.06-2.04 2.51-3.44 2.5-1.27-.01-2.44-.55-3.65-.83l-4.47-.85c-2.99-.41-6.07-.37-8.94.63-1 .34-1.97.78-3.02.94-1.84.27-3.79-.43-5.04-1.81l-1.19.29h-.01l-.6-3.01c-.02-.16-.05-.33-.16-.44-.23-.25-.63-.12-.93.03l-2.54 1.24c-.42-2.95 1.3-6.04.35-8.86-.03-.11-.07-.21-.16-.28-.09-.08-.23-.1-.35-.09l2.04-1.22.19.28c.44-1.42 3.42-3.4 5.03-4.38 2.02-1.23 4.13-2.28 6.45-2.7 3.9-.7 8.02-.64 11.72.79 1.04.4 2.12.98 2.57 2.01.34.79.24 1.73.63 2.5 0-.01.01-.02.01-.03h.01c-.08.91.37 1.79 1.01 2.42.65.64 1.47 1.05 2.3 1.42l-1.61.79c-.01.6.5 1.07.98 1.44l2.57 2.06c-.67.31-1.8.6-2.28 1.12.77.65 1.6 1.19 2.3 1.94.31.32.61.7.62 1.14z"/><path d="M135.055 392.32l-2.04 1.22c-.76.06-1.49.81-2.15.46-.52-.28-.53-1-.44-1.58.26-1.7.8-3.36 1.61-4.87l2.24.08c.52 2.41-.04 3.33.78 4.69z"/></g><path d="M131.795 416.43l2.17-.24a12.64 12.64 0 0 0-6.66 8.2c-.81-1.12-1.52-2.3-2.09-3.55-1.06-2.34-1.6-4.95-1.23-7.48l.26-.15c.15.26.31.51.49.76 1.07 1.46 2.7 2.61 4.51 2.72.86.05 1.7-.13 2.55-.26z" class="J"/><path d="M131.705 386.74l-.14.63c-1.7.78-2.21 2.92-3.4 4.35l-1.16 1.31a3.59 3.59 0 0 0-.53 3.06l-1.82.51c-.67-2.35-1.24-4.81-.9-7.23.2-1.5 1.79-6.13 3.91-5.02 1.14.6 1.91 1.64 3.18 2.13.11.04.44.14.86.26z" class="H"/><g class="B C D F"><path d="M131.705 386.74l-.86-.26c-1.27-.49-2.04-1.53-3.18-2.13-2.12-1.11-3.71 3.52-3.91 5.02-.34 2.42.23 4.88.9 7.23.01.03.01.05.02.08-1.71 1.39-2.62 3.59-2.84 5.78-.21 2.2.21 4.4.78 6.53.38 1.47.86 2.92 1.63 4.22.15.26.31.51.49.76 1.07 1.46 2.7 2.61 4.51 2.72.86.05 1.7-.13 2.55-.26l2.17-.24 4.7-.16 1.74-.02 27.02-.32 1.19-.02.56-.02c1.05-.05 2.08-.15 3.09-.42 1.18-.32 2.32-.89 3.18-1.74.28-.29.54-.6.75-.95.52-.84.77-1.82.93-2.8.79-4.83-.59-10.15-4.24-13.4-.91-.82-1.94-1.49-2.93-2.2-.59-.43-1.17-.88-1.71-1.38-.19-.17-.38-.36-.46-.61-.14-.41.07-.86.24-1.26 1.69-3.91.17-8.93-3.4-11.23.09.95.19 1.93-.07 2.86-.26.92-.95 1.79-1.89 1.96-.83-2.27-1.77-4.7-3.81-6.01-.91-.58-1.97-.89-3.03-1.09-4.6-.85-9.39.23-13.63 2.19-3.37 1.56-6.67 3.92-7.87 7.43-.09.26-1.03.12-1.92-.08l-.7-.18z"/><g class="E"><path d="M134.275 387.63c.52 2.41-.04 3.33.78 4.69l.19.28c.44-1.42 3.42-3.4 5.03-4.38 2.02-1.23 4.13-2.28 6.45-2.7 3.9-.7 8.02-.64 11.72.79 1.04.4 2.12.98 2.57 2.01.34.79.24 1.73.63 2.5 0-.01.01-.02.01-.03.34-.82.58-1.69.73-2.56a12.07 12.07 0 0 0 .08-3.6m-30.06 2.28v.01l-.37.63c-.81 1.51-1.35 3.17-1.61 4.87-.09.58-.08 1.3.44 1.58.66.35 1.39-.4 2.15-.46.12-.01.26.01.35.09.09.07.13.17.16.28.95 2.82-.77 5.91-.35 8.86l2.54-1.24c.3-.15.7-.28.93-.03.11.11.14.28.16.44l.6 3.01h.01c.46 1.89 1.08 3.75 1.85 5.54.55 1.29 1.19 2.59 1.28 4 .01.12-.02.29-.15.31-.1.01-.17-.08-.23-.16-1.58-2.17-4.75-2.39-6.89-4.02-.59-.44-1.09-.99-1.48-1.6-.28-.44-.51-.94-.48-1.45.03-.73 1.25-1.59 1.96-1.72-1.73.41-2.48-.18-3.76-1.41-1.03-.99-1.27-2.69-.56-3.93.5-.86 1.41-1.52 1.62-2.49-1.25.61-2.91.1-3.7-1.06a2.86 2.86 0 0 1-.4-.87 3.59 3.59 0 0 1 .53-3.06c.34-.47.78-.86 1.16-1.31 1.19-1.43 1.7-3.57 3.4-4.35m7.04 17.29c1.25 1.38 3.2 2.08 5.04 1.81 1.05-.16 2.02-.6 3.02-.94 2.87-1 5.95-1.04 8.94-.63 1.5.2 2.99.51 4.47.85 1.21.28 2.38.82 3.65.83 1.4.01 2.7-1.44 3.44-2.5.2-.29.39-.61.39-.96-.01-.44-.31-.82-.62-1.14-.7-.75-1.53-1.29-2.3-1.94.48-.52 1.61-.81 2.28-1.12l-2.57-2.06c-.48-.37-.99-.84-.98-1.44l1.61-.79c-.83-.37-1.65-.78-2.3-1.42-.64-.63-1.09-1.51-1.01-2.42m-37.68 22.57c-.37 2.53.17 5.14 1.23 7.48.57 1.25 1.28 2.43 2.09 3.55a32.77 32.77 0 0 0 2.24 2.75c.19.22.39.43.65.57.37.2.81.2 1.22.2l38.29.01c.82 0 1.65 0 2.41-.3 1.59-.64 2.39-2.41 2.88-4.05l.03-.1c.95-3.21 1.3-6.59 1.05-9.93"/><path d="M133.995 416.17c-.01 0-.02.01-.03.02a12.64 12.64 0 0 0-6.66 8.2l-.06.23m41.94-8.79c1.32.83 2.4 2.02 3.25 3.33.86 1.31 1.52 2.74 2.14 4.18m-6.79-31.19l-4.66-3.8m4.04 15.73c2.23 3.82 1.53 7.14 1.45 11.56a16.58 16.58 0 0 0 3.7-8.68c.24-2.13-.01-4.46-1.4-6.1 1 .28 2.11-.75 1.9-1.76-.11-.54-.49-.98-.87-1.38l-2.69-2.94c-.03-.05-.08-.09-.12-.14"/></g></g><use xlink:href="#D" fill="#2e556b"/><g class="B C D"><g fill="#383e50"><path d="M88.127 294.765c.927 1.368 3.996 2.039 5.603 2.382l3.091-8.502c.451-1.637.525-3.351.597-5.048.149-3.532.289-7.136-.685-10.534-.127-.443-.283-.898-.61-1.223-.529-.525-1.352-.576-2.097-.589a167.35 167.35 0 0 0-8.317.053c.012 2.16 2.743 23.461 2.418 23.461z"/><g class="E"><path d="M50.515 281.9s10.847 3.506 20.141 2.7c1.509.12-2.135 19.125-3.591 18.841s-18.997-2.647-17.821-7.706"/><path d="M70.834 288.667s.457-9.519-.518-17.284m67.999 9.454c-1.125-2.426-2.471-1.471-4.354-.403a66.48 66.48 0 0 1-6.537 3.248c-.614.264-7.454 2.924-7.525 2.712 1.321 4.09 4.964 6.917 7.461 10.415 1.631 2.284 2.785 4.883 4.437 7.151l11.713-7.144c.158-.097.324-.201.412-.364.141-.262.038-.583-.066-.862"/></g></g><use xlink:href="#D" class="F"/><path d="M58.215 267.215l-16.9 47.835c-5.776 15.627-.6-2.7-.6-2.7s-5.167 8.25-4.925 10.474 2.069 4.588 3.181 5.868 2.921 2.382 9.318-7.456 21.656-42.894 20.777-47.785-8.115-8.109-10.85-6.235zm53.695 9.135s3.794 21.138 45.006 48.85c4.6-9 2.783-10.83 2.703-13.794-3.578-2.532-12.198-6.317-12.198-6.317s8.071 9.644-.906 2.587-24.771-36.998-29.624-36.293-4.934.582-4.982 4.968z" fill="#7bc85e"/><g class="G"><path d="M18.627 276.3s-8.39 12.15-8.578 15.452 1.503 6.701 2.63 7.771 5 2.203 6.632 2.14 6.397-11.886 6.519-13.841-5.012-14.102-7.203-11.522z"/><path d="M21.527 280.719s-5.98 11.146-5.755 14.975-.062 8.008 2.555 9.192 7.451.598 9.58-2.215.006-5.507-2.288-5.318 3.321-12.303 5.056-13.978-6.623-5.977-9.147-2.655zm11.808.468s1.252 2.728.692 6.756-1.758 6.407-1.253 10.095 2.605 3.74 4.686 2.801 2.051-3.666 3.959-6.288 5.088-10.716 3.389-16.718-11.541-4.032-11.472 3.354z"/></g></g><path d="M31.108 251.818l1.668-4.861 20.79 6.561-8.572 23.848-3.858 4.914s-7.034 1.898-10.227.442-8.705 2.038-9.743-2.621-5.515.441-2.6-5.05 10.962-15.138 12.35-19.726.193-3.506.193-3.506" fill="#df5959"/><path d="M27.659 260.736c-2.655 5.758-5.448 11.701-10.239 15.834 0 0-1.47 2.366 3.295 3.53 1.235 3.679 8.386 4.165 10.193 2.621 3.129 1.198 11.251 3.885 13.257-3.771m-.384.402c.378-1.317 1.171-1.823 1.212-1.987 1.949-7.695 6.519-14.519 8.468-22.213.097-.382.181-.811-.017-1.151-.156-.268-.453-.416-.733-.548-6.849-3.237-12.011-6.243-19.843-5.493-.28-.252-.547.095-.661.377a38.54 38.54 0 0 0-2.767 14.652" class="B C D E F"/><path d="M164.449 293.541c.459 2.173.941 4.355 1.789 6.408.227.551.493 1.108.939 1.503.964.853 2.546.672 3.552-.132s1.528-2.071 1.813-3.327c.347-1.534.399-3.135.152-4.689-.249-1.564-.795-3.062-1.337-4.55l-2.02-5.541c-2.554 2.07-5.306 3.022-7.997 3.274 1.118 2.309 2.566 4.48 3.11 7.053z" class="B C D G"/><path d="M175.129 275.481l-.373-2.259c-.298-2.149-1.021-4.235-1.924-6.207-1.325-2.894-3.492-5.312-5.741-7.564-2.429-2.433-4.991-4.73-7.551-7.024-.335-.3-.675-.604-1.077-.805-1.261-.633-2.77-.13-4.086.378-3.601 1.391-7.246 2.811-10.479 4.956-1.273.844-3.398 2.103-4.056 3.545-.697 1.525-.56 3.768-.981 5.426-.171.673-.369 1.338-.583 1.998 1.057 3.045 2.867 7.637 5.162 11.053.748-.702 1.479-1.421 2.182-2.168 2.215 1.827 3.562 4.517 4.223 7.325 2.708 1.266 6.574 2.582 10.661 2.407-.194-1.191-.376-2.414-.442-3.69.232 1.295.714 2.483 1.273 3.638 2.691-.252 5.443-1.204 7.997-3.274l-.765-2.098c.313.651.642 1.294.97 1.937 2.044-1.712 3.953-4.159 5.588-7.572z" fill="#df5959" class="B C D"/><path d="M136.283 272.748c-1.357 2.64-3.11 5.19-3.495 8.133-.076.583-.088 1.213.215 1.717.241.402.655.673 1.09.847 2.269.91 4.755-.562 6.652-2.103l2.696-2.366c-2.295-3.416-4.105-8.008-5.162-11.053-.536 1.658-1.2 3.274-1.996 4.824zm13.563 11.385l.195.904c.326 1.792.406 3.619.372 5.437l-.116 2.671c-.028.717.012 1.075.301 1.756.308.725 1.517 1.87 2.118 2.335.755.585 1.022 1.116 1.89 1.52.702.326 1.475.561 2.243.464 1.564-.197 2.631-1.668 3.306-3.093 1.521-3.213.892-6.272.354-9.586-4.088.175-7.953-1.141-10.661-2.407zm25.283-8.652c-1.635 3.413-3.544 5.859-5.588 7.572 1.482 2.909 3.102 5.747 4.87 8.492.196.305.436.637.795.689.564.083 1.031-.531 1.126-1.093 1.278-7.545-.168-10.198-1.202-15.66zm-16.419-25.883l-2.285-5.825c-2.029-5.71-2.236-11.943-4.283-17.647a547.79 547.79 0 0 0-22.436 13.497c4.217 6.534 7.425 13.718 9.479 21.218l.809-1.074c2.241-2.796 5.43-4.711 8.789-5.962s6.909-1.884 10.439-2.502a20.74 20.74 0 0 0-.511-1.707zM36.245 232.094s-5.771 13.083-2.179 19.789 12.203 13.488 21 2.818 8.938-24.483-1.5-22.606-17.321 0-17.321 0z" class="G B C D"/><path d="M125.415 241.45s7.761 4.698 21.535-2.891c15.353-8.459 12.187-10.832 11.901-13.328-.429-3.741-1.254-9.084-5.202-8.38-4.059.724-30.817 1.899-30.817 1.899s-3.129 17.297 2.582 22.7zm-85.011-21.262l-3.088-.584a1.31 1.31 0 0 0-1.503.917c-.916 3.133-3.226 11.785-1.398 13.679 1.961 2.032 13.293 7.756 22.782 5.704s6.602-23.088-16.793-19.717z" class="L B C D"/><g fill="#111414"><path d="M74.834 166.35s-5.602 2.633-15.507 6.362c0 0-11.638 27.317-17.066 42.288 0 0-2.375 5.603-2.696 8.338s13.356 8.274 18.782 9.762" class="B C D E"/><path d="M63.186 193.618s-8.171-20.641 14.179-25.968 51.05-9.993 48.2 21.458-59.438 23.804-62.379 4.51z"/><g class="B C D E"><path d="M60.565 186.912s1.098 37.146-2.6 52.688-4.4 24.5-4.4 24.5 7.032 14.732 30.944 15.595 46.956-9.429 47.919-13.636-2.513-10.471-1.613-18.236-5.802-63.382-5.802-63.382"/><path d="M112.215 164.907s8.669.199 12.585 1.043 25.157 49.154 26.065 51.35 3.933 6.706-6.285 11.041-18.015 2.659-19.015 2.259-8.732-33.571-9.791-46.159"/></g></g><path d="M60.812 261.128s21.374 14.003 61.609-.468" class="B C D E F"/><path d="M45.69 228.15s-5.916-2.297-7.504-4.194" class="B C D E L"/><g fill="#84db7b"><path d="M105.263 227.594c.01-.619-.015-1.237-.074-1.851h-.019c-.824-8.552-7.78-11.89-6.225-20.576 0 0-11.178 3.395-2.443 18.177a25.8 25.8 0 0 1 1.596 3.168c.043.403.068.808.058 1.216-.15 4.985-4.187 9.038-9.011 8.99h0c-4.818-.048-8.501-4.169-8.232-9.144a9.42 9.42 0 0 1 .347-2.039h-.043c.974-2.668 2.596-5.46 5.168-8.232 14.988-16.153 2.483-24.329-.114-24.215h0s2.506 3.908-4.519 16.058c-1.143-1.423-2.192-4.105-.228-8.638-.001 0-10.345 4.531-4.993 17.139-5.021 9.494-3.034 16.114-.025 20.174.055.077.114.15.17.225a16.67 16.67 0 0 0 .488.606 15.32 15.32 0 0 0 1.874 1.902 17.1 17.1 0 0 0 .581.481l.291.221c1.102.832 2.039 1.323 2.488 1.479h0a15.12 15.12 0 0 0 6.275 1.421c.795.008 1.573-.063 2.34-.171l-.181.07s.85-.101 2.134-.469c.818-.223 1.613-.505 2.378-.851 3.848-1.659 8.893-5.302 9.777-13.108.065-.576.098-1.125.114-1.66.005-.126.024-.248.026-.374h0z"/><path d="M81.525 200.508h0 0 0z"/></g><path d="M77.365 165.15s-7.238 3.75-7.885 4.815 3.882 12.653 22.412 13.359 26.024-12.006 26.024-13.974-3.494-5.732-18.2-7.026-22.35 2.827-22.35 2.827z" class="B C D L"/><use xlink:href="#E" class="G"/><g clip-path="url(#B)" class="I"><path d="M100.315 145.735s5.635 6.465 1.224 13.865-3.441 5.5-3.441 5.5 1.765.312 4.765-1.718.376 10.089-4.709 13.207-39.32 9.293-23.879-21.765 26.041-9.088 26.041-9.088z"/></g><g class="B C D F"><use xlink:href="#E"/><path d="M108.467 158s-1.574 8.773-19.386 9.9c-12.642.8-10.042-9.9-10.042-9.9" class="E"/></g><path d="M38.255 92.17S17.448 83.265 14.14 61.206s10.1-51.139 10.1-51.139-.907 2.798 11.725 18.057 30.947 45.598 2.29 64.046z" class="B C D G"/><path d="M114.365 139.735s2.644 11.353-2.15 18.265c4.382-.971 7.568-5.529 8.505-9.132 0 0 2.319 5.338-1.255 11.221 0 0 20.415-21.247 13.95-44.388s-28.775 9.439-19.05 24.035z" class="B C D M"/><path d="M43.315 98.65s-23.135-21.621-2.75-53.032 70.2-10.118 70.2-10.118 40.297 17.888 30.3 45.65-32.375 26.703-32.375 26.703-59.246 15.829-65.375-9.203z" class="B C D G"/><path d="M110.915 34.5S88.709 5.735 42.065 11.735c0 0 17.335 8.665 19.051 12.215 0 0-16.507-4.756-44.601 8.75 0 0 17.277 2.559 19.65 7.15 0 0-22.622 6.838-30.683 38.45 0 0 16.527-19.424 28.233-20.2s35.877-5.718 50.35-12.776 20.95-4.273 20.95-4.273l5.9-6.55z" class="B C D M"/><path d="M101.415 50.2s5.614-17.709 20.869-24.91S139.656 1.5 139.656 1.5s16.841 23.194 14.509 48.95-22.75 47.575-22.75 47.575" class="B C D E G"/><path d="M49.89 98.464s-12.314-6.161-8.921-19.239S54.165 67.6 56.665 69.25s8.89 5.062 8.529 21.45-15.304 7.764-15.304 7.764z" fill="#fff"/><path d="M54.665 76.186c3.973-.617 7.124 2.578 7.256 7.917s-.406 8.474-4.306 11.097-8.594-5.053-7.725-11.715 2.903-7.008 4.775-7.299z" class="B C D"/><path d="M55.791 79.794c-1.334.504-1.429 2.971-.84 3.971s1.384 2.045 2.324 1.728 1.705-2.405 1.176-3.728-1.025-2.588-2.66-1.971z" fill="#fff"/><path d="M54.345 88.698c.578 1.28 1.554 2.919 2.903 1.492.372-.393.718-1.02 1.045-1.588.225-.427.913-.262.932.21.429 3.291-3.578 5.644-5.473 2.397-.354-.629-.87-2.9.185-2.847.198.026.336.165.407.336h0z" fill="#3ce699"/><path d="M40.397 86.903c-.963-6.642-.408-15.275 6.274-18.857 2.232-1.187 4.766-1.493 7.15-1.437a1.5 1.5 0 1 1-.07 3.002c-10.434-1.505-13.151 8.76-12.492 17.168.073.549-.773.683-.862.125h0z"/><path d="M87.59 97.9s-6.325-10.885-2.512-21.789 13.754-9.258 22.46-4.022 7.118 17.688 3.177 24.962-23.125.85-23.125.85z" fill="#fff"/><path d="M112.577 90.948c.622-4.795 1.178-10.397-1.763-14.473-3.031-3.759-7.488-6.731-12.321-7.375-3.153-.481-6.25.52-8.755 2.356a1.5 1.5 0 0 1-2.114-.311 1.5 1.5 0 0 1 .371-2.131c8.175-5.806 18.97-1.034 24.218 6.452 2.125 2.998 2.267 6.948 2.045 10.466a36.99 36.99 0 0 1-.742 5.213.48.48 0 0 1-.939-.198h0z"/><path d="M95.633 76.167c4.276-2.226 9.913 2.165 9.26 8.404s-.068 11.558-4.797 11.647-5.981-3.617-6.797-5.275-4.148-11.402 2.335-14.777z" class="B C D"/><path d="M99.097 80.352c2.312-.294 4.57 2.448 3.065 5.548s-4.358.515-4.586-1.634.491-3.783 1.521-3.915z" fill="#fff"/><path d="M96.959 90.298c.808 1.304 2.961 3.051 4.207 1.458.38-.483.696-1.263.955-1.969.12-.47.611-.763 1.075-.589a.81.81 0 0 1 .526.69c.088 1.044-.03 2.024-.547 3.067-1.109 2.501-4.64 2.473-6.348.638-.758-.698-2.285-3.391-.697-3.761.367-.047.66.174.83.467h0z" fill="#3ce699"/><g class="B C D"><path d="M66.065 90.24s-2.65 4.789-28 11.378-14.586 24.829-10.881 29.09 16.236 16.557 42.531 25.498c3.235 2.941 3.75 10.69 3.75 10.69s4.309-1.16 5.721-5.16c1.129 1.665 1.412 5.915 1.412 5.915s50.576-20.15 50.818-52.621c0 0 5.235-1.659 12.15 1.171-2.262-6.465-4.7-7.5-4.7-7.5s3.909-3.535 10.6-2c-7.691-7.994-26.162-12.025-42.245-9.302-10.297 1.743-26.27 3.631-41.155-7.158z" class="I"/><path d="M39.598 108.147s-7.059 1.147-9.353 5.118-.971 6.441-.971 6.441l11.554 6.706c2.387 1.323 14.911-6.919 14.737-8.092s1.15-6.555-3.703-7.879-8.912-2.471-12.265-2.294z" fill="#2a2a2a"/><path d="M71.665 150s2.356.024 4.35-2.65 15.276 2.621 19.4-8.321" class="E I"/></g><path d="M144.509 26.265s5.823 28.853-2.206 45.353c0 0-6.72-1.979-5.831-5.578" class="I"/><path d="M146.892 31.382s-.088-2.963-3.088-7.835c0 0 0 21.058-8.213 44.648" class="B C D E F"/><path d="M40.8 67.864c.28-2.704 1.868-5.163 4.223-6.525 1.28-.679 3.658-2.085 4.411-.086a1.51 1.51 0 0 1-.99 1.89c-1.449.2-2.894.511-4.056 1.463-1.112.835-1.983 2.178-2.368 3.503-.209.715-1.305.492-1.221-.245h0zm60.92-6.711c-3.897-2.988-9.404-3.519-13.875-1.544-.776.295-1.644-.094-1.939-.87-.316-.817.151-1.745.994-1.981 1.373-.389 2.767-.72 4.199-.784 2.821-.207 5.705.399 8.21 1.67 1.255.638 2.385 1.378 3.461 2.38a.77.77 0 0 1 .039 1.087c-.292.316-.777.321-1.089.042h0z" class="M"/><path d="M112.215 32.6s.353-6.247 4.235 2.753m.984-7.229s1.84-7.25 6.517 2.151" class="B C D E F"/></svg>