<svg xmlns="http://www.w3.org/2000/svg" xmlns:xlink="http://www.w3.org/1999/xlink" preserveAspectRatio="none" width="221" height="429" xmlns:v="https://vecta.io/nano"><defs><g id="A" stroke="none"><path fill="#53b791" d="M2.25 409.55l-.55.15q-.75 4.2 1.25 8.25.6 1.05 1.3 2 1.75 2.4 4.15 3.85.25.1.5.25 5.6 2.1 11.45 2.55l.1-1.75q-.9-1.8-.6-5.15v-.25q-5.95-.7-10-3.6l-.45.35q-3.5-1-5.7-4.1-.95-1.15-1.45-2.55m163.8 5.95q-.05 0-.1.05-2 .45-4.25.75-4.9.65-13 .55-1.95 0-7.7-.05h-.05q-1.1 0-2.3 0h-.05q-3.65-.05-8.5-.1v.75q-.8.3-1.5 1.5-2 2.8-1.75 6.15l-.6.35q.55 1.2 1.45 1.65l.4.75q2.25-.25 20.5-.2 11.8.05 19.1-2.8.35-.15.65-.25 3.2-1.3 4.6-2.5.3-.55.5-1.1l-1-.4q-1.45-2.7-2.6-3.75-.9-.9-1.9-.9l-.25-.85q-.8.2-1.65.4z"/><path fill="#2b4d3c" d="M66.35 417.5q-.65-.05-1.25-.05-2.3-.05-7.25-.6-3.05-.35-5.2-.45h-.1q-1.1-.05-1.95-.05-.05 0-.15 0-.05 0-.1 0-.1 0-.2 0-4 .05-9.9 1.1-3.65.65-6.05 1.05-3.4.6-4.25.7-5.6.75-10.1.25v.25q-.3 3.35.6 5.15l-.1 1.75q5.05.4 10.25-.4 3.5-.55 9.95-2.45 6.7-1.95 9.9-2.55.9.3 1.85.35 2.7.2 6.7 1.75 5.7 2.3 8.35 2.3 2.5 0 4.8-1.15 2.3-1.15 3.8-3.1 1.55-2.05 2.6-5.65 0-.05.05-.1l-1.65-.55q-4.1 2.4-10.45 2.45-.1 0-.15 0m58.35-1.1l-.85.7q.3 2.9 2 7.35.15.5.35.9l.65-.25q-.25-3.35 1.75-6.15.7-1.2 1.5-1.5v-.75q-2.4-.05-5.1-.1-.1-.05-.2-.1-.05-.1-.1-.1m45.45-2.1h-.05q-1.15.4-2.4.8l.25.85q1 0 1.9.9 1.15 1.05 2.6 3.75l1 .4q1.5-3.9.25-8.3h-.05q-.2.1-.35.2l-.05.05q-1.45.7-3 1.3-.05 0-.1.05z"/><path fill="#2e7b5b" d="M65.1 417.45q.6 0 1.25.05.05 0 .15 0 6.35-.05 10.45-2.45-5.5-.6-10.65-1.95-11.5-3.1-21.45-9.9-2.3 2.75-5.4 4.5-3.15 1.8-6.6 2.25-1.65.25-2.4-.5-1-1-.25-2.85.55-.95.75-1.45.4-.85.4-1.55-1.9 2.9-4.95 4.75-.15.1-.25.15-.15.1-.3.2-2.85 1.5-6 1.75-1.45.3-2.4-.6-.8-1 .25-2.9.35-.4 1-1.25.15-.15.25-.35.3-.5.4-1-.5.4-1 .75-4.05 2.8-9.4 3.75-2.85.5-4.6-.4-.55-.2-.95-.6l-1.2 1.35-.05.05q0 .15.1.3.5 1.4 1.45 2.55 2.2 3.1 5.7 4.1l.45-.35q4.05 2.9 10 3.6 4.5.5 10.1-.25.85-.1 4.25-.7 2.4-.4 6.05-1.05 5.9-1.05 9.9-1.1.1 0 .2 0 .05 0 .1 0 .1 0 .15 0 .85 0 1.95.05h.1q2.15.1 5.2.45 4.95.55 7.25.6m108.95-15.9q-.25-.1-.3-.35l-1.35.7q-.1.25-.15.75 0 .15 0 .4-.05.35-.05.8 0 2.05-.8 4.65-.3.85-1.15 3.2l-.05.05q-.05.2-.1.35-.1.2-.15.35 0 .05-.05.15-.1.25-.2.5l.45 1.2q.05-.05.1-.05 1.55-.6 3-1.3l.05-.05q.15-.1.35-.2h.05q.05-.05.1-.05.7-1.75 1.05-3.45.1-1.1.1-3.35 0-1.5-.1-2.25-.2-.9-.8-2.05m-13.2-18.45l-.7.3q-.05 0 0 .05 0 .1.05.2.05.1.05.2l.05.05q.45 1.5.6 3.25.1 1.25.05 2.55l-.45.25.45.9q1.75 1.9 3.75 2.5l.5-.25q.25 0 .5-.4.65-.85.9-1.2-.15-.1-.25-.15-.25-1.05-.2-1.65 0-1.55-.1-3-.1-1.55-.35-3-.15-1.5-.85-2.75-.2-.35-.45-.65-.1-.1-.15-.15h-.05l-1.15 1.4-.7.65-.65.4q-.25.25-.85.5m-31.5 2.75q-.05-.05-.1-.05-.5-.3-.65-.45l-1.25-.75h-.05l-.6-.4h-.5q-.95-.15-1.75 1.15-2.1 2.25-2.6 5-.8 3.1.35 5.75.05.25.05.5.05.85-.35 2-.7 1.95-.8 2.35-.5 1.4-.5 4.5.2 3.75 1 6.15.85 2.9 3.1 4.8.05 0 .1.1.1.05.2.1 2.7.05 5.1.1 4.85.05 8.5.1h.05q1.2 0 2.3 0h.05q5.75.05 7.7.05 8.1.1 13-.55 2.25-.3 4.25-.75.05-.05.1-.05l-.35-1.15q.85-1.3 1.45-2.85 0-.05.05-.15.55-1.65.7-3.5.2-2.3-.1-4.95-.05-.2-.05-.4-.1-.4-.15-.85-.1-.55-.45-1.15v-.05q0-.05-.05-.05v-.05h-.05v.05q-.05.05-.1.15-.6 1-1.75 1.4-1.55.65-4.6.15-8.6-1.25-13.25 1.25l-2.5 1.5q-1.5.85-2.65 1-1.2.05-2.7-.45-.75-.25-2.55-1.05l-1.05.15q0 .05 0 .1 0 .05.05.1.15.7.5 1.4.75 1.35 2.9 3.85 1.15 1.6 1.5 3 .15.75.1 1.45l-2.35.3q.05-.75-.2-1.4-.3-.65-.95-1.2-.85-.75-2.6-1.25-1.65-.55-1.65-.6-.9-.35-1.5-.9-.9-.9-.55-2.45.35-1.5 1.55-2.05-3.3.55-4.5-.65-1.2-1.2-.75-3.1.2-1 1.5-3.15-.75.75-1.9.2-1.2-.5-1.45-1.55-.45-1.75.75-4.4l1.75-4.35.25-.65 1-1.35m-82.4-.15l-1 .1q.05.35.1.7 0 .35.05.7.15 1.7-.05 4.5-.2 3.55-.2 4.65L45.7 398l-.2 1.65q.05 0 .1.05.1 0 .25 0 2.2.3 5 1.4 1.65.65 4.85 2 5.65 2.05 11.15 2.05 5.5-.05 10-2.1l-1.35-4.4q.5-1.45.75-2.2.55-1.45 1.1-2.5 1-2 1.5-3.05.85-1.85 1-3.2.1-1.25-.1-3.05v-.05q-.05-.1-.05-.25 0-1-.25-2h-1v.05q0 .45 0 .95l-1.6 1.5q-4.8 3.4-14.25 3.6-5.15 0-7.5-.75-2.7-1.05-4.05-1.5-2.4-.8-4.1-.5z"/><path fill="#42abe4" d="M78.5 402.25l-1.65.8q-4.5 2.05-10 2.1-5.5 0-11.15-2.05-3.2-1.35-4.85-2-2.8-1.1-5-1.4-.15 0-.25 0-.05-.05-.1-.05h-.1q-.15 0-.3 0-.15 0-.25 0-.55-.05-1 0-.35 0-.7.05-1.3.15-2.55.6-2.75 1-3.9 3.15-1.5-2.4-2.5-4.25-3.05-.25-5.9 1.4-2.8 1.7-4.1 4.5-.65-1.1-1-2.25-.5-1.9-.1-4L9.95 402.2q-2.2.8-3.6.15-.4-.2-.65-.5-.35-.45-.45-1 0-.05 0-.1-.05-.05 0-.05l-.05-.05q-.1 0-.1.05-.05.05-.1.1-.1.15-.2.3-.25.25-.45.5l-1.75-.35q-.6 2.4-.75 3.15-.1.65-.15 1.3v.1q-.1 1.2.15 2.3.05.35.15.7.05.15.1.3l.1.1 1.2-1.35q-.2-.15-.3-.35-.25-.3-.45-.65-.3-.6-.35-1.1-.1-.6.15-1.15-.25.55-.15 1.15.05.5.35 1.1.2.35.45.65.1.2.3.35.4.4.95.6 1.75.9 4.6.4 5.35-.95 9.4-3.75.5-.35 1-.75-.1.5-.4 1-.1.2-.25.35-.65.85-1 1.25-1.05 1.9-.25 2.9.95.9 2.4.6 3.15-.25 6-1.75.15-.1.3-.2.1-.05.25-.15 3.05-1.85 4.95-4.75 0 .7-.4 1.55-.2.5-.75 1.45-.75 1.85.25 2.85.75.75 2.4.5 3.45-.45 6.6-2.25 3.1-1.75 5.4-4.5 9.95 6.8 21.45 9.9 5.15 1.35 10.65 1.95.55-.35 1.2-.6.4-.2.8-.35l.25-.9q.8-5.35.25-8.25-.2-.95-.9-2.6 0-.05-.05-.1m86.7-9.15l-.5.25q-.2.7-.75.85.4.65 1.25 2-.7 0-.85.65l2.85 1.5q.35.85 0 1.8-.05.05-.1.2v.05q.05 0 .05.05v.05q.35.6.45 1.15.05.45.15.85 0 .2.05.4.3 2.65.1 4.95-.15 1.85-.7 3.5-.05.1-.05.15-.6 1.55-1.45 2.85l.35 1.15q.85-.2 1.65-.4 1.25-.4 2.4-.8h.05l-.45-1.2q.1-.25.2-.5.05-.1.05-.15.05-.15.15-.35.05-.15.1-.35l.05-.05q.85-2.35 1.15-3.2.8-2.6.8-4.65 0-.45.05-.8 0-.25 0-.4.05-.5.15-.75l1.35-.7q0-.05 0-.1v-.05q-.05-.1-.05-.15-.1-1.05-.6-2.15-.3-.6-.85-1.45-.05-.1-.1-.2l-.1-.1q-.3-.5-.7-1.05-.35-.45-.7-.85-2.15-2.45-4.05-3.6-.25.35-.9 1.2-.25.4-.5.4m-34.95-4.4l-2.15-.85-1.75 4.35q-1.2 2.65-.75 4.4.25 1.05 1.45 1.55 1.15.55 1.9-.2-1.3 2.15-1.5 3.15-.45 1.9.75 3.1 1.2 1.2 4.5.65-1.2.55-1.55 2.05-.35 1.55.55 2.45.6.55 1.5.9 0 .05 1.65.6 1.75.5 2.6 1.25.65.55.95 1.2.25.65.2 1.4l2.35-.3q.05-.7-.1-1.45-.35-1.4-1.5-3-2.15-2.5-2.9-3.85-.35-.7-.5-1.4-.05-.05-.05-.1 0-.05 0-.1-.55-1.95-.2-3.8l-4.1.75q.2-.75.35-1.45.5-2.5.4-5.15-.15-.75-.4-1.15-.75-.95-2.6-.1-.25-1.35 0-2.65.25-1.15.9-2.25z"/><path fill="#5ea28d" d="M132.4 386.55q.15.2.35.55 0 .05.1.2v.05q.4.7 1.2 2 .35.6.6 1.1.2.55.3 1l.35.65 1.55-.75q.35-.9.9-1.65 1.55-2.4 4.6-4 3.4-1.6 7.75-1.6 3.5-.25 6.25 1 1.15.5 2.05 1.35.25.25.5.5 1.15 1.3 1.45 2.75l.15.25.45-.25q.05-1.3-.05-2.55-.15-1.75-.6-3.25l-.05-.05q0-.1-.05-.2-.05-.1-.05-.2-.05-.05 0-.05-.25-.65-.55-1.2-.2-.5-.45-.9-.05-.05-.05-.1-.95-1.5-2.25-2.5-2.35-1.9-6-2.1-3.05-.2-6.5.85-7.4 2.5-12.25 8.65.1.1.3.45m-95.7-8.7q-2.55 1.15-4.1 3.6-1.6 2.5-1.4 5.25l.6.9q.65-.4 1.75.45 1.05.8 3.25 1.65 2.15.85 3.9 2.1 1.75 1.25 5 6.2l.15-1.65q0-1.1.2-4.65.2-2.8.05-4.5-.05-.35-.05-.7-.05-.35-.1-.7-.7-4.55-3.25-6.95-1.55-1.35-3-1.5-1.15-.2-2.75.4-.15.05-.25.1z"/><path fill="#193425" d="M130.5 386.05q-.65 0-1.15-.2l-1 1.35-.25.65 2.15.85q-.65 1.1-.9 2.25-.25 1.3 0 2.65 1.85-.85 2.6.1.25.4.4 1.15.1 2.65-.4 5.15-.15.7-.35 1.45l4.1-.75q-.35 1.85.2 3.8l1.05-.15q1.8.8 2.55 1.05 1.5.5 2.7.45 1.15-.15 2.65-1l2.5-1.5q4.65-2.5 13.25-1.25 3.05.5 4.6-.15 1.15-.4 1.75-1.4.05-.1.1-.15v-.05h.05q.05-.15.1-.2.35-.95 0-1.8l-2.85-1.5q.15-.65.85-.65-.85-1.35-1.25-2 .55-.15.75-.85-2-.6-3.75-2.5l-.45-.9-.15-.25q-.3-1.45-1.45-2.75-.25-.25-.5-.5-.9-.85-2.05-1.35-2.75-1.25-6.25-1-4.35 0-7.75 1.6-3.05 1.6-4.6 4-.55.75-.9 1.65l-1.55.75-.35-.65q-.1-.45-.3-1-.25-.5-.6-1.1-.8-1.3-1.2-2v-.05q-.1-.15-.1-.2-.2-.35-.35-.55-.2-.35-.3-.45l-.65-.15q-.5.1-.95.1M28.6 389.7q-3.5 2.8-7.6 4.65-2.1.95-4.25 1.65-2.2.65-4.55 1.1-3 .5-4.35 1.1-.75.4-1.75 1.4-.4.45-.9 1v.05l.05.05q-.05 0 0 .05 0 .05 0 .1.1.55.45 1 .25.3.65.5 1.4.65 3.6-.15l13.15-3.35q-.4 2.1.1 4 .35 1.15 1 2.25 1.3-2.8 4.1-4.5 2.85-1.65 5.9-1.4 1 1.85 2.5 4.25 1.15-2.15 3.9-3.15 1.25-.45 2.55-.6.35-.05.7-.05.45-.05 1 0 .1 0 .25 0 .15 0 .3 0l.3-1.65q-3.25-4.95-5-6.2-1.75-1.25-3.9-2.1-2.2-.85-3.25-1.65-1.1-.85-1.75-.45-.7.45-1.2 1.25l-2 .85z"/><path fill="#698cbd" d="M118.95 362.65l-.1 1.45q4.25 10.45 8.2 19.75v.05q.15.3.3.7l1.25.75q.15.15.65.45.05 0 .1.05.5.2 1.15.2.45 0 .95-.1l.65.15q4.85-6.15 12.25-8.65 3.45-1.05 6.5-.85 3.65.2 6 2.1 1.3 1 2.25 2.5 0 .05.05.1.25.4.45.9.3.55.55 1.2l.7-.3q.6-.25.85-.5l.65-.4.7-.65 1.15-1.4-.05-.05q-.15-.15-.3-.2-.5-.35-1.25-.45l-.5-.05.25 1.45-.25-1.45-3.9-19.7q-.75-3.95-1.3-5.75-1-3.15-2.55-5.25l-.8-.7q-.2.2-.4.4-1.95 2-5.45 4.8-7.05 5.3-12.5 7.25-5.65 2-13.15 2.2-1.3.05-3.1 0M39.8 360.8q-.3 1.05-.85 3.05-.85 4.1-2.5 12.35l.5 1.55q1.6-.6 2.75-.4 1.45.15 3 1.5 2.55 2.4 3.25 6.95l1-.1q1.7-.3 4.1.5 1.35.45 4.05 1.5 2.35.75 7.5.75 9.45-.2 14.25-3.6l1.6-1.5q0-.5 0-.95v-.05q-.3-8.85 1-18.8-3.55.8-8 .9-6.65.25-15.05-.85-4.95-.65-14.95-2.5-.85-.15-1.65-.3m101.75-65.15l.05.05q.35 1.15.75 2.4.65 2.2 1.35 4.4l1-.3q3.25 3.25 5.25 4.25 1.15.5 3.5 1.5 1.75.75 3 2 .9.9 1.4.65l.35 2q.15 3.25.1 4.45-.05 1.8-.55 3.2 3.65 1.2 7.25 1.95 16.1 3.4 28.6-2.35l.1.25q-.45.3-.9 1.05-.45.9-.7 1.3-.25.7-.65 1.25-.4.65-.75 1l.2.5q4.1-1 6.95-2.1 6.65-2.5 11.75-7.4l1.5-.1q5.2-5.8 7.75-13.5.75-2.45.6-3.5-3.25 1.1-7.35 2.85-1.5.85-2.75.9.8-.65 1.85-2.5 2.8-5.05 4.25-9.4.3-.65.6-1l-.35-.25q-14.6 5.95-31.85 5.85-15.9-.05-32.25-5.2-6.65-2.05-13.6-4.95 1.85 5.35 3.55 10.75M52.6 78.3q.15-.05.25-.1.1-.05.25-.15-2.5.55-4.2.8-3.05.45-5.7.5.05 0 .1.05.05 0 .1.05.1 0 .2.05.1 0 .2 0 .1.05.2.1.15 0 .25.05.05.05.15.05.05 0 .1.05.45 0 .9 0 .45 0 .95.05.5 0 1 .05.5 0 1 0 .45 0 .9 0 .05 0 .15 0 .3-.2.65-.35.35-.15.65-.25.35-.1.65-.3.3-.2.6-.35.35-.2.65-.3m-6.85 17.25q-.049-.001-.05-.05v.05h.05M23.45 10.2l-1.6-.35q-5.4 11.9-7.9 21.85v.05q-.05 0-.05.05 0 .05 0 .15-.05 0-.05.05-3 12.15-2.15 22.7.05.55.1 1.1v.05q.05.45.1.9l1.05-.1q.35-.55.75-1.05 7.65-10.45 18.4-15.4l.85-1.65-.05-.05q-3.25-1.6-8.05-3.1-8.7-2.7-10-3.2h-.05q0-.05.05-.05 8.4-4.95 17.7-7.2l-.35-1.5q-1.15-.75-2.15-2.2-.55-.8-1.6-2.8-2.5-4.8-5-8.25m69.6 66.9l-.05.05q.95-.2 1.9-.35-.8 0-1.85.3M105.8 73q.15-.15.35-.2.25-.1.45-.15.2-.1.45-.2.1-.05.25-.1.15-.1.35-.2.2-.1.4-.15.2-.05.45-.1.3 0 .6-.05.15 0 .25 0 .1 0 .15.05.1 0 .25.05.2.1.35.25.15.1.25.3.1.2.15.4.1.15.15.3.5 1.15.8 2.35-.35-2.1-1.4-4.45-11.65 4.55-23.85 7.25.55-.1 1.05-.15.85-.1 1.75-.25.35-.05.75-.1 1.15-.25 2.3-.5.45-.1.85-.2.05 0 .1 0l.05-.05q1.05-.3 1.85-.3.1-.05.2-.05.85-.15 1.65-.35 1.4-.25 2.75-.9 1.2-.6 2.5-.95.4-.15.7-.3 1.3-.7 2.7-1.05.25-.1.4-.2m32.8-71.5l-1.25.7q-3.8 11.8-17.15 22.9-.1.05-.15.1l.65.5 4 4.15-4-4.15-.65-.5q-.9.75-1.85 1.5-.9.7-1.7 1.35-1.25.95-2.25 1.75.1 0 .2.05.55.15 1 .6 1.7.95 2.4 1.65.9.9 1.25 1-.35-.1-1.25-1-.7-.7-2.4-1.65-.45-.45-1-.6-.1-.05-.2-.05-1.2.95-2.05 1.6-.1.1-.2.2-1.5 1.2-2.8 2.4-1.45 1.25-2.6 2.45-1.95 2-3.3 4.1-3.1 4.5-3.6 9.15.5-4.65 3.6-9.15l-1.45-.95q-6.75-1.05-15.75 2.1-10.25 4.3-15.4 6.15-8.05 2.9-22.35 5.75-8.15 1.55-13.25 2.6-.05.1-.1.25-.1.25-.2.6-.4.85-.9 2 0 .05 0 .1-.55 1.15-1.2 2.55-1.75 4.6-2.1 8.9.35-4.3 2.1-8.9.65-1.4 1.2-2.55 0-.05 0-.1.5-1.15.9-2 .1-.35.2-.6.05-.15.1-.25-.05 0-.15.05-.2 0-.35.05-.7.15-1.3.3-.7.1-1.3.25l.35 1.6q-.35.1-.7.25-9 2.85-15.45 6.9-.95.6-1.8 1.25-.1.05-.15.1 1.75 5.15 4.7 9.85 6.05 9.5 15.2 13.65.05 0 .1.05l1.25-.65q-.25-.5-.45-1-.05-.05-.05-.1-.1-.1-.1-.2-.5-1.05-.95-2.1-3-7.25-3.5-15 .5 7.75 3.5 15 .45 1.05.95 2.1 0 .1.1.2 0 .05.05.1.2.5.45 1 .4.75.85 1.5 2.05 3.7 4.8 6.9.2.25.45.5l.6-.15q1.75-.4 3.55-.85l-.1-.3q-.05 0-.1 0-.05 0-.1 0-.05 0-.1 0-.05 0-.1 0-.05-.05-.1-.05-.05 0-.1 0-.05-.05-.1-.05-.05 0-.1-.05-.05 0-.1-.05-.05 0-.1-.05-.05 0-.1-.05-.65-.5-1.1-1.2-.4-.65-.9-1.3-.45-.6-.85-1.25-.2-.35-.35-.75-.35-.7-.6-1.45-.25-.55-.4-1.1-.15-.4-.35-.75-.2-.35-.2-.7 0-.35 0-.65 0-.4-.05-.7 0-.4.05-.75 0-.25 0-.45-.2-.65-.15-1.25 0-.65 0-1.3 0-.6 0-1.2 0-.6-.05-1.15 0-.55.15-1.05 0-.05 0-.1.05 0 .05-.05 0-.05 0-.1l.05-.05q0-.05.05-.1 0-.05 0-.1.05-.05.05-.1.05-.05.1-.1 0-.05.05-.05.05-.05.15-.1-.35-.05-.7-.1.35.05.7.1.1-.1.2-.15.2-.1.4-.2.2-.05.45-.05.25 0 .45.05.2 0 .45.1.15.05.45.15.05 0 .1.05.05 0 .1 0 .05 0 .1.05.05 0 .1 0 .05.05.1.05h.05q2.65-.05 5.7-.5 1.7-.25 4.2-.8.05-.05.15-.1.15-.1.4-.15.2-.1.3-.15.2-.1.35-.15.1-.1.3-.15.1-.05.25-.1.05 0 .05-.05.05-.05.1-.05.05-.05.1-.1.05 0 .05-.05.05-.05.1-.05.05-.05.1-.05.35-.15.8-.15.35 0 .7.15.2.1.35.2.5-.15 1-.25-.5.1-1 .25.15.1.3.2.35.3.65.6.3.3.55.6.15.2.25.35.05.05.1.1.1.1.15.2.1.05.2.15.05.05.05.1.05.05.1.1 0 .05.05.05.05.05.1.1 0 .05.05.15 0 .05.05.1 0 .05.05.1v.1q.1.15.25.3.15.2.25.4.1.2.2.4.15.2.2.4.05.15.1.35.05.1.05.2.2.4.35.8.1.35.3.75.2.4.35.85.1.45.15.85.1.5.25.95.1.35.1.65 0 .05 0 .1.05.1.05.15 0 .05.05.1 0 .05 0 .1.05.05.05.1 0 .05.05.1 0 .05 0 .1 0 .1 0 .15.05.05.05.1 0 .05 0 .1 0 .05 0 .1 0 .05 0 .15 0 .05 0 .1.2.9.15 1.85 0 .6 0 1.3.8-.35 1.55-.75l.75-.65q6.1 4.9 13.75 6.8-.7-.25-.9-1.05-.3-1.1-.55-2.15-.4-1.5-.45-3-.05-1.55-.05-3.15-.05-1.6.05-3.2.05-.8.45-1.5 0-.15.1-.3.1-.15.15-.35.05-.15.1-.3.05-.2.2-.35.1-.1.2-.2.05-.05.05-.1.05-.05.05-.1l.05-.05q0-.05 0-.1 0-.05.05-.1 0-.05.05-.1 0-.05.05-.1.8-.8 1.95-1.15.65-.2 1.35-.35-1.9.35-3.8.65 1.9-.3 3.8-.65.55-.2 1.15-.3 1.2-.3 2.4-.5.45-.1.9-.15 12.2-2.7 23.85-7.25 1.05 2.35 1.4 4.45.2.7.35 1.4.05.2.1.4.25 1.5.6 2.95.25 1 .25 2.05-.05 1.6-.05 3.25 0 1.55.05 3.1 0 .8-.2 1.6-.1.4-.25.75-.15.4-.25.8-.55 1.45-1.4 2.8-.4.65-.8 1.3-.05.05-.15.15-.05.1-.1.2-.1.1-.15.2 6.3-.6 9.15-.55 6.25.15 12.35 1.9l.75-2.4q9.65-8.05 15.1-20.45 5.25-11.85 5.65-25.05.3-11.25-2.8-22.8v-.1l-.05-.15-.15-.6q-.25-.85-.5-1.65Q145.4 12.8 138.6 1.5m3.25 22.35q.05.1.1.25.25.5.9 1.75.35.5 1 1.5.05.1.15.2.15.3.45.8.35.65.2 1.35.05.05.1.05.05.05.1.1.05.05.1.05.05.05.1.1.05.05.05.1.05.1.05.15.05.05.05.1.05.05.05.15 0 2.05 0 4.05 0 2.7 0 5.35 0 2.4.05 4.8.05 1.55-.25 3.05 0 .2 0 .45 0 .2-.05.45-.05.15-.05.3-.05.2-.1.35 0 .1-.05.25-.05.15-.1.35 0 .1-.05.25 0 .15 0 .35 0 .15 0 .3 0 .2 0 .4 0 .05-.05.15 0 .1 0 .2 0 .1-.05.2 0 .05-.05.1 0 .1-.05.15 0 .05-.05.1 0 .1-.05.15 0 .05-.05.1 0 .05 0 .1-.05.05-.05.1 0 .1 0 .15 0 .1 0 .15 0 .1 0 .15 0 .1-.05.15 0 .1 0 .15 0 .05 0 .15-.05.05-.05.1 0 .1-.05.15 0 .05-.05.1-.05.05-.05.15-.05.05-.1.1 0 .05-.05.1 0 .05-.05.1 0 .05 0 .1 0 .097-.05.15l.05-.05q.2 0 .45.15.35.25.4.7.05.25.05.5 0 1 0 1.95.05.9-.2 1.75-.15.5-.25 1-.15.9-.35 1.75-.25.95-.5 1.9-.25 1-.6 1.9-.35.9-.7 1.75-.3.85-.7 1.65-.15.4-.3.75-.2.35-.3.75-.1.45-.3.85-.2.35-.35.7-.15.35-.35.7l-.05.05q0 .05-.05.15 0 .05-.05.1-.05.05-.05.1-.05.1-.1.15 0 .05-.05.1v.05q-.05.1-.05.15-.05.05-.1.15 0 .05-.05.1 0 .05 0 .1-.05.05-.05.1l-.05.05q-.1.45-.35.9-.25.4-.55.8-.25.35-.4.7-.2.4-.4.75-.2.35-.45.65-.05 0-.05.05v.05q-.1.35-.35.65-.05.1-.1.25-.2.4-.5.75-.15.25-.3.45-.25.35-.4.7-.2.3-.45.65 0 .05-.05.1-.05.05-.05.15-.05.05-.1.1 0 .05-.05.1-.05.1-.1.15-.05.05-.1.1 0 .05-.05.1-.05.1-.1.15-.05.05-.05.15-.05.05-.1.1-.05.05-.1.1-.05.05-.1.15l-.05.05q0 .05-.05.15-.05.05-.1.15-.1.05-.1.15-.05.1-.1.2-.1.05-.15.15-.05.1-.15.2l-.1.1v.05l-.05.05q0 .05 0 .1-.05 0-.05.05-.05.1-.1.15-.1.05-.15.15-.05.05-.15.15-.05.05-.1.15-.1.1-.2.15v.05q0 .05-.05.1 0 .05-.05.1-.05.05-.05.1-.05.05-.1.1-.05.05-.05.1l-.05.05q-.1.1-.15.2-.05.1-.1.15-.1.1-.15.15-.1.05-.2.1-.1.05-.15.1-.05.05-.2.05-.05 0-.1 0-.1.05-.15.05-.05 0-.1 0-.05 0-.1 0-.1 0-.15 0-.05-.05-.15-.05h-.05q-.1 0-.2-.05-.05-.05-.15-.05-.15-.05-.2-.1-.1-.05-.15-.1-.05-.1-.15-.15v-.05q-.1.05-.15.05-.1 0-.2.05-.05 0-.15 0-.1 0-.15 0-.1-.05-.2-.05-.05 0-.1-.05-.05 0-.15-.05-.05-.05-.1-.05 0-.05-.05-.1-.05-.05-.1-.1-.05-.05-.1-.1-.05-.1-.05-.15-.2-.35-.35-.6-.15-.25-.25-.5-.1-.25-.2-.5-.1-.25-.15-.5 0-.15-.05-.3 0-.05 0-.1l-.1-.1q0-.05-.05-.1-.05-.05-.05-.1-.05-.05-.1-.15-.05-.05-.1-.15-.05-.05-.1-.15-.05-.05-.1-.1-.05-.1-.1-.15-.05-.05-.05-.1-.05-.1-.05-.15 0-.05-.05-.1 0-.1 0-.15 0-.05 0-.15.05-.05.05-.1 0-.1.05-.15 0-.05.05-.1.05-.05.05-.1.05 0 .05-.05 8.4-12.7 12.2-27.75 2.75-10.85 3.05-21.85.1-3.7-.1-7.4 0-.6-.05-1.15v-.05q-.35-.65-.4-.75.05.1.4.75V23q.2.35.5.85m-59.15 41q3.55-1.4 8-.75 2.85.4 7.75 1.85-4.9-1.45-7.75-1.85-4.45-.65-8 .75-2.55 1.25-2.25 3-.3-1.75 2.25-3M38.55 79.6q-.15 3.2.25 6.75-.4-3.55-.25-6.75m5.75-5.5q5.75 0 8.65-.15-2.9.15-8.65.15-2.1 0-3.1-.4l-1.25-.35 1.25.35q1 .4 3.1.4m90.2 4.55v.1q.05-.05.1-.1.05-.05.05-.1 0-.048 0-.1-.002.052-.05.1l-.05.05v.05h-.05m-.05.15h-.05v.05q0 .05-.05.05v.05l-.05.05v.05q.05-.05.1-.1 0-.05.05-.1.05-.05.05-.1h-.05v.05m-.3.4v.05q.05 0 .05-.05v-.05q-.001.05-.05.05m-.05.15l.05-.05h-.05v.05m7.85-55.25q-.05-.15-.1-.25-.3-.5-.5-.85.05.55.05 1.15.2 3.7.1 7.4h1.75q0-.55 0-1.05 0-.1.05-.15 0-.05.05-.1 0-.05.05-.15 0-.05.05-.1.05-.05.1-.1.05 0 .1-.05.05-.05.1-.1.05 0 .1-.05.1 0 .15-.05.05 0 .1 0 .1 0 .15-.05.05.05.15.05.05 0 .1 0 .1.05.15.05.15-.7-.2-1.35-.3-.5-.45-.8-.1-.1-.15-.2-.65-1-1-1.5-.65-1.25-.9-1.75z"/><path fill="#d3e1f6" d="M149.6 321.3q-.5-.35-.95-.65.1.4.2.85.1.3.2.65.15.65.3 1.3.15.55.3 1.1 5.7 2.55 11.7 4.55 17.7 5.95 31.1 3.35 8.1-1.55 14.5-6.3 6.8-5 9.5-12.2-3.1 1.65-4.6 2.5l-.75-.85-1.5.1q-5.1 4.9-11.75 7.4-2.85 1.1-6.95 2.1-.55.1-1.1.25-.45.05-.85.15.4-.1.85-.15.45-.3.9-.75.35-.35.75-1 .4-.55.65-1.25.25-.4.7-1.3.45-.75.9-1.05l-.1-.25q-12.5 5.75-28.6 2.35-3.6-.75-7.25-1.95-.2.5-.4.95-.4 1.15-1.15 2.15l-1 1.35q-1.6-.95-3.2-1.9-.8-.5-1.55-1-.45-.25-.85-.5M78.1 161.95q-.35.1-1.25 1.15-.3.2-.75.35-.25.05-.45.15l-.4 2.1-1.4 6.65q1.55 2.1 4 3.45 1.15.65 2.4 1.05 1.25.4 2.6.6 4.2.8 10.6-.6 2.6-.6 5.15-1.4l-.2-.65q.1-.05.2-.1.1-.05.2-.15l.05-.05q0-.05.05-.05 0-.05.05-.1l.05-.05v-.05l.05-.05q.05-.05.05-.1-.05-.05-.1-.05-.1 0-.2-.05 0-.05-.05-.05-.05-.05-.1-.05-.05-.05-.1-.1-.05-.05-.05-.1-.05 0-.1-.05 0-.05-.05-.15 0-.05-.05-.1v-.1q0-.05-.05-.05 0-.05 0-.1v-.05q0-.15.05-.35.05-.15.15-.3.05-.15.15-.3.1-.1.2-.25.05-.1.1-.25.05 0 .05-.05 0-.05.05-.05 0-.05.05-.05 0-.05.05-.1 0-.1.05-.15.05-.05.05-.15.05-.05.1-.1 0-.05.05-.15.05-.05.1-.1v-.05q.05 0 .05-.05l.05-.05v-.05l.05-.05q.05-.2.1-.4.1-.2.15-.45.1-.2.15-.4.05-.2.15-.35.05-.2.2-.35 0-.05.05-.05 0-.1 0-.15.05-.05.05-.1v-.05q-.5.2-1.05.4-.1 0-.15.05-3.6 1.3-7.55 1.8-8.55 1.05-16.35-1.85 7.8 2.9 16.35 1.85 3.95-.5 7.55-1.8.05-.05.15-.05.55-.2 1.05-.4 0-.05 0-.1.05-.05.05-.1.05-.05.05-.15.05-.05.05-.1l.05-.05v-.05q0-.05.05-.05v-.05q0-.05.05-.1v-.05q.05 0 .05-.05 0-.05.05-.05.05-.15.05-.25.05-.15.15-.25.05-.15.1-.3 0-.1.05-.15.05-.1.1-.2.05 0 .05-.05v-.05q.05-.05.05-.1v-.05q.05-.2.05-.4 0-.15.05-.35.05-.15.1-.3.05-.2.1-.35 0-.15.05-.25-.05 0-.1 0 0 .05-.05.05l-.05.05h-.05q-.05.05-.1.05h-.05l-.05.05q-.05.05-.1.05-.05.05-.1.1-.05.05-.1.05-.05.05-.1.1-.05.05-.1.05-.05.05-.1.05v.05h-.05q0 .05-.05.05 0 .05-.05.05l-.05.05v.05h-.05q-.05.05-.1.05l-.05.05h-.05q-.05 0-.1.05h-.05l-.05.05q-.3.25-.7.35-.35.15-.7 0-.35-.15-.5-.45-.15-.25-.15-.55 0-.3.15-.55.15-.15.25-.35.05-.05.1-.15.05-.05.05-.1.05-.05.05-.15.05-.05.05-.1.05-.05.1-.1.05-.05.1-.1.05-.1.15-.25.1-.1.15-.2.05-.1.1-.2.05-.1.1-.15.05-.1.15-.2V162q.05-.05.1-.15.05-.1.1-.15.05-.1.1-.2 0-.1.1-.2.05-.05.1-.15v-.05q0-.05.05-.15.05-.1.05-.15.05-.1.1-.2 0-.15.1-.2.05-.1.1-.15 0-.05.05-.15 0-.1.05-.2.05-.1.05-.2.05-.1.1-.2.05-.05.1-.15l.05-.05q.05-.1.1-.2 0-.1 0-.25.05-.1.1-.15.1-.1.1-.2.05-.05.05-.15.1-.25.2-.55.1-.25.15-.5.1-.25.2-.45.1-.25.2-.45.1-.25.3-.4.05-.05.1-.1-.25-.2-.45-.35-.35-.25-.7-.4-.45-.15-.9-.05v-.05Q98.2 156.3 96 157.5q-6.25 3.5-16.45 8.1h-.05q-.2.05-.3.15-.05-.05 0-.1-.1-.5-.15-1-.05-.2-.1-.35 0-.05 0-.1-.15-.65-.35-1.3-.1-.4-.5-.95m9.55-63.75q-.7 0-1.35-.05-2.25-.15-4.1-.45-1.6-.25-3.1-.6-.1-.05-.2-.05l-.05-.05q-7.65-1.9-13.75-6.8l-.75.65q-.75.4-1.55.75-.05 0-.1 0-.9.4-1.8.8-.7.3-1.4.6-1.65.65-3.25 1.3-.3.25-.55.3-.3.1-.55.1-.35.1-.6.25-.2.05-.4.1-3.6 1.3-7.15 2.35-.65.15-1.25.35-1.8.45-3.55.85l-.6.15q.05.1.15.2l.05.05q.2.2.4.45-.2-.25-.4-.45l-.05-.05q-.1-.1-.15-.2-.25-.25-.45-.5l-1.05.85q-6.25 1.85-10.65 4.75-4.45 2.75-6.6 6.1-2.9 4.4-2 8.65 1.15 11.95 15.6 21.75 6.9 4.65 16.45 8.85 4.1 1.8 12.35 5 2.3.9 4.95 1.9.3.6.5 1.6 1 3.75 1.5 7.5.15.2.35.3.2.05.4-.05h.1q.2-.05.55-.35 1-1 1.75-1.4.1-.05.3-.1.2-.1.45-.15.45-.15.75-.35.9-1.05 1.25-1.15.4.55.5.95.2.65.35 1.3 0 .05 0 .1.05.15.1.35.05.5.15 1-.05.05 0 .1.1-.1.3-.15h.05q10.2-4.6 16.45-8.1 2.2-1.2 4.25-2.45 0-.05.05-.05 4.4-2.7 8.1-5.5 1.55-1.2 2.95-2.4.45-.4.95-.8.25-.25.55-.5.35-.35.7-.7.15-.15.3-.25 5.75-5.55 9.6-11.9 5.15-8.4 6.25-17.15l1.85.35.15-.95q.85 0 1.65 0 .05 0 .1 0 5.7.05 7.9.4.35 0 .5.1l1.1-.6q-.9-2.1-3.25-4.65-1.45-1.45-2-1.75-.45-.2-.55-.5-.05-.05-.05-.1.1 0 .25-.1v-.05q.55 0 2.6-.6 1.4-.35 3.6-.35 2.85.05 3.65-.05l.55-.75q-6.15-4.75-13.55-7.35-1.6-.55-3.25-1-6.1-1.75-12.35-1.9-2.85-.05-9.15.55-.1 0-.2.05h-.2q-.75.05-1.5.15-.35 0-.7.05-.1 0-.25.05-2.25.2-4.8.55h-.05q-.15 0-.25 0-.25.05-.45.1l-.75.05q-.75.1-1.45.2h-.05q-6.35.65-11.15.5m-32.95 19q-6 4.4-11.6 7.9-2.65 1.35-3.15 1.35-6-3.9-12.5-6.85.1-.45-.05-1.05-.2-.75-.2-.95v-2.4q2.7-3.05 6-5.5 1.05-.7 1.85-.95.5.3.9.25 3.75-1 8-.35 4.35.7 8.25 3.05 1.75.9 2.4 2.15.85 1.45.1 3.35m39.75 23.25q3.7-2.85 5-5.85-1.3 3-5 5.85-1.2.85-3.3 2.05-2.6 1.5-3.35 1.95-3.6 2.25-5.6 3.15-3.5 1.4-6.25.85 2.75.55 6.25-.85 2-.9 5.6-3.15.75-.45 3.35-1.95 2.1-1.2 3.3-2.05m49.65-110.8q-.05 0-.1 0-.05.05-.15.05-.05.05-.1.05-.05.05-.1.1-.05.05-.1.05-.05.05-.1.1-.05.05-.05.1-.05.1-.05.15-.05.05-.05.1-.05.05-.05.15 0 .5 0 1.05h-1.75q-.3 11-3.05 21.85-3.8 15.05-12.2 27.75 0 .05-.05.05 0 .05-.05.1-.05.05-.05.1-.05.05-.05.15 0 .05-.05.1 0 .1 0 .15 0 .05 0 .15.05.05.05.1 0 .05.05.15 0 .05.05.1.05.05.1.15.05.05.1.1.05.1.1.15.05.1.1.15.05.1.1.15 0 .05.05.1.05.05.05.1l.1.1q0 .05 0 .1.05.15.05.3.05.25.15.5.1.25.2.5.1.25.25.5.15.25.35.6 0 .05.05.15.05.05.1.1.05.05.1.1.05.05.05.1.05 0 .1.05.1.05.15.05.05.05.1.05.1 0 .2.05.05 0 .15 0 .1 0 .15 0 .1-.05.2-.05.05 0 .15-.05v.05q.1.05.15.15.05.05.15.1.05.05.2.1.1 0 .15.05.1.05.2.05h.05q.1 0 .15.05.05 0 .15 0 .05 0 .1 0 .05 0 .1 0 .05 0 .15-.05.05 0 .1 0 .15 0 .2-.05.05-.05.15-.1.1-.05.2-.1.05-.05.15-.15.05-.05.1-.15.05-.1.15-.2l.05-.05q0-.05.05-.1.05-.05.1-.1 0-.05.05-.1.05-.05.05-.1.05-.05.05-.1v-.05q.1-.05.2-.15.05-.1.1-.15.1-.1.15-.15.05-.1.15-.15.05-.05.1-.15 0-.05.05-.05 0-.05 0-.1l.05-.05v-.05l.1-.1q.1-.1.15-.2.05-.1.15-.15.05-.1.1-.2 0-.1.1-.15.05-.1.1-.15.05-.1.05-.15l.05-.05q.05-.1.1-.15.05-.05.1-.1.05-.05.1-.1 0-.1.05-.15.05-.05.1-.15.05-.05.05-.1.05-.05.1-.1.05-.05.1-.15.05-.05.05-.1.05-.05.1-.1 0-.1.05-.15.05-.05.05-.1.25-.35.45-.65.15-.35.4-.7.15-.2.3-.45.3-.35.5-.75.05-.15.1-.25.25-.3.35-.65v-.05q0-.05.05-.05.25-.3.45-.65.2-.35.4-.75.15-.35.4-.7.3-.4.55-.8.25-.45.35-.9l.05-.05q0-.05.05-.1 0-.05 0-.1.05-.05.05-.1.05-.1.1-.15 0-.05.05-.15v-.05q.05-.05.05-.1.05-.05.1-.15 0-.05.05-.1.05-.05.05-.1.05-.1.05-.15l.05-.05q.2-.35.35-.7.15-.35.35-.7.2-.4.3-.85.1-.4.3-.75.15-.35.3-.75.4-.8.7-1.65.35-.85.7-1.75.35-.9.6-1.9.25-.95.5-1.9.2-.85.35-1.75.1-.5.25-1 .25-.85.2-1.75 0-.95 0-1.95 0-.25-.05-.5-.05-.45-.4-.7-.25-.15-.45-.15l-.05.05q.05-.053.05-.15 0-.05 0-.1.05-.05.05-.1.05-.05.05-.1.05-.05.1-.1 0-.1.05-.15.05-.05.05-.1.05-.05.05-.15 0-.05.05-.1 0-.1 0-.15 0-.05 0-.15.05-.05.05-.15 0-.05 0-.15 0-.05 0-.15 0-.05 0-.15 0-.05.05-.1 0-.05 0-.1.05-.05.05-.1.05-.05.05-.15.05-.05.05-.1.05-.05.05-.15.05-.05.05-.1.05-.1.05-.2 0-.1 0-.2.05-.1.05-.15 0-.2 0-.4 0-.15 0-.3 0-.2 0-.35.05-.15.05-.25.05-.2.1-.35.05-.15.05-.25.05-.15.1-.35 0-.15.05-.3.05-.25.05-.45 0-.25 0-.45.3-1.5.25-3.05-.05-2.4-.05-4.8 0-2.65 0-5.35 0-2 0-4.05 0-.1-.05-.15 0-.05-.05-.1 0-.05-.05-.15 0-.05-.05-.1-.05-.05-.1-.1-.05 0-.1-.05-.05-.05-.1-.1-.05 0-.1-.05-.05 0-.15-.05-.05 0-.1 0-.1 0-.15-.05-.05.05-.15.05m-9.95 49.65l-.05.05v-.05h.05m0-.05v-.05q.049 0 .05-.05v.05q0 .05-.05.05m.25-.45h.05v-.05h.05v-.1h.05v-.05l.05-.05q.048-.048.05-.1 0 .052 0 .1 0 .05-.05.1-.05.05-.1.1 0 .05-.05.1-.05.05-.05.1-.05.05-.1.1V79l.05-.05v-.05q.05 0 .05-.05v-.05z"/><path fill="#383e50" d="M69.35 284.25l-.75-.15h-5.55q-2.9 8.5-6.55 16.5 1.95.6 2.95 1.1l1.25.4q2.25.5 3.65.6l1-.1q2.4-11.15 4-18.35m67.8-1.75q-.05 0-.1.05-.05.05-.15.1.3.65.7 1.1-.25-.65-.45-1.25m-4.6-2.9q-.4.4-.7.6-.15.1-.3.15-.4.1-.65.2l-.1.1-.05.05-.9.65q-.55.55-1 .75-1.4.5-2.8 1.55.05.05.1.1 6.15 7.8 11.8 14.65.05 0 .05.05.15.15.35.4l2.25-2.9q.4-.3.85-.3l.05.05q0-.05.05 0h.05l-.05-.05q-1.7-5.4-3.55-10.75-.2-.6-.4-1.15-.4-.45-.7-1.1-.1-.3-.2-.6-.1-.4-.4-2.1-.3-1.1-.8-2.4-2.35 1.35-2.95 2.05m-.7.25q-.05 0-.1.05l-.85.65q.25-.1.65-.2.15-.05.3-.15 0-.2 0-.35m-36.7 4.4q.25-2.7-.7-5.95-5.2.8-9.85.9 0 7.6 1.5 14.65.15.55 1 1l1.5.35q.25.1 1.55.95.95.6 1.7.7 1.7-4.5 1.75-4.75l.75-3.15q.65-3.45.8-4.7z"/><path fill="#7bc85e" d="M56.15 270h-.05l-1.15 1.45q-.35 1.05-.7 2.15-1 2.95-2 6-.2.5-.35 1.05-.15.45-.3.85-.15.35-.25.7-.15.3-.25.65-.1.25-.2.55-.1.25-.15.55l-1.05 2.9q-.3.85-.6 1.75-.55 1.5-1.05 3.05-.85 6.4-2.55 12.45 0 .1-.05.2v.1q-.05.05-.05.15-.05.05-.05.1-.25.85-.5 1.7.25-.85.5-1.7 0-.05.05-.1 0-.1.05-.15v-.1q.05-.1.05-.2 1.7-6.05 2.55-12.45-.1.2-.2.45l-.05.15q-2 5.6-4.15 11.4-.05.1-.05.2-.25.6-.45 1.2-1.4 3.7-2.85 7.55-.1.2-.15.45-.3.7-.55 1.45v.05q-.5 1.1-.9 2.3-.2.45-.4.95-.15.45-.35.9.2-.45.35-.9.2-.5.4-.95.4-1.2.9-2.3v-.05q.25-.75.55-1.45l-1.2-.45q-.45.7-.75 1.3-.8 1.35-1 1.7-.15.3-.25.6-.2.5-.4 1-1 2.3-1.45 3.65-.4.85-1 2.6-.15.65.6 1.75 1.8 2.2 2.9 4.4 2.1-.7 4.1-3.3.15-.25.35-.5 0-.05.05-.1.05-.05.15-.15.05-.1.1-.2.1-.1.15-.2.1-.15.2-.3.6-.85 1.15-1.65 0-.05.05-.05.15-.3.3-.5 0-.05.05-.05.75-1.2 1.55-2.4 1.45-2.3 2.85-4.65h.05q0-.1.05-.1 1.5-2.6 2.95-5.25.05-.05.05-.1.05-.15.15-.25 2.4-4.55 4.6-9.25 3.65-8 6.55-16.5.1-.3.2-.55 0-.05.05-.15.95-2.95 1.85-5.95.15-.5.3-1l.3-.6q-1.55-.65-3-1.4-3.4-1.75-6.1-4-.25-.25-.5-.45m62.05 2.4q-1.4.5-3 1-2.2.7-4.85 1.45-.65.15-1.3.35l-.05.05q.05.1.15.25 7.65 15.5 19.4 28.05 1.95 2.1 4 4.1 7.5 7.25 16.1 13 .45.3.95.65.4.25.85.5.75.5 1.55 1 1.6.95 3.2 1.9l1-1.35q.75-1 1.15-2.15.2-.45.4-.95.5-1.4.55-3.2.05-1.2-.1-4.45l-.35-2q-.5.25-1.4-.65-1.25-1.25-3-2-2.35-1-3.5-1.5-2-1-5.25-4.25l-1 .3v.05q.05.2.15.4v.05q.45 1.65.95 3.3.5.55.9.95.15.15.25.25 3.05 2.9 6.15 4.35-3.1-1.45-6.15-4.35-.1-.1-.25-.25-.4-.4-.9-.95h-.05q-.9-1-2.05-2.3v-.05q-.9-.95-1.85-2.1-1.25-1.5-2.5-3-.2-.25-.35-.4 0-.05-.05-.05-5.65-6.85-11.8-14.65-.05-.05-.1-.1-2.9-3.6-5.8-7.4-.65-.8-1.3-1.65l-.75-2.2z"/><path fill="#2e556b" d="M50.1 265.2q-.05.2-.1.4h.8-.8q-.85 2.65-1.1 6.2 0 .45 0 1.75v.05q-.05 1.7-.05 4.85 0 .6 0 1.15v.05q0 .45 0 .9-.05.1 0 .2-.05.25-.05.55v.1l2.8.1q.15-.4.3-.85.15-.55.35-1.05 1-3.05 2-6 .35-1.1.7-2.15L56.1 270q-2.9-2.5-4.95-5.6l-1.05.8m91.45 30.5q-.05-.05-.05 0l-.05-.05q-.45 0-.85.3l-2.25 2.9q1.25 1.5 2.5 3 .95 1.15 1.85 2.1v.05q1.15 1.3 2.05 2.3h.05q-.5-1.65-.95-3.3v-.05q-.1-.2-.15-.4v-.05q-.7-2.2-1.35-4.4-.4-1.25-.75-2.4h-.05m-10.75-15.1v.05l.1-.1q-.05 0-.1.05m3.2-6.6v-.05q-.15-.4-.3-.8 0 .45.25.95 0-.1.05-.1m-15.05.6q.65.85 1.3 1.65 2.9 3.8 5.8 7.4 1.4-1.05 2.8-1.55.45-.2 1-.75l.9-.65.05-.05v-.05q.05-.05.1-.05l.85-.65q.05-.05.1-.05 0 .15 0 .35.3-.2.7-.6.6-.7 2.95-2.05-.2-.5-.4-1-.7-1.45-1.15-2.45-.25-.5-.25-.95-1.6-4.15-3.25-8.25-3.45 3.7-9.25 6.3-1.3.6-3 1.2l.75 2.2m-19.6 2.9q-2 .35-3.7.65-.5.1-1 .15-.1 0-.2 0 .95 3.25.7 5.95-.15 1.25-.8 4.7l-.75 3.15q-.05.25-1.75 4.75-.75-.1-1.7-.7-1.3-.85-1.55-.95l-1.5-.35q-.85-.45-1-1-1.5-7.05-1.5-14.65-.6 0-1.2 0-2.6 0-5.05-.25-3.9-.35-7.55-1.35-2.6-.75-5.05-1.75l-.3.6q-.15.5-.3 1-.9 3-1.85 5.95-.05.1-.05.15-.1.25-.2.55h5.55l.75.1q.6-2.85 1.1-5.1-.5 2.25-1.1 5.1v.05q-1.6 7.2-4 18.35l-1 .1q-1.4-.1-3.65-.6l-1.25-.4q-1-.5-2.95-1.1-2.2 4.7-4.6 9.25-.1.1-.15.25 0 .05-.05.1-1.45 2.65-2.95 5.25-.05 0-.05.1h-.05q-1.4 2.35-2.85 4.65-.8 1.2-1.55 2.4-.05 0-.05.05-.15.2-.3.5-.05 0-.05.05-.55.8-1.15 1.65-.1.15-.2.3-.05.1-.15.2-.05.1-.1.2-.1.1-.15.15-.05.05-.05.1-.2.25-.35.5-.35 2.3-.5 4.55-.25 2.35-.35 2.6-.2.5-.7 1.5-.35.95-.2 1.65-.15-.7.2-1.65l-1.85-.3q-.8 8.15-4.1 15.7-.95 2.1-1.25 2.9-.6 1.7-.6 3.1 1.1 2.1 3.85 3.3 1.4.65 3.6 1.15 0-.1.05-.15.25-1 .25-1.05 0 .05-.25 1.05-.05.05-.05.15.8.15 1.65.3 10 1.85 14.95 2.5 8.4 1.1 15.05.85 4.45-.1 8-.9l6.4-2.45q-2.25-11.45-1.1-23.15 1.15-11.65 5.6-22.25.8-.45 1.8-.3.95.1 1.7.7 1.15 1 2 3 3 6.4 6 21.7 2.9 14.45 6.6 21.4 6.5.35 10.5.45 1.8.05 3.1 0 7.5-.2 13.15-2.2 5.45-1.95 12.5-7.25 3.5-2.8 5.45-4.8.2-.2.4-.4 1.1-1.25 2-2.45l2.15-5.6q-.4-2.05-1.5-3.5-.4-.55-1.3-1.3-.95-.8-1.3-1.2-.65-.65-1.65-2.85-.85-1.75-1.25-2.65-.35-1.25-.65-2.45-.2-.75-.4-1.45-.15-.55-.3-1.1-.15-.65-.3-1.3-.1-.35-.2-.65-.1-.45-.2-.85-8.6-5.75-16.1-13-2.05-2-4-4.1-11.75-12.55-19.4-28.05-.1-.15-.15-.25-.05-.05-.05 0-5.3 1.35-9.6 2.25z"/><path fill="#df5959" d="M57.1 232.8q.1-1.05.25-2.05v-.05q.25-2.2.45-4.45-6 3.8-7.9 4.95-2.2 1.2-3.2 1.9-1.35.9-3.9 3.75-.15.2-.3.35.35.75.8 1.5-.45-.75-.8-1.5-2.05 2.35-2.55 3.75-.65 1.6-.65 3.8 0 1.45.4 3.95l-1 1.4q-.15 2.35.3 5.35.2 1.15 1.05 5.4.8 3.65 1.35 5l.65-.25H50q.05-.2.1-.4l1.05-.8.7-.8q.7-3.25 1.35-6.5.05-.15.05-.25.3-1.65.65-3.3.65-3.55 1.25-7.15.6-3.65 1.1-7.3v-.05q.45-3.15.85-6.25m-4.9 14.55q.4-.3 1.75-1.15-1.35.85-1.75 1.15m-1 10q.1-.15.5-.4.65-.25.75-.25-.1 0-.75.25-.4.25-.5.4-.25.45 0 .6-.25-.15 0-.6m125.2-90.8l-.1.05q.05.05.1.15 0-.1 0-.2m-10.1-5.85q-.6-3-2.6-4.5l-.4-1.35-.4-.25q-2.65-.3-4.7.85-1.1.7-1.15.75-1 .85-1.25 1.85-.05.15-.1.35l-.5-.2-1-.35q-1.5-.2-3.65.75-.75.1-1.75.75-.3 0-.5.35-.25.4-.1.65l-2.15.35q-.8-.15-1.85.4-1.8 1.1-2.25 4.1-.4 2.4-.4 4.65l-.85.95q.25 1.7.6 3.8l.5 2-1.5.5q1.15 3.6 1.4 7.1l.15.85q1.35-.1 3.2.05 5.5.55 11.7 1.95.55.1 1.1.25 1.15.25 2.25.5 1.9.5 3.65 1.15l.55-1.35 1.9-1.75q3.35-3.5 4.1-4.45 2.15-2.6 3.15-5.05.25-.5.75-1.6.45-.9 1-1.3l-.15-.6q-.35.1-.85.1.5 0 .85-.1.35-.1.5-.25.4-.25.4-.75.6-2.4.55-4.3v-.05q-.05-.2-.05-.4 0-.25-.05-.35-.05-.1-.1-.15-.2-.2-.65-.25-.1 0-.2 0-.75-.15-2.4-.15-.6 0-1 .15-.4.2-.8 1-.45.85-.8 1.1l-1 .65q-.25-.4-.4-.5-.35-.5-1.1-1.25-.55-.85-1-1.25-.1-1.4-.15-2.25 0-.15 0-.3-.05-.1-.05-.2-.15-1.55-.45-2.65z"/><path fill="#283131" d="M58.25 221.25l-1.7-.15q-4.75 2.1-7 3.1-2.3 1.05-3.1 1.75-1.2 1.05-2.4 3.2-1.7 3.05-2 3.45-.1-.4-.25-.8l-.5.15q0 2.6 1.1 5.05l.4-.15q2.55-2.85 3.9-3.75 1-.7 3.2-1.9 1.9-1.15 7.9-4.95.25-2.5.45-5m69.7 20.55q.15.75.4 1.6-.2-.85-.35-1.6h-.05m.4 1.6q-.25-.85-.4-1.6l-.85 1.3 1.35.85-.1-.55m-2.95-13.15q-.25-.05-.5 0 .35.55 3.05 11.55h.05q.25.05.55.05-.4-1.7-1-3.5l-.55-1.85q-.2-1.45-.4-2.2-.25-1.1-.6-2l.4 2.2q-.9-3.95-1-4.25m-56.8-62.1q-.15.25-1.2.7.45 2.65 2.05 5.1 1.6 2.4 4 4.15 2.05 1.45 5.15 2.65.1 0 .2.05 1.3.5 2.75.9.05.05.15.05 1.05.3 2.25.6 10.75 2.1 19-1 4.6-1.75 8.15-5.1.3-.3.6-.55 0-.05.05-.05 0-.1.1-.1.1-.15.2-.25.7-.75 1.3-1.55 1.9-2.5 2.85-5.4l.25-.3q-.15-.15-.25-.2-.25-.25-.5-.4-.25-.2-.5-.4-1.65-1.25-3.1-2.1-2.05-1.2-3.25-1.5l-.9.15v.05q.05.35.15.7.2 1.05.5 2.1.5 1.8.5 2.5-.15.8-.45 1.4-.3.55-.8.85l-.15.5q-3.65 1.8-7.45 3.2-.8.25-1.65.55-2.55.8-5.15 1.4-6.4 1.4-10.6.6-1.35-.2-2.6-.6-1.25-.4-2.4-1.05-2.45-1.35-4-3.45l1.4-6.65-1.3-.25q-.35.2-.7.4-.05 0-.05.05-1.85.95-4.6 2.25m95.2 28.65q1.15-3.15 2.45-6.75-1.2-.6-2.5-1.1-1.75-.65-3.65-1.15-1.1-.25-2.25-.5-.55-.15-1.1-.25-6.2-1.4-11.7-1.95-1.85-.15-3.2-.05-1.2.1-2.05.4-1.25 1.5-2.35 3.3l.1.65.25 2.05q10.35 2.8 22.5 4l3.5 1.35z"/><path fill="#698bbf" d="M156.2 151.1q-.45-.15-1.15.25-.6.6-1 .85l-.5.5q-.2.55-.1.65-.2 0-.4-.05-.05 0-.1 0h-.05q-3.55-.2-6.6 1.8l-.35.35q0 .05 0 .15-.25-.1-.45-.15-.8-.2-1.45-.1-1.05.1-3.25 1.5-2.5 1.85-3.75 2.75-.7.5-1 1v.05q-.05.05-.1.15-.5.3-.9 1.05-.1.15-.15.3-1.3 2.25-1.1 5.95 1.7 2.6 3.9 5.1.4-.05.75.15.3.15.5.5.4.4.6 1.1.4 1.1.75 2.15l1.5-.5-.5-2q-.35-2.1-.6-3.8-.05-.4-.1-.8-.35-2.15-.55-3.55.2 1.4.55 3.55l.95-.15q0-2.25.4-4.65.45-3 2.25-4.1 1.05-.55 1.85-.4l2.15-.35q-.15-.25.1-.65.2-.35.5-.35 1-.65 1.75-.75 2.15-.95 3.65-.75l1 .35q0-.45-.25-.85-.3-.45-.75-1.25-.35-.85-.5-1.15-.35-.6-.75-.75.4.15.75.75.15.3.5 1.15.45.8.75 1.25.25.4.25.85l.5.2q.05-.2.1-.35.25-1 1.25-1.85.05-.05 1.15-.75 2.05-1.15 4.7-.85l-3.1-1.9q-1.45-1-3.6-1.6m-10.15 5.75q.1.4.45 1.05.35.65.95 1.55-.6-.9-.95-1.55-.35-.65-.45-1.05M102.2 156q-.2.15-.3.4-.1.2-.2.45-.1.2-.2.45-.05.25-.15.5-.1.3-.2.55 0 .1-.05.15 0 .1-.1.2-.05.05-.1.15 0 .15 0 .25-.05.1-.1.2l-.05.05q-.05.1-.1.15-.05.1-.1.2 0 .1-.05.2-.05.1-.05.2-.05.1-.05.15-.05.05-.1.15-.1.05-.1.2-.05.1-.1.2 0 .05-.05.15-.05.1-.05.15v.05q-.05.1-.1.15-.1.1-.1.2-.05.1-.1.2-.05.05-.1.15-.05.1-.1.15v.05q-.1.1-.15.2-.05.05-.1.15-.05.1-.1.2-.05.1-.15.2-.1.15-.15.25-.05.05-.1.1-.05.05-.1.1 0 .05-.05.1 0 .1-.05.15 0 .05-.05.1-.05.1-.1.15-.1.2-.25.35-.15.25-.15.55 0 .3.15.55.15.3.5.45.35.15.7 0 .4-.1.7-.35l.05-.05h.05q.05-.05.1-.05h.05l.05-.05q.05 0 .1-.05h.05v-.05l.05-.05q.05 0 .05-.05.05 0 .05-.05h.05v-.05q.05 0 .1-.05.05 0 .1-.05.05-.05.1-.1.05 0 .1-.05.05-.05.1-.1.05 0 .1-.05l.05-.05h.05q.05 0 .1-.05h.05l.05-.05q.05 0 .05-.05.05 0 .1 0-.05.1-.05.25-.05.15-.1.35-.05.15-.1.3-.05.2-.05.35 0 .2-.05.4v.05q0 .05-.05.1v.05q0 .05-.05.05-.05.1-.1.2-.05.05-.05.15-.05.15-.1.3-.1.1-.15.25 0 .1-.05.25-.05 0-.05.05 0 .05-.05.05v.05q-.05.05-.05.1v.05q-.05 0-.05.05v.05l-.05.05q0 .05-.05.1 0 .1-.05.15 0 .05-.05.1 0 .05 0 .1.1-.05.2-.05.6-.3 1.2-.55.65-.3 1.3-.6 1.85-1 3.65-2.15-1.8 1.15-3.65 2.15-.65.3-1.3.6-.6.25-1.2.55-.1 0-.2.05v.05q0 .05-.05.1 0 .05 0 .15-.05 0-.05.05-.15.15-.2.35-.1.15-.15.35-.05.2-.15.4-.05.25-.15.45-.05.2-.1.4l-.05.05v.05l-.05.05q0 .05-.05.05v.05q-.05.05-.1.1-.05.1-.05.15-.05.05-.1.1 0 .1-.05.15-.05.05-.05.15-.05.05-.05.1-.05 0-.05.05-.05 0-.05.05 0 .05-.05.05-.05.15-.1.25-.1.15-.2.25-.1.15-.15.3-.1.15-.15.3-.05.2-.05.35v.05q0 .05 0 .1.05 0 .05.05v.1q.05.05.05.1.05.1.05.15.05.05.1.05 0 .05.05.1.05.05.1.1.05 0 .1.05.05 0 .05.05.1.05.2.05.05 0 .1.05 0 .05-.05.1l-.05.05v.05l-.05.05q-.05.05-.05.1-.05 0-.05.05l-.05.05q-.1.1-.2.15-.1.05-.2.1l.2.65q.85-.3 1.65-.55 3.8-1.4 7.45-3.2l.15-.5q.5-.3.8-.85.3-.6.45-1.4 0-.7-.5-2.5-.3-1.05-.5-2.1-.1-.35-.15-.7v-.05q-.65-3.15-.7-5.85v-.05q0-.15 0-.2v-.05q-.05-.15 0-.3 0-4.15 1.15-7.65-3.7 2.8-8.1 5.5-.05 0-.05.05v.05q.45-.1.9.05.35.15.7.4.2.15.45.35-.05.05-.1.1m68.1 4.95q-.9.25-1.5.75-1.05.65-2 1.85 0 .15 0 .3.05.85.15 2.25.45.4 1 1.25.75.75 1.1 1.25.15.1.4.5l1-.65q.35-.25.8-1.1.4-.8.8-1 .4-.15 1-.15 1.65 0 2.4.15.1 0 .2 0 .45.05.65.25l.1-.05q-.3-2-.85-2.85 0-.05-.6-1-.65-.85-1.15-1.1-.45-.35-1.75-.65-.95-.15-1.75 0z"/><path fill="#4dc485" d="M131.55 116.15l-1.85-.35q-1.1 8.75-6.25 17.15-3.85 6.35-9.6 11.9-.15.1-.3.25-.05.65-.15 1.3-.05.5-.1 1 0 .05 0 .1-.8 4.85-2.65 10 2.1-1.3 3.65-2.9 1.3-1.4 2.15-3 1.55-2.9 2.5-3.9.5 4.85-1.2 9.5 3-2.9 5.35-6.1 2.35-3.25 5.6-10.65 3-6.65 3.75-10.25.4-2.4.5-6.9.1-4.7.4-6.85l-1.8-.3m-24.95-79.7q1.15-1.2 2.6-2.45-12.05-12.6-29.3-19.05-19.3-7.3-38.75-4.7l.3 2.45q5.65 3.35 16.25 9.95l.05.05q.9.55 1.85 1.15-.95-.6-1.85-1.15l-.55.9q-10.85-1.4-21.85.75-1.4.3-2.8.6-9.3 2.25-17.7 7.2-.05 0-.05.05h.05q1.3.5 10 3.2 4.8 1.5 8.05 3.1l.05.05q.05 0 .1.05.75.35 1.4.75-.65-.4-1.4-.75-.05-.05-.1-.05l-.85 1.65q-10.75 4.95-18.4 15.4-.4.5-.75 1.05-.45.6-.9 1.25Q6.6 65.95 2.6 77.1l1.75 1.05q3.2-6.35 9.9-11.2.05-.05.15-.1.85-.65 1.8-1.25 6.45-4.05 15.45-6.9.35-.15.7-.25l-.35-1.6q.6-.15 1.3-.25.6-.15 1.3-.3.15-.05.35-.05.1-.05.15-.05 5.1-1.05 13.25-2.6 14.3-2.85 22.35-5.75Q75.85 46 86.1 41.7q9-3.15 15.75-2.1l1.45.95q1.35-2.1 3.3-4.1z"/><path fill="#111414" d="M20.2 189.85q.25 2.4 1.3 5.4 1.05 3 4.75 11.45 3.7 8.45 12.95 21l.5.4q1.3 1.65 2.1 3.65v.05q.15.4.25.8.3-.4 2-3.45 1.2-2.15 2.4-3.2.8-.7 3.1-1.75 2.25-1 7-3.1l1.7.15q.65-7.95.9-15.9h-.6q-.55-.85-1.3-2.15-.7-1.2-1.5-2.8-1.75-3.35-2.8-4.95-1.55-1.9-2.75-3.1 1.2 1.2 2.75 3.1 1.05 1.6 2.8 4.95.8 1.6 1.5 2.8l1-.6h1q-.05 1.4-.1 2.75-.25 7.95-.9 15.9-.2 2.5-.45 5-.2 2.25-.45 4.45v.05q-.15 1-.25 2.05-.4 3.1-.85 6.25v.05q-.5 3.65-1.1 7.3-.6 3.6-1.25 7.15-.35 1.65-.65 3.3 0 .1-.05.25-.65 3.25-1.35 6.5l-.7.8q2.05 3.1 4.95 5.6h.05q.25.2.5.45 2.7 2.25 6.1 4 1.45.75 3 1.4 2.45 1 5.05 1.75 3.65 1 7.55 1.35 2.45.25 5.05.25.6 0 1.2 0 4.65-.1 9.85-.9.1 0 .2 0 .5-.05 1-.15 1.7-.3 3.7-.65 4.3-.9 9.6-2.25 0-.05.05 0l.05-.05q.65-.2 1.3-.35 2.65-.75 4.85-1.45 1.6-.5 3-1 1.7-.6 3-1.2 5.8-2.6 9.25-6.3-.15-.25-.2-.5l.45-.2q.1-2.05-.55-5.05-.85-3.3-1.2-4.95-1.05-4.75-.5-10.25l-1.35-.85.85-1.3q-2.7-11-3.05-11.55-.85-.05-1.7-.1-.2-.05-.35-.05 0-.2 0-.4l.35-.1q-1.5-5.8-2.75-11.55-3.05-13.8-4.85-27.2 1.8 13.4 4.85 27.2 1.25 5.75 2.75 11.55v.55q.85.05 1.7.1-.35-.6-.7-1.15.35.55.7 1.15.25-.05.5 0-.45-1.55-.8-3.35-.2-1-.15-1.75-.7-1-1.25-2.2-.7-1.5-1.9-5.1 1.2 3.6 1.9 5.1.55 1.2 1.25 2.2.8 1.2 1.75 2.05.7.65 1.6 1.2 1.7 1.05 4.05 1.7 2.15.6 6.35 1.1 5.5.8 7.85-1.35l-.5-.75q1.55-1.55 3.05-3.35 5.15-6.25 9.4-14.95 2.5-5.1 5.8-14l-3.5-1.35q-12.15-1.2-22.5-4l-.25-2.05-.1-.65q-.55.9-1.1 1.85-1.2 2.15-2.25 4.65-1.65 4-3.65 10.85 2-6.85 3.65-10.85 1.05-2.5 2.25-4.65.55-.95 1.1-1.85-3.35-8-5.55-12.2-3.65-6.85-7.95-11.35l-2.25.65h-5.5v2q.1.05.25.2l-.25.3q-.95 2.9-2.85 5.4-.6.8-1.3 1.55-.1.1-.2.25-.1 0-.1.1-.05 0-.05.05-.3.25-.6.55-3.55 3.35-8.15 5.1-8.25 3.1-19 1-1.2-.3-2.25-.6-.1 0-.15-.05-1.45-.4-2.75-.9-.1-.05-.2-.05-3.1-1.2-5.15-2.65-2.4-1.75-4-4.15-1.6-2.45-2.05-5.1-1.25.45-3.55 1.4-2.95 1.2-5 1.35l-.9-.15-.05-.2q-.75.35-1.55.7-.7.35-5.4 2.15-16.15 6-30.5 15.6l-.25.15m66.65 72.35q.85 0 1.7 0 1.35-.05 2.7-.1 1.9-.1 3.8-.25.65-.05 1.3-.1 14.25-1.4 27.35-6.65-13.1 5.25-27.35 6.65-.65.05-1.3.1-1.9.15-3.8.25-1.35.05-2.7.1-.85 0-1.7 0-14.65.05-28.5-4.1 13.85 4.15 28.5 4.1z"/><path fill="#fff" d="M56.85 76.9q-.35-.15-.7-.15-.45 0-.8.15-.05 0-.1.05-.05 0-.1.05 0 .05-.05.05-.05.05-.1.1-.05 0-.1.05 0 .05-.05.05-.15.05-.25.1-.2.05-.3.15-.15.05-.35.15-.1.05-.3.15-.25.05-.4.15-.1.05-.15.1 1.85-.4 4.1-.95-.15-.1-.35-.2M40.1 79.4q-.05 0-.05.05-.05.05-.1.1 0 .05-.05.1 0 .05 0 .1-.05.05-.05.1l-.05.05q0 .05 0 .1 0 .05-.05.05 0 .05 0 .1-.15.5-.15 1.05.05.55.05 1.15 0 .6 0 1.2 0 .65 0 1.3-.05.6.15 1.25 0 .2 0 .45-.05.35-.05.75.05.3.05.7 0 .3 0 .65 0 .35.2.7.2.35.35.75.15.55.4 1.1.25.75.6 1.45.15.4.35.75.4.65.85 1.25.5.65.9 1.3.45.7 1.1 1.2.05.05.1.05.05.05.1.05.05.05.1.05.05.05.1.05.05 0 .1.05.05 0 .1 0 .05 0 .1.05.05 0 .1 0 .05 0 .1 0 .05 0 .1 0 .05 0 .1 0l.1.3q.6-.2 1.25-.35 3.55-1.05 7.15-2.35.2-.05.4-.1.25-.15.6-.25.25 0 .55-.1.25-.05.55-.3 1.6-.65 3.25-1.3.7-.3 1.4-.6.9-.4 1.8-.8.05 0 .1 0 0-.7 0-1.3.05-.95-.15-1.85 0-.05 0-.1 0-.1 0-.15 0-.05 0-.1 0-.05 0-.1 0-.05-.05-.1 0-.05 0-.15 0-.05 0-.1-.05-.05-.05-.1 0-.05-.05-.1 0-.05 0-.1-.05-.05-.05-.1 0-.05-.05-.15 0-.05 0-.1 0-.3-.1-.65-.15-.45-.25-.95-.05-.4-.15-.85-.15-.45-.35-.85-.2-.4-.3-.75-.15-.4-.35-.8 0-.1-.05-.2-.05-.2-.1-.35-.05-.2-.2-.4-.1-.2-.2-.4-.1-.2-.25-.4-.15-.15-.25-.3V80q-.05-.05-.05-.1-.05-.05-.05-.1-.05-.1-.05-.15-.05-.05-.1-.1-.05 0-.05-.05-.05-.05-.1-.1 0-.05-.05-.1-.1-.1-.2-.15-.05-.1-.15-.2-.05-.05-.1-.1-.1-.15-.25-.35-.25-.3-.55-.6-.3-.3-.65-.6-.15-.1-.3-.2-2.25.55-4.1.95-.15.1-.25.15-.1.05-.25.1-.3.1-.65.3-.3.15-.6.35-.3.2-.65.3-.3.1-.65.25-.35.15-.65.35-.1 0-.15 0-.45 0-.9 0-.5 0-1 0-.5-.05-1-.05-.5-.05-.95-.05-.45 0-.9 0-.05-.05-.1-.05-.1 0-.15-.05-.1-.05-.25-.05-.1-.05-.2-.1-.1 0-.2 0-.1-.05-.2-.05-.05-.05-.1-.05-.05-.05-.1-.05h-.05q-1.5.05-2.9-.05-.1.05-.15.1m12.1-.05q1.9 0 3.1.85 2 1.65 2 4.65.2 2.55-1.1 5.35-.85 1.4-1.65 1.5-1.4.45-2.85-1.6-1.95-2.7-2.25-3.9-.25-.9-.2-2.75-.3-.7-.3-1.3-.15-1.4.75-2.2.85-.85 2.5-.6M45.7 95.5q.001.049.05.05h-.05v-.05m8.85-14.95q-.25-.05-.55-.05-.45-.05-.85.1-.5.2-.75.7-.05.05-.05.1-.15.15-.25.3-.1.2-.1.45-.05.25-.05.5 0 .25 0 .5-.05.3.05.6v.05q0 .05 0 .1 0 .05 0 .1.05.35.05.65.05.3.2.6.15.3.35.55.15.2.35.35.25.2.55.3.05 0 .1 0 .05.05.1.05.1 0 .15 0 .05 0 .1 0h.1q.05 0 .1 0h.05q.2 0 .35-.05.2-.05.35-.15.15-.05.3-.2.1-.1.2-.2.05-.1.15-.15.15-.2.15-.45h.05q0-.05 0-.1.05-.05.05-.1.05-.05.05-.1.05 0 .05-.05 0-.1.05-.15 0-.05.05-.1.15-.3.2-.6 0-.3 0-.65 0-.15 0-.25.05-.4-.1-.75-.15-.55-.45-1-.1-.15-.25-.35-.35-.4-.85-.55m-14.1-1.4q-.1.05-.2.15 1.4.1 2.9.05-.05 0-.1-.05-.05 0-.1 0-.05-.05-.1-.05-.05 0-.1 0-.05-.05-.1-.05-.3-.1-.45-.15-.25-.1-.45-.1-.2-.05-.45-.05-.25 0-.45.05-.2.1-.4.2m71.45-1.8q-.05-.2-.1-.4-.15-.7-.35-1.4.2.9.45 1.8M85.3 78.5q-1.2.2-2.4.5-.6.1-1.15.3 2.2-.45 4.45-.95-.45.05-.9.15m11.5 1.85q-.25-.2-.55-.25-.3-.05-.65.05-.3.05-.5.25-.25.2-.35.45-.15.15-.3.4-.15.2-.15.5-.05.35-.05.65 0 .3 0 .6-.05.25.05.55 0 .05.05.15.1.3.25.55.15.25.3.5.1.25.35.45.25.15.55.25.25.15.55.15.1 0 .2 0 .4 0 .8-.2.4-.25.55-.65.15-.4.1-.85 0-.55 0-1.1.05-.45-.15-.85v-.05h-.05q0-.05-.05-.05v-.1l-.05-.05v-.1l-.05-.05q0-.05-.05-.1 0-.05 0-.15-.05-.05-.05-.1-.05-.05-.1-.1 0-.05-.05-.1-.05-.1-.15-.2-.2-.25-.45-.45m9.35-7.55q-.2.05-.35.2-.15.1-.4.2-1.4.35-2.7 1.05-.3.15-.7.3-1.3.35-2.5.95-1.35.65-2.75.9-.8.2-1.65.35-.1 0-.2.05.6 0 1.05.15 1.7.55 2.6 2.75 1.05 2.45.95 6.9-.05.25-.05.5 0 3.85-2 5.1-1.6.8-3.4 0-1.25-.45-2.6-2.25-1.85-2.45-2.3-5.65-.45-3.2.6-6.45-.4.05-.75.1-.9.15-1.75.25-.5.05-1.05.15-2.25.5-4.45.95-.7.15-1.35.35-1.15.35-1.95 1.15-.05.05-.05.1-.05.05-.05.1-.05.05-.05.1 0 .05 0 .1l-.05.05q0 .05-.05.1 0 .05-.05.1-.1.1-.2.2-.15.15-.2.35-.05.15-.1.3-.05.2-.15.35-.1.15-.1.3-.4.7-.45 1.5-.1 1.6-.05 3.2 0 1.6.05 3.15.05 1.5.45 3 .25 1.05.55 2.15.2.8.9 1.05l.05.05q.1 0 .2.05 1.5.35 3.1.6 1.85.3 4.1.45.65.05 1.35.05 4.8.15 11.15-.5h.05q.7-.1 1.45-.2l.75-.05q.2-.05.45-.1.1 0 .25 0h.05q2.55-.35 4.8-.55.15-.05.25-.05.35-.05.7-.05.75-.1 1.5-.15h.2q.1-.05.2-.05.05-.1.15-.2.05-.1.1-.2.1-.1.15-.15.4-.65.8-1.3.85-1.35 1.4-2.8.1-.4.25-.8.15-.35.25-.75.2-.8.2-1.6-.05-1.55-.05-3.1 0-1.65.05-3.25 0-1.05-.25-2.05-.35-1.45-.6-2.95-.25-.9-.45-1.8-.3-1.2-.8-2.35-.05-.15-.15-.3-.05-.2-.15-.4-.1-.2-.25-.3-.15-.15-.35-.25-.15-.05-.25-.05-.05-.05-.15-.05-.1 0-.25 0-.3.05-.6.05-.25.05-.45.1-.2.05-.4.15-.2.1-.35.2-.15.05-.25.1-.25.1-.45.2-.2.05-.45.15z"/><path fill="#000" d="M55.3 80.2q-1.2-.85-3.1-.85-1.65-.25-2.5.6-.9.8-.75 2.2 0 .6.3 1.3-.05 1.85.2 2.75.3 1.2 2.25 3.9 1.45 2.05 2.85 1.6.8-.1 1.65-1.5 1.3-2.8 1.1-5.35 0-3-2-4.65m-1.3.3q.3 0 .55.05.5.15.85.55.15.2.25.35.3.45.45 1 .15.35.1.75 0 .1 0 .25 0 .35 0 .65-.05.3-.2.6-.05.05-.05.1-.05.05-.05.15 0 .05-.05.05 0 .05-.05.1 0 .05-.05.1 0 .05 0 .1h-.05q0 .25-.15.45-.1.05-.15.15-.1.1-.2.2-.15.15-.3.2-.15.1-.35.15-.15.05-.35.05h-.05q-.05 0-.1 0h-.1q-.05 0-.1 0-.05 0-.15 0-.05 0-.1-.05-.05 0-.1 0-.3-.1-.55-.3-.2-.15-.35-.35-.2-.25-.35-.55-.15-.3-.2-.6 0-.3-.05-.65 0-.05 0-.1 0-.05 0-.1v-.05q-.1-.3-.05-.6 0-.25 0-.5 0-.25.05-.5 0-.25.1-.45.1-.15.25-.3 0-.05.05-.1.25-.5.75-.7.4-.15.85-.1m2.3 8.5q-.05.3-.25.55-.2.25-.55.3-.05 0-.05.05h-.05l-.05.05q-.05.05-.1.05h-.05q0 .05-.05.05h-.05l-.05.05q-.1 0-.2.05-.1 0-.25.05-.1 0-.25 0-.05 0-.15 0-.15 0-.2 0-.15 0-.2 0-.45.05-.95-.1-.45-.1-.8-.4-.25-.15-.35-.4-.15-.45.1-.9.3-.45.85-.45.25 0 .55.15h.05q0 .05.05.05h.1q.05 0 .05.05h.05q.1 0 .15 0 .05 0 .1 0 .1 0 .15 0 .05 0 .15 0 .05 0 .1 0 .05 0 .15 0h.05q.25-.15.55-.25.35-.15.7-.05.4.1.6.45.15.3.1.65m39.65-12.05q-.45-.15-1.05-.15-.95.15-1.9.35-.05 0-.1 0-1.15.5-1.85 1.4-.9 1.05-.6 2.15-.3-1.1.6-2.15.7-.9 1.85-1.4-.4.1-.85.2-1.15.25-2.3.5-1.05 3.25-.6 6.45.45 3.2 2.3 5.65 1.35 1.8 2.6 2.25 1.8.8 3.4 0 2-1.25 2-5.1 0-.25.05-.5.1-4.45-.95-6.9-.9-2.2-2.6-2.75m.3 3.15q.3.05.55.25.25.2.45.45.1.1.15.2.05.05.05.1.05.05.1.1 0 .05.05.1 0 .1 0 .15.05.05.05.1l.05.05v.1l.05.05v.1q.05 0 .05.05h.05v.05q.2.4.15.85 0 .55 0 1.1.05.45-.1.85-.15.4-.55.65-.4.2-.8.2-.1 0-.2 0-.3 0-.55-.15-.3-.1-.55-.25-.25-.2-.35-.45-.15-.25-.3-.5-.15-.25-.25-.55-.05-.1-.05-.15-.1-.3-.05-.55 0-.3 0-.6 0-.3.05-.65 0-.3.15-.5.15-.25.3-.4.1-.25.35-.45.2-.2.5-.25.35-.1.65-.05m.55 8.3q.2-.15.45-.15.25-.05.5.05.25.1.45.4.2.3.15.6 0 .1 0 .2-.05 0-.05.05v.05l-.05.05q0 .05 0 .1-.1.05-.15.15-.1.05-.15.1-.1.1-.15.15-.1.05-.2.1-.1.05-.15.15-.1.05-.3.1-.05.05-.1.05-.15.1-.25.2-.2.1-.4.15-.2.1-.45.1-.25 0-.5 0-.25 0-.5 0-.2 0-.4-.05-.15-.05-.35-.1-.2-.05-.35-.05-.15-.05-.3-.1-.2 0-.35-.15-.05 0-.15-.05-.05 0-.1-.05h-.05q-.35 0-.6-.2-.25-.2-.35-.55-.1-.45.15-.85.25-.35.7-.4.55 0 1.05.2.15.05.25.15.1 0 .15.05.15 0 .2 0 .15.05.2.05.1.05.2.05.1.05.15.05h.05q.05 0 .15 0 .05 0 .1 0 .05 0 .15 0 .05 0 .1 0 .1 0 .15 0h.05q.05-.05.1-.05.05-.05.1-.1.05 0 .1-.05.05 0 .1-.05.05 0 .1-.05.05 0 .1-.05.25-.1.45-.25z"/><path fill="#3ce699" d="M56.05 89.55q.2-.25.25-.55.05-.35-.1-.65-.2-.35-.6-.45-.35-.1-.7.05-.3.1-.55.25h-.05q-.1 0-.15 0-.05 0-.1 0-.1 0-.15 0-.05 0-.15 0-.05 0-.1 0-.05 0-.15 0h-.05q0-.05-.05-.05h-.1q-.05 0-.05-.05h-.05q-.3-.15-.55-.15-.55 0-.85.45-.25.45-.1.9.1.25.35.4.35.3.8.4.5.15.95.1.05 0 .2 0 .05 0 .2 0 .1 0 .15 0 .15 0 .25 0 .15-.05.25-.05.1-.05.2-.05l.05-.05h.05q.05 0 .05-.05h.05q.05 0 .1-.05l.05-.05h.05q0-.05.05-.05.35-.05.55-.3m41.2-1.3q-.25 0-.45.15-.2.15-.45.25-.05.05-.1.05-.05.05-.1.05-.05.05-.1.05-.05.05-.1.05-.05.05-.1.1-.05 0-.1.05h-.05q-.05 0-.15 0-.05 0-.1 0-.1 0-.15 0-.05 0-.1 0-.1 0-.15 0H95q-.05 0-.15-.05-.1 0-.2-.05-.05 0-.2-.05-.05 0-.2 0-.05-.05-.15-.05-.1-.1-.25-.15-.5-.2-1.05-.2-.45.05-.7.4-.25.4-.15.85.1.35.35.55.25.2.6.2h.05q.05.05.1.05.1.05.15.05.15.15.35.15.15.05.3.1.15 0 .35.05.2.05.35.1.2.05.4.05.25 0 .5 0 .25 0 .5 0 .25 0 .45-.1.2-.05.4-.15.1-.1.25-.2.05 0 .1-.05.2-.05.3-.1.05-.1.15-.15.1-.05.2-.1.05-.05.15-.15.05-.05.15-.1.05-.1.15-.15 0-.05 0-.1l.05-.05v-.05q0-.05.05-.05 0-.1 0-.2.05-.3-.15-.6-.2-.3-.45-.4-.25-.1-.5-.05z"/><path fill="#2a2a2a" d="M43.1 125.1q5.6-3.5 11.6-7.9.75-1.9-.1-3.35-.65-1.25-2.4-2.15-3.9-2.35-8.25-3.05-4.25-.65-8 .35-.4.05-.9-.25-.8.25-1.85.95-3.3 2.45-6 5.5v2.4q0 .2.2.95.15.6.05 1.05 6.5 2.95 12.5 6.85.5 0 3.15-1.35z"/></g><path fill="#7bc85e" stroke="none" d="M143 639.8q2.85 4.15 5.1 13.7 4.5 19.15 1.35 46.1-7.5 64.75-55.8 155.55-4.55-5.2-8.2-11.25-24.8-40.8-1.2-103.25-8.45 3.85-19.8 12.15Q41.7 769.45 27 791.85 6.45 823.2 5.05 861.65q-1.8 47.7 26.15 103.65Q3.9 1022.45.5 1074.15-3.4 1133.5 24.05 1183q3.35 6 7.15 11.75l7.75 11.3 10.15 12.65q5.25 6.25 11.1 12.05 16.3 16.15 35.4 28.1 5.9 3.85 11.85 7.15 10.65 5.9 17.3 8v-.05q.2.1.45.2 37.95 15.95 79.55 15.95 14.35 0 28.3-1.9-.6.2-1.15.4l6.95-1.15q2.95-.55 6-1.2 20.2-4 39.45-12.1 5.65-2.35 11.1-5 9.7-4.5 18.85-9.85 36.85-21.35 59.8-53.2 28.65-39.75 33.85-93.6.45-4.75.7-9.4l.4-9.4q.15-3.15.15-6.3-.05-11.4-1.45-23h-.2q-2.75-22.55-10.25-43.85-6.1-17.35-16.3-36.55-6.4-12.05-19.35-33.4-13.45-22.25-19.05-32.65-9.95-18.4-15.6-34.25-14.1-39.6-7.65-82.55-9.15 2.85-21 10.05-23.65 14.45-37 36.35-18.7 30.6-14.15 71.65 5.7 51.3 47.6 116.15 13.05 20.15 22 39.3 1.05 7.4 1.1 15.15 0 22.6-8.75 43.25-8.4 19.95-23.8 35.35-15.35 15.4-35.3 23.8-20.65 8.75-43.25 8.75-22.6 0-43.25-8.75-19.95-8.4-35.3-23.8-15.4-15.4-23.8-35.35-8.75-20.65-8.75-43.25.1-13.05 3.05-25.4h-.55q17.7-55.2 61.85-104.5 65.85-73.55 82.5-139.85 13.65-54.5-6.55-100.45-15.9-36.15-48.75-60.4-12.95-9.5-25.6-14.85-11.6-4.9-18.6-4.55z" id="B"/><path id="C" stroke="#000" stroke-width="3" stroke-linejoin="round" stroke-linecap="round" fill="none" d="M163.7 156.2q2 1.5 2.6 4.5.3 1.1.45 2.65 0 .1.05.2.95-1.2 2-1.85.6-.5 1.5-.75.8-.15 1.75 0 1.3.3 1.75.65.5.25 1.15 1.1.6.95.6 1 .55.85.85 2.85 0 .1 0 .2.05.1.05.35 0 .2.05.4v.05q.05 1.9-.55 4.3 0 .5-.4.75-.15.15-.5.25m.15.6q-.55.4-1 1.3-.5 1.1-.75 1.6-1 2.45-3.15 5.05-.75.95-4.1 4.45l-1.9 1.75m-.55 1.35q1.3.5 2.5 1.1.25.15.55.3m-3.9-35.75l.4.25m3.5 8.7q0 .15 0 .3.05.85.15 2.25.45.4 1 1.25.75.75 1.1 1.25.15.1.4.5m1-.65q.35-.25.8-1.1.4-.8.8-1 .4-.15 1-.15 1.65 0 2.4.15.1 0 .2 0 .45.05.65.25.05.05.1.15m-2.2 6.2q.5 0 .85-.1M163.8 196.8q1.15-3.15 2.45-6.75M144.65 29.7q.15-.7-.2-1.35-.3-.5-.45-.8-.1-.1-.15-.2-.65-1-1-1.5-.65-1.25-.9-1.75-.05-.15-.1-.25-.3-.5-.5-.85.05.55.05 1.15.2 3.7.1 7.4m-15.25 49.6q8.4-12.7 12.2-27.75 2.75-10.85 3.05-21.85M137.35 2.2q-3.8 11.8-17.15 22.9-.1.05-.15.1l.65.5 4 4.15M141.35 23v-.05q-.35-.65-.4-.75M138.6 1.5q6.8 11.3 10.35 23.15.25.8.5 1.65l.15.6.05.15v.1q3.1 11.55 2.8 22.8-.4 13.2-5.65 25.05-5.45 12.4-15.1 20.45m-.75 2.4q1.65.45 3.25 1 7.4 2.6 13.55 7.35m-.55.75q-.8.1-3.65.05-2.2 0-3.6.35-2.05.6-2.6.6v.05q-.15.1-.25.1 0 .05.05.1.1.3.55.5.55.3 2 1.75 2.35 2.55 3.25 4.65m-1 1.1q.15-.1-.1-.5M116.5 28.05q-.15-2.1.7-2.95.4-.4.65-.5 1.05-.3 1.75.25l.45.35q-.9.75-1.85 1.5-.9.7-1.7 1.35-1.25.95-2.25 1.75.1 0 .2.05.55.15 1 .6 1.7.95 2.4 1.65.9.9 1.25 1m-7.1-1.5q0-.25-.15-.9 0-.7.35-.85.15-.1.35-.05l.3.05q.25 0 .8-.05.35-.05.6 0-1.2.95-2.05 1.6-.1.1-.2.2-1.5 1.2-2.8 2.4-1.45 1.25-2.6 2.45-1.95 2-3.3 4.1-3.1 4.5-3.6 9.15M32 56.85q.6-.15 1.3-.25.6-.15 1.3-.3.15-.05.35-.05.1-.05.15-.05 5.1-1.05 13.25-2.6 14.3-2.85 22.35-5.75Q75.85 46 86.1 41.7q9-3.15 15.75-2.1m9.6 35.95q-.35-2.1-1.4-4.45-11.65 4.55-23.85 7.25m6.7-1.2q.05 0 .1 0l.05-.05q1.05-.3 1.85-.3.6 0 1.05.15 1.7.55 2.6 2.75 1.05 2.45.95 6.9-.05.25-.05.5 0 3.85-2 5.1-1.6.8-3.4 0-1.25-.45-2.6-2.25-1.85-2.45-2.3-5.65-.45-3.2.6-6.45m-9.3-10q-.3-1.75 2.25-3 3.55-1.4 8-.75 2.85.4 7.75 1.85M81.75 79.3q2.2-.45 4.45-.95M78.85 97l.05.05q.1 0 .2.05 1.5.35 3.1.6 1.85.3 4.1.45.65.05 1.35.05 4.8.15 11.15-.5h.05q.7-.1 1.45-.2l.75-.05q.2-.05.45-.1.1 0 .25 0h.05q2.55-.35 4.8-.55.15-.05.25-.05.35-.05.7-.05.75-.1 1.5-.15h.2q.1-.05.2-.05m2-20.95q.2.9.45 1.8m-19-.2q-1.15.5-1.85 1.4-.9 1.05-.6 2.15m19 15.8q6.3-.6 9.15-.55 6.25.15 12.35 1.9M41.45 12.7q5.65 3.35 16.25 9.95l.05.05q.9.55 1.85 1.15m-2.4-.25q-10.85-1.4-21.85.75-1.4.3-2.8.6-9.3 2.25-17.7 7.2-.05 0-.05.05m.05 0q1.3.5 10 3.2 4.8 1.5 8.05 3.1l.05.05q.05 0 .1.05.75.35 1.4.75m7-26.65l-2.6-2.1q1.15-.2 2.3-.35 19.45-2.6 38.75 4.7Q97.15 21.4 109.2 34M23.45 10.2q2.5 3.45 5 8.25 1.05 2 1.6 2.8 1 1.45 2.15 2.2M21.85 9.85q-5.4 11.9-7.9 21.85v.05q-.05 0-.05.05 0 .05 0 .15-.05 0-.05.05-3 12.15-2.15 22.7.05.55.1 1.1v.05q.05.45.1.9m1.05-.1q.35-.55.75-1.05 7.65-10.45 18.4-15.4m-1.5 30.4q.35-4.3 2.1-8.9.65-1.4 1.2-2.55 0-.05 0-.1.5-1.15.9-2 .1-.35.2-.6.05-.15.1-.25M14.25 66.95q.05-.05.15-.1.85-.65 1.8-1.25 6.45-4.05 15.45-6.9.35-.15.7-.25m-19.4-1.8q-.45.6-.9 1.25Q6.6 65.95 2.6 77.1m1.75 1.05q3.2-6.35 9.9-11.2 1.75 5.15 4.7 9.85 6.05 9.5 15.2 13.65.05 0 .1.05m1.25-.65q-.25-.5-.45-1-.05-.05-.05-.1-.1-.1-.1-.2-.5-1.05-.95-2.1-3-7.25-3.5-15M11.9 56.75q.05.6.15 1.15m31.1 21.45h.05q2.65-.05 5.7-.5 1.7-.25 4.2-.8m4.1-.95q.5-.15 1-.25M39.55 79.2q.35.05.7.1m-1.7.3q-.15 3.2.25 6.75m-3.3 3.5q.4.75.85 1.5 2.05 3.7 4.8 6.9.2.25.45.5m.6-.15q1.75-.4 3.55-.85.6-.2 1.25-.35 3.55-1.05 7.15-2.35.2-.05.4-.1.25-.15.6-.25.25 0 .55-.1.25-.05.55-.3 1.6-.65 3.25-1.3.7-.3 1.4-.6.9-.4 1.8-.8.05 0 .1 0m-9.7-13.55q1.85-.4 4.1-.95M34.25 90.5q1 .45 2.1.85m3.6-18l1.25.35q1 .4 3.1.4 5.75 0 8.65-.15m-3.5 12.25q.3 1.2 2.25 3.9 1.45 2.05 2.85 1.6.8-.1 1.65-1.5 1.3-2.8 1.1-5.35 0-3-2-4.65-1.2-.85-3.1-.85-1.65-.25-2.5.6-.9.8-.75 2.2 0 .6.3 1.3-.05 1.85.2 2.75zM41.6 98.75q.05.1.15.2l.05.05q.2.2.4.45m20.6-7.85q.8-.35 1.55-.75m.75-.65q6.1 4.9 13.75 6.8m-38.6-17.7q1.4.1 2.9.05M33.2 109.7q-3.3 2.45-6 5.5v2.4q0 .2.2.95.15.6.05 1.05 6.5 2.95 12.5 6.85.5 0 3.15-1.35 5.6-3.5 11.6-7.9.75-1.9-.1-3.35-.65-1.25-2.4-2.15-3.9-2.35-8.25-3.05-4.25-.65-8 .35-.4.05-.9-.25-.8.25-1.85.95zm6.9-10.6q-6.25 1.85-10.65 4.75-4.45 2.75-6.6 6.1-2.9 4.4-2 8.65 1.15 11.95 15.6 21.75 6.9 4.65 16.45 8.85 4.1 1.8 12.35 5 2.3.9 4.95 1.9.3.6.5 1.6 1 3.75 1.5 7.5.15.2.35.3.2.05.4-.05h.1q.2-.05.55-.35 1-1 1.75-1.4.1-.05.3-.1.2-.1.45-.15.45-.15.75-.35.9-1.05 1.25-1.15.4.55.5.95.2.65.35 1.3 0 .05 0 .1.05.15.1.35.05.5.15 1-.05.05 0 .1.1-.1.3-.15h.05q10.2-4.6 16.45-8.1 2.2-1.2 4.25-2.45 0-.05.05-.05 4.4-2.7 8.1-5.5 1.55-1.2 2.95-2.4.45-.4.95-.8.25-.25.55-.5.35-.35.7-.7.15-.15.3-.25 5.75-5.55 9.6-11.9 5.15-8.4 6.25-17.15m2-.6q.85 0 1.65 0 .05 0 .1 0 5.7.05 7.9.4.35 0 .5.1M20.2 189.85q.25 2.4 1.3 5.4 1.05 3 4.75 11.45 3.7 8.45 12.95 21m.5.4q1.3 1.65 2.1 3.65v.05q.15.4.25.8.3-.4 2-3.45 1.2-2.15 2.4-3.2.8-.7 3.1-1.75 2.25-1 7-3.1m2.6-15.75q-.25 7.95-.9 15.9m.3-15.9q-.55-.85-1.3-2.15-.7-1.2-1.5-2.8-1.75-3.35-2.8-4.95-1.55-1.9-2.75-3.1m23.75-26.9q-.35.2-.7.4-.05 0-.05.05-1.85.95-4.6 2.25-.15.25-1.2.7.45 2.65 2.05 5.1 1.6 2.4 4 4.15 2.05 1.45 5.15 2.65.1 0 .2.05 1.3.5 2.75.9.05.05.15.05 1.05.3 2.25.6 10.75 2.1 19-1 4.6-1.75 8.15-5.1.3-.3.6-.55 0-.05.05-.05 0-.1.1-.1.1-.15.2-.25.7-.75 1.3-1.55 1.9-2.5 2.85-5.4m.25-.3q-.15-.15-.25-.2-.25-.25-.5-.4-.25-.2-.5-.4-1.65-1.25-3.1-2.1-2.05-1.2-3.25-1.5m-.9.15v.05q.05.35.15.7.2 1.05.5 2.1.5 1.8.5 2.5-.15.8-.45 1.4-.3.55-.8.85m-.15.5q-3.65 1.8-7.45 3.2-.8.25-1.65.55-2.55.8-5.15 1.4-6.4 1.4-10.6.6-1.35-.2-2.6-.6-1.25-.4-2.4-1.05-2.45-1.35-4-3.45l1.4-6.65m-6.65 2.45q-.6.3-1.25.6 0 .05.05.1-1.25.45-3.55 1.4-2.95 1.2-5 1.35m-.95-.35q-.75.35-1.55.7-.7.35-5.4 2.15-16.15 6-30.5 15.6m55.2-26.1l-.4 2.1m-13.8 3.4q-1.5 1.1-3.55 2.15m55.65-26.15q-.05.65-.15 1.3-.05.5-.1 1 0 .05 0 .1-.8 4.85-2.65 10 2.1-1.3 3.65-2.9 1.3-1.4 2.15-3 1.55-2.9 2.5-3.9.5 4.85-1.2 9.5 3-2.9 5.35-6.1 2.35-3.25 5.6-10.65 3-6.65 3.75-10.25.4-2.4.5-6.9.1-4.7.4-6.85m-57.4 32q2.75.55 6.25-.85 2-.9 5.6-3.15.75-.45 3.35-1.95 2.1-1.2 3.3-2.05 3.7-2.85 5-5.85m18.3 22.6q-.35.95-.8 1.9m-16.5 9.1q.1-.05.2-.05.6-.3 1.2-.55.65-.3 1.3-.6 1.85-1 3.65-2.15m1.15-1.25q-.65-3.15-.7-5.85v-.05q0-.15 0-.2v-.05q-.05-.15 0-.3 0-4.15 1.15-7.65m7.8 16.35h5.5m2.25-.65q4.3 4.5 7.95 11.35 2.2 4.2 5.55 12.2 1.1-1.8 2.35-3.3.85-.3 2.05-.4m-.15-.85q-.25-3.5-1.4-7.1-.35-1.05-.75-2.15-.2-.7-.6-1.1-.2-.35-.5-.5-.35-.2-.75-.15-2.2-2.5-3.9-5.1-.2-3.7 1.1-5.95.05-.15.15-.3.4-.75.9-1.05.05-.1.1-.15v-.05q.3-.5 1-1 1.25-.9 3.75-2.75 2.2-1.4 3.25-1.5.65-.1 1.45.1.2.05.45.15 0-.1 0-.15l.35-.35q3.05-2 6.6-1.8h.05q.05 0 .1 0 .2.05.4.05-.1-.1.1-.65l.5-.5q.4-.25 1-.85.7-.4 1.15-.25 2.15.6 3.6 1.6l3.1 1.9q-2.65-.3-4.7.85-1.1.7-1.15.75-1 .85-1.25 1.85-.05.15-.1.35m-1.5-.55q-1.5-.2-3.65.75-.75.1-1.75.75-.3 0-.5.35-.25.4-.1.65m-2.15.35q-.8-.15-1.85.4-1.8 1.1-2.25 4.1-.4 2.4-.4 4.65m-.85.95q.25 1.7.6 3.8l.5 2m-66.45-8q7.8 2.9 16.35 1.85 3.95-.5 7.55-1.8.05-.05.15-.05.55-.2 1.05-.4m52.5-14q.4.15.75.75.15.3.5 1.15.45.8.75 1.25.25.4.25.85m-9.15-1.35q.1.4.45 1.05.35.65.95 1.55m-6.75 11.35q-.05-.4-.1-.8-.35-2.15-.55-3.55m-9.6 39.65q2-6.85 3.65-10.85 1.05-2.5 2.25-4.65.55-.95 1.1-1.85l.1.65m.25 2.05q10.35 2.8 22.5 4m3.5 1.35q-3.3 8.9-5.8 14-4.25 8.7-9.4 14.95-1.2 2.1-2.55 4.1-2.35 2.15-7.85 1.35-4.2-.5-6.35-1.1-2.35-.65-4.05-1.7-.9-.55-1.6-1.2-.95-.85-1.75-2.05m4.1 16.7q-.3 0-.55-.05m.35 1.6l.1.55q-.55 5.5.5 10.25.35 1.65 1.2 4.95.65 3 .55 5.05m-.45.2q.05.25.2.5 1.65 4.1 3.25 8.25.15.4.3.8v.05m-.05.1q.45 1 1.15 2.45.2.5.4 1 .5 1.3.8 2.4.3 1.7.4 2.1.1.3.2.6m.25-.15q.2.6.45 1.25.2.55.4 1.15 6.95 2.9 13.6 4.95 16.35 5.15 32.25 5.2 17.25.1 31.85-5.85m.35.25q-.3.35-.6 1-1.45 4.35-4.25 9.4-1.05 1.85-1.85 2.5 1.25-.05 2.75-.9 4.1-1.75 7.35-2.85.15 1.05-.6 3.5-2.55 7.7-7.75 13.5m.75.85q1.5-.85 4.6-2.5-2.7 7.2-9.5 12.2-6.4 4.75-14.5 6.3-13.4 2.6-31.1-3.35-6-2-11.7-4.55.2.7.4 1.45.3 1.2.65 2.45.4.9 1.25 2.65 1 2.2 1.65 2.85.35.4 1.3 1.2.9.75 1.3 1.3 1.1 1.45 1.5 3.5m-2.15 5.6q1.05-1.45 1.8-2.95m-15.5-157.55q1.35-.1 3.2.05 5.5.55 11.7 1.95.55.1 1.1.25 1.15.25 2.25.5 1.9.5 3.65 1.15m-85.8-109q1.9-.3 3.8-.65m42.7 145.85q-.7-1-1.25-2.2-.7-1.5-1.9-5.1m4.1 12.4q-.25-.05-.5 0-.35-.6-.7-1.15m.7 1.15q-.85-.05-1.7-.1-.2-.05-.35-.05 0-.2 0-.4m.35-.1q-1.5-5.8-2.75-11.55-3.05-13.8-4.85-27.2m12.75 52.55q-.25-.85-.4-1.6h.05m-3.1-11.55q.35.55 3.05 11.55m17.6-12.7q1.55-1.55 3.05-3.35M58.35 258.1q13.85 4.15 28.5 4.1.85 0 1.7 0 1.35-.05 2.7-.1 1.9-.1 3.8-.25.65-.05 1.3-.1 14.25-1.4 27.35-6.65m-29.25 23.2q.1 0 .2 0 .5-.05 1-.15 1.7-.3 3.7-.65 4.3-.9 9.6-2.25 0-.05.05 0l.05-.05q.65-.2 1.3-.35 2.65-.75 4.85-1.45 1.6-.5 3-1 1.7-.6 3-1.2 5.8-2.6 9.25-6.3M84.6 279.2q0 7.6 1.5 14.65.15.55 1 1l1.5.35q.25.1 1.55.95.95.6 1.7.7 1.7-4.5 1.75-4.75l.75-3.15q.65-3.45.8-4.7.25-2.7-.7-5.95-5.2.8-9.85.9-.6 0-1.2 0-2.6 0-5.05-.25-3.9-.35-7.55-1.35-2.6-.75-5.05-1.75m-.3.6q-.15.5-.3 1-.9 3-1.85 5.95-.05.1-.05.15-.1.25-.2.55h5.55m1.85-5q-.5 2.25-1.1 5.1m49.6-9.6q.65.85 1.3 1.65 2.9 3.8 5.8 7.4 1.4-1.05 2.8-1.55.45-.2 1-.75l.9-.65.05-.05v-.05q.05-.05.1-.05l.85-.65q.05-.05.1-.05m0 .35q.3-.2.7-.6.6-.7 2.95-2.05m-26.5-2.3q.05.1.15.25 7.65 15.5 19.4 28.05 1.95 2.1 4 4.1 7.5 7.25 16.1 13 .45.3.95.65.4.25.85.5.75.5 1.55 1 1.6.95 3.2 1.9l1-1.35q.75-1 1.15-2.15.2-.45.4-.95.5-1.4.55-3.2.05-1.2-.1-4.45m-.35-2q-.5.25-1.4-.65-1.25-1.25-3-2-2.35-1-3.5-1.5-2-1-5.25-4.25m-1 .3v.05q.05.2.15.4v.05q.45 1.65.95 3.3.5.55.9.95.15.15.25.25 3.05 2.9 6.15 4.35m-18.4-38.7q0 .45.25.95m2.95 8.55q.3.65.7 1.1m-11.55-.1q.05.05.1.1 6.15 7.8 11.8 14.65.05 0 .05.05.15.15.35.4l2.25-2.9q.4-.3.85-.3l.05.05q0-.05.05 0h.05l-.05-.05q-1.7-5.4-3.55-10.75m-7.1-4.35q.25-.1.65-.2.15-.05.3-.15m-.95.35l-.1.1M59.25 202.6q-.05 1.4-.1 2.75m-1.35 20.9q-.2 2.25-.45 4.45v.05q-.15 1-.25 2.05-.4 3.1-.85 6.25v.05q-.5 3.65-1.1 7.3-.6 3.6-1.25 7.15-.35 1.65-.65 3.3 0 .1-.05.25-.65 3.25-1.35 6.5m-.7.8q2.05 3.1 4.95 5.6h.05q.25.2.5.45 2.7 2.25 6.1 4 1.45.75 3 1.4m-7.95-49.6q-6 3.8-7.9 4.95-2.2 1.2-3.2 1.9-1.35.9-3.9 3.75-.15.2-.3.35.35.75.8 1.5m-2-6.75q0 2.6 1.1 5.05.05.1.1.2-2.05 2.35-2.55 3.75-.65 1.6-.65 3.8 0 1.45.4 3.95m-1 1.4q-.15 2.35.3 5.35.2 1.15 1.05 5.4.8 3.65 1.35 5m.65-.25H50q.05-.2.1-.4m2.1-17.85q.4-.3 1.75-1.15m4.3-24.95q-.2 2.5-.45 5m-6.6 31.7q-.25-.15 0-.6.1-.15.5-.4.65-.25.75-.25M50 265.6q-.85 2.65-1.1 6.2 0 .45 0 1.75v.05q-.05 1.7-.05 4.85 0 .6 0 1.15v.05q0 .45 0 .9-.05.1 0 .2-.05.25-.05.55v.1m2.8.1q.15-.4.3-.85.15-.55.35-1.05 1-3.05 2-6 .35-1.1.7-2.15M50 265.6h.8m.8 15.9q-.15.35-.25.7-.15.3-.25.65-.1.25-.2.55-.1.25-.15.55l-1.05 2.9q-.3.85-.6 1.75-.55 1.5-1.05 3.05-.85 6.4-2.55 12.45 0 .1-.05.2v.1q-.05.05-.05.15-.05.05-.05.1-.25.85-.5 1.7m3.95-24.95q0 .3 0 .65-.05.3-.05.6 0 .3 0 .6-.05.25-.05.55-.1 2.3-.3 4.55-.15 1.65-.35 3.25v.05q-.1.2-.2.45l-.05.15q-2 5.6-4.15 11.4-.05.1-.05.2-.25.6-.45 1.2-1.4 3.7-2.85 7.55-.1.2-.15.45-.3.7-.55 1.45v.05q-.5 1.1-.9 2.3-.2.45-.4.95-.15.45-.35.9m31.4-34.5v.05q-1.6 7.2-4 18.35m-1 .1q-1.4-.1-3.65-.6l-1.25-.4q-1-.5-2.95-1.1-2.2 4.7-4.6 9.25-.1.1-.15.25 0 .05-.05.1-1.45 2.65-2.95 5.25-.05 0-.05.1h-.05q-1.4 2.35-2.85 4.65-.8 1.2-1.55 2.4-.05 0-.05.05-.15.2-.3.5-.05 0-.05.05-.55.8-1.15 1.65-.1.15-.2.3-.05.1-.15.2-.05.1-.1.2-.1.1-.15.15-.05.05-.05.1-.2.25-.35.5-.35 2.3-.5 4.55-.25 2.35-.35 2.6-.2.5-.7 1.5-.35.95-.2 1.65m-1-24q-.45.7-.75 1.3-.8 1.35-1 1.7-.15.3-.25.6-.2.5-.4 1-1 2.3-1.45 3.65-.4.85-1 2.6-.15.65.6 1.75 1.8 2.2 2.9 4.4 2.1-.7 4.1-3.3m-3.4 8.35q-.8 8.15-4.1 15.7-.95 2.1-1.25 2.9-.6 1.7-.6 3.1 1.1 2.1 3.85 3.3 1.4.65 3.6 1.15 0-.1.05-.15.25-1 .25-1.05m-.3 1.2q-.3 1.05-.85 3.05-.85 4.1-2.5 12.35m.5 1.55q1.6-.6 2.75-.4 1.45.15 3 1.5 2.55 2.4 3.25 6.95m1-.1q1.7-.3 4.1.5 1.35.45 4.05 1.5 2.35.75 7.5.75 9.45-.2 14.25-3.6m1.6-1.5q0-.5 0-.95v-.05q-.3-8.85 1-18.8-3.55.8-8 .9-6.65.25-15.05-.85-4.95-.65-14.95-2.5-.85-.15-1.65-.3m-8.6 25.9q-.2-2.75 1.4-5.25 1.55-2.45 4.1-3.6.1-.05.25-.1M28.6 389.7q-3.5 2.8-7.6 4.65-2.1.95-4.25 1.65-2.2.65-4.55 1.1-3 .5-4.35 1.1-.75.4-1.75 1.4-.4.45-.9 1v.05l.05.05q-.05 0 0 .05 0 .05 0 .1.1.55.45 1 .25.3.65.5 1.4.65 3.6-.15l13.15-3.35q-.4 2.1.1 4 .35 1.15 1 2.25 1.3-2.8 4.1-4.5 2.85-1.65 5.9-1.4 1 1.85 2.5 4.25 1.15-2.15 3.9-3.15 1.25-.45 2.55-.6.35-.05.7-.05.45-.05 1 0 .1 0 .25 0 .15 0 .3 0m.3-1.65q-3.25-4.95-5-6.2-1.75-1.25-3.9-2.1-2.2-.85-3.25-1.65-1.1-.85-1.75-.45-.7.45-1.2 1.25m15.35-3.05q.05.35.1.7 0 .35.05.7.15 1.7-.05 4.5-.2 3.55-.2 4.65m-.35 3.3q.05 0 .1.05.1 0 .25 0 2.2.3 5 1.4 1.65.65 4.85 2 5.65 2.05 11.15 2.05 5.5-.05 10-2.1m-1.35-4.4q.5-1.45.75-2.2.55-1.45 1.1-2.5 1-2 1.5-3.05.85-1.85 1-3.2.1-1.25-.1-3.05v-.05q-.05-.1-.05-.25 0-1-.25-2m62.15-86.65q.35 1.15.75 2.4.65 2.2 1.35 4.4m-5.35-3.65q1.25 1.5 2.5 3 .95 1.15 1.85 2.1v.05q1.15 1.3 2.05 2.3h.05m3.85 14.35q.1.4.2.85.1.3.2.65.15.65.3 1.3.15.55.3 1.1m-63.8 36.55q-2.25-11.45-1.1-23.15 1.15-11.65 5.6-22.25.8-.45 1.8-.3.95.1 1.7.7 1.15 1 2 3 3 6.4 6 21.7 2.9 14.45 6.6 21.4 6.5.35 10.5.45 1.8.05 3.1 0 7.5-.2 13.15-2.2 5.45-1.95 12.5-7.25 3.5-2.8 5.45-4.8.2-.2.4-.4 1.1-1.25 2-2.45m-36.7 18.55q4.25 10.45 8.2 19.75v.05q.15.3.3.7l1.25.75q.15.15.65.45.05 0 .1.05.5.2 1.15.2.45 0 .95-.1m.65.15q4.85-6.15 12.25-8.65 3.45-1.05 6.5-.85 3.65.2 6 2.1 1.3 1 2.25 2.5 0 .05.05.1.25.4.45.9.3.55.55 1.2m.7-.3q.6-.25.85-.5l.65-.4.7-.65m1.15-1.4l-.05-.05q-.15-.15-.3-.2-.5-.35-1.25-.45m-.5-.05l.25 1.45m-8-32.15q1.55 2.1 2.55 5.25.55 1.8 1.3 5.75l3.9 19.7m-35.05 4.5q-.35.05-.35.3l.6.4h.05m1 2.6l-.25.65m2.15.85q-.65 1.1-.9 2.25-.25 1.3 0 2.65 1.85-.85 2.6.1.25.4.4 1.15.1 2.65-.4 5.15-.15.7-.35 1.45l4.1-.75q-.35 1.85.2 3.8m1.05-.15q1.8.8 2.55 1.05 1.5.5 2.7.45 1.15-.15 2.65-1l2.5-1.5q4.65-2.5 13.25-1.25 3.05.5 4.6-.15 1.15-.4 1.75-1.4.05-.1.1-.15v-.05h.05q.05-.15.1-.2.35-.95 0-1.8l-2.85-1.5q.15-.65.85-.65-.85-1.35-1.25-2 .55-.15.75-.85-2-.6-3.75-2.5m-.6-1.15q-.3-1.45-1.45-2.75-.25-.25-.5-.5-.9-.85-2.05-1.35-2.75-1.25-6.25-1-4.35 0-7.75 1.6-3.05 1.6-4.6 4-.55.75-.9 1.65m-1.9.1q-.1-.45-.3-1-.25-.5-.6-1.1-.8-1.3-1.2-2v-.05q-.1-.15-.1-.2-.2-.35-.35-.55-.2-.35-.3-.45m-5.9-1.9q-.95-.15-1.75 1.15-2.1 2.25-2.6 5-.8 3.1.35 5.75.05.25.05.5.05.85-.35 2-.7 1.95-.8 2.35-.5 1.4-.5 4.5.2 3.75 1 6.15.85 2.9 3.1 4.8.05 0 .1.1.1.05.2.1 2.7.05 5.1.1 4.85.05 8.5.1h.05q1.2 0 2.3 0h.05q5.75.05 7.7.05 8.1.1 13-.55 2.25-.3 4.25-.75.05-.05.1-.05m-.35-1.15q.85-1.3 1.45-2.85 0-.05.05-.15.55-1.65.7-3.5.2-2.3-.1-4.95-.05-.2-.05-.4-.1-.4-.15-.85-.1-.55-.45-1.15v-.05q0-.05-.05-.05v-.05m-39-12.5l-1.75 4.35q-1.2 2.65-.75 4.4.25 1.05 1.45 1.55 1.15.55 1.9-.2-1.3 2.15-1.5 3.15-.45 1.9.75 3.1 1.2 1.2 4.5.65-1.2.55-1.55 2.05-.35 1.55.55 2.45.6.55 1.5.9 0 .05 1.65.6 1.75.5 2.6 1.25.65.55.95 1.2.25.65.2 1.4m2.35-.3q.05-.7-.1-1.45-.35-1.4-1.5-3-2.15-2.5-2.9-3.85-.35-.7-.5-1.4-.05-.05-.05-.1 0-.05 0-.1m24.25-21.1q-.05 0 0 .05 0 .1.05.2.05.1.05.2l.05.05q.45 1.5.6 3.25.1 1.25.05 2.55m-81.5-26.15q3.65-.85 6.4-2.45M56.5 300.6q3.65-8 6.55-16.5m146.55 31.6q-5.1 4.9-11.75 7.4-2.85 1.1-6.95 2.1-.55.1-1.1.25-.45.05-.85.15m4.65-5.75q-12.5 5.75-28.6 2.35-3.6-.75-7.25-1.95m32.95 4.45q.35-.35.75-1 .4-.55.65-1.25.25-.4.7-1.3.45-.75.9-1.05m-3.9 5.35q.45-.3.9-.75m-26.5 55.45h.05q.05.05.15.15.25.3.45.65.7 1.25.85 2.75.25 1.45.35 3 .1 1.45.1 3-.05.6.2 1.65.1.05.25.15 1.9 1.15 4.05 3.6.35.4.7.85.4.55.7 1.05l.1.1q.05.1.1.2.55.85.85 1.45.5 1.1.6 2.15.05.05.1.15.05.05.05.1.1.2.2.4.6 1.15.8 2.05.1.75.1 2.25 0 2.25-.1 3.35-.35 1.7-1.05 3.45-.05 0-.1.05 1.25 4.4-.25 8.3-.2.55-.5 1.1-1.4 1.2-4.6 2.5-.3.1-.65.25-7.3 2.85-19.1 2.8-18.25-.05-20.5.2m-.4-.75q-.9-.45-1.45-1.65-.05-.05-.05-.1-.2-.4-.35-.9-1.7-4.45-2-7.35m41.35-24q.25 0 .5-.4.65-.85.9-1.2m7.1 9.4q0 .05.05.15v.05q0 .05 0 .1.05.25.3.35m-1.65.35q-.1.25-.15.75 0 .15 0 .4-.05.35-.05.8 0 2.05-.8 4.65-.3.85-1.15 3.2l-.05.05q-.05.2-.1.35-.1.2-.15.35 0 .05-.05.15-.1.25-.2.5m.45 1.2q.05-.05.1-.05 1.55-.6 3-1.3l.05-.05q.15-.1.35-.2h.05m-6 2.4q1.25-.4 2.4-.8h.05m-2.2 1.65q1 0 1.9.9 1.15 1.05 2.6 3.75m-6.4-5.1q.85-.2 1.65-.4m-37.6 2.35q-.8.3-1.5 1.5-2 2.8-1.75 6.15M78.5 402.25q-.35-.8-.8-1.8-.2-.5-.3-.7-.2-.4-.45-.55m1.55 3.05q.05.05.05.1.7 1.65.9 2.6.55 2.9-.25 8.25m-.25.9q-.15.7-.3 1.35-.05.05-.05.1v.05q-.05.05-.05.1-1.05 3.6-2.6 5.65-1.5 1.95-3.8 3.1-2.3 1.15-4.8 1.15-2.65 0-8.35-2.3-4-1.55-6.7-1.75-.95-.05-1.85-.35-3.2.6-9.9 2.55-6.45 1.9-9.95 2.45-5.2.8-10.25.4-5.85-.45-11.45-2.55-.25-.15-.5-.25-2.4-1.45-4.15-3.85-.7-.95-1.3-2-2-4.05-1.25-8.25m.55-.15q-.1-.15-.1-.3-.05-.1-.05-.15-.05-.15-.1-.3-.1-.35-.15-.7-.25-1.1-.15-2.3v-.1q.05-.65.15-1.3.15-.75.75-3.15m1.75.35q.2-.25.45-.5.1-.15.2-.3.05-.05.1-.1 0-.05.1-.05m14.65 18.8q4.5.5 10.1-.25.85-.1 4.25-.7 2.4-.4 6.05-1.05 5.9-1.05 9.9-1.1.1 0 .2 0 .05 0 .1 0 .1 0 .15 0 .85 0 1.95.05h.1q2.15.1 5.2.45 4.95.55 7.25.6.6 0 1.25.05.05 0 .15 0 6.35-.05 10.45-2.45-5.5-.6-10.65-1.95-11.5-3.1-21.45-9.9-2.3 2.75-5.4 4.5-3.15 1.8-6.6 2.25-1.65.25-2.4-.5-1-1-.25-2.85.55-.95.75-1.45.4-.85.4-1.55-1.9 2.9-4.95 4.75-.15.1-.25.15-.15.1-.3.2-2.85 1.5-6 1.75-1.45.3-2.4-.6-.8-1 .25-2.9.35-.4 1-1.25.15-.15.25-.35.3-.5.4-1-.5.4-1 .75-4.05 2.8-9.4 3.75-2.85.5-4.6-.4-.55-.2-.95-.6m73.55 7.2q.55-.35 1.2-.6.4-.2.8-.35M45.4 399.65h.1m-39.4-.05q-1 .15-.9 1m-1.8 7.25q-.2-.15-.3-.35-.25-.3-.45-.65-.3-.6-.35-1.1-.1-.6.15-1.15m-.2 4.95q.5 1.4 1.45 2.55 2.2 3.1 5.7 4.1m.45-.35q4.05 2.9 10 3.6v.25q-.3 3.35.6 5.15"/></defs><use xlink:href="#A"/><use xlink:href="#C"/><use xlink:href="#B" transform="matrix(.081802 0 -.00383 .081802 74.8 139.95)"/></svg>