<?xml version="1.0" encoding="UTF-8"?><svg id="a" xmlns="http://www.w3.org/2000/svg" viewBox="0 0 223.0952 429.85"><path d="m173.8341,71.2287c-4.7167-17.2525-17.6009-31.3711-32.5916-41.127-14.9907-9.7559-32.0991-15.6745-49.0606-21.3491" style="fill:none; stroke:#000; stroke-linecap:round; stroke-linejoin:round; stroke-width:3px;"/><path d="m92.5378,9.5843c8.2786,2.9241,15.7431,8.117,21.3634,14.8621" style="fill:none; stroke:#000; stroke-linecap:round; stroke-linejoin:round; stroke-width:3px;"/><path d="m113.3809,24.7872c-11.4296-4.2827-23.9646-5.5762-36.028-3.7178-12.0633,1.8585-23.6278,6.8647-33.2385,14.3888" style="fill:none; stroke:#000; stroke-linecap:round; stroke-linejoin:round; stroke-width:3px;"/><path d="m43.7647,35.1376c9.0861-2.9589,19.0549-3.1451,28.2451-.5275" style="fill:none; stroke:#000; stroke-linecap:round; stroke-linejoin:round; stroke-width:3px;"/><path d="m64.7936,33.9738c-9.0725,1.3541-17.3815,6.2514-23.8691,12.7364s-11.2729,14.4963-15.0843,22.8399" style="fill:none; stroke:#000; stroke-linecap:round; stroke-linejoin:round; stroke-width:3px;"/><path d="m25.7124,69.4597c7.6235-4.4664,16.2511-7.2076,25.0545-7.9603" style="fill:none; stroke:#000; stroke-linecap:round; stroke-linejoin:round; stroke-width:3px;"/><path d="m60.3915,107.0771c-3.3895,5.0891-4.0802,11.7042-2.5485,17.6238,1.5317,5.9196,5.1264,11.1679,9.5741,15.3638s9.7313,7.4089,15.1706,10.2021c8.4873,4.3584,17.4262,7.7602,26.3437,11.1525" style="fill:none; stroke:#000; stroke-linecap:round; stroke-linejoin:round; stroke-width:3px;"/><path d="m109.059,161.4732c17.9707-3.6568,35.0555-11.5936,49.441-22.9679" style="fill:none; stroke:#000; stroke-linecap:round; stroke-linejoin:round; stroke-width:3px;"/><path d="m61.3835,107.537c8.4322-5.647,18.6018-8.3538,28.7364-8.8847s20.278,1.0225,30.1585,3.3393c8.7745,2.0574,17.4828,4.7522,25.3372,9.172,7.8543,4.4197,14.8553,10.6765,19.0734,18.6409" style="fill:none; stroke:#000; stroke-linecap:round; stroke-linejoin:round; stroke-width:3px;"/><path d="m164.516,130.2966c-.1848,1.126-.9188,2.0747-1.6509,2.9499-2.3282,2.7836-4.8899,5.3718-7.6493,7.7286" style="fill:none; stroke:#000; stroke-linecap:round; stroke-linejoin:round; stroke-width:3px;"/><path d="m48.6812,85.328c2.9197-4.4615,7.1967-8.0217,12.1139-10.0834" style="fill:none; stroke:#000; stroke-linecap:round; stroke-linejoin:round; stroke-width:3px;"/><path d="m64.6622,64.5415c-3.5023,4.4156-5.5503,9.9656-5.756,15.5977s1.4323,11.3167,4.6032,15.9759" style="fill:none; stroke:#000; stroke-linecap:round; stroke-linejoin:round; stroke-width:3px;"/><path d="m63.7455,95.9025c.8343-10.1772,7.7628-19.6166,17.2219-23.4631" style="fill:none; stroke:#000; stroke-linecap:round; stroke-linejoin:round; stroke-width:3px;"/><path d="m80.8577,72.2559c1.0059,11.4631,7.4303,22.3332,16.9873,28.7425" style="fill:none; stroke:#000; stroke-linecap:round; stroke-linejoin:round; stroke-width:3px;"/><path d="m98.1239,100.8458c.1797-6.6757,2.1497-13.2949,5.6495-18.9824" style="fill:none; stroke:#000; stroke-linecap:round; stroke-linejoin:round; stroke-width:3px;"/><path d="m103.9545,81.7827c-.2204,2.7286.5375,5.5261,2.1052,7.7703" style="fill:none; stroke:#000; stroke-linecap:round; stroke-linejoin:round; stroke-width:3px;"/><path d="m105.9091,89.4984c1.7631-5.7614,5.4338-10.9215,10.2982-14.4766,4.8645-3.5552,10.8955-5.4856,16.9203-5.4158" style="fill:none; stroke:#000; stroke-linecap:round; stroke-linejoin:round; stroke-width:3px;"/><path d="m133.1897,69.6457c2.4163,7.9927,2.5634,16.658.4196,24.728" style="fill:none; stroke:#000; stroke-linecap:round; stroke-linejoin:round; stroke-width:3px;"/><path d="m133.8211,94.5993c4.8137-4.7067,8.1964-10.8581,9.5926-17.4441" style="fill:none; stroke:#000; stroke-linecap:round; stroke-linejoin:round; stroke-width:3px;"/><path d="m168.795,127.8378c-1.8867,7.3386.4051,15.6043,5.8013,20.9236" style="fill:none; stroke:#000; stroke-linecap:round; stroke-linejoin:round; stroke-width:3px;"/><path d="m174.7287,148.82c-2.3806-.2103-4.5283-1.6123-6.1263-3.3894s-2.7234-3.9189-3.8318-6.0361" style="fill:none; stroke:#000; stroke-linecap:round; stroke-linejoin:round; stroke-width:3px;"/><path d="m164.5348,139.4971c1.9981,7.4029,6.3879,14.14,12.3528,18.9581" style="fill:none; stroke:#000; stroke-linecap:round; stroke-linejoin:round; stroke-width:3px;"/><path d="m176.8702,158.595c-3.6096.2317-7.2989.3283-10.7737-.6761s-6.7507-3.2787-8.1369-6.6195" style="fill:none; stroke:#000; stroke-linecap:round; stroke-linejoin:round; stroke-width:3px;"/><path d="m157.9689,151.1304c-3.3759,3.3885-6.7517,6.777-10.1276,10.1655" style="fill:none; stroke:#000; stroke-linecap:round; stroke-linejoin:round; stroke-width:3px;"/><path d="m147.66,161.158c.5459-2.4669,1.0918-4.9339,1.6378-7.4008" style="fill:none; stroke:#000; stroke-linecap:round; stroke-linejoin:round; stroke-width:3px;"/><path d="m149.2166,153.5916c-3.4765,1.8077-6.9529,3.6154-10.4294,5.4231" style="fill:none; stroke:#000; stroke-linecap:round; stroke-linejoin:round; stroke-width:3px;"/><path d="m138.6504,158.8104c2.2046-2.1719,3.4159-5.315,3.2389-8.4047" style="fill:none; stroke:#000; stroke-linecap:round; stroke-linejoin:round; stroke-width:3px;"/><path d="m173.8677,68.8535c9.4063,17.3413,9.2207,39.5136-.4746,56.6949-2.1004,3.7223-4.6962,7.5166-4.5747,11.7888" style="fill:none; stroke:#000; stroke-linecap:round; stroke-linejoin:round; stroke-width:3px;"/><path d="m150.3769,41.371c12.8516-2.6915,25.3744-6.949,37.2034-12.6484" style="fill:none; stroke:#000; stroke-linecap:round; stroke-linejoin:round; stroke-width:3px;"/><path d="m187.9318,28.6755c2.1762,8.7697,2.1356,18.0804-.1171,26.8308s-6.7131,16.9232-12.8535,23.5519" style="fill:none; stroke:#000; stroke-linecap:round; stroke-linejoin:round; stroke-width:3px;"/><path d="m88.2408,141.161c10.9414.3784,21.9663-1.9488,31.8212-6.7171" style="fill:none; stroke:#000; stroke-linecap:round; stroke-linejoin:round; stroke-width:3px;"/><path d="m188.5039,31.7682c-.3928-.7823-1.5625-.8571-2.2923-.3738s-1.1238,1.3243-1.4822,2.123c-5.2379,11.6731-10.3882,23.3855-15.4501,35.1359" style="fill:none; stroke:#000; stroke-linecap:round; stroke-linejoin:round; stroke-width:3px;"/><path d="m188.4539,42.8298c.2701-.7119-.1268-1.5269-.7021-2.0257-1.1434-.9913-2.9093-1.0405-4.2683-.3747s-2.3446,1.933-2.9833,3.305" style="fill:none; stroke:#000; stroke-linecap:round; stroke-linejoin:round; stroke-width:3px;"/><path d="m48.0536,84.6055c1.2484-7.7319,2.9715-15.4721,6.3609-22.5327,3.3894-7.0606,8.58-13.4513,15.4828-17.1515" style="fill:none; stroke:#000; stroke-linecap:round; stroke-linejoin:round; stroke-width:3px;"/><path d="m55.2959,79.8063c-2.7453,9.2135-.698,19.7167,5.3066,27.2246" style="fill:none; stroke:#000; stroke-linecap:round; stroke-linejoin:round; stroke-width:3px;"/><path d="m94.0481,97.9607c-3.0736.5071-5.9263,2.2453-7.7862,4.7443" style="fill:none; stroke:#000; stroke-linecap:round; stroke-linejoin:round; stroke-width:3px;"/><path d="m86.1393,102.8837c3.2043,1.9406,6.6898,3.4159,10.3136,4.3653" style="fill:none; stroke:#000; stroke-linecap:round; stroke-linejoin:round; stroke-width:3px;"/><path d="m96.7429,107.4305c2.8343-.9391,5.5937-2.1044,8.2433-3.4811" style="fill:none; stroke:#000; stroke-linecap:round; stroke-linejoin:round; stroke-width:3px;"/><path d="m105.0063,103.9476c.2862-.0393.5083-.293.5868-.571s.0384-.5755-.0274-.8569c-.328-1.4028-1.3119-2.6376-2.6061-3.2705" style="fill:none; stroke:#000; stroke-linecap:round; stroke-linejoin:round; stroke-width:3px;"/><path d="m63.5861,86.005c-.0085.8411.055,1.6828.1894,2.5131" style="fill:none; stroke:#000; stroke-linecap:round; stroke-linejoin:round; stroke-width:3px;"/><path d="m63.9557,85.535c2.403-2.1415,5.4276-3.5771,8.606-4.085s6.4998-.0863,9.4505,1.1996" style="fill:none; stroke:#000; stroke-linecap:round; stroke-linejoin:round; stroke-width:3px;"/><path d="m82.0182,82.6385c1.2077.4785,2.1841,1.5085,2.5975,2.74" style="fill:none; stroke:#000; stroke-linecap:round; stroke-linejoin:round; stroke-width:3px;"/><path d="m74.644,87.3707c-.2793,1.5266-.4263,3.0774-.4387,4.6292-.0057.7074.0182,1.4254.2269,2.1013.2297.7438.6723,1.4019,1.1346,2.0283.4405.5969.9109,1.1829,1.5002,1.6336s1.3133.7598,2.0546.7332c1.0841-.0388,2.0427-.7947,2.6014-1.7246s.7825-2.0181.9639-3.0876c.2389-1.4089.4198-2.85.2104-4.2636s-.8529-2.8136-1.9964-3.6708c-1.2784-.9583-3.1174-1.1-4.5275-.3488s-2.3184,2.3565-2.2362,3.9521" style="fill:none; stroke:#000; stroke-linecap:round; stroke-linejoin:round; stroke-width:3px;"/><path d="m114.9581,88.1123l.5655-4.1777c.4993-2.4569,4.0448-1.131,2.8101,1.0505,0,0-2.3136,3.5242-2.3136,3.5242-.3156.517-1.1631.1898-1.062-.397h0Z" style="stroke-width:0px;"/><path d="m116.9951,83.1483c6.7903-2.576,14.8606-1.4495,20.6859,2.8876" style="fill:none; stroke:#000; stroke-linecap:round; stroke-linejoin:round; stroke-width:3px;"/><path d="m140.0451,86.4782c.126,1.3355.0781,2.6509-.1251,3.9071-.0572.3535-.3901.5936-.7435.5365-.2468-.0399-.4383-.2142-.512-.4361-.367-1.1181-.8702-2.1583-1.4749-3.0876-.4679-.7191-.2643-1.6814.4548-2.1493.9682-.6675,2.3713.0665,2.4007,1.2294h0Z" style="stroke-width:0px;"/><path d="m121.6065,87.6519c-1.085,2.1575-1.4697,4.6603-1.0828,7.0441.2281,1.405.7666,2.8364,1.8753,3.7291s2.888,1.0472,3.9008.047c.5778-.5706.8189-1.3929.9963-2.1854.2898-1.2948.4685-2.6161.4989-3.9426.0305-1.333-.0996-2.7076-.7066-3.8947s-1.7684-2.1566-3.0993-2.2364-2.7219.9386-2.7881,2.2702" style="fill:none; stroke:#000; stroke-linecap:round; stroke-linejoin:round; stroke-width:3px;"/><path d="m64.0574,74.8458c4.7444-7.3156,15.5657-8.8975,22.4678-3.346,1.8541,1.4851-.3032,4.2863-2.213,2.8632-5.2352-5.3772-14.6391-4.8664-19.4869,1.0594-.3654.4609-1.1099-.0935-.7678-.5766h0Z" style="stroke-width:0px;"/><path d="m119.7554,73.2614c8.5945-3.5396,19.1658-.0101,23.6864,7.9574.4337.7484-.6456,1.4637-1.1652.7663-4.645-6.4731-13.9461-8.7128-20.8246-4.9637-2.5966,1.2662-4.3716-2.6432-1.6967-3.76h0Z" style="stroke-width:0px;"/><path d="m65.4782,100.2907c-.0395.348.155.6908.425.9138s.6073.3462.9412.4518c1.662.526,3.4283.7201,5.1648.5675" style="fill:none; stroke:#000; stroke-linecap:round; stroke-linejoin:round; stroke-width:3px;"/><path d="m123.5822,102.5243c2.8343.0687,5.6722-.0091,8.4986-.233.6888-.0546,1.4936-.1928,1.8049-.8097" style="fill:none; stroke:#000; stroke-linecap:round; stroke-linejoin:round; stroke-width:3px;"/><path d="m48.3388,63.6669c-3.8254,5.3446-7.0851,11.0692-10.2703,16.8183-3.1304,5.6502-6.2045,11.3536-8.5648,17.3663-2.3603,6.0127-4.0005,12.3679-4.156,18.8255" style="fill:none; stroke:#000; stroke-linecap:round; stroke-linejoin:round; stroke-width:3px;"/><path d="m25.2204,116.7203c7.1886-3.411,14.4718-6.6224,21.8386-9.6293" style="fill:none; stroke:#000; stroke-linecap:round; stroke-linejoin:round; stroke-width:3px;"/><path d="m46.8421,107.6114c-3.1012,3.2049-5.4124,7.1689-6.6737,11.4465,4.293-1.8017,8.586-3.6035,12.8791-5.4052-.7488,7.5028-1.0748,15.0477-.976,22.5871.0541,4.1239.2475,8.3154,1.5877,12.2159" style="fill:none; stroke:#000; stroke-linecap:round; stroke-linejoin:round; stroke-width:3px;"/><path d="m53.7511,148.1577c2.001-4.1865,4.4994-8.135,7.4258-11.7359" style="fill:none; stroke:#000; stroke-linecap:round; stroke-linejoin:round; stroke-width:3px;"/><path d="m61.2804,136.431c.8295,7.9432,4.7231,15.5271,10.6943,20.8305" style="fill:none; stroke:#000; stroke-linecap:round; stroke-linejoin:round; stroke-width:3px;"/><path d="m72.169,157.1942c.5949-3.5923,1.7999-7.0828,3.548-10.2769" style="fill:none; stroke:#000; stroke-linecap:round; stroke-linejoin:round; stroke-width:3px;"/><path d="m138.3381,84.86c4.6081,8.5586,8.3829,17.5655,11.2536,26.8522" style="fill:none; stroke:#000; stroke-linecap:round; stroke-linejoin:round; stroke-width:3px;"/><path d="m149.7547,111.6145c4.9938-9.5109,6.4829-20.8133,4.1229-31.2931" style="fill:none; stroke:#000; stroke-linecap:round; stroke-linejoin:round; stroke-width:3px;"/><path d="m148.0276,109.1443c.2681,8.682-2.0691,17.4279-6.6323,24.8188" style="fill:none; stroke:#000; stroke-linecap:round; stroke-linejoin:round; stroke-width:3px;"/><path d="m141.3562,133.8778c1.9761-.7195,3.5326-2.2603,4.9111-3.8485s2.6722-3.2914,4.3832-4.5142" style="fill:none; stroke:#000; stroke-linecap:round; stroke-linejoin:round; stroke-width:3px;"/><path d="m151.1656,126.2044c.3024,8.0041-1.5745,16.0799-5.3757,23.1303" style="fill:none; stroke:#000; stroke-linecap:round; stroke-linejoin:round; stroke-width:3px;"/><path d="m145.7161,149.1354c8.113-5.2643,14.9682-12.4531,19.8414-20.8069,4.8732-8.3538,7.7568-17.8594,8.3461-27.5128" style="fill:none; stroke:#000; stroke-linecap:round; stroke-linejoin:round; stroke-width:3px;"/><path d="m82.1669,41.0349c-13.2402-7.1358-26.9257-13.4453-40.9504-18.8795" style="fill:none; stroke:#000; stroke-linecap:round; stroke-linejoin:round; stroke-width:3px;"/><path d="m40.514,22.705c-3.201,16.2142,1.6338,33.8167,12.6678,46.121" style="fill:none; stroke:#000; stroke-linecap:round; stroke-linejoin:round; stroke-width:3px;"/><path d="m41.1897,43.372c-.9873-4.9154-.9825-10.0279.0141-14.9414" style="fill:none; stroke:#000; stroke-linecap:round; stroke-linejoin:round; stroke-width:3px;"/><path d="m41.4929,28.1109c9.4819,6.8064,17.6384,15.4521,23.8818,25.3138" style="fill:none; stroke:#000; stroke-linecap:round; stroke-linejoin:round; stroke-width:3px;"/><path d="m41.5592,39.8537c.1315-1.6049.7979-3.1614,1.8686-4.3642s2.5395-2.0451,4.1184-2.3616" style="fill:none; stroke:#000; stroke-linecap:round; stroke-linejoin:round; stroke-width:3px;"/><path d="m91.8172,155.046c1.6413,2.1575,1.8099,5.1078,1.4004,7.7876s-1.3233,5.2712-1.6092,7.9669" style="fill:none; stroke:#000; stroke-linecap:round; stroke-linejoin:round; stroke-width:3px;"/><path d="m91.5403,170.8169c.7041,2.3812,2.7737,4.1035,4.9251,5.3432,6.0891,3.5086,13.4519,4.2464,20.4366,3.4716,1.8973-.2105,3.7999-.5306,5.5743-1.2345,4.0816-1.619,7.1102-5.0967,9.7234-8.6254" style="fill:none; stroke:#000; stroke-linecap:round; stroke-linejoin:round; stroke-width:3px;"/><path d="m132.2878,169.6467c-2.8807-4.3728-3.3861-10.2137-1.2993-15.0163" style="fill:none; stroke:#000; stroke-linecap:round; stroke-linejoin:round; stroke-width:3px;"/><path d="m93.2371,163.5368c-7.6463,3.1938-15.2926,6.3876-22.9388,9.5814" style="fill:none; stroke:#000; stroke-linecap:round; stroke-linejoin:round; stroke-width:3px;"/><path d="m69.8905,172.7188c-2.9795,10.0798-3.4401,20.7756-2.5122,31.2454s3.2135,20.7682,5.6451,30.994" style="fill:none; stroke:#000; stroke-linecap:round; stroke-linejoin:round; stroke-width:3px;"/><path d="m73.1951,235.5585c.1042,4.3375-.2166,8.685-.9563,12.9602" style="fill:none; stroke:#000; stroke-linecap:round; stroke-linejoin:round; stroke-width:3px;"/><path d="m139.3315,248.9628c.3307-3.4727.6613-6.9454.992-10.4181" style="fill:none; stroke:#000; stroke-linecap:round; stroke-linejoin:round; stroke-width:3px;"/><path d="m140.7579,238.4251c3.1373-22.0276,5.42-44.1769,6.8413-66.3814" style="fill:none; stroke:#000; stroke-linecap:round; stroke-linejoin:round; stroke-width:3px;"/><path d="m152.0738,173.4851c-5.4415-3.9816-12.073-6.3147-18.8088-6.6171" style="fill:none; stroke:#000; stroke-linecap:round; stroke-linejoin:round; stroke-width:3px;"/><path d="m129.5023,156.4617c-5.0747,4.1769-10.8962,7.4436-17.1054,9.5986" style="fill:none; stroke:#000; stroke-linecap:round; stroke-linejoin:round; stroke-width:3px;"/><path d="m112.4279,166.2163c2.1714,4.0624,5.1645,7.6834,8.7458,10.5804" style="fill:none; stroke:#000; stroke-linecap:round; stroke-linejoin:round; stroke-width:3px;"/><path d="m120.1404,176.039c-1.6237-1.1422-4.027.0303-4.9363,1.795s-.7907,3.855-.7845,5.8402c.0221,7.1065-1.6747,14.093-3.3611,20.9965" style="fill:none; stroke:#000; stroke-linecap:round; stroke-linejoin:round; stroke-width:3px;"/><path d="m111.3592,204.8386c4.2998-2.7935,7.4961-6.9665,10.4285-11.1727,3.4093-4.8904,6.5849-9.9426,9.5446-15.1175,1.9435-3.398,3.8064-6.8783,4.9452-10.6235s1.5224-7.8035.4838-11.5777c-.1082-.3931-.2446-.803-.5514-1.0715-.7743-.6774-1.9598-.0481-2.7744.5803" style="fill:none; stroke:#000; stroke-linecap:round; stroke-linejoin:round; stroke-width:3px;"/><path d="m93.5055,155.9687l-10.8118,4.0314" style="fill:none; stroke:#000; stroke-linecap:round; stroke-linejoin:round; stroke-width:3px;"/><path d="m82.4686,160.0011c1.6422,5.1947,4.4717,10.0102,8.2102,13.9731" style="fill:none; stroke:#000; stroke-linecap:round; stroke-linejoin:round; stroke-width:3px;"/><path d="m90.9596,174.1932c-1.6631.66-3.3664,1.2187-5.0972,1.6721" style="fill:none; stroke:#000; stroke-linecap:round; stroke-linejoin:round; stroke-width:3px;"/><path d="m85.9301,172.0714c3.6307,11.9444,13.2756,21.1153,18.3098,32.5393" style="fill:none; stroke:#000; stroke-linecap:round; stroke-linejoin:round; stroke-width:3px;"/><path d="m104.5384,204.6417c-1.6282-10.7683-6.614-21.131-5.9419-32.001" style="fill:none; stroke:#000; stroke-linecap:round; stroke-linejoin:round; stroke-width:3px;"/><path d="m73.5297,250.7943c-.0478,6.2352-.0957,12.4705-.1435,18.7057" style="fill:none; stroke:#000; stroke-linecap:round; stroke-linejoin:round; stroke-width:3px;"/><path d="m133.7304,271.9918c-.7175-6.4691-.12-13.0813,1.7454-19.317" style="fill:none; stroke:#000; stroke-linecap:round; stroke-linejoin:round; stroke-width:3px;"/><path d="m69.588,171.3529c-5.882,6.2711-9.1942,14.4989-11.7624,22.7044-3.5902,11.4708-5.9755,23.2778-8.3543,35.0596-2.0653,10.2288-4.1306,20.4577-6.1959,30.6865" style="fill:none; stroke:#000; stroke-linecap:round; stroke-linejoin:round; stroke-width:3px;"/><path d="m42.7802,259.6937c-1.0957,3.3038-2.2077,6.643-4.0488,9.597-1.7919,2.875-4.2165,5.292-6.6186,7.6809" style="fill:none; stroke:#000; stroke-linecap:round; stroke-linejoin:round; stroke-width:3px;"/><path d="m32.1851,277.6204c8.947,3.1222,17.3293,7.8551,24.6241,13.9035" style="fill:none; stroke:#000; stroke-linecap:round; stroke-linejoin:round; stroke-width:3px;"/><path d="m57.2642,291.8755c.939-2.9299,1.639-5.9298,2.3802-8.9158,3.8934-15.6837,8.9551-31.0773,15.1295-46.0109" style="fill:none; stroke:#000; stroke-linecap:round; stroke-linejoin:round; stroke-width:3px;"/><path d="m31.5396,277.8313c-7.2144,4.3643-12.2698,12.127-13.344,20.4901" style="fill:none; stroke:#000; stroke-linecap:round; stroke-linejoin:round; stroke-width:3px;"/><path d="m19.2581,297.3209c1.8993-1.3837,4.4941-1.7554,6.7055-.9606" style="fill:none; stroke:#000; stroke-linecap:round; stroke-linejoin:round; stroke-width:3px;"/><path d="m25.9181,296.2081c5.9806-3.0412,10.978-7.9802,14.0893-13.9246" style="fill:none; stroke:#000; stroke-linecap:round; stroke-linejoin:round; stroke-width:3px;"/><path d="m34.9184,296.1142c.322-1.4614,1.4747-2.7095,2.9059-3.1466s3.0845-.0456,4.1679.9867" style="fill:none; stroke:#000; stroke-linecap:round; stroke-linejoin:round; stroke-width:3px;"/><path d="m42.2658,294.0812c-.3699,2.0012.5731,4.0034,1.6613,5.7231s2.3762,3.3891,2.8203,5.3751" style="fill:none; stroke:#000; stroke-linecap:round; stroke-linejoin:round; stroke-width:3px;"/><path d="m46.2295,304.3256c.4477.5782,1.3738.4434,2.001.0674,1.2296-.7373,1.9581-2.1218,2.2297-3.5296s.1445-2.8581.0165-4.2861" style="fill:none; stroke:#000; stroke-linecap:round; stroke-linejoin:round; stroke-width:3px;"/><path d="m50.5083,296.5503c.3094-2.0683,1.2964-4.0296,2.773-5.5105" style="fill:none; stroke:#000; stroke-linecap:round; stroke-linejoin:round; stroke-width:3px;"/><path d="m17.7711,299.2987c-2.5057,6.1617-3.9897,12.7376-4.3731,19.3783" style="fill:none; stroke:#000; stroke-linecap:round; stroke-linejoin:round; stroke-width:3px;"/><path d="m13.3009,318.8145c1.1572.735,2.63.9528,3.9504.5841s2.4673-1.318,3.0763-2.5462" style="fill:none; stroke:#000; stroke-linecap:round; stroke-linejoin:round; stroke-width:3px;"/><path d="m20.9361,316.8487c1.2565.1561,2.6175.2924,3.7113-.3455.6145-.3584,1.0901-.9365,1.7386-1.2291.7649-.3452,1.6612-.2455,2.4563-.5137.9137-.3082,1.5941-1.0618,2.231-1.7857" style="fill:none; stroke:#000; stroke-linecap:round; stroke-linejoin:round; stroke-width:3px;"/><path d="m31.3662,312.7943c1.6144-2.3291,1.7313-5.343,1.8446-8.1746s.3552-5.8677,2.1385-8.0701" style="fill:none; stroke:#000; stroke-linecap:round; stroke-linejoin:round; stroke-width:3px;"/><path d="m18.5689,318.3235c.8891,1.4558,2.7317,2.0726,4.4374,2.0576.4825-.0042.9761-.0527,1.4128-.2579.6162-.2896,1.0588-.8678,1.3243-1.4947s.374-1.3072.4804-1.9796" style="fill:none; stroke:#000; stroke-linecap:round; stroke-linejoin:round; stroke-width:3px;"/><path d="m72.3403,266.4407c-6.7378,18.7339-9.6332,38.6756-10.481,58.5663-.8478,19.8906.3123,39.806,1.472,59.6809" style="fill:none; stroke:#000; stroke-linecap:round; stroke-linejoin:round; stroke-width:3px;"/><path d="m62.4397,384.7691c2.6868,4.0595,6.9626,6.8608,11.5041,8.6138s9.3855,2.5509,14.1895,3.3382" style="fill:none; stroke:#000; stroke-linecap:round; stroke-linejoin:round; stroke-width:3px;"/><path d="m102.2121,309.1471h3.5294" style="fill:none; stroke:#000; stroke-linecap:round; stroke-linejoin:round; stroke-width:3px;"/><path d="m105.139,309.1975l18.8928,93.4916" style="fill:none; stroke:#000; stroke-linecap:round; stroke-linejoin:round; stroke-width:3px;"/><path d="m124.7965,403.1288c11.1978.4353,22.3131-6.6334,26.6676-16.9591" style="fill:none; stroke:#000; stroke-linecap:round; stroke-linejoin:round; stroke-width:3px;"/><path d="m151.1942,386.0872c3.3099-19.3242-4.0251-38.7687-5.1531-58.3418-.5734-9.9498.4653-19.9292.1441-29.8903-.3212-9.9611-2.1485-20.2293-7.8047-28.435" style="fill:none; stroke:#000; stroke-linecap:round; stroke-linejoin:round; stroke-width:3px;"/><path d="m90.378,395.3333c10.7063-25.8975,14.739-54.5217,11.6045-82.3692" style="fill:none; stroke:#000; stroke-linecap:round; stroke-linejoin:round; stroke-width:3px;"/><path d="m61.979,381.2491c-1.839-.054-3.6904.4117-5.285,1.3294" style="fill:none; stroke:#000; stroke-linecap:round; stroke-linejoin:round; stroke-width:3px;"/><path d="m56.6827,382.5588v10.7647" style="fill:none; stroke:#000; stroke-linecap:round; stroke-linejoin:round; stroke-width:3px;"/><path d="m56.2965,393.417c3.032,6.0688,8.7216,10.5808,15.0777,12.9522s13.3353,2.7296,20.0665,1.8837" style="fill:none; stroke:#000; stroke-linecap:round; stroke-linejoin:round; stroke-width:3px;"/><path d="m91.3523,407.7986l.6566-11.8263" style="fill:none; stroke:#000; stroke-linecap:round; stroke-linejoin:round; stroke-width:3px;"/><path d="m123.4084,398.1371l-3.0055,1.2218" style="fill:none; stroke:#000; stroke-linecap:round; stroke-linejoin:round; stroke-width:3px;"/><path d="m119.923,399.6756l-.0924,11.6477" style="fill:none; stroke:#000; stroke-linecap:round; stroke-linejoin:round; stroke-width:3px;"/><path d="m120.5661,411.8808c10.9893-.0566,21.9347-3.5988,30.8735-9.9914" style="fill:none; stroke:#000; stroke-linecap:round; stroke-linejoin:round; stroke-width:3px;"/><path d="m151.7852,402.1856c1.093-4.5747,1.1046-9.4041.0336-13.984" style="fill:none; stroke:#000; stroke-linecap:round; stroke-linejoin:round; stroke-width:3px;"/><path d="m73.6316,262.7305c20.4466,5.7095,42.1333,6.9325,63.0922,3.5581,1.0873-.1751,2.2871-.3414,3.2181.247.9326.5894,1.2987,1.753,1.5339,2.8308.7234,3.3154.8639,6.7571.4131,10.1205" style="fill:none; stroke:#000; stroke-linecap:round; stroke-linejoin:round; stroke-width:3px;"/><path d="m72.5982,263.0417c-1.4844,4.0073-2.4577,8.2035-2.8891,12.455" style="fill:none; stroke:#000; stroke-linecap:round; stroke-linejoin:round; stroke-width:3px;"/><path d="m122.0283,411.4038c-1.683,2.9819-1.7414,6.819-.1498,9.8507" style="fill:none; stroke:#000; stroke-linecap:round; stroke-linejoin:round; stroke-width:3px;"/><path d="m121.8695,421.2663c-.388,2.5062-.487,5.0571-.2945,7.5859" style="fill:none; stroke:#000; stroke-linecap:round; stroke-linejoin:round; stroke-width:3px;"/><path d="m123.1273,428.8455c11.4143,1.6672,23.0798,1.604,34.4753-.1867" style="fill:none; stroke:#000; stroke-linecap:round; stroke-linejoin:round; stroke-width:3px;"/><path d="m157.4968,428.6805c2.2663-1.668,2.8714-4.9186,2.192-7.6493s-2.3914-5.0705-4.0656-7.3322" style="fill:none; stroke:#000; stroke-linecap:round; stroke-linejoin:round; stroke-width:3px;"/><path d="m155.8089,413.6382c-1.2983-3.1747-2.5967-6.3495-3.895-9.5242" style="fill:none; stroke:#000; stroke-linecap:round; stroke-linejoin:round; stroke-width:3px;"/><path d="m132.8266,410.8272c-.9005.2966-1.815.6-2.5951,1.1389s-1.4212,1.3558-1.5227,2.2984c-.1284,1.1922.6028,2.3084.7248,3.5013" style="fill:none; stroke:#000; stroke-linecap:round; stroke-linejoin:round; stroke-width:3px;"/><path d="m129.4339,417.7759l2.3875-.2685c-.0677.7497-.1348,1.5123.017,2.2495s.5574,1.4589,1.2224,1.8118c.1671.0887.3473.1525.533.1882.7712.1482,1.5711-.1921,2.3452-.0601.993.1693,1.6874,1.054,2.2295,1.903,1.0832,1.6962,1.9675,3.5193,2.6289,5.4201" style="fill:none; stroke:#000; stroke-linecap:round; stroke-linejoin:round; stroke-width:3px;"/><path d="m123.0365,425.1992c11.7568,1.5083,23.7653,1.0362,35.3675-1.3904" style="fill:none; stroke:#000; stroke-linecap:round; stroke-linejoin:round; stroke-width:3px;"/><path d="m131.8781,412.7358c-.0068,1.2762.1875,2.5533.5735,3.7697.1308.4121.3271.8632.7324,1.014.2451.0912.5171.0505.7749.0072,2.5032-.4208,4.9822-.9855,7.4207-1.6904-.3127-.9472-.6352-1.9137-1.2374-2.7089-.7189-.9494-1.8247-1.5965-3.0045-1.7583s-2.419.1637-3.367.8844" style="fill:none; stroke:#000; stroke-linecap:round; stroke-linejoin:round; stroke-width:3px;"/><path d="m135.9069,417.9711c.5948.7146,1.0835,1.5173,1.4454,2.3738.1197.2833.2466.5966.5196.7382.1966.1019.4302.0921.6511.0765,1.8257-.1283,3.636-.4754,5.3798-1.0314-.1034-.9489-.2153-1.9259-.6747-2.7626s-1.3589-1.5069-2.3073-1.3999" style="fill:none; stroke:#000; stroke-linecap:round; stroke-linejoin:round; stroke-width:3px;"/><path d="m139.0402,410.8132c7.1973-3.4498,15.865-3.6837,23.2378-.6269" style="fill:none; stroke:#000; stroke-linecap:round; stroke-linejoin:round; stroke-width:3px;"/><path d="m162.3572,410.2146c-3.1556,1.4539-6.6426,1.9816-10.0521,2.65s-6.881,1.5324-9.7216,3.533" style="fill:none; stroke:#000; stroke-linecap:round; stroke-linejoin:round; stroke-width:3px;"/><path d="m147.2058,414.3474c5.2915-1.6363,11.2618-.93,16.0254,1.896" style="fill:none; stroke:#000; stroke-linecap:round; stroke-linejoin:round; stroke-width:3px;"/><path d="m163.2692,416.2396c-6.1725-.1714-12.3814,1.1594-17.9415,3.8454" style="fill:none; stroke:#000; stroke-linecap:round; stroke-linejoin:round; stroke-width:3px;"/><path d="m59.2546,399.7414c-7.2571,4.8901-15.1439,8.8446-23.4038,11.7348" style="fill:none; stroke:#000; stroke-linecap:round; stroke-linejoin:round; stroke-width:3px;"/><path d="m35.6879,411.5106c-4.8791,2.4218-7.8561,8.1882-7.005,13.5683" style="fill:none; stroke:#000; stroke-linecap:round; stroke-linejoin:round; stroke-width:3px;"/><path d="m29.2077,425.841c.0389,1.2418,1.0209,2.2958,2.1574,2.7978s2.4118.561,3.6532.6124c9.5677.3963,19.2114.7885,28.6681-.718" style="fill:none; stroke:#000; stroke-linecap:round; stroke-linejoin:round; stroke-width:3px;"/><path d="m64.7994,428.6166c3.3922-3.2032,8.0417-5.0378,12.7072-5.0141" style="fill:none; stroke:#000; stroke-linecap:round; stroke-linejoin:round; stroke-width:3px;"/><path d="m72.9402,425.069c1.2528,1.2723,2.439,2.6103,3.552,4.0065" style="fill:none; stroke:#000; stroke-linecap:round; stroke-linejoin:round; stroke-width:3px;"/><path d="m78.3876,429.7863l11.4713.096" style="fill:none; stroke:#000; stroke-linecap:round; stroke-linejoin:round; stroke-width:3px;"/><path d="m91.5182,429.9386c2.3102-6.669,2.507-14.0528.5553-20.8354" style="fill:none; stroke:#000; stroke-linecap:round; stroke-linejoin:round; stroke-width:3px;"/><path d="m67.8406,406.6203c-5.3062,3.4762-10.8197,6.6359-16.5014,9.4568" style="fill:none; stroke:#000; stroke-linecap:round; stroke-linejoin:round; stroke-width:3px;"/><path d="m51.3694,416.1226c-3.5284,1.0345-6.8785,2.6741-9.8601,4.8258-1.8022,1.3006-3.5599,2.9296-4.0807,5.0901" style="fill:none; stroke:#000; stroke-linecap:round; stroke-linejoin:round; stroke-width:3px;"/><path d="m30.2189,423.7126c1.6569,1.0368,3.5934,1.5255,5.5125,1.8968,12.2404,2.3682,24.8681.5336,37.1552-1.5793" style="fill:none; stroke:#000; stroke-linecap:round; stroke-linejoin:round; stroke-width:3px;"/><path d="m39.2313,411.4356c1.1968-.3644,2.5204-.0033,3.5739.6715s1.8872,1.635,2.7053,2.5815c2.4191,2.7988,4.8382,5.5976,7.2572,8.3964" style="fill:none; stroke:#000; stroke-linecap:round; stroke-linejoin:round; stroke-width:3px;"/><path d="m52.91,422.8326c1.0328-1.8936,2.1-3.9824,1.7081-6.1034-.3869-2.0942-2.124-3.6818-3.9649-4.7526s-3.8854-1.798-5.5977-3.0643" style="fill:none; stroke:#000; stroke-linecap:round; stroke-linejoin:round; stroke-width:3px;"/><path d="m48.1337,407.9194c3.0153.4203,5.3763,2.7992,7.1083,5.3029s3.1201,5.3045,5.3718,7.3534" style="fill:none; stroke:#000; stroke-linecap:round; stroke-linejoin:round; stroke-width:3px;"/><path d="m60.5999,420.4679c1.8325-3.0465,1.9107-7.0701.198-10.1855s-5.152-5.2052-8.7061-5.2903" style="fill:none; stroke:#000; stroke-linecap:round; stroke-linejoin:round; stroke-width:3px;"/><path d="m63.1392,367.0963c5.3571,2.4423,10.7481,4.8968,16.4485,6.3693,5.7004,1.4725,11.7848,1.9251,17.4557.3427" style="fill:none; stroke:#000; stroke-linecap:round; stroke-linejoin:round; stroke-width:3px;"/><path d="m62.129,353.3307c12.5697,4.6312,26.3535,5.9208,39.5641,3.7015" style="fill:none; stroke:#000; stroke-linecap:round; stroke-linejoin:round; stroke-width:3px;"/><path d="m118.1178,364.0152c10.9431-1.5766,21.5554-5.4133,30.9768-11.199" style="fill:none; stroke:#000; stroke-linecap:round; stroke-linejoin:round; stroke-width:3px;"/><path d="m152.3977,366.9457c-8.3668,7.5968-19.315,12.2973-30.5852,13.1315" style="fill:none; stroke:#000; stroke-linecap:round; stroke-linejoin:round; stroke-width:3px;"/><path d="m64.0429,377.6923c8.2533,5.6984,18.455,8.5171,28.4632,7.8642" style="fill:none; stroke:#000; stroke-linecap:round; stroke-linejoin:round; stroke-width:3px;"/><path d="m121.8239,390.4722c10.1477-1.6099,19.8629-5.8719,27.9196-12.2483" style="fill:none; stroke:#000; stroke-linecap:round; stroke-linejoin:round; stroke-width:3px;"/><path d="m154.2392,175.1698c5.2681,8.7289,5.0026,19.5726,4.8578,29.767-.2675,18.8294.428,37.6724,2.0829,56.4308" style="fill:none; stroke:#000; stroke-linecap:round; stroke-linejoin:round; stroke-width:3px;"/><path d="m161.3327,261.3496c1.3393,8.9129.1039,18.1976-3.5194,26.4502" style="fill:none; stroke:#000; stroke-linecap:round; stroke-linejoin:round; stroke-width:3px;"/><path d="m156.8656,287.4966c-6.2172,2.693-13.8642,1.7374-19.2275-2.4027" style="fill:none; stroke:#000; stroke-linecap:round; stroke-linejoin:round; stroke-width:3px;"/><path d="m136.7935,284.351c-3.2407-3.9825-5.5171-8.7443-6.5815-13.7672" style="fill:none; stroke:#000; stroke-linecap:round; stroke-linejoin:round; stroke-width:3px;"/><path d="m130.2228,270.511c2.0864-4.3984,3.5144-9.1051,4.2664-13.9149,1.6439-10.5142.1145-21.6238,3.9049-31.5678" style="fill:none; stroke:#000; stroke-linecap:round; stroke-linejoin:round; stroke-width:3px;"/><path d="m137.7251,224.0666c-1.0713-10.8149-.6789-21.7738,1.163-32.4844" style="fill:none; stroke:#000; stroke-linecap:round; stroke-linejoin:round; stroke-width:3px;"/><path d="m135.3492,281.8698c-1.1845,5.4969-2.369,10.9938-3.5535,16.4907" style="fill:none; stroke:#000; stroke-linecap:round; stroke-linejoin:round; stroke-width:3px;"/><path d="m131.4122,298.9514c1.6465,3.9091,5.3553,6.8782,9.53,7.629s8.6857-.7398,11.5911-3.8302" style="fill:none; stroke:#000; stroke-linecap:round; stroke-linejoin:round; stroke-width:3px;"/><path d="m153.2716,302.105c.3166-4.45.9971-8.874,2.0326-13.2134" style="fill:none; stroke:#000; stroke-linecap:round; stroke-linejoin:round; stroke-width:3px;"/><path d="m130.4416,274.2086c-2.1487,3.4083-3.1913,7.502-2.9345,11.5229" style="fill:none; stroke:#000; stroke-linecap:round; stroke-linejoin:round; stroke-width:3px;"/><path d="m126.9184,285.5962c-2.1941,2.0377-3.4309,4.9586-3.8499,7.9235-.419,2.9649-.0775,5.9886.5038,8.926" style="fill:none; stroke:#000; stroke-linecap:round; stroke-linejoin:round; stroke-width:3px;"/><path d="m123.8802,302.4352c.7905.293,1.7082-.0754,2.2816-.6934s.8682-1.4397,1.1061-2.2484" style="fill:none; stroke:#000; stroke-linecap:round; stroke-linejoin:round; stroke-width:3px;"/><path d="m127.4439,298.8271c.5561-.2549,1.2375.1194,1.5351.654s.3112,1.1755.3176,1.7872" style="fill:none; stroke:#000; stroke-linecap:round; stroke-linejoin:round; stroke-width:3px;"/><path d="m129.5722,301.7181c-1.0779,3.2413-2.6138,6.3299-4.548,9.1454" style="fill:none; stroke:#000; stroke-linecap:round; stroke-linejoin:round; stroke-width:3px;"/><path d="m124.69,310.8545c-.183.9907.0145,2.0431.5249,2.9117.5503.9365,1.4956,1.6687,2.5715,1.818s2.252-.3564,2.7647-1.314" style="fill:none; stroke:#000; stroke-linecap:round; stroke-linejoin:round; stroke-width:3px;"/><path d="m130.5153,314.373c1.7634-2.0904,3.2528-4.4116,4.4184-6.8855" style="fill:none; stroke:#000; stroke-linecap:round; stroke-linejoin:round; stroke-width:3px;"/><path d="m135.1763,307.5738c.4078-.1669.8927.0757,1.1375.4421s.3037.8231.3384,1.2624c.2763,3.5068-.6128,7.0956-2.4943,10.0678" style="fill:none; stroke:#000; stroke-linecap:round; stroke-linejoin:round; stroke-width:3px;"/><path d="m134.2707,319.4325c.4478,1.1042,1.48,1.9513,2.6504,2.175s2.4422-.1829,3.2657-1.0442" style="fill:none; stroke:#000; stroke-linecap:round; stroke-linejoin:round; stroke-width:3px;"/><path d="m140.2183,320.6034c1.3496-1.5239,2.0795-3.4902,2.6651-5.4398s1.0647-3.9536,2.0228-5.7497" style="fill:none; stroke:#000; stroke-linecap:round; stroke-linejoin:round; stroke-width:3px;"/><path d="m140.9659,321.4311c.4387.3271.9032.6194,1.3878.8735" style="fill:none; stroke:#000; stroke-linecap:round; stroke-linejoin:round; stroke-width:3px;"/><path d="m142.89,322.6323c3.0363-1.1766,5.9156-2.7575,8.5382-4.6878" style="fill:none; stroke:#000; stroke-linecap:round; stroke-linejoin:round; stroke-width:3px;"/><path d="m151.5301,317.9773c.2656-3.274-.756-6.6353-2.7985-9.2078" style="fill:none; stroke:#000; stroke-linecap:round; stroke-linejoin:round; stroke-width:3px;"/><path d="m153.0114,304.2373c1.0342,3.7026,1.693,7.51,1.9631,11.3449" style="fill:none; stroke:#000; stroke-linecap:round; stroke-linejoin:round; stroke-width:3px;"/><path d="m154.9516,315.6052c-.556,2.0595-2.0056,3.8609-3.8984,4.8447" style="fill:none; stroke:#000; stroke-linecap:round; stroke-linejoin:round; stroke-width:3px;"/><path d="m134.7932,267.6864c6.3628,9.9614,17.6431,16.2018,29.3324,17.955,5.6642.8495,11.6434.6953,16.8653-1.6575,6.3838-2.8763,11.0888-8.9401,12.9109-15.7007,1.8221-6.7606.901-14.1101-1.9387-20.5102s-7.5117-11.8854-12.9751-16.2646" style="fill:none; stroke:#000; stroke-linecap:round; stroke-linejoin:round; stroke-width:3px;"/><path d="m198.5247,230.9437c-4.9082-7.547-14.0212-12.1509-23.0084-11.624" style="fill:none; stroke:#000; stroke-linecap:round; stroke-linejoin:round; stroke-width:3px;"/><path d="m175.4953,219.1714c2.344,1.0498,4.4552,2.6155,6.1403,4.5537" style="fill:none; stroke:#000; stroke-linecap:round; stroke-linejoin:round; stroke-width:3px;"/><path d="m181.6275,224.0005c-2.5339-.2073-5.0886-.4143-7.6124-.1083s-5.0466,1.1656-6.9453,2.8563" style="fill:none; stroke:#000; stroke-linecap:round; stroke-linejoin:round; stroke-width:3px;"/><path d="m167.2501,227.1233c4.5203,1.0015,8.7973,3.0835,12.3741,6.0233" style="fill:none; stroke:#000; stroke-linecap:round; stroke-linejoin:round; stroke-width:3px;"/><path d="m176.0546,230.5574l-5.2052,1.7696c6.5756,1.5903,12.512,5.6879,16.3305,11.2724" style="fill:none; stroke:#000; stroke-linecap:round; stroke-linejoin:round; stroke-width:3px;"/><path d="m199.9524,231.2003c5.0058,7.2524,8.1407,15.7849,9.0209,24.553" style="fill:none; stroke:#000; stroke-linecap:round; stroke-linejoin:round; stroke-width:3px;"/><path d="m209.1765,255.7359c.1522,6.0265.0751,12.0967-1.0459,18.0199s-3.3351,11.7293-7.0983,16.4389c-3.6847,4.6113-8.7492,8.0217-14.244,10.1778s-11.4139,3.0976-17.314,3.2675c-11.4736.3303-23.0196-2.2575-33.2546-7.4534" style="fill:none; stroke:#000; stroke-linecap:round; stroke-linejoin:round; stroke-width:3px;"/><path d="m207.6983,249.0403c-1.7554,4.0978-2.7237,8.5311-2.8368,12.9876" style="fill:none; stroke:#000; stroke-linecap:round; stroke-linejoin:round; stroke-width:3px;"/><path d="m204.8529,262.0485c-1.2704-4.3298-3.4564-8.3886-6.3726-11.8321" style="fill:none; stroke:#000; stroke-linecap:round; stroke-linejoin:round; stroke-width:3px;"/><path d="m198.3116,250.2791c-.5324,2.7297-.6701,5.5361-.4076,8.3049" style="fill:none; stroke:#000; stroke-linecap:round; stroke-linejoin:round; stroke-width:3px;"/><path d="m197.8409,258.65c-.6746-.0288-1.0964-.7209-1.3907-1.3286-.6902-1.4252-1.3626-2.859-2.017-4.301" style="fill:none; stroke:#000; stroke-linecap:round; stroke-linejoin:round; stroke-width:3px;"/><path d="m103.4102,306.6348c-3.6399-12.152-3.9354-25.2876-.8457-37.591" style="fill:none; stroke:#000; stroke-linecap:round; stroke-linejoin:round; stroke-width:3px;"/><path d="m72.4563,248.3208c-.5131,1.5503-.9889,3.384-.0311,4.7066.5798.8006,1.5547,1.1987,2.4892,1.5209,7.2739,2.5079,15.3167,2.7325,22.7192.6343" style="fill:none; stroke:#000; stroke-linecap:round; stroke-linejoin:round; stroke-width:3px;"/><path d="m97.7386,255.205l2.2399-4.4391" style="fill:none; stroke:#000; stroke-linecap:round; stroke-linejoin:round; stroke-width:3px;"/><path d="m99.9899,250.7057l2.2563,5.4861" style="fill:none; stroke:#000; stroke-linecap:round; stroke-linejoin:round; stroke-width:3px;"/><path d="m102.1825,256.2981c10.6531,3.4139,22.3879,3.3578,33.0078-.1578" style="fill:none; stroke:#000; stroke-linecap:round; stroke-linejoin:round; stroke-width:3px;"/><path d="m135.7327,256.0268c1.3211-4.5189,1.981-9.2306,1.9521-13.9386" style="fill:none; stroke:#000; stroke-linecap:round; stroke-linejoin:round; stroke-width:3px;"/><path d="m112.0307,203.761c-1.5882-.3197-3.2334.5251-4.2916,1.7519s-1.6377,2.7853-2.1617,4.3183c-4.1754,12.2168-6.1477,25.183-5.7938,38.0888" style="fill:none; stroke:#000; stroke-linecap:round; stroke-linejoin:round; stroke-width:3px;"/><path d="m57.8232,185.2643c-2.7386,3.562-4.7634,7.6705-5.9201,12.0121" style="fill:none; stroke:#000; stroke-linecap:round; stroke-linejoin:round; stroke-width:3px;"/><path d="m51.3833,198.4688c5.032.9595,10.2803.7663,15.2281-.5605" style="fill:none; stroke:#000; stroke-linecap:round; stroke-linejoin:round; stroke-width:3px;"/><path d="m67.1541,196.6764c.2299-2.8345.1901-5.6908-.1187-8.5178-.1012-.9265-.2589-1.9116-.8864-2.6006-.7068-.776-1.8387-.9866-2.8877-1.0227-1.8905-.065-3.7946.2967-5.5295,1.0506" style="fill:none; stroke:#000; stroke-linecap:round; stroke-linejoin:round; stroke-width:3px;"/><path d="m50.042,203.8287c-1.3857,2.9975-1.8925,6.395-1.4418,9.6664" style="fill:none; stroke:#000; stroke-linecap:round; stroke-linejoin:round; stroke-width:3px;"/><path d="m50.378,203.9997c.911-.7456,2.0861-1.0819,3.2423-1.3037,4.2593-.8171,8.7652-.2974,12.7266,1.4681" style="fill:none; stroke:#000; stroke-linecap:round; stroke-linejoin:round; stroke-width:3px;"/><path d="m49.0358,213.8521c6.0096,1.5784,12.4845,1.3375,18.3603-.6832" style="fill:none; stroke:#000; stroke-linecap:round; stroke-linejoin:round; stroke-width:3px;"/><path d="m135.7965,195.37c-.4814,2.4481-.1696,5.0458.8776,7.3104" style="fill:none; stroke:#000; stroke-linecap:round; stroke-linejoin:round; stroke-width:3px;"/><path d="m136.2096,194.3197c3.8015-2.5235,8.3758-3.8651,12.9381-3.7945s9.0929,1.5531,12.8145,4.1931" style="fill:none; stroke:#000; stroke-linecap:round; stroke-linejoin:round; stroke-width:3px;"/><path d="m161.777,195.0324c-.2297,2.7402-1.0154,5.4326-2.2957,7.8663" style="fill:none; stroke:#000; stroke-linecap:round; stroke-linejoin:round; stroke-width:3px;"/><path d="m159.4378,203.1621c-7.3012-1.9935-15.2173-1.6678-22.33.9188" style="fill:none; stroke:#000; stroke-linecap:round; stroke-linejoin:round; stroke-width:3px;"/><path d="m135.2672,210.2057c-.1216,3.012.5724,6.053,1.9885,8.7142" style="fill:none; stroke:#000; stroke-linecap:round; stroke-linejoin:round; stroke-width:3px;"/><path d="m135.116,209.9834c8.4975-3.0161,18.1704-2.5626,26.3485,1.2354" style="fill:none; stroke:#000; stroke-linecap:round; stroke-linejoin:round; stroke-width:3px;"/><path d="m161.4878,211.5019c.2388,2.2585-.0293,4.5692-.7791,6.7131" style="fill:none; stroke:#000; stroke-linecap:round; stroke-linejoin:round; stroke-width:3px;"/><path d="m160.6407,218.4703c-9.223-2.6398-19.5251-1.2475-27.7164,3.7459" style="fill:none; stroke:#000; stroke-linecap:round; stroke-linejoin:round; stroke-width:3px;"/><path d="m92.3803,232.1031c-.5935,1.5417-.8217,3.2226-.6607,4.8667" style="fill:none; stroke:#000; stroke-linecap:round; stroke-linejoin:round; stroke-width:3px;"/><path d="m92.0511,237.1113c3.3006.9717,6.6976,1.6156,10.1248,1.9191,2.065.1828,4.4206.1348,5.8381-1.3779" style="fill:none; stroke:#000; stroke-linecap:round; stroke-linejoin:round; stroke-width:3px;"/><path d="m108.5496,237.6692c-.1428-1.4296.019-2.8888.4714-4.2524" style="fill:none; stroke:#000; stroke-linecap:round; stroke-linejoin:round; stroke-width:3px;"/><path d="m109.1168,233.0847c-5.9744-.7432-12.0161-.9442-18.0266-.6" style="fill:none; stroke:#000; stroke-linecap:round; stroke-linejoin:round; stroke-width:3px;"/></svg>