<?xml version="1.0" encoding="UTF-8"?><svg id="a" xmlns="http://www.w3.org/2000/svg" viewBox="0 0 223.0952 429.85"><path d="M196.4452,257.32c-.69-1.42-1.36-2.86-2.01-4.3l-.59.16c-.48-1.85-1.11-3.67-1.88-5.41-2.63-5.93-6.83-11.06-11.78-15.27l-.56.65c-1.15-.95-2.37-1.8-3.65-2.56-2.7-1.61-5.66-2.79-8.73-3.47l-.18-.37c1.9-1.69,4.43-2.55,6.95-2.86,2.28-.27,4.6-.13,6.89.05l.08-.92c-1.49-1.54-3.26-2.81-5.2-3.71,8.9-.43,17.88,4.17,22.74,11.63l1.43.26c3.71,5.37,6.39,11.45,7.88,17.81l-.14.03c-1.75,4.1-2.72,8.53-2.83,12.99h-.01c-1.28-4.32-3.46-8.38-6.37-11.81l-.17.06c-.54,2.73-.67,5.54-.41,8.3l-.3.03c-.54-.16-.9-.76-1.16-1.29Z" style="fill:#f1e1a6; stroke-width:0px;"/><path d="M193.9052,268.28c1.32-4.92,1.2-10.15-.06-15.1l.59-.16c.65,1.44,1.32,2.88,2.01,4.3.26.53.62,1.13,1.16,1.29l.3-.03c-.26-2.76-.13-5.57.41-8.3l.17-.06c2.91,3.43,5.09,7.49,6.37,11.81h.01c.11-4.46,1.08-8.89,2.83-12.99l.14-.03c.53,2.22.91,4.47,1.14,6.74h.2c.15,6.02.08,12.08-1.04,18.01-1.13,5.92-3.34,11.73-7.1,16.43-3.69,4.62-8.75,8.03-14.25,10.18-5.49,2.16-11.41,3.1-17.31,3.27-5.44.16-10.89-.34-16.21-1.46v-.01l.01-.06c.31-4.45.99-8.88,2.03-13.22l-2.09-.26c1.25-.25,2.48-.63,3.65-1.13l.95.3c.46-1.05.89-2.12,1.27-3.21,1.66.45,3.35.8,5.04,1.05,5.66.85,11.64.7,16.87-1.66,6.38-2.87,11.08-8.94,12.91-15.7Z" style="fill:#e5c073; stroke-width:0px;"/><path d="M162.2952,410.23c-2.22,1.03-4.61,1.59-7.01,2.06-.47-1.28-.93-2.7-1.4-4.13,2.88.25,5.72.92,8.39,2.03l.02.04Z" style="fill:#25292d; stroke-width:0px;"/><path d="M143.3852,218.22c5.04-1.92,9.56-1.77,15.68-.18.13,14.46.84,28.91,2.11,43.32l.16-.01c1.17,7.77.37,15.83-2.25,23.24-.38,1.09-.81,2.16-1.27,3.21l-.95-.3c-1.17.5-2.4.88-3.65,1.13-2.57.52-5.25.5-7.83-.03-2.81-.58-5.48-1.76-7.75-3.51l-.84-.74c-.54-.67-1.06-1.35-1.54-2.06-1.76-2.55-3.15-5.36-4.12-8.3-.37-1.12-.68-2.26-.92-3.41l.01-.07c.54-1.15,1.04-2.32,1.5-3.51.57-.07,1.14-.14,1.71-.22,0-2.57.19-5.13.59-7.67.18-.83.33-1.67.46-2.51v-.01c0-.04.01-.07.02-.11l.03-.12h-.02c1.6-10.45.12-21.47,3.88-31.33l-.67-.96c-.1-.99-.18-1.99-.26-2.98h.22c.25-.15.51-.31.75-.45,1.75-1.02,3.38-1.82,4.95-2.42Z" style="fill:#25292d; stroke-width:0px;"/><path d="M140.8052,430.04v-.01l-.01-1.01c-.36-1.03-.78-2.04-1.26-3.01,6.34-.16,12.66-.9,18.87-2.2v-.01l1.5.19c-.16,1.84-.93,3.6-2.4,4.69h-.01c-5.52.86-11.1,1.31-16.69,1.36Z" style="fill:#25292d; stroke-width:0px;"/><path d="M145.1352,202.16c4.67-.58,9.44-.28,13.99.92l-.03,1.86c-.03,1.75-.04,3.51-.05,5.27-4.62-1.72-9.61-2.44-14.53-2.13.22-1.97.43-3.94.62-5.92Z" style="fill:#25292d; stroke-width:0px;"/><path d="M160.7052,218.21l-.86.03c-.27-.07-.53-.14-.78-.2-6.12-1.59-10.64-1.74-15.68.18-1.57.6-3.2,1.4-4.95,2.42l-1.18-1.72c-1.42-2.66-2.11-5.7-1.99-8.71l-.08-.25c.66-.24,1.31-.45,1.99-.62,2.39-.69,4.86-1.11,7.34-1.25v-.01c4.92-.31,9.91.41,14.53,2.13l2.44,1.29c.24,2.26-.03,4.57-.78,6.71Z" style="fill:#f61726; stroke-width:0px;"/><path d="M154.2352,175.17c3.22,5.34,4.38,11.48,4.76,17.77-3.05-1.52-6.44-2.36-9.85-2.41-.99-.02-1.97.03-2.95.15.54-6.21,1-12.42,1.4-18.64l.55-1.03c1.37.73,2.68,1.57,3.93,2.48l2.16,1.68Z" style="fill:#25292d; stroke-width:0px;"/><path d="M142.5052,416.5v-.01l.08-.09c2.84-2,6.31-2.87,9.72-3.54.99-.19,1.98-.37,2.98-.57.17.47.35.92.52,1.34v.01l-.01.04c-.05-.02-.11-.02-.17-.03v.05c.68.92,1.36,1.85,1.98,2.81-4.25.5-8.42,1.71-12.28,3.58v-.01l-1.42.04c-.11-.95-.22-1.92-.68-2.75-.18-.33-.43-.63-.72-.87Z" style="fill:#25292d; stroke-width:0px;"/><path d="M154.9552,315.61c-.28,1.03-.78,1.99-1.45,2.82l-1.98-.45v-.03c.26-3.27-.76-6.62-2.79-9.18l-2.6-.07.06-2.31c1.76-.42,3.44-1.22,4.88-2.32l1.94.17c1.03,3.7,1.69,7.51,1.96,11.34l-.02.03Z" style="fill:#e5c073; stroke-width:0px;"/><path d="M151.6552,367.59c.33,3.58.48,7.16.33,10.73l-2.24-.1c-8.06,6.38-17.77,10.64-27.92,12.25l-.25.05c-.67-3.33-1.35-6.66-2.02-9.99l2.26-.46v.01c10.94-.82,21.58-5.27,29.84-12.49Z" style="fill:#25292d; stroke-width:0px;"/><path d="M151.4352,401.89v-.01l.4.09c-.02.07-.03.15-.05.22l.14.4c.65,1.6,1.3,3.59,1.96,5.57-4.54-.4-9.18.28-13.39,2l-.77-1.96c4.15-1.6,8.09-3.72,11.71-6.31Z" style="fill:#25292d; stroke-width:0px;"/><path d="M123.1352,398.25c.3,1.48.6,2.95.9,4.43l.76.44v.01c10.52.4,20.96-5.8,25.8-15.12l1.22.19c1.05,4.51,1.06,9.26.02,13.77l-.4-.09v.01c-3.62,2.59-7.56,4.71-11.71,6.31-1.57.62-3.16,1.15-4.77,1.61v.01c-.85.24-1.71.46-2.57.66-3.48.81-7.03,1.28-10.6,1.37-.41.02-.81.03-1.22.03l-.73-.56c.03-3.88.06-7.76.09-11.64v-.01l.48-.32v.01c.91-.37,1.82-.75,2.73-1.11Z" style="fill:#25292d; stroke-width:0px;"/><path d="M118.1152,364.02c10.95-1.58,21.56-5.42,30.98-11.2v-.01l.47-.08c.86,4.96,1.65,9.92,2.09,14.86-8.26,7.22-18.9,11.67-29.84,12.49v-.01l-2.26.46c-1.09-5.38-2.18-10.77-3.26-16.15l1.82-.37v.01Z" style="fill:#f61726; stroke-width:0px;"/><path d="M145.1352,202.16c-.19,1.98-.4,3.95-.62,5.92v.01c-2.48.14-4.95.56-7.34,1.25.03-1.79.11-3.58.24-5.37,2.5-.88,5.09-1.49,7.72-1.81Z" style="fill:#25292d; stroke-width:0px;"/><path d="M143.9052,420.12v.01c-1.75.55-3.56.9-5.38,1.03-.22.02-.46.03-.65-.08-.21-.11-.33-.31-.43-.53l-.09-.21c-.27-.64-.61-1.25-1.02-1.82l-.3-1.37c1.65-.33,3.28-.73,4.89-1.19v.01c.57-.07,1.12.15,1.57.53.01-.01.01,0,.01,0,.29.24.54.54.72.87.46.83.57,1.8.68,2.75Z" style="fill:#e5c073; stroke-width:0px;"/><path d="M121.5752,428.85c-.09-1.23-.12-2.46-.07-3.68l1.53.02v.01c5.47.7,10.99.98,16.5.81.48.97.9,1.98,1.26,3.01l.01,1.01v.01c-5.91.06-11.83-.34-17.68-1.19h-1.55Z" style="fill:#25292d; stroke-width:0px;"/><path d="M146.1352,308.7l2.6.07c2.03,2.56,3.05,5.91,2.79,9.18l-.1-.01c-1.75,1.29-3.61,2.42-5.56,3.38-.97.48-1.97.92-2.98,1.31l-.53-.33c-.49-.25-.95-.54-1.39-.87l-1.96-.06c.44-.19.85-.46,1.18-.81l.04.03c1.34-1.52,2.07-3.48,2.66-5.43.58-1.95,1.06-3.95,2.02-5.75l1.21.03c.01-.25.01-.49.02-.74Z" style="fill:#e5c073; stroke-width:0px;"/><path d="M136.0352,417.15c-.69.14-1.39.26-2.08.38-.25.04-.53.08-.77-.01-.26-.1-.43-.31-.55-.56-.08-.14-.13-.3-.18-.45-.39-1.22-.13-2.82-.12-4.1l.07-.13c.6-.46,1.87-.76,3.01-.89.66-.07,1.29-.08,1.72-.02,1.18.16,2.29.81,3.01,1.76.6.79.92,1.76,1.23,2.71-.15.04-.3.09-.45.12-1.61.46-3.24.86-4.89,1.19Z" style="fill:#e5c073; stroke-width:0px;"/><path d="M158.9952,192.94c1.03.52,2.03,1.11,2.97,1.78l-.19.31c-.23,2.74-1.01,5.44-2.29,7.87l-.36.18c-4.55-1.2-9.32-1.5-13.99-.92-2.63.32-5.22.93-7.72,1.81-.11.04-.21.07-.31.11l-.43-1.4c-1.05-2.26-1.36-4.86-.88-7.31l.41-1.05c.79-.52,1.62-1,2.47-1.42,2.35-1.16,4.91-1.92,7.52-2.22.98-.12,1.96-.17,2.95-.15,3.41.05,6.8.89,9.85,2.41Z" style="fill:#f61726; stroke-width:0px;"/><path d="M141.3752,415.84c-.31-.95-.63-1.92-1.23-2.71-.72-.95-1.83-1.6-3.01-1.76-.43-.06-1.06-.05-1.72.02l-.46-1.57v-.01c1.61-.46,3.2-.99,4.77-1.61l.77,1.96c4.21-1.72,8.85-2.4,13.39-2,.47,1.43.93,2.85,1.4,4.13-1,.2-1.99.38-2.98.57-3.41.67-6.88,1.54-9.72,3.54l-.08.09v.01s0-.01-.01,0c-.45-.38-1-.6-1.57-.53v-.01c.15-.03.3-.08.45-.12Z" style="fill:#25292d; stroke-width:0px;"/><path d="M137.6352,285.09c2.27,1.75,4.94,2.93,7.75,3.51,2.58.53,5.26.55,7.83.03l2.09.26c-1.04,4.34-1.72,8.77-2.03,13.22l-.01.06-.73.58c-.45.48-.94.92-1.46,1.32-1.44,1.1-3.12,1.9-4.88,2.32-1.72.43-3.51.5-5.25.19-3.92-.7-7.42-3.36-9.2-6.91-.12-.24-.23-.48-.33-.72l.38-.59c1.15-5.36,2.31-10.71,3.46-16.07.48.71,1,1.39,1.54,2.06l.84.74Z" style="fill:#25292d; stroke-width:0px;"/><path d="M159.9052,423.99l-1.5-.19v.01c-6.21,1.3-12.53,2.04-18.87,2.2-.42-.83-.87-1.63-1.37-2.41-.54-.85-1.23-1.73-2.23-1.9-.13-.02-.26-.03-.39-.03v-.01l1.9-1.11c.1.22.22.42.43.53.19.11.43.1.65.08,1.82-.13,3.63-.48,5.38-1.03v-.01l1.42-.04v.01c3.86-1.87,8.03-3.08,12.28-3.58.91,1.41,1.68,2.9,2.08,4.52.24.95.32,1.97.22,2.96Z" style="fill:#25292d; stroke-width:0px;"/><path d="M135.5452,421.66v.01c-.65-.01-1.31.21-1.95.09-.19-.04-.37-.1-.53-.19-.67-.35-1.07-1.08-1.23-1.81-.15-.74-.08-1.5-.01-2.25v-.01l.81-.54c.12.25.29.46.55.56.24.09.52.05.77.01.69-.12,1.39-.24,2.08-.38l.3,1.37c.41.57.75,1.18,1.02,1.82l.09.21-1.9,1.11Z" style="fill:#25292d; stroke-width:0px;"/><path d="M130.2352,411.97c.68-.47,1.46-.77,2.25-1.03v-.01l-.1-.45c.86-.2,1.72-.42,2.57-.66l.46,1.57c-1.14.13-2.41.43-3.01.89l-.07.13c-.01,1.28-.27,2.88.12,4.1.05.15.1.31.18.45l-.81.54v.01c-.8.09-1.6.18-2.39.27v-.02c-.12-1.2-.85-2.3-.73-3.5.11-.94.75-1.76,1.53-2.29Z" style="fill:#25292d; stroke-width:0px;"/><path d="M130.2352,411.97c-.78.53-1.42,1.35-1.53,2.29-.12,1.2.61,2.3.73,3.5v.02c.79-.09,1.59-.18,2.39-.27-.07.75-.14,1.51.01,2.25.16.73.56,1.46,1.23,1.81.16.09.34.15.53.19.64.12,1.3-.1,1.95-.09.13,0,.26.01.39.03,1,.17,1.69,1.05,2.23,1.9.5.78.95,1.58,1.37,2.41-5.51.17-11.03-.11-16.5-.81v-.01l-1.53-.02c.04-1.31.16-2.61.36-3.9v-.01l.01-.01c-1.51-2.88-1.53-6.49-.09-9.4,3.57-.09,7.12-.56,10.6-1.37l.1.45v.01c-.79.26-1.57.56-2.25,1.03Z" style="fill:#25292d; stroke-width:0px;"/><path d="M129.6552,154.63c-.01.03-.03.06-.04.09-.31.73-.57,1.49-.75,2.26-4.93,3.93-10.52,7.02-16.47,9.08l.03.16c1.44,2.69,3.23,5.18,5.34,7.4-12.41-1.72-24.03-.16-26.38.19-.03-.52,0-.91.09-1.14,3.92-10.55,1.53-14.88-.33-16.55-.18-.38-.4-.73-.66-1.07,0,0,17.78-15.97,39.17-.42Z" style="fill:#e5c073; stroke-width:0px;"/><path d="M130.5052,314.36h-.01c-.54.9-1.67,1.37-2.71,1.22-1.07-.15-2.02-.88-2.57-1.81-.51-.87-.71-1.92-.53-2.92l.34.01c1.93-2.81,3.47-5.9,4.55-9.14v-.01l-.28-.44v-.01c-.01-.53-.02-1.09-.22-1.58l2.67-.01c1.78,3.55,5.28,6.21,9.2,6.91,1.74.31,3.53.24,5.25-.19l-.06,2.31c-.01.25-.01.49-.02.74l-1.21-.03c-.96,1.8-1.44,3.8-2.02,5.75-.59,1.95-1.32,3.91-2.66,5.43l-.04-.03c-.33.35-.74.62-1.18.81h-.01c-.65.28-1.38.37-2.07.24-1.17-.23-2.21-1.07-2.65-2.18h-.01l-.11-.09c1.88-2.98,2.77-6.55,2.5-10.06-.04-.44-.1-.9-.34-1.26-.25-.37-.73-.61-1.14-.45l-.24-.09v.01c-1.17,2.47-2.66,4.79-4.42,6.88l-.01-.01Z" style="fill:#e5c073; stroke-width:0px;"/><path d="M128.8652,156.98c-1.08,4.27-.33,8.99,2.09,12.67,0,0-1.53,2.37-3.87,5.94-3.07-.91-6.22-1.54-9.32-1.97-2.11-2.22-3.9-4.71-5.34-7.4l-.03-.16c5.95-2.06,11.54-5.15,16.47-9.08Z" style="fill:#25292d; stroke-width:0px;"/><path d="M123.5752,302.44c-.58-2.94-.93-5.96-.51-8.92.42-2.97,1.66-5.89,3.85-7.92v-.01l.58-.03c-.21-3.96.83-7.99,2.95-11.35v-.01l.69-.21c.97,2.94,2.36,5.75,4.12,8.3-1.15,5.36-2.31,10.71-3.46,16.07l-.38.59c.1.24.21.48.33.72l-2.67.01c-.03-.07-.06-.14-.1-.2-.29-.53-.98-.91-1.53-.65l-.18.66c-.24.81-.53,1.63-1.1,2.25-.58.62-1.49.99-2.29.7h-.3Z" style="fill:#e5c073; stroke-width:0px;"/><path d="M123.1352,398.25c-.52-2.58-1.04-5.15-1.56-7.73l.25-.05c10.15-1.61,19.86-5.87,27.92-12.25l2.24.1c-.09,2.59-.35,5.18-.79,7.77l.25.11c-.25.62-.54,1.22-.85,1.81-4.84,9.32-15.28,15.52-25.8,15.12v-.01l-.76-.44c-.3-1.48-.6-2.95-.9-4.43Z" style="fill:#f61726; stroke-width:0px;"/><path d="M120.2052,175.97c-.86-.73-1.68-1.52-2.44-2.35,3.1.43,6.25,1.06,9.32,1.97,0,0-.04.07-.13.21-3.67,5.58-9.23,13.97-14.05,20.87.89-4.29,1.53-8.62,1.51-13,0-1.98-.12-4.07.79-5.84.91-1.76,3.31-2.93,4.94-1.79l.06-.07Z" style="fill:#25292d; stroke-width:0px;"/><path d="M117.7652,173.62c.76.83,1.58,1.62,2.44,2.35l-.06.07c-1.63-1.14-4.03.03-4.94,1.79-.91,1.77-.79,3.86-.79,5.84.02,4.38-.62,8.71-1.51,13-4.51,6.45-8.38,11.61-9.43,11.93-1.57.28-3.55-2.49-5.52-7.2-1.97-6.26-4.19-15.34-5.74-21.98l-.03-.15c-.45-2.34-.76-4.25-.8-5.46,2.35-.35,13.97-1.91,26.38-.19Z" style="fill:#f1e1a6; stroke-width:0px;"/><path d="M126.9552,175.8c-1.02,1.66-8.06,13.01-14.27,21.91.08-.35.16-.7.22-1.04,4.82-6.9,10.38-15.29,14.05-20.87Z" style="fill:#25292d; stroke-width:0px;"/><path d="M102.2152,256.31l.03-.12c-.74-1.82-1.49-3.63-2.24-5.44-.01-.01-.01-.03-.02-.04l-.2-2.79c-.08-3.05-.04-6.09.14-9.14.74.1,1.5.18,2.25.25,2.07.18,4.42.14,5.84-1.38l.53.02c-.14-1.43.02-2.89.48-4.25l.09-.34c-2.87-.36-5.75-.59-8.63-.69.88-7.67,2.59-15.25,5.09-22.56.53-1.53,1.11-3.09,2.16-4.32.9-1.03,2.21-1.8,3.56-1.82.25,0,.49.02.74.07l.3.4c3.81-2.76,6.75-6.62,9.45-10.49,3.41-4.89,6.59-9.95,9.55-15.12,1.94-3.4,3.8-6.88,4.94-10.63.08-.25.15-.5.22-.75,4.07.57,8.03,1.88,11.65,3.84l-.55,1.03c-.4,6.22-.86,12.43-1.4,18.64-2.61.3-5.17,1.06-7.52,2.22-.85.42-1.68.9-2.47,1.42l-.41,1.05c-.48,2.45-.17,5.05.88,7.31l.43,1.4c.1-.04.2-.07.31-.11-.13,1.79-.21,3.58-.24,5.37-.68.17-1.33.38-1.99.62l.08.25c-.12,3.01.57,6.05,1.99,8.71l1.18,1.72c-.24.14-.5.3-.75.45h-.22c.08.99.16,1.99.26,2.98l.67.96c-3.76,9.86-2.28,20.88-3.88,31.33-10.43,3.3-21.89,3.28-32.3-.05Z" style="fill:#25292d; stroke-width:0px;"/><path d="M112.0352,203.76c-.25-.05-.49-.07-.74-.07.49-1.99.96-3.98,1.39-5.98,6.21-8.9,13.25-20.25,14.27-21.91.09-.14.13-.21.13-.21,2.34-3.57,3.87-5.94,3.87-5.94-2.42-3.68-3.17-8.4-2.09-12.67.22-.17.43-.35.64-.52l.71-.16c.81-.63,5.22-1.7,5.99-1.02.31.26.45.67.56,1.07.96,3.52.69,7.29-.27,10.82-.07.25-.14.5-.22.75-1.14,3.75-3,7.23-4.94,10.63-2.96,5.17-6.14,10.23-9.55,15.12-2.7,3.87-5.64,7.73-9.45,10.49l-.3-.4Z" style="fill:#25292d; stroke-width:0px;"/><path d="M109.0252,233.42c-.46,1.36-.62,2.82-.48,4.25l-.53-.02c-1.42,1.52-3.77,1.56-5.84,1.38-.75-.07-1.51-.15-2.25-.25.12-2.13.3-4.26.56-6.39,2.88.1,5.76.33,8.63.69l-.09.34Z" style="fill:#25292d; stroke-width:0px;"/><path d="M112.6852,197.71c-4.08,5.85-7.81,10.64-9.21,10.89,1.05-.32,4.92-5.48,9.43-11.93-.06.34-.14.69-.22,1.04Z" style="fill:#f1e1a6; stroke-width:0px;"/><path d="M102.5652,269.04l.1-1.28c9.68.7,19.43.45,29.06-.76-.46,1.19-.96,2.36-1.5,3.51l-.01.07c.24,1.15.55,2.29.92,3.41l-.69.21v.01c-2.12,3.36-3.16,7.39-2.95,11.35l-.58.03v.01c-2.19,2.03-3.43,4.95-3.85,7.92-.42,2.96-.07,5.98.51,8.92h.3c.8.29,1.71-.08,2.29-.7.57-.62.86-1.44,1.1-2.25l.18-.66c.55-.26,1.24.12,1.53.65.04.06.07.13.1.2.2.49.21,1.05.22,1.58v.01l.28.44v.01c-1.08,3.24-2.62,6.33-4.55,9.14l-.34-.01c-.18,1,.02,2.05.53,2.92.55.93,1.5,1.66,2.57,1.81,1.04.15,2.17-.32,2.71-1.22h.01l.01.01c1.76-2.09,3.25-4.41,4.42-6.88v-.01l.24.09c.41-.16.89.08,1.14.45.24.36.3.82.34,1.26.27,3.51-.62,7.08-2.5,10.06l.11.09h.01c.44,1.11,1.48,1.95,2.65,2.18.69.13,1.42.04,2.07-.24h.01l1.96.06c.44.33.9.62,1.39.87l.53.33c1.01-.39,2.01-.83,2.98-1.31,0,2.14.06,4.29.18,6.43.48,8.35,2.09,16.68,3.52,24.98l-.47.08v.01c-9.42,5.78-20.03,9.62-30.98,11.2v-.01l-1.82.37c-3.72-18.39-7.44-36.79-11.16-55.18v-.05h-1.73v-2.52c-3.63-12.15-3.93-25.28-.84-37.59Z" style="fill:#25292d; stroke-width:0px;"/><path d="M73.4352,263.05v-.32h.2c9.48,2.64,19.21,4.33,29.03,5.03l-.1,1.28c-3.09,12.31-2.79,25.44.84,37.59v2.52h-1.19l-.29.29c1.71,15.2,1.31,31.69-1.17,47.74-12.92,2.01-26.36.67-38.63-3.85l-.33.01c-.29-9.45-.34-18.89.06-28.33.74-17.31,3.03-34.66,8.06-51.21.5-3.67,1.4-7.29,2.68-10.76l.84.01Z" style="fill:#25292d; stroke-width:0px;"/><path d="M97.7352,255.2c.75-1.47,1.5-2.95,2.24-4.43v-.01l.03-.01c.75,1.81,1.5,3.62,2.24,5.44l-.03.12c10.41,3.33,21.87,3.35,32.3.05,0,.04,0,.08-.01.12s-.02.07-.02.11v.01c-.18.83-.33,1.67-.46,2.51-.55,2.69-1.32,5.33-2.3,7.89-9.63,1.21-19.38,1.46-29.06.76-9.82-.7-19.55-2.39-29.03-5.03h-.2c.03-2.93.05-5.85.07-8.78.44.25.93.44,1.41.6,7.27,2.51,15.32,2.73,22.72.63l.1.02Z" style="fill:#f61726; stroke-width:0px;"/><path d="M100.4852,232.39c-.26,2.13-.44,4.26-.56,6.39-2.67-.35-5.3-.91-7.87-1.67l-.34-.14c-.15-1.53.04-3.1.55-4.55,2.74-.12,5.48-.13,8.22-.03Z" style="fill:#25292d; stroke-width:0px;"/><path d="M100.6552,208.08c-.75-1.04-1.69-3.49-2.7-6.68,1.97,4.71,3.95,7.48,5.52,7.2-2.91.9-2.82-.52-2.82-.52Z" style="fill:#e5c073; stroke-width:0px;"/><path d="M99.7852,247.92l.2,2.79c.01.01.01.03.02.04l-.03.01v.01c-.74,1.48-1.49,2.96-2.24,4.43l-.1-.02c-7.4,2.1-15.45,1.88-22.72-.63-.48-.16-.97-.35-1.41-.6-.42-.23-.8-.53-1.08-.92-.91-1.26-.53-2.97-.05-4.46l-.14-.05c.42-2.45.71-4.92.86-7.41.11-1.84.14-3.7.1-5.55l-.17-.6c-2.13-8.95-4.15-17.96-5.24-27.08-.16-1.31-.29-2.61-.41-3.92-.2-2.29-.34-4.59-.39-6.9l.17-.38c.21-2.56.2-5.12-.04-7.67.34-5.43,1.19-10.81,2.7-16.03h.01l.47.14c3.05-1.28,6.11-2.55,9.16-3.83l.24-.15c.4.59.8,1.16,1.22,1.73l-2.11,1.22v.01c3.64,11.94,13.27,21.1,18.31,32.53l.29-.05c-.47-3.03-1.2-6.68-2.01-10.42.83,2.73,1.69,5.17,2.56,7.24,1.01,3.19,1.95,5.64,2.7,6.68,0,0-.09,1.42,2.82.52,1.4-.25,5.13-5.04,9.21-10.89-.43,2-.9,3.99-1.39,5.98-1.35.02-2.66.79-3.56,1.82-1.05,1.23-1.63,2.79-2.16,4.32-2.5,7.31-4.21,14.89-5.09,22.56-2.74-.1-5.48-.09-8.22.03-.51,1.45-.7,3.02-.55,4.55l.34.14c2.57.76,5.2,1.32,7.87,1.67-.18,3.05-.22,6.09-.14,9.14Z" style="fill:#25292d; stroke-width:0px;"/><path d="M97.9552,201.4c-.87-2.07-1.73-4.51-2.56-7.24,0-.02-.01-.04-.02-.06-1.11-5.21-2.36-10.58-3.16-14.68,1.55,6.64,3.77,15.72,5.74,21.98Z" style="fill:#f1e1a6; stroke-width:0px;"/><path d="M59.8452,398.63c-1.38-1.55-2.57-3.27-3.5-5.13l.34-.18v-10.75h.01v.01c1.51-.87,3.26-1.33,5.01-1.33l.27-.01,1.16-.07c.06,1.17.13,2.34.2,3.51l-.9.08v.01c2.69,4.06,6.97,6.86,11.51,8.61,4.54,1.76,9.38,2.55,14.19,3.34l2.24-1.39,1.63.64c-.22,3.94-.43,7.88-.65,11.82v.01l.05.45c-.52.07-1.05.13-1.57.18h-.01c-6.23.6-12.6.12-18.45-2.06-.8-.3-1.58-.63-2.35-.99h-.01c-3.47-1.63-6.64-3.92-9.17-6.75Z" style="fill:#25292d; stroke-width:0px;"/><path d="M91.1452,156.12c1.86,1.67,4.25,6,.33,16.55-.09.23-.12.62-.09,1.14-.28.05-.43.07-.43.07-.43-1.92-.68-3.08-.68-3.08.29-2.7,1.2-5.29,1.61-7.97.35-2.26.28-4.71-.74-6.71Z" style="fill:#f61726; stroke-width:0px;"/><path d="M91.3852,173.81c.04,1.21.35,3.12.8,5.46-.44-1.89-.82-3.58-1.13-4.94l-.1-.45s.15-.02.43-.07Z" style="fill:#f61726; stroke-width:0px;"/><path d="M91.0552,174.33c.31,1.36.69,3.05,1.13,4.94l.03.15c.8,4.1,2.05,9.47,3.16,14.68-1.7-5.63-3.23-12.44-4.29-19.6l-.03-.17Z" style="fill:#f61726; stroke-width:0px;"/><path d="M75.3652,160.09l.21-.07c2.95-1.1,5.91-2.2,8.87-3.31l.04.11v.01c1.73-.45,3.43-1.01,5.1-1.67,0,0,.73.21,1.56.96,1.02,2,1.09,4.45.74,6.71-.41,2.68-1.32,5.27-1.61,7.97,0,0,.25,1.16.68,3.08l.1.45.03.17c1.06,7.16,2.59,13.97,4.29,19.6.01.02.02.04.02.06.81,3.74,1.54,7.39,2.01,10.42l-.29.05c-5.04-11.43-14.67-20.59-18.31-32.53v-.01l2.11-1.22c-.42-.57-.82-1.14-1.22-1.73-1.84-2.8-3.31-5.85-4.33-9.05Z" style="fill:#f61726; stroke-width:0px;"/><path d="M69.0152,405.38l-1.18,1.24c-2.22,1.46-4.48,2.86-6.77,4.2-.08-.18-.17-.36-.27-.54-1.71-3.11-5.15-5.2-8.7-5.29l-.35-.65c2.57-1.42,5.07-2.96,7.51-4.6l.59-1.11c2.53,2.83,5.7,5.12,9.17,6.75Z" style="fill:#25292d; stroke-width:0px;"/><path d="M67.7852,207.88c1.09,9.12,3.11,18.13,5.24,27.08l.17.6c.04,1.85.01,3.71-.1,5.55-5.43,13.62-9.92,27.62-13.45,41.85-.72,2.92-1.41,5.85-2.32,8.72l-.52-.16c-.91-.76-1.84-1.49-2.79-2.2-4.24-3.22-8.82-6-13.62-8.31-2.67-1.28-5.41-2.41-8.21-3.39l-.07-.65c2.4-2.39,4.82-4.8,6.62-7.68,1.84-2.95,2.95-6.29,4.05-9.6l.49.1c2.07-10.23,4.13-20.44,6.2-30.67.97-4.86,1.96-9.73,3.03-14.57,4.98.72,10.14.26,14.89-1.38l-.6-5.17.99-.12Z" style="fill:#25292d; stroke-width:0px;"/><path d="M66.7952,208l.6,5.17c-4.75,1.64-9.91,2.1-14.89,1.38-1.17-.17-2.33-.4-3.47-.7l-.43-.35c-.46-3.27.05-6.65,1.43-9.64l.34.14c.91-.75,2.09-1.08,3.25-1.3.59-.11,1.19-.2,1.79-.26,3.71-.39,7.52.21,10.93,1.72l.45,3.84Z" style="fill:#f61726; stroke-width:0px;"/><path d="M66.1452,185.56c-.7-.78-1.84-.99-2.88-1.02-.67-.02-1.35,0-2.01.09,1.96-4.56,4.4-8.87,7.67-12.55l.97.64c-.03.09-.05.17-.07.26h-.01c-1.51,5.22-2.36,10.6-2.7,16.03-.02-.29-.05-.57-.08-.85-.1-.93-.26-1.91-.89-2.6Z" style="fill:#25292d; stroke-width:0px;"/><path d="M67.3752,203.96c.12,1.31.25,2.61.41,3.92l-.99.12-.45-3.84c-3.41-1.51-7.22-2.11-10.93-1.72.3-1.14.61-2.28.94-3.41,3.45.16,6.92-.22,10.26-1.12l.37-.85c.05,2.31.19,4.61.39,6.9Z" style="fill:#25292d; stroke-width:0px;"/><path d="M67.1152,189.01c.24,2.55.25,5.11.04,7.67l-.17.38c-.07-2.69-.03-5.38.13-8.05Z" style="fill:#f61726; stroke-width:0px;"/><path d="M62.9352,377.75c-.2-3.54-.4-7.08-.58-10.62l.78-.04v.01c5.36,2.44,10.75,4.89,16.45,6.37,5.7,1.47,11.79,1.92,17.46.34v-.01l.35.09c-.85,3.39-1.8,6.72-2.84,9.98l-2.05,1.68v.01c-10.01.65-20.21-2.17-28.46-7.87l-1.11.06Z" style="fill:#25292d; stroke-width:0px;"/><path d="M64.0452,377.69c8.25,5.7,18.45,8.52,28.46,7.87v-.01l2.05-1.68c-1.25,3.93-2.65,7.76-4.18,11.46l-2.24,1.39c-4.81-.79-9.65-1.58-14.19-3.34-4.54-1.75-8.82-4.55-11.51-8.61v-.01l.9-.08c-.07-1.17-.14-2.34-.2-3.51-.07-1.14-.14-2.28-.2-3.42l1.11-.06Z" style="fill:#f61726; stroke-width:0px;"/><path d="M62.1252,353.33c12.27,4.52,25.71,5.86,38.63,3.85-.86,5.65-1.98,11.25-3.36,16.71l-.35-.09v.01c-5.67,1.58-11.76,1.13-17.46-.34-5.7-1.48-11.09-3.93-16.45-6.37v-.01l-.78.04c-.22-4.6-.42-9.2-.56-13.79l.33-.01Z" style="fill:#f61726; stroke-width:0px;"/><path d="M61.0652,410.82c1.43,3.03,1.27,6.76-.47,9.64v.01l-.04.04v.01c-2.03-1.87-3.36-4.35-4.89-6.67,1.82-.98,3.62-1.98,5.4-3.03Z" style="fill:#e5c073; stroke-width:0px;"/><path d="M56.3552,199.03c-1.67-.06-3.33-.25-4.97-.56l.52-1.19c1.12-4.25,3.08-8.25,5.73-11.76l.1.07c1.12-.49,2.31-.82,3.52-.96.66-.09,1.34-.11,2.01-.09,1.04.03,2.18.24,2.88,1.02.63.69.79,1.67.89,2.6.03.28.06.56.08.85-.16,2.67-.2,5.36-.13,8.05l-.37.85c-3.34.9-6.81,1.28-10.26,1.12Z" style="fill:#f61726; stroke-width:0px;"/><path d="M89.8252,408.43h.01l2.24.67c1.95,6.79,1.75,14.16-.56,20.83l-1.66-.05c-3.82-.03-7.64-.06-11.47-.09v-.01l-1.89-.71c-1.13-1.4-2.3-2.73-3.55-4l-.01-.01-.23-.83c.07-.02.15-.04.22-.06l-.04-.14c-11.71,2.01-23.72,3.78-35.42,1.88.55-2.1,2.28-3.69,4.04-4.96,1.97-1.42,4.11-2.62,6.34-3.56,1.61,1.87,3.23,3.75,4.86,5.62l.2-.18c1.04-1.89,2.1-3.98,1.71-6.1-.13-.69-.4-1.33-.78-1.91.61-.32,1.22-.65,1.83-.97,1.53,2.32,2.86,4.8,4.89,6.67v-.01l.04-.04v-.01c1.74-2.88,1.9-6.61.47-9.64,2.29-1.34,4.55-2.74,6.77-4.2l1.18-1.24h.01c.77.36,1.55.69,2.35.99,5.85,2.18,12.22,2.66,18.45,2.06Z" style="fill:#25292d; stroke-width:0px;"/><path d="M51.3552,416.12l-.02-.04c.84-.41,1.67-.84,2.5-1.26.38.58.65,1.22.78,1.91.39,2.12-.67,4.21-1.71,6.1l-.2.18c-1.63-1.87-3.25-3.75-4.86-5.62,1.15-.49,2.32-.91,3.51-1.27Z" style="fill:#e5c073; stroke-width:0px;"/><path d="M50.6552,411.98c-1.84-1.07-3.89-1.8-5.6-3.07l-1.58-.45c2.82-1.25,5.58-2.62,8.27-4.12l.35.65c3.55.09,6.99,2.18,8.7,5.29.1.18.19.36.27.54-1.78,1.05-3.58,2.05-5.4,3.03-.61.32-1.22.65-1.83.97-.76-1.18-1.95-2.12-3.18-2.84Z" style="fill:#25292d; stroke-width:0px;"/><path d="M39.4752,411.39c1.12-.27,2.35.08,3.33.72,1.05.67,1.89,1.63,2.71,2.58.77.9,1.55,1.8,2.33,2.7-2.23.94-4.37,2.14-6.34,3.56-1.76,1.27-3.49,2.86-4.04,4.96-.58-.09-1.15-.19-1.73-.3-1.92-.37-3.86-.86-5.52-1.9l-1.66-.03c-.2-4.95,2.67-9.96,7.13-12.17l.16-.04.01.01c1.07-.37,2.14-.77,3.2-1.18l.42,1.07v.02Z" style="fill:#25292d; stroke-width:0px;"/><path d="M45.0552,408.91c1.71,1.27,3.76,2,5.6,3.07,1.23.72,2.42,1.66,3.18,2.84-.83.42-1.66.85-2.5,1.26l.02.04c-1.19.36-2.36.78-3.51,1.27-.78-.9-1.56-1.8-2.33-2.7-.82-.95-1.66-1.91-2.71-2.58-.98-.64-2.21-.99-3.33-.72v-.02l-.42-1.07c1.49-.58,2.96-1.19,4.42-1.84l1.58.45Z" style="fill:#25292d; stroke-width:0px;"/><path d="M32.1852,277.62c2.8.98,5.54,2.11,8.21,3.39l-.39,1.27c-3.11,5.95-8.11,10.89-14.09,13.93l-.04.12c-2.19-.75-4.75-.37-6.62.99l-.88-.16c1.36-7.91,6.29-15.16,13.16-19.33l.65-.21Z" style="fill:#25292d; stroke-width:0px;"/><path d="M37.4652,425.91c11.7,1.9,23.71.13,35.42-1.88l.04.14c-.07.02-.15.04-.22.06-2.94.79-5.69,2.3-7.91,4.39v-.01l-1.11-.08c-9.46,1.51-19.1,1.12-28.67.72-1.24-.05-2.51-.11-3.65-.61s-2.12-1.56-2.16-2.8l-.52-.76v-.01c-.08-.46-.12-.92-.13-1.39l1.66.03c1.66,1.04,3.6,1.53,5.52,1.9.58.11,1.15.21,1.73.3Z" style="fill:#693c1d; stroke-width:0px;"/><path d="M24.4252,316.62c-1.05.5-2.31.37-3.49.23h-.61c-.35.71-.88,1.33-1.53,1.79-.46.35-.98.6-1.54.76-1.32.37-2.8.15-3.95-.59h-.01l.1-.13v-.01c.39-6.64,1.87-13.21,4.38-19.37l-.01-.01.43-.97c.05-.39.11-.78.18-1.16l.88.16c1.87-1.36,4.43-1.74,6.62-.99l.04-.12c5.98-3.04,10.98-7.98,14.09-13.93l.39-1.27c4.8,2.31,9.38,5.09,13.62,8.31l-.73,1.72c-1.48,1.48-2.47,3.44-2.78,5.51l-.03.02v.01c.13,1.43.26,2.88-.02,4.28-.27,1.41-1,2.8-2.22,3.53-.49.3-1.17.44-1.65.22-.53-1.75-1.68-3.26-2.66-4.81-1.09-1.72-2.03-3.72-1.66-5.72l-.27-.13c-1.09-1.03-2.74-1.42-4.17-.98-1.43.43-2.58,1.68-2.91,3.14l.43.43v.01c-1.78,2.2-2.02,5.24-2.13,8.07-.12,2.83-.23,5.85-1.85,8.17l-.29.18c-.64.73-1.32,1.48-2.23,1.79-.8.27-1.69.17-2.46.51-.65.3-1.12.87-1.74,1.23-.07.04-.14.08-.22.12Z" style="fill:#e5c073; stroke-width:0px;"/><path d="M24.4252,316.62l1.8.02v.01c-.11.67-.22,1.35-.48,1.98-.27.63-.71,1.2-1.33,1.49-.43.21-.93.26-1.41.26-1.57.02-3.27-.51-4.21-1.74.65-.46,1.18-1.08,1.53-1.79h.61c1.18.14,2.44.27,3.49-.23Z" style="fill:#e5c073; stroke-width:0px;"/><path d="M79.4552,169.29c-3.05,1.28-6.11,2.55-9.16,3.83" style="fill:none; stroke:#000; stroke-linecap:round; stroke-linejoin:round; stroke-width:3px;"/><path d="M103.4752,208.6c-2.91.9-2.82-.52-2.82-.52-.75-1.04-1.69-3.49-2.7-6.68" style="fill:none; stroke:#000; stroke-linecap:round; stroke-linejoin:round; stroke-width:3px;"/><path d="M91.1452,156.12c-.18-.38-.4-.73-.66-1.07,0,0,17.78-15.97,39.17-.42-.01.03-.03.06-.04.09-.31.73-.57,1.49-.75,2.26" style="fill:none; stroke:#000; stroke-linecap:round; stroke-linejoin:round; stroke-width:3px;"/><path d="M112.6852,197.71c-4.08,5.85-7.81,10.64-9.21,10.89-1.57.28-3.55-2.49-5.52-7.2-.87-2.07-1.73-4.51-2.56-7.24" style="fill:none; stroke:#000; stroke-linecap:round; stroke-linejoin:round; stroke-width:3px;"/><path d="M91.3852,173.81c2.35-.35,13.97-1.91,26.38-.19" style="fill:none; stroke:#000; stroke-linecap:round; stroke-linejoin:round; stroke-width:3px;"/><path d="M66.9852,197.06c.05,2.31.19,4.61.39,6.9.12,1.31.25,2.61.41,3.92,1.09,9.12,3.11,18.13,5.24,27.08" style="fill:none; stroke:#000; stroke-linecap:round; stroke-linejoin:round; stroke-width:3px;"/><path d="M69.8952,172.72c-.03.09-.05.17-.07.26h-.01c-1.51,5.22-2.36,10.6-2.7,16.03" style="fill:none; stroke:#000; stroke-linecap:round; stroke-linejoin:round; stroke-width:3px;"/><path d="M73.1952,235.56c.04,1.85.01,3.71-.1,5.55-.15,2.49-.44,4.96-.86,7.41" style="fill:none; stroke:#000; stroke-linecap:round; stroke-linejoin:round; stroke-width:3px;"/><path d="M147.5952,172.04c-.4,6.22-.86,12.43-1.4,18.64" style="fill:none; stroke:#000; stroke-linecap:round; stroke-linejoin:round; stroke-width:3px;"/><path d="M145.1352,202.16c-.19,1.98-.4,3.95-.62,5.92" style="fill:none; stroke:#000; stroke-linecap:round; stroke-linejoin:round; stroke-width:3px;"/><path d="M129.5052,156.46c-.21.17-.42.35-.64.52-4.93,3.93-10.52,7.02-16.47,9.08" style="fill:none; stroke:#000; stroke-linecap:round; stroke-linejoin:round; stroke-width:3px;"/><path d="M112.4252,166.22c1.44,2.69,3.23,5.18,5.34,7.4.76.83,1.58,1.62,2.44,2.35.32.29.64.56.97.83" style="fill:none; stroke:#000; stroke-linecap:round; stroke-linejoin:round; stroke-width:3px;"/><path d="M120.1452,176.04c-1.63-1.14-4.03.03-4.94,1.79-.91,1.77-.79,3.86-.79,5.84.02,4.38-.62,8.71-1.51,13-.06.34-.14.69-.22,1.04-.43,2-.9,3.99-1.39,5.98-.08.33-.16.65-.24.98" style="fill:none; stroke:#000; stroke-linecap:round; stroke-linejoin:round; stroke-width:3px;"/><path d="M111.3552,204.84c.33-.22.66-.44.98-.68,3.81-2.76,6.75-6.62,9.45-10.49,3.41-4.89,6.59-9.95,9.55-15.12,1.94-3.4,3.8-6.88,4.94-10.63.08-.25.15-.5.22-.75.96-3.53,1.23-7.3.27-10.82-.11-.4-.25-.81-.56-1.07-.77-.68-5.18.39-5.99,1.02" style="fill:none; stroke:#000; stroke-linecap:round; stroke-linejoin:round; stroke-width:3px;"/><polyline points="134.9552 409.82 135.4152 411.39 135.4352 411.46" style="fill:none; stroke:#000; stroke-linecap:round; stroke-linejoin:round; stroke-width:3px;"/><path d="M86.3852,155.99c-.65.24-1.29.48-1.94.72-2.96,1.11-5.92,2.21-8.87,3.31" style="fill:none; stroke:#000; stroke-linecap:round; stroke-linejoin:round; stroke-width:3px;"/><path d="M75.3452,160.03c.01.02.01.04.02.06,1.02,3.2,2.49,6.25,4.33,9.05.4.59.8,1.16,1.22,1.73h.01c.81,1.09,1.69,2.14,2.63,3.13" style="fill:none; stroke:#000; stroke-linecap:round; stroke-linejoin:round; stroke-width:3px;"/><path d="M84.4852,156.83c1.73-.45,3.43-1.01,5.1-1.67,0,0,.73.21,1.56.96,1.86,1.67,4.25,6,.33,16.55-.09.23-.12.62-.09,1.14.04,1.21.35,3.12.8,5.46l.03.15c.8,4.1,2.05,9.47,3.16,14.68.01.02.02.04.02.06.81,3.74,1.54,7.39,2.01,10.42,0,.03.01.06.01.09" style="fill:none; stroke:#000; stroke-linecap:round; stroke-linejoin:round; stroke-width:3px;"/><path d="M78.8052,172.1c3.64,11.94,13.27,21.1,18.31,32.53v.01" style="fill:none; stroke:#000; stroke-linecap:round; stroke-linejoin:round; stroke-width:3px;"/><path d="M73.5252,250.79c-.01,1.05-.01,2.11-.02,3.16-.02,2.93-.04,5.85-.07,8.78v.32c-.02,2.15-.03,4.3-.05,6.45" style="fill:none; stroke:#000; stroke-linecap:round; stroke-linejoin:round; stroke-width:3px;"/><path d="M135.4752,252.67c-.31,1.02-.58,2.06-.81,3.1" style="fill:none; stroke:#000; stroke-linecap:round; stroke-linejoin:round; stroke-width:3px;"/><path d="M134.4852,256.6c-.18.83-.33,1.67-.46,2.51" style="fill:none; stroke:#000; stroke-linecap:round; stroke-linejoin:round; stroke-width:3px;"/><path d="M133.7352,271.99c-.19-1.73-.29-3.47-.3-5.21" style="fill:none; stroke:#000; stroke-linecap:round; stroke-linejoin:round; stroke-width:3px;"/><path d="M43.2752,259.8v-.01c2.07-10.23,4.13-20.44,6.2-30.67.97-4.86,1.96-9.73,3.03-14.57" style="fill:none; stroke:#000; stroke-linecap:round; stroke-linejoin:round; stroke-width:3px;"/><path d="M61.2552,184.63c1.96-4.56,4.4-8.87,7.67-12.55.21-.25.43-.49.66-.73" style="fill:none; stroke:#000; stroke-linecap:round; stroke-linejoin:round; stroke-width:3px;"/><path d="M56.3552,199.03c-.33,1.13-.64,2.27-.94,3.41" style="fill:none; stroke:#000; stroke-linecap:round; stroke-linejoin:round; stroke-width:3px;"/><path d="M42.7852,259.69c-1.1,3.31-2.21,6.65-4.05,9.6-1.8,2.88-4.22,5.29-6.62,7.68" style="fill:none; stroke:#000; stroke-linecap:round; stroke-linejoin:round; stroke-width:3px;"/><path d="M32.1852,277.62c2.8.98,5.54,2.11,8.21,3.39,4.8,2.31,9.38,5.09,13.62,8.31.95.71,1.88,1.44,2.79,2.2" style="fill:none; stroke:#000; stroke-linecap:round; stroke-linejoin:round; stroke-width:3px;"/><path d="M57.2652,291.88c.02-.07.04-.13.06-.2.91-2.87,1.6-5.8,2.32-8.72,3.53-14.23,8.02-28.23,13.45-41.85.55-1.39,1.11-2.78,1.68-4.16" style="fill:none; stroke:#000; stroke-linecap:round; stroke-linejoin:round; stroke-width:3px;"/><path d="M31.5352,277.83c-6.87,4.17-11.8,11.42-13.16,19.33-.07.38-.13.77-.18,1.16" style="fill:none; stroke:#000; stroke-linecap:round; stroke-linejoin:round; stroke-width:3px;"/><path d="M19.2552,297.32c1.87-1.36,4.43-1.74,6.62-.99l.09.03" style="fill:none; stroke:#000; stroke-linecap:round; stroke-linejoin:round; stroke-width:3px;"/><path d="M25.9152,296.21c5.98-3.04,10.98-7.98,14.09-13.93" style="fill:none; stroke:#000; stroke-linecap:round; stroke-linejoin:round; stroke-width:3px;"/><path d="M34.9152,296.11c.33-1.46,1.48-2.71,2.91-3.14,1.43-.44,3.08-.05,4.17.98" style="fill:none; stroke:#000; stroke-linecap:round; stroke-linejoin:round; stroke-width:3px;"/><path d="M42.2652,294.08c-.37,2,.57,4,1.66,5.72.98,1.55,2.13,3.06,2.66,4.81.07.18.12.38.16.57" style="fill:none; stroke:#000; stroke-linecap:round; stroke-linejoin:round; stroke-width:3px;"/><path d="M46.2252,304.33c.1.12.22.21.36.28.48.22,1.16.08,1.65-.22,1.22-.73,1.95-2.12,2.22-3.53.28-1.4.15-2.85.02-4.28" style="fill:none; stroke:#000; stroke-linecap:round; stroke-linejoin:round; stroke-width:3px;"/><path d="M50.5052,296.55c.31-2.07,1.3-4.03,2.78-5.51" style="fill:none; stroke:#000; stroke-linecap:round; stroke-linejoin:round; stroke-width:3px;"/><path d="M17.7752,299.3c-2.51,6.16-3.99,12.73-4.38,19.37v.01" style="fill:none; stroke:#000; stroke-linecap:round; stroke-linejoin:round; stroke-width:3px;"/><path d="M13.3052,318.81c1.15.74,2.63.96,3.95.59.56-.16,1.08-.41,1.54-.76.65-.46,1.18-1.08,1.53-1.79" style="fill:none; stroke:#000; stroke-linecap:round; stroke-linejoin:round; stroke-width:3px;"/><path d="M20.9352,316.85c1.18.14,2.44.27,3.49-.23.08-.04.15-.08.22-.12.62-.36,1.09-.93,1.74-1.23.77-.34,1.66-.24,2.46-.51.91-.31,1.59-1.06,2.23-1.79" style="fill:none; stroke:#000; stroke-linecap:round; stroke-linejoin:round; stroke-width:3px;"/><path d="M31.3652,312.79c1.62-2.32,1.73-5.34,1.85-8.17.11-2.83.35-5.87,2.13-8.07" style="fill:none; stroke:#000; stroke-linecap:round; stroke-linejoin:round; stroke-width:3px;"/><path d="M18.5652,318.32c.07.11.14.22.23.32.94,1.23,2.64,1.76,4.21,1.74.48,0,.98-.05,1.41-.26.62-.29,1.06-.86,1.33-1.49.26-.63.37-1.31.48-1.98" style="fill:none; stroke:#000; stroke-linecap:round; stroke-linejoin:round; stroke-width:3px;"/><path d="M72.3452,266.44c-.88,2.43-1.69,4.89-2.43,7.36-5.03,16.55-7.32,33.9-8.06,51.21-.4,9.44-.35,18.88-.06,28.33.14,4.59.34,9.19.56,13.79.18,3.54.38,7.08.58,10.62.06,1.14.13,2.28.2,3.42.06,1.17.13,2.34.2,3.51v.01" style="fill:none; stroke:#000; stroke-linecap:round; stroke-linejoin:round; stroke-width:3px;"/><path d="M62.4352,384.77c2.69,4.06,6.97,6.86,11.51,8.61,4.54,1.76,9.38,2.55,14.19,3.34" style="fill:none; stroke:#000; stroke-linecap:round; stroke-linejoin:round; stroke-width:3px;"/><path d="M102.2152,309.15h3.53" style="fill:none; stroke:#000; stroke-linecap:round; stroke-linejoin:round; stroke-width:3px;"/><path d="M105.1352,309.2c3.72,18.39,7.44,36.79,11.16,55.18,1.08,5.38,2.17,10.77,3.26,16.15.67,3.33,1.35,6.66,2.02,9.99.52,2.58,1.04,5.15,1.56,7.73.3,1.48.6,2.95.9,4.43v.01" style="fill:none; stroke:#000; stroke-linecap:round; stroke-linejoin:round; stroke-width:3px;"/><path d="M124.7952,403.13c10.52.4,20.96-5.8,25.8-15.12.31-.59.6-1.19.85-1.81.01-.01.02-.02.02-.03" style="fill:none; stroke:#000; stroke-linecap:round; stroke-linejoin:round; stroke-width:3px;"/><path d="M145.8652,321.32c0,2.14.06,4.29.18,6.43.48,8.35,2.09,16.68,3.52,24.98.86,4.96,1.65,9.92,2.09,14.86.33,3.58.48,7.16.33,10.73-.09,2.59-.35,5.18-.79,7.77" style="fill:none; stroke:#000; stroke-linecap:round; stroke-linejoin:round; stroke-width:3px;"/><path d="M90.3752,395.33c1.53-3.7,2.93-7.53,4.18-11.46,1.04-3.26,1.99-6.59,2.84-9.98,1.38-5.46,2.5-11.06,3.36-16.71,2.48-16.05,2.88-32.54,1.17-47.74" style="fill:none; stroke:#000; stroke-linecap:round; stroke-linejoin:round; stroke-width:3px;"/><path d="M61.9752,381.25h-.27c-1.75,0-3.5.46-5.01,1.33" style="fill:none; stroke:#000; stroke-linecap:round; stroke-linejoin:round; stroke-width:3px;"/><path d="M56.6852,382.56v10.76" style="fill:none; stroke:#000; stroke-linecap:round; stroke-linejoin:round; stroke-width:3px;"/><path d="M56.2952,393.42c.01.03.03.05.05.08.93,1.86,2.12,3.58,3.5,5.13,2.53,2.83,5.7,5.12,9.17,6.75h.01c.77.36,1.55.69,2.35.99,5.85,2.18,12.22,2.66,18.45,2.06h.01c.52-.05,1.05-.11,1.57-.18h.04" style="fill:none; stroke:#000; stroke-linecap:round; stroke-linejoin:round; stroke-width:3px;"/><path d="M91.3552,407.8v-.01c.22-3.94.43-7.88.65-11.82" style="fill:none; stroke:#000; stroke-linecap:round; stroke-linejoin:round; stroke-width:3px;"/><path d="M123.4052,398.14c-.09.04-.18.07-.27.11-.91.36-1.82.74-2.73,1.11" style="fill:none; stroke:#000; stroke-linecap:round; stroke-linejoin:round; stroke-width:3px;"/><path d="M119.9252,399.68c-.03,3.88-.06,7.76-.09,11.64" style="fill:none; stroke:#000; stroke-linecap:round; stroke-linejoin:round; stroke-width:3px;"/><path d="M120.5652,411.88c.41,0,.81-.01,1.22-.03,3.57-.09,7.12-.56,10.6-1.37.86-.2,1.72-.42,2.57-.66v-.01c1.61-.46,3.2-.99,4.77-1.61,4.15-1.6,8.09-3.72,11.71-6.31" style="fill:none; stroke:#000; stroke-linecap:round; stroke-linejoin:round; stroke-width:3px;"/><path d="M151.7852,402.19c.02-.07.03-.15.05-.22,1.04-4.51,1.03-9.26-.02-13.77" style="fill:none; stroke:#000; stroke-linecap:round; stroke-linejoin:round; stroke-width:3px;"/><path d="M73.6352,262.73c9.48,2.64,19.21,4.33,29.03,5.03,9.68.7,19.43.45,29.06-.76" style="fill:none; stroke:#000; stroke-linecap:round; stroke-linejoin:round; stroke-width:3px;"/><path d="M72.5952,263.04c-1.28,3.47-2.18,7.09-2.68,10.76-.08.56-.15,1.13-.21,1.7" style="fill:none; stroke:#000; stroke-linecap:round; stroke-linejoin:round; stroke-width:3px;"/><path d="M122.0252,411.4l-.24.45c-1.44,2.91-1.42,6.52.09,9.4" style="fill:none; stroke:#000; stroke-linecap:round; stroke-linejoin:round; stroke-width:3px;"/><path d="M121.8652,421.27c-.2,1.29-.32,2.59-.36,3.9-.05,1.22-.02,2.45.07,3.68" style="fill:none; stroke:#000; stroke-linecap:round; stroke-linejoin:round; stroke-width:3px;"/><path d="M157.5052,428.68c.03-.01.07-.01.1-.02" style="fill:none; stroke:#000; stroke-linecap:round; stroke-linejoin:round; stroke-width:3px;"/><path d="M123.1252,428.85c5.85.85,11.77,1.25,17.68,1.19,5.59-.05,11.17-.5,16.69-1.36" style="fill:none; stroke:#000; stroke-linecap:round; stroke-linejoin:round; stroke-width:3px;"/><path d="M157.4952,428.68h.01c1.47-1.09,2.24-2.85,2.4-4.69.1-.99.02-2.01-.22-2.96-.4-1.62-1.17-3.11-2.08-4.52-.62-.96-1.3-1.89-1.98-2.81" style="fill:none; stroke:#000; stroke-linecap:round; stroke-linejoin:round; stroke-width:3px;"/><path d="M155.8052,413.64v-.01c-.17-.42-.35-.87-.52-1.34-.47-1.28-.93-2.7-1.4-4.13-.66-1.98-1.31-3.97-1.96-5.57" style="fill:none; stroke:#000; stroke-linecap:round; stroke-linejoin:round; stroke-width:3px;"/><path d="M132.8252,410.83c-.11.04-.23.07-.34.11-.79.26-1.57.56-2.25,1.03-.78.53-1.42,1.35-1.53,2.29-.12,1.2.61,2.3.73,3.5v.01" style="fill:none; stroke:#000; stroke-linecap:round; stroke-linejoin:round; stroke-width:3px;"/><path d="M129.4352,417.78c.79-.09,1.59-.18,2.39-.27-.07.75-.14,1.51.01,2.25.16.73.56,1.46,1.23,1.81.16.09.34.15.53.19.64.12,1.3-.1,1.95-.09.13,0,.26.01.39.03,1,.17,1.69,1.05,2.23,1.9.5.78.95,1.58,1.37,2.41.48.97.9,1.98,1.26,3.01" style="fill:none; stroke:#000; stroke-linecap:round; stroke-linejoin:round; stroke-width:3px;"/><path d="M123.0352,425.2c5.47.7,10.99.98,16.5.81,6.34-.16,12.66-.9,18.87-2.2" style="fill:none; stroke:#000; stroke-linecap:round; stroke-linejoin:round; stroke-width:3px;"/><path d="M132.3352,412.41c-.01,1.28-.27,2.88.12,4.1.05.15.1.31.18.45.12.25.29.46.55.56.24.09.52.05.77.01.69-.12,1.39-.24,2.08-.38,1.65-.33,3.28-.73,4.89-1.19.15-.03.3-.08.45-.12-.31-.95-.63-1.92-1.23-2.71-.72-.95-1.83-1.6-3.01-1.76-.43-.06-1.06-.05-1.72.02-1.14.13-2.41.43-3.01.89" style="fill:none; stroke:#000; stroke-linecap:round; stroke-linejoin:round; stroke-width:3px;"/><path d="M135.9052,417.97c.15.18.29.37.43.55.41.57.75,1.18,1.02,1.82l.09.21c.1.22.22.42.43.53.19.11.43.1.65.08,1.82-.13,3.63-.48,5.38-1.03v-.01c-.11-.95-.22-1.92-.68-2.75-.18-.33-.43-.63-.72-.87,0,0,0-.01-.01,0-.45-.38-1-.6-1.57-.53" style="fill:none; stroke:#000; stroke-linecap:round; stroke-linejoin:round; stroke-width:3px;"/><path d="M139.0352,410.81c.48-.23.96-.45,1.46-.65,4.21-1.72,8.85-2.4,13.39-2,2.88.25,5.72.92,8.39,2.03" style="fill:none; stroke:#000; stroke-linecap:round; stroke-linejoin:round; stroke-width:3px;"/><path d="M162.3552,410.21c-.02.01-.04.02-.06.02-2.22,1.03-4.61,1.59-7.01,2.06-1,.2-1.99.38-2.98.57-3.41.67-6.88,1.54-9.72,3.54" style="fill:none; stroke:#000; stroke-linecap:round; stroke-linejoin:round; stroke-width:3px;"/><path d="M147.2052,414.35c2.71-.84,5.61-1.06,8.42-.7.06.01.12.01.17.03,2.62.35,5.17,1.22,7.44,2.56" style="fill:none; stroke:#000; stroke-linecap:round; stroke-linejoin:round; stroke-width:3px;"/><path d="M163.2652,416.24h-.03c-1.88-.05-3.76.04-5.63.27-4.25.5-8.42,1.71-12.28,3.58" style="fill:none; stroke:#000; stroke-linecap:round; stroke-linejoin:round; stroke-width:3px;"/><path d="M59.2552,399.74c-2.44,1.64-4.94,3.18-7.51,4.6-2.69,1.5-5.45,2.87-8.27,4.12-1.46.65-2.93,1.26-4.42,1.84-1.06.41-2.13.81-3.2,1.18" style="fill:none; stroke:#000; stroke-linecap:round; stroke-linejoin:round; stroke-width:3px;"/><path d="M35.6852,411.51c-4.46,2.21-7.33,7.22-7.13,12.17.01.47.05.93.13,1.39v.01" style="fill:none; stroke:#000; stroke-linecap:round; stroke-linejoin:round; stroke-width:3px;"/><path d="M29.2052,425.84c.04,1.24,1.02,2.3,2.16,2.8s2.41.56,3.65.61c9.57.4,19.21.79,28.67-.72" style="fill:none; stroke:#000; stroke-linecap:round; stroke-linejoin:round; stroke-width:3px;"/><path d="M64.7952,428.62c2.22-2.09,4.97-3.6,7.91-4.39.07-.02.15-.04.22-.06,1.5-.38,3.04-.58,4.58-.57" style="fill:none; stroke:#000; stroke-linecap:round; stroke-linejoin:round; stroke-width:3px;"/><path d="M72.9452,425.07c1.25,1.27,2.42,2.6,3.55,4v.01" style="fill:none; stroke:#000; stroke-linecap:round; stroke-linejoin:round; stroke-width:3px;"/><path d="M78.3852,429.79c3.83.03,7.65.06,11.47.09" style="fill:none; stroke:#000; stroke-linecap:round; stroke-linejoin:round; stroke-width:3px;"/><path d="M91.5152,429.94v-.01c2.31-6.67,2.51-14.04.56-20.83" style="fill:none; stroke:#000; stroke-linecap:round; stroke-linejoin:round; stroke-width:3px;"/><path d="M67.8452,406.62h-.01c-2.22,1.46-4.48,2.86-6.77,4.2-1.78,1.05-3.58,2.05-5.4,3.03-.61.32-1.22.65-1.83.97-.83.42-1.66.85-2.5,1.26" style="fill:none; stroke:#000; stroke-linecap:round; stroke-linejoin:round; stroke-width:3px;"/><path d="M51.3652,416.12h-.01c-1.19.36-2.36.78-3.51,1.27-2.23.94-4.37,2.14-6.34,3.56-1.76,1.27-3.49,2.86-4.04,4.96-.02.04-.03.09-.04.13" style="fill:none; stroke:#000; stroke-linecap:round; stroke-linejoin:round; stroke-width:3px;"/><path d="M30.2152,423.71c1.66,1.04,3.6,1.53,5.52,1.9.58.11,1.15.21,1.73.3,11.7,1.9,23.71.13,35.42-1.88" style="fill:none; stroke:#000; stroke-linecap:round; stroke-linejoin:round; stroke-width:3px;"/><path d="M39.2352,411.44c.08-.02.16-.05.24-.05,1.12-.27,2.35.08,3.33.72,1.05.67,1.89,1.63,2.71,2.58.77.9,1.55,1.8,2.33,2.7,1.61,1.87,3.23,3.75,4.86,5.62.01.03.04.05.06.08" style="fill:none; stroke:#000; stroke-linecap:round; stroke-linejoin:round; stroke-width:3px;"/><path d="M52.9052,422.83c1.04-1.89,2.1-3.98,1.71-6.1-.13-.69-.4-1.33-.78-1.91-.76-1.18-1.95-2.12-3.18-2.84-1.84-1.07-3.89-1.8-5.6-3.07" style="fill:none; stroke:#000; stroke-linecap:round; stroke-linejoin:round; stroke-width:3px;"/><path d="M48.1352,407.92c3.01.42,5.37,2.8,7.11,5.3.14.21.29.42.42.63,1.53,2.32,2.86,4.8,4.89,6.67l.06.06" style="fill:none; stroke:#000; stroke-linecap:round; stroke-linejoin:round; stroke-width:3px;"/><path d="M60.5952,420.47v-.01c1.74-2.88,1.9-6.61.47-9.64-.08-.18-.17-.36-.27-.54-1.71-3.11-5.15-5.2-8.7-5.29" style="fill:none; stroke:#000; stroke-linecap:round; stroke-linejoin:round; stroke-width:3px;"/><path d="M63.1352,367.1c5.36,2.44,10.75,4.89,16.45,6.37,5.7,1.47,11.79,1.92,17.46.34" style="fill:none; stroke:#000; stroke-linecap:round; stroke-linejoin:round; stroke-width:3px;"/><path d="M62.1252,353.33c12.27,4.52,25.71,5.86,38.63,3.85.31-.05.63-.1.94-.15" style="fill:none; stroke:#000; stroke-linecap:round; stroke-linejoin:round; stroke-width:3px;"/><path d="M118.1152,364.02c10.95-1.58,21.56-5.42,30.98-11.2" style="fill:none; stroke:#000; stroke-linecap:round; stroke-linejoin:round; stroke-width:3px;"/><path d="M152.3952,366.95c-.24.22-.49.44-.74.64-8.26,7.22-18.9,11.67-29.84,12.49" style="fill:none; stroke:#000; stroke-linecap:round; stroke-linejoin:round; stroke-width:3px;"/><path d="M64.0452,377.69c8.25,5.7,18.45,8.52,28.46,7.87" style="fill:none; stroke:#000; stroke-linecap:round; stroke-linejoin:round; stroke-width:3px;"/><path d="M121.8252,390.47c10.15-1.61,19.86-5.87,27.92-12.25" style="fill:none; stroke:#000; stroke-linecap:round; stroke-linejoin:round; stroke-width:3px;"/><path d="M159.1252,203.08l-.03,1.86c-.03,1.75-.04,3.51-.05,5.27" style="fill:none; stroke:#000; stroke-linecap:round; stroke-linejoin:round; stroke-width:3px;"/><line x1="161.1752" y1="261.37" x2="161.1752" y2="261.36" style="fill:none; stroke:#000; stroke-linecap:round; stroke-linejoin:round; stroke-width:3px;"/><path d="M158.9952,192.94c-.38-6.29-1.54-12.43-4.76-17.77" style="fill:none; stroke:#000; stroke-linecap:round; stroke-linejoin:round; stroke-width:3px;"/><path d="M134.5152,256.36c0,.04,0,.08-.01.12" style="fill:none; stroke:#000; stroke-linecap:round; stroke-linejoin:round; stroke-width:3px;"/><path d="M134.0252,259.11c-.55,2.69-1.32,5.33-2.3,7.89" style="fill:none; stroke:#000; stroke-linecap:round; stroke-linejoin:round; stroke-width:3px;"/><path d="M138.8852,191.58c-.08.44-.15.88-.21,1.32" style="fill:none; stroke:#000; stroke-linecap:round; stroke-linejoin:round; stroke-width:3px;"/><path d="M145.3852,288.6c2.58.53,5.26.55,7.83.03,1.25-.25,2.48-.63,3.65-1.13l.95.3c.46-1.05.89-2.12,1.27-3.21,2.62-7.41,3.42-15.47,2.25-23.24l-.16.01c-1.27-14.41-1.98-28.86-2.11-43.32" style="fill:none; stroke:#000; stroke-linecap:round; stroke-linejoin:round; stroke-width:3px;"/><path d="M137.4652,221.09c.08.99.16,1.99.26,2.98l.67.96c-3.76,9.86-2.28,20.88-3.88,31.33h.02l-.03.12c-.01.04-.02.07-.02.11v.01c-.13.84-.28,1.68-.46,2.51-.4,2.54-.59,5.1-.59,7.67-.57.08-1.14.15-1.71.22-.46,1.19-.96,2.36-1.5,3.51l-.01.07c.24,1.15.55,2.29.92,3.41.97,2.94,2.36,5.75,4.12,8.3" style="fill:none; stroke:#000; stroke-linecap:round; stroke-linejoin:round; stroke-width:3px;"/><path d="M137.4152,203.97c-.13,1.79-.21,3.58-.24,5.37" style="fill:none; stroke:#000; stroke-linecap:round; stroke-linejoin:round; stroke-width:3px;"/><path d="M135.3452,281.87l-.09.42" style="fill:none; stroke:#000; stroke-linecap:round; stroke-linejoin:round; stroke-width:3px;"/><path d="M152.5352,302.75c-.45.48-.94.92-1.46,1.32" style="fill:none; stroke:#000; stroke-linecap:round; stroke-linejoin:round; stroke-width:3px;"/><path d="M146.1952,306.39c-1.72.43-3.51.5-5.25.19-3.92-.7-7.42-3.36-9.2-6.91-.12-.24-.23-.48-.33-.72l.38-.59c1.15-5.36,2.31-10.71,3.46-16.07.48.71,1,1.39,1.54,2.06l.84.74c2.27,1.75,4.94,2.93,7.75,3.51" style="fill:none; stroke:#000; stroke-linecap:round; stroke-linejoin:round; stroke-width:3px;"/><path d="M155.3052,288.89c-1.04,4.34-1.72,8.77-2.03,13.22" style="fill:none; stroke:#000; stroke-linecap:round; stroke-linejoin:round; stroke-width:3px;"/><path d="M130.4452,274.21c-2.12,3.36-3.16,7.39-2.95,11.35,0,.06.01.11.01.17" style="fill:none; stroke:#000; stroke-linecap:round; stroke-linejoin:round; stroke-width:3px;"/><path d="M126.9152,285.6c-2.19,2.03-3.43,4.95-3.85,7.92-.42,2.96-.07,5.98.51,8.92v.01" style="fill:none; stroke:#000; stroke-linecap:round; stroke-linejoin:round; stroke-width:3px;"/><path d="M123.8752,302.44c.8.29,1.71-.08,2.29-.7.57-.62.86-1.44,1.1-2.25" style="fill:none; stroke:#000; stroke-linecap:round; stroke-linejoin:round; stroke-width:3px;"/><path d="M127.4452,298.83c.55-.26,1.24.12,1.53.65.04.06.07.13.1.2.2.49.21,1.05.22,1.58v.01" style="fill:none; stroke:#000; stroke-linecap:round; stroke-linejoin:round; stroke-width:3px;"/><path d="M129.5752,301.72c-1.08,3.24-2.62,6.33-4.55,9.14" style="fill:none; stroke:#000; stroke-linecap:round; stroke-linejoin:round; stroke-width:3px;"/><path d="M124.6852,310.85c-.18,1,.02,2.05.53,2.92.55.93,1.5,1.66,2.57,1.81,1.04.15,2.17-.32,2.71-1.22h.01c.01-.03.03-.06.05-.09" style="fill:none; stroke:#000; stroke-linecap:round; stroke-linejoin:round; stroke-width:3px;"/><path d="M130.5152,314.37c1.76-2.09,3.25-4.41,4.42-6.88" style="fill:none; stroke:#000; stroke-linecap:round; stroke-linejoin:round; stroke-width:3px;"/><path d="M135.1752,307.57c.41-.16.89.08,1.14.45.24.36.3.82.34,1.26.27,3.51-.62,7.08-2.5,10.06v.01" style="fill:none; stroke:#000; stroke-linecap:round; stroke-linejoin:round; stroke-width:3px;"/><path d="M134.2752,319.43c.44,1.11,1.48,1.95,2.65,2.18.69.13,1.42.04,2.07-.24h.01c.44-.19.85-.46,1.18-.81" style="fill:none; stroke:#000; stroke-linecap:round; stroke-linejoin:round; stroke-width:3px;"/><path d="M140.2152,320.6l.01-.01c1.34-1.52,2.07-3.48,2.66-5.43.58-1.95,1.06-3.95,2.02-5.75" style="fill:none; stroke:#000; stroke-linecap:round; stroke-linejoin:round; stroke-width:3px;"/><path d="M140.9652,321.43c.44.33.9.62,1.39.87" style="fill:none; stroke:#000; stroke-linecap:round; stroke-linejoin:round; stroke-width:3px;"/><path d="M145.8652,321.32c-.97.48-1.97.92-2.98,1.31" style="fill:none; stroke:#000; stroke-linecap:round; stroke-linejoin:round; stroke-width:3px;"/><path d="M151.5252,317.95c.26-3.27-.76-6.62-2.79-9.18" style="fill:none; stroke:#000; stroke-linecap:round; stroke-linejoin:round; stroke-width:3px;"/><path d="M146.1152,309.45v-.01c.01-.25.01-.49.02-.74l.06-2.31c1.76-.42,3.44-1.22,4.88-2.32l1.94.17c1.03,3.7,1.69,7.51,1.96,11.34l-.02.03c-.28,1.03-.78,1.99-1.45,2.82l-1.98-.45v-.03l-.1-.01c-1.75,1.29-3.61,2.42-5.56,3.38" style="fill:none; stroke:#000; stroke-linecap:round; stroke-linejoin:round; stroke-width:3px;"/><path d="M153.5052,318.43c-.67.83-1.51,1.53-2.45,2.02" style="fill:none; stroke:#000; stroke-linecap:round; stroke-linejoin:round; stroke-width:3px;"/><path d="M178.9852,231.51c.4.32.8.65,1.2.99,4.95,4.21,9.15,9.34,11.78,15.27.77,1.74,1.4,3.56,1.88,5.41,1.26,4.95,1.38,10.18.06,15.1-1.83,6.76-6.53,12.83-12.91,15.7-5.23,2.36-11.21,2.51-16.87,1.66-1.69-.25-3.38-.6-5.04-1.05" style="fill:none; stroke:#000; stroke-linecap:round; stroke-linejoin:round; stroke-width:3px;"/><path d="M198.5252,230.94c-4.86-7.46-13.84-12.06-22.74-11.63-.09,0-.18,0-.27.01" style="fill:none; stroke:#000; stroke-linecap:round; stroke-linejoin:round; stroke-width:3px;"/><path d="M175.4952,219.17c.1.04.19.09.29.14,1.94.9,3.71,2.17,5.2,3.71.22.23.44.47.65.71" style="fill:none; stroke:#000; stroke-linecap:round; stroke-linejoin:round; stroke-width:3px;"/><path d="M181.6252,224l-.72-.06c-2.29-.18-4.61-.32-6.89-.05-2.52.31-5.05,1.17-6.95,2.86" style="fill:none; stroke:#000; stroke-linecap:round; stroke-linejoin:round; stroke-width:3px;"/><path d="M167.2452,227.12c3.07.68,6.03,1.86,8.73,3.47,1.28.76,2.5,1.61,3.65,2.56" style="fill:none; stroke:#000; stroke-linecap:round; stroke-linejoin:round; stroke-width:3px;"/><path d="M176.0552,230.56c-.03.01-.05.02-.08.03l-5.13,1.74c6.58,1.59,12.52,5.68,16.33,11.27" style="fill:none; stroke:#000; stroke-linecap:round; stroke-linejoin:round; stroke-width:3px;"/><path d="M209.1752,255.74v.01c.15,6.02.08,12.08-1.04,18.01-1.13,5.92-3.34,11.73-7.1,16.43-3.69,4.62-8.75,8.03-14.25,10.18-5.49,2.16-11.41,3.1-17.31,3.27-5.44.16-10.89-.34-16.21-1.46" style="fill:none; stroke:#000; stroke-linecap:round; stroke-linejoin:round; stroke-width:3px;"/><path d="M197.8452,258.65c-.09,0-.17-.02-.24-.04-.54-.16-.9-.76-1.16-1.29-.69-1.42-1.36-2.86-2.01-4.3" style="fill:none; stroke:#000; stroke-linecap:round; stroke-linejoin:round; stroke-width:3px;"/><path d="M103.4052,306.63c-3.63-12.15-3.93-25.28-.84-37.59" style="fill:none; stroke:#000; stroke-linecap:round; stroke-linejoin:round; stroke-width:3px;"/><path d="M72.4552,248.32c-.03.08-.05.17-.08.25-.48,1.49-.86,3.2.05,4.46.28.39.66.69,1.08.92.44.25.93.44,1.41.6,7.27,2.51,15.32,2.73,22.72.63" style="fill:none; stroke:#000; stroke-linecap:round; stroke-linejoin:round; stroke-width:3px;"/><path d="M97.7352,255.2c.75-1.47,1.5-2.95,2.24-4.43" style="fill:none; stroke:#000; stroke-linecap:round; stroke-linejoin:round; stroke-width:3px;"/><path d="M99.9852,250.71c.01.01.01.03.02.04.75,1.81,1.5,3.62,2.24,5.44" style="fill:none; stroke:#000; stroke-linecap:round; stroke-linejoin:round; stroke-width:3px;"/><path d="M135.1952,256.14c-.22.07-.44.14-.66.22" style="fill:none; stroke:#000; stroke-linecap:round; stroke-linejoin:round; stroke-width:3px;"/><path d="M102.1852,256.3c.01,0,.02.01.03.01,10.41,3.33,21.87,3.35,32.3.05" style="fill:none; stroke:#000; stroke-linecap:round; stroke-linejoin:round; stroke-width:3px;"/><path d="M112.0352,203.76c-.25-.05-.49-.07-.74-.07-1.35.02-2.66.79-3.56,1.82-1.05,1.23-1.63,2.79-2.16,4.32-2.5,7.31-4.21,14.89-5.09,22.56-.26,2.13-.44,4.26-.56,6.39-.18,3.05-.22,6.09-.14,9.14" style="fill:none; stroke:#000; stroke-linecap:round; stroke-linejoin:round; stroke-width:3px;"/><path d="M57.8252,185.26c-.07.09-.13.17-.19.26" style="fill:none; stroke:#000; stroke-linecap:round; stroke-linejoin:round; stroke-width:3px;"/><path d="M67.1152,189.01c.24,2.55.25,5.11.04,7.67l-.17.38-.37.85c-3.34.9-6.81,1.28-10.26,1.12-1.67-.06-3.33-.25-4.97-.56l.52-1.19c1.12-4.25,3.08-8.25,5.73-11.76l.1.07c1.12-.49,2.31-.82,3.52-.96.66-.09,1.34-.11,2.01-.09,1.04.03,2.18.24,2.88,1.02.63.69.79,1.67.89,2.6.03.28.06.56.08.85Z" style="fill:none; stroke:#000; stroke-linecap:round; stroke-linejoin:round; stroke-width:3px;"/><path d="M50.0452,203.83c0,.01-.01.02-.01.03" style="fill:none; stroke:#000; stroke-linecap:round; stroke-linejoin:round; stroke-width:3px;"/><path d="M66.7952,208l.6,5.17c-4.75,1.64-9.91,2.1-14.89,1.38-1.17-.17-2.33-.4-3.47-.7l-.43-.35c-.46-3.27.05-6.65,1.43-9.64l.34.14c.91-.75,2.09-1.08,3.25-1.3.59-.11,1.19-.2,1.79-.26,3.71-.39,7.52.21,10.93,1.72l.45,3.84Z" style="fill:none; stroke:#000; stroke-linecap:round; stroke-linejoin:round; stroke-width:3px;"/><path d="M135.7952,195.37c-.48,2.45-.17,5.05.88,7.31" style="fill:none; stroke:#000; stroke-linecap:round; stroke-linejoin:round; stroke-width:3px;"/><path d="M159.1252,203.08c-4.55-1.2-9.32-1.5-13.99-.92-2.63.32-5.22.93-7.72,1.81" style="fill:none; stroke:#000; stroke-linecap:round; stroke-linejoin:round; stroke-width:3px;"/><path d="M138.6752,192.9c2.35-1.16,4.91-1.92,7.52-2.22.98-.12,1.96-.17,2.95-.15,3.41.05,6.8.89,9.85,2.41" style="fill:none; stroke:#000; stroke-linecap:round; stroke-linejoin:round; stroke-width:3px;"/><path d="M161.9652,194.72c-.94-.67-1.94-1.26-2.97-1.78" style="fill:none; stroke:#000; stroke-linecap:round; stroke-linejoin:round; stroke-width:3px;"/><path d="M138.6752,192.9c-.85.42-1.68.9-2.47,1.42" style="fill:none; stroke:#000; stroke-linecap:round; stroke-linejoin:round; stroke-width:3px;"/><path d="M161.7752,195.03c-.23,2.74-1.01,5.44-2.29,7.87" style="fill:none; stroke:#000; stroke-linecap:round; stroke-linejoin:round; stroke-width:3px;"/><path d="M137.4152,203.97c-.11.04-.21.07-.31.11" style="fill:none; stroke:#000; stroke-linecap:round; stroke-linejoin:round; stroke-width:3px;"/><path d="M159.4352,203.16c-.1-.03-.21-.06-.31-.08" style="fill:none; stroke:#000; stroke-linecap:round; stroke-linejoin:round; stroke-width:3px;"/><path d="M161.4652,211.22c-.79-.37-1.6-.71-2.42-1.01" style="fill:none; stroke:#000; stroke-linecap:round; stroke-linejoin:round; stroke-width:3px;"/><path d="M135.2652,210.21c-.12,3.01.57,6.05,1.99,8.71" style="fill:none; stroke:#000; stroke-linecap:round; stroke-linejoin:round; stroke-width:3px;"/><path d="M159.0652,218.04c-6.12-1.59-10.64-1.74-15.68.18-1.57.6-3.2,1.4-4.95,2.42-.24.14-.5.3-.75.45h-.22" style="fill:none; stroke:#000; stroke-linecap:round; stroke-linejoin:round; stroke-width:3px;"/><path d="M137.1752,209.34c2.39-.69,4.86-1.11,7.34-1.25v-.01c4.92-.31,9.91.41,14.53,2.13" style="fill:none; stroke:#000; stroke-linecap:round; stroke-linejoin:round; stroke-width:3px;"/><path d="M137.1752,209.34c-.68.17-1.33.38-1.99.62-.02,0-.05.01-.07.02" style="fill:none; stroke:#000; stroke-linecap:round; stroke-linejoin:round; stroke-width:3px;"/><path d="M161.4852,211.5c.24,2.26-.03,4.57-.78,6.71" style="fill:none; stroke:#000; stroke-linecap:round; stroke-linejoin:round; stroke-width:3px;"/><path d="M160.6452,218.47c-.27-.08-.54-.15-.8-.23-.27-.07-.53-.14-.78-.2" style="fill:none; stroke:#000; stroke-linecap:round; stroke-linejoin:round; stroke-width:3px;"/><path d="M92.3852,232.1c-.04.11-.08.21-.12.32-.51,1.45-.7,3.02-.55,4.55" style="fill:none; stroke:#000; stroke-linecap:round; stroke-linejoin:round; stroke-width:3px;"/><path d="M92.0552,237.11c2.57.76,5.2,1.32,7.87,1.67.74.1,1.5.18,2.25.25,2.07.18,4.42.14,5.84-1.38" style="fill:none; stroke:#000; stroke-linecap:round; stroke-linejoin:round; stroke-width:3px;"/><path d="M108.5452,237.67c-.14-1.43.02-2.89.48-4.25" style="fill:none; stroke:#000; stroke-linecap:round; stroke-linejoin:round; stroke-width:3px;"/><path d="M109.1152,233.08c-2.87-.36-5.75-.59-8.63-.69-2.74-.1-5.48-.09-8.22.03-.39.02-.79.04-1.18.06" style="fill:none; stroke:#000; stroke-linecap:round; stroke-linejoin:round; stroke-width:3px;"/><path d="M152.0752,173.49c-1.25-.91-2.56-1.75-3.93-2.48-3.62-1.96-7.58-3.27-11.65-3.84" style="fill:none; stroke:#000; stroke-linecap:round; stroke-linejoin:round; stroke-width:3px;"/><path d="M199.9552,231.2c3.71,5.37,6.39,11.45,7.88,17.81.53,2.22.91,4.47,1.14,6.74" style="fill:none; stroke:#000; stroke-linecap:round; stroke-linejoin:round; stroke-width:3px;"/><path d="M207.6952,249.04c-1.75,4.1-2.72,8.53-2.83,12.99" style="fill:none; stroke:#000; stroke-linecap:round; stroke-linejoin:round; stroke-width:3px;"/><path d="M204.8552,262.05v-.02c-1.28-4.32-3.46-8.38-6.37-11.81" style="fill:none; stroke:#000; stroke-linecap:round; stroke-linejoin:round; stroke-width:3px;"/><path d="M198.3152,250.28c-.54,2.73-.67,5.54-.41,8.3" style="fill:none; stroke:#000; stroke-linecap:round; stroke-linejoin:round; stroke-width:3px;"/><path d="M143.4552,313.73s1.21,1.36.96,3.07" style="fill:none; stroke:#000; stroke-linecap:round; stroke-linejoin:round; stroke-width:3px;"/><path d="M31.6752,42.13c-.71-4.45-.61-9.01.29-13.42l.28-.32c2.13,1.53,4.2,3.15,6.18,4.86l-.12.15c-1.58.32-3.05,1.16-4.12,2.36-1.07,1.21-1.93,4.69-2.06,6.3l-.45.07Z" style="fill:#e5c073; stroke-width:0px;"/><path d="M32.2452,28.39l-.28.32c-.9,4.41-1,8.97-.29,13.42.08.51.17,1.02.27,1.52l-.57.11c-1.38-6.84-1.46-13.94-.1-20.78l.7-.55c14.02,5.43,27.71,11.74,40.95,18.88l-5.27,21.93-8.68,2.14-2.84-11.68c-4.85-7.65-10.84-14.56-17.71-20.45-1.98-1.71-4.05-3.33-6.18-4.86Z" style="fill:#e5c073; stroke-width:0px;"/><path d="M56.1352,53.7l2.84,11.68-15.04,3.72c-6.37-7.11-10.68-15.99-12.56-25.34l.57-.11c-.1-.5-.19-1.01-.27-1.52l.45-.07c.13-1.61.99-5.09,2.06-6.3,1.07-1.2,2.54-2.04,4.12-2.36l.12-.15c6.87,5.89,12.86,12.8,17.71,20.45Z" style="fill:#f1e1a6; stroke-width:0px;"/><path d="M31.2752,22.98c-1.36,6.84-1.28,13.94.1,20.78,1.88,9.35,6.19,18.23,12.56,25.34l15.04-3.72,8.68-2.14,5.27-21.93c-13.24-7.14-26.93-13.45-40.95-18.88" style="fill:none; stroke:#000; stroke-linecap:round; stroke-linejoin:round; stroke-width:3px;"/><path d="M31.9452,43.65c-.1-.5-.19-1.01-.27-1.52-.71-4.45-.61-9.01.29-13.42" style="fill:none; stroke:#000; stroke-linecap:round; stroke-linejoin:round; stroke-width:3px;"/><path d="M32.2452,28.39c2.13,1.53,4.2,3.15,6.18,4.86,6.87,5.89,12.86,12.8,17.71,20.45l2.84,11.68" style="fill:none; stroke:#000; stroke-linecap:round; stroke-linejoin:round; stroke-width:3px;"/><path d="M32.1252,42.06c.13-1.61.99-5.09,2.06-6.3,1.07-1.2,2.54-2.04,4.12-2.36" style="fill:none; stroke:#000; stroke-linecap:round; stroke-linejoin:round; stroke-width:3px;"/><path d="M188.5952,31.75c.66,3.5.97,7.06.93,10.62l-.98-.02c0-.57-.35-1.16-.79-1.55-1.15-.99-2.91-1.04-4.27-.37s-2.35,1.93-2.98,3.3l-.28-.12c1.5-3.37,2.99-6.73,4.5-10.09.36-.8.76-1.64,1.49-2.13.73-.48,1.9-.4,2.29.38l.09-.02Z" style="fill:#e5c073; stroke-width:0px;"/><path d="M188.5452,42.35l.98.02c-.03,4.43-.6,8.85-1.71,13.14-1.99,7.73-5.7,15.01-10.78,21.17-8.5-3.99-7.76-8.03-7.76-8.03,3.61-8.37,7.26-16.71,10.95-25.04l.28.12c.63-1.37,1.62-2.63,2.98-3.3s3.12-.62,4.27.37c.44.39.79.98.79,1.55Z" style="fill:#f1e1a6; stroke-width:0px;"/><path d="M188.5952,31.75l-.09.02c-.39-.78-1.56-.86-2.29-.38-.73.49-1.13,1.33-1.49,2.13-1.51,3.36-3,6.72-4.5,10.09-3.69,8.33-7.34,16.67-10.95,25.04,0,0-.74,4.04,7.76,8.03-.66.81-1.36,1.61-2.07,2.38l-22.6-5.49-1.99-32.2c12.85-2.69,25.38-6.95,37.21-12.65l.35-.04c.25,1.02.48,2.04.66,3.07Z" style="fill:#e5c073; stroke-width:0px;"/><path d="M187.5852,28.72c-11.83,5.7-24.36,9.96-37.21,12.65l1.99,32.2,22.6,5.49c.71-.77,1.41-1.57,2.07-2.38,5.08-6.16,8.79-13.44,10.78-21.17,1.11-4.29,1.68-8.71,1.71-13.14.04-3.56-.27-7.12-.93-10.62-.18-1.03-.41-2.05-.66-3.07" style="fill:none; stroke:#000; stroke-linecap:round; stroke-linejoin:round; stroke-width:3px;"/><path d="M188.5052,31.77c-.39-.78-1.56-.86-2.29-.38-.73.49-1.13,1.33-1.49,2.13-1.51,3.36-3,6.72-4.5,10.09-3.69,8.33-7.34,16.67-10.95,25.04,0,0-.74,4.04,7.76,8.03" style="fill:none; stroke:#000; stroke-linecap:round; stroke-linejoin:round; stroke-width:3px;"/><path d="M188.4552,42.83c.06-.16.09-.32.09-.48,0-.57-.35-1.16-.79-1.55-1.15-.99-2.91-1.04-4.27-.37s-2.35,1.93-2.98,3.3" style="fill:none; stroke:#000; stroke-linecap:round; stroke-linejoin:round; stroke-width:3px;"/><path d="M59.2625,107.03c-.02-.02-.04-.05-.05-.07-5.96-7.5-7.99-17.97-5.25-27.15l6.476-22.4276,54.9826-8.4706,27.2464,11.5294,19.1066,16.2428-5.1516,35.2216-46.09,14.2988-51.27-19.1744Z" style="fill:#e5c073; stroke:#000; stroke-linecap:round; stroke-linejoin:round; stroke-width:3px;"/><path d="M64.7936,84.8387s-4.4787,8.3507,1.1096,16.3659c1.3561,1.945,15.9708.7072,17.0973-6.1751s2.1535-9.8823.3165-11.5882-11.2685-3.3227-18.5234,1.3975Z" style="fill:#fff; stroke-width:0px;"/><path d="M63.9557,85.535c2.403-2.1415,5.4276-3.5771,8.606-4.085s6.4998-.0863,9.4505,1.1996" style="fill:none; stroke:#000; stroke-linecap:round; stroke-linejoin:round; stroke-width:3px;"/><path d="M82.0182,82.6385c1.2077.4785,2.1841,1.5085,2.5975,2.74" style="fill:none; stroke:#000; stroke-linecap:round; stroke-linejoin:round; stroke-width:3px;"/><path d="M74.644,87.3707c-.2793,1.5266-.4263,3.0774-.4387,4.6292-.0057.7074.0182,1.4254.2269,2.1013.2297.7438.6723,1.4019,1.1346,2.0283.4405.5969.9109,1.1829,1.5002,1.6336s1.3133.7598,2.0546.7332c1.0841-.0388,2.0427-.7947,2.6014-1.7246s.7825-2.0181.9639-3.0876c.2389-1.4089.4198-2.85.2104-4.2636s-.8529-2.8136-1.9964-3.6708c-1.2784-.9583-3.1174-1.1-4.5275-.3488s-2.3184,2.3565-2.2362,3.9521" style="stroke:#000; stroke-linecap:round; stroke-linejoin:round; stroke-width:3px;"/><path d="M65.4782,100.2907c-.0395.348.155.6908.425.9138s.6073.3462.9412.4518c1.662.526,3.4283.7201,5.1648.5675" style="fill:none; stroke:#000; stroke-linecap:round; stroke-linejoin:round; stroke-width:3px;"/><path d="M79.4799,86.9044s-1.5221.1103-1.2353,2.4485,1.9853,2.9118,2.9118,1.5441.7059-4.0588-1.6765-3.9926Z" style="fill:#fff; stroke-width:0px;"/><path d="M75.399,93.1912s3.2398,3.5735,5.5684,2.1618c0,0-3.8037,4.3456-5.5684-2.1618Z" style="fill:#491f5e; stroke-width:0px;"/><path d="M63.5861,86.005c-.0085.8411.055,1.6828.1894,2.5131" style="fill:none; stroke:#000; stroke-linecap:round; stroke-linejoin:round; stroke-width:3px;"/><path d="M116.0023,86.9381s-1.529,10.247,2.1802,14.875,23.3371,4.701,20.4349-13.1296c0,0-2.2551-6.1419-8.6669-6.045s-12.9553-1.2622-13.9482,4.2996Z" style="fill:#fff; stroke-width:0px;"/><path d="M114.9581,88.1123l.5655-4.1777c.4993-2.4569,4.0448-1.131,2.8101,1.0505,0,0-2.3136,3.5242-2.3136,3.5242-.3156.517-1.1631.1898-1.062-.397h0Z" style="stroke-width:0px;"/><path d="M116.9951,83.1483c6.7903-2.576,14.8606-1.4495,20.6859,2.8876" style="fill:none; stroke:#000; stroke-linecap:round; stroke-linejoin:round; stroke-width:3px;"/><path d="M140.0451,86.4782c.126,1.3355.0781,2.6509-.1251,3.9071-.0572.3535-.3901.5936-.7435.5365-.2468-.0399-.4383-.2142-.512-.4361-.367-1.1181-.8702-2.1583-1.4749-3.0876-.4679-.7191-.2643-1.6814.4548-2.1493.9682-.6675,2.3713.0665,2.4007,1.2294h0Z" style="stroke-width:0px;"/><path d="M121.6065,87.6519c-1.085,2.1575-1.4697,4.6603-1.0828,7.0441.2281,1.405.7666,2.8364,1.8753,3.7291s2.888,1.0472,3.9008.047c.5778-.5706.8189-1.3929.9963-2.1854.2898-1.2948.4685-2.6161.4989-3.9426.0305-1.333-.0996-2.7076-.7066-3.8947s-1.7684-2.1566-3.0993-2.2364-2.7219.9386-2.7881,2.2702" style="stroke:#000; stroke-linecap:round; stroke-linejoin:round; stroke-width:3px;"/><path d="M123.5822,102.5243c2.8343.0687,5.6722-.0091,8.4986-.233.6888-.0546,1.4936-.1928,1.8049-.8097" style="fill:none; stroke:#000; stroke-linecap:round; stroke-linejoin:round; stroke-width:3px;"/><path d="M121.3035,94.37s1.4662,2.7059,5.7353,1.0294c0,0-.2848,3.2927-2.6471,2.8669-4.3456-.7832-3.0882-3.8963-3.0882-3.8963Z" style="fill:#491f5e; stroke-width:0px;"/><path d="M124.5832,88.1679s-1.2212.2012-.9659,2.1884,1.0712,2.44,2.0451,2.3142,1.8161-3.9996-1.0791-4.5026Z" style="fill:#fff; stroke-width:0px;"/><path d="M144.6452,148.97c4.09-2.69,7.86-5.87,11.22-9.44.69-.73,1.36-1.49,2.01-2.26.03-.02.05-.05.07-.08,2.34-2.76,4.45-5.73,6.28-8.86.3-.52.6-1.05.89-1.58l2.35,1.09c-.8,3.11-.85,6.39-.22,9.54.84,4.28,2.91,8.32,6.02,11.38l-.01.04c-2.33-.25-4.42-1.63-5.99-3.37-1.59-1.78-2.72-3.92-3.83-6.04l-.23.11c1.99,7.4,6.38,14.14,12.35,18.96l-.02.14c-3.61.23-7.3.32-10.77-.68-3.48-1.01-6.75-3.28-8.14-6.62l-.08-.08c-3.35,3.36-6.69,6.72-10.04,10.08l-.18-.14c.55-2.47,1.09-4.94,1.64-7.4l-.08-.17c-3.48,1.81-6.95,3.62-10.43,5.42l-.14-.2c2.21-2.17,3.42-5.31,3.24-8.4l-.4-.72c1.94-1.05,3.86-2.15,5.75-3.31-.39.88-.81,1.74-1.26,2.59Z" style="fill:#693c1d; stroke-width:0px;"/><path d="M58.0852,75.88c-1.94.94-3.77,2.12-5.43,3.51l1.31.42c-2.74,9.18-.71,19.65,5.25,27.15l-.16.12c-3.39,5.09-4.08,11.7-2.55,17.62.96,3.7,2.73,7.14,5,10.22l-1.66,1.5c-2.93,3.6-5.43,7.55-7.43,11.74l-.17.05c-1.27-3.83-1.45-7.93-1.51-11.97-.1-7.54.23-15.08.98-22.59-4.29,1.8-8.59,3.61-12.88,5.41,1.26-4.28,3.57-8.24,6.67-11.45l-.15-.37c-7.2,2.95-14.31,6.09-21.34,9.42.15-6.45,1.8-12.81,4.16-18.81,2.36-6.01,5.43-11.71,8.56-17.36,3.19-5.75,6.45-11.48,10.27-16.82l-.24-1.87c-7.78,1.01-15.36,3.59-22.16,7.53,3.79-8.26,8.56-16.19,14.99-22.62,6.48-6.48,14.79-11.38,23.87-12.74l.09-.81c-6.62-.84-13.41-.31-19.82,1.58,9.41-7.13,20.61-11.87,32.28-13.67,12.07-1.86,24.6-.57,36.03,3.72l.47-.4c-5.61-6.72-13.05-11.89-21.31-14.81l.21-.64c16.78,5.62,33.67,11.52,48.49,21.16,14.36,9.35,26.79,22.7,31.95,38.97l.68-.22c9.41,17.34,9.22,39.52-.48,56.7-2.1,3.72-4.69,7.51-4.57,11.79l-.24.04c-.63-3.15-.58-6.43.22-9.54l-2.35-1.09c-.29.53-.59,1.06-.89,1.58-1.83,3.13-3.94,6.1-6.28,8.86-.02.03-.04.06-.07.08-.65.77-1.32,1.53-2.01,2.26-3.2,2.45-6.53,4.74-9.96,6.85,2.82-6.31,4.19-13.27,3.93-20.18l-1.14-.2c-1.41,1.16-2.55,2.64-3.76,4.03-1.35,1.56-2.88,3.07-4.79,3.8,3.9-6.39,6.16-13.77,6.51-21.25.07-1.14.08-2.29.04-3.44l.66-.22c-2.46-7.47-5.52-14.75-9.13-21.74-1.56,2.71-3.49,5.21-5.73,7.41l-.22-.22c2.14-8.07,2-16.73-.42-24.72l-1.49-.02c-5.54.23-11.02,2.12-15.49,5.39-4.84,3.54-8.49,8.65-10.26,14.36-1.48-2.18-2.19-4.88-2-7.51l-.17-.01c-3.12,5.07-5.02,10.87-5.52,16.8-1.21-.07-2.43-.1-3.65-.1-.23-.19-.45-.39-.67-.58-7.33-6.47-12.14-15.76-13.06-25.5-9.41,3.87-16.3,13.28-17.13,23.42l-.27.18c-3.15-4.65-4.78-10.33-4.57-15.94.05-1.43.22-2.86.51-4.26Z" style="fill:#693c1d; stroke-width:0px;"/><path d="M129.6152,154.72c-7.06,2.96-14.4,5.22-21.89,6.75l-.13-.05c-5.68-2.16-11.37-4.32-16.95-6.74-3.17-1.37-6.31-2.83-9.39-4.41-2.25-1.16-4.48-2.39-6.63-3.73-3.04-1.9-5.93-4.02-8.54-6.48-1.66-1.58-3.22-3.3-4.58-5.14-2.27-3.08-4.04-6.52-5-10.22-1.53-5.92-.84-12.53,2.55-17.62l1,.46c8.43-5.65,18.6-8.36,28.73-8.89.55-.03,1.1-.05,1.64-.07-2.17.83-4.11,2.27-5.5,4.13l-.12.17c.01,0,.01.01.02.01,3.2,1.94,6.68,3.41,10.29,4.36l.29.18c2.84-.94,5.6-2.1,8.25-3.48h.02c.28-.04.51-.3.58-.57.08-.28.04-.58-.02-.86-.33-1.4-1.31-2.64-2.61-3.27l.02-.25h.01c5.81.57,11.59,1.65,17.29,2.99,8.77,2.06,17.48,4.75,25.34,9.17.8.46,1.59.92,2.37,1.42-.35,7.48-2.61,14.86-6.51,21.25,1.91-.73,3.44-2.24,4.79-3.8,1.21-1.39,2.35-2.87,3.76-4.03l1.14.2c.26,6.91-1.11,13.87-3.93,20.18-1.89,1.16-3.81,2.26-5.75,3.31-3.43,1.85-6.95,3.53-10.54,5.03Z" style="fill:#f1e1a6; stroke-width:0px;"/><path d="M93.2752,98.56c1.22,0,2.44.03,3.65.1,1.58.07,3.14.19,4.72.34l-.02.25c1.3.63,2.28,1.87,2.61,3.27.06.28.1.58.02.86-.07.27-.3.53-.58.57h-.02c-2.65,1.38-5.41,2.54-8.25,3.48l-.29-.18c-3.61-.95-7.09-2.42-10.29-4.36-.01,0-.01-.01-.02-.01l.12-.17c1.39-1.86,3.33-3.3,5.5-4.13.95-.03,1.9-.04,2.85-.02Z" style="fill:#25292d; stroke-width:0px;"/><path d="M74.6252,146.54l-.24.38c-1.75,3.19-2.95,6.68-3.55,10.27l-.19.07c-5.97-5.3-9.87-12.89-10.7-20.83l-.1-.01,1.66-1.5c1.36,1.84,2.92,3.56,4.58,5.14,2.61,2.46,5.5,4.58,8.54,6.48Z" style="fill:#693c1d; stroke-width:0px;"/><path d="M172.5052,71.23c-.2-.73-.41-1.45-.65-2.16-5.16-16.27-17.59-29.62-31.95-38.97-14.82-9.64-31.71-15.54-48.49-21.16-.19-.06-.38-.13-.57-.19" style="fill:none; stroke:#000; stroke-linecap:round; stroke-linejoin:round; stroke-width:3px;"/><path d="M91.2052,9.58c8.26,2.92,15.7,8.09,21.31,14.81.02.02.03.04.05.06" style="fill:none; stroke:#000; stroke-linecap:round; stroke-linejoin:round; stroke-width:3px;"/><path d="M112.0452,24.79c-11.43-4.29-23.96-5.58-36.03-3.72-11.67,1.8-22.87,6.54-32.28,13.67-.32.23-.64.47-.95.72" style="fill:none; stroke:#000; stroke-linecap:round; stroke-linejoin:round; stroke-width:3px;"/><path d="M42.4352,35.14c.43-.14.86-.28,1.3-.4,6.41-1.89,13.2-2.42,19.82-1.58h.01c2.4.3,4.78.78,7.11,1.45" style="fill:none; stroke:#000; stroke-linecap:round; stroke-linejoin:round; stroke-width:3px;"/><path d="M63.4652,33.97c-9.08,1.36-17.39,6.26-23.87,12.74-6.43,6.43-11.2,14.36-14.99,22.62-.03.07-.07.15-.1.22" style="fill:none; stroke:#000; stroke-linecap:round; stroke-linejoin:round; stroke-width:3px;"/><path d="M24.3752,69.46c.08-.04.15-.09.23-.13,6.8-3.94,14.38-6.52,22.16-7.53.89-.13,1.78-.22,2.67-.3" style="fill:none; stroke:#000; stroke-linecap:round; stroke-linejoin:round; stroke-width:3px;"/><path d="M157.8752,137.27c-1.28,1.29-2.61,2.53-3.99,3.71" style="fill:none; stroke:#000; stroke-linecap:round; stroke-linejoin:round; stroke-width:3px;"/><path d="M163.1852,130.3c-.19,1.12-.92,2.07-1.65,2.95-1.14,1.36-2.34,2.68-3.59,3.94" style="fill:none; stroke:#000; stroke-linecap:round; stroke-linejoin:round; stroke-width:3px;"/><path d="M47.3452,85.33c1.46-2.23,3.26-4.23,5.31-5.94,1.66-1.39,3.49-2.57,5.43-3.51.45-.23.91-.44,1.38-.64" style="fill:none; stroke:#000; stroke-linecap:round; stroke-linejoin:round; stroke-width:3px;"/><path d="M63.3252,64.54c-2.61,3.3-4.41,7.22-5.24,11.34-.29,1.4-.46,2.83-.51,4.26-.21,5.61,1.42,11.29,4.57,15.94.01.01.02.03.03.04" style="fill:none; stroke:#000; stroke-linecap:round; stroke-linejoin:round; stroke-width:3px;"/><path d="M62.4152,95.9c.83-10.14,7.72-19.55,17.13-23.42.03-.02.06-.03.09-.04" style="fill:none; stroke:#000; stroke-linecap:round; stroke-linejoin:round; stroke-width:3px;"/><path d="M79.5252,72.26c.01.07.01.15.02.22.92,9.74,5.73,19.03,13.06,25.5.22.19.44.39.67.58,1.03.87,2.11,1.69,3.24,2.44" style="fill:none; stroke:#000; stroke-linecap:round; stroke-linejoin:round; stroke-width:3px;"/><path d="M96.7952,100.85c.02-.73.06-1.46.13-2.19.5-5.93,2.4-11.73,5.52-16.8" style="fill:none; stroke:#000; stroke-linecap:round; stroke-linejoin:round; stroke-width:3px;"/><path d="M102.6252,81.78c0,.03-.01.06-.01.09-.19,2.63.52,5.33,2,7.51.03.06.07.11.11.17" style="fill:none; stroke:#000; stroke-linecap:round; stroke-linejoin:round; stroke-width:3px;"/><path d="M104.5752,89.5c.01-.04.02-.08.04-.12,1.77-5.71,5.42-10.82,10.26-14.36,4.47-3.27,9.95-5.16,15.49-5.39.48-.02.95-.03,1.43-.02" style="fill:none; stroke:#000; stroke-linecap:round; stroke-linejoin:round; stroke-width:3px;"/><path d="M131.8552,69.65c2.42,7.99,2.56,16.65.42,24.72" style="fill:none; stroke:#000; stroke-linecap:round; stroke-linejoin:round; stroke-width:3px;"/><path d="M132.4852,94.6l.01-.01c2.24-2.2,4.17-4.7,5.73-7.41,1.8-3.11,3.11-6.51,3.86-10.02" style="fill:none; stroke:#000; stroke-linecap:round; stroke-linejoin:round; stroke-width:3px;"/><path d="M167.4652,127.84c-.8,3.11-.85,6.39-.22,9.54.84,4.28,2.91,8.32,6.02,11.38" style="fill:none; stroke:#000; stroke-linecap:round; stroke-linejoin:round; stroke-width:3px;"/><path d="M173.3952,148.82c-.05,0-.09-.01-.14-.02-2.33-.25-4.42-1.63-5.99-3.37-1.59-1.78-2.72-3.92-3.83-6.04" style="fill:none; stroke:#000; stroke-linecap:round; stroke-linejoin:round; stroke-width:3px;"/><path d="M163.2052,139.5c1.99,7.4,6.38,14.14,12.35,18.96" style="fill:none; stroke:#000; stroke-linecap:round; stroke-linejoin:round; stroke-width:3px;"/><path d="M175.5352,158.6c-3.61.23-7.3.32-10.77-.68-3.48-1.01-6.75-3.28-8.14-6.62" style="fill:none; stroke:#000; stroke-linecap:round; stroke-linejoin:round; stroke-width:3px;"/><path d="M156.6352,151.13l-.09.09c-3.35,3.36-6.69,6.72-10.04,10.08" style="fill:none; stroke:#000; stroke-linecap:round; stroke-linejoin:round; stroke-width:3px;"/><path d="M146.3252,161.16c.55-2.47,1.09-4.94,1.64-7.4" style="fill:none; stroke:#000; stroke-linecap:round; stroke-linejoin:round; stroke-width:3px;"/><path d="M147.8852,153.59c-3.48,1.81-6.95,3.62-10.43,5.42" style="fill:none; stroke:#000; stroke-linecap:round; stroke-linejoin:round; stroke-width:3px;"/><path d="M137.3152,158.81c2.21-2.17,3.42-5.31,3.24-8.4" style="fill:none; stroke:#000; stroke-linecap:round; stroke-linejoin:round; stroke-width:3px;"/><path d="M172.5352,68.85c9.41,17.34,9.22,39.52-.48,56.7-2.1,3.72-4.69,7.51-4.57,11.79" style="fill:none; stroke:#000; stroke-linecap:round; stroke-linejoin:round; stroke-width:3px;"/><path d="M46.7252,84.61c1.24-7.74,2.97-15.48,6.36-22.54s8.58-13.45,15.48-17.15" style="fill:none; stroke:#000; stroke-linecap:round; stroke-linejoin:round; stroke-width:3px;"/><path d="M47.0052,63.67c-3.82,5.34-7.08,11.07-10.27,16.82-3.13,5.65-6.2,11.35-8.56,17.36-2.36,6-4.01,12.36-4.16,18.81v.02" style="fill:none; stroke:#000; stroke-linecap:round; stroke-linejoin:round; stroke-width:3px;"/><path d="M23.8852,116.72c.04-.02.09-.04.13-.06,7.03-3.33,14.14-6.47,21.34-9.42.12-.05.25-.1.37-.15" style="fill:none; stroke:#000; stroke-linecap:round; stroke-linejoin:round; stroke-width:3px;"/><path d="M45.5052,107.61c-3.1,3.21-5.41,7.17-6.67,11.45,4.29-1.8,8.59-3.61,12.88-5.41-.75,7.51-1.08,15.05-.98,22.59.06,4.04.24,8.14,1.51,11.97v.01c.03.08.05.16.08.24" style="fill:none; stroke:#000; stroke-linecap:round; stroke-linejoin:round; stroke-width:3px;"/><path d="M52.4152,148.16c2-4.19,4.5-8.14,7.43-11.74" style="fill:none; stroke:#000; stroke-linecap:round; stroke-linejoin:round; stroke-width:3px;"/><path d="M59.9452,136.43c.83,7.94,4.73,15.53,10.7,20.83" style="fill:none; stroke:#000; stroke-linecap:round; stroke-linejoin:round; stroke-width:3px;"/><path d="M138.2252,87.18c3.61,6.99,6.67,14.27,9.13,21.74.32.93.61,1.86.9,2.79" style="fill:none; stroke:#000; stroke-linecap:round; stroke-linejoin:round; stroke-width:3px;"/><path d="M148.4252,111.61c4.99-9.51,6.48-20.81,4.12-31.29" style="fill:none; stroke:#000; stroke-linecap:round; stroke-linejoin:round; stroke-width:3px;"/><path d="M146.6952,109.14c.04,1.15.03,2.3-.04,3.44-.35,7.48-2.61,14.86-6.51,21.25-.03.04-.05.09-.08.13" style="fill:none; stroke:#000; stroke-linecap:round; stroke-linejoin:round; stroke-width:3px;"/><path d="M140.0252,133.88c.04-.02.08-.03.12-.05,1.91-.73,3.44-2.24,4.79-3.8,1.21-1.39,2.35-2.87,3.76-4.03.2-.17.41-.33.62-.48" style="fill:none; stroke:#000; stroke-linecap:round; stroke-linejoin:round; stroke-width:3px;"/><path d="M149.8352,126.2c.26,6.91-1.11,13.87-3.93,20.18-.39.88-.81,1.74-1.26,2.59-.06.12-.13.24-.19.36" style="fill:none; stroke:#000; stroke-linecap:round; stroke-linejoin:round; stroke-width:3px;"/><path d="M144.3852,149.14c.09-.06.17-.11.26-.17,4.09-2.69,7.86-5.87,11.22-9.44.69-.73,1.36-1.49,2.01-2.26.03-.02.05-.05.07-.08,2.34-2.76,4.45-5.73,6.28-8.86.3-.52.6-1.05.89-1.58,4.33-7.97,6.91-16.88,7.46-25.93" style="fill:none; stroke:#000; stroke-linecap:round; stroke-linejoin:round; stroke-width:3px;"/><path d="M70.8352,157.19c.6-3.59,1.8-7.08,3.55-10.27" style="fill:none; stroke:#000; stroke-linecap:round; stroke-linejoin:round; stroke-width:3px;"/><path d="M107.7252,161.47c7.49-1.53,14.83-3.79,21.89-6.75,3.59-1.5,7.11-3.18,10.54-5.03,1.94-1.05,3.86-2.15,5.75-3.31,3.43-2.11,6.76-4.4,9.96-6.85.44-.34.87-.68,1.3-1.02" style="fill:none; stroke:#000; stroke-linecap:round; stroke-linejoin:round; stroke-width:3px;"/><path d="M147.5452,113.14c-.29-.19-.59-.38-.89-.56-.78-.5-1.57-.96-2.37-1.42-7.86-4.42-16.57-7.11-25.34-9.17-5.7-1.34-11.48-2.42-17.29-2.99h-.01c-1.58-.15-3.14-.27-4.72-.34-1.21-.07-2.43-.1-3.65-.1-.95-.02-1.9-.01-2.85.02-.54.02-1.09.04-1.64.07-10.13.53-20.3,3.24-28.73,8.89" style="fill:none; stroke:#000; stroke-linecap:round; stroke-linejoin:round; stroke-width:3px;"/><path d="M86.9052,141.16c10.94.38,21.97-1.95,31.82-6.72" style="fill:none; stroke:#000; stroke-linecap:round; stroke-linejoin:round; stroke-width:3px;"/><path d="M92.7152,97.96c-.04.01-.07.01-.11.02-.74.13-1.47.34-2.18.6-2.17.83-4.11,2.27-5.5,4.13" style="fill:none; stroke:#000; stroke-linecap:round; stroke-linejoin:round; stroke-width:3px;"/><path d="M84.8052,102.88c.01,0,.01.01.02.01,3.2,1.94,6.68,3.41,10.29,4.36" style="fill:none; stroke:#000; stroke-linecap:round; stroke-linejoin:round; stroke-width:3px;"/><path d="M95.4052,107.43c2.84-.94,5.6-2.1,8.25-3.48" style="fill:none; stroke:#000; stroke-linecap:round; stroke-linejoin:round; stroke-width:3px;"/><path d="M103.6752,103.95c.28-.04.51-.3.58-.57.08-.28.04-.58-.02-.86-.33-1.4-1.31-2.64-2.61-3.27" style="fill:none; stroke:#000; stroke-linecap:round; stroke-linejoin:round; stroke-width:3px;"/><path d="M59.0552,107.08c-3.39,5.09-4.08,11.7-2.55,17.62.96,3.7,2.73,7.14,5,10.22,1.36,1.84,2.92,3.56,4.58,5.14,2.61,2.46,5.5,4.58,8.54,6.48,2.15,1.34,4.38,2.57,6.63,3.73,3.08,1.58,6.22,3.04,9.39,4.41,5.58,2.42,11.27,4.58,16.95,6.74" style="fill:none; stroke:#000; stroke-linecap:round; stroke-linejoin:round; stroke-width:3px;"/><path d="M59.2652,107.03c-.02-.02-.04-.05-.05-.07-5.96-7.5-7.99-17.97-5.25-27.15" style="fill:none; stroke:#000; stroke-linecap:round; stroke-linejoin:round; stroke-width:3px;"/><path d="M64.0574,74.8458c4.7444-7.3156,15.5657-8.8975,22.4678-3.346,1.8541,1.4851-.3032,4.2863-2.213,2.8632-5.2352-5.3772-14.6391-4.8664-19.4869,1.0594-.3654.4609-1.1099-.0935-.7678-.5766h0Z" style="stroke-width:0px;"/><path d="M119.7554,73.2614c8.5945-3.5396,19.1658-.0101,23.6864,7.9574.4337.7484-.6456,1.4637-1.1652.7663-4.645-6.4731-13.9461-8.7128-20.8246-4.9637-2.5966,1.2662-4.3716-2.6432-1.6967-3.76h0Z" style="stroke-width:0px;"/></svg>